<?xml version="1.0" encoding="UTF-8" standalone="no"?>
<!DOCTYPE svg PUBLIC "-//W3C//DTD SVG 1.1//EN"
 "http://www.w3.org/Graphics/SVG/1.1/DTD/svg11.dtd">
<!-- Generated by graphviz version 2.43.0 (0)
 -->
<!-- Title: /home/sean/Projects/Brenda/src/ECS/AIManager.h Pages: 1 -->
<svg width="445pt" height="170pt"
 viewBox="0.00 0.00 444.50 170.00" xmlns="http://www.w3.org/2000/svg" xmlns:xlink="http://www.w3.org/1999/xlink">
<g id="graph0" class="graph" transform="scale(1 1) rotate(0) translate(4 166)">
<title>/home/sean/Projects/Brenda/src/ECS/AIManager.h</title>
<!-- Node1 -->
<g id="Node000001" class="node">
<title>Node1</title>
<g id="a_Node000001"><a xlink:title=" ">
<polygon fill="#999999" stroke="#666666" points="332,-162 175,-162 175,-132 332,-132 332,-162"/>
<text text-anchor="start" x="183" y="-150" font-family="Helvetica,sans-Serif" font-size="10.00">/home/sean/Projects</text>
<text text-anchor="middle" x="253.5" y="-139" font-family="Helvetica,sans-Serif" font-size="10.00">/Brenda/src/ECS/AIManager.h</text>
</a>
</g>
</g>
<!-- Node2 -->
<g id="Node000002" class="node">
<title>Node2</title>
<g id="a_Node000002"><a xlink:href="AISystem_8h.html" target="_top" xlink:title=" ">
<polygon fill="white" stroke="#666666" points="182.5,-96 52.5,-96 52.5,-66 182.5,-66 182.5,-96"/>
<text text-anchor="start" x="60.5" y="-84" font-family="Helvetica,sans-Serif" font-size="10.00">/home/sean/Projects</text>
<text text-anchor="middle" x="117.5" y="-73" font-family="Helvetica,sans-Serif" font-size="10.00">/Brenda/src/AISystem.h</text>
</a>
</g>
</g>
<!-- Node1&#45;&gt;Node2 -->
<g id="edge1_Node000001_Node000002" class="edge">
<title>Node1&#45;&gt;Node2</title>
<g id="a_edge1_Node000001_Node000002"><a xlink:title=" ">
<path fill="none" stroke="#63b8ff" d="M214.5,-127.65C193.11,-117.58 167.01,-105.3 147.28,-96.01"/>
<polygon fill="#63b8ff" stroke="#63b8ff" points="213.12,-130.86 223.65,-131.95 216.1,-124.53 213.12,-130.86"/>
</a>
</g>
</g>
<!-- Node4 -->
<g id="Node000004" class="node">
<title>Node4</title>
<g id="a_Node000004"><a xlink:href="main_8cpp.html" target="_top" xlink:title=" ">
<polygon fill="white" stroke="#666666" points="278,-30 159,-30 159,0 278,0 278,-30"/>
<text text-anchor="start" x="167" y="-18" font-family="Helvetica,sans-Serif" font-size="10.00">/home/sean/Projects</text>
<text text-anchor="middle" x="218.5" y="-7" font-family="Helvetica,sans-Serif" font-size="10.00">/Brenda/src/main.cpp</text>
</a>
</g>
</g>
<!-- Node1&#45;&gt;Node4 -->
<g id="edge8_Node000001_Node000004" class="edge">
<title>Node1&#45;&gt;Node4</title>
<g id="a_edge8_Node000001_Node000004"><a xlink:title=" ">
<path fill="none" stroke="#63b8ff" d="M240.43,-122.64C236.35,-114.43 232.21,-105.01 229.5,-96 222.76,-73.58 220.13,-46.37 219.12,-30.15"/>
<polygon fill="#63b8ff" stroke="#63b8ff" points="237.38,-124.36 245.11,-131.61 243.59,-121.12 237.38,-124.36"/>
</a>
</g>
</g>
<!-- Node5 -->
<g id="Node000005" class="node">
<title>Node5</title>
<g id="a_Node000005"><a xlink:href="Scene_8cpp.html" target="_top" xlink:title=" ">
<polygon fill="white" stroke="#666666" points="436.5,-30 312.5,-30 312.5,0 436.5,0 436.5,-30"/>
<text text-anchor="start" x="320.5" y="-18" font-family="Helvetica,sans-Serif" font-size="10.00">/home/sean/Projects</text>
<text text-anchor="middle" x="374.5" y="-7" font-family="Helvetica,sans-Serif" font-size="10.00">/Brenda/src/Scene.cpp</text>
</a>
</g>
</g>
<!-- Node1&#45;&gt;Node5 -->
<g id="edge4_Node000001_Node000005" class="edge">
<title>Node1&#45;&gt;Node5</title>
<g id="a_edge4_Node000001_Node000005"><a xlink:title=" ">
<path fill="none" stroke="#63b8ff" d="M321.24,-127.87C337.35,-120.47 352.92,-110.2 363.5,-96 377.82,-76.78 377.92,-47.54 376.4,-30.24"/>
<polygon fill="#63b8ff" stroke="#63b8ff" points="319.57,-124.77 311.72,-131.89 322.29,-131.22 319.57,-124.77"/>
</a>
</g>
</g>
<!-- Node6 -->
<g id="Node000006" class="node">
<title>Node6</title>
<g id="a_Node000006"><a xlink:href="Scene_8h.html" target="_top" xlink:title=" ">
<polygon fill="white" stroke="#666666" points="354.5,-96 238.5,-96 238.5,-66 354.5,-66 354.5,-96"/>
<text text-anchor="start" x="246.5" y="-84" font-family="Helvetica,sans-Serif" font-size="10.00">/home/sean/Projects</text>
<text text-anchor="middle" x="296.5" y="-73" font-family="Helvetica,sans-Serif" font-size="10.00">/Brenda/src/Scene.h</text>
</a>
</g>
</g>
<!-- Node1&#45;&gt;Node6 -->
<g id="edge5_Node000001_Node000006" class="edge">
<title>Node1&#45;&gt;Node6</title>
<g id="a_edge5_Node000001_Node000006"><a xlink:title=" ">
<path fill="none" stroke="#63b8ff" d="M268.79,-123.24C274.86,-114.21 281.64,-104.11 286.98,-96.16"/>
<polygon fill="#63b8ff" stroke="#63b8ff" points="265.71,-121.54 263.04,-131.8 271.53,-125.45 265.71,-121.54"/>
</a>
</g>
</g>
<!-- Node3 -->
<g id="Node000003" class="node">
<title>Node3</title>
<g id="a_Node000003"><a xlink:href="AISystem_8cpp.html" target="_top" xlink:title=" ">
<polygon fill="white" stroke="#666666" points="141,-30 0,-30 0,0 141,0 141,-30"/>
<text text-anchor="start" x="8" y="-18" font-family="Helvetica,sans-Serif" font-size="10.00">/home/sean/Projects</text>
<text text-anchor="middle" x="70.5" y="-7" font-family="Helvetica,sans-Serif" font-size="10.00">/Brenda/src/AISystem.cpp</text>
</a>
</g>
</g>
<!-- Node2&#45;&gt;Node3 -->
<g id="edge2_Node000002_Node000003" class="edge">
<title>Node2&#45;&gt;Node3</title>
<g id="a_edge2_Node000002_Node000003"><a xlink:title=" ">
<path fill="none" stroke="#63b8ff" d="M101,-57.53C94.31,-48.43 86.8,-38.19 80.9,-30.16"/>
<polygon fill="#63b8ff" stroke="#63b8ff" points="98.33,-59.81 107.07,-65.8 103.97,-55.66 98.33,-59.81"/>
</a>
</g>
</g>
<!-- Node2&#45;&gt;Node4 -->
<g id="edge3_Node000002_Node000004" class="edge">
<title>Node2&#45;&gt;Node4</title>
<g id="a_edge3_Node000002_Node000004"><a xlink:title=" ">
<path fill="none" stroke="#63b8ff" d="M148.59,-60.3C163.96,-50.56 182.17,-39.02 196.15,-30.16"/>
<polygon fill="#63b8ff" stroke="#63b8ff" points="146.49,-57.49 139.92,-65.8 150.24,-63.4 146.49,-57.49"/>
</a>
</g>
</g>
<!-- Node6&#45;&gt;Node4 -->
<g id="edge7_Node000006_Node000004" class="edge">
<title>Node6&#45;&gt;Node4</title>
<g id="a_edge7_Node000006_Node000004"><a xlink:title=" ">
<path fill="none" stroke="#63b8ff" d="M271.15,-59.2C259.57,-49.7 246.15,-38.69 235.76,-30.16"/>
<polygon fill="#63b8ff" stroke="#63b8ff" points="269.24,-62.16 279.19,-65.8 273.68,-56.75 269.24,-62.16"/>
</a>
</g>
</g>
<!-- Node6&#45;&gt;Node5 -->
<g id="edge6_Node000006_Node000005" class="edge">
<title>Node6&#45;&gt;Node5</title>
<g id="a_edge6_Node000006_Node000005"><a xlink:title=" ">
<path fill="none" stroke="#63b8ff" d="M321.85,-59.2C333.43,-49.7 346.85,-38.69 357.24,-30.16"/>
<polygon fill="#63b8ff" stroke="#63b8ff" points="319.32,-56.75 313.81,-65.8 323.76,-62.16 319.32,-56.75"/>
</a>
</g>
</g>
</g>
</svg>
