<?xml version="1.0" encoding="UTF-8" standalone="no"?>
<!DOCTYPE svg PUBLIC "-//W3C//DTD SVG 1.1//EN"
 "http://www.w3.org/Graphics/SVG/1.1/DTD/svg11.dtd">
<!-- Generated by graphviz version 2.43.0 (0)
 -->
<!-- Title: /home/sean/Projects/Brenda/src/AISystem.cpp Pages: 1 -->
<svg width="2219pt" height="335pt"
 viewBox="0.00 0.00 2219.00 335.00" xmlns="http://www.w3.org/2000/svg" xmlns:xlink="http://www.w3.org/1999/xlink">
<g id="graph0" class="graph" transform="scale(1 1) rotate(0) translate(4 331)">
<title>/home/sean/Projects/Brenda/src/AISystem.cpp</title>
<!-- Node1 -->
<g id="Node000001" class="node">
<title>Node1</title>
<g id="a_Node000001"><a xlink:title=" ">
<polygon fill="#999999" stroke="#666666" points="1394,-327 1253,-327 1253,-297 1394,-297 1394,-327"/>
<text text-anchor="start" x="1261" y="-315" font-family="Helvetica,sans-Serif" font-size="10.00">/home/sean/Projects</text>
<text text-anchor="middle" x="1323.5" y="-304" font-family="Helvetica,sans-Serif" font-size="10.00">/Brenda/src/AISystem.cpp</text>
</a>
</g>
</g>
<!-- Node2 -->
<g id="Node000002" class="node">
<title>Node2</title>
<g id="a_Node000002"><a xlink:href="AISystem_8h.html" target="_top" xlink:title=" ">
<polygon fill="white" stroke="#666666" points="739.5,-261 667.5,-261 667.5,-242 739.5,-242 739.5,-261"/>
<text text-anchor="middle" x="703.5" y="-249" font-family="Helvetica,sans-Serif" font-size="10.00">AISystem.h</text>
</a>
</g>
</g>
<!-- Node1&#45;&gt;Node2 -->
<g id="edge1_Node000001_Node000002" class="edge">
<title>Node1&#45;&gt;Node2</title>
<g id="a_edge1_Node000001_Node000002"><a xlink:title=" ">
<path fill="none" stroke="#63b8ff" d="M1252.98,-304.35C1124.9,-292.26 857.35,-267.02 749.77,-256.87"/>
<polygon fill="#63b8ff" stroke="#63b8ff" points="749.85,-253.36 739.56,-255.9 749.19,-260.33 749.85,-253.36"/>
</a>
</g>
</g>
<!-- Node14 -->
<g id="Node000014" class="node">
<title>Node14</title>
<g id="a_Node000014"><a xlink:title=" ">
<polygon fill="#e0e0e0" stroke="#999999" points="1550.5,-74 1490.5,-74 1490.5,-55 1550.5,-55 1550.5,-74"/>
<text text-anchor="middle" x="1520.5" y="-62" font-family="Helvetica,sans-Serif" font-size="10.00">iostream</text>
</a>
</g>
</g>
<!-- Node1&#45;&gt;Node14 -->
<g id="edge71_Node000001_Node000014" class="edge">
<title>Node1&#45;&gt;Node14</title>
<g id="a_edge71_Node000001_Node000014"><a xlink:title=" ">
<path fill="none" stroke="#63b8ff" d="M1394.1,-304.28C1549.98,-287.73 1914.82,-238.95 1978.5,-140 1985.72,-128.79 1987.52,-119.82 1978.5,-110 1948.45,-77.25 1638.28,-80.56 1560.7,-73.63"/>
<polygon fill="#63b8ff" stroke="#63b8ff" points="1561,-70.14 1550.66,-72.48 1560.2,-77.09 1561,-70.14"/>
</a>
</g>
</g>
<!-- Node3 -->
<g id="Node000003" class="node">
<title>Node3</title>
<g id="a_Node000003"><a xlink:href="AIManager_8h.html" target="_top" xlink:title=" ">
<polygon fill="white" stroke="#666666" points="796,-200.5 691,-200.5 691,-181.5 796,-181.5 796,-200.5"/>
<text text-anchor="middle" x="743.5" y="-188.5" font-family="Helvetica,sans-Serif" font-size="10.00">./ECS/AIManager.h</text>
</a>
</g>
</g>
<!-- Node2&#45;&gt;Node3 -->
<g id="edge2_Node000002_Node000003" class="edge">
<title>Node2&#45;&gt;Node3</title>
<g id="a_edge2_Node000002_Node000003"><a xlink:title=" ">
<path fill="none" stroke="#63b8ff" d="M709.4,-241.87C715.25,-233.31 724.37,-219.97 731.71,-209.24"/>
<polygon fill="#63b8ff" stroke="#63b8ff" points="734.82,-210.9 737.57,-200.67 729.04,-206.95 734.82,-210.9"/>
</a>
</g>
</g>
<!-- Node8 -->
<g id="Node000008" class="node">
<title>Node8</title>
<g id="a_Node000008"><a xlink:href="PositionManager_8h.html" target="_top" xlink:title=" ">
<polygon fill="white" stroke="#666666" points="1865.5,-134.5 1731.5,-134.5 1731.5,-115.5 1865.5,-115.5 1865.5,-134.5"/>
<text text-anchor="middle" x="1798.5" y="-122.5" font-family="Helvetica,sans-Serif" font-size="10.00">./ECS/PositionManager.h</text>
</a>
</g>
</g>
<!-- Node2&#45;&gt;Node8 -->
<g id="edge7_Node000002_Node000008" class="edge">
<title>Node2&#45;&gt;Node8</title>
<g id="a_edge7_Node000002_Node000008"><a xlink:title=" ">
<path fill="none" stroke="#63b8ff" d="M739.88,-249.57C876.96,-245.88 1362.18,-231.32 1514.5,-206 1607.31,-190.58 1713.13,-156.11 1765.52,-137.86"/>
<polygon fill="#63b8ff" stroke="#63b8ff" points="1766.69,-141.16 1774.96,-134.54 1764.37,-134.55 1766.69,-141.16"/>
</a>
</g>
</g>
<!-- Node15 -->
<g id="Node000015" class="node">
<title>Node15</title>
<g id="a_Node000015"><a xlink:href="MovementManager_8h.html" target="_top" xlink:title=" ">
<polygon fill="white" stroke="#666666" points="1824.5,-200.5 1676.5,-200.5 1676.5,-181.5 1824.5,-181.5 1824.5,-200.5"/>
<text text-anchor="middle" x="1750.5" y="-188.5" font-family="Helvetica,sans-Serif" font-size="10.00">./ECS/MovementManager.h</text>
</a>
</g>
</g>
<!-- Node2&#45;&gt;Node15 -->
<g id="edge16_Node000002_Node000015" class="edge">
<title>Node2&#45;&gt;Node15</title>
<g id="a_edge16_Node000002_Node000015"><a xlink:title=" ">
<path fill="none" stroke="#63b8ff" d="M739.7,-249.62C863.76,-246.42 1283.17,-234.09 1628.5,-206 1643,-204.82 1658.44,-203.27 1673.29,-201.64"/>
<polygon fill="#63b8ff" stroke="#63b8ff" points="1673.91,-205.09 1683.46,-200.5 1673.13,-198.14 1673.91,-205.09"/>
</a>
</g>
</g>
<!-- Node19 -->
<g id="Node000019" class="node">
<title>Node19</title>
<g id="a_Node000019"><a xlink:href="DescriptionComponentManager_8h.html" target="_top" xlink:title=" ">
<polygon fill="white" stroke="#666666" points="1021.5,-206 865.5,-206 865.5,-176 1021.5,-176 1021.5,-206"/>
<text text-anchor="start" x="873.5" y="-194" font-family="Helvetica,sans-Serif" font-size="10.00">./ECS/DescriptionComponent</text>
<text text-anchor="middle" x="943.5" y="-183" font-family="Helvetica,sans-Serif" font-size="10.00">Manager.h</text>
</a>
</g>
</g>
<!-- Node2&#45;&gt;Node19 -->
<g id="edge25_Node000002_Node000019" class="edge">
<title>Node2&#45;&gt;Node19</title>
<g id="a_edge25_Node000002_Node000019"><a xlink:title=" ">
<path fill="none" stroke="#63b8ff" d="M738.4,-241.99C774.3,-233.24 831.13,-219.39 875.87,-208.48"/>
<polygon fill="#63b8ff" stroke="#63b8ff" points="876.91,-211.83 885.8,-206.06 875.26,-205.03 876.91,-211.83"/>
</a>
</g>
</g>
<!-- Node21 -->
<g id="Node000021" class="node">
<title>Node21</title>
<g id="a_Node000021"><a xlink:href="Pathfinder_8h.html" target="_top" xlink:title=" ">
<polygon fill="white" stroke="#666666" points="252.5,-200.5 178.5,-200.5 178.5,-181.5 252.5,-181.5 252.5,-200.5"/>
<text text-anchor="middle" x="215.5" y="-188.5" font-family="Helvetica,sans-Serif" font-size="10.00">Pathfinder.h</text>
</a>
</g>
</g>
<!-- Node2&#45;&gt;Node21 -->
<g id="edge34_Node000002_Node000021" class="edge">
<title>Node2&#45;&gt;Node21</title>
<g id="a_edge34_Node000002_Node000021"><a xlink:title=" ">
<path fill="none" stroke="#63b8ff" d="M667.24,-248.85C591.99,-244.98 413.62,-233.48 266.5,-206 262.12,-205.18 257.56,-204.17 253.06,-203.07"/>
<polygon fill="#63b8ff" stroke="#63b8ff" points="253.92,-199.68 243.36,-200.55 252.16,-206.45 253.92,-199.68"/>
</a>
</g>
</g>
<!-- Node22 -->
<g id="Node000022" class="node">
<title>Node22</title>
<g id="a_Node000022"><a xlink:href="Grid_8h.html" target="_top" xlink:title=" ">
<polygon fill="white" stroke="#666666" points="173.5,-134.5 127.5,-134.5 127.5,-115.5 173.5,-115.5 173.5,-134.5"/>
<text text-anchor="middle" x="150.5" y="-122.5" font-family="Helvetica,sans-Serif" font-size="10.00">Grid.h</text>
</a>
</g>
</g>
<!-- Node2&#45;&gt;Node22 -->
<g id="edge46_Node000002_Node000022" class="edge">
<title>Node2&#45;&gt;Node22</title>
<g id="a_edge46_Node000002_Node000022"><a xlink:title=" ">
<path fill="none" stroke="#63b8ff" d="M667.35,-249.91C553.41,-247.7 207.14,-238.38 169.5,-206 152.11,-191.04 149.07,-163.35 149.21,-144.8"/>
<polygon fill="#63b8ff" stroke="#63b8ff" points="152.71,-144.76 149.61,-134.63 145.72,-144.48 152.71,-144.76"/>
</a>
</g>
</g>
<!-- Node27 -->
<g id="Node000027" class="node">
<title>Node27</title>
<g id="a_Node000027"><a xlink:href="GeminiClient_8h.html" target="_top" xlink:title=" ">
<polygon fill="white" stroke="#666666" points="281,-134.5 192,-134.5 192,-115.5 281,-115.5 281,-134.5"/>
<text text-anchor="middle" x="236.5" y="-122.5" font-family="Helvetica,sans-Serif" font-size="10.00">GeminiClient.h</text>
</a>
</g>
</g>
<!-- Node2&#45;&gt;Node27 -->
<g id="edge47_Node000002_Node000027" class="edge">
<title>Node2&#45;&gt;Node27</title>
<g id="a_edge47_Node000002_Node000027"><a xlink:title=" ">
<path fill="none" stroke="#63b8ff" d="M667.42,-250.05C580.54,-248.41 362.28,-240.84 299.5,-206 273.95,-191.82 255.13,-162.6 245,-143.67"/>
<polygon fill="#63b8ff" stroke="#63b8ff" points="248.05,-141.94 240.39,-134.61 241.81,-145.11 248.05,-141.94"/>
</a>
</g>
</g>
<!-- Node28 -->
<g id="Node000028" class="node">
<title>Node28</title>
<g id="a_Node000028"><a xlink:href="InfoBoxManager_8h.html" target="_top" xlink:title=" ">
<polygon fill="white" stroke="#666666" points="1505,-200.5 1378,-200.5 1378,-181.5 1505,-181.5 1505,-200.5"/>
<text text-anchor="middle" x="1441.5" y="-188.5" font-family="Helvetica,sans-Serif" font-size="10.00">ECS/InfoBoxManager.h</text>
</a>
</g>
</g>
<!-- Node2&#45;&gt;Node28 -->
<g id="edge50_Node000002_Node000028" class="edge">
<title>Node2&#45;&gt;Node28</title>
<g id="a_edge50_Node000002_Node000028"><a xlink:title=" ">
<path fill="none" stroke="#63b8ff" d="M739.59,-247.64C854.24,-238.55 1211.67,-210.22 1367.56,-197.86"/>
<polygon fill="#63b8ff" stroke="#63b8ff" points="1368.29,-201.31 1377.98,-197.04 1367.74,-194.34 1368.29,-201.31"/>
</a>
</g>
</g>
<!-- Node32 -->
<g id="Node000032" class="node">
<title>Node32</title>
<g id="a_Node000032"><a xlink:href="Clock_8h.html" target="_top" xlink:title=" ">
<polygon fill="white" stroke="#666666" points="480,-200.5 427,-200.5 427,-181.5 480,-181.5 480,-200.5"/>
<text text-anchor="middle" x="453.5" y="-188.5" font-family="Helvetica,sans-Serif" font-size="10.00">Clock.h</text>
</a>
</g>
</g>
<!-- Node2&#45;&gt;Node32 -->
<g id="edge61_Node000002_Node000032" class="edge">
<title>Node2&#45;&gt;Node32</title>
<g id="a_edge61_Node000002_Node000032"><a xlink:title=" ">
<path fill="none" stroke="#63b8ff" d="M667.41,-242.06C620.17,-231 537.8,-211.73 490.24,-200.6"/>
<polygon fill="#63b8ff" stroke="#63b8ff" points="490.89,-197.16 480.36,-198.29 489.3,-203.97 490.89,-197.16"/>
</a>
</g>
</g>
<!-- Node33 -->
<g id="Node000033" class="node">
<title>Node33</title>
<g id="a_Node000033"><a xlink:href="TimeOfDay_8h.html" target="_top" xlink:title=" ">
<polygon fill="white" stroke="#666666" points="493.5,-134.5 413.5,-134.5 413.5,-115.5 493.5,-115.5 493.5,-134.5"/>
<text text-anchor="middle" x="453.5" y="-122.5" font-family="Helvetica,sans-Serif" font-size="10.00">TimeOfDay.h</text>
</a>
</g>
</g>
<!-- Node2&#45;&gt;Node33 -->
<g id="edge65_Node000002_Node000033" class="edge">
<title>Node2&#45;&gt;Node33</title>
<g id="a_edge65_Node000002_Node000033"><a xlink:title=" ">
<path fill="none" stroke="#63b8ff" d="M686.32,-241.94C643.41,-220.58 531.34,-164.77 479.95,-139.17"/>
<polygon fill="#63b8ff" stroke="#63b8ff" points="481.32,-135.94 470.8,-134.62 478.19,-142.21 481.32,-135.94"/>
</a>
</g>
</g>
<!-- Node34 -->
<g id="Node000034" class="node">
<title>Node34</title>
<g id="a_Node000034"><a xlink:href="HomeManager_8h.html" target="_top" xlink:title=" ">
<polygon fill="white" stroke="#666666" points="406,-200.5 309,-200.5 309,-181.5 406,-181.5 406,-200.5"/>
<text text-anchor="middle" x="357.5" y="-188.5" font-family="Helvetica,sans-Serif" font-size="10.00">HomeManager.h</text>
</a>
</g>
</g>
<!-- Node2&#45;&gt;Node34 -->
<g id="edge66_Node000002_Node000034" class="edge">
<title>Node2&#45;&gt;Node34</title>
<g id="a_edge66_Node000002_Node000034"><a xlink:title=" ">
<path fill="none" stroke="#63b8ff" d="M667.37,-245.69C613.12,-238.29 507.51,-223.14 418.5,-206 413.43,-205.02 408.14,-203.93 402.88,-202.79"/>
<polygon fill="#63b8ff" stroke="#63b8ff" points="403.41,-199.32 392.89,-200.57 401.89,-206.15 403.41,-199.32"/>
</a>
</g>
</g>
<!-- Node4 -->
<g id="Node000004" class="node">
<title>Node4</title>
<g id="a_Node000004"><a xlink:href="AIState_8h.html" target="_top" xlink:title=" ">
<polygon fill="white" stroke="#666666" points="641.5,-134.5 511.5,-134.5 511.5,-115.5 641.5,-115.5 641.5,-134.5"/>
<text text-anchor="middle" x="576.5" y="-122.5" font-family="Helvetica,sans-Serif" font-size="10.00">./components/AIState.h</text>
</a>
</g>
</g>
<!-- Node3&#45;&gt;Node4 -->
<g id="edge3_Node000003_Node000004" class="edge">
<title>Node3&#45;&gt;Node4</title>
<g id="a_edge3_Node000003_Node000004"><a xlink:title=" ">
<path fill="none" stroke="#63b8ff" d="M720.98,-181.37C692.01,-170.27 641.52,-150.92 608.56,-138.28"/>
<polygon fill="#63b8ff" stroke="#63b8ff" points="609.52,-134.91 598.93,-134.6 607.02,-141.44 609.52,-134.91"/>
</a>
</g>
</g>
<!-- Node6 -->
<g id="Node000006" class="node">
<title>Node6</title>
<g id="a_Node000006"><a xlink:href="IComponentManager_8h.html" target="_top" xlink:title=" ">
<polygon fill="white" stroke="#666666" points="1472,-74 1345,-74 1345,-55 1472,-55 1472,-74"/>
<text text-anchor="middle" x="1408.5" y="-62" font-family="Helvetica,sans-Serif" font-size="10.00">IComponentManager.h</text>
</a>
</g>
</g>
<!-- Node3&#45;&gt;Node6 -->
<g id="edge5_Node000003_Node000006" class="edge">
<title>Node3&#45;&gt;Node6</title>
<g id="a_edge5_Node000003_Node000006"><a xlink:title=" ">
<path fill="none" stroke="#63b8ff" d="M796.08,-183.26C815.1,-180.88 836.76,-178.24 856.5,-176 1011.88,-158.39 1063.72,-203.79 1206.5,-140 1224.6,-131.91 1222.08,-119.46 1239.5,-110 1269.93,-93.47 1306.83,-82.83 1338.37,-76.12"/>
<polygon fill="#63b8ff" stroke="#63b8ff" points="1339.3,-79.5 1348.41,-74.08 1337.91,-72.64 1339.3,-79.5"/>
</a>
</g>
</g>
<!-- Node7 -->
<g id="Node000007" class="node">
<title>Node7</title>
<g id="a_Node000007"><a xlink:title=" ">
<polygon fill="#e0e0e0" stroke="#999999" points="990,-74 897,-74 897,-55 990,-55 990,-74"/>
<text text-anchor="middle" x="943.5" y="-62" font-family="Helvetica,sans-Serif" font-size="10.00">unordered_map</text>
</a>
</g>
</g>
<!-- Node3&#45;&gt;Node7 -->
<g id="edge6_Node000003_Node000007" class="edge">
<title>Node3&#45;&gt;Node7</title>
<g id="a_edge6_Node000003_Node000007"><a xlink:title=" ">
<path fill="none" stroke="#63b8ff" d="M783.61,-181.46C812.67,-173.9 851.89,-160.79 881.5,-140 903.37,-124.64 921.97,-99.66 932.94,-82.91"/>
<polygon fill="#63b8ff" stroke="#63b8ff" points="936.1,-84.46 938.48,-74.14 930.18,-80.72 936.1,-84.46"/>
</a>
</g>
</g>
<!-- Node5 -->
<g id="Node000005" class="node">
<title>Node5</title>
<g id="a_Node000005"><a xlink:title=" ">
<polygon fill="#e0e0e0" stroke="#999999" points="475.5,-74 431.5,-74 431.5,-55 475.5,-55 475.5,-74"/>
<text text-anchor="middle" x="453.5" y="-62" font-family="Helvetica,sans-Serif" font-size="10.00">string</text>
</a>
</g>
</g>
<!-- Node4&#45;&gt;Node5 -->
<g id="edge4_Node000004_Node000005" class="edge">
<title>Node4&#45;&gt;Node5</title>
<g id="a_edge4_Node000004_Node000005"><a xlink:title=" ">
<path fill="none" stroke="#63b8ff" d="M558.61,-115.49C538.12,-105.75 504.31,-89.66 480.58,-78.38"/>
<polygon fill="#63b8ff" stroke="#63b8ff" points="481.94,-75.15 471.41,-74.02 478.93,-81.47 481.94,-75.15"/>
</a>
</g>
</g>
<!-- Node8&#45;&gt;Node6 -->
<g id="edge12_Node000008_Node000006" class="edge">
<title>Node8&#45;&gt;Node6</title>
<g id="a_edge12_Node000008_Node000006"><a xlink:title=" ">
<path fill="none" stroke="#63b8ff" d="M1750.57,-115.49C1739.7,-113.62 1728.21,-111.7 1717.5,-110 1636.87,-97.23 1544.16,-84.08 1481.49,-75.42"/>
<polygon fill="#63b8ff" stroke="#63b8ff" points="1481.69,-71.92 1471.31,-74.02 1480.74,-78.85 1481.69,-71.92"/>
</a>
</g>
</g>
<!-- Node8&#45;&gt;Node7 -->
<g id="edge13_Node000008_Node000007" class="edge">
<title>Node8&#45;&gt;Node7</title>
<g id="a_edge13_Node000008_Node000007"><a xlink:title=" ">
<path fill="none" stroke="#63b8ff" d="M1731.3,-117.63C1703.52,-115.1 1670.97,-112.25 1641.5,-110 1403.51,-91.81 1119.47,-75.32 1000.41,-68.64"/>
<polygon fill="#63b8ff" stroke="#63b8ff" points="1000.27,-65.13 990.09,-68.06 999.88,-72.12 1000.27,-65.13"/>
</a>
</g>
</g>
<!-- Node9 -->
<g id="Node000009" class="node">
<title>Node9</title>
<g id="a_Node000009"><a xlink:href="Entity_8h.html" target="_top" xlink:title=" ">
<polygon fill="white" stroke="#666666" points="1830,-74 1777,-74 1777,-55 1830,-55 1830,-74"/>
<text text-anchor="middle" x="1803.5" y="-62" font-family="Helvetica,sans-Serif" font-size="10.00">Entity.h</text>
</a>
</g>
</g>
<!-- Node8&#45;&gt;Node9 -->
<g id="edge8_Node000008_Node000009" class="edge">
<title>Node8&#45;&gt;Node9</title>
<g id="a_edge8_Node000008_Node000009"><a xlink:title=" ">
<path fill="none" stroke="#63b8ff" d="M1799.24,-115.37C1799.93,-107.25 1801,-94.81 1801.89,-84.39"/>
<polygon fill="#63b8ff" stroke="#63b8ff" points="1805.39,-84.43 1802.76,-74.17 1798.42,-83.83 1805.39,-84.43"/>
</a>
</g>
</g>
<!-- Node11 -->
<g id="Node000011" class="node">
<title>Node11</title>
<g id="a_Node000011"><a xlink:href="PositionComponent_8h.html" target="_top" xlink:title=" ">
<polygon fill="white" stroke="#666666" points="1758.5,-74 1568.5,-74 1568.5,-55 1758.5,-55 1758.5,-74"/>
<text text-anchor="middle" x="1663.5" y="-62" font-family="Helvetica,sans-Serif" font-size="10.00">./components/PositionComponent.h</text>
</a>
</g>
</g>
<!-- Node8&#45;&gt;Node11 -->
<g id="edge10_Node000008_Node000011" class="edge">
<title>Node8&#45;&gt;Node11</title>
<g id="a_edge10_Node000008_Node000011"><a xlink:title=" ">
<path fill="none" stroke="#63b8ff" d="M1778.87,-115.49C1756.17,-105.66 1718.6,-89.38 1692.53,-78.08"/>
<polygon fill="#63b8ff" stroke="#63b8ff" points="1693.72,-74.78 1683.15,-74.02 1690.94,-81.2 1693.72,-74.78"/>
</a>
</g>
</g>
<!-- Node13 -->
<g id="Node000013" class="node">
<title>Node13</title>
<g id="a_Node000013"><a xlink:title=" ">
<polygon fill="#e0e0e0" stroke="#999999" points="1916.5,-74 1858.5,-74 1858.5,-55 1916.5,-55 1916.5,-74"/>
<text text-anchor="middle" x="1887.5" y="-62" font-family="Helvetica,sans-Serif" font-size="10.00">memory</text>
</a>
</g>
</g>
<!-- Node8&#45;&gt;Node13 -->
<g id="edge14_Node000008_Node000013" class="edge">
<title>Node8&#45;&gt;Node13</title>
<g id="a_edge14_Node000008_Node000013"><a xlink:title=" ">
<path fill="none" stroke="#63b8ff" d="M1811.63,-115.37C1825.83,-106.04 1848.7,-91.01 1865.62,-79.88"/>
<polygon fill="#63b8ff" stroke="#63b8ff" points="1867.88,-82.58 1874.31,-74.17 1864.03,-76.74 1867.88,-82.58"/>
</a>
</g>
</g>
<!-- Node8&#45;&gt;Node14 -->
<g id="edge15_Node000008_Node000014" class="edge">
<title>Node8&#45;&gt;Node14</title>
<g id="a_edge15_Node000008_Node000014"><a xlink:title=" ">
<path fill="none" stroke="#63b8ff" d="M1757.03,-115.43C1711.39,-105.98 1635.6,-90.21 1560.8,-74.26"/>
<polygon fill="#63b8ff" stroke="#63b8ff" points="1561.24,-70.78 1550.73,-72.11 1559.78,-77.63 1561.24,-70.78"/>
</a>
</g>
</g>
<!-- Node10 -->
<g id="Node000010" class="node">
<title>Node10</title>
<g id="a_Node000010"><a xlink:title=" ">
<polygon fill="#e0e0e0" stroke="#999999" points="1828.5,-19 1778.5,-19 1778.5,0 1828.5,0 1828.5,-19"/>
<text text-anchor="middle" x="1803.5" y="-7" font-family="Helvetica,sans-Serif" font-size="10.00">cstdint</text>
</a>
</g>
</g>
<!-- Node9&#45;&gt;Node10 -->
<g id="edge9_Node000009_Node000010" class="edge">
<title>Node9&#45;&gt;Node10</title>
<g id="a_edge9_Node000009_Node000010"><a xlink:title=" ">
<path fill="none" stroke="#63b8ff" d="M1803.5,-54.75C1803.5,-47.8 1803.5,-37.85 1803.5,-29.13"/>
<polygon fill="#63b8ff" stroke="#63b8ff" points="1807,-29.09 1803.5,-19.09 1800,-29.09 1807,-29.09"/>
</a>
</g>
</g>
<!-- Node12 -->
<g id="Node000012" class="node">
<title>Node12</title>
<g id="a_Node000012"><a xlink:href="IComponent_8h.html" target="_top" xlink:title=" ">
<polygon fill="white" stroke="#666666" points="1433.5,-19 1339.5,-19 1339.5,0 1433.5,0 1433.5,-19"/>
<text text-anchor="middle" x="1386.5" y="-7" font-family="Helvetica,sans-Serif" font-size="10.00">../IComponent.h</text>
</a>
</g>
</g>
<!-- Node11&#45;&gt;Node12 -->
<g id="edge11_Node000011_Node000012" class="edge">
<title>Node11&#45;&gt;Node12</title>
<g id="a_edge11_Node000011_Node000012"><a xlink:title=" ">
<path fill="none" stroke="#63b8ff" d="M1619,-54.98C1570.68,-45.74 1493.46,-30.97 1441.41,-21.01"/>
<polygon fill="#63b8ff" stroke="#63b8ff" points="1441.83,-17.52 1431.35,-19.08 1440.52,-24.4 1441.83,-17.52"/>
</a>
</g>
</g>
<!-- Node15&#45;&gt;Node6 -->
<g id="edge21_Node000015_Node000006" class="edge">
<title>Node15&#45;&gt;Node6</title>
<g id="a_edge21_Node000015_Node000006"><a xlink:title=" ">
<path fill="none" stroke="#63b8ff" d="M1739.89,-181.25C1719.22,-164.68 1671.57,-128.71 1625.5,-110 1598.05,-98.85 1525.04,-85 1471.26,-75.74"/>
<polygon fill="#63b8ff" stroke="#63b8ff" points="1471.56,-72.25 1461.11,-74.01 1470.38,-79.15 1471.56,-72.25"/>
</a>
</g>
</g>
<!-- Node15&#45;&gt;Node7 -->
<g id="edge17_Node000015_Node000007" class="edge">
<title>Node15&#45;&gt;Node7</title>
<g id="a_edge17_Node000015_Node000007"><a xlink:title=" ">
<path fill="none" stroke="#63b8ff" d="M1726.44,-181.44C1703.59,-172.74 1668.77,-158.02 1641.5,-140 1624.96,-129.07 1626.74,-117.76 1608.5,-110 1553.33,-86.52 1151.55,-71.89 1000.6,-67.17"/>
<polygon fill="#63b8ff" stroke="#63b8ff" points="1000.28,-63.66 990.18,-66.85 1000.06,-70.66 1000.28,-63.66"/>
</a>
</g>
</g>
<!-- Node15&#45;&gt;Node8 -->
<g id="edge24_Node000015_Node000008" class="edge">
<title>Node15&#45;&gt;Node8</title>
<g id="a_edge24_Node000015_Node000008"><a xlink:title=" ">
<path fill="none" stroke="#63b8ff" d="M1756.97,-181.37C1764.3,-171.59 1776.43,-155.42 1785.69,-143.08"/>
<polygon fill="#63b8ff" stroke="#63b8ff" points="1788.62,-145.01 1791.82,-134.91 1783.02,-140.81 1788.62,-145.01"/>
</a>
</g>
</g>
<!-- Node15&#45;&gt;Node13 -->
<g id="edge18_Node000015_Node000013" class="edge">
<title>Node15&#45;&gt;Node13</title>
<g id="a_edge18_Node000015_Node000013"><a xlink:title=" ">
<path fill="none" stroke="#63b8ff" d="M1824.72,-183.66C1883.69,-176.91 1959.35,-163.8 1978.5,-140 1986.86,-129.61 1985.56,-121.31 1978.5,-110 1967.08,-91.71 1945.72,-80.73 1926.57,-74.25"/>
<polygon fill="#63b8ff" stroke="#63b8ff" points="1927.4,-70.85 1916.81,-71.26 1925.35,-77.54 1927.4,-70.85"/>
</a>
</g>
</g>
<!-- Node16 -->
<g id="Node000016" class="node">
<title>Node16</title>
<g id="a_Node000016"><a xlink:title=" ">
<polygon fill="#e0e0e0" stroke="#999999" points="1969,-134.5 1922,-134.5 1922,-115.5 1969,-115.5 1969,-134.5"/>
<text text-anchor="middle" x="1945.5" y="-122.5" font-family="Helvetica,sans-Serif" font-size="10.00">cmath</text>
</a>
</g>
</g>
<!-- Node15&#45;&gt;Node16 -->
<g id="edge19_Node000015_Node000016" class="edge">
<title>Node15&#45;&gt;Node16</title>
<g id="a_edge19_Node000015_Node000016"><a xlink:title=" ">
<path fill="none" stroke="#63b8ff" d="M1778.7,-181.43C1810.22,-171.76 1862.72,-155.37 1907.5,-140 1909.35,-139.37 1911.24,-138.71 1913.14,-138.03"/>
<polygon fill="#63b8ff" stroke="#63b8ff" points="1914.43,-141.29 1922.65,-134.61 1912.06,-134.7 1914.43,-141.29"/>
</a>
</g>
</g>
<!-- Node17 -->
<g id="Node000017" class="node">
<title>Node17</title>
<g id="a_Node000017"><a xlink:title=" ">
<polygon fill="#e0e0e0" stroke="#999999" points="47,-74 0,-74 0,-55 47,-55 47,-74"/>
<text text-anchor="middle" x="23.5" y="-62" font-family="Helvetica,sans-Serif" font-size="10.00">vector</text>
</a>
</g>
</g>
<!-- Node15&#45;&gt;Node17 -->
<g id="edge20_Node000015_Node000017" class="edge">
<title>Node15&#45;&gt;Node17</title>
<g id="a_edge20_Node000015_Node000017"><a xlink:title=" ">
<path fill="none" stroke="#63b8ff" d="M1676.39,-184.97C1629.91,-181.97 1568.73,-178.31 1514.5,-176 1436.99,-172.7 190.91,-167.85 118.5,-140 99.38,-132.64 99.52,-122.78 83.5,-110 70.57,-99.69 55.64,-88.61 43.91,-80.09"/>
<polygon fill="#63b8ff" stroke="#63b8ff" points="45.8,-77.14 35.64,-74.12 41.7,-82.81 45.8,-77.14"/>
</a>
</g>
</g>
<!-- Node18 -->
<g id="Node000018" class="node">
<title>Node18</title>
<g id="a_Node000018"><a xlink:href="Movement_8h.html" target="_top" xlink:title=" ">
<polygon fill="white" stroke="#666666" points="2211,-134.5 2064,-134.5 2064,-115.5 2211,-115.5 2211,-134.5"/>
<text text-anchor="middle" x="2137.5" y="-122.5" font-family="Helvetica,sans-Serif" font-size="10.00">./components/Movement.h</text>
</a>
</g>
</g>
<!-- Node15&#45;&gt;Node18 -->
<g id="edge22_Node000015_Node000018" class="edge">
<title>Node15&#45;&gt;Node18</title>
<g id="a_edge22_Node000015_Node000018"><a xlink:title=" ">
<path fill="none" stroke="#63b8ff" d="M1802.29,-181.44C1873.25,-169.7 2000.5,-148.66 2076.15,-136.15"/>
<polygon fill="#63b8ff" stroke="#63b8ff" points="2076.72,-139.6 2086.02,-134.51 2075.58,-132.69 2076.72,-139.6"/>
</a>
</g>
</g>
<!-- Node18&#45;&gt;Node12 -->
<g id="edge23_Node000018_Node000012" class="edge">
<title>Node18&#45;&gt;Node12</title>
<g id="a_edge23_Node000018_Node000012"><a xlink:title=" ">
<path fill="none" stroke="#63b8ff" d="M2116.87,-115.5C2079.45,-100.49 1997.6,-69.5 1925.5,-55 1752.36,-20.17 1542.67,-12.5 1443.61,-10.88"/>
<polygon fill="#63b8ff" stroke="#63b8ff" points="1443.56,-7.38 1433.51,-10.73 1443.46,-14.38 1443.56,-7.38"/>
</a>
</g>
</g>
<!-- Node19&#45;&gt;Node5 -->
<g id="edge28_Node000019_Node000005" class="edge">
<title>Node19&#45;&gt;Node5</title>
<g id="a_edge28_Node000019_Node000005"><a xlink:title=" ">
<path fill="none" stroke="#63b8ff" d="M865.38,-183.99C813.64,-177.79 745.29,-165.25 689.5,-140 669.58,-130.98 670.3,-119.29 650.5,-110 596.02,-84.42 526.02,-73.14 485.82,-68.48"/>
<polygon fill="#63b8ff" stroke="#63b8ff" points="486.11,-64.99 475.78,-67.38 485.35,-71.95 486.11,-64.99"/>
</a>
</g>
</g>
<!-- Node19&#45;&gt;Node6 -->
<g id="edge30_Node000019_Node000006" class="edge">
<title>Node19&#45;&gt;Node6</title>
<g id="a_edge30_Node000019_Node000006"><a xlink:title=" ">
<path fill="none" stroke="#63b8ff" d="M1021.67,-182.15C1082.06,-174.81 1167.24,-161.66 1239.5,-140 1292.66,-124.06 1351.2,-95.62 1383.53,-78.86"/>
<polygon fill="#63b8ff" stroke="#63b8ff" points="1385.46,-81.81 1392.69,-74.07 1382.21,-75.61 1385.46,-81.81"/>
</a>
</g>
</g>
<!-- Node19&#45;&gt;Node7 -->
<g id="edge26_Node000019_Node000007" class="edge">
<title>Node19&#45;&gt;Node7</title>
<g id="a_edge26_Node000019_Node000007"><a xlink:title=" ">
<path fill="none" stroke="#63b8ff" d="M943.5,-175.72C943.5,-153.12 943.5,-109.12 943.5,-84.09"/>
<polygon fill="#63b8ff" stroke="#63b8ff" points="947,-84.07 943.5,-74.07 940,-84.07 947,-84.07"/>
</a>
</g>
</g>
<!-- Node19&#45;&gt;Node13 -->
<g id="edge27_Node000019_Node000013" class="edge">
<title>Node19&#45;&gt;Node13</title>
<g id="a_edge27_Node000019_Node000013"><a xlink:title=" ">
<path fill="none" stroke="#63b8ff" d="M1021.78,-188.53C1103.18,-185.09 1233.44,-174.12 1340.5,-140 1367.4,-131.43 1369.42,-117.98 1396.5,-110 1585.99,-54.19 1643.58,-99.25 1839.5,-74 1842.37,-73.63 1845.33,-73.21 1848.31,-72.75"/>
<polygon fill="#63b8ff" stroke="#63b8ff" points="1849.07,-76.17 1858.38,-71.11 1847.94,-69.27 1849.07,-76.17"/>
</a>
</g>
</g>
<!-- Node19&#45;&gt;Node14 -->
<g id="edge29_Node000019_Node000014" class="edge">
<title>Node19&#45;&gt;Node14</title>
<g id="a_edge29_Node000019_Node000014"><a xlink:title=" ">
<path fill="none" stroke="#63b8ff" d="M1021.8,-184.27C1092.87,-177.77 1200.08,-164.69 1290.5,-140 1324.34,-130.76 1330.35,-121.47 1363.5,-110 1402.76,-96.42 1448.55,-83.8 1480.51,-75.49"/>
<polygon fill="#63b8ff" stroke="#63b8ff" points="1481.57,-78.83 1490.38,-72.95 1479.82,-72.05 1481.57,-78.83"/>
</a>
</g>
</g>
<!-- Node20 -->
<g id="Node000020" class="node">
<title>Node20</title>
<g id="a_Node000020"><a xlink:href="DescriptionComponent_8h.html" target="_top" xlink:title=" ">
<polygon fill="white" stroke="#666666" points="839,-140 698,-140 698,-110 839,-110 839,-140"/>
<text text-anchor="start" x="706" y="-128" font-family="Helvetica,sans-Serif" font-size="10.00">./components/Description</text>
<text text-anchor="middle" x="768.5" y="-117" font-family="Helvetica,sans-Serif" font-size="10.00">Component.h</text>
</a>
</g>
</g>
<!-- Node19&#45;&gt;Node20 -->
<g id="edge31_Node000019_Node000020" class="edge">
<title>Node19&#45;&gt;Node20</title>
<g id="a_edge31_Node000019_Node000020"><a xlink:title=" ">
<path fill="none" stroke="#63b8ff" d="M905.1,-175.95C878.99,-166.41 844.28,-153.71 816.37,-143.51"/>
<polygon fill="#63b8ff" stroke="#63b8ff" points="817.41,-140.16 806.81,-140.01 815,-146.73 817.41,-140.16"/>
</a>
</g>
</g>
<!-- Node20&#45;&gt;Node5 -->
<g id="edge32_Node000020_Node000005" class="edge">
<title>Node20&#45;&gt;Node5</title>
<g id="a_edge32_Node000020_Node000005"><a xlink:title=" ">
<path fill="none" stroke="#63b8ff" d="M697.81,-110.87C631.42,-98.54 535.12,-80.66 485.58,-71.46"/>
<polygon fill="#63b8ff" stroke="#63b8ff" points="486.22,-68.02 475.75,-69.63 484.94,-74.9 486.22,-68.02"/>
</a>
</g>
</g>
<!-- Node20&#45;&gt;Node12 -->
<g id="edge33_Node000020_Node000012" class="edge">
<title>Node20&#45;&gt;Node12</title>
<g id="a_edge33_Node000020_Node000012"><a xlink:title=" ">
<path fill="none" stroke="#63b8ff" d="M787.24,-109.74C809.88,-93.37 849.77,-67.21 888.5,-55 969.28,-29.53 1216.31,-17.03 1329.17,-12.53"/>
<polygon fill="#63b8ff" stroke="#63b8ff" points="1329.48,-16.02 1339.34,-12.13 1329.21,-9.03 1329.48,-16.02"/>
</a>
</g>
</g>
<!-- Node21&#45;&gt;Node5 -->
<g id="edge45_Node000021_Node000005" class="edge">
<title>Node21&#45;&gt;Node5</title>
<g id="a_edge45_Node000021_Node000005"><a xlink:title=" ">
<path fill="none" stroke="#63b8ff" d="M231.86,-181.44C272.62,-160.12 378.95,-104.5 428.01,-78.83"/>
<polygon fill="#63b8ff" stroke="#63b8ff" points="429.79,-81.85 437.03,-74.12 426.54,-75.65 429.79,-81.85"/>
</a>
</g>
</g>
<!-- Node21&#45;&gt;Node17 -->
<g id="edge44_Node000021_Node000017" class="edge">
<title>Node21&#45;&gt;Node17</title>
<g id="a_edge44_Node000021_Node000017"><a xlink:title=" ">
<path fill="none" stroke="#63b8ff" d="M178.44,-188.67C140.66,-185.33 82.75,-174.47 47.5,-140 32.5,-125.33 26.86,-101.26 24.75,-84.47"/>
<polygon fill="#63b8ff" stroke="#63b8ff" points="28.21,-83.83 23.78,-74.2 21.24,-84.49 28.21,-83.83"/>
</a>
</g>
</g>
<!-- Node21&#45;&gt;Node22 -->
<g id="edge35_Node000021_Node000022" class="edge">
<title>Node21&#45;&gt;Node22</title>
<g id="a_edge35_Node000021_Node000022"><a xlink:title=" ">
<path fill="none" stroke="#63b8ff" d="M206.73,-181.37C196.52,-171.31 179.42,-154.48 166.76,-142.01"/>
<polygon fill="#63b8ff" stroke="#63b8ff" points="169.13,-139.43 159.54,-134.91 164.21,-144.42 169.13,-139.43"/>
</a>
</g>
</g>
<!-- Node22&#45;&gt;Node5 -->
<g id="edge39_Node000022_Node000005" class="edge">
<title>Node22&#45;&gt;Node5</title>
<g id="a_edge39_Node000022_Node000005"><a xlink:title=" ">
<path fill="none" stroke="#63b8ff" d="M167.81,-115.49C172.49,-113.45 177.62,-111.44 182.5,-110 205.12,-103.31 354.74,-80.37 421.47,-70.3"/>
<polygon fill="#63b8ff" stroke="#63b8ff" points="422.07,-73.75 431.43,-68.8 421.02,-66.83 422.07,-73.75"/>
</a>
</g>
</g>
<!-- Node22&#45;&gt;Node7 -->
<g id="edge40_Node000022_Node000007" class="edge">
<title>Node22&#45;&gt;Node7</title>
<g id="a_edge40_Node000022_Node000007"><a xlink:title=" ">
<path fill="none" stroke="#63b8ff" d="M167.05,-115.43C171.91,-113.29 177.31,-111.24 182.5,-110 316.17,-77.94 733.97,-68.61 886.79,-66.23"/>
<polygon fill="#63b8ff" stroke="#63b8ff" points="886.95,-69.73 896.89,-66.08 886.84,-62.73 886.95,-69.73"/>
</a>
</g>
</g>
<!-- Node22&#45;&gt;Node14 -->
<g id="edge37_Node000022_Node000014" class="edge">
<title>Node22&#45;&gt;Node14</title>
<g id="a_edge37_Node000022_Node000014"><a xlink:title=" ">
<path fill="none" stroke="#63b8ff" d="M166.7,-115.48C171.64,-113.28 177.17,-111.19 182.5,-110 461.15,-47.67 1178.49,-107.52 1480.24,-73.84"/>
<polygon fill="#63b8ff" stroke="#63b8ff" points="1480.84,-77.29 1490.36,-72.65 1480.02,-70.34 1480.84,-77.29"/>
</a>
</g>
</g>
<!-- Node22&#45;&gt;Node17 -->
<g id="edge36_Node000022_Node000017" class="edge">
<title>Node22&#45;&gt;Node17</title>
<g id="a_edge36_Node000022_Node000017"><a xlink:title=" ">
<path fill="none" stroke="#63b8ff" d="M132.03,-115.49C110.78,-105.7 75.65,-89.52 51.13,-78.23"/>
<polygon fill="#63b8ff" stroke="#63b8ff" points="52.54,-75.02 41.99,-74.02 49.61,-81.38 52.54,-75.02"/>
</a>
</g>
</g>
<!-- Node23 -->
<g id="Node000023" class="node">
<title>Node23</title>
<g id="a_Node000023"><a xlink:title=" ">
<polygon fill="#e0e0e0" stroke="#999999" points="256.5,-74 200.5,-74 200.5,-55 256.5,-55 256.5,-74"/>
<text text-anchor="middle" x="228.5" y="-62" font-family="Helvetica,sans-Serif" font-size="10.00">iomanip</text>
</a>
</g>
</g>
<!-- Node22&#45;&gt;Node23 -->
<g id="edge38_Node000022_Node000023" class="edge">
<title>Node22&#45;&gt;Node23</title>
<g id="a_edge38_Node000022_Node000023"><a xlink:title=" ">
<path fill="none" stroke="#63b8ff" d="M162.01,-115.37C174.34,-106.12 194.12,-91.28 208.91,-80.19"/>
<polygon fill="#63b8ff" stroke="#63b8ff" points="211.04,-82.97 216.94,-74.17 206.84,-77.37 211.04,-82.97"/>
</a>
</g>
</g>
<!-- Node24 -->
<g id="Node000024" class="node">
<title>Node24</title>
<g id="a_Node000024"><a xlink:title=" ">
<polygon fill="#e0e0e0" stroke="#999999" points="120,-74 65,-74 65,-55 120,-55 120,-74"/>
<text text-anchor="middle" x="92.5" y="-62" font-family="Helvetica,sans-Serif" font-size="10.00">fstream</text>
</a>
</g>
</g>
<!-- Node22&#45;&gt;Node24 -->
<g id="edge41_Node000022_Node000024" class="edge">
<title>Node22&#45;&gt;Node24</title>
<g id="a_edge41_Node000022_Node000024"><a xlink:title=" ">
<path fill="none" stroke="#63b8ff" d="M141.94,-115.37C133.12,-106.47 119.16,-92.39 108.32,-81.45"/>
<polygon fill="#63b8ff" stroke="#63b8ff" points="110.62,-78.8 101.09,-74.17 105.65,-83.73 110.62,-78.8"/>
</a>
</g>
</g>
<!-- Node25 -->
<g id="Node000025" class="node">
<title>Node25</title>
<g id="a_Node000025"><a xlink:title=" ">
<polygon fill="#e0e0e0" stroke="#999999" points="182.5,-74 138.5,-74 138.5,-55 182.5,-55 182.5,-74"/>
<text text-anchor="middle" x="160.5" y="-62" font-family="Helvetica,sans-Serif" font-size="10.00">regex</text>
</a>
</g>
</g>
<!-- Node22&#45;&gt;Node25 -->
<g id="edge42_Node000022_Node000025" class="edge">
<title>Node22&#45;&gt;Node25</title>
<g id="a_edge42_Node000022_Node000025"><a xlink:title=" ">
<path fill="none" stroke="#63b8ff" d="M151.98,-115.37C153.38,-107.16 155.54,-94.54 157.33,-84.05"/>
<polygon fill="#63b8ff" stroke="#63b8ff" points="160.78,-84.61 159.02,-74.17 153.88,-83.43 160.78,-84.61"/>
</a>
</g>
</g>
<!-- Node26 -->
<g id="Node000026" class="node">
<title>Node26</title>
<g id="a_Node000026"><a xlink:title=" ">
<polygon fill="#e0e0e0" stroke="#999999" points="384.5,-74 274.5,-74 274.5,-55 384.5,-55 384.5,-74"/>
<text text-anchor="middle" x="329.5" y="-62" font-family="Helvetica,sans-Serif" font-size="10.00">nlohmann/json.hpp</text>
</a>
</g>
</g>
<!-- Node22&#45;&gt;Node26 -->
<g id="edge43_Node000022_Node000026" class="edge">
<title>Node22&#45;&gt;Node26</title>
<g id="a_edge43_Node000022_Node000026"><a xlink:title=" ">
<path fill="none" stroke="#63b8ff" d="M168.96,-115.48C173.36,-113.57 178.06,-111.64 182.5,-110 217.3,-97.17 257.68,-85.15 287.31,-76.84"/>
<polygon fill="#63b8ff" stroke="#63b8ff" points="288.61,-80.11 297.31,-74.06 286.74,-73.36 288.61,-80.11"/>
</a>
</g>
</g>
<!-- Node27&#45;&gt;Node5 -->
<g id="edge48_Node000027_Node000005" class="edge">
<title>Node27&#45;&gt;Node5</title>
<g id="a_edge48_Node000027_Node000005"><a xlink:title=" ">
<path fill="none" stroke="#63b8ff" d="M268.05,-115.49C309.12,-104.42 380.5,-85.18 421.69,-74.07"/>
<polygon fill="#63b8ff" stroke="#63b8ff" points="422.73,-77.42 431.48,-71.44 420.91,-70.66 422.73,-77.42"/>
</a>
</g>
</g>
<!-- Node27&#45;&gt;Node26 -->
<g id="edge49_Node000027_Node000026" class="edge">
<title>Node27&#45;&gt;Node26</title>
<g id="a_edge49_Node000027_Node000026"><a xlink:title=" ">
<path fill="none" stroke="#63b8ff" d="M250.22,-115.37C265.2,-105.95 289.39,-90.73 307.12,-79.58"/>
<polygon fill="#63b8ff" stroke="#63b8ff" points="309.12,-82.45 315.72,-74.17 305.39,-76.53 309.12,-82.45"/>
</a>
</g>
</g>
<!-- Node28&#45;&gt;Node5 -->
<g id="edge57_Node000028_Node000005" class="edge">
<title>Node28&#45;&gt;Node5</title>
<g id="a_edge57_Node000028_Node000005"><a xlink:title=" ">
<path fill="none" stroke="#63b8ff" d="M1377.75,-184.43C1291.8,-176.53 1134.13,-160.73 1000.5,-140 932.45,-129.45 916.55,-120.53 848.5,-110 714.5,-89.26 553.5,-74.14 485.89,-68.23"/>
<polygon fill="#63b8ff" stroke="#63b8ff" points="486.12,-64.74 475.86,-67.37 485.52,-71.72 486.12,-64.74"/>
</a>
</g>
</g>
<!-- Node28&#45;&gt;Node6 -->
<g id="edge51_Node000028_Node000006" class="edge">
<title>Node28&#45;&gt;Node6</title>
<g id="a_edge51_Node000028_Node000006"><a xlink:title=" ">
<path fill="none" stroke="#63b8ff" d="M1505.14,-182.09C1565.09,-172 1641.18,-150.75 1608.5,-110 1599.86,-99.22 1528.07,-85.14 1472.95,-75.73"/>
<polygon fill="#63b8ff" stroke="#63b8ff" points="1473.31,-72.24 1462.87,-74.03 1472.15,-79.15 1473.31,-72.24"/>
</a>
</g>
</g>
<!-- Node28&#45;&gt;Node7 -->
<g id="edge56_Node000028_Node000007" class="edge">
<title>Node28&#45;&gt;Node7</title>
<g id="a_edge56_Node000028_Node000007"><a xlink:title=" ">
<path fill="none" stroke="#63b8ff" d="M1420.14,-181.43C1379.28,-165.33 1286.93,-130.35 1206.5,-110 1136.28,-92.23 1053.68,-79.56 1000.05,-72.39"/>
<polygon fill="#63b8ff" stroke="#63b8ff" points="1000.42,-68.91 990.05,-71.08 999.51,-75.85 1000.42,-68.91"/>
</a>
</g>
</g>
<!-- Node28&#45;&gt;Node8 -->
<g id="edge55_Node000028_Node000008" class="edge">
<title>Node28&#45;&gt;Node8</title>
<g id="a_edge55_Node000028_Node000008"><a xlink:title=" ">
<path fill="none" stroke="#63b8ff" d="M1489.28,-181.44C1554.47,-169.75 1671.16,-148.83 1741.05,-136.3"/>
<polygon fill="#63b8ff" stroke="#63b8ff" points="1741.78,-139.72 1751.01,-134.51 1740.55,-132.83 1741.78,-139.72"/>
</a>
</g>
</g>
<!-- Node28&#45;&gt;Node13 -->
<g id="edge58_Node000028_Node000013" class="edge">
<title>Node28&#45;&gt;Node13</title>
<g id="a_edge58_Node000028_Node000013"><a xlink:title=" ">
<path fill="none" stroke="#63b8ff" d="M1505.09,-186.81C1618.93,-180.51 1848.15,-164.87 1874.5,-140 1889.32,-126.01 1890.95,-101.61 1889.93,-84.55"/>
<polygon fill="#63b8ff" stroke="#63b8ff" points="1893.37,-83.76 1888.94,-74.14 1886.41,-84.43 1893.37,-83.76"/>
</a>
</g>
</g>
<!-- Node29 -->
<g id="Node000029" class="node">
<title>Node29</title>
<g id="a_Node000029"><a xlink:href="InfoBoxComponent_8h.html" target="_top" xlink:title=" ">
<polygon fill="white" stroke="#666666" points="1197.5,-134.5 1009.5,-134.5 1009.5,-115.5 1197.5,-115.5 1197.5,-134.5"/>
<text text-anchor="middle" x="1103.5" y="-122.5" font-family="Helvetica,sans-Serif" font-size="10.00">./components/InfoBoxComponent.h</text>
</a>
</g>
</g>
<!-- Node28&#45;&gt;Node29 -->
<g id="edge52_Node000028_Node000029" class="edge">
<title>Node28&#45;&gt;Node29</title>
<g id="a_edge52_Node000028_Node000029"><a xlink:title=" ">
<path fill="none" stroke="#63b8ff" d="M1396.27,-181.44C1334.67,-169.77 1224.51,-148.91 1158.3,-136.38"/>
<polygon fill="#63b8ff" stroke="#63b8ff" points="1158.94,-132.94 1148.47,-134.51 1157.64,-139.81 1158.94,-132.94"/>
</a>
</g>
</g>
<!-- Node30 -->
<g id="Node000030" class="node">
<title>Node30</title>
<g id="a_Node000030"><a xlink:title=" ">
<polygon fill="#e0e0e0" stroke="#999999" points="1477.5,-134.5 1405.5,-134.5 1405.5,-115.5 1477.5,-115.5 1477.5,-134.5"/>
<text text-anchor="middle" x="1441.5" y="-122.5" font-family="Helvetica,sans-Serif" font-size="10.00">SDL3/SDL.h</text>
</a>
</g>
</g>
<!-- Node28&#45;&gt;Node30 -->
<g id="edge59_Node000028_Node000030" class="edge">
<title>Node28&#45;&gt;Node30</title>
<g id="a_edge59_Node000028_Node000030"><a xlink:title=" ">
<path fill="none" stroke="#63b8ff" d="M1441.5,-181.37C1441.5,-172.16 1441.5,-157.29 1441.5,-145.27"/>
<polygon fill="#63b8ff" stroke="#63b8ff" points="1445,-144.91 1441.5,-134.91 1438,-144.91 1445,-144.91"/>
</a>
</g>
</g>
<!-- Node31 -->
<g id="Node000031" class="node">
<title>Node31</title>
<g id="a_Node000031"><a xlink:title=" ">
<polygon fill="#e0e0e0" stroke="#999999" points="1599.5,-134.5 1495.5,-134.5 1495.5,-115.5 1599.5,-115.5 1599.5,-134.5"/>
<text text-anchor="middle" x="1547.5" y="-122.5" font-family="Helvetica,sans-Serif" font-size="10.00">SDL3_ttf/SDL_ttf.h</text>
</a>
</g>
</g>
<!-- Node28&#45;&gt;Node31 -->
<g id="edge60_Node000028_Node000031" class="edge">
<title>Node28&#45;&gt;Node31</title>
<g id="a_edge60_Node000028_Node000031"><a xlink:title=" ">
<path fill="none" stroke="#63b8ff" d="M1455.8,-181.37C1473.42,-170.73 1503.59,-152.51 1524.49,-139.89"/>
<polygon fill="#63b8ff" stroke="#63b8ff" points="1526.34,-142.86 1533.09,-134.7 1522.72,-136.87 1526.34,-142.86"/>
</a>
</g>
</g>
<!-- Node29&#45;&gt;Node5 -->
<g id="edge53_Node000029_Node000005" class="edge">
<title>Node29&#45;&gt;Node5</title>
<g id="a_edge53_Node000029_Node000005"><a xlink:title=" ">
<path fill="none" stroke="#63b8ff" d="M1041.59,-115.47C1026.53,-113.53 1010.45,-111.58 995.5,-110 802.56,-89.59 570.14,-73.27 485.94,-67.63"/>
<polygon fill="#63b8ff" stroke="#63b8ff" points="485.95,-64.12 475.73,-66.95 485.48,-71.11 485.95,-64.12"/>
</a>
</g>
</g>
<!-- Node29&#45;&gt;Node12 -->
<g id="edge54_Node000029_Node000012" class="edge">
<title>Node29&#45;&gt;Node12</title>
<g id="a_edge54_Node000029_Node000012"><a xlink:title=" ">
<path fill="none" stroke="#63b8ff" d="M1124.77,-115.47C1174.35,-95.59 1297.75,-46.09 1355.62,-22.88"/>
<polygon fill="#63b8ff" stroke="#63b8ff" points="1357,-26.1 1364.98,-19.13 1354.4,-19.6 1357,-26.1"/>
</a>
</g>
</g>
<!-- Node32&#45;&gt;Node5 -->
<g id="edge62_Node000032_Node000005" class="edge">
<title>Node32&#45;&gt;Node5</title>
<g id="a_edge62_Node000032_Node000005"><a xlink:title=" ">
<path fill="none" stroke="#63b8ff" d="M440.65,-181.44C428.72,-172.66 411.76,-157.78 404.5,-140 399.46,-127.66 399.1,-122.19 404.5,-110 409.82,-97.97 420.18,-87.8 430.01,-80.24"/>
<polygon fill="#63b8ff" stroke="#63b8ff" points="432.26,-82.93 438.37,-74.27 428.2,-77.23 432.26,-82.93"/>
</a>
</g>
</g>
<!-- Node32&#45;&gt;Node33 -->
<g id="edge63_Node000032_Node000033" class="edge">
<title>Node32&#45;&gt;Node33</title>
<g id="a_edge63_Node000032_Node000033"><a xlink:title=" ">
<path fill="none" stroke="#63b8ff" d="M453.5,-181.37C453.5,-172.16 453.5,-157.29 453.5,-145.27"/>
<polygon fill="#63b8ff" stroke="#63b8ff" points="457,-144.91 453.5,-134.91 450,-144.91 457,-144.91"/>
</a>
</g>
</g>
<!-- Node33&#45;&gt;Node5 -->
<g id="edge64_Node000033_Node000005" class="edge">
<title>Node33&#45;&gt;Node5</title>
<g id="a_edge64_Node000033_Node000005"><a xlink:title=" ">
<path fill="none" stroke="#63b8ff" d="M453.5,-115.37C453.5,-107.25 453.5,-94.81 453.5,-84.39"/>
<polygon fill="#63b8ff" stroke="#63b8ff" points="457,-84.17 453.5,-74.17 450,-84.17 457,-84.17"/>
</a>
</g>
</g>
<!-- Node34&#45;&gt;Node5 -->
<g id="edge68_Node000034_Node000005" class="edge">
<title>Node34&#45;&gt;Node5</title>
<g id="a_edge68_Node000034_Node000005"><a xlink:title=" ">
<path fill="none" stroke="#63b8ff" d="M360.4,-181.36C365.88,-165.88 378.91,-132.91 397.5,-110 406.88,-98.43 419.77,-87.94 430.81,-80.05"/>
<polygon fill="#63b8ff" stroke="#63b8ff" points="432.91,-82.85 439.17,-74.31 428.94,-77.08 432.91,-82.85"/>
</a>
</g>
</g>
<!-- Node34&#45;&gt;Node7 -->
<g id="edge67_Node000034_Node000007" class="edge">
<title>Node34&#45;&gt;Node7</title>
<g id="a_edge67_Node000034_Node000007"><a xlink:title=" ">
<path fill="none" stroke="#63b8ff" d="M390.89,-181.44C399.81,-179.4 409.48,-177.41 418.5,-176 513.25,-161.24 760.58,-178.28 848.5,-140 866.67,-132.09 866.09,-122.47 881.5,-110 894.47,-99.51 909.68,-88.57 921.79,-80.17"/>
<polygon fill="#63b8ff" stroke="#63b8ff" points="924.09,-82.83 930.35,-74.28 920.13,-77.06 924.09,-82.83"/>
</a>
</g>
</g>
<!-- Node34&#45;&gt;Node17 -->
<g id="edge69_Node000034_Node000017" class="edge">
<title>Node34&#45;&gt;Node17</title>
<g id="a_edge69_Node000034_Node000017"><a xlink:title=" ">
<path fill="none" stroke="#63b8ff" d="M308.98,-182.92C236.02,-171.99 104.51,-151.12 85.5,-140 62.19,-126.36 43.74,-100.54 33.21,-83.18"/>
<polygon fill="#63b8ff" stroke="#63b8ff" points="35.99,-80.99 27.96,-74.08 29.93,-84.49 35.99,-80.99"/>
</a>
</g>
</g>
<!-- Node34&#45;&gt;Node22 -->
<g id="edge70_Node000034_Node000022" class="edge">
<title>Node34&#45;&gt;Node22</title>
<g id="a_edge70_Node000034_Node000022"><a xlink:title=" ">
<path fill="none" stroke="#63b8ff" d="M322.53,-181.48C286.89,-172.46 230.22,-157.17 182.5,-140 181.11,-139.5 179.69,-138.97 178.27,-138.41"/>
<polygon fill="#63b8ff" stroke="#63b8ff" points="179.52,-135.15 168.94,-134.57 176.85,-141.62 179.52,-135.15"/>
</a>
</g>
</g>
</g>
</svg>
