<?xml version="1.0" encoding="UTF-8" standalone="no"?>
<!DOCTYPE svg PUBLIC "-//W3C//DTD SVG 1.1//EN"
 "http://www.w3.org/Graphics/SVG/1.1/DTD/svg11.dtd">
<!-- Generated by graphviz version 2.43.0 (0)
 -->
<!-- Title: /home/sean/Projects/Brenda/src/AISystem.h Pages: 1 -->
<svg width="2144pt" height="280pt"
 viewBox="0.00 0.00 2143.70 280.00" xmlns="http://www.w3.org/2000/svg" xmlns:xlink="http://www.w3.org/1999/xlink">
<g id="graph0" class="graph" transform="scale(1 1) rotate(0) translate(4 276)">
<title>/home/sean/Projects/Brenda/src/AISystem.h</title>
<!-- Node1 -->
<g id="Node000001" class="node">
<title>Node1</title>
<g id="a_Node000001"><a xlink:title=" ">
<polygon fill="#999999" stroke="#666666" points="845.2,-272 715.2,-272 715.2,-242 845.2,-242 845.2,-272"/>
<text text-anchor="start" x="723.2" y="-260" font-family="Helvetica,sans-Serif" font-size="10.00">/home/sean/Projects</text>
<text text-anchor="middle" x="780.2" y="-249" font-family="Helvetica,sans-Serif" font-size="10.00">/Brenda/src/AISystem.h</text>
</a>
</g>
</g>
<!-- Node2 -->
<g id="Node000002" class="node">
<title>Node2</title>
<g id="a_Node000002"><a xlink:href="AIManager_8h.html" target="_top" xlink:title=" ">
<polygon fill="white" stroke="#666666" points="913.7,-200.5 808.7,-200.5 808.7,-181.5 913.7,-181.5 913.7,-200.5"/>
<text text-anchor="middle" x="861.2" y="-188.5" font-family="Helvetica,sans-Serif" font-size="10.00">./ECS/AIManager.h</text>
</a>
</g>
</g>
<!-- Node1&#45;&gt;Node2 -->
<g id="edge1_Node000001_Node000002" class="edge">
<title>Node1&#45;&gt;Node2</title>
<g id="a_edge1_Node000001_Node000002"><a xlink:title=" ">
<path fill="none" stroke="#63b8ff" d="M798.18,-241.8C811.18,-231.53 828.72,-217.67 841.99,-207.18"/>
<polygon fill="#63b8ff" stroke="#63b8ff" points="844.33,-209.79 850.01,-200.84 839.99,-204.3 844.33,-209.79"/>
</a>
</g>
</g>
<!-- Node7 -->
<g id="Node000007" class="node">
<title>Node7</title>
<g id="a_Node000007"><a xlink:href="PositionManager_8h.html" target="_top" xlink:title=" ">
<polygon fill="white" stroke="#666666" points="1829.2,-134.5 1695.2,-134.5 1695.2,-115.5 1829.2,-115.5 1829.2,-134.5"/>
<text text-anchor="middle" x="1762.2" y="-122.5" font-family="Helvetica,sans-Serif" font-size="10.00">./ECS/PositionManager.h</text>
</a>
</g>
</g>
<!-- Node1&#45;&gt;Node7 -->
<g id="edge6_Node000001_Node000007" class="edge">
<title>Node1&#45;&gt;Node7</title>
<g id="a_edge6_Node000001_Node000007"><a xlink:title=" ">
<path fill="none" stroke="#63b8ff" d="M845.46,-255.11C966.61,-252.58 1234.19,-242.92 1456.2,-206 1555.59,-189.47 1669.7,-155.54 1726.38,-137.64"/>
<polygon fill="#63b8ff" stroke="#63b8ff" points="1727.48,-140.97 1735.95,-134.6 1725.36,-134.29 1727.48,-140.97"/>
</a>
</g>
</g>
<!-- Node14 -->
<g id="Node000014" class="node">
<title>Node14</title>
<g id="a_Node000014"><a xlink:href="MovementManager_8h.html" target="_top" xlink:title=" ">
<polygon fill="white" stroke="#666666" points="1883.2,-200.5 1735.2,-200.5 1735.2,-181.5 1883.2,-181.5 1883.2,-200.5"/>
<text text-anchor="middle" x="1809.2" y="-188.5" font-family="Helvetica,sans-Serif" font-size="10.00">./ECS/MovementManager.h</text>
</a>
</g>
</g>
<!-- Node1&#45;&gt;Node14 -->
<g id="edge15_Node000001_Node000014" class="edge">
<title>Node1&#45;&gt;Node14</title>
<g id="a_edge15_Node000001_Node000014"><a xlink:title=" ">
<path fill="none" stroke="#63b8ff" d="M845.47,-252.58C987.84,-245.01 1336.98,-225.97 1629.2,-206 1660.39,-203.87 1694.59,-201.27 1724.73,-198.9"/>
<polygon fill="#63b8ff" stroke="#63b8ff" points="1725.09,-202.38 1734.79,-198.1 1724.54,-195.4 1725.09,-202.38"/>
</a>
</g>
</g>
<!-- Node18 -->
<g id="Node000018" class="node">
<title>Node18</title>
<g id="a_Node000018"><a xlink:href="DescriptionComponentManager_8h.html" target="_top" xlink:title=" ">
<polygon fill="white" stroke="#666666" points="1088.2,-206 932.2,-206 932.2,-176 1088.2,-176 1088.2,-206"/>
<text text-anchor="start" x="940.2" y="-194" font-family="Helvetica,sans-Serif" font-size="10.00">./ECS/DescriptionComponent</text>
<text text-anchor="middle" x="1010.2" y="-183" font-family="Helvetica,sans-Serif" font-size="10.00">Manager.h</text>
</a>
</g>
</g>
<!-- Node1&#45;&gt;Node18 -->
<g id="edge24_Node000001_Node000018" class="edge">
<title>Node1&#45;&gt;Node18</title>
<g id="a_edge24_Node000001_Node000018"><a xlink:title=" ">
<path fill="none" stroke="#63b8ff" d="M830.68,-241.95C865.88,-232.16 913.01,-219.05 950.15,-208.71"/>
<polygon fill="#63b8ff" stroke="#63b8ff" points="951.15,-212.07 959.85,-206.01 949.27,-205.32 951.15,-212.07"/>
</a>
</g>
</g>
<!-- Node20 -->
<g id="Node000020" class="node">
<title>Node20</title>
<g id="a_Node000020"><a xlink:href="Pathfinder_8h.html" target="_top" xlink:title=" ">
<polygon fill="white" stroke="#666666" points="636.2,-200.5 562.2,-200.5 562.2,-181.5 636.2,-181.5 636.2,-200.5"/>
<text text-anchor="middle" x="599.2" y="-188.5" font-family="Helvetica,sans-Serif" font-size="10.00">Pathfinder.h</text>
</a>
</g>
</g>
<!-- Node1&#45;&gt;Node20 -->
<g id="edge33_Node000001_Node000020" class="edge">
<title>Node1&#45;&gt;Node20</title>
<g id="a_edge33_Node000001_Node000020"><a xlink:title=" ">
<path fill="none" stroke="#63b8ff" d="M740.48,-241.95C708.32,-230.58 663.51,-214.74 633.04,-203.96"/>
<polygon fill="#63b8ff" stroke="#63b8ff" points="633.89,-200.55 623.29,-200.52 631.55,-207.15 633.89,-200.55"/>
</a>
</g>
</g>
<!-- Node21 -->
<g id="Node000021" class="node">
<title>Node21</title>
<g id="a_Node000021"><a xlink:href="Grid_8h.html" target="_top" xlink:title=" ">
<polygon fill="white" stroke="#666666" points="803.2,-134.5 757.2,-134.5 757.2,-115.5 803.2,-115.5 803.2,-134.5"/>
<text text-anchor="middle" x="780.2" y="-122.5" font-family="Helvetica,sans-Serif" font-size="10.00">Grid.h</text>
</a>
</g>
</g>
<!-- Node1&#45;&gt;Node21 -->
<g id="edge45_Node000001_Node000021" class="edge">
<title>Node1&#45;&gt;Node21</title>
<g id="a_edge45_Node000001_Node000021"><a xlink:title=" ">
<path fill="none" stroke="#63b8ff" d="M780.2,-241.84C780.2,-218.34 780.2,-171.26 780.2,-144.93"/>
<polygon fill="#63b8ff" stroke="#63b8ff" points="783.7,-144.75 780.2,-134.75 776.7,-144.75 783.7,-144.75"/>
</a>
</g>
</g>
<!-- Node26 -->
<g id="Node000026" class="node">
<title>Node26</title>
<g id="a_Node000026"><a xlink:href="GeminiClient_8h.html" target="_top" xlink:title=" ">
<polygon fill="white" stroke="#666666" points="240.7,-134.5 151.7,-134.5 151.7,-115.5 240.7,-115.5 240.7,-134.5"/>
<text text-anchor="middle" x="196.2" y="-122.5" font-family="Helvetica,sans-Serif" font-size="10.00">GeminiClient.h</text>
</a>
</g>
</g>
<!-- Node1&#45;&gt;Node26 -->
<g id="edge46_Node000001_Node000026" class="edge">
<title>Node1&#45;&gt;Node26</title>
<g id="a_edge46_Node000001_Node000026"><a xlink:title=" ">
<path fill="none" stroke="#63b8ff" d="M716.1,-241.95C670.63,-231.96 608.16,-218.21 553.2,-206 442.47,-181.4 312.51,-152.19 244.02,-136.77"/>
<polygon fill="#63b8ff" stroke="#63b8ff" points="244.5,-133.29 233.97,-134.51 242.96,-140.12 244.5,-133.29"/>
</a>
</g>
</g>
<!-- Node27 -->
<g id="Node000027" class="node">
<title>Node27</title>
<g id="a_Node000027"><a xlink:href="InfoBoxManager_8h.html" target="_top" xlink:title=" ">
<polygon fill="white" stroke="#666666" points="1446.7,-200.5 1319.7,-200.5 1319.7,-181.5 1446.7,-181.5 1446.7,-200.5"/>
<text text-anchor="middle" x="1383.2" y="-188.5" font-family="Helvetica,sans-Serif" font-size="10.00">ECS/InfoBoxManager.h</text>
</a>
</g>
</g>
<!-- Node1&#45;&gt;Node27 -->
<g id="edge49_Node000001_Node000027" class="edge">
<title>Node1&#45;&gt;Node27</title>
<g id="a_edge49_Node000001_Node000027"><a xlink:title=" ">
<path fill="none" stroke="#63b8ff" d="M845.31,-249.09C958.35,-237.09 1190.19,-212.49 1309.17,-199.86"/>
<polygon fill="#63b8ff" stroke="#63b8ff" points="1309.71,-203.32 1319.28,-198.78 1308.97,-196.36 1309.71,-203.32"/>
</a>
</g>
</g>
<!-- Node31 -->
<g id="Node000031" class="node">
<title>Node31</title>
<g id="a_Node000031"><a xlink:href="Clock_8h.html" target="_top" xlink:title=" ">
<polygon fill="white" stroke="#666666" points="81.7,-200.5 28.7,-200.5 28.7,-181.5 81.7,-181.5 81.7,-200.5"/>
<text text-anchor="middle" x="55.2" y="-188.5" font-family="Helvetica,sans-Serif" font-size="10.00">Clock.h</text>
</a>
</g>
</g>
<!-- Node1&#45;&gt;Node31 -->
<g id="edge60_Node000001_Node000031" class="edge">
<title>Node1&#45;&gt;Node31</title>
<g id="a_edge60_Node000001_Node000031"><a xlink:title=" ">
<path fill="none" stroke="#63b8ff" d="M715.03,-250.79C606.66,-242.06 382.62,-223.67 193.2,-206 158.87,-202.8 119.76,-198.8 91.97,-195.89"/>
<polygon fill="#63b8ff" stroke="#63b8ff" points="92.21,-192.4 81.9,-194.84 91.48,-199.36 92.21,-192.4"/>
</a>
</g>
</g>
<!-- Node32 -->
<g id="Node000032" class="node">
<title>Node32</title>
<g id="a_Node000032"><a xlink:href="TimeOfDay_8h.html" target="_top" xlink:title=" ">
<polygon fill="white" stroke="#666666" points="95.2,-134.5 15.2,-134.5 15.2,-115.5 95.2,-115.5 95.2,-134.5"/>
<text text-anchor="middle" x="55.2" y="-122.5" font-family="Helvetica,sans-Serif" font-size="10.00">TimeOfDay.h</text>
</a>
</g>
</g>
<!-- Node1&#45;&gt;Node32 -->
<g id="edge64_Node000001_Node000032" class="edge">
<title>Node1&#45;&gt;Node32</title>
<g id="a_edge64_Node000001_Node000032"><a xlink:title=" ">
<path fill="none" stroke="#63b8ff" d="M715.11,-248.46C643.01,-239.75 523.42,-224.26 421.2,-206 304.58,-185.16 168.62,-153.48 99.89,-136.93"/>
<polygon fill="#63b8ff" stroke="#63b8ff" points="100.39,-133.45 89.85,-134.5 98.75,-140.25 100.39,-133.45"/>
</a>
</g>
</g>
<!-- Node33 -->
<g id="Node000033" class="node">
<title>Node33</title>
<g id="a_Node000033"><a xlink:href="HomeManager_8h.html" target="_top" xlink:title=" ">
<polygon fill="white" stroke="#666666" points="751.7,-200.5 654.7,-200.5 654.7,-181.5 751.7,-181.5 751.7,-200.5"/>
<text text-anchor="middle" x="703.2" y="-188.5" font-family="Helvetica,sans-Serif" font-size="10.00">HomeManager.h</text>
</a>
</g>
</g>
<!-- Node1&#45;&gt;Node33 -->
<g id="edge65_Node000001_Node000033" class="edge">
<title>Node1&#45;&gt;Node33</title>
<g id="a_edge65_Node000001_Node000033"><a xlink:title=" ">
<path fill="none" stroke="#63b8ff" d="M763.11,-241.8C750.88,-231.62 734.4,-217.93 721.83,-207.48"/>
<polygon fill="#63b8ff" stroke="#63b8ff" points="723.77,-204.54 713.84,-200.84 719.3,-209.93 723.77,-204.54"/>
</a>
</g>
</g>
<!-- Node3 -->
<g id="Node000003" class="node">
<title>Node3</title>
<g id="a_Node000003"><a xlink:href="AIState_8h.html" target="_top" xlink:title=" ">
<polygon fill="white" stroke="#666666" points="427.2,-134.5 297.2,-134.5 297.2,-115.5 427.2,-115.5 427.2,-134.5"/>
<text text-anchor="middle" x="362.2" y="-122.5" font-family="Helvetica,sans-Serif" font-size="10.00">./components/AIState.h</text>
</a>
</g>
</g>
<!-- Node2&#45;&gt;Node3 -->
<g id="edge2_Node000002_Node000003" class="edge">
<title>Node2&#45;&gt;Node3</title>
<g id="a_edge2_Node000002_Node000003"><a xlink:title=" ">
<path fill="none" stroke="#63b8ff" d="M808.56,-182.36C793.3,-180.22 776.6,-177.94 761.2,-176 619.21,-158.08 582.85,-160.5 441.2,-140 433.55,-138.89 425.49,-137.61 417.57,-136.27"/>
<polygon fill="#63b8ff" stroke="#63b8ff" points="418.11,-132.81 407.66,-134.56 416.92,-139.71 418.11,-132.81"/>
</a>
</g>
</g>
<!-- Node5 -->
<g id="Node000005" class="node">
<title>Node5</title>
<g id="a_Node000005"><a xlink:href="IComponentManager_8h.html" target="_top" xlink:title=" ">
<polygon fill="white" stroke="#666666" points="1557.7,-74 1430.7,-74 1430.7,-55 1557.7,-55 1557.7,-74"/>
<text text-anchor="middle" x="1494.2" y="-62" font-family="Helvetica,sans-Serif" font-size="10.00">IComponentManager.h</text>
</a>
</g>
</g>
<!-- Node2&#45;&gt;Node5 -->
<g id="edge4_Node000002_Node000005" class="edge">
<title>Node2&#45;&gt;Node5</title>
<g id="a_edge4_Node000002_Node000005"><a xlink:title=" ">
<path fill="none" stroke="#63b8ff" d="M896.84,-181.46C905.45,-179.53 914.63,-177.59 923.2,-176 1032.28,-155.77 1069.89,-187.38 1170.2,-140 1188.13,-131.53 1185.31,-118.53 1203.2,-110 1240.6,-92.17 1347.34,-79.08 1420.6,-71.87"/>
<polygon fill="#63b8ff" stroke="#63b8ff" points="1421.08,-75.34 1430.7,-70.89 1420.41,-68.37 1421.08,-75.34"/>
</a>
</g>
</g>
<!-- Node6 -->
<g id="Node000006" class="node">
<title>Node6</title>
<g id="a_Node000006"><a xlink:title=" ">
<polygon fill="#e0e0e0" stroke="#999999" points="1113.7,-74 1020.7,-74 1020.7,-55 1113.7,-55 1113.7,-74"/>
<text text-anchor="middle" x="1067.2" y="-62" font-family="Helvetica,sans-Serif" font-size="10.00">unordered_map</text>
</a>
</g>
</g>
<!-- Node2&#45;&gt;Node6 -->
<g id="edge5_Node000002_Node000006" class="edge">
<title>Node2&#45;&gt;Node6</title>
<g id="a_edge5_Node000002_Node000006"><a xlink:title=" ">
<path fill="none" stroke="#63b8ff" d="M869.28,-181.48C884.7,-165.61 919.95,-131.21 955.2,-110 978.32,-96.09 1006.55,-84.91 1028.89,-77.23"/>
<polygon fill="#63b8ff" stroke="#63b8ff" points="1030.02,-80.54 1038.39,-74.05 1027.79,-73.91 1030.02,-80.54"/>
</a>
</g>
</g>
<!-- Node4 -->
<g id="Node000004" class="node">
<title>Node4</title>
<g id="a_Node000004"><a xlink:title=" ">
<polygon fill="#e0e0e0" stroke="#999999" points="384.2,-74 340.2,-74 340.2,-55 384.2,-55 384.2,-74"/>
<text text-anchor="middle" x="362.2" y="-62" font-family="Helvetica,sans-Serif" font-size="10.00">string</text>
</a>
</g>
</g>
<!-- Node3&#45;&gt;Node4 -->
<g id="edge3_Node000003_Node000004" class="edge">
<title>Node3&#45;&gt;Node4</title>
<g id="a_edge3_Node000003_Node000004"><a xlink:title=" ">
<path fill="none" stroke="#63b8ff" d="M362.2,-115.37C362.2,-107.25 362.2,-94.81 362.2,-84.39"/>
<polygon fill="#63b8ff" stroke="#63b8ff" points="365.7,-84.17 362.2,-74.17 358.7,-84.17 365.7,-84.17"/>
</a>
</g>
</g>
<!-- Node7&#45;&gt;Node5 -->
<g id="edge11_Node000007_Node000005" class="edge">
<title>Node7&#45;&gt;Node5</title>
<g id="a_edge11_Node000007_Node000005"><a xlink:title=" ">
<path fill="none" stroke="#63b8ff" d="M1723.23,-115.49C1675.6,-105.1 1594.95,-87.49 1543.17,-76.19"/>
<polygon fill="#63b8ff" stroke="#63b8ff" points="1543.74,-72.73 1533.22,-74.02 1542.24,-79.57 1543.74,-72.73"/>
</a>
</g>
</g>
<!-- Node7&#45;&gt;Node6 -->
<g id="edge12_Node000007_Node000006" class="edge">
<title>Node7&#45;&gt;Node6</title>
<g id="a_edge12_Node000007_Node000006"><a xlink:title=" ">
<path fill="none" stroke="#63b8ff" d="M1717.33,-115.43C1705.61,-113.42 1692.96,-111.44 1681.2,-110 1476.95,-85.01 1232.62,-72.44 1124.03,-67.74"/>
<polygon fill="#63b8ff" stroke="#63b8ff" points="1124.1,-64.24 1113.96,-67.31 1123.8,-71.23 1124.1,-64.24"/>
</a>
</g>
</g>
<!-- Node8 -->
<g id="Node000008" class="node">
<title>Node8</title>
<g id="a_Node000008"><a xlink:href="Entity_8h.html" target="_top" xlink:title=" ">
<polygon fill="white" stroke="#666666" points="1913.7,-74 1860.7,-74 1860.7,-55 1913.7,-55 1913.7,-74"/>
<text text-anchor="middle" x="1887.2" y="-62" font-family="Helvetica,sans-Serif" font-size="10.00">Entity.h</text>
</a>
</g>
</g>
<!-- Node7&#45;&gt;Node8 -->
<g id="edge7_Node000007_Node000008" class="edge">
<title>Node7&#45;&gt;Node8</title>
<g id="a_edge7_Node000007_Node000008"><a xlink:title=" ">
<path fill="none" stroke="#63b8ff" d="M1780.38,-115.49C1801.21,-105.75 1835.57,-89.66 1859.68,-78.38"/>
<polygon fill="#63b8ff" stroke="#63b8ff" points="1861.43,-81.43 1869.01,-74.02 1858.46,-75.09 1861.43,-81.43"/>
</a>
</g>
</g>
<!-- Node10 -->
<g id="Node000010" class="node">
<title>Node10</title>
<g id="a_Node000010"><a xlink:href="PositionComponent_8h.html" target="_top" xlink:title=" ">
<polygon fill="white" stroke="#666666" points="1842.2,-74 1652.2,-74 1652.2,-55 1842.2,-55 1842.2,-74"/>
<text text-anchor="middle" x="1747.2" y="-62" font-family="Helvetica,sans-Serif" font-size="10.00">./components/PositionComponent.h</text>
</a>
</g>
</g>
<!-- Node7&#45;&gt;Node10 -->
<g id="edge9_Node000007_Node000010" class="edge">
<title>Node7&#45;&gt;Node10</title>
<g id="a_edge9_Node000007_Node000010"><a xlink:title=" ">
<path fill="none" stroke="#63b8ff" d="M1759.99,-115.37C1757.89,-107.16 1754.65,-94.54 1751.96,-84.05"/>
<polygon fill="#63b8ff" stroke="#63b8ff" points="1755.3,-82.98 1749.43,-74.17 1748.52,-84.72 1755.3,-82.98"/>
</a>
</g>
</g>
<!-- Node12 -->
<g id="Node000012" class="node">
<title>Node12</title>
<g id="a_Node000012"><a xlink:title=" ">
<polygon fill="#e0e0e0" stroke="#999999" points="1634.2,-74 1576.2,-74 1576.2,-55 1634.2,-55 1634.2,-74"/>
<text text-anchor="middle" x="1605.2" y="-62" font-family="Helvetica,sans-Serif" font-size="10.00">memory</text>
</a>
</g>
</g>
<!-- Node7&#45;&gt;Node12 -->
<g id="edge13_Node000007_Node000012" class="edge">
<title>Node7&#45;&gt;Node12</title>
<g id="a_edge13_Node000007_Node000012"><a xlink:title=" ">
<path fill="none" stroke="#63b8ff" d="M1739.37,-115.49C1712.63,-105.53 1668.13,-88.95 1637.77,-77.63"/>
<polygon fill="#63b8ff" stroke="#63b8ff" points="1638.65,-74.23 1628.06,-74.02 1636.21,-80.79 1638.65,-74.23"/>
</a>
</g>
</g>
<!-- Node13 -->
<g id="Node000013" class="node">
<title>Node13</title>
<g id="a_Node000013"><a xlink:title=" ">
<polygon fill="#e0e0e0" stroke="#999999" points="1002.2,-74 942.2,-74 942.2,-55 1002.2,-55 1002.2,-74"/>
<text text-anchor="middle" x="972.2" y="-62" font-family="Helvetica,sans-Serif" font-size="10.00">iostream</text>
</a>
</g>
</g>
<!-- Node7&#45;&gt;Node13 -->
<g id="edge14_Node000007_Node000013" class="edge">
<title>Node7&#45;&gt;Node13</title>
<g id="a_edge14_Node000007_Node000013"><a xlink:title=" ">
<path fill="none" stroke="#63b8ff" d="M1695.87,-115.48C1678.74,-113.48 1660.3,-111.49 1643.2,-110 1363.37,-85.58 1290.62,-111.3 1012.2,-74 1012.1,-73.99 1012,-73.97 1011.9,-73.96"/>
<polygon fill="#63b8ff" stroke="#63b8ff" points="1012.69,-70.54 1002.26,-72.4 1011.57,-77.45 1012.69,-70.54"/>
</a>
</g>
</g>
<!-- Node9 -->
<g id="Node000009" class="node">
<title>Node9</title>
<g id="a_Node000009"><a xlink:title=" ">
<polygon fill="#e0e0e0" stroke="#999999" points="1912.2,-19 1862.2,-19 1862.2,0 1912.2,0 1912.2,-19"/>
<text text-anchor="middle" x="1887.2" y="-7" font-family="Helvetica,sans-Serif" font-size="10.00">cstdint</text>
</a>
</g>
</g>
<!-- Node8&#45;&gt;Node9 -->
<g id="edge8_Node000008_Node000009" class="edge">
<title>Node8&#45;&gt;Node9</title>
<g id="a_edge8_Node000008_Node000009"><a xlink:title=" ">
<path fill="none" stroke="#63b8ff" d="M1887.2,-54.75C1887.2,-47.8 1887.2,-37.85 1887.2,-29.13"/>
<polygon fill="#63b8ff" stroke="#63b8ff" points="1890.7,-29.09 1887.2,-19.09 1883.7,-29.09 1890.7,-29.09"/>
</a>
</g>
</g>
<!-- Node11 -->
<g id="Node000011" class="node">
<title>Node11</title>
<g id="a_Node000011"><a xlink:href="IComponent_8h.html" target="_top" xlink:title=" ">
<polygon fill="white" stroke="#666666" points="1560.2,-19 1466.2,-19 1466.2,0 1560.2,0 1560.2,-19"/>
<text text-anchor="middle" x="1513.2" y="-7" font-family="Helvetica,sans-Serif" font-size="10.00">../IComponent.h</text>
</a>
</g>
</g>
<!-- Node10&#45;&gt;Node11 -->
<g id="edge10_Node000010_Node000011" class="edge">
<title>Node10&#45;&gt;Node11</title>
<g id="a_edge10_Node000010_Node000011"><a xlink:title=" ">
<path fill="none" stroke="#63b8ff" d="M1709.61,-54.98C1669.22,-45.84 1604.92,-31.27 1560.97,-21.32"/>
<polygon fill="#63b8ff" stroke="#63b8ff" points="1561.62,-17.88 1551.09,-19.08 1560.07,-24.7 1561.62,-17.88"/>
</a>
</g>
</g>
<!-- Node14&#45;&gt;Node5 -->
<g id="edge20_Node000014_Node000005" class="edge">
<title>Node14&#45;&gt;Node5</title>
<g id="a_edge20_Node000014_Node000005"><a xlink:title=" ">
<path fill="none" stroke="#63b8ff" d="M1817.25,-181.49C1831.25,-165.65 1856.93,-131.3 1838.2,-110 1835.98,-107.47 1668.5,-86.7 1568.08,-74.45"/>
<polygon fill="#63b8ff" stroke="#63b8ff" points="1568.33,-70.95 1557.98,-73.22 1567.48,-77.9 1568.33,-70.95"/>
</a>
</g>
</g>
<!-- Node14&#45;&gt;Node6 -->
<g id="edge16_Node000014_Node000006" class="edge">
<title>Node14&#45;&gt;Node6</title>
<g id="a_edge16_Node000014_Node000006"><a xlink:title=" ">
<path fill="none" stroke="#63b8ff" d="M1783.48,-181.44C1758.06,-172.55 1718.41,-157.5 1686.2,-140 1665.73,-128.88 1665.15,-117.84 1643.2,-110 1548.69,-76.23 1249.95,-68.07 1124.04,-66.11"/>
<polygon fill="#63b8ff" stroke="#63b8ff" points="1123.89,-62.61 1113.84,-65.96 1123.79,-69.61 1123.89,-62.61"/>
</a>
</g>
</g>
<!-- Node14&#45;&gt;Node7 -->
<g id="edge23_Node000014_Node000007" class="edge">
<title>Node14&#45;&gt;Node7</title>
<g id="a_edge23_Node000014_Node000007"><a xlink:title=" ">
<path fill="none" stroke="#63b8ff" d="M1802.86,-181.37C1795.69,-171.59 1783.81,-155.42 1774.74,-143.08"/>
<polygon fill="#63b8ff" stroke="#63b8ff" points="1777.48,-140.89 1768.74,-134.91 1771.84,-145.04 1777.48,-140.89"/>
</a>
</g>
</g>
<!-- Node14&#45;&gt;Node12 -->
<g id="edge17_Node000014_Node000012" class="edge">
<title>Node14&#45;&gt;Node12</title>
<g id="a_edge17_Node000014_Node000012"><a xlink:title=" ">
<path fill="none" stroke="#63b8ff" d="M1824.55,-181.38C1849.17,-166.49 1892.66,-135.11 1871.2,-110 1839.64,-73.06 1708.5,-82.42 1644.28,-73.8"/>
<polygon fill="#63b8ff" stroke="#63b8ff" points="1644.64,-70.32 1634.21,-72.19 1643.53,-77.23 1644.64,-70.32"/>
</a>
</g>
</g>
<!-- Node15 -->
<g id="Node000015" class="node">
<title>Node15</title>
<g id="a_Node000015"><a xlink:title=" ">
<polygon fill="#e0e0e0" stroke="#999999" points="1970.7,-134.5 1923.7,-134.5 1923.7,-115.5 1970.7,-115.5 1970.7,-134.5"/>
<text text-anchor="middle" x="1947.2" y="-122.5" font-family="Helvetica,sans-Serif" font-size="10.00">cmath</text>
</a>
</g>
</g>
<!-- Node14&#45;&gt;Node15 -->
<g id="edge18_Node000014_Node000015" class="edge">
<title>Node14&#45;&gt;Node15</title>
<g id="a_edge18_Node000014_Node000015"><a xlink:title=" ">
<path fill="none" stroke="#63b8ff" d="M1827.81,-181.37C1851.27,-170.49 1891.81,-151.69 1919.06,-139.05"/>
<polygon fill="#63b8ff" stroke="#63b8ff" points="1920.85,-142.08 1928.45,-134.7 1917.9,-135.73 1920.85,-142.08"/>
</a>
</g>
</g>
<!-- Node16 -->
<g id="Node000016" class="node">
<title>Node16</title>
<g id="a_Node000016"><a xlink:title=" ">
<polygon fill="#e0e0e0" stroke="#999999" points="714.7,-74 667.7,-74 667.7,-55 714.7,-55 714.7,-74"/>
<text text-anchor="middle" x="691.2" y="-62" font-family="Helvetica,sans-Serif" font-size="10.00">vector</text>
</a>
</g>
</g>
<!-- Node14&#45;&gt;Node16 -->
<g id="edge19_Node000014_Node000016" class="edge">
<title>Node14&#45;&gt;Node16</title>
<g id="a_edge19_Node000014_Node000016"><a xlink:title=" ">
<path fill="none" stroke="#63b8ff" d="M1780.96,-181.37C1715.88,-161.54 1558.98,-114.09 1534.2,-110 1181.97,-51.8 1082.45,-125.83 724.99,-73.72"/>
<polygon fill="#63b8ff" stroke="#63b8ff" points="725.28,-70.23 714.88,-72.22 724.25,-77.15 725.28,-70.23"/>
</a>
</g>
</g>
<!-- Node17 -->
<g id="Node000017" class="node">
<title>Node17</title>
<g id="a_Node000017"><a xlink:href="Movement_8h.html" target="_top" xlink:title=" ">
<polygon fill="white" stroke="#666666" points="2135.7,-134.5 1988.7,-134.5 1988.7,-115.5 2135.7,-115.5 2135.7,-134.5"/>
<text text-anchor="middle" x="2062.2" y="-122.5" font-family="Helvetica,sans-Serif" font-size="10.00">./components/Movement.h</text>
</a>
</g>
</g>
<!-- Node14&#45;&gt;Node17 -->
<g id="edge21_Node000014_Node000017" class="edge">
<title>Node14&#45;&gt;Node17</title>
<g id="a_edge21_Node000014_Node000017"><a xlink:title=" ">
<path fill="none" stroke="#63b8ff" d="M1843.06,-181.44C1888.41,-169.96 1968.92,-149.6 2018.71,-137"/>
<polygon fill="#63b8ff" stroke="#63b8ff" points="2019.71,-140.36 2028.55,-134.51 2017.99,-133.57 2019.71,-140.36"/>
</a>
</g>
</g>
<!-- Node17&#45;&gt;Node11 -->
<g id="edge22_Node000017_Node000011" class="edge">
<title>Node17&#45;&gt;Node11</title>
<g id="a_edge22_Node000017_Node000011"><a xlink:title=" ">
<path fill="none" stroke="#63b8ff" d="M2049.05,-115.47C2025.1,-100.41 1972.34,-69.36 1923.2,-55 1801.2,-19.33 1651.24,-11.73 1570.77,-10.43"/>
<polygon fill="#63b8ff" stroke="#63b8ff" points="1570.4,-6.92 1560.36,-10.29 1570.31,-13.92 1570.4,-6.92"/>
</a>
</g>
</g>
<!-- Node18&#45;&gt;Node4 -->
<g id="edge27_Node000018_Node000004" class="edge">
<title>Node18&#45;&gt;Node4</title>
<g id="a_edge27_Node000018_Node000004"><a xlink:title=" ">
<path fill="none" stroke="#63b8ff" d="M931.99,-177.11C929.03,-176.72 926.09,-176.35 923.2,-176 824.04,-164.06 568.4,-175.92 475.2,-140 454.8,-132.13 454.27,-122.32 436.2,-110 420.05,-98.98 401.15,-87.64 386.49,-79.16"/>
<polygon fill="#63b8ff" stroke="#63b8ff" points="387.96,-75.97 377.54,-74.04 384.48,-82.05 387.96,-75.97"/>
</a>
</g>
</g>
<!-- Node18&#45;&gt;Node5 -->
<g id="edge29_Node000018_Node000005" class="edge">
<title>Node18&#45;&gt;Node5</title>
<g id="a_edge29_Node000018_Node000005"><a xlink:title=" ">
<path fill="none" stroke="#63b8ff" d="M1069.68,-175.93C1108.02,-166.53 1158.82,-153.47 1203.2,-140 1241.94,-128.25 1250.24,-120.98 1289.2,-110 1338.59,-96.08 1395.7,-84.01 1437.08,-75.96"/>
<polygon fill="#63b8ff" stroke="#63b8ff" points="1437.83,-79.38 1446.99,-74.05 1436.5,-72.51 1437.83,-79.38"/>
</a>
</g>
</g>
<!-- Node18&#45;&gt;Node6 -->
<g id="edge25_Node000018_Node000006" class="edge">
<title>Node18&#45;&gt;Node6</title>
<g id="a_edge25_Node000018_Node000006"><a xlink:title=" ">
<path fill="none" stroke="#63b8ff" d="M992.06,-175.82C973.56,-159.59 949.51,-132.36 964.2,-110 974.86,-93.79 992.8,-83.46 1010.76,-76.89"/>
<polygon fill="#63b8ff" stroke="#63b8ff" points="1012.29,-80.07 1020.69,-73.61 1010.09,-73.42 1012.29,-80.07"/>
</a>
</g>
</g>
<!-- Node18&#45;&gt;Node12 -->
<g id="edge26_Node000018_Node000012" class="edge">
<title>Node18&#45;&gt;Node12</title>
<g id="a_edge26_Node000018_Node000012"><a xlink:title=" ">
<path fill="none" stroke="#63b8ff" d="M1088.39,-179.58C1138.36,-171.65 1204.08,-158.85 1260.2,-140 1289.22,-130.25 1292.94,-119 1322.2,-110 1424.32,-78.6 1457.07,-93.11 1566.12,-74.04"/>
<polygon fill="#63b8ff" stroke="#63b8ff" points="1566.98,-77.44 1576.2,-72.22 1565.74,-70.55 1566.98,-77.44"/>
</a>
</g>
</g>
<!-- Node18&#45;&gt;Node13 -->
<g id="edge28_Node000018_Node000013" class="edge">
<title>Node18&#45;&gt;Node13</title>
<g id="a_edge28_Node000018_Node000013"><a xlink:title=" ">
<path fill="none" stroke="#63b8ff" d="M972.49,-175.88C956.77,-167.9 940.13,-156.21 931.2,-140 924.77,-128.32 926.35,-122.42 931.2,-110 935.6,-98.73 944.35,-88.59 952.63,-80.85"/>
<polygon fill="#63b8ff" stroke="#63b8ff" points="955.03,-83.4 960.28,-74.2 950.43,-78.12 955.03,-83.4"/>
</a>
</g>
</g>
<!-- Node19 -->
<g id="Node000019" class="node">
<title>Node19</title>
<g id="a_Node000019"><a xlink:href="DescriptionComponent_8h.html" target="_top" xlink:title=" ">
<polygon fill="white" stroke="#666666" points="624.7,-140 483.7,-140 483.7,-110 624.7,-110 624.7,-140"/>
<text text-anchor="start" x="491.7" y="-128" font-family="Helvetica,sans-Serif" font-size="10.00">./components/Description</text>
<text text-anchor="middle" x="554.2" y="-117" font-family="Helvetica,sans-Serif" font-size="10.00">Component.h</text>
</a>
</g>
</g>
<!-- Node18&#45;&gt;Node19 -->
<g id="edge30_Node000018_Node000019" class="edge">
<title>Node18&#45;&gt;Node19</title>
<g id="a_edge30_Node000018_Node000019"><a xlink:title=" ">
<path fill="none" stroke="#63b8ff" d="M931.96,-177.32C929.01,-176.87 926.08,-176.43 923.2,-176 824.26,-161.34 710.13,-146.13 635.31,-136.4"/>
<polygon fill="#63b8ff" stroke="#63b8ff" points="635.38,-132.88 625.02,-135.06 634.48,-139.82 635.38,-132.88"/>
</a>
</g>
</g>
<!-- Node19&#45;&gt;Node4 -->
<g id="edge31_Node000019_Node000004" class="edge">
<title>Node19&#45;&gt;Node4</title>
<g id="a_edge31_Node000019_Node000004"><a xlink:title=" ">
<path fill="none" stroke="#63b8ff" d="M508.21,-109.99C473.03,-99.27 425.41,-84.76 394.26,-75.27"/>
<polygon fill="#63b8ff" stroke="#63b8ff" points="394.96,-71.82 384.37,-72.25 392.92,-78.52 394.96,-71.82"/>
</a>
</g>
</g>
<!-- Node19&#45;&gt;Node11 -->
<g id="edge32_Node000019_Node000011" class="edge">
<title>Node19&#45;&gt;Node11</title>
<g id="a_edge32_Node000019_Node000011"><a xlink:title=" ">
<path fill="none" stroke="#63b8ff" d="M541.78,-109.78C529.89,-94.42 515.74,-70.13 530.2,-55 562.31,-21.41 1250,-12.77 1455.63,-10.94"/>
<polygon fill="#63b8ff" stroke="#63b8ff" points="1455.94,-14.43 1465.91,-10.85 1455.88,-7.43 1455.94,-14.43"/>
</a>
</g>
</g>
<!-- Node20&#45;&gt;Node4 -->
<g id="edge44_Node000020_Node000004" class="edge">
<title>Node20&#45;&gt;Node4</title>
<g id="a_edge44_Node000020_Node000004"><a xlink:title=" ">
<path fill="none" stroke="#63b8ff" d="M561.92,-188.71C458.02,-184.74 171.01,-171.02 143.2,-140 89.04,-79.57 256.82,-68.12 329.92,-65.98"/>
<polygon fill="#63b8ff" stroke="#63b8ff" points="330.07,-69.48 339.98,-65.73 329.9,-62.48 330.07,-69.48"/>
</a>
</g>
</g>
<!-- Node20&#45;&gt;Node16 -->
<g id="edge43_Node000020_Node000016" class="edge">
<title>Node20&#45;&gt;Node16</title>
<g id="a_edge43_Node000020_Node000016"><a xlink:title=" ">
<path fill="none" stroke="#63b8ff" d="M605.53,-181.44C620.63,-161.01 659,-109.07 678.87,-82.19"/>
<polygon fill="#63b8ff" stroke="#63b8ff" points="681.71,-84.24 684.84,-74.12 676.08,-80.08 681.71,-84.24"/>
</a>
</g>
</g>
<!-- Node20&#45;&gt;Node21 -->
<g id="edge34_Node000020_Node000021" class="edge">
<title>Node20&#45;&gt;Node21</title>
<g id="a_edge34_Node000020_Node000021"><a xlink:title=" ">
<path fill="none" stroke="#63b8ff" d="M623.61,-181.37C655.63,-170.05 711.91,-150.15 747.57,-137.54"/>
<polygon fill="#63b8ff" stroke="#63b8ff" points="748.78,-140.83 757.04,-134.19 746.44,-134.23 748.78,-140.83"/>
</a>
</g>
</g>
<!-- Node21&#45;&gt;Node4 -->
<g id="edge38_Node000021_Node000004" class="edge">
<title>Node21&#45;&gt;Node4</title>
<g id="a_edge38_Node000021_Node000004"><a xlink:title=" ">
<path fill="none" stroke="#63b8ff" d="M760.13,-115.38C754.72,-113.34 748.81,-111.37 743.2,-110 616.64,-79.16 461.04,-69.47 394.68,-66.61"/>
<polygon fill="#63b8ff" stroke="#63b8ff" points="394.58,-63.11 384.44,-66.2 394.29,-70.1 394.58,-63.11"/>
</a>
</g>
</g>
<!-- Node21&#45;&gt;Node6 -->
<g id="edge39_Node000021_Node000006" class="edge">
<title>Node21&#45;&gt;Node6</title>
<g id="a_edge39_Node000021_Node000006"><a xlink:title=" ">
<path fill="none" stroke="#63b8ff" d="M803.2,-119.31C848.94,-109.99 952.32,-88.92 1015.29,-76.08"/>
<polygon fill="#63b8ff" stroke="#63b8ff" points="1016.31,-79.45 1025.41,-74.02 1014.91,-72.59 1016.31,-79.45"/>
</a>
</g>
</g>
<!-- Node21&#45;&gt;Node13 -->
<g id="edge36_Node000021_Node000013" class="edge">
<title>Node21&#45;&gt;Node13</title>
<g id="a_edge36_Node000021_Node000013"><a xlink:title=" ">
<path fill="none" stroke="#63b8ff" d="M802.01,-115.41C806.98,-113.55 812.25,-111.65 817.2,-110 855.92,-97.14 900.79,-84.5 932.25,-76"/>
<polygon fill="#63b8ff" stroke="#63b8ff" points="933.22,-79.36 941.97,-73.39 931.41,-72.6 933.22,-79.36"/>
</a>
</g>
</g>
<!-- Node21&#45;&gt;Node16 -->
<g id="edge35_Node000021_Node000016" class="edge">
<title>Node21&#45;&gt;Node16</title>
<g id="a_edge35_Node000021_Node000016"><a xlink:title=" ">
<path fill="none" stroke="#63b8ff" d="M767.07,-115.37C752.87,-106.04 730.01,-91.01 713.09,-79.88"/>
<polygon fill="#63b8ff" stroke="#63b8ff" points="714.67,-76.74 704.39,-74.17 710.82,-82.58 714.67,-76.74"/>
</a>
</g>
</g>
<!-- Node22 -->
<g id="Node000022" class="node">
<title>Node22</title>
<g id="a_Node000022"><a xlink:title=" ">
<polygon fill="#e0e0e0" stroke="#999999" points="924.2,-74 868.2,-74 868.2,-55 924.2,-55 924.2,-74"/>
<text text-anchor="middle" x="896.2" y="-62" font-family="Helvetica,sans-Serif" font-size="10.00">iomanip</text>
</a>
</g>
</g>
<!-- Node21&#45;&gt;Node22 -->
<g id="edge37_Node000021_Node000022" class="edge">
<title>Node21&#45;&gt;Node22</title>
<g id="a_edge37_Node000021_Node000022"><a xlink:title=" ">
<path fill="none" stroke="#63b8ff" d="M797.32,-115.37C816.42,-105.73 847.57,-90.03 869.8,-78.81"/>
<polygon fill="#63b8ff" stroke="#63b8ff" points="871.66,-81.8 879.02,-74.17 868.51,-75.55 871.66,-81.8"/>
</a>
</g>
</g>
<!-- Node23 -->
<g id="Node000023" class="node">
<title>Node23</title>
<g id="a_Node000023"><a xlink:title=" ">
<polygon fill="#e0e0e0" stroke="#999999" points="787.7,-74 732.7,-74 732.7,-55 787.7,-55 787.7,-74"/>
<text text-anchor="middle" x="760.2" y="-62" font-family="Helvetica,sans-Serif" font-size="10.00">fstream</text>
</a>
</g>
</g>
<!-- Node21&#45;&gt;Node23 -->
<g id="edge40_Node000021_Node000023" class="edge">
<title>Node21&#45;&gt;Node23</title>
<g id="a_edge40_Node000021_Node000023"><a xlink:title=" ">
<path fill="none" stroke="#63b8ff" d="M777.25,-115.37C774.42,-107.07 770.04,-94.28 766.43,-83.72"/>
<polygon fill="#63b8ff" stroke="#63b8ff" points="769.71,-82.5 763.17,-74.17 763.09,-84.76 769.71,-82.5"/>
</a>
</g>
</g>
<!-- Node24 -->
<g id="Node000024" class="node">
<title>Node24</title>
<g id="a_Node000024"><a xlink:title=" ">
<polygon fill="#e0e0e0" stroke="#999999" points="850.2,-74 806.2,-74 806.2,-55 850.2,-55 850.2,-74"/>
<text text-anchor="middle" x="828.2" y="-62" font-family="Helvetica,sans-Serif" font-size="10.00">regex</text>
</a>
</g>
</g>
<!-- Node21&#45;&gt;Node24 -->
<g id="edge41_Node000021_Node000024" class="edge">
<title>Node21&#45;&gt;Node24</title>
<g id="a_edge41_Node000021_Node000024"><a xlink:title=" ">
<path fill="none" stroke="#63b8ff" d="M787.29,-115.37C794.45,-106.64 805.7,-92.93 814.59,-82.09"/>
<polygon fill="#63b8ff" stroke="#63b8ff" points="817.45,-84.12 821.09,-74.17 812.04,-79.68 817.45,-84.12"/>
</a>
</g>
</g>
<!-- Node25 -->
<g id="Node000025" class="node">
<title>Node25</title>
<g id="a_Node000025"><a xlink:title=" ">
<polygon fill="#e0e0e0" stroke="#999999" points="649.2,-74 539.2,-74 539.2,-55 649.2,-55 649.2,-74"/>
<text text-anchor="middle" x="594.2" y="-62" font-family="Helvetica,sans-Serif" font-size="10.00">nlohmann/json.hpp</text>
</a>
</g>
</g>
<!-- Node21&#45;&gt;Node25 -->
<g id="edge42_Node000021_Node000025" class="edge">
<title>Node21&#45;&gt;Node25</title>
<g id="a_edge42_Node000021_Node000025"><a xlink:title=" ">
<path fill="none" stroke="#63b8ff" d="M758.38,-115.45C753.42,-113.58 748.15,-111.67 743.2,-110 706.9,-97.73 665.04,-85.38 634.95,-76.82"/>
<polygon fill="#63b8ff" stroke="#63b8ff" points="635.8,-73.42 625.23,-74.07 633.89,-80.16 635.8,-73.42"/>
</a>
</g>
</g>
<!-- Node26&#45;&gt;Node4 -->
<g id="edge47_Node000026_Node000004" class="edge">
<title>Node26&#45;&gt;Node4</title>
<g id="a_edge47_Node000026_Node000004"><a xlink:title=" ">
<path fill="none" stroke="#63b8ff" d="M220.34,-115.49C249.39,-105.26 298.25,-88.04 330.37,-76.72"/>
<polygon fill="#63b8ff" stroke="#63b8ff" points="331.89,-79.89 340.16,-73.27 329.56,-73.29 331.89,-79.89"/>
</a>
</g>
</g>
<!-- Node26&#45;&gt;Node25 -->
<g id="edge48_Node000026_Node000025" class="edge">
<title>Node26&#45;&gt;Node25</title>
<g id="a_edge48_Node000026_Node000025"><a xlink:title=" ">
<path fill="none" stroke="#63b8ff" d="M241.12,-117.1C256.09,-114.82 272.86,-112.28 288.2,-110 371.32,-97.63 467.2,-83.75 529.16,-74.83"/>
<polygon fill="#63b8ff" stroke="#63b8ff" points="529.79,-78.28 539.19,-73.39 528.79,-71.35 529.79,-78.28"/>
</a>
</g>
</g>
<!-- Node27&#45;&gt;Node4 -->
<g id="edge56_Node000027_Node000004" class="edge">
<title>Node27&#45;&gt;Node4</title>
<g id="a_edge56_Node000027_Node000004"><a xlink:title=" ">
<path fill="none" stroke="#63b8ff" d="M1319.7,-186.45C1181.44,-178.48 856.89,-158.43 748.2,-140 696.55,-131.24 685.45,-120.91 634.2,-110 548.35,-91.72 445.86,-76.79 394.67,-69.79"/>
<polygon fill="#63b8ff" stroke="#63b8ff" points="394.93,-66.3 384.55,-68.42 393.99,-73.23 394.93,-66.3"/>
</a>
</g>
</g>
<!-- Node27&#45;&gt;Node5 -->
<g id="edge50_Node000027_Node000005" class="edge">
<title>Node27&#45;&gt;Node5</title>
<g id="a_edge50_Node000027_Node000005"><a xlink:title=" ">
<path fill="none" stroke="#63b8ff" d="M1447.02,-185.83C1478.68,-180.15 1514.32,-167.54 1534.2,-140 1547.94,-120.98 1528.93,-96.66 1512.71,-81.08"/>
<polygon fill="#63b8ff" stroke="#63b8ff" points="1514.88,-78.33 1505.13,-74.2 1510.18,-83.51 1514.88,-78.33"/>
</a>
</g>
</g>
<!-- Node27&#45;&gt;Node6 -->
<g id="edge55_Node000027_Node000006" class="edge">
<title>Node27&#45;&gt;Node6</title>
<g id="a_edge55_Node000027_Node000006"><a xlink:title=" ">
<path fill="none" stroke="#63b8ff" d="M1361.48,-181.44C1306.69,-159.85 1162.64,-103.1 1098.64,-77.88"/>
<polygon fill="#63b8ff" stroke="#63b8ff" points="1099.66,-74.53 1089.08,-74.12 1097.1,-81.04 1099.66,-74.53"/>
</a>
</g>
</g>
<!-- Node27&#45;&gt;Node7 -->
<g id="edge54_Node000027_Node000007" class="edge">
<title>Node27&#45;&gt;Node7</title>
<g id="a_edge54_Node000027_Node000007"><a xlink:title=" ">
<path fill="none" stroke="#63b8ff" d="M1433.92,-181.44C1503.28,-169.72 1627.53,-148.74 1701.67,-136.22"/>
<polygon fill="#63b8ff" stroke="#63b8ff" points="1702.51,-139.63 1711.78,-134.51 1701.34,-132.73 1702.51,-139.63"/>
</a>
</g>
</g>
<!-- Node27&#45;&gt;Node12 -->
<g id="edge57_Node000027_Node000012" class="edge">
<title>Node27&#45;&gt;Node12</title>
<g id="a_edge57_Node000027_Node000012"><a xlink:title=" ">
<path fill="none" stroke="#63b8ff" d="M1444.13,-181.47C1477.74,-174.49 1518.89,-162.02 1550.2,-140 1571.09,-125.31 1587.23,-100.17 1596.47,-83.2"/>
<polygon fill="#63b8ff" stroke="#63b8ff" points="1599.6,-84.79 1601.1,-74.3 1593.39,-81.56 1599.6,-84.79"/>
</a>
</g>
</g>
<!-- Node28 -->
<g id="Node000028" class="node">
<title>Node28</title>
<g id="a_Node000028"><a xlink:href="InfoBoxComponent_8h.html" target="_top" xlink:title=" ">
<polygon fill="white" stroke="#666666" points="1161.2,-134.5 973.2,-134.5 973.2,-115.5 1161.2,-115.5 1161.2,-134.5"/>
<text text-anchor="middle" x="1067.2" y="-122.5" font-family="Helvetica,sans-Serif" font-size="10.00">./components/InfoBoxComponent.h</text>
</a>
</g>
</g>
<!-- Node27&#45;&gt;Node28 -->
<g id="edge51_Node000027_Node000028" class="edge">
<title>Node27&#45;&gt;Node28</title>
<g id="a_edge51_Node000027_Node000028"><a xlink:title=" ">
<path fill="none" stroke="#63b8ff" d="M1340.91,-181.44C1283.56,-169.82 1181.19,-149.09 1119.2,-136.53"/>
<polygon fill="#63b8ff" stroke="#63b8ff" points="1119.74,-133.07 1109.24,-134.51 1118.35,-139.93 1119.74,-133.07"/>
</a>
</g>
</g>
<!-- Node29 -->
<g id="Node000029" class="node">
<title>Node29</title>
<g id="a_Node000029"><a xlink:title=" ">
<polygon fill="#e0e0e0" stroke="#999999" points="1525.2,-134.5 1453.2,-134.5 1453.2,-115.5 1525.2,-115.5 1525.2,-134.5"/>
<text text-anchor="middle" x="1489.2" y="-122.5" font-family="Helvetica,sans-Serif" font-size="10.00">SDL3/SDL.h</text>
</a>
</g>
</g>
<!-- Node27&#45;&gt;Node29 -->
<g id="edge58_Node000027_Node000029" class="edge">
<title>Node27&#45;&gt;Node29</title>
<g id="a_edge58_Node000027_Node000029"><a xlink:title=" ">
<path fill="none" stroke="#63b8ff" d="M1397.5,-181.37C1415.12,-170.73 1445.3,-152.51 1466.2,-139.89"/>
<polygon fill="#63b8ff" stroke="#63b8ff" points="1468.04,-142.86 1474.8,-134.7 1464.43,-136.87 1468.04,-142.86"/>
</a>
</g>
</g>
<!-- Node30 -->
<g id="Node000030" class="node">
<title>Node30</title>
<g id="a_Node000030"><a xlink:title=" ">
<polygon fill="#e0e0e0" stroke="#999999" points="1435.2,-134.5 1331.2,-134.5 1331.2,-115.5 1435.2,-115.5 1435.2,-134.5"/>
<text text-anchor="middle" x="1383.2" y="-122.5" font-family="Helvetica,sans-Serif" font-size="10.00">SDL3_ttf/SDL_ttf.h</text>
</a>
</g>
</g>
<!-- Node27&#45;&gt;Node30 -->
<g id="edge59_Node000027_Node000030" class="edge">
<title>Node27&#45;&gt;Node30</title>
<g id="a_edge59_Node000027_Node000030"><a xlink:title=" ">
<path fill="none" stroke="#63b8ff" d="M1383.2,-181.37C1383.2,-172.16 1383.2,-157.29 1383.2,-145.27"/>
<polygon fill="#63b8ff" stroke="#63b8ff" points="1386.7,-144.91 1383.2,-134.91 1379.7,-144.91 1386.7,-144.91"/>
</a>
</g>
</g>
<!-- Node28&#45;&gt;Node4 -->
<g id="edge52_Node000028_Node000004" class="edge">
<title>Node28&#45;&gt;Node4</title>
<g id="a_edge52_Node000028_Node000004"><a xlink:title=" ">
<path fill="none" stroke="#63b8ff" d="M972.86,-116.17C813.03,-102.91 496.45,-76.64 394.59,-68.19"/>
<polygon fill="#63b8ff" stroke="#63b8ff" points="394.58,-64.67 384.33,-67.34 394,-71.65 394.58,-64.67"/>
</a>
</g>
</g>
<!-- Node28&#45;&gt;Node11 -->
<g id="edge53_Node000028_Node000011" class="edge">
<title>Node28&#45;&gt;Node11</title>
<g id="a_edge53_Node000028_Node000011"><a xlink:title=" ">
<path fill="none" stroke="#63b8ff" d="M1100.73,-115.47C1180.41,-95.19 1381.1,-44.12 1469.85,-21.53"/>
<polygon fill="#63b8ff" stroke="#63b8ff" points="1470.77,-24.91 1479.6,-19.05 1469.04,-18.13 1470.77,-24.91"/>
</a>
</g>
</g>
<!-- Node31&#45;&gt;Node4 -->
<g id="edge61_Node000031_Node000004" class="edge">
<title>Node31&#45;&gt;Node4</title>
<g id="a_edge61_Node000031_Node000004"><a xlink:title=" ">
<path fill="none" stroke="#63b8ff" d="M43.03,-181.42C22.63,-166.03 -14.28,-133.2 6.2,-110 27.48,-85.9 245.97,-71.73 329.75,-67.15"/>
<polygon fill="#63b8ff" stroke="#63b8ff" points="330.16,-70.63 339.96,-66.6 329.79,-63.64 330.16,-70.63"/>
</a>
</g>
</g>
<!-- Node31&#45;&gt;Node32 -->
<g id="edge62_Node000031_Node000032" class="edge">
<title>Node31&#45;&gt;Node32</title>
<g id="a_edge62_Node000031_Node000032"><a xlink:title=" ">
<path fill="none" stroke="#63b8ff" d="M55.2,-181.37C55.2,-172.16 55.2,-157.29 55.2,-145.27"/>
<polygon fill="#63b8ff" stroke="#63b8ff" points="58.7,-144.91 55.2,-134.91 51.7,-144.91 58.7,-144.91"/>
</a>
</g>
</g>
<!-- Node32&#45;&gt;Node4 -->
<g id="edge63_Node000032_Node000004" class="edge">
<title>Node32&#45;&gt;Node4</title>
<g id="a_edge63_Node000032_Node000004"><a xlink:title=" ">
<path fill="none" stroke="#63b8ff" d="M86.51,-115.43C93.92,-113.53 101.82,-111.6 109.2,-110 188.01,-92.88 281.71,-77.74 329.95,-70.33"/>
<polygon fill="#63b8ff" stroke="#63b8ff" points="330.73,-73.75 340.09,-68.78 329.68,-66.83 330.73,-73.75"/>
</a>
</g>
</g>
<!-- Node33&#45;&gt;Node4 -->
<g id="edge67_Node000033_Node000004" class="edge">
<title>Node33&#45;&gt;Node4</title>
<g id="a_edge67_Node000033_Node000004"><a xlink:title=" ">
<path fill="none" stroke="#63b8ff" d="M671.15,-181.44C662.76,-179.42 653.68,-177.44 645.2,-176 566.6,-162.61 341.68,-199.14 288.2,-140 279.26,-130.11 281.64,-121.61 288.2,-110 297.31,-93.9 314.83,-82.98 330.54,-75.99"/>
<polygon fill="#63b8ff" stroke="#63b8ff" points="332.05,-79.15 339.99,-72.13 329.41,-72.67 332.05,-79.15"/>
</a>
</g>
</g>
<!-- Node33&#45;&gt;Node6 -->
<g id="edge66_Node000033_Node000006" class="edge">
<title>Node33&#45;&gt;Node6</title>
<g id="a_edge66_Node000033_Node000006"><a xlink:title=" ">
<path fill="none" stroke="#63b8ff" d="M723.43,-181.4C760.08,-165.98 840.07,-133.1 909.2,-110 947.37,-97.25 991.51,-85.02 1023.42,-76.62"/>
<polygon fill="#63b8ff" stroke="#63b8ff" points="1024.53,-79.95 1033.32,-74.04 1022.76,-73.18 1024.53,-79.95"/>
</a>
</g>
</g>
<!-- Node33&#45;&gt;Node16 -->
<g id="edge68_Node000033_Node000016" class="edge">
<title>Node33&#45;&gt;Node16</title>
<g id="a_edge68_Node000033_Node000016"><a xlink:title=" ">
<path fill="none" stroke="#63b8ff" d="M702.38,-181.44C700.46,-161.54 695.66,-111.76 693.02,-84.35"/>
<polygon fill="#63b8ff" stroke="#63b8ff" points="696.48,-83.74 692.03,-74.12 689.51,-84.41 696.48,-83.74"/>
</a>
</g>
</g>
<!-- Node33&#45;&gt;Node21 -->
<g id="edge69_Node000033_Node000021" class="edge">
<title>Node33&#45;&gt;Node21</title>
<g id="a_edge69_Node000033_Node000021"><a xlink:title=" ">
<path fill="none" stroke="#63b8ff" d="M713.59,-181.37C725.92,-171.12 746.71,-153.84 761.79,-141.31"/>
<polygon fill="#63b8ff" stroke="#63b8ff" points="764.04,-143.99 769.49,-134.91 759.56,-138.61 764.04,-143.99"/>
</a>
</g>
</g>
</g>
</svg>
