<?xml version="1.0" encoding="UTF-8" standalone="no"?>
<!DOCTYPE svg PUBLIC "-//W3C//DTD SVG 1.1//EN"
 "http://www.w3.org/Graphics/SVG/1.1/DTD/svg11.dtd">
<!-- Generated by graphviz version 2.43.0 (0)
 -->
<!-- Title: ECS::IComponent Pages: 1 -->
<svg width="890pt" height="392pt"
 viewBox="0.00 0.00 889.50 392.00" xmlns="http://www.w3.org/2000/svg" xmlns:xlink="http://www.w3.org/1999/xlink">
<g id="graph0" class="graph" transform="scale(1 1) rotate(0) translate(4 388)">
<title>ECS::IComponent</title>
<!-- Node1 -->
<g id="Node000001" class="node">
<title>Node1</title>
<g id="a_Node000001"><a xlink:title=" ">
<polygon fill="#999999" stroke="transparent" points="451.5,-384 354.5,-384 354.5,-335 451.5,-335 451.5,-384"/>
<text text-anchor="start" x="361" y="-371.5" font-family="Helvetica,sans-Serif" font-size="10.00">ECS::IComponent</text>
<text text-anchor="start" x="401.5" y="-356.5" font-family="Helvetica,sans-Serif" font-size="10.00"> </text>
<text text-anchor="start" x="359" y="-341.5" font-family="Helvetica,sans-Serif" font-size="10.00">+</text>
<text text-anchor="start" x="372" y="-341.5" font-family="Helvetica,sans-Serif" font-size="10.00">~IComponent()</text>
<polygon fill="#666666" stroke="#666666" points="355,-366.5 355,-366.5 452,-366.5 452,-366.5 355,-366.5"/>
<polygon fill="#666666" stroke="#666666" points="355,-351.5 355,-351.5 452,-351.5 452,-351.5 355,-351.5"/>
<polygon fill="none" stroke="#666666" points="354.5,-335 354.5,-384 451.5,-384 451.5,-335 354.5,-335"/>
</a>
</g>
</g>
<!-- Node2 -->
<g id="Node000002" class="node">
<title>Node2</title>
<g id="a_Node000002"><a xlink:href="classController.html" target="_top" xlink:title=" ">
<polygon fill="white" stroke="transparent" points="92.5,-231.5 15.5,-231.5 15.5,-167.5 92.5,-167.5 92.5,-231.5"/>
<text text-anchor="start" x="30" y="-219.5" font-family="Helvetica,sans-Serif" font-size="10.00">Controller</text>
<text text-anchor="start" x="20" y="-204.5" font-family="Helvetica,sans-Serif" font-size="10.00">+</text>
<text text-anchor="start" x="33" y="-204.5" font-family="Helvetica,sans-Serif" font-size="10.00">type</text>
<text text-anchor="start" x="20" y="-189.5" font-family="Helvetica,sans-Serif" font-size="10.00">+</text>
<text text-anchor="start" x="33" y="-189.5" font-family="Helvetica,sans-Serif" font-size="10.00">Controller()</text>
<text text-anchor="start" x="20" y="-174.5" font-family="Helvetica,sans-Serif" font-size="10.00">+</text>
<text text-anchor="start" x="33" y="-174.5" font-family="Helvetica,sans-Serif" font-size="10.00">update()</text>
<polygon fill="#666666" stroke="#666666" points="16,-214.5 16,-214.5 93,-214.5 93,-214.5 16,-214.5"/>
<polygon fill="#666666" stroke="#666666" points="16,-199.5 16,-199.5 31,-199.5 31,-199.5 16,-199.5"/>
<polygon fill="#666666" stroke="#666666" points="31,-199.5 31,-199.5 93,-199.5 93,-199.5 31,-199.5"/>
<polygon fill="none" stroke="#666666" points="15.5,-167.5 15.5,-231.5 92.5,-231.5 92.5,-167.5 15.5,-167.5"/>
</a>
</g>
</g>
<!-- Node1&#45;&gt;Node2 -->
<g id="edge1_Node000001_Node000002" class="edge">
<title>Node1&#45;&gt;Node2</title>
<g id="a_edge1_Node000001_Node000002"><a xlink:title=" ">
<path fill="none" stroke="#63b8ff" d="M344.28,-353.19C267.45,-345.21 138.22,-327.89 101,-299 79.75,-282.5 67.61,-254 61.02,-231.89"/>
<polygon fill="none" stroke="#63b8ff" points="343.99,-356.68 354.29,-354.21 344.7,-349.72 343.99,-356.68"/>
</a>
</g>
</g>
<!-- Node4 -->
<g id="Node000004" class="node">
<title>Node4</title>
<g id="a_Node000004"><a xlink:href="structDescriptionComponent.html" target="_top" xlink:title="Component to store a descriptive string for an entity.">
<polygon fill="white" stroke="transparent" points="251.5,-231.5 110.5,-231.5 110.5,-167.5 251.5,-167.5 251.5,-231.5"/>
<text text-anchor="start" x="125.5" y="-219.5" font-family="Helvetica,sans-Serif" font-size="10.00">DescriptionComponent</text>
<text text-anchor="start" x="115" y="-204.5" font-family="Helvetica,sans-Serif" font-size="10.00">+</text>
<text text-anchor="start" x="128" y="-204.5" font-family="Helvetica,sans-Serif" font-size="10.00">name</text>
<text text-anchor="start" x="115" y="-189.5" font-family="Helvetica,sans-Serif" font-size="10.00">+</text>
<text text-anchor="start" x="128" y="-189.5" font-family="Helvetica,sans-Serif" font-size="10.00">text</text>
<text text-anchor="start" x="115" y="-174.5" font-family="Helvetica,sans-Serif" font-size="10.00">+</text>
<text text-anchor="start" x="128" y="-174.5" font-family="Helvetica,sans-Serif" font-size="10.00">DescriptionComponent()</text>
<polygon fill="#666666" stroke="#666666" points="111,-214.5 111,-214.5 252,-214.5 252,-214.5 111,-214.5"/>
<polygon fill="#666666" stroke="#666666" points="111,-184.5 111,-184.5 126,-184.5 126,-184.5 111,-184.5"/>
<polygon fill="#666666" stroke="#666666" points="126,-184.5 126,-184.5 252,-184.5 252,-184.5 126,-184.5"/>
<polygon fill="none" stroke="#666666" points="110.5,-167.5 110.5,-231.5 251.5,-231.5 251.5,-167.5 110.5,-167.5"/>
</a>
</g>
</g>
<!-- Node1&#45;&gt;Node4 -->
<g id="edge3_Node000001_Node000004" class="edge">
<title>Node1&#45;&gt;Node4</title>
<g id="a_edge3_Node000001_Node000004"><a xlink:title=" ">
<path fill="none" stroke="#63b8ff" d="M344.99,-341.8C317.53,-332.11 285.28,-318.01 260,-299 235.64,-280.69 214.45,-253.23 200.16,-231.94"/>
<polygon fill="none" stroke="#63b8ff" points="343.89,-345.12 354.49,-345.04 346.16,-338.5 343.89,-345.12"/>
</a>
</g>
</g>
<!-- Node5 -->
<g id="Node000005" class="node">
<title>Node5</title>
<g id="a_Node000005"><a xlink:href="structInfoBoxComponent.html" target="_top" xlink:title="Holds the dynamic text to be displayed for an entity.">
<polygon fill="white" stroke="transparent" points="392.5,-224 269.5,-224 269.5,-175 392.5,-175 392.5,-224"/>
<text text-anchor="start" x="284.5" y="-211.5" font-family="Helvetica,sans-Serif" font-size="10.00">InfoBoxComponent</text>
<text text-anchor="start" x="274" y="-196.5" font-family="Helvetica,sans-Serif" font-size="10.00">+</text>
<text text-anchor="start" x="287" y="-196.5" font-family="Helvetica,sans-Serif" font-size="10.00">text</text>
<text text-anchor="start" x="274" y="-181.5" font-family="Helvetica,sans-Serif" font-size="10.00">+</text>
<text text-anchor="start" x="287" y="-181.5" font-family="Helvetica,sans-Serif" font-size="10.00">InfoBoxComponent()</text>
<polygon fill="#666666" stroke="#666666" points="270,-206.5 270,-206.5 393,-206.5 393,-206.5 270,-206.5"/>
<polygon fill="#666666" stroke="#666666" points="270,-191.5 270,-191.5 285,-191.5 285,-191.5 270,-191.5"/>
<polygon fill="#666666" stroke="#666666" points="285,-191.5 285,-191.5 393,-191.5 393,-191.5 285,-191.5"/>
<polygon fill="none" stroke="#666666" points="269.5,-175 269.5,-224 392.5,-224 392.5,-175 269.5,-175"/>
</a>
</g>
</g>
<!-- Node1&#45;&gt;Node5 -->
<g id="edge4_Node000001_Node000005" class="edge">
<title>Node1&#45;&gt;Node5</title>
<g id="a_edge4_Node000001_Node000005"><a xlink:title=" ">
<path fill="none" stroke="#63b8ff" d="M387.97,-325.53C374.15,-295.2 354,-250.97 341.74,-224.06"/>
<polygon fill="none" stroke="#63b8ff" points="384.89,-327.2 392.22,-334.85 391.26,-324.29 384.89,-327.2"/>
</a>
</g>
</g>
<!-- Node6 -->
<g id="Node000006" class="node">
<title>Node6</title>
<g id="a_Node000006"><a xlink:href="structMovement.html" target="_top" xlink:title="Component to store a movement target and state.">
<polygon fill="white" stroke="transparent" points="541.5,-299 410.5,-299 410.5,-100 541.5,-100 541.5,-299"/>
<text text-anchor="start" x="450" y="-286.5" font-family="Helvetica,sans-Serif" font-size="10.00">Movement</text>
<text text-anchor="start" x="415" y="-271.5" font-family="Helvetica,sans-Serif" font-size="10.00">+</text>
<text text-anchor="start" x="428" y="-271.5" font-family="Helvetica,sans-Serif" font-size="10.00">targetX</text>
<text text-anchor="start" x="415" y="-256.5" font-family="Helvetica,sans-Serif" font-size="10.00">+</text>
<text text-anchor="start" x="428" y="-256.5" font-family="Helvetica,sans-Serif" font-size="10.00">targetY</text>
<text text-anchor="start" x="415" y="-241.5" font-family="Helvetica,sans-Serif" font-size="10.00">+</text>
<text text-anchor="start" x="428" y="-241.5" font-family="Helvetica,sans-Serif" font-size="10.00">speed</text>
<text text-anchor="start" x="415" y="-226.5" font-family="Helvetica,sans-Serif" font-size="10.00">+</text>
<text text-anchor="start" x="428" y="-226.5" font-family="Helvetica,sans-Serif" font-size="10.00">isMoving</text>
<text text-anchor="start" x="415" y="-211.5" font-family="Helvetica,sans-Serif" font-size="10.00">+</text>
<text text-anchor="start" x="428" y="-211.5" font-family="Helvetica,sans-Serif" font-size="10.00">phase</text>
<text text-anchor="start" x="415" y="-196.5" font-family="Helvetica,sans-Serif" font-size="10.00">+</text>
<text text-anchor="start" x="428" y="-196.5" font-family="Helvetica,sans-Serif" font-size="10.00">phaseTimer</text>
<text text-anchor="start" x="415" y="-181.5" font-family="Helvetica,sans-Serif" font-size="10.00">+</text>
<text text-anchor="start" x="428" y="-181.5" font-family="Helvetica,sans-Serif" font-size="10.00">planningDuration</text>
<text text-anchor="start" x="415" y="-166.5" font-family="Helvetica,sans-Serif" font-size="10.00">+</text>
<text text-anchor="start" x="428" y="-166.5" font-family="Helvetica,sans-Serif" font-size="10.00">arrivingDuration</text>
<text text-anchor="start" x="415" y="-151.5" font-family="Helvetica,sans-Serif" font-size="10.00">+</text>
<text text-anchor="start" x="428" y="-151.5" font-family="Helvetica,sans-Serif" font-size="10.00">Movement()</text>
<text text-anchor="start" x="415" y="-136.5" font-family="Helvetica,sans-Serif" font-size="10.00">+</text>
<text text-anchor="start" x="428" y="-136.5" font-family="Helvetica,sans-Serif" font-size="10.00">setTarget()</text>
<text text-anchor="start" x="415" y="-121.5" font-family="Helvetica,sans-Serif" font-size="10.00">+</text>
<text text-anchor="start" x="428" y="-121.5" font-family="Helvetica,sans-Serif" font-size="10.00">startPlanning()</text>
<text text-anchor="start" x="415" y="-106.5" font-family="Helvetica,sans-Serif" font-size="10.00">+</text>
<text text-anchor="start" x="428" y="-106.5" font-family="Helvetica,sans-Serif" font-size="10.00">canAcceptNewTarget()</text>
<polygon fill="#666666" stroke="#666666" points="411,-281.5 411,-281.5 542,-281.5 542,-281.5 411,-281.5"/>
<polygon fill="#666666" stroke="#666666" points="411,-161.5 411,-161.5 426,-161.5 426,-161.5 411,-161.5"/>
<polygon fill="#666666" stroke="#666666" points="426,-161.5 426,-161.5 542,-161.5 542,-161.5 426,-161.5"/>
<polygon fill="none" stroke="#666666" points="410.5,-100 410.5,-299 541.5,-299 541.5,-100 410.5,-100"/>
</a>
</g>
</g>
<!-- Node1&#45;&gt;Node6 -->
<g id="edge5_Node000001_Node000006" class="edge">
<title>Node1&#45;&gt;Node6</title>
<g id="a_edge5_Node000001_Node000006"><a xlink:title=" ">
<path fill="none" stroke="#63b8ff" d="M418.23,-325.55C421.95,-317.49 426.12,-308.45 430.48,-299.02"/>
<polygon fill="none" stroke="#63b8ff" points="414.95,-324.3 413.93,-334.85 421.3,-327.24 414.95,-324.3"/>
</a>
</g>
</g>
<!-- Node7 -->
<g id="Node000007" class="node">
<title>Node7</title>
<g id="a_Node000007"><a xlink:href="classPositionComponent.html" target="_top" xlink:title=" ">
<polygon fill="white" stroke="transparent" points="692.5,-246.5 559.5,-246.5 559.5,-152.5 692.5,-152.5 692.5,-246.5"/>
<text text-anchor="start" x="578.5" y="-234.5" font-family="Helvetica,sans-Serif" font-size="10.00">PositionComponent</text>
<text text-anchor="start" x="564" y="-219.5" font-family="Helvetica,sans-Serif" font-size="10.00">+</text>
<text text-anchor="start" x="577" y="-219.5" font-family="Helvetica,sans-Serif" font-size="10.00">x</text>
<text text-anchor="start" x="564" y="-204.5" font-family="Helvetica,sans-Serif" font-size="10.00">+</text>
<text text-anchor="start" x="577" y="-204.5" font-family="Helvetica,sans-Serif" font-size="10.00">y</text>
<text text-anchor="start" x="564" y="-189.5" font-family="Helvetica,sans-Serif" font-size="10.00">+</text>
<text text-anchor="start" x="577" y="-189.5" font-family="Helvetica,sans-Serif" font-size="10.00">PositionComponent()</text>
<text text-anchor="start" x="564" y="-174.5" font-family="Helvetica,sans-Serif" font-size="10.00">+</text>
<text text-anchor="start" x="577" y="-174.5" font-family="Helvetica,sans-Serif" font-size="10.00">PositionComponent()</text>
<text text-anchor="start" x="564" y="-159.5" font-family="Helvetica,sans-Serif" font-size="10.00">+</text>
<text text-anchor="start" x="577" y="-159.5" font-family="Helvetica,sans-Serif" font-size="10.00">~PositionComponent()</text>
<polygon fill="#666666" stroke="#666666" points="560,-229.5 560,-229.5 693,-229.5 693,-229.5 560,-229.5"/>
<polygon fill="#666666" stroke="#666666" points="560,-199.5 560,-199.5 575,-199.5 575,-199.5 560,-199.5"/>
<polygon fill="#666666" stroke="#666666" points="575,-199.5 575,-199.5 693,-199.5 693,-199.5 575,-199.5"/>
<polygon fill="none" stroke="#666666" points="559.5,-152.5 559.5,-246.5 692.5,-246.5 692.5,-152.5 559.5,-152.5"/>
</a>
</g>
</g>
<!-- Node1&#45;&gt;Node7 -->
<g id="edge6_Node000001_Node000007" class="edge">
<title>Node1&#45;&gt;Node7</title>
<g id="a_edge6_Node000001_Node000007"><a xlink:title=" ">
<path fill="none" stroke="#63b8ff" d="M461.51,-342.73C490.06,-333.15 523.81,-318.87 550,-299 568.75,-284.77 585.32,-264.8 598.15,-246.56"/>
<polygon fill="none" stroke="#63b8ff" points="460.09,-339.52 451.65,-345.93 462.24,-346.18 460.09,-339.52"/>
</a>
</g>
</g>
<!-- Node8 -->
<g id="Node000008" class="node">
<title>Node8</title>
<g id="a_Node000008"><a xlink:href="classShapeRenderableComponent.html" target="_top" xlink:title=" ">
<polygon fill="white" stroke="transparent" points="881.5,-224 710.5,-224 710.5,-175 881.5,-175 881.5,-224"/>
<text text-anchor="start" x="725.5" y="-211.5" font-family="Helvetica,sans-Serif" font-size="10.00">ShapeRenderableComponent</text>
<text text-anchor="start" x="715" y="-196.5" font-family="Helvetica,sans-Serif" font-size="10.00">+</text>
<text text-anchor="start" x="728" y="-196.5" font-family="Helvetica,sans-Serif" font-size="10.00">color</text>
<text text-anchor="start" x="715" y="-181.5" font-family="Helvetica,sans-Serif" font-size="10.00">+</text>
<text text-anchor="start" x="728" y="-181.5" font-family="Helvetica,sans-Serif" font-size="10.00">ShapeRenderableComponent()</text>
<polygon fill="#666666" stroke="#666666" points="711,-206.5 711,-206.5 882,-206.5 882,-206.5 711,-206.5"/>
<polygon fill="#666666" stroke="#666666" points="711,-191.5 711,-191.5 726,-191.5 726,-191.5 711,-191.5"/>
<polygon fill="#666666" stroke="#666666" points="726,-191.5 726,-191.5 882,-191.5 882,-191.5 726,-191.5"/>
<polygon fill="none" stroke="#666666" points="710.5,-175 710.5,-224 881.5,-224 881.5,-175 710.5,-175"/>
</a>
</g>
</g>
<!-- Node1&#45;&gt;Node8 -->
<g id="edge7_Node000001_Node000008" class="edge">
<title>Node1&#45;&gt;Node8</title>
<g id="a_edge7_Node000001_Node000008"><a xlink:title=" ">
<path fill="none" stroke="#63b8ff" d="M461.8,-357.02C524.58,-353.19 625.25,-340.41 701,-299 734.15,-280.88 762.77,-247.27 779.69,-224.4"/>
<polygon fill="none" stroke="#63b8ff" points="461.47,-353.54 451.68,-357.58 461.85,-360.53 461.47,-353.54"/>
</a>
</g>
</g>
<!-- Node3 -->
<g id="Node000003" class="node">
<title>Node3</title>
<g id="a_Node000003"><a xlink:href="classPlayerController.html" target="_top" xlink:title="A controller that translates user keyboard input into entity movement.">
<polygon fill="white" stroke="transparent" points="108,-64 0,-64 0,0 108,0 108,-64"/>
<text text-anchor="start" x="14.5" y="-52" font-family="Helvetica,sans-Serif" font-size="10.00">PlayerController</text>
<text text-anchor="start" x="52" y="-37" font-family="Helvetica,sans-Serif" font-size="10.00"> </text>
<text text-anchor="start" x="4" y="-22" font-family="Helvetica,sans-Serif" font-size="10.00">+</text>
<text text-anchor="start" x="17" y="-22" font-family="Helvetica,sans-Serif" font-size="10.00">PlayerController()</text>
<text text-anchor="start" x="4" y="-7" font-family="Helvetica,sans-Serif" font-size="10.00">+</text>
<text text-anchor="start" x="17" y="-7" font-family="Helvetica,sans-Serif" font-size="10.00">handleEvent()</text>
<polygon fill="#666666" stroke="#666666" points="0,-47 0,-47 108,-47 108,-47 0,-47"/>
<polygon fill="#666666" stroke="#666666" points="0,-32 0,-32 108,-32 108,-32 0,-32"/>
<polygon fill="none" stroke="#666666" points="0,0 0,-64 108,-64 108,0 0,0"/>
</a>
</g>
</g>
<!-- Node2&#45;&gt;Node3 -->
<g id="edge2_Node000002_Node000003" class="edge">
<title>Node2&#45;&gt;Node3</title>
<g id="a_edge2_Node000002_Node000003"><a xlink:title=" ">
<path fill="none" stroke="#63b8ff" d="M54,-157.21C54,-128.41 54,-90.58 54,-64.27"/>
<polygon fill="none" stroke="#63b8ff" points="50.5,-157.37 54,-167.37 57.5,-157.37 50.5,-157.37"/>
</a>
</g>
</g>
<!-- Node9 -->
<g id="Node000009" class="node">
<title>Node9</title>
<g id="a_Node000009"><a xlink:href="classCircle.html" target="_top" xlink:title=" ">
<polygon fill="white" stroke="transparent" points="786.5,-64 725.5,-64 725.5,0 786.5,0 786.5,-64"/>
<text text-anchor="start" x="742.5" y="-52" font-family="Helvetica,sans-Serif" font-size="10.00">Circle</text>
<text text-anchor="start" x="730" y="-37" font-family="Helvetica,sans-Serif" font-size="10.00">+</text>
<text text-anchor="start" x="743" y="-37" font-family="Helvetica,sans-Serif" font-size="10.00">radius</text>
<text text-anchor="start" x="730" y="-22" font-family="Helvetica,sans-Serif" font-size="10.00">+</text>
<text text-anchor="start" x="743" y="-22" font-family="Helvetica,sans-Serif" font-size="10.00">Circle()</text>
<text text-anchor="start" x="730" y="-7" font-family="Helvetica,sans-Serif" font-size="10.00">+</text>
<text text-anchor="start" x="743" y="-7" font-family="Helvetica,sans-Serif" font-size="10.00">render()</text>
<polygon fill="#666666" stroke="#666666" points="726,-47 726,-47 787,-47 787,-47 726,-47"/>
<polygon fill="#666666" stroke="#666666" points="726,-32 726,-32 741,-32 741,-32 726,-32"/>
<polygon fill="#666666" stroke="#666666" points="741,-32 741,-32 787,-32 787,-32 741,-32"/>
<polygon fill="none" stroke="#666666" points="725.5,0 725.5,-64 786.5,-64 786.5,0 725.5,0"/>
</a>
</g>
</g>
<!-- Node8&#45;&gt;Node9 -->
<g id="edge8_Node000008_Node000009" class="edge">
<title>Node8&#45;&gt;Node9</title>
<g id="a_edge8_Node000008_Node000009"><a xlink:title=" ">
<path fill="none" stroke="#63b8ff" d="M787.89,-164.93C780.75,-135.4 770.44,-92.75 763.49,-64"/>
<polygon fill="none" stroke="#63b8ff" points="784.52,-165.89 790.27,-174.79 791.32,-164.25 784.52,-165.89"/>
</a>
</g>
</g>
<!-- Node10 -->
<g id="Node000010" class="node">
<title>Node10</title>
<g id="a_Node000010"><a xlink:href="classSquare.html" target="_top" xlink:title=" ">
<polygon fill="white" stroke="transparent" points="867.5,-64 804.5,-64 804.5,0 867.5,0 867.5,-64"/>
<text text-anchor="start" x="819.5" y="-52" font-family="Helvetica,sans-Serif" font-size="10.00">Square</text>
<text text-anchor="start" x="834.5" y="-37" font-family="Helvetica,sans-Serif" font-size="10.00"> </text>
<text text-anchor="start" x="809" y="-22" font-family="Helvetica,sans-Serif" font-size="10.00">+</text>
<text text-anchor="start" x="822" y="-22" font-family="Helvetica,sans-Serif" font-size="10.00">Square()</text>
<text text-anchor="start" x="809" y="-7" font-family="Helvetica,sans-Serif" font-size="10.00">+</text>
<text text-anchor="start" x="822" y="-7" font-family="Helvetica,sans-Serif" font-size="10.00">render()</text>
<polygon fill="#666666" stroke="#666666" points="805,-47 805,-47 868,-47 868,-47 805,-47"/>
<polygon fill="#666666" stroke="#666666" points="805,-32 805,-32 868,-32 868,-32 805,-32"/>
<polygon fill="none" stroke="#666666" points="804.5,0 804.5,-64 867.5,-64 867.5,0 804.5,0"/>
</a>
</g>
</g>
<!-- Node8&#45;&gt;Node10 -->
<g id="edge9_Node000008_Node000010" class="edge">
<title>Node8&#45;&gt;Node10</title>
<g id="a_edge9_Node000008_Node000010"><a xlink:title=" ">
<path fill="none" stroke="#63b8ff" d="M804.11,-164.93C811.25,-135.4 821.56,-92.75 828.51,-64"/>
<polygon fill="none" stroke="#63b8ff" points="800.68,-164.25 801.73,-174.79 807.48,-165.89 800.68,-164.25"/>
</a>
</g>
</g>
</g>
</svg>
