<?xml version="1.0" encoding="UTF-8" standalone="no"?>
<!DOCTYPE svg PUBLIC "-//W3C//DTD SVG 1.1//EN"
 "http://www.w3.org/Graphics/SVG/1.1/DTD/svg11.dtd">
<!-- Generated by graphviz version 2.43.0 (0)
 -->
<!-- Title: PositionManager::get Pages: 1 -->
<!--zoomable 336 -->

<svg id="main" version="1.1" xmlns="http://www.w3.org/2000/svg" xmlns:xlink="http://www.w3.org/1999/xlink" xml:space="preserve" onload="init(evt)">
<style type="text/css"><![CDATA[
.node, .edge {opacity: 0.7;}
.node.selected, .edge.selected {opacity: 1;}
.edge:hover path { stroke: red; }
.edge:hover polygon { stroke: red; fill: red; }
]]></style>

<defs>
  <circle id="rim" cx="0" cy="0" r="7"/>
  <circle id="rim2" cx="0" cy="0" r="3.5"/>
  <g id="zoomPlus">
    <use xlink:href="#rim" fill="#404040"><set attributeName="fill" to="#808080" begin="zoomplus.mouseover" end="zoomplus.mouseout"/></use>
    <path d="M-4,0h8M0,-4v8" fill="none" stroke="white" stroke-width="1.5" pointer-events="none"/>
  </g>
  <g id="zoomMin">
    <use xlink:href="#rim" fill="#404040"><set attributeName="fill" to="#808080" begin="zoomminus.mouseover" end="zoomminus.mouseout"/></use>
    <path d="M-4,0h8" fill="none" stroke="white" stroke-width="1.5" pointer-events="none"/>
  </g>
  <g id="arrowUp" transform="translate(30 24)">
    <use xlink:href="#rim"/>
    <path pointer-events="none" fill="none" stroke="white" stroke-width="1.5" d="M0,-3.0v7 M-2.5,-0.5L0,-3.0L2.5,-0.5"/>
  </g>
  <g id="arrowRight" transform="rotate(90) translate(36 -43)">
    <use xlink:href="#rim"/>
    <path pointer-events="none" fill="none" stroke="white" stroke-width="1.5" d="M0,-3.0v7 M-2.5,-0.5L0,-3.0L2.5,-0.5"/>
  </g>
  <g id="arrowDown" transform="rotate(180) translate(-30 -48)">
    <use xlink:href="#rim"/>
    <path pointer-events="none" fill="none" stroke="white" stroke-width="1.5" d="M0,-3.0v7 M-2.5,-0.5L0,-3.0L2.5,-0.5"/>
  </g>
  <g id="arrowLeft" transform="rotate(270) translate(-36 17)">
    <use xlink:href="#rim"/>
    <path pointer-events="none" fill="none" stroke="white" stroke-width="1.5" d="M0,-3.0v7 M-2.5,-0.5L0,-3.0L2.5,-0.5"/>
  </g>
  <g id="resetDef">
    <use xlink:href="#rim2" fill="#404040"><set attributeName="fill" to="#808080" begin="reset.mouseover" end="reset.mouseout"/></use>
  </g>
</defs>
<script type="application/ecmascript">
var viewWidth = 695;
var viewHeight = 336;
var sectionId = 'dynsection-3';
</script>
<script type="application/ecmascript" xlink:href="svg.min.js"/>
<svg id="graph" class="graph">
<g id="viewport">
<title>PositionManager::get</title>
<!-- Node1 -->
<g id="Node000001" class="node">
<title>Node1</title>
<g id="a_Node000001"><a xlink:title=" ">
<polygon fill="#999999" stroke="#666666" points="687,-180.5 567,-180.5 567,-161.5 687,-161.5 687,-180.5"/>
<text text-anchor="middle" x="627" y="-168.5" font-family="Helvetica,sans-Serif" font-size="10.00">PositionManager::get</text>
</a>
</g>
</g>
<!-- Node2 -->
<g id="Node000002" class="node">
<title>Node2</title>
<g id="a_Node000002"><a xlink:href="classAISystem.html#ab7874e368d3dc14dc7838a8721e583e7" target="_top" xlink:title=" ">
<polygon fill="white" stroke="#666666" points="519.5,-294.5 338.5,-294.5 338.5,-275.5 519.5,-275.5 519.5,-294.5"/>
<text text-anchor="middle" x="429" y="-282.5" font-family="Helvetica,sans-Serif" font-size="10.00">AISystem::executeMovementPlan</text>
</a>
</g>
</g>
<!-- Node1&#45;&gt;Node2 -->
<g id="edge1_Node000001_Node000002" class="edge">
<title>Node1&#45;&gt;Node2</title>
<g id="a_edge1_Node000001_Node000002"><a xlink:title=" ">
<path fill="none" stroke="#63b8ff" d="M612.47,-188.52C595.63,-209.06 564.92,-242.65 531,-261 519.27,-267.35 505.88,-272.03 492.77,-275.48"/>
<polygon fill="#63b8ff" stroke="#63b8ff" points="615.29,-190.59 618.8,-180.59 609.83,-186.21 615.29,-190.59"/>
</a>
</g>
</g>
<!-- Node3 -->
<g id="Node000003" class="node">
<title>Node3</title>
<g id="a_Node000003"><a xlink:href="classAISystem.html#a1d7894d2fba2b0f09b8929bbfd58ec4e" target="_top" xlink:title=" ">
<polygon fill="white" stroke="#666666" points="287.5,-299 142.5,-299 142.5,-269 287.5,-269 287.5,-299"/>
<text text-anchor="start" x="150.5" y="-287" font-family="Helvetica,sans-Serif" font-size="10.00">AISystem::processArriving</text>
<text text-anchor="middle" x="215" y="-276" font-family="Helvetica,sans-Serif" font-size="10.00">Entities</text>
</a>
</g>
</g>
<!-- Node1&#45;&gt;Node3 -->
<g id="edge14_Node000001_Node000003" class="edge">
<title>Node1&#45;&gt;Node3</title>
<g id="a_edge14_Node000001_Node000003"><a xlink:title=" ">
<path fill="none" stroke="#63b8ff" d="M618.94,-190.39C606.56,-221.11 577.72,-279.96 531,-304 441.71,-349.95 318.85,-319.87 256.23,-299.06"/>
<polygon fill="#63b8ff" stroke="#63b8ff" points="622.3,-191.39 622.63,-180.8 615.77,-188.87 622.3,-191.39"/>
</a>
</g>
</g>
<!-- Node6 -->
<g id="Node000006" class="node">
<title>Node6</title>
<g id="a_Node000006"><a xlink:href="classAISystem.html#a6b84082c16eb0af5606049260db2d99f" target="_top" xlink:title=" ">
<polygon fill="white" stroke="#666666" points="289.5,-251 140.5,-251 140.5,-221 289.5,-221 289.5,-251"/>
<text text-anchor="start" x="148.5" y="-239" font-family="Helvetica,sans-Serif" font-size="10.00">AISystem::processPlanning</text>
<text text-anchor="middle" x="215" y="-228" font-family="Helvetica,sans-Serif" font-size="10.00">Entities</text>
</a>
</g>
</g>
<!-- Node1&#45;&gt;Node6 -->
<g id="edge15_Node000001_Node000006" class="edge">
<title>Node1&#45;&gt;Node6</title>
<g id="a_edge15_Node000001_Node000006"><a xlink:title=" ">
<path fill="none" stroke="#63b8ff" d="M606.56,-186.81C588.3,-200.61 559.57,-219.69 531,-228 450.89,-251.29 354.44,-249.67 289.55,-244.55"/>
<polygon fill="#63b8ff" stroke="#63b8ff" points="608.9,-189.43 614.64,-180.53 604.6,-183.91 608.9,-189.43"/>
</a>
</g>
</g>
<!-- Node7 -->
<g id="Node000007" class="node">
<title>Node7</title>
<g id="a_Node000007"><a xlink:href="classPlayerController.html#a2d86ce597777dc1026b2ba232110bee2" target="_top" xlink:title="Handles SDL keyboard events to move the player entity.">
<polygon fill="white" stroke="#666666" points="496,-30 362,-30 362,0 496,0 496,-30"/>
<text text-anchor="start" x="370" y="-18" font-family="Helvetica,sans-Serif" font-size="10.00">PlayerController::handle</text>
<text text-anchor="middle" x="429" y="-7" font-family="Helvetica,sans-Serif" font-size="10.00">Event</text>
</a>
</g>
</g>
<!-- Node1&#45;&gt;Node7 -->
<g id="edge8_Node000001_Node000007" class="edge">
<title>Node1&#45;&gt;Node7</title>
<g id="a_edge8_Node000001_Node000007"><a xlink:title=" ">
<path fill="none" stroke="#63b8ff" d="M617.61,-151.73C603.89,-122.6 573.83,-67.69 531,-39 520.59,-32.03 508.39,-27.08 496.14,-23.56"/>
<polygon fill="#63b8ff" stroke="#63b8ff" points="614.59,-153.55 621.92,-161.21 620.96,-150.65 614.59,-153.55"/>
</a>
</g>
</g>
<!-- Node8 -->
<g id="Node000008" class="node">
<title>Node8</title>
<g id="a_Node000008"><a xlink:href="classAISystem.html#a3e9a6b233a440655d47ce5041941d698" target="_top" xlink:title=" ">
<polygon fill="white" stroke="#666666" points="501,-218.5 357,-218.5 357,-199.5 501,-199.5 501,-218.5"/>
<text text-anchor="middle" x="429" y="-206.5" font-family="Helvetica,sans-Serif" font-size="10.00">AISystem::planNextAction</text>
</a>
</g>
</g>
<!-- Node1&#45;&gt;Node8 -->
<g id="edge9_Node000001_Node000008" class="edge">
<title>Node1&#45;&gt;Node8</title>
<g id="a_edge9_Node000001_Node000008"><a xlink:title=" ">
<path fill="none" stroke="#63b8ff" d="M566.74,-182.49C538.77,-187.91 505.79,-194.31 479.23,-199.46"/>
<polygon fill="#63b8ff" stroke="#63b8ff" points="567.64,-185.88 576.79,-180.54 566.31,-179.01 567.64,-185.88"/>
</a>
</g>
</g>
<!-- Node9 -->
<g id="Node000009" class="node">
<title>Node9</title>
<g id="a_Node000009"><a xlink:href="classAISystem.html#a260e9a02dff6d097b45fa7c6e3ae733f" target="_top" xlink:title=" ">
<polygon fill="white" stroke="#666666" points="271.5,-202.5 158.5,-202.5 158.5,-183.5 271.5,-183.5 271.5,-202.5"/>
<text text-anchor="middle" x="215" y="-190.5" font-family="Helvetica,sans-Serif" font-size="10.00">AISystem::updateAI</text>
</a>
</g>
</g>
<!-- Node1&#45;&gt;Node9 -->
<g id="edge20_Node000001_Node000009" class="edge">
<title>Node1&#45;&gt;Node9</title>
<g id="a_edge20_Node000001_Node000009"><a xlink:title=" ">
<path fill="none" stroke="#63b8ff" d="M556.8,-174.71C476.46,-179.02 345.55,-186.05 271.55,-190.02"/>
<polygon fill="#63b8ff" stroke="#63b8ff" points="557.02,-178.21 566.82,-174.18 556.65,-171.22 557.02,-178.21"/>
</a>
</g>
</g>
<!-- Node10 -->
<g id="Node000010" class="node">
<title>Node10</title>
<g id="a_Node000010"><a xlink:href="classRenderableManager.html#a51ff4dd67a46c74814943baa8dfed174" target="_top" xlink:title=" ">
<polygon fill="white" stroke="#666666" points="275.5,-164 154.5,-164 154.5,-134 275.5,-134 275.5,-164"/>
<text text-anchor="start" x="162.5" y="-152" font-family="Helvetica,sans-Serif" font-size="10.00">RenderableManager::</text>
<text text-anchor="middle" x="215" y="-141" font-family="Helvetica,sans-Serif" font-size="10.00">renderAll</text>
</a>
</g>
</g>
<!-- Node1&#45;&gt;Node10 -->
<g id="edge16_Node000001_Node000010" class="edge">
<title>Node1&#45;&gt;Node10</title>
<g id="a_edge16_Node000001_Node000010"><a xlink:title=" ">
<path fill="none" stroke="#63b8ff" d="M559.02,-160.1C549.63,-158.87 540.09,-157.78 531,-157 442.3,-149.37 339.06,-148.2 275.63,-148.37"/>
<polygon fill="#63b8ff" stroke="#63b8ff" points="558.73,-163.59 569.11,-161.47 559.68,-156.65 558.73,-163.59"/>
</a>
</g>
</g>
<!-- Node11 -->
<g id="Node000011" class="node">
<title>Node11</title>
<g id="a_Node000011"><a xlink:href="classInfoBoxManager.html#ae080bf314206dd8ce1b313eda7bfcd67" target="_top" xlink:title=" ">
<polygon fill="white" stroke="#666666" points="502.5,-104.5 355.5,-104.5 355.5,-85.5 502.5,-85.5 502.5,-104.5"/>
<text text-anchor="middle" x="429" y="-92.5" font-family="Helvetica,sans-Serif" font-size="10.00">InfoBoxManager::renderAll</text>
</a>
</g>
</g>
<!-- Node1&#45;&gt;Node11 -->
<g id="edge18_Node000001_Node000011" class="edge">
<title>Node1&#45;&gt;Node11</title>
<g id="a_edge18_Node000001_Node000011"><a xlink:title=" ">
<path fill="none" stroke="#63b8ff" d="M602.76,-155.97C584.03,-144.44 556.67,-128.87 531,-119 515.44,-113.02 497.94,-108.22 481.93,-104.54"/>
<polygon fill="#63b8ff" stroke="#63b8ff" points="601.13,-159.08 611.46,-161.42 604.84,-153.15 601.13,-159.08"/>
</a>
</g>
</g>
<!-- Node12 -->
<g id="Node000012" class="node">
<title>Node12</title>
<g id="a_Node000012"><a xlink:href="classMovementManager.html#adb24d456292714c1171a96936b8d0097" target="_top" xlink:title=" ">
<polygon fill="white" stroke="#666666" points="531,-67.5 327,-67.5 327,-48.5 531,-48.5 531,-67.5"/>
<text text-anchor="middle" x="429" y="-55.5" font-family="Helvetica,sans-Serif" font-size="10.00">MovementManager::updateMovement</text>
</a>
</g>
</g>
<!-- Node1&#45;&gt;Node12 -->
<g id="edge21_Node000001_Node000012" class="edge">
<title>Node1&#45;&gt;Node12</title>
<g id="a_edge21_Node000001_Node000012"><a xlink:title=" ">
<path fill="none" stroke="#63b8ff" d="M613.3,-153.08C596.9,-131.39 566.24,-95.48 531,-77 523.57,-73.11 515.47,-70 507.19,-67.53"/>
<polygon fill="#63b8ff" stroke="#63b8ff" points="610.68,-155.43 619.43,-161.41 616.32,-151.28 610.68,-155.43"/>
</a>
</g>
</g>
<!-- Node2&#45;&gt;Node3 -->
<g id="edge2_Node000002_Node000003" class="edge">
<title>Node2&#45;&gt;Node3</title>
<g id="a_edge2_Node000002_Node000003"><a xlink:title=" ">
<path fill="none" stroke="#63b8ff" d="M328.01,-284.53C314.38,-284.46 300.61,-284.4 287.62,-284.34"/>
<polygon fill="#63b8ff" stroke="#63b8ff" points="328.38,-288.03 338.4,-284.58 328.42,-281.03 328.38,-288.03"/>
</a>
</g>
</g>
<!-- Node2&#45;&gt;Node6 -->
<g id="edge5_Node000002_Node000006" class="edge">
<title>Node2&#45;&gt;Node6</title>
<g id="a_edge5_Node000002_Node000006"><a xlink:title=" ">
<path fill="none" stroke="#63b8ff" d="M377.03,-273.22C348.27,-266.57 312.02,-258.19 281.21,-251.07"/>
<polygon fill="#63b8ff" stroke="#63b8ff" points="376.34,-276.65 386.87,-275.49 377.92,-269.83 376.34,-276.65"/>
</a>
</g>
</g>
<!-- Node4 -->
<g id="Node000004" class="node">
<title>Node4</title>
<g id="a_Node000004"><a xlink:href="main_8cpp.html#a0ddf1224851353fc92bfbff6f499fa97" target="_top" xlink:title=" ">
<polygon fill="white" stroke="#666666" points="72,-180.5 31,-180.5 31,-161.5 72,-161.5 72,-180.5"/>
<text text-anchor="middle" x="51.5" y="-168.5" font-family="Helvetica,sans-Serif" font-size="10.00">main</text>
</a>
</g>
</g>
<!-- Node3&#45;&gt;Node4 -->
<g id="edge3_Node000003_Node000004" class="edge">
<title>Node3&#45;&gt;Node4</title>
<g id="a_edge3_Node000003_Node000004"><a xlink:title=" ">
<path fill="none" stroke="#63b8ff" d="M146.51,-264.49C143.92,-263.09 141.4,-261.59 139,-260 118.52,-246.4 120.03,-235.74 103,-218 90.06,-204.52 74.14,-190.02 63.67,-180.74"/>
<polygon fill="#63b8ff" stroke="#63b8ff" points="145.06,-267.68 155.58,-268.9 148.12,-261.38 145.06,-267.68"/>
</a>
</g>
</g>
<!-- Node5 -->
<g id="Node000005" class="node">
<title>Node5</title>
<g id="a_Node000005"><a xlink:href="classAISystem.html#a4c1e02a04a3053c073e58ad44f4d0293" target="_top" xlink:title=" ">
<polygon fill="white" stroke="#666666" points="103,-245.5 0,-245.5 0,-226.5 103,-226.5 103,-245.5"/>
<text text-anchor="middle" x="51.5" y="-233.5" font-family="Helvetica,sans-Serif" font-size="10.00">AISystem::update</text>
</a>
</g>
</g>
<!-- Node3&#45;&gt;Node5 -->
<g id="edge4_Node000003_Node000005" class="edge">
<title>Node3&#45;&gt;Node5</title>
<g id="a_edge4_Node000003_Node000005"><a xlink:title=" ">
<path fill="none" stroke="#63b8ff" d="M153.5,-266.02C130.13,-259.07 104.35,-251.41 84.68,-245.56"/>
<polygon fill="#63b8ff" stroke="#63b8ff" points="152.76,-269.45 163.34,-268.94 154.76,-262.74 152.76,-269.45"/>
</a>
</g>
</g>
<!-- Node6&#45;&gt;Node4 -->
<g id="edge6_Node000006_Node000004" class="edge">
<title>Node6&#45;&gt;Node4</title>
<g id="a_edge6_Node000006_Node000004"><a xlink:title=" ">
<path fill="none" stroke="#63b8ff" d="M153.89,-217.55C148.82,-215.76 143.8,-213.9 139,-212 114.89,-202.48 88.04,-189.33 70.75,-180.52"/>
<polygon fill="#63b8ff" stroke="#63b8ff" points="153.05,-220.96 163.65,-220.91 155.33,-214.34 153.05,-220.96"/>
</a>
</g>
</g>
<!-- Node6&#45;&gt;Node5 -->
<g id="edge7_Node000006_Node000005" class="edge">
<title>Node6&#45;&gt;Node5</title>
<g id="a_edge7_Node000006_Node000005"><a xlink:title=" ">
<path fill="none" stroke="#63b8ff" d="M130.08,-236C120.98,-236 111.95,-236 103.42,-236"/>
<polygon fill="#63b8ff" stroke="#63b8ff" points="130.34,-239.5 140.34,-236 130.34,-232.5 130.34,-239.5"/>
</a>
</g>
</g>
<!-- Node8&#45;&gt;Node6 -->
<g id="edge10_Node000008_Node000006" class="edge">
<title>Node8&#45;&gt;Node6</title>
<g id="a_edge10_Node000008_Node000006"><a xlink:title=" ">
<path fill="none" stroke="#63b8ff" d="M346.78,-219.34C327.95,-221.74 308.01,-224.28 289.53,-226.64"/>
<polygon fill="#63b8ff" stroke="#63b8ff" points="347.34,-222.8 356.82,-218.07 346.46,-215.86 347.34,-222.8"/>
</a>
</g>
</g>
<!-- Node8&#45;&gt;Node9 -->
<g id="edge11_Node000008_Node000009" class="edge">
<title>Node8&#45;&gt;Node9</title>
<g id="a_edge11_Node000008_Node000009"><a xlink:title=" ">
<path fill="none" stroke="#63b8ff" d="M346.58,-202.86C321.51,-200.96 294.5,-198.92 271.58,-197.19"/>
<polygon fill="#63b8ff" stroke="#63b8ff" points="346.58,-206.37 356.82,-203.63 347.11,-199.38 346.58,-206.37"/>
</a>
</g>
</g>
<!-- Node9&#45;&gt;Node4 -->
<g id="edge12_Node000009_Node000004" class="edge">
<title>Node9&#45;&gt;Node4</title>
<g id="a_edge12_Node000009_Node000004"><a xlink:title=" ">
<path fill="none" stroke="#63b8ff" d="M148.44,-184.07C120.99,-180.33 91.11,-176.26 72.11,-173.67"/>
<polygon fill="#63b8ff" stroke="#63b8ff" points="148.04,-187.55 158.42,-185.43 148.98,-180.61 148.04,-187.55"/>
</a>
</g>
</g>
<!-- Node9&#45;&gt;Node5 -->
<g id="edge13_Node000009_Node000005" class="edge">
<title>Node9&#45;&gt;Node5</title>
<g id="a_edge13_Node000009_Node000005"><a xlink:title=" ">
<path fill="none" stroke="#63b8ff" d="M165.59,-205.09C156.74,-207.35 147.58,-209.72 139,-212 121.53,-216.64 102.13,-222 86.14,-226.48"/>
<polygon fill="#63b8ff" stroke="#63b8ff" points="166.59,-208.45 175.42,-202.6 164.86,-201.67 166.59,-208.45"/>
</a>
</g>
</g>
<!-- Node10&#45;&gt;Node4 -->
<g id="edge17_Node000010_Node000004" class="edge">
<title>Node10&#45;&gt;Node4</title>
<g id="a_edge17_Node000010_Node000004"><a xlink:title=" ">
<path fill="none" stroke="#63b8ff" d="M144.36,-158.49C118.11,-162.06 90.27,-165.86 72.21,-168.32"/>
<polygon fill="#63b8ff" stroke="#63b8ff" points="144.89,-161.95 154.32,-157.13 143.94,-155.01 144.89,-161.95"/>
</a>
</g>
</g>
<!-- Node11&#45;&gt;Node4 -->
<g id="edge19_Node000011_Node000004" class="edge">
<title>Node11&#45;&gt;Node4</title>
<g id="a_edge19_Node000011_Node000004"><a xlink:title=" ">
<path fill="none" stroke="#63b8ff" d="M344.89,-95.22C286.21,-97.39 206.36,-104.45 139,-125 111.67,-133.34 82.96,-150.54 66.45,-161.39"/>
<polygon fill="#63b8ff" stroke="#63b8ff" points="345.34,-98.71 355.22,-94.88 345.11,-91.71 345.34,-98.71"/>
</a>
</g>
</g>
<!-- Node13 -->
<g id="Node000013" class="node">
<title>Node13</title>
<g id="a_Node000013"><a xlink:href="classMovementManager.html#ad7969a6d52a8eeecc5be9c3385be4fa4" target="_top" xlink:title=" ">
<polygon fill="white" stroke="#666666" points="291,-73.5 139,-73.5 139,-54.5 291,-54.5 291,-73.5"/>
<text text-anchor="middle" x="215" y="-61.5" font-family="Helvetica,sans-Serif" font-size="10.00">MovementManager::update</text>
</a>
</g>
</g>
<!-- Node12&#45;&gt;Node13 -->
<g id="edge22_Node000012_Node000013" class="edge">
<title>Node12&#45;&gt;Node13</title>
<g id="a_edge22_Node000012_Node000013"><a xlink:title=" ">
<path fill="none" stroke="#63b8ff" d="M316.79,-61.15C308.13,-61.39 299.52,-61.64 291.18,-61.87"/>
<polygon fill="#63b8ff" stroke="#63b8ff" points="317.07,-64.64 326.97,-60.86 316.87,-57.64 317.07,-64.64"/>
</a>
</g>
</g>
<!-- Node13&#45;&gt;Node4 -->
<g id="edge23_Node000013_Node000004" class="edge">
<title>Node13&#45;&gt;Node4</title>
<g id="a_edge23_Node000013_Node000004"><a xlink:title=" ">
<path fill="none" stroke="#63b8ff" d="M168.75,-76.98C158.6,-80.78 148.14,-85.45 139,-91 106.13,-110.97 74.89,-144.75 60.61,-161.29"/>
<polygon fill="#63b8ff" stroke="#63b8ff" points="170.06,-80.23 178.33,-73.6 167.73,-73.63 170.06,-80.23"/>
</a>
</g>
</g>
</g>
</svg>

<g id="navigator" transform="translate(0 0)" fill="#404254">
  <rect fill="#f2f5e9" fill-opacity="0.5" stroke="#606060" stroke-width=".5" x="0" y="0" width="60" height="60"/>
  <use id="zoomplus" xlink:href="#zoomPlus" x="17" y="9" onmousedown="handleZoom(evt,'in')"/>
  <use id="zoomminus" xlink:href="#zoomMin" x="42" y="9" onmousedown="handleZoom(evt,'out')"/>
  <use id="reset" xlink:href="#resetDef" x="30" y="36" onmousedown="handleReset()"/>
   <use id="arrowup" xlink:href="#arrowUp" x="0" y="0" onmousedown="handlePan(0,-1)"/>
  <use id="arrowright" xlink:href="#arrowRight" x="0" y="0" onmousedown="handlePan(1,0)"/>
  <use id="arrowdown" xlink:href="#arrowDown" x="0" y="0" onmousedown="handlePan(0,1)"/>
  <use id="arrowleft" xlink:href="#arrowLeft" x="0" y="0" onmousedown="handlePan(-1,0)"/>
</g>
<svg viewBox="0 0 15 15" width="100%" height="30px" preserveAspectRatio="xMaxYMin meet">
 <g id="arrow_out" transform="scale(0.3 0.3)">
  <a xlink:href="classPositionManager_ac2ce0980eefb0e2afd6e6fe08fb8c28d_icgraph_org.svg" target="_base">
   <rect id="button" ry="5" rx="5" y="6" x="6" height="38" width="38"
        fill="#f2f5e9" fill-opacity="0.5" stroke="#606060" stroke-width="1.0"/>
   <path id="arrow"
     d="M 11.500037,31.436501 C 11.940474,20.09759 22.043105,11.32322 32.158766,21.979434 L 37.068811,17.246167 C 37.068811,17.246167 37.088388,32 37.088388,32 L 22.160133,31.978069 C 22.160133,31.978069 26.997745,27.140456 26.997745,27.140456 C 18.528582,18.264221 13.291696,25.230495 11.500037,31.436501 z"
     style="fill:#404040;"/>
  </a>
 </g>
</svg>

<style type='text/css'>
<![CDATA[
[data-mouse-over-selected='false'] { opacity: 0.7; }
[data-mouse-over-selected='true']  { opacity: 1.0; }
]]>
</style>
<script type="application/ecmascript"><![CDATA[
document.addEventListener('DOMContentLoaded', (event) => {
  highlightEdges();
  highlightAdjacentNodes();
});
]]></script>
</svg>
