<?xml version="1.0" encoding="UTF-8" standalone="no"?>
<!DOCTYPE svg PUBLIC "-//W3C//DTD SVG 1.1//EN"
 "http://www.w3.org/Graphics/SVG/1.1/DTD/svg11.dtd">
<!-- Generated by graphviz version 2.43.0 (0)
 -->
<!-- Title: Grid::getWidth Pages: 1 -->
<!--zoomable 253 -->

<svg id="main" version="1.1" xmlns="http://www.w3.org/2000/svg" xmlns:xlink="http://www.w3.org/1999/xlink" xml:space="preserve" onload="init(evt)">
<style type="text/css"><![CDATA[
.node, .edge {opacity: 0.7;}
.node.selected, .edge.selected {opacity: 1;}
.edge:hover path { stroke: red; }
.edge:hover polygon { stroke: red; fill: red; }
]]></style>

<defs>
  <circle id="rim" cx="0" cy="0" r="7"/>
  <circle id="rim2" cx="0" cy="0" r="3.5"/>
  <g id="zoomPlus">
    <use xlink:href="#rim" fill="#404040"><set attributeName="fill" to="#808080" begin="zoomplus.mouseover" end="zoomplus.mouseout"/></use>
    <path d="M-4,0h8M0,-4v8" fill="none" stroke="white" stroke-width="1.5" pointer-events="none"/>
  </g>
  <g id="zoomMin">
    <use xlink:href="#rim" fill="#404040"><set attributeName="fill" to="#808080" begin="zoomminus.mouseover" end="zoomminus.mouseout"/></use>
    <path d="M-4,0h8" fill="none" stroke="white" stroke-width="1.5" pointer-events="none"/>
  </g>
  <g id="arrowUp" transform="translate(30 24)">
    <use xlink:href="#rim"/>
    <path pointer-events="none" fill="none" stroke="white" stroke-width="1.5" d="M0,-3.0v7 M-2.5,-0.5L0,-3.0L2.5,-0.5"/>
  </g>
  <g id="arrowRight" transform="rotate(90) translate(36 -43)">
    <use xlink:href="#rim"/>
    <path pointer-events="none" fill="none" stroke="white" stroke-width="1.5" d="M0,-3.0v7 M-2.5,-0.5L0,-3.0L2.5,-0.5"/>
  </g>
  <g id="arrowDown" transform="rotate(180) translate(-30 -48)">
    <use xlink:href="#rim"/>
    <path pointer-events="none" fill="none" stroke="white" stroke-width="1.5" d="M0,-3.0v7 M-2.5,-0.5L0,-3.0L2.5,-0.5"/>
  </g>
  <g id="arrowLeft" transform="rotate(270) translate(-36 17)">
    <use xlink:href="#rim"/>
    <path pointer-events="none" fill="none" stroke="white" stroke-width="1.5" d="M0,-3.0v7 M-2.5,-0.5L0,-3.0L2.5,-0.5"/>
  </g>
  <g id="resetDef">
    <use xlink:href="#rim2" fill="#404040"><set attributeName="fill" to="#808080" begin="reset.mouseover" end="reset.mouseout"/></use>
  </g>
</defs>
<script type="application/ecmascript">
var viewWidth = 1180;
var viewHeight = 253;
var sectionId = 'dynsection-7';
</script>
<script type="application/ecmascript" xlink:href="svg.min.js"/>
<svg id="graph" class="graph">
<g id="viewport">
<title>Grid::getWidth</title>
<!-- Node1 -->
<g id="Node000001" class="node">
<title>Node1</title>
<g id="a_Node000001"><a xlink:title=" ">
<polygon fill="#999999" stroke="#666666" points="1172,-131.5 1085,-131.5 1085,-112.5 1172,-112.5 1172,-131.5"/>
<text text-anchor="middle" x="1128.5" y="-119.5" font-family="Helvetica,sans-Serif" font-size="10.00">Grid::getWidth</text>
</a>
</g>
</g>
<!-- Node2 -->
<g id="Node000002" class="node">
<title>Node2</title>
<g id="a_Node000002"><a xlink:href="classPathfinder.html#aaa2739f2fbe69181ecc99c26c3e2c522" target="_top" xlink:title="Finds the shortest path from a start point to an end point using A*.">
<polygon fill="white" stroke="#666666" points="849.5,-210.5 739.5,-210.5 739.5,-191.5 849.5,-191.5 849.5,-210.5"/>
<text text-anchor="middle" x="794.5" y="-198.5" font-family="Helvetica,sans-Serif" font-size="10.00">Pathfinder::findPath</text>
</a>
</g>
</g>
<!-- Node1&#45;&gt;Node2 -->
<g id="edge1_Node000001_Node000002" class="edge">
<title>Node1&#45;&gt;Node2</title>
<g id="a_edge1_Node000001_Node000002"><a xlink:title=" ">
<path fill="none" stroke="#63b8ff" d="M1115.96,-140.2C1102.55,-159.47 1078.45,-188.74 1049,-201 979.52,-229.91 889.75,-220.2 837.8,-210.56"/>
<polygon fill="#63b8ff" stroke="#63b8ff" points="1119.02,-141.93 1121.66,-131.67 1113.2,-138.04 1119.02,-141.93"/>
</a>
</g>
</g>
<!-- Node9 -->
<g id="Node000009" class="node">
<title>Node9</title>
<g id="a_Node000009"><a xlink:href="classPlayerController.html#a2d86ce597777dc1026b2ba232110bee2" target="_top" xlink:title="Handles SDL keyboard events to move the player entity.">
<polygon fill="white" stroke="#666666" points="1042.5,-30 908.5,-30 908.5,0 1042.5,0 1042.5,-30"/>
<text text-anchor="start" x="916.5" y="-18" font-family="Helvetica,sans-Serif" font-size="10.00">PlayerController::handle</text>
<text text-anchor="middle" x="975.5" y="-7" font-family="Helvetica,sans-Serif" font-size="10.00">Event</text>
</a>
</g>
</g>
<!-- Node1&#45;&gt;Node9 -->
<g id="edge10_Node000001_Node000009" class="edge">
<title>Node1&#45;&gt;Node9</title>
<g id="a_edge10_Node000001_Node000009"><a xlink:title=" ">
<path fill="none" stroke="#63b8ff" d="M1114.82,-104.06C1100.73,-85.35 1076.33,-56.38 1049,-39 1043.63,-35.58 1037.72,-32.61 1031.67,-30.02"/>
<polygon fill="#63b8ff" stroke="#63b8ff" points="1112.14,-106.33 1120.88,-112.33 1117.79,-102.19 1112.14,-106.33"/>
</a>
</g>
</g>
<!-- Node10 -->
<g id="Node000010" class="node">
<title>Node10</title>
<g id="a_Node000010"><a xlink:href="classGrid.html#af3d66f362b026dda4300c110ad54fb45" target="_top" xlink:title=" ">
<polygon fill="white" stroke="#666666" points="469,-150.5 360,-150.5 360,-131.5 469,-131.5 469,-150.5"/>
<text text-anchor="middle" x="414.5" y="-138.5" font-family="Helvetica,sans-Serif" font-size="10.00">Grid::loadFromJson</text>
</a>
</g>
</g>
<!-- Node1&#45;&gt;Node10 -->
<g id="edge11_Node000001_Node000010" class="edge">
<title>Node1&#45;&gt;Node10</title>
<g id="a_edge11_Node000001_Node000010"><a xlink:title=" ">
<path fill="none" stroke="#63b8ff" d="M1074.48,-124.12C1065.96,-124.43 1057.24,-124.74 1049,-125 834.3,-131.81 578.59,-137.54 469.32,-139.88"/>
<polygon fill="#63b8ff" stroke="#63b8ff" points="1074.86,-127.61 1084.73,-123.74 1074.6,-120.61 1074.86,-127.61"/>
</a>
</g>
</g>
<!-- Node11 -->
<g id="Node000011" class="node">
<title>Node11</title>
<g id="a_Node000011"><a xlink:href="classTiledParser.html#a5e4e6b0628ae3c4b1495fcd5746cc652" target="_top" xlink:title=" ">
<polygon fill="white" stroke="#666666" points="1041.5,-116 909.5,-116 909.5,-86 1041.5,-86 1041.5,-116"/>
<text text-anchor="start" x="917.5" y="-104" font-family="Helvetica,sans-Serif" font-size="10.00">TiledParser::processTile</text>
<text text-anchor="middle" x="975.5" y="-93" font-family="Helvetica,sans-Serif" font-size="10.00">Layer</text>
</a>
</g>
</g>
<!-- Node1&#45;&gt;Node11 -->
<g id="edge13_Node000001_Node000011" class="edge">
<title>Node1&#45;&gt;Node11</title>
<g id="a_edge13_Node000001_Node000011"><a xlink:title=" ">
<path fill="none" stroke="#63b8ff" d="M1074.68,-114.65C1064.05,-113.18 1052.76,-111.61 1041.76,-110.08"/>
<polygon fill="#63b8ff" stroke="#63b8ff" points="1074.25,-118.13 1084.63,-116.04 1075.21,-111.19 1074.25,-118.13"/>
</a>
</g>
</g>
<!-- Node14 -->
<g id="Node000014" class="node">
<title>Node14</title>
<g id="a_Node000014"><a xlink:href="classPathfinder.html#a611239025810ac996c2c009e953e6819" target="_top" xlink:title=" ">
<polygon fill="white" stroke="#666666" points="1049,-191.5 902,-191.5 902,-172.5 1049,-172.5 1049,-191.5"/>
<text text-anchor="middle" x="975.5" y="-179.5" font-family="Helvetica,sans-Serif" font-size="10.00">Pathfinder::reconstructPath</text>
</a>
</g>
</g>
<!-- Node1&#45;&gt;Node14 -->
<g id="edge17_Node000001_Node000014" class="edge">
<title>Node1&#45;&gt;Node14</title>
<g id="a_edge17_Node000001_Node000014"><a xlink:title=" ">
<path fill="none" stroke="#63b8ff" d="M1098.97,-136.01C1084.22,-143.01 1065.82,-151.38 1049,-158 1035.67,-163.24 1020.69,-168.33 1007.82,-172.47"/>
<polygon fill="#63b8ff" stroke="#63b8ff" points="1100.58,-139.11 1108.08,-131.63 1097.55,-132.8 1100.58,-139.11"/>
</a>
</g>
</g>
<!-- Node15 -->
<g id="Node000015" class="node">
<title>Node15</title>
<g id="a_Node000015"><a xlink:href="namespaceGridRenderer.html#acb569c89b4d3ee96ec4473b1db16ee2e" target="_top" xlink:title=" ">
<polygon fill="white" stroke="#666666" points="1035,-67.5 916,-67.5 916,-48.5 1035,-48.5 1035,-67.5"/>
<text text-anchor="middle" x="975.5" y="-55.5" font-family="Helvetica,sans-Serif" font-size="10.00">GridRenderer::render</text>
</a>
</g>
</g>
<!-- Node1&#45;&gt;Node15 -->
<g id="edge19_Node000001_Node000015" class="edge">
<title>Node1&#45;&gt;Node15</title>
<g id="a_edge19_Node000001_Node000015"><a xlink:title=" ">
<path fill="none" stroke="#63b8ff" d="M1104.62,-106.72C1089.38,-97.1 1068.63,-85.03 1049,-77 1039.97,-73.3 1030.01,-70.14 1020.43,-67.52"/>
<polygon fill="#63b8ff" stroke="#63b8ff" points="1103.03,-109.86 1113.33,-112.34 1106.82,-103.98 1103.03,-109.86"/>
</a>
</g>
</g>
<!-- Node3 -->
<g id="Node000003" class="node">
<title>Node3</title>
<g id="a_Node000003"><a xlink:href="classPathfinder.html#a606e84e19623d97559d949a2e27e451c" target="_top" xlink:title="Finds the shortest path from a start point to the nearest valid cell of a named zone.">
<polygon fill="white" stroke="#666666" points="687,-210.5 541,-210.5 541,-191.5 687,-191.5 687,-210.5"/>
<text text-anchor="middle" x="614" y="-198.5" font-family="Helvetica,sans-Serif" font-size="10.00">Pathfinder::findPathToZone</text>
</a>
</g>
</g>
<!-- Node2&#45;&gt;Node3 -->
<g id="edge2_Node000002_Node000003" class="edge">
<title>Node2&#45;&gt;Node3</title>
<g id="a_edge2_Node000002_Node000003"><a xlink:title=" ">
<path fill="none" stroke="#63b8ff" d="M729.24,-201C715.64,-201 701.19,-201 687.31,-201"/>
<polygon fill="#63b8ff" stroke="#63b8ff" points="729.46,-204.5 739.46,-201 729.46,-197.5 729.46,-204.5"/>
</a>
</g>
</g>
<!-- Node4 -->
<g id="Node000004" class="node">
<title>Node4</title>
<g id="a_Node000004"><a xlink:href="classAISystem.html#ab7874e368d3dc14dc7838a8721e583e7" target="_top" xlink:title=" ">
<polygon fill="white" stroke="#666666" points="505,-210.5 324,-210.5 324,-191.5 505,-191.5 505,-210.5"/>
<text text-anchor="middle" x="414.5" y="-198.5" font-family="Helvetica,sans-Serif" font-size="10.00">AISystem::executeMovementPlan</text>
</a>
</g>
</g>
<!-- Node3&#45;&gt;Node4 -->
<g id="edge3_Node000003_Node000004" class="edge">
<title>Node3&#45;&gt;Node4</title>
<g id="a_edge3_Node000003_Node000004"><a xlink:title=" ">
<path fill="none" stroke="#63b8ff" d="M530.71,-201C522.31,-201 513.75,-201 505.27,-201"/>
<polygon fill="#63b8ff" stroke="#63b8ff" points="530.86,-204.5 540.86,-201 530.86,-197.5 530.86,-204.5"/>
</a>
</g>
</g>
<!-- Node5 -->
<g id="Node000005" class="node">
<title>Node5</title>
<g id="a_Node000005"><a xlink:href="classAISystem.html#a1d7894d2fba2b0f09b8929bbfd58ec4e" target="_top" xlink:title=" ">
<polygon fill="white" stroke="#666666" points="286,-245 141,-245 141,-215 286,-215 286,-245"/>
<text text-anchor="start" x="149" y="-233" font-family="Helvetica,sans-Serif" font-size="10.00">AISystem::processArriving</text>
<text text-anchor="middle" x="213.5" y="-222" font-family="Helvetica,sans-Serif" font-size="10.00">Entities</text>
</a>
</g>
</g>
<!-- Node4&#45;&gt;Node5 -->
<g id="edge4_Node000004_Node000005" class="edge">
<title>Node4&#45;&gt;Node5</title>
<g id="a_edge4_Node000004_Node000005"><a xlink:title=" ">
<path fill="none" stroke="#63b8ff" d="M338.16,-211.98C321.11,-214.46 303.05,-217.1 286.15,-219.56"/>
<polygon fill="#63b8ff" stroke="#63b8ff" points="338.67,-215.44 348.06,-210.54 337.66,-208.51 338.67,-215.44"/>
</a>
</g>
</g>
<!-- Node8 -->
<g id="Node000008" class="node">
<title>Node8</title>
<g id="a_Node000008"><a xlink:href="classAISystem.html#a6b84082c16eb0af5606049260db2d99f" target="_top" xlink:title=" ">
<polygon fill="white" stroke="#666666" points="288,-197 139,-197 139,-167 288,-167 288,-197"/>
<text text-anchor="start" x="147" y="-185" font-family="Helvetica,sans-Serif" font-size="10.00">AISystem::processPlanning</text>
<text text-anchor="middle" x="213.5" y="-174" font-family="Helvetica,sans-Serif" font-size="10.00">Entities</text>
</a>
</g>
</g>
<!-- Node4&#45;&gt;Node8 -->
<g id="edge7_Node000004_Node000008" class="edge">
<title>Node4&#45;&gt;Node8</title>
<g id="a_edge7_Node000004_Node000008"><a xlink:title=" ">
<path fill="none" stroke="#63b8ff" d="M313.77,-191.48C305.13,-190.65 296.49,-189.83 288.12,-189.03"/>
<polygon fill="#63b8ff" stroke="#63b8ff" points="313.61,-194.98 323.9,-192.44 314.27,-188.01 313.61,-194.98"/>
</a>
</g>
</g>
<!-- Node6 -->
<g id="Node000006" class="node">
<title>Node6</title>
<g id="a_Node000006"><a xlink:href="main_8cpp.html#a0ddf1224851353fc92bfbff6f499fa97" target="_top" xlink:title=" ">
<polygon fill="white" stroke="#666666" points="72,-148.5 31,-148.5 31,-129.5 72,-129.5 72,-148.5"/>
<text text-anchor="middle" x="51.5" y="-136.5" font-family="Helvetica,sans-Serif" font-size="10.00">main</text>
</a>
</g>
</g>
<!-- Node5&#45;&gt;Node6 -->
<g id="edge5_Node000005_Node000006" class="edge">
<title>Node5&#45;&gt;Node6</title>
<g id="a_edge5_Node000005_Node000006"><a xlink:title=" ">
<path fill="none" stroke="#63b8ff" d="M149.72,-211.15C146.04,-209.54 142.44,-207.82 139,-206 108.45,-189.81 77.62,-162.78 62.35,-148.5"/>
<polygon fill="#63b8ff" stroke="#63b8ff" points="148.42,-214.4 159,-214.94 151.07,-207.92 148.42,-214.4"/>
</a>
</g>
</g>
<!-- Node7 -->
<g id="Node000007" class="node">
<title>Node7</title>
<g id="a_Node000007"><a xlink:href="classAISystem.html#a4c1e02a04a3053c073e58ad44f4d0293" target="_top" xlink:title=" ">
<polygon fill="white" stroke="#666666" points="103,-215.5 0,-215.5 0,-196.5 103,-196.5 103,-215.5"/>
<text text-anchor="middle" x="51.5" y="-203.5" font-family="Helvetica,sans-Serif" font-size="10.00">AISystem::update</text>
</a>
</g>
</g>
<!-- Node5&#45;&gt;Node7 -->
<g id="edge6_Node000005_Node000007" class="edge">
<title>Node5&#45;&gt;Node7</title>
<g id="a_edge6_Node000005_Node000007"><a xlink:title=" ">
<path fill="none" stroke="#63b8ff" d="M130.81,-217.75C121.48,-216.35 112.18,-214.95 103.41,-213.64"/>
<polygon fill="#63b8ff" stroke="#63b8ff" points="130.52,-221.24 140.92,-219.26 131.55,-214.32 130.52,-221.24"/>
</a>
</g>
</g>
<!-- Node8&#45;&gt;Node6 -->
<g id="edge8_Node000008_Node000006" class="edge">
<title>Node8&#45;&gt;Node6</title>
<g id="a_edge8_Node000008_Node000006"><a xlink:title=" ">
<path fill="none" stroke="#63b8ff" d="M146.75,-164.33C119.85,-157.1 90.73,-149.27 72.08,-144.26"/>
<polygon fill="#63b8ff" stroke="#63b8ff" points="145.97,-167.75 156.54,-166.96 147.79,-160.99 145.97,-167.75"/>
</a>
</g>
</g>
<!-- Node8&#45;&gt;Node7 -->
<g id="edge9_Node000008_Node000007" class="edge">
<title>Node8&#45;&gt;Node7</title>
<g id="a_edge9_Node000008_Node000007"><a xlink:title=" ">
<path fill="none" stroke="#63b8ff" d="M128.48,-194.6C119.88,-195.89 111.33,-197.17 103.25,-198.39"/>
<polygon fill="#63b8ff" stroke="#63b8ff" points="129.22,-198.03 138.59,-193.09 128.18,-191.11 129.22,-198.03"/>
</a>
</g>
</g>
<!-- Node10&#45;&gt;Node6 -->
<g id="edge12_Node000010_Node000006" class="edge">
<title>Node10&#45;&gt;Node6</title>
<g id="a_edge12_Node000010_Node000006"><a xlink:title=" ">
<path fill="none" stroke="#63b8ff" d="M349.7,-140.65C266.14,-140.18 124.14,-139.4 72.25,-139.11"/>
<polygon fill="#63b8ff" stroke="#63b8ff" points="349.83,-144.15 359.84,-140.7 349.86,-137.15 349.83,-144.15"/>
</a>
</g>
</g>
<!-- Node12 -->
<g id="Node000012" class="node">
<title>Node12</title>
<g id="a_Node000012"><a xlink:href="classTiledParser.html#abb818e8ba61e5fea3471f40507826f62" target="_top" xlink:title="Load a Tiled JSON file and populate the given Grid.">
<polygon fill="white" stroke="#666666" points="866,-110.5 723,-110.5 723,-91.5 866,-91.5 866,-110.5"/>
<text text-anchor="middle" x="794.5" y="-98.5" font-family="Helvetica,sans-Serif" font-size="10.00">TiledParser::loadTiledMap</text>
</a>
</g>
</g>
<!-- Node11&#45;&gt;Node12 -->
<g id="edge14_Node000011_Node000012" class="edge">
<title>Node11&#45;&gt;Node12</title>
<g id="a_edge14_Node000011_Node000012"><a xlink:title=" ">
<path fill="none" stroke="#63b8ff" d="M899.34,-101C888.3,-101 876.96,-101 866.02,-101"/>
<polygon fill="#63b8ff" stroke="#63b8ff" points="899.37,-104.5 909.37,-101 899.37,-97.5 899.37,-104.5"/>
</a>
</g>
</g>
<!-- Node13 -->
<g id="Node000013" class="node">
<title>Node13</title>
<g id="a_Node000013"><a xlink:href="classGrid.html#ae7f84fbbbb1ff7597081f64be300196c" target="_top" xlink:title="Load grid from a Tiled Map Editor JSON file.">
<polygon fill="white" stroke="#666666" points="471,-110.5 358,-110.5 358,-91.5 471,-91.5 471,-110.5"/>
<text text-anchor="middle" x="414.5" y="-98.5" font-family="Helvetica,sans-Serif" font-size="10.00">Grid::loadFromTiled</text>
</a>
</g>
</g>
<!-- Node12&#45;&gt;Node13 -->
<g id="edge15_Node000012_Node000013" class="edge">
<title>Node12&#45;&gt;Node13</title>
<g id="a_edge15_Node000012_Node000013"><a xlink:title=" ">
<path fill="none" stroke="#63b8ff" d="M712.79,-101C639.99,-101 534.84,-101 471.06,-101"/>
<polygon fill="#63b8ff" stroke="#63b8ff" points="712.84,-104.5 722.84,-101 712.84,-97.5 712.84,-104.5"/>
</a>
</g>
</g>
<!-- Node13&#45;&gt;Node6 -->
<g id="edge16_Node000013_Node000006" class="edge">
<title>Node13&#45;&gt;Node6</title>
<g id="a_edge16_Node000013_Node000006"><a xlink:title=" ">
<path fill="none" stroke="#63b8ff" d="M347.69,-107.93C263.74,-116.76 123.29,-131.55 72,-136.95"/>
<polygon fill="#63b8ff" stroke="#63b8ff" points="348.31,-111.38 357.88,-106.85 347.57,-104.42 348.31,-111.38"/>
</a>
</g>
</g>
<!-- Node14&#45;&gt;Node2 -->
<g id="edge18_Node000014_Node000002" class="edge">
<title>Node14&#45;&gt;Node2</title>
<g id="a_edge18_Node000014_Node000002"><a xlink:title=" ">
<path fill="none" stroke="#63b8ff" d="M891.65,-190.79C877.42,-192.3 862.96,-193.84 849.73,-195.24"/>
<polygon fill="#63b8ff" stroke="#63b8ff" points="892.38,-194.24 901.95,-189.7 891.64,-187.28 892.38,-194.24"/>
</a>
</g>
</g>
<!-- Node16 -->
<g id="Node000016" class="node">
<title>Node16</title>
<g id="a_Node000016"><a xlink:href="namespaceGridRenderer.html#ac325da891d9fa57d4a93243fef147c8b" target="_top" xlink:title=" ">
<polygon fill="white" stroke="#666666" points="684.5,-73 543.5,-73 543.5,-43 684.5,-43 684.5,-73"/>
<text text-anchor="start" x="551.5" y="-61" font-family="Helvetica,sans-Serif" font-size="10.00">GridRenderer::renderWith</text>
<text text-anchor="middle" x="614" y="-50" font-family="Helvetica,sans-Serif" font-size="10.00">Labels</text>
</a>
</g>
</g>
<!-- Node15&#45;&gt;Node16 -->
<g id="edge20_Node000015_Node000016" class="edge">
<title>Node15&#45;&gt;Node16</title>
<g id="a_edge20_Node000015_Node000016"><a xlink:title=" ">
<path fill="none" stroke="#63b8ff" d="M905.63,-58C842.14,-58 748.36,-58 684.62,-58"/>
<polygon fill="#63b8ff" stroke="#63b8ff" points="905.94,-61.5 915.94,-58 905.94,-54.5 905.94,-61.5"/>
</a>
</g>
</g>
<!-- Node16&#45;&gt;Node6 -->
<g id="edge21_Node000016_Node000006" class="edge">
<title>Node16&#45;&gt;Node6</title>
<g id="a_edge21_Node000016_Node000006"><a xlink:title=" ">
<path fill="none" stroke="#63b8ff" d="M533.28,-60.68C438.24,-65.26 275.16,-77.51 139,-110 115.58,-115.59 89.48,-124.76 72.13,-131.3"/>
<polygon fill="#63b8ff" stroke="#63b8ff" points="533.57,-64.17 543.39,-60.21 533.24,-57.18 533.57,-64.17"/>
</a>
</g>
</g>
</g>
</svg>

<g id="navigator" transform="translate(0 0)" fill="#404254">
  <rect fill="#f2f5e9" fill-opacity="0.5" stroke="#606060" stroke-width=".5" x="0" y="0" width="60" height="60"/>
  <use id="zoomplus" xlink:href="#zoomPlus" x="17" y="9" onmousedown="handleZoom(evt,'in')"/>
  <use id="zoomminus" xlink:href="#zoomMin" x="42" y="9" onmousedown="handleZoom(evt,'out')"/>
  <use id="reset" xlink:href="#resetDef" x="30" y="36" onmousedown="handleReset()"/>
   <use id="arrowup" xlink:href="#arrowUp" x="0" y="0" onmousedown="handlePan(0,-1)"/>
  <use id="arrowright" xlink:href="#arrowRight" x="0" y="0" onmousedown="handlePan(1,0)"/>
  <use id="arrowdown" xlink:href="#arrowDown" x="0" y="0" onmousedown="handlePan(0,1)"/>
  <use id="arrowleft" xlink:href="#arrowLeft" x="0" y="0" onmousedown="handlePan(-1,0)"/>
</g>
<svg viewBox="0 0 15 15" width="100%" height="30px" preserveAspectRatio="xMaxYMin meet">
 <g id="arrow_out" transform="scale(0.3 0.3)">
  <a xlink:href="classGrid_a1e87189ca4bcb28b72b5e1bb78a532b5_icgraph_org.svg" target="_base">
   <rect id="button" ry="5" rx="5" y="6" x="6" height="38" width="38"
        fill="#f2f5e9" fill-opacity="0.5" stroke="#606060" stroke-width="1.0"/>
   <path id="arrow"
     d="M 11.500037,31.436501 C 11.940474,20.09759 22.043105,11.32322 32.158766,21.979434 L 37.068811,17.246167 C 37.068811,17.246167 37.088388,32 37.088388,32 L 22.160133,31.978069 C 22.160133,31.978069 26.997745,27.140456 26.997745,27.140456 C 18.528582,18.264221 13.291696,25.230495 11.500037,31.436501 z"
     style="fill:#404040;"/>
  </a>
 </g>
</svg>

<style type='text/css'>
<![CDATA[
[data-mouse-over-selected='false'] { opacity: 0.7; }
[data-mouse-over-selected='true']  { opacity: 1.0; }
]]>
</style>
<script type="application/ecmascript"><![CDATA[
document.addEventListener('DOMContentLoaded', (event) => {
  highlightEdges();
  highlightAdjacentNodes();
});
]]></script>
</svg>
