<?xml version="1.0" encoding="UTF-8" standalone="no"?>
<!DOCTYPE svg PUBLIC "-//W3C//DTD SVG 1.1//EN"
 "http://www.w3.org/Graphics/SVG/1.1/DTD/svg11.dtd">
<!-- Generated by graphviz version 2.43.0 (0)
 -->
<!-- Title: AIManager::get Pages: 1 -->
<!--zoomable 124 -->

<svg id="main" version="1.1" xmlns="http://www.w3.org/2000/svg" xmlns:xlink="http://www.w3.org/1999/xlink" xml:space="preserve" onload="init(evt)">
<style type="text/css"><![CDATA[
.node, .edge {opacity: 0.7;}
.node.selected, .edge.selected {opacity: 1;}
.edge:hover path { stroke: red; }
.edge:hover polygon { stroke: red; fill: red; }
]]></style>

<defs>
  <circle id="rim" cx="0" cy="0" r="7"/>
  <circle id="rim2" cx="0" cy="0" r="3.5"/>
  <g id="zoomPlus">
    <use xlink:href="#rim" fill="#404040"><set attributeName="fill" to="#808080" begin="zoomplus.mouseover" end="zoomplus.mouseout"/></use>
    <path d="M-4,0h8M0,-4v8" fill="none" stroke="white" stroke-width="1.5" pointer-events="none"/>
  </g>
  <g id="zoomMin">
    <use xlink:href="#rim" fill="#404040"><set attributeName="fill" to="#808080" begin="zoomminus.mouseover" end="zoomminus.mouseout"/></use>
    <path d="M-4,0h8" fill="none" stroke="white" stroke-width="1.5" pointer-events="none"/>
  </g>
  <g id="arrowUp" transform="translate(30 24)">
    <use xlink:href="#rim"/>
    <path pointer-events="none" fill="none" stroke="white" stroke-width="1.5" d="M0,-3.0v7 M-2.5,-0.5L0,-3.0L2.5,-0.5"/>
  </g>
  <g id="arrowRight" transform="rotate(90) translate(36 -43)">
    <use xlink:href="#rim"/>
    <path pointer-events="none" fill="none" stroke="white" stroke-width="1.5" d="M0,-3.0v7 M-2.5,-0.5L0,-3.0L2.5,-0.5"/>
  </g>
  <g id="arrowDown" transform="rotate(180) translate(-30 -48)">
    <use xlink:href="#rim"/>
    <path pointer-events="none" fill="none" stroke="white" stroke-width="1.5" d="M0,-3.0v7 M-2.5,-0.5L0,-3.0L2.5,-0.5"/>
  </g>
  <g id="arrowLeft" transform="rotate(270) translate(-36 17)">
    <use xlink:href="#rim"/>
    <path pointer-events="none" fill="none" stroke="white" stroke-width="1.5" d="M0,-3.0v7 M-2.5,-0.5L0,-3.0L2.5,-0.5"/>
  </g>
  <g id="resetDef">
    <use xlink:href="#rim2" fill="#404040"><set attributeName="fill" to="#808080" begin="reset.mouseover" end="reset.mouseout"/></use>
  </g>
</defs>
<script type="application/ecmascript">
var viewWidth = 640;
var viewHeight = 124;
var sectionId = 'dynsection-3';
</script>
<script type="application/ecmascript" xlink:href="svg.min.js"/>
<svg id="graph" class="graph">
<g id="viewport">
<title>AIManager::get</title>
<!-- Node1 -->
<g id="Node000001" class="node">
<title>Node1</title>
<g id="a_Node000001"><a xlink:title=" ">
<polygon fill="#999999" stroke="#666666" points="632,-62 541,-62 541,-43 632,-43 632,-62"/>
<text text-anchor="middle" x="586.5" y="-50" font-family="Helvetica,sans-Serif" font-size="10.00">AIManager::get</text>
</a>
</g>
</g>
<!-- Node2 -->
<g id="Node000002" class="node">
<title>Node2</title>
<g id="a_Node000002"><a xlink:href="classAISystem.html#ab7874e368d3dc14dc7838a8721e583e7" target="_top" xlink:title=" ">
<polygon fill="white" stroke="#666666" points="505,-99 324,-99 324,-80 505,-80 505,-99"/>
<text text-anchor="middle" x="414.5" y="-87" font-family="Helvetica,sans-Serif" font-size="10.00">AISystem::executeMovementPlan</text>
</a>
</g>
</g>
<!-- Node1&#45;&gt;Node2 -->
<g id="edge1_Node000001_Node000002" class="edge">
<title>Node1&#45;&gt;Node2</title>
<g id="a_edge1_Node000001_Node000002"><a xlink:title=" ">
<path fill="none" stroke="#63b8ff" d="M536.5,-64.34C526.11,-66.77 515.21,-69.27 505,-71.5 491.84,-74.38 477.55,-77.33 464.33,-79.98"/>
<polygon fill="#63b8ff" stroke="#63b8ff" points="537.32,-67.74 546.25,-62.04 535.72,-60.93 537.32,-67.74"/>
</a>
</g>
</g>
<!-- Node7 -->
<g id="Node000007" class="node">
<title>Node7</title>
<g id="a_Node000007"><a xlink:href="classAISystem.html#a3e9a6b233a440655d47ce5041941d698" target="_top" xlink:title=" ">
<polygon fill="white" stroke="#666666" points="486.5,-25 342.5,-25 342.5,-6 486.5,-6 486.5,-25"/>
<text text-anchor="middle" x="414.5" y="-13" font-family="Helvetica,sans-Serif" font-size="10.00">AISystem::planNextAction</text>
</a>
</g>
</g>
<!-- Node1&#45;&gt;Node7 -->
<g id="edge8_Node000001_Node000007" class="edge">
<title>Node1&#45;&gt;Node7</title>
<g id="a_edge8_Node000001_Node000007"><a xlink:title=" ">
<path fill="none" stroke="#63b8ff" d="M533.28,-40.74C523.87,-38.64 514.15,-36.49 505,-34.5 490.72,-31.39 475.15,-28.06 461.05,-25.07"/>
<polygon fill="#63b8ff" stroke="#63b8ff" points="532.8,-44.22 543.32,-42.98 534.32,-37.38 532.8,-44.22"/>
</a>
</g>
</g>
<!-- Node9 -->
<g id="Node000009" class="node">
<title>Node9</title>
<g id="a_Node000009"><a xlink:href="classAISystem.html#a78ba48851d99fa06efdfaf41f5456217" target="_top" xlink:title=" ">
<polygon fill="white" stroke="#666666" points="501,-62 328,-62 328,-43 501,-43 501,-62"/>
<text text-anchor="middle" x="414.5" y="-50" font-family="Helvetica,sans-Serif" font-size="10.00">AISystem::shouldReplanActivity</text>
</a>
</g>
</g>
<!-- Node1&#45;&gt;Node9 -->
<g id="edge13_Node000001_Node000009" class="edge">
<title>Node1&#45;&gt;Node9</title>
<g id="a_edge13_Node000001_Node000009"><a xlink:title=" ">
<path fill="none" stroke="#63b8ff" d="M530.53,-52.5C521.17,-52.5 511.26,-52.5 501.32,-52.5"/>
<polygon fill="#63b8ff" stroke="#63b8ff" points="530.83,-56 540.83,-52.5 530.83,-49 530.83,-56"/>
</a>
</g>
</g>
<!-- Node3 -->
<g id="Node000003" class="node">
<title>Node3</title>
<g id="a_Node000003"><a xlink:href="classAISystem.html#a1d7894d2fba2b0f09b8929bbfd58ec4e" target="_top" xlink:title=" ">
<polygon fill="white" stroke="#666666" points="286,-115.5 141,-115.5 141,-85.5 286,-85.5 286,-115.5"/>
<text text-anchor="start" x="149" y="-103.5" font-family="Helvetica,sans-Serif" font-size="10.00">AISystem::processArriving</text>
<text text-anchor="middle" x="213.5" y="-92.5" font-family="Helvetica,sans-Serif" font-size="10.00">Entities</text>
</a>
</g>
</g>
<!-- Node2&#45;&gt;Node3 -->
<g id="edge2_Node000002_Node000003" class="edge">
<title>Node2&#45;&gt;Node3</title>
<g id="a_edge2_Node000002_Node000003"><a xlink:title=" ">
<path fill="none" stroke="#63b8ff" d="M313.75,-95.01C304.39,-95.53 295.04,-96.05 286.02,-96.55"/>
<polygon fill="#63b8ff" stroke="#63b8ff" points="314.11,-98.5 323.9,-94.45 313.72,-91.51 314.11,-98.5"/>
</a>
</g>
</g>
<!-- Node6 -->
<g id="Node000006" class="node">
<title>Node6</title>
<g id="a_Node000006"><a xlink:href="classAISystem.html#a6b84082c16eb0af5606049260db2d99f" target="_top" xlink:title=" ">
<polygon fill="white" stroke="#666666" points="288,-67.5 139,-67.5 139,-37.5 288,-37.5 288,-67.5"/>
<text text-anchor="start" x="147" y="-55.5" font-family="Helvetica,sans-Serif" font-size="10.00">AISystem::processPlanning</text>
<text text-anchor="middle" x="213.5" y="-44.5" font-family="Helvetica,sans-Serif" font-size="10.00">Entities</text>
</a>
</g>
</g>
<!-- Node2&#45;&gt;Node6 -->
<g id="edge5_Node000002_Node000006" class="edge">
<title>Node2&#45;&gt;Node6</title>
<g id="a_edge5_Node000002_Node000006"><a xlink:title=" ">
<path fill="none" stroke="#63b8ff" d="M352.21,-78.1C331.94,-74.34 309.17,-70.1 288.08,-66.18"/>
<polygon fill="#63b8ff" stroke="#63b8ff" points="351.78,-81.58 362.25,-79.97 353.06,-74.7 351.78,-81.58"/>
</a>
</g>
</g>
<!-- Node4 -->
<g id="Node000004" class="node">
<title>Node4</title>
<g id="a_Node000004"><a xlink:href="main_8cpp.html#a0ddf1224851353fc92bfbff6f499fa97" target="_top" xlink:title=" ">
<polygon fill="white" stroke="#666666" points="72,-80 31,-80 31,-61 72,-61 72,-80"/>
<text text-anchor="middle" x="51.5" y="-68" font-family="Helvetica,sans-Serif" font-size="10.00">main</text>
</a>
</g>
</g>
<!-- Node3&#45;&gt;Node4 -->
<g id="edge3_Node000003_Node000004" class="edge">
<title>Node3&#45;&gt;Node4</title>
<g id="a_edge3_Node000003_Node000004"><a xlink:title=" ">
<path fill="none" stroke="#63b8ff" d="M130.88,-85.2C108.98,-81.09 87.25,-77.02 72.24,-74.2"/>
<polygon fill="#63b8ff" stroke="#63b8ff" points="130.45,-88.68 140.92,-87.08 131.74,-81.8 130.45,-88.68"/>
</a>
</g>
</g>
<!-- Node5 -->
<g id="Node000005" class="node">
<title>Node5</title>
<g id="a_Node000005"><a xlink:href="classAISystem.html#a4c1e02a04a3053c073e58ad44f4d0293" target="_top" xlink:title=" ">
<polygon fill="white" stroke="#666666" points="103,-43 0,-43 0,-24 103,-24 103,-43"/>
<text text-anchor="middle" x="51.5" y="-31" font-family="Helvetica,sans-Serif" font-size="10.00">AISystem::update</text>
</a>
</g>
</g>
<!-- Node3&#45;&gt;Node5 -->
<g id="edge4_Node000003_Node000005" class="edge">
<title>Node3&#45;&gt;Node5</title>
<g id="a_edge4_Node000003_Node000005"><a xlink:title=" ">
<path fill="none" stroke="#63b8ff" d="M150.84,-81.76C146.78,-80.1 142.8,-78.35 139,-76.5 121.7,-68.1 120.11,-61.28 103,-52.5 96.17,-48.99 88.53,-45.79 81.3,-43.04"/>
<polygon fill="#63b8ff" stroke="#63b8ff" points="149.81,-85.11 160.4,-85.45 152.33,-78.58 149.81,-85.11"/>
</a>
</g>
</g>
<!-- Node6&#45;&gt;Node4 -->
<g id="edge6_Node000006_Node000004" class="edge">
<title>Node6&#45;&gt;Node4</title>
<g id="a_edge6_Node000006_Node000004"><a xlink:title=" ">
<path fill="none" stroke="#63b8ff" d="M128.56,-61.94C107.47,-64.32 86.74,-66.65 72.26,-68.28"/>
<polygon fill="#63b8ff" stroke="#63b8ff" points="129.04,-65.41 138.59,-60.82 128.26,-58.46 129.04,-65.41"/>
</a>
</g>
</g>
<!-- Node6&#45;&gt;Node5 -->
<g id="edge7_Node000006_Node000005" class="edge">
<title>Node6&#45;&gt;Node5</title>
<g id="a_edge7_Node000006_Node000005"><a xlink:title=" ">
<path fill="none" stroke="#63b8ff" d="M128.48,-42.52C119.88,-41.5 111.33,-40.49 103.25,-39.53"/>
<polygon fill="#63b8ff" stroke="#63b8ff" points="128.25,-46.02 138.59,-43.72 129.07,-39.07 128.25,-46.02"/>
</a>
</g>
</g>
<!-- Node7&#45;&gt;Node6 -->
<g id="edge9_Node000007_Node000006" class="edge">
<title>Node7&#45;&gt;Node6</title>
<g id="a_edge9_Node000007_Node000006"><a xlink:title=" ">
<path fill="none" stroke="#63b8ff" d="M352.21,-26.9C331.94,-30.66 309.17,-34.9 288.08,-38.82"/>
<polygon fill="#63b8ff" stroke="#63b8ff" points="353.06,-30.3 362.25,-25.03 351.78,-23.42 353.06,-30.3"/>
</a>
</g>
</g>
<!-- Node8 -->
<g id="Node000008" class="node">
<title>Node8</title>
<g id="a_Node000008"><a xlink:href="classAISystem.html#a260e9a02dff6d097b45fa7c6e3ae733f" target="_top" xlink:title=" ">
<polygon fill="white" stroke="#666666" points="270,-19 157,-19 157,0 270,0 270,-19"/>
<text text-anchor="middle" x="213.5" y="-7" font-family="Helvetica,sans-Serif" font-size="10.00">AISystem::updateAI</text>
</a>
</g>
</g>
<!-- Node7&#45;&gt;Node8 -->
<g id="edge10_Node000007_Node000008" class="edge">
<title>Node7&#45;&gt;Node8</title>
<g id="a_edge10_Node000007_Node000008"><a xlink:title=" ">
<path fill="none" stroke="#63b8ff" d="M332.35,-13.05C311.44,-12.42 289.42,-11.76 270.15,-11.18"/>
<polygon fill="#63b8ff" stroke="#63b8ff" points="332.4,-16.56 342.5,-13.36 332.61,-9.56 332.4,-16.56"/>
</a>
</g>
</g>
<!-- Node8&#45;&gt;Node4 -->
<g id="edge11_Node000008_Node000004" class="edge">
<title>Node8&#45;&gt;Node4</title>
<g id="a_edge11_Node000008_Node000004"><a xlink:title=" ">
<path fill="none" stroke="#63b8ff" d="M155.99,-22.03C150.16,-23.94 144.4,-26.09 139,-28.5 121.45,-36.35 120.19,-43.87 103,-52.5 93.18,-57.43 81.69,-61.64 72.15,-64.74"/>
<polygon fill="#63b8ff" stroke="#63b8ff" points="157.26,-25.3 165.82,-19.05 155.23,-18.6 157.26,-25.3"/>
</a>
</g>
</g>
<!-- Node8&#45;&gt;Node5 -->
<g id="edge12_Node000008_Node000005" class="edge">
<title>Node8&#45;&gt;Node5</title>
<g id="a_edge12_Node000008_Node000005"><a xlink:title=" ">
<path fill="none" stroke="#63b8ff" d="M146.98,-19.33C132.34,-21.52 117.02,-23.82 103.09,-25.91"/>
<polygon fill="#63b8ff" stroke="#63b8ff" points="147.62,-22.77 156.99,-17.83 146.58,-15.85 147.62,-22.77"/>
</a>
</g>
</g>
<!-- Node9&#45;&gt;Node6 -->
<g id="edge14_Node000009_Node000006" class="edge">
<title>Node9&#45;&gt;Node6</title>
<g id="a_edge14_Node000009_Node000006"><a xlink:title=" ">
<path fill="none" stroke="#63b8ff" d="M317.95,-52.5C307.91,-52.5 297.82,-52.5 288.09,-52.5"/>
<polygon fill="#63b8ff" stroke="#63b8ff" points="317.95,-56 327.95,-52.5 317.95,-49 317.95,-56"/>
</a>
</g>
</g>
</g>
</svg>

<g id="navigator" transform="translate(0 0)" fill="#404254">
  <rect fill="#f2f5e9" fill-opacity="0.5" stroke="#606060" stroke-width=".5" x="0" y="0" width="60" height="60"/>
  <use id="zoomplus" xlink:href="#zoomPlus" x="17" y="9" onmousedown="handleZoom(evt,'in')"/>
  <use id="zoomminus" xlink:href="#zoomMin" x="42" y="9" onmousedown="handleZoom(evt,'out')"/>
  <use id="reset" xlink:href="#resetDef" x="30" y="36" onmousedown="handleReset()"/>
   <use id="arrowup" xlink:href="#arrowUp" x="0" y="0" onmousedown="handlePan(0,-1)"/>
  <use id="arrowright" xlink:href="#arrowRight" x="0" y="0" onmousedown="handlePan(1,0)"/>
  <use id="arrowdown" xlink:href="#arrowDown" x="0" y="0" onmousedown="handlePan(0,1)"/>
  <use id="arrowleft" xlink:href="#arrowLeft" x="0" y="0" onmousedown="handlePan(-1,0)"/>
</g>
<svg viewBox="0 0 15 15" width="100%" height="30px" preserveAspectRatio="xMaxYMin meet">
 <g id="arrow_out" transform="scale(0.3 0.3)">
  <a xlink:href="classAIManager_aa0fe5da7752c8478ae72c9cb26dc7886_icgraph_org.svg" target="_base">
   <rect id="button" ry="5" rx="5" y="6" x="6" height="38" width="38"
        fill="#f2f5e9" fill-opacity="0.5" stroke="#606060" stroke-width="1.0"/>
   <path id="arrow"
     d="M 11.500037,31.436501 C 11.940474,20.09759 22.043105,11.32322 32.158766,21.979434 L 37.068811,17.246167 C 37.068811,17.246167 37.088388,32 37.088388,32 L 22.160133,31.978069 C 22.160133,31.978069 26.997745,27.140456 26.997745,27.140456 C 18.528582,18.264221 13.291696,25.230495 11.500037,31.436501 z"
     style="fill:#404040;"/>
  </a>
 </g>
</svg>

<style type='text/css'>
<![CDATA[
[data-mouse-over-selected='false'] { opacity: 0.7; }
[data-mouse-over-selected='true']  { opacity: 1.0; }
]]>
</style>
<script type="application/ecmascript"><![CDATA[
document.addEventListener('DOMContentLoaded', (event) => {
  highlightEdges();
  highlightAdjacentNodes();
});
]]></script>
</svg>
