<?xml version="1.0" encoding="UTF-8" standalone="no"?>
<!DOCTYPE svg PUBLIC "-//W3C//DTD SVG 1.1//EN"
 "http://www.w3.org/Graphics/SVG/1.1/DTD/svg11.dtd">
<!-- Generated by graphviz version 2.43.0 (0)
 -->
<!-- Title: Clock Pages: 1 -->
<svg width="157pt" height="633pt"
 viewBox="0.00 0.00 157.00 633.00" xmlns="http://www.w3.org/2000/svg" xmlns:xlink="http://www.w3.org/1999/xlink">
<g id="graph0" class="graph" transform="scale(1 1) rotate(0) translate(4 629)">
<title>Clock</title>
<!-- Node1 -->
<g id="Node000001" class="node">
<title>Node1</title>
<g id="a_Node000001"><a xlink:title=" ">
<polygon fill="#999999" stroke="transparent" points="149,-334 0,-334 0,0 149,0 149,-334"/>
<text text-anchor="start" x="61" y="-322" font-family="Helvetica,sans-Serif" font-size="10.00">Clock</text>
<text text-anchor="start" x="7" y="-307" font-family="Helvetica,sans-Serif" font-size="10.00">&#45;</text>
<text text-anchor="start" x="17.5" y="-307" font-family="Helvetica,sans-Serif" font-size="10.00">totalSeconds</text>
<text text-anchor="start" x="7" y="-292" font-family="Helvetica,sans-Serif" font-size="10.00">&#45;</text>
<text text-anchor="start" x="17.5" y="-292" font-family="Helvetica,sans-Serif" font-size="10.00">hour</text>
<text text-anchor="start" x="7" y="-277" font-family="Helvetica,sans-Serif" font-size="10.00">&#45;</text>
<text text-anchor="start" x="17.5" y="-277" font-family="Helvetica,sans-Serif" font-size="10.00">minute</text>
<text text-anchor="start" x="7" y="-262" font-family="Helvetica,sans-Serif" font-size="10.00">&#45;</text>
<text text-anchor="start" x="17.5" y="-262" font-family="Helvetica,sans-Serif" font-size="10.00">day</text>
<text text-anchor="start" x="7" y="-247" font-family="Helvetica,sans-Serif" font-size="10.00">&#45;</text>
<text text-anchor="start" x="17.5" y="-247" font-family="Helvetica,sans-Serif" font-size="10.00">timeScale</text>
<text text-anchor="start" x="7" y="-232" font-family="Helvetica,sans-Serif" font-size="10.00">&#45;</text>
<text text-anchor="start" x="17.5" y="-232" font-family="Helvetica,sans-Serif" font-size="10.00">paused</text>
<text text-anchor="start" x="4.5" y="-217" font-family="Helvetica,sans-Serif" font-size="10.00">+</text>
<text text-anchor="start" x="17.5" y="-217" font-family="Helvetica,sans-Serif" font-size="10.00">Clock()</text>
<text text-anchor="start" x="4.5" y="-202" font-family="Helvetica,sans-Serif" font-size="10.00">+</text>
<text text-anchor="start" x="17.5" y="-202" font-family="Helvetica,sans-Serif" font-size="10.00">update()</text>
<text text-anchor="start" x="4.5" y="-187" font-family="Helvetica,sans-Serif" font-size="10.00">+</text>
<text text-anchor="start" x="17.5" y="-187" font-family="Helvetica,sans-Serif" font-size="10.00">getHour()</text>
<text text-anchor="start" x="4.5" y="-172" font-family="Helvetica,sans-Serif" font-size="10.00">+</text>
<text text-anchor="start" x="17.5" y="-172" font-family="Helvetica,sans-Serif" font-size="10.00">getMinute()</text>
<text text-anchor="start" x="4.5" y="-157" font-family="Helvetica,sans-Serif" font-size="10.00">+</text>
<text text-anchor="start" x="17.5" y="-157" font-family="Helvetica,sans-Serif" font-size="10.00">getDay()</text>
<text text-anchor="start" x="4.5" y="-142" font-family="Helvetica,sans-Serif" font-size="10.00">+</text>
<text text-anchor="start" x="17.5" y="-142" font-family="Helvetica,sans-Serif" font-size="10.00">getTotalSeconds()</text>
<text text-anchor="start" x="4.5" y="-127" font-family="Helvetica,sans-Serif" font-size="10.00">+</text>
<text text-anchor="start" x="17.5" y="-127" font-family="Helvetica,sans-Serif" font-size="10.00">getTimeOfDay()</text>
<text text-anchor="start" x="4.5" y="-112" font-family="Helvetica,sans-Serif" font-size="10.00">+</text>
<text text-anchor="start" x="17.5" y="-112" font-family="Helvetica,sans-Serif" font-size="10.00">getTimeOfDay()</text>
<text text-anchor="start" x="4.5" y="-97" font-family="Helvetica,sans-Serif" font-size="10.00">+</text>
<text text-anchor="start" x="17.5" y="-97" font-family="Helvetica,sans-Serif" font-size="10.00">getTimeString()</text>
<text text-anchor="start" x="4.5" y="-82" font-family="Helvetica,sans-Serif" font-size="10.00">+</text>
<text text-anchor="start" x="17.5" y="-82" font-family="Helvetica,sans-Serif" font-size="10.00">setTimeScale()</text>
<text text-anchor="start" x="4.5" y="-67" font-family="Helvetica,sans-Serif" font-size="10.00">+</text>
<text text-anchor="start" x="17.5" y="-67" font-family="Helvetica,sans-Serif" font-size="10.00">getTimeScale()</text>
<text text-anchor="start" x="4.5" y="-52" font-family="Helvetica,sans-Serif" font-size="10.00">+</text>
<text text-anchor="start" x="17.5" y="-52" font-family="Helvetica,sans-Serif" font-size="10.00">pause()</text>
<text text-anchor="start" x="4.5" y="-37" font-family="Helvetica,sans-Serif" font-size="10.00">+</text>
<text text-anchor="start" x="17.5" y="-37" font-family="Helvetica,sans-Serif" font-size="10.00">resume()</text>
<text text-anchor="start" x="4.5" y="-22" font-family="Helvetica,sans-Serif" font-size="10.00">+</text>
<text text-anchor="start" x="17.5" y="-22" font-family="Helvetica,sans-Serif" font-size="10.00">isPaused()</text>
<text text-anchor="start" x="7" y="-7" font-family="Helvetica,sans-Serif" font-size="10.00">&#45;</text>
<text text-anchor="start" x="17.5" y="-7" font-family="Helvetica,sans-Serif" font-size="10.00">updateTimeComponents()</text>
<polygon fill="#666666" stroke="#666666" points="0.5,-317 0.5,-317 149.5,-317 149.5,-317 0.5,-317"/>
<polygon fill="#666666" stroke="#666666" points="0.5,-227 0.5,-227 15.5,-227 15.5,-227 0.5,-227"/>
<polygon fill="#666666" stroke="#666666" points="15.5,-227 15.5,-227 149.5,-227 149.5,-227 15.5,-227"/>
<polygon fill="none" stroke="#666666" points="0,0 0,-334 149,-334 149,0 0,0"/>
</a>
</g>
</g>
<!-- Node2 -->
<g id="Node000002" class="node">
<title>Node2</title>
<g id="a_Node000002"><a xlink:href="classTimeOfDay.html" target="_top" xlink:title=" ">
<polygon fill="white" stroke="transparent" points="143.5,-625 5.5,-625 5.5,-381 143.5,-381 143.5,-625"/>
<text text-anchor="start" x="46.5" y="-613" font-family="Helvetica,sans-Serif" font-size="10.00">TimeOfDay</text>
<text text-anchor="start" x="12" y="-598" font-family="Helvetica,sans-Serif" font-size="10.00">&#45;</text>
<text text-anchor="start" x="22.5" y="-598" font-family="Helvetica,sans-Serif" font-size="10.00">currentPeriod</text>
<text text-anchor="start" x="9.5" y="-583" font-family="Helvetica,sans-Serif" font-size="10.00">+</text>
<text text-anchor="start" x="22.5" y="-583" font-family="Helvetica,sans-Serif" font-size="10.00">TimeOfDay()</text>
<text text-anchor="start" x="9.5" y="-568" font-family="Helvetica,sans-Serif" font-size="10.00">+</text>
<text text-anchor="start" x="22.5" y="-568" font-family="Helvetica,sans-Serif" font-size="10.00">updateFromHour()</text>
<text text-anchor="start" x="9.5" y="-553" font-family="Helvetica,sans-Serif" font-size="10.00">+</text>
<text text-anchor="start" x="22.5" y="-553" font-family="Helvetica,sans-Serif" font-size="10.00">getCurrentPeriod()</text>
<text text-anchor="start" x="9.5" y="-538" font-family="Helvetica,sans-Serif" font-size="10.00">+</text>
<text text-anchor="start" x="22.5" y="-538" font-family="Helvetica,sans-Serif" font-size="10.00">getPeriodString()</text>
<text text-anchor="start" x="9.5" y="-523" font-family="Helvetica,sans-Serif" font-size="10.00">+</text>
<text text-anchor="start" x="22.5" y="-523" font-family="Helvetica,sans-Serif" font-size="10.00">isDay()</text>
<text text-anchor="start" x="9.5" y="-508" font-family="Helvetica,sans-Serif" font-size="10.00">+</text>
<text text-anchor="start" x="22.5" y="-508" font-family="Helvetica,sans-Serif" font-size="10.00">isNight()</text>
<text text-anchor="start" x="9.5" y="-493" font-family="Helvetica,sans-Serif" font-size="10.00">+</text>
<text text-anchor="start" x="22.5" y="-493" font-family="Helvetica,sans-Serif" font-size="10.00">isWorkHours()</text>
<text text-anchor="start" x="9.5" y="-478" font-family="Helvetica,sans-Serif" font-size="10.00">+</text>
<text text-anchor="start" x="22.5" y="-478" font-family="Helvetica,sans-Serif" font-size="10.00">isSleepTime()</text>
<text text-anchor="start" x="9.5" y="-463" font-family="Helvetica,sans-Serif" font-size="10.00">+</text>
<text text-anchor="start" x="22.5" y="-463" font-family="Helvetica,sans-Serif" font-size="10.00">isMealTime()</text>
<text text-anchor="start" x="9.5" y="-448" font-family="Helvetica,sans-Serif" font-size="10.00">+</text>
<text text-anchor="start" x="22.5" y="-448" font-family="Helvetica,sans-Serif" font-size="10.00">getSuggestedActivity()</text>
<text text-anchor="start" x="9.5" y="-433" font-family="Helvetica,sans-Serif" font-size="10.00">+</text>
<text text-anchor="start" x="22.5" y="-433" font-family="Helvetica,sans-Serif" font-size="10.00">isGoodTimeForWork()</text>
<text text-anchor="start" x="9.5" y="-418" font-family="Helvetica,sans-Serif" font-size="10.00">+</text>
<text text-anchor="start" x="22.5" y="-418" font-family="Helvetica,sans-Serif" font-size="10.00">isGoodTimeForSleep()</text>
<text text-anchor="start" x="9.5" y="-403" font-family="Helvetica,sans-Serif" font-size="10.00">+</text>
<text text-anchor="start" x="22.5" y="-403" font-family="Helvetica,sans-Serif" font-size="10.00">isGoodTimeForLeisure()</text>
<text text-anchor="start" x="12" y="-388" font-family="Helvetica,sans-Serif" font-size="10.00">&#45;</text>
<text text-anchor="start" x="22.5" y="-388" font-family="Helvetica,sans-Serif" font-size="10.00">calculatePeriod()</text>
<polygon fill="#666666" stroke="#666666" points="5.5,-608 5.5,-608 143.5,-608 143.5,-608 5.5,-608"/>
<polygon fill="#666666" stroke="#666666" points="5.5,-593 5.5,-593 20.5,-593 20.5,-593 5.5,-593"/>
<polygon fill="#666666" stroke="#666666" points="20.5,-593 20.5,-593 143.5,-593 143.5,-593 20.5,-593"/>
<polygon fill="none" stroke="#666666" points="5.5,-381 5.5,-625 143.5,-625 143.5,-381 5.5,-381"/>
</a>
</g>
</g>
<!-- Node2&#45;&gt;Node1 -->
<g id="edge1_Node000001_Node000002" class="edge">
<title>Node2&#45;&gt;Node1</title>
<g id="a_edge1_Node000001_Node000002"><a xlink:title=" ">
<path fill="none" stroke="#63b8ff" d="M74.5,-380.95C74.5,-369.65 74.5,-358.06 74.5,-346.39"/>
<polygon fill="none" stroke="#63b8ff" points="74.5,-346.21 70.5,-340.21 74.5,-334.21 78.5,-340.21 74.5,-346.21"/>
</a>
</g>
<text text-anchor="middle" x="105" y="-355" font-family="Helvetica,sans-Serif" font-size="10.00" fill="grey"> &#45;timeOfDay</text>
</g>
</g>
</svg>
