<?xml version="1.0" encoding="UTF-8" standalone="no"?>
<!DOCTYPE svg PUBLIC "-//W3C//DTD SVG 1.1//EN"
 "http://www.w3.org/Graphics/SVG/1.1/DTD/svg11.dtd">
<!-- Generated by graphviz version 2.43.0 (0)
 -->
<!-- Title: AISystem::update Pages: 1 -->
<!--zoomable 662 -->

<svg id="main" version="1.1" xmlns="http://www.w3.org/2000/svg" xmlns:xlink="http://www.w3.org/1999/xlink" xml:space="preserve" onload="init(evt)">
<style type="text/css"><![CDATA[
.node, .edge {opacity: 0.7;}
.node.selected, .edge.selected {opacity: 1;}
.edge:hover path { stroke: red; }
.edge:hover polygon { stroke: red; fill: red; }
]]></style>

<defs>
  <circle id="rim" cx="0" cy="0" r="7"/>
  <circle id="rim2" cx="0" cy="0" r="3.5"/>
  <g id="zoomPlus">
    <use xlink:href="#rim" fill="#404040"><set attributeName="fill" to="#808080" begin="zoomplus.mouseover" end="zoomplus.mouseout"/></use>
    <path d="M-4,0h8M0,-4v8" fill="none" stroke="white" stroke-width="1.5" pointer-events="none"/>
  </g>
  <g id="zoomMin">
    <use xlink:href="#rim" fill="#404040"><set attributeName="fill" to="#808080" begin="zoomminus.mouseover" end="zoomminus.mouseout"/></use>
    <path d="M-4,0h8" fill="none" stroke="white" stroke-width="1.5" pointer-events="none"/>
  </g>
  <g id="arrowUp" transform="translate(30 24)">
    <use xlink:href="#rim"/>
    <path pointer-events="none" fill="none" stroke="white" stroke-width="1.5" d="M0,-3.0v7 M-2.5,-0.5L0,-3.0L2.5,-0.5"/>
  </g>
  <g id="arrowRight" transform="rotate(90) translate(36 -43)">
    <use xlink:href="#rim"/>
    <path pointer-events="none" fill="none" stroke="white" stroke-width="1.5" d="M0,-3.0v7 M-2.5,-0.5L0,-3.0L2.5,-0.5"/>
  </g>
  <g id="arrowDown" transform="rotate(180) translate(-30 -48)">
    <use xlink:href="#rim"/>
    <path pointer-events="none" fill="none" stroke="white" stroke-width="1.5" d="M0,-3.0v7 M-2.5,-0.5L0,-3.0L2.5,-0.5"/>
  </g>
  <g id="arrowLeft" transform="rotate(270) translate(-36 17)">
    <use xlink:href="#rim"/>
    <path pointer-events="none" fill="none" stroke="white" stroke-width="1.5" d="M0,-3.0v7 M-2.5,-0.5L0,-3.0L2.5,-0.5"/>
  </g>
  <g id="resetDef">
    <use xlink:href="#rim2" fill="#404040"><set attributeName="fill" to="#808080" begin="reset.mouseover" end="reset.mouseout"/></use>
  </g>
</defs>
<script type="application/ecmascript">
var viewWidth = 1254;
var viewHeight = 662;
var sectionId = 'dynsection-14';
</script>
<script type="application/ecmascript" xlink:href="svg.min.js"/>
<svg id="graph" class="graph">
<g id="viewport">
<title>AISystem::update</title>
<!-- Node1 -->
<g id="Node000001" class="node">
<title>Node1</title>
<g id="a_Node000001"><a xlink:title=" ">
<polygon fill="#999999" stroke="#666666" points="103,-350.84 0,-350.84 0,-331.84 103,-331.84 103,-350.84"/>
<text text-anchor="middle" x="51.5" y="-338.84" font-family="Helvetica,sans-Serif" font-size="10.00">AISystem::update</text>
</a>
</g>
</g>
<!-- Node2 -->
<g id="Node000002" class="node">
<title>Node2</title>
<g id="a_Node000002"><a xlink:href="classAISystem.html#a1d7894d2fba2b0f09b8929bbfd58ec4e" target="_top" xlink:title=" ">
<polygon fill="white" stroke="#666666" points="286,-456.34 141,-456.34 141,-426.34 286,-426.34 286,-456.34"/>
<text text-anchor="start" x="149" y="-444.34" font-family="Helvetica,sans-Serif" font-size="10.00">AISystem::processArriving</text>
<text text-anchor="middle" x="213.5" y="-433.34" font-family="Helvetica,sans-Serif" font-size="10.00">Entities</text>
</a>
</g>
</g>
<!-- Node1&#45;&gt;Node2 -->
<g id="edge1_Node000001_Node000002" class="edge">
<title>Node1&#45;&gt;Node2</title>
<g id="a_edge1_Node000001_Node000002"><a xlink:title=" ">
<path fill="none" stroke="#63b8ff" d="M67.84,-350.93C93.47,-366.95 145.56,-399.5 179.73,-420.86"/>
<polygon fill="#63b8ff" stroke="#63b8ff" points="178.1,-423.96 188.43,-426.29 181.81,-418.03 178.1,-423.96"/>
</a>
</g>
</g>
<!-- Node18 -->
<g id="Node000018" class="node">
<title>Node18</title>
<g id="a_Node000018"><a xlink:href="classAISystem.html#a6b84082c16eb0af5606049260db2d99f" target="_top" xlink:title=" ">
<polygon fill="white" stroke="#666666" points="288,-356.34 139,-356.34 139,-326.34 288,-326.34 288,-356.34"/>
<text text-anchor="start" x="147" y="-344.34" font-family="Helvetica,sans-Serif" font-size="10.00">AISystem::processPlanning</text>
<text text-anchor="middle" x="213.5" y="-333.34" font-family="Helvetica,sans-Serif" font-size="10.00">Entities</text>
</a>
</g>
</g>
<!-- Node1&#45;&gt;Node18 -->
<g id="edge21_Node000001_Node000018" class="edge">
<title>Node1&#45;&gt;Node18</title>
<g id="a_edge21_Node000001_Node000018"><a xlink:title=" ">
<path fill="none" stroke="#63b8ff" d="M103.12,-341.34C111.28,-341.34 119.92,-341.34 128.61,-341.34"/>
<polygon fill="#63b8ff" stroke="#63b8ff" points="128.82,-344.84 138.82,-341.34 128.82,-337.84 128.82,-344.84"/>
</a>
</g>
</g>
<!-- Node24 -->
<g id="Node000024" class="node">
<title>Node24</title>
<g id="a_Node000024"><a xlink:href="classAISystem.html#a260e9a02dff6d097b45fa7c6e3ae733f" target="_top" xlink:title=" ">
<polygon fill="white" stroke="#666666" points="270,-272.84 157,-272.84 157,-253.84 270,-253.84 270,-272.84"/>
<text text-anchor="middle" x="213.5" y="-260.84" font-family="Helvetica,sans-Serif" font-size="10.00">AISystem::updateAI</text>
</a>
</g>
</g>
<!-- Node1&#45;&gt;Node24 -->
<g id="edge44_Node000001_Node000024" class="edge">
<title>Node1&#45;&gt;Node24</title>
<g id="a_edge44_Node000001_Node000024"><a xlink:title=" ">
<path fill="none" stroke="#63b8ff" d="M72.12,-331.77C99.95,-318.21 151.08,-293.28 183.36,-277.54"/>
<polygon fill="#63b8ff" stroke="#63b8ff" points="185.27,-280.51 192.72,-272.98 182.2,-274.22 185.27,-280.51"/>
</a>
</g>
</g>
<!-- Node3 -->
<g id="Node000003" class="node">
<title>Node3</title>
<g id="a_Node000003"><a xlink:href="classAISystem.html#ab7874e368d3dc14dc7838a8721e583e7" target="_top" xlink:title=" ">
<polygon fill="white" stroke="#666666" points="505,-540.84 324,-540.84 324,-521.84 505,-521.84 505,-540.84"/>
<text text-anchor="middle" x="414.5" y="-528.84" font-family="Helvetica,sans-Serif" font-size="10.00">AISystem::executeMovementPlan</text>
</a>
</g>
</g>
<!-- Node2&#45;&gt;Node3 -->
<g id="edge2_Node000002_Node000003" class="edge">
<title>Node2&#45;&gt;Node3</title>
<g id="a_edge2_Node000002_Node000003"><a xlink:title=" ">
<path fill="none" stroke="#63b8ff" d="M235.36,-456.35C256.72,-471.13 291.32,-493.43 324,-507.34 334.76,-511.92 346.63,-515.83 358.11,-519.09"/>
<polygon fill="#63b8ff" stroke="#63b8ff" points="357.49,-522.54 368.06,-521.78 359.32,-515.79 357.49,-522.54"/>
</a>
</g>
</g>
<!-- Node11 -->
<g id="Node000011" class="node">
<title>Node11</title>
<g id="a_Node000011"><a xlink:href="classMovementManager.html#a114bf0653e258541fe63e3e5144aba20" target="_top" xlink:title=" ">
<polygon fill="white" stroke="#666666" points="704.5,-578.84 570.5,-578.84 570.5,-559.84 704.5,-559.84 704.5,-578.84"/>
<text text-anchor="middle" x="637.5" y="-566.84" font-family="Helvetica,sans-Serif" font-size="10.00">MovementManager::get</text>
</a>
</g>
</g>
<!-- Node2&#45;&gt;Node11 -->
<g id="edge16_Node000002_Node000011" class="edge">
<title>Node2&#45;&gt;Node11</title>
<g id="a_edge16_Node000002_Node000011"><a xlink:title=" ">
<path fill="none" stroke="#63b8ff" d="M221.39,-456.71C235.61,-486.29 271.34,-550.36 324,-575.34 412.71,-617.41 532.12,-597.01 594.53,-581.44"/>
<polygon fill="#63b8ff" stroke="#63b8ff" points="595.59,-584.77 604.4,-578.89 593.85,-578 595.59,-584.77"/>
</a>
</g>
</g>
<!-- Node12 -->
<g id="Node000012" class="node">
<title>Node12</title>
<g id="a_Node000012"><a xlink:href="classPositionManager.html#ac2ce0980eefb0e2afd6e6fe08fb8c28d" target="_top" xlink:title=" ">
<polygon fill="white" stroke="#666666" points="697.5,-464.84 577.5,-464.84 577.5,-445.84 697.5,-445.84 697.5,-464.84"/>
<text text-anchor="middle" x="637.5" y="-452.84" font-family="Helvetica,sans-Serif" font-size="10.00">PositionManager::get</text>
</a>
</g>
</g>
<!-- Node2&#45;&gt;Node12 -->
<g id="edge17_Node000002_Node000012" class="edge">
<title>Node2&#45;&gt;Node12</title>
<g id="a_edge17_Node000002_Node000012"><a xlink:title=" ">
<path fill="none" stroke="#63b8ff" d="M223.97,-456.65C240.58,-481.86 277.64,-531.19 324,-550.34 398.36,-581.04 430.89,-581.63 505,-550.34 526.14,-541.41 523.05,-527.63 541,-513.34 562.35,-496.33 589.09,-480.5 608.83,-469.69"/>
<polygon fill="#63b8ff" stroke="#63b8ff" points="610.5,-472.77 617.64,-464.94 607.18,-466.6 610.5,-472.77"/>
</a>
</g>
</g>
<!-- Node14 -->
<g id="Node000014" class="node">
<title>Node14</title>
<g id="a_Node000014"><a xlink:href="classDescriptionComponentManager.html#af2c0d5093dab327c94ea345267cafa91" target="_top" xlink:title=" ">
<polygon fill="white" stroke="#666666" points="734,-95.84 541,-95.84 541,-76.84 734,-76.84 734,-95.84"/>
<text text-anchor="middle" x="637.5" y="-83.84" font-family="Helvetica,sans-Serif" font-size="10.00">DescriptionComponentManager::get</text>
</a>
</g>
</g>
<!-- Node2&#45;&gt;Node14 -->
<g id="edge15_Node000002_Node000014" class="edge">
<title>Node2&#45;&gt;Node14</title>
<g id="a_edge15_Node000002_Node000014"><a xlink:title=" ">
<path fill="none" stroke="#63b8ff" d="M234.74,-426.19C251.75,-412.31 275.28,-390.17 288,-365.34 329.18,-284.95 262.39,-231.38 324,-165.34 341.3,-146.79 490.87,-114.88 576.65,-97.85"/>
<polygon fill="#63b8ff" stroke="#63b8ff" points="577.4,-101.27 586.53,-95.9 576.04,-94.4 577.4,-101.27"/>
</a>
</g>
</g>
<!-- Node15 -->
<g id="Node000015" class="node">
<title>Node15</title>
<g id="a_Node000015"><a xlink:href="classInfoBoxManager.html#a645487042fb4dbdd2665a1a3ac67d913" target="_top" xlink:title=" ">
<polygon fill="white" stroke="#666666" points="697,-151.84 578,-151.84 578,-132.84 697,-132.84 697,-151.84"/>
<text text-anchor="middle" x="637.5" y="-139.84" font-family="Helvetica,sans-Serif" font-size="10.00">InfoBoxManager::get</text>
</a>
</g>
</g>
<!-- Node2&#45;&gt;Node15 -->
<g id="edge18_Node000002_Node000015" class="edge">
<title>Node2&#45;&gt;Node15</title>
<g id="a_edge18_Node000002_Node000015"><a xlink:title=" ">
<path fill="none" stroke="#63b8ff" d="M234.11,-426.31C250.96,-412.34 274.59,-390.01 288,-365.34 321.97,-302.81 273.29,-259.26 324,-209.34 332.98,-200.49 486.72,-170.44 575.14,-153.75"/>
<polygon fill="#63b8ff" stroke="#63b8ff" points="575.89,-157.17 585.07,-151.88 574.59,-150.29 575.89,-157.17"/>
</a>
</g>
</g>
<!-- Node16 -->
<g id="Node000016" class="node">
<title>Node16</title>
<g id="a_Node000016"><a xlink:href="classClock.html#a606f306fd13229f60d07f86cc9de4ca7" target="_top" xlink:title=" ">
<polygon fill="white" stroke="#666666" points="682,-293.84 593,-293.84 593,-274.84 682,-274.84 682,-293.84"/>
<text text-anchor="middle" x="637.5" y="-281.84" font-family="Helvetica,sans-Serif" font-size="10.00">Clock::getHour</text>
</a>
</g>
</g>
<!-- Node2&#45;&gt;Node16 -->
<g id="edge19_Node000002_Node000016" class="edge">
<title>Node2&#45;&gt;Node16</title>
<g id="a_edge19_Node000002_Node000016"><a xlink:title=" ">
<path fill="none" stroke="#63b8ff" d="M230.99,-426.04C251.34,-407.98 287.73,-378.25 324,-361.34 409.63,-321.41 518.47,-300.64 582.51,-291.13"/>
<polygon fill="#63b8ff" stroke="#63b8ff" points="583.38,-294.54 592.77,-289.65 582.38,-287.61 583.38,-294.54"/>
</a>
</g>
</g>
<!-- Node17 -->
<g id="Node000017" class="node">
<title>Node17</title>
<g id="a_Node000017"><a xlink:href="classClock.html#abcb74cc346bbd49fb8a7df7deb4c0c9c" target="_top" xlink:title=" ">
<polygon fill="white" stroke="#666666" points="698,-350.84 577,-350.84 577,-331.84 698,-331.84 698,-350.84"/>
<text text-anchor="middle" x="637.5" y="-338.84" font-family="Helvetica,sans-Serif" font-size="10.00">Clock::getTimeOfDay</text>
</a>
</g>
</g>
<!-- Node2&#45;&gt;Node17 -->
<g id="edge20_Node000002_Node000017" class="edge">
<title>Node2&#45;&gt;Node17</title>
<g id="a_edge20_Node000002_Node000017"><a xlink:title=" ">
<path fill="none" stroke="#63b8ff" d="M286.13,-443.28C347.42,-442.1 436.35,-433.47 505,-398.34 525.42,-387.88 520.9,-372.39 541,-361.34 549.07,-356.9 558.01,-353.45 567.1,-350.76"/>
<polygon fill="#63b8ff" stroke="#63b8ff" points="568.22,-354.08 576.98,-348.13 566.42,-347.32 568.22,-354.08"/>
</a>
</g>
</g>
<!-- Node4 -->
<g id="Node000004" class="node">
<title>Node4</title>
<g id="a_Node000004"><a xlink:href="classPathfinder.html#a606e84e19623d97559d949a2e27e451c" target="_top" xlink:title="Finds the shortest path from a start point to the nearest valid cell of a named zone.">
<polygon fill="white" stroke="#666666" points="710.5,-540.84 564.5,-540.84 564.5,-521.84 710.5,-521.84 710.5,-540.84"/>
<text text-anchor="middle" x="637.5" y="-528.84" font-family="Helvetica,sans-Serif" font-size="10.00">Pathfinder::findPathToZone</text>
</a>
</g>
</g>
<!-- Node3&#45;&gt;Node4 -->
<g id="edge3_Node000003_Node000004" class="edge">
<title>Node3&#45;&gt;Node4</title>
<g id="a_edge3_Node000003_Node000004"><a xlink:title=" ">
<path fill="none" stroke="#63b8ff" d="M505.07,-531.34C521.27,-531.34 538.08,-531.34 554.06,-531.34"/>
<polygon fill="#63b8ff" stroke="#63b8ff" points="554.43,-534.84 564.43,-531.34 554.43,-527.84 554.43,-534.84"/>
</a>
</g>
</g>
<!-- Node3&#45;&gt;Node11 -->
<g id="edge12_Node000003_Node000011" class="edge">
<title>Node3&#45;&gt;Node11</title>
<g id="a_edge12_Node000003_Node000011"><a xlink:title=" ">
<path fill="none" stroke="#63b8ff" d="M470.98,-540.88C501.33,-546.09 539.1,-552.59 570.9,-558.06"/>
<polygon fill="#63b8ff" stroke="#63b8ff" points="570.55,-561.55 580.99,-559.79 571.73,-554.65 570.55,-561.55"/>
</a>
</g>
</g>
<!-- Node3&#45;&gt;Node12 -->
<g id="edge13_Node000003_Node000012" class="edge">
<title>Node3&#45;&gt;Node12</title>
<g id="a_edge13_Node000003_Node000012"><a xlink:title=" ">
<path fill="none" stroke="#63b8ff" d="M455,-521.79C470.68,-517.72 488.81,-512.69 505,-507.34 539.72,-495.86 578.56,-480.13 604.97,-468.99"/>
<polygon fill="#63b8ff" stroke="#63b8ff" points="606.61,-472.09 614.45,-464.96 603.88,-465.65 606.61,-472.09"/>
</a>
</g>
</g>
<!-- Node13 -->
<g id="Node000013" class="node">
<title>Node13</title>
<g id="a_Node000013"><a xlink:href="classAIManager.html#aa0fe5da7752c8478ae72c9cb26dc7886" target="_top" xlink:title=" ">
<polygon fill="white" stroke="#666666" points="683,-388.84 592,-388.84 592,-369.84 683,-369.84 683,-388.84"/>
<text text-anchor="middle" x="637.5" y="-376.84" font-family="Helvetica,sans-Serif" font-size="10.00">AIManager::get</text>
</a>
</g>
</g>
<!-- Node3&#45;&gt;Node13 -->
<g id="edge14_Node000003_Node000013" class="edge">
<title>Node3&#45;&gt;Node13</title>
<g id="a_edge14_Node000003_Node000013"><a xlink:title=" ">
<path fill="none" stroke="#63b8ff" d="M477.96,-521.83C487.69,-518.39 497.11,-513.7 505,-507.34 532.23,-485.37 517.15,-462.93 541,-437.34 558.81,-418.22 584.31,-403.17 604.48,-393.19"/>
<polygon fill="#63b8ff" stroke="#63b8ff" points="606.09,-396.3 613.61,-388.84 603.08,-389.98 606.09,-396.3"/>
</a>
</g>
</g>
<!-- Node5 -->
<g id="Node000005" class="node">
<title>Node5</title>
<g id="a_Node000005"><a xlink:href="classGrid.html#ae448ea0d444c23fe89743430b040537c" target="_top" xlink:title=" ">
<polygon fill="white" stroke="#666666" points="1070,-503.84 1017,-503.84 1017,-484.84 1070,-484.84 1070,-503.84"/>
<text text-anchor="middle" x="1043.5" y="-491.84" font-family="Helvetica,sans-Serif" font-size="10.00">Grid::at</text>
</a>
</g>
</g>
<!-- Node4&#45;&gt;Node5 -->
<g id="edge4_Node000004_Node000005" class="edge">
<title>Node4&#45;&gt;Node5</title>
<g id="a_edge4_Node000004_Node000005"><a xlink:title=" ">
<path fill="none" stroke="#63b8ff" d="M710.73,-524.72C797.58,-516.77 939.95,-503.73 1006.33,-497.65"/>
<polygon fill="#63b8ff" stroke="#63b8ff" points="1007.04,-501.1 1016.68,-496.7 1006.4,-494.13 1007.04,-501.1"/>
</a>
</g>
</g>
<!-- Node6 -->
<g id="Node000006" class="node">
<title>Node6</title>
<g id="a_Node000006"><a xlink:href="classPathfinder.html#aaa2739f2fbe69181ecc99c26c3e2c522" target="_top" xlink:title="Finds the shortest path from a start point to an end point using A*.">
<polygon fill="white" stroke="#666666" points="904,-568.84 794,-568.84 794,-549.84 904,-549.84 904,-568.84"/>
<text text-anchor="middle" x="849" y="-556.84" font-family="Helvetica,sans-Serif" font-size="10.00">Pathfinder::findPath</text>
</a>
</g>
</g>
<!-- Node4&#45;&gt;Node6 -->
<g id="edge5_Node000004_Node000006" class="edge">
<title>Node4&#45;&gt;Node6</title>
<g id="a_edge5_Node000004_Node000006"><a xlink:title=" ">
<path fill="none" stroke="#63b8ff" d="M709.72,-540.86C733.69,-544.06 760.28,-547.61 783.69,-550.74"/>
<polygon fill="#63b8ff" stroke="#63b8ff" points="783.48,-554.24 793.86,-552.1 784.41,-547.31 783.48,-554.24"/>
</a>
</g>
</g>
<!-- Node6&#45;&gt;Node5 -->
<g id="edge6_Node000006_Node000005" class="edge">
<title>Node6&#45;&gt;Node5</title>
<g id="a_edge6_Node000006_Node000005"><a xlink:title=" ">
<path fill="none" stroke="#63b8ff" d="M871.09,-549.74C893.72,-539.71 930.88,-523.97 964,-513.34 977.83,-508.9 993.32,-504.94 1006.87,-501.8"/>
<polygon fill="#63b8ff" stroke="#63b8ff" points="1007.8,-505.18 1016.78,-499.57 1006.26,-498.35 1007.8,-505.18"/>
</a>
</g>
</g>
<!-- Node7 -->
<g id="Node000007" class="node">
<title>Node7</title>
<g id="a_Node000007"><a xlink:href="classPathfinder.html#a939ad9b8cf09ffff15a27a833d1b5abd" target="_top" xlink:title=" ">
<polygon fill="white" stroke="#666666" points="1123,-577.84 964,-577.84 964,-558.84 1123,-558.84 1123,-577.84"/>
<text text-anchor="middle" x="1043.5" y="-565.84" font-family="Helvetica,sans-Serif" font-size="10.00">Pathfinder::calculateHeuristic</text>
</a>
</g>
</g>
<!-- Node6&#45;&gt;Node7 -->
<g id="edge7_Node000006_Node000007" class="edge">
<title>Node6&#45;&gt;Node7</title>
<g id="a_edge7_Node000006_Node000007"><a xlink:title=" ">
<path fill="none" stroke="#63b8ff" d="M904.13,-561.87C919.51,-562.59 936.68,-563.39 953.55,-564.18"/>
<polygon fill="#63b8ff" stroke="#63b8ff" points="953.84,-567.7 963.99,-564.67 954.16,-560.7 953.84,-567.7"/>
</a>
</g>
</g>
<!-- Node8 -->
<g id="Node000008" class="node">
<title>Node8</title>
<g id="a_Node000008"><a xlink:href="classGrid.html#aca5987c146fcd4226cc5dfdf927f17b1" target="_top" xlink:title=" ">
<polygon fill="white" stroke="#666666" points="1089,-540.84 998,-540.84 998,-521.84 1089,-521.84 1089,-540.84"/>
<text text-anchor="middle" x="1043.5" y="-528.84" font-family="Helvetica,sans-Serif" font-size="10.00">Grid::getHeight</text>
</a>
</g>
</g>
<!-- Node6&#45;&gt;Node8 -->
<g id="edge8_Node000006_Node000008" class="edge">
<title>Node6&#45;&gt;Node8</title>
<g id="a_edge8_Node000006_Node000008"><a xlink:title=" ">
<path fill="none" stroke="#63b8ff" d="M904.13,-551.46C930.25,-547.66 961.51,-543.12 987.71,-539.31"/>
<polygon fill="#63b8ff" stroke="#63b8ff" points="988.46,-542.73 997.85,-537.83 987.45,-535.81 988.46,-542.73"/>
</a>
</g>
</g>
<!-- Node9 -->
<g id="Node000009" class="node">
<title>Node9</title>
<g id="a_Node000009"><a xlink:href="classGrid.html#a1e87189ca4bcb28b72b5e1bb78a532b5" target="_top" xlink:title=" ">
<polygon fill="white" stroke="#666666" points="1246,-634.84 1159,-634.84 1159,-615.84 1246,-615.84 1246,-634.84"/>
<text text-anchor="middle" x="1202.5" y="-622.84" font-family="Helvetica,sans-Serif" font-size="10.00">Grid::getWidth</text>
</a>
</g>
</g>
<!-- Node6&#45;&gt;Node9 -->
<g id="edge9_Node000006_Node000009" class="edge">
<title>Node6&#45;&gt;Node9</title>
<g id="a_edge9_Node000006_Node000009"><a xlink:title=" ">
<path fill="none" stroke="#63b8ff" d="M885.52,-568.86C907.92,-574.67 937.53,-581.98 964,-587.34 1027.24,-600.14 1100.66,-611.33 1148.93,-618.19"/>
<polygon fill="#63b8ff" stroke="#63b8ff" points="1148.45,-621.66 1158.84,-619.59 1149.42,-614.73 1148.45,-621.66"/>
</a>
</g>
</g>
<!-- Node10 -->
<g id="Node000010" class="node">
<title>Node10</title>
<g id="a_Node000010"><a xlink:href="classPathfinder.html#a611239025810ac996c2c009e953e6819" target="_top" xlink:title=" ">
<polygon fill="white" stroke="#666666" points="1117,-653.84 970,-653.84 970,-634.84 1117,-634.84 1117,-653.84"/>
<text text-anchor="middle" x="1043.5" y="-641.84" font-family="Helvetica,sans-Serif" font-size="10.00">Pathfinder::reconstructPath</text>
</a>
</g>
</g>
<!-- Node6&#45;&gt;Node10 -->
<g id="edge10_Node000006_Node000010" class="edge">
<title>Node6&#45;&gt;Node10</title>
<g id="a_edge10_Node000006_Node000010"><a xlink:title=" ">
<path fill="none" stroke="#63b8ff" d="M865.75,-569.04C887.32,-582.03 927.52,-605.17 964,-620.34 974.28,-624.61 985.59,-628.51 996.35,-631.86"/>
<polygon fill="#63b8ff" stroke="#63b8ff" points="995.44,-635.25 1006.03,-634.79 997.47,-628.55 995.44,-635.25"/>
</a>
</g>
</g>
<!-- Node10&#45;&gt;Node9 -->
<g id="edge11_Node000010_Node000009" class="edge">
<title>Node10&#45;&gt;Node9</title>
<g id="a_edge11_Node000010_Node000009"><a xlink:title=" ">
<path fill="none" stroke="#63b8ff" d="M1117.03,-635.56C1127.75,-634.26 1138.63,-632.95 1148.85,-631.71"/>
<polygon fill="#63b8ff" stroke="#63b8ff" points="1149.31,-635.18 1158.81,-630.5 1148.47,-628.23 1149.31,-635.18"/>
</a>
</g>
</g>
<!-- Node18&#45;&gt;Node3 -->
<g id="edge22_Node000018_Node000003" class="edge">
<title>Node18&#45;&gt;Node3</title>
<g id="a_edge22_Node000018_Node000003"><a xlink:title=" ">
<path fill="none" stroke="#63b8ff" d="M230.48,-356.37C245.92,-371.22 269.6,-394.92 288,-417.34 305.83,-439.07 304.13,-449.46 324,-469.34 342.95,-488.29 368.37,-505.27 387.27,-516.65"/>
<polygon fill="#63b8ff" stroke="#63b8ff" points="385.58,-519.71 395.97,-521.77 389.13,-513.68 385.58,-519.71"/>
</a>
</g>
</g>
<!-- Node18&#45;&gt;Node11 -->
<g id="edge24_Node000018_Node000011" class="edge">
<title>Node18&#45;&gt;Node11</title>
<g id="a_edge24_Node000018_Node000011"><a xlink:title=" ">
<path fill="none" stroke="#63b8ff" d="M234.52,-356.59C251.4,-370.55 274.84,-392.73 288,-417.34 323.6,-483.91 265.23,-535.95 324,-583.34 406.29,-649.7 544.13,-607.04 605.45,-582.79"/>
<polygon fill="#63b8ff" stroke="#63b8ff" points="607.01,-585.94 614.96,-578.93 604.38,-579.45 607.01,-585.94"/>
</a>
</g>
</g>
<!-- Node18&#45;&gt;Node12 -->
<g id="edge25_Node000018_Node000012" class="edge">
<title>Node18&#45;&gt;Node12</title>
<g id="a_edge25_Node000018_Node000012"><a xlink:title=" ">
<path fill="none" stroke="#63b8ff" d="M227.17,-356.41C245.88,-377.45 283.13,-414.9 324,-431.34 402.95,-463.08 502.06,-465 567.23,-461.68"/>
<polygon fill="#63b8ff" stroke="#63b8ff" points="567.61,-465.17 577.39,-461.11 567.21,-458.18 567.61,-465.17"/>
</a>
</g>
</g>
<!-- Node18&#45;&gt;Node14 -->
<g id="edge23_Node000018_Node000014" class="edge">
<title>Node18&#45;&gt;Node14</title>
<g id="a_edge23_Node000018_Node000014"><a xlink:title=" ">
<path fill="none" stroke="#63b8ff" d="M241.48,-326.12C257.38,-315.77 276.57,-300.66 288,-282.34 326.59,-220.5 269.79,-171.06 324,-122.34 394.03,-59.4 511.46,-64.91 580.69,-75.21"/>
<polygon fill="#63b8ff" stroke="#63b8ff" points="580.54,-78.73 590.96,-76.83 581.63,-71.82 580.54,-78.73"/>
</a>
</g>
</g>
<!-- Node18&#45;&gt;Node15 -->
<g id="edge26_Node000018_Node000015" class="edge">
<title>Node18&#45;&gt;Node15</title>
<g id="a_edge26_Node000018_Node000015"><a xlink:title=" ">
<path fill="none" stroke="#63b8ff" d="M240.12,-326.16C255.9,-315.64 275.45,-300.32 288,-282.34 316.72,-241.2 284.85,-206.72 324,-175.34 396.27,-117.4 510.14,-121.8 578.63,-131.33"/>
<polygon fill="#63b8ff" stroke="#63b8ff" points="578.41,-134.84 588.81,-132.83 579.43,-127.91 578.41,-134.84"/>
</a>
</g>
</g>
<!-- Node18&#45;&gt;Node16 -->
<g id="edge27_Node000018_Node000016" class="edge">
<title>Node18&#45;&gt;Node16</title>
<g id="a_edge27_Node000018_Node000016"><a xlink:title=" ">
<path fill="none" stroke="#63b8ff" d="M238.61,-326.17C260.09,-313.59 292.85,-296.62 324,-289.34 412.84,-268.57 519.79,-272.92 582.73,-278.36"/>
<polygon fill="#63b8ff" stroke="#63b8ff" points="582.55,-281.86 592.82,-279.27 583.18,-274.89 582.55,-281.86"/>
</a>
</g>
</g>
<!-- Node18&#45;&gt;Node17 -->
<g id="edge28_Node000018_Node000017" class="edge">
<title>Node18&#45;&gt;Node17</title>
<g id="a_edge28_Node000018_Node000017"><a xlink:title=" ">
<path fill="none" stroke="#63b8ff" d="M288.01,-341.34C366.43,-341.34 489.73,-341.34 566.7,-341.34"/>
<polygon fill="#63b8ff" stroke="#63b8ff" points="566.78,-344.84 576.78,-341.34 566.78,-337.84 566.78,-344.84"/>
</a>
</g>
</g>
<!-- Node19 -->
<g id="Node000019" class="node">
<title>Node19</title>
<g id="a_Node000019"><a xlink:href="classAISystem.html#a3e9a6b233a440655d47ce5041941d698" target="_top" xlink:title=" ">
<polygon fill="white" stroke="#666666" points="486.5,-236.84 342.5,-236.84 342.5,-217.84 486.5,-217.84 486.5,-236.84"/>
<text text-anchor="middle" x="414.5" y="-224.84" font-family="Helvetica,sans-Serif" font-size="10.00">AISystem::planNextAction</text>
</a>
</g>
</g>
<!-- Node18&#45;&gt;Node19 -->
<g id="edge29_Node000018_Node000019" class="edge">
<title>Node18&#45;&gt;Node19</title>
<g id="a_edge29_Node000018_Node000019"><a xlink:title=" ">
<path fill="none" stroke="#63b8ff" d="M233.68,-326.23C248.6,-314.42 269.76,-297.51 288,-282.34 304.24,-268.84 305.33,-261.21 324,-251.34 332.85,-246.66 342.69,-242.83 352.51,-239.72"/>
<polygon fill="#63b8ff" stroke="#63b8ff" points="353.69,-243.03 362.29,-236.85 351.71,-236.31 353.69,-243.03"/>
</a>
</g>
</g>
<!-- Node23 -->
<g id="Node000023" class="node">
<title>Node23</title>
<g id="a_Node000023"><a xlink:href="classAISystem.html#a78ba48851d99fa06efdfaf41f5456217" target="_top" xlink:title=" ">
<polygon fill="white" stroke="#666666" points="501,-388.84 328,-388.84 328,-369.84 501,-369.84 501,-388.84"/>
<text text-anchor="middle" x="414.5" y="-376.84" font-family="Helvetica,sans-Serif" font-size="10.00">AISystem::shouldReplanActivity</text>
</a>
</g>
</g>
<!-- Node18&#45;&gt;Node23 -->
<g id="edge40_Node000018_Node000023" class="edge">
<title>Node18&#45;&gt;Node23</title>
<g id="a_edge40_Node000018_Node000023"><a xlink:title=" ">
<path fill="none" stroke="#63b8ff" d="M288.03,-355.38C309.63,-359.5 332.99,-363.96 353.62,-367.9"/>
<polygon fill="#63b8ff" stroke="#63b8ff" points="353.04,-371.35 363.52,-369.79 354.35,-364.48 353.04,-371.35"/>
</a>
</g>
</g>
<!-- Node19&#45;&gt;Node11 -->
<g id="edge31_Node000019_Node000011" class="edge">
<title>Node19&#45;&gt;Node11</title>
<g id="a_edge31_Node000019_Node000011"><a xlink:title=" ">
<path fill="none" stroke="#63b8ff" d="M423.97,-236.96C441.95,-257.95 484.02,-310.07 505,-361.34 537.39,-440.47 480.78,-489.63 541,-550.34 546.61,-555.99 553.39,-560.21 560.71,-563.32"/>
<polygon fill="#63b8ff" stroke="#63b8ff" points="559.65,-566.66 570.24,-566.71 561.99,-560.06 559.65,-566.66"/>
</a>
</g>
</g>
<!-- Node19&#45;&gt;Node12 -->
<g id="edge32_Node000019_Node000012" class="edge">
<title>Node19&#45;&gt;Node12</title>
<g id="a_edge32_Node000019_Node000012"><a xlink:title=" ">
<path fill="none" stroke="#63b8ff" d="M420.66,-236.88C435.99,-264.57 483.78,-346.31 541,-398.34 560.4,-415.97 586.08,-430.94 605.93,-441.1"/>
<polygon fill="#63b8ff" stroke="#63b8ff" points="604.64,-444.37 615.15,-445.7 607.76,-438.1 604.64,-444.37"/>
</a>
</g>
</g>
<!-- Node19&#45;&gt;Node13 -->
<g id="edge33_Node000019_Node000013" class="edge">
<title>Node19&#45;&gt;Node13</title>
<g id="a_edge33_Node000019_Node000013"><a xlink:title=" ">
<path fill="none" stroke="#63b8ff" d="M421.44,-236.95C437.38,-261.85 483.78,-328.67 541,-360.34 553.38,-367.19 567.87,-371.59 581.77,-374.41"/>
<polygon fill="#63b8ff" stroke="#63b8ff" points="581.29,-377.88 591.75,-376.2 582.52,-370.99 581.29,-377.88"/>
</a>
</g>
</g>
<!-- Node19&#45;&gt;Node14 -->
<g id="edge30_Node000019_Node000014" class="edge">
<title>Node19&#45;&gt;Node14</title>
<g id="a_edge30_Node000019_Node000014"><a xlink:title=" ">
<path fill="none" stroke="#63b8ff" d="M431.93,-217.73C450.62,-206.42 481.56,-186.48 505,-165.34 523.25,-148.87 520.93,-137.54 541,-123.34 555.54,-113.04 573.33,-105.14 589.6,-99.33"/>
<polygon fill="#63b8ff" stroke="#63b8ff" points="591.14,-102.51 599.49,-95.98 588.89,-95.88 591.14,-102.51"/>
</a>
</g>
</g>
<!-- Node19&#45;&gt;Node15 -->
<g id="edge34_Node000019_Node000015" class="edge">
<title>Node19&#45;&gt;Node15</title>
<g id="a_edge34_Node000019_Node000015"><a xlink:title=" ">
<path fill="none" stroke="#63b8ff" d="M456.95,-217.81C472.23,-213.88 489.58,-208.94 505,-203.34 542.29,-189.8 583.52,-169.81 609.7,-156.44"/>
<polygon fill="#63b8ff" stroke="#63b8ff" points="611.34,-159.53 618.62,-151.84 608.13,-153.31 611.34,-159.53"/>
</a>
</g>
</g>
<!-- Node19&#45;&gt;Node16 -->
<g id="edge37_Node000019_Node000016" class="edge">
<title>Node19&#45;&gt;Node16</title>
<g id="a_edge37_Node000019_Node000016"><a xlink:title=" ">
<path fill="none" stroke="#63b8ff" d="M454.98,-236.93C470.66,-241 488.79,-246.03 505,-251.34 521.31,-256.68 524.52,-260.53 541,-265.34 554.45,-269.26 569.2,-272.63 583,-275.4"/>
<polygon fill="#63b8ff" stroke="#63b8ff" points="582.37,-278.84 592.85,-277.31 583.7,-271.97 582.37,-278.84"/>
</a>
</g>
</g>
<!-- Node19&#45;&gt;Node17 -->
<g id="edge39_Node000019_Node000017" class="edge">
<title>Node19&#45;&gt;Node17</title>
<g id="a_edge39_Node000019_Node000017"><a xlink:title=" ">
<path fill="none" stroke="#63b8ff" d="M429.74,-237.04C452.56,-252.33 499.04,-282.46 541,-303.34 559.74,-312.66 581.35,-321.41 599.27,-328.17"/>
<polygon fill="#63b8ff" stroke="#63b8ff" points="598.21,-331.51 608.81,-331.7 600.65,-324.94 598.21,-331.51"/>
</a>
</g>
</g>
<!-- Node20 -->
<g id="Node000020" class="node">
<title>Node20</title>
<g id="a_Node000020"><a xlink:href="classAISystem.html#adccbbce5e828f9e07a167eb7045c7760" target="_top" xlink:title=" ">
<polygon fill="white" stroke="#666666" points="707,-255.84 568,-255.84 568,-236.84 707,-236.84 707,-255.84"/>
<text text-anchor="middle" x="637.5" y="-243.84" font-family="Helvetica,sans-Serif" font-size="10.00">AISystem::getHomeZone</text>
</a>
</g>
</g>
<!-- Node19&#45;&gt;Node20 -->
<g id="edge35_Node000019_Node000020" class="edge">
<title>Node19&#45;&gt;Node20</title>
<g id="a_edge35_Node000019_Node000020"><a xlink:title=" ">
<path fill="none" stroke="#63b8ff" d="M486.64,-233.45C509.29,-235.4 534.46,-237.56 557.62,-239.56"/>
<polygon fill="#63b8ff" stroke="#63b8ff" points="557.49,-243.06 567.75,-240.43 558.09,-236.08 557.49,-243.06"/>
</a>
</g>
</g>
<!-- Node22 -->
<g id="Node000022" class="node">
<title>Node22</title>
<g id="a_Node000022"><a xlink:href="classAISystem.html#a02ff0714c4118e6eb0d98c95e515cca8" target="_top" xlink:title=" ">
<polygon fill="white" stroke="#666666" points="730,-218.84 545,-218.84 545,-199.84 730,-199.84 730,-218.84"/>
<text text-anchor="middle" x="637.5" y="-206.84" font-family="Helvetica,sans-Serif" font-size="10.00">AISystem::getRandomLeisureZone</text>
</a>
</g>
</g>
<!-- Node19&#45;&gt;Node22 -->
<g id="edge38_Node000019_Node000022" class="edge">
<title>Node19&#45;&gt;Node22</title>
<g id="a_edge38_Node000019_Node000022"><a xlink:title=" ">
<path fill="none" stroke="#63b8ff" d="M486.64,-221.54C502,-220.29 518.53,-218.95 534.8,-217.62"/>
<polygon fill="#63b8ff" stroke="#63b8ff" points="535.21,-221.1 544.89,-216.8 534.64,-214.12 535.21,-221.1"/>
</a>
</g>
</g>
<!-- Node21 -->
<g id="Node000021" class="node">
<title>Node21</title>
<g id="a_Node000021"><a xlink:href="classHomeManager.html#aa60d21a2bc5f9440913b0324d2b36460" target="_top" xlink:title=" ">
<polygon fill="white" stroke="#666666" points="928,-255.84 770,-255.84 770,-236.84 928,-236.84 928,-255.84"/>
<text text-anchor="middle" x="849" y="-243.84" font-family="Helvetica,sans-Serif" font-size="10.00">HomeManager::getNpcHome</text>
</a>
</g>
</g>
<!-- Node20&#45;&gt;Node21 -->
<g id="edge36_Node000020_Node000021" class="edge">
<title>Node20&#45;&gt;Node21</title>
<g id="a_edge36_Node000020_Node000021"><a xlink:title=" ">
<path fill="none" stroke="#63b8ff" d="M707.1,-246.34C723.86,-246.34 742.02,-246.34 759.56,-246.34"/>
<polygon fill="#63b8ff" stroke="#63b8ff" points="759.8,-249.84 769.8,-246.34 759.8,-242.84 759.8,-249.84"/>
</a>
</g>
</g>
<!-- Node23&#45;&gt;Node13 -->
<g id="edge41_Node000023_Node000013" class="edge">
<title>Node23&#45;&gt;Node13</title>
<g id="a_edge41_Node000023_Node000013"><a xlink:title=" ">
<path fill="none" stroke="#63b8ff" d="M501.26,-379.34C528.33,-379.34 557.49,-379.34 581.78,-379.34"/>
<polygon fill="#63b8ff" stroke="#63b8ff" points="581.87,-382.84 591.87,-379.34 581.87,-375.84 581.87,-382.84"/>
</a>
</g>
</g>
<!-- Node23&#45;&gt;Node16 -->
<g id="edge42_Node000023_Node000016" class="edge">
<title>Node23&#45;&gt;Node16</title>
<g id="a_edge42_Node000023_Node000016"><a xlink:title=" ">
<path fill="none" stroke="#63b8ff" d="M436.28,-369.82C461.1,-358.51 503.92,-339.18 541,-323.34 561.52,-314.57 584.69,-305.1 603.07,-297.68"/>
<polygon fill="#63b8ff" stroke="#63b8ff" points="604.5,-300.88 612.47,-293.9 601.89,-294.39 604.5,-300.88"/>
</a>
</g>
</g>
<!-- Node23&#45;&gt;Node17 -->
<g id="edge43_Node000023_Node000017" class="edge">
<title>Node23&#45;&gt;Node17</title>
<g id="a_edge43_Node000023_Node000017"><a xlink:title=" ">
<path fill="none" stroke="#63b8ff" d="M470.98,-369.8C501.33,-364.58 539.1,-358.08 570.9,-352.62"/>
<polygon fill="#63b8ff" stroke="#63b8ff" points="571.73,-356.02 580.99,-350.88 570.55,-349.13 571.73,-356.02"/>
</a>
</g>
</g>
<!-- Node24&#45;&gt;Node11 -->
<g id="edge46_Node000024_Node000011" class="edge">
<title>Node24&#45;&gt;Node11</title>
<g id="a_edge46_Node000024_Node000011"><a xlink:title=" ">
<path fill="none" stroke="#63b8ff" d="M235.53,-273C252.57,-281.98 275.68,-297.03 288,-317.34 342.34,-406.93 246.56,-479.75 324,-550.34 357.32,-580.71 478.7,-579.69 560.01,-575.22"/>
<polygon fill="#63b8ff" stroke="#63b8ff" points="560.43,-578.7 570.21,-574.63 560.02,-571.71 560.43,-578.7"/>
</a>
</g>
</g>
<!-- Node24&#45;&gt;Node12 -->
<g id="edge47_Node000024_Node000012" class="edge">
<title>Node24&#45;&gt;Node12</title>
<g id="a_edge47_Node000024_Node000012"><a xlink:title=" ">
<path fill="none" stroke="#63b8ff" d="M232.61,-272.99C248.91,-282.45 272.61,-298.22 288,-317.34 312.7,-348.03 293.03,-373.98 324,-398.34 388.27,-448.89 424.56,-416.66 505,-431.34 527.67,-435.47 552.54,-440.01 574.48,-444.02"/>
<polygon fill="#63b8ff" stroke="#63b8ff" points="573.88,-447.46 584.35,-445.82 575.14,-440.58 573.88,-447.46"/>
</a>
</g>
</g>
<!-- Node24&#45;&gt;Node14 -->
<g id="edge45_Node000024_Node000014" class="edge">
<title>Node24&#45;&gt;Node14</title>
<g id="a_edge45_Node000024_Node000014"><a xlink:title=" ">
<path fill="none" stroke="#63b8ff" d="M215.36,-253.67C219.29,-215.91 239.25,-77.83 324,-23.34 418.18,37.21 558.65,-37.27 613.45,-71.19"/>
<polygon fill="#63b8ff" stroke="#63b8ff" points="611.75,-74.25 622.07,-76.63 615.48,-68.34 611.75,-74.25"/>
</a>
</g>
</g>
<!-- Node24&#45;&gt;Node15 -->
<g id="edge48_Node000024_Node000015" class="edge">
<title>Node24&#45;&gt;Node15</title>
<g id="a_edge48_Node000024_Node000015"><a xlink:title=" ">
<path fill="none" stroke="#63b8ff" d="M217.42,-253.5C226.9,-223.57 260,-133.56 324,-99.34 394.94,-61.4 425.56,-86.68 505,-99.34 540.13,-104.93 578.61,-118.44 604.82,-128.84"/>
<polygon fill="#63b8ff" stroke="#63b8ff" points="603.65,-132.14 614.23,-132.65 606.28,-125.65 603.65,-132.14"/>
</a>
</g>
</g>
<!-- Node24&#45;&gt;Node19 -->
<g id="edge49_Node000024_Node000019" class="edge">
<title>Node24&#45;&gt;Node19</title>
<g id="a_edge49_Node000024_Node000019"><a xlink:title=" ">
<path fill="none" stroke="#63b8ff" d="M267.05,-253.83C292.67,-249.19 323.7,-243.58 350.58,-238.72"/>
<polygon fill="#63b8ff" stroke="#63b8ff" points="351.44,-242.12 360.66,-236.9 350.2,-235.23 351.44,-242.12"/>
</a>
</g>
</g>
</g>
</svg>

<g id="navigator" transform="translate(0 0)" fill="#404254">
  <rect fill="#f2f5e9" fill-opacity="0.5" stroke="#606060" stroke-width=".5" x="0" y="0" width="60" height="60"/>
  <use id="zoomplus" xlink:href="#zoomPlus" x="17" y="9" onmousedown="handleZoom(evt,'in')"/>
  <use id="zoomminus" xlink:href="#zoomMin" x="42" y="9" onmousedown="handleZoom(evt,'out')"/>
  <use id="reset" xlink:href="#resetDef" x="30" y="36" onmousedown="handleReset()"/>
   <use id="arrowup" xlink:href="#arrowUp" x="0" y="0" onmousedown="handlePan(0,-1)"/>
  <use id="arrowright" xlink:href="#arrowRight" x="0" y="0" onmousedown="handlePan(1,0)"/>
  <use id="arrowdown" xlink:href="#arrowDown" x="0" y="0" onmousedown="handlePan(0,1)"/>
  <use id="arrowleft" xlink:href="#arrowLeft" x="0" y="0" onmousedown="handlePan(-1,0)"/>
</g>
<svg viewBox="0 0 15 15" width="100%" height="30px" preserveAspectRatio="xMaxYMin meet">
 <g id="arrow_out" transform="scale(0.3 0.3)">
  <a xlink:href="classAISystem_a4c1e02a04a3053c073e58ad44f4d0293_cgraph_org.svg" target="_base">
   <rect id="button" ry="5" rx="5" y="6" x="6" height="38" width="38"
        fill="#f2f5e9" fill-opacity="0.5" stroke="#606060" stroke-width="1.0"/>
   <path id="arrow"
     d="M 11.500037,31.436501 C 11.940474,20.09759 22.043105,11.32322 32.158766,21.979434 L 37.068811,17.246167 C 37.068811,17.246167 37.088388,32 37.088388,32 L 22.160133,31.978069 C 22.160133,31.978069 26.997745,27.140456 26.997745,27.140456 C 18.528582,18.264221 13.291696,25.230495 11.500037,31.436501 z"
     style="fill:#404040;"/>
  </a>
 </g>
</svg>

<style type='text/css'>
<![CDATA[
[data-mouse-over-selected='false'] { opacity: 0.7; }
[data-mouse-over-selected='true']  { opacity: 1.0; }
]]>
</style>
<script type="application/ecmascript"><![CDATA[
document.addEventListener('DOMContentLoaded', (event) => {
  highlightEdges();
  highlightAdjacentNodes();
});
]]></script>
</svg>
