<?xml version="1.0" encoding="UTF-8" standalone="no"?>
<!DOCTYPE svg PUBLIC "-//W3C//DTD SVG 1.1//EN"
 "http://www.w3.org/Graphics/SVG/1.1/DTD/svg11.dtd">
<!-- Generated by graphviz version 2.43.0 (0)
 -->
<!-- Title: Pathfinder::findPathToZone Pages: 1 -->
<svg width="618pt" height="177pt"
 viewBox="0.00 0.00 618.00 177.00" xmlns="http://www.w3.org/2000/svg" xmlns:xlink="http://www.w3.org/1999/xlink">
<g id="graph0" class="graph" transform="scale(1 1) rotate(0) translate(4 173)">
<title>Pathfinder::findPathToZone</title>
<!-- Node1 -->
<g id="Node000001" class="node">
<title>Node1</title>
<g id="a_Node000001"><a xlink:title="Finds the shortest path from a start point to the nearest valid cell of a named zone.">
<polygon fill="#999999" stroke="#666666" points="146,-132 0,-132 0,-113 146,-113 146,-132"/>
<text text-anchor="middle" x="73" y="-120" font-family="Helvetica,sans-Serif" font-size="10.00">Pathfinder::findPathToZone</text>
</a>
</g>
</g>
<!-- Node2 -->
<g id="Node000002" class="node">
<title>Node2</title>
<g id="a_Node000002"><a xlink:href="classGrid.html#ae448ea0d444c23fe89743430b040537c" target="_top" xlink:title=" ">
<polygon fill="white" stroke="#666666" points="434,-169 381,-169 381,-150 434,-150 434,-169"/>
<text text-anchor="middle" x="407.5" y="-157" font-family="Helvetica,sans-Serif" font-size="10.00">Grid::at</text>
</a>
</g>
</g>
<!-- Node1&#45;&gt;Node2 -->
<g id="edge1_Node000001_Node000002" class="edge">
<title>Node1&#45;&gt;Node2</title>
<g id="a_edge1_Node000001_Node000002"><a xlink:title=" ">
<path fill="none" stroke="#63b8ff" d="M146.15,-130.53C215.44,-138.24 317.26,-149.57 370.72,-155.52"/>
<polygon fill="#63b8ff" stroke="#63b8ff" points="370.41,-159.01 380.74,-156.63 371.19,-152.05 370.41,-159.01"/>
</a>
</g>
</g>
<!-- Node3 -->
<g id="Node000003" class="node">
<title>Node3</title>
<g id="a_Node000003"><a xlink:href="classPathfinder.html#aaa2739f2fbe69181ecc99c26c3e2c522" target="_top" xlink:title="Finds the shortest path from a start point to an end point using A*.">
<polygon fill="white" stroke="#666666" points="292,-113 182,-113 182,-94 292,-94 292,-113"/>
<text text-anchor="middle" x="237" y="-101" font-family="Helvetica,sans-Serif" font-size="10.00">Pathfinder::findPath</text>
</a>
</g>
</g>
<!-- Node1&#45;&gt;Node3 -->
<g id="edge2_Node000001_Node000003" class="edge">
<title>Node1&#45;&gt;Node3</title>
<g id="a_edge2_Node000001_Node000003"><a xlink:title=" ">
<path fill="none" stroke="#63b8ff" d="M146.47,-114C154.86,-113.02 163.36,-112.02 171.63,-111.05"/>
<polygon fill="#63b8ff" stroke="#63b8ff" points="172.05,-114.52 181.57,-109.88 171.23,-107.57 172.05,-114.52"/>
</a>
</g>
</g>
<!-- Node3&#45;&gt;Node2 -->
<g id="edge3_Node000003_Node000002" class="edge">
<title>Node3&#45;&gt;Node2</title>
<g id="a_edge3_Node000003_Node000002"><a xlink:title=" ">
<path fill="none" stroke="#63b8ff" d="M257.99,-113.13C275.98,-121.51 303.31,-133.52 328,-141.5 341.78,-145.95 357.27,-149.75 370.82,-152.69"/>
<polygon fill="#63b8ff" stroke="#63b8ff" points="370.23,-156.15 380.74,-154.77 371.67,-149.29 370.23,-156.15"/>
</a>
</g>
</g>
<!-- Node4 -->
<g id="Node000004" class="node">
<title>Node4</title>
<g id="a_Node000004"><a xlink:href="classPathfinder.html#a939ad9b8cf09ffff15a27a833d1b5abd" target="_top" xlink:title=" ">
<polygon fill="white" stroke="#666666" points="487,-132 328,-132 328,-113 487,-113 487,-132"/>
<text text-anchor="middle" x="407.5" y="-120" font-family="Helvetica,sans-Serif" font-size="10.00">Pathfinder::calculateHeuristic</text>
</a>
</g>
</g>
<!-- Node3&#45;&gt;Node4 -->
<g id="edge4_Node000003_Node000004" class="edge">
<title>Node3&#45;&gt;Node4</title>
<g id="a_edge4_Node000003_Node000004"><a xlink:title=" ">
<path fill="none" stroke="#63b8ff" d="M292.24,-109.62C300.4,-110.54 308.99,-111.51 317.65,-112.48"/>
<polygon fill="#63b8ff" stroke="#63b8ff" points="317.49,-115.99 327.82,-113.63 318.27,-109.03 317.49,-115.99"/>
</a>
</g>
</g>
<!-- Node5 -->
<g id="Node000005" class="node">
<title>Node5</title>
<g id="a_Node000005"><a xlink:href="classGrid.html#aca5987c146fcd4226cc5dfdf927f17b1" target="_top" xlink:title=" ">
<polygon fill="white" stroke="#666666" points="453,-95 362,-95 362,-76 453,-76 453,-95"/>
<text text-anchor="middle" x="407.5" y="-83" font-family="Helvetica,sans-Serif" font-size="10.00">Grid::getHeight</text>
</a>
</g>
</g>
<!-- Node3&#45;&gt;Node5 -->
<g id="edge5_Node000003_Node000005" class="edge">
<title>Node3&#45;&gt;Node5</title>
<g id="a_edge5_Node000003_Node000005"><a xlink:title=" ">
<path fill="none" stroke="#63b8ff" d="M292.24,-97.71C311.32,-95.67 332.77,-93.38 351.88,-91.33"/>
<polygon fill="#63b8ff" stroke="#63b8ff" points="352.36,-94.8 361.94,-90.26 351.62,-87.84 352.36,-94.8"/>
</a>
</g>
</g>
<!-- Node6 -->
<g id="Node000006" class="node">
<title>Node6</title>
<g id="a_Node000006"><a xlink:href="classGrid.html#a1e87189ca4bcb28b72b5e1bb78a532b5" target="_top" xlink:title=" ">
<polygon fill="white" stroke="#666666" points="610,-38 523,-38 523,-19 610,-19 610,-38"/>
<text text-anchor="middle" x="566.5" y="-26" font-family="Helvetica,sans-Serif" font-size="10.00">Grid::getWidth</text>
</a>
</g>
</g>
<!-- Node3&#45;&gt;Node6 -->
<g id="edge6_Node000003_Node000006" class="edge">
<title>Node3&#45;&gt;Node6</title>
<g id="a_edge6_Node000003_Node000006"><a xlink:title=" ">
<path fill="none" stroke="#63b8ff" d="M258.29,-93.9C276.25,-85.77 303.36,-74.36 328,-67.5 390.38,-50.13 464.27,-39.49 512.88,-33.81"/>
<polygon fill="#63b8ff" stroke="#63b8ff" points="513.31,-37.28 522.85,-32.67 512.52,-30.33 513.31,-37.28"/>
</a>
</g>
</g>
<!-- Node7 -->
<g id="Node000007" class="node">
<title>Node7</title>
<g id="a_Node000007"><a xlink:href="classPathfinder.html#a611239025810ac996c2c009e953e6819" target="_top" xlink:title=" ">
<polygon fill="white" stroke="#666666" points="481,-19 334,-19 334,0 481,0 481,-19"/>
<text text-anchor="middle" x="407.5" y="-7" font-family="Helvetica,sans-Serif" font-size="10.00">Pathfinder::reconstructPath</text>
</a>
</g>
</g>
<!-- Node3&#45;&gt;Node7 -->
<g id="edge7_Node000003_Node000007" class="edge">
<title>Node3&#45;&gt;Node7</title>
<g id="a_edge7_Node000003_Node000007"><a xlink:title=" ">
<path fill="none" stroke="#63b8ff" d="M247.68,-93.99C263.32,-79.1 295.67,-50.28 328,-33.5 336.54,-29.06 346.04,-25.3 355.4,-22.16"/>
<polygon fill="#63b8ff" stroke="#63b8ff" points="356.57,-25.46 365.05,-19.11 354.46,-18.78 356.57,-25.46"/>
</a>
</g>
</g>
<!-- Node7&#45;&gt;Node6 -->
<g id="edge8_Node000007_Node000006" class="edge">
<title>Node7&#45;&gt;Node6</title>
<g id="a_edge8_Node000007_Node000006"><a xlink:title=" ">
<path fill="none" stroke="#63b8ff" d="M481.03,-18.28C491.75,-19.58 502.63,-20.89 512.85,-22.13"/>
<polygon fill="#63b8ff" stroke="#63b8ff" points="512.47,-25.61 522.81,-23.33 513.31,-18.66 512.47,-25.61"/>
</a>
</g>
</g>
</g>
</svg>
