<?xml version="1.0" encoding="UTF-8" standalone="no"?>
<!DOCTYPE svg PUBLIC "-//W3C//DTD SVG 1.1//EN"
 "http://www.w3.org/Graphics/SVG/1.1/DTD/svg11.dtd">
<!-- Generated by graphviz version 2.43.0 (0)
 -->
<!-- Title: Clock::updateTimeComponents Pages: 1 -->
<svg width="561pt" height="27pt"
 viewBox="0.00 0.00 561.00 27.00" xmlns="http://www.w3.org/2000/svg" xmlns:xlink="http://www.w3.org/1999/xlink">
<g id="graph0" class="graph" transform="scale(1 1) rotate(0) translate(4 23)">
<title>Clock::updateTimeComponents</title>
<!-- Node1 -->
<g id="Node000001" class="node">
<title>Node1</title>
<g id="a_Node000001"><a xlink:title=" ">
<polygon fill="#999999" stroke="#666666" points="170,-19 0,-19 0,0 170,0 170,-19"/>
<text text-anchor="middle" x="85" y="-7" font-family="Helvetica,sans-Serif" font-size="10.00">Clock::updateTimeComponents</text>
</a>
</g>
</g>
<!-- Node2 -->
<g id="Node000002" class="node">
<title>Node2</title>
<g id="a_Node000002"><a xlink:href="classTimeOfDay.html#a97e4bb6a1ed1e33f3f122ed243fdc5fb" target="_top" xlink:title=" ">
<polygon fill="white" stroke="#666666" points="365,-19 206,-19 206,0 365,0 365,-19"/>
<text text-anchor="middle" x="285.5" y="-7" font-family="Helvetica,sans-Serif" font-size="10.00">TimeOfDay::updateFromHour</text>
</a>
</g>
</g>
<!-- Node1&#45;&gt;Node2 -->
<g id="edge1_Node000001_Node000002" class="edge">
<title>Node1&#45;&gt;Node2</title>
<g id="a_edge1_Node000001_Node000002"><a xlink:title=" ">
<path fill="none" stroke="#63b8ff" d="M170.18,-9.5C178.6,-9.5 187.16,-9.5 195.62,-9.5"/>
<polygon fill="#63b8ff" stroke="#63b8ff" points="195.87,-13 205.87,-9.5 195.87,-6 195.87,-13"/>
</a>
</g>
</g>
<!-- Node3 -->
<g id="Node000003" class="node">
<title>Node3</title>
<g id="a_Node000003"><a xlink:href="classTimeOfDay.html#ab984981362421551c0548e2fd3916ee0" target="_top" xlink:title=" ">
<polygon fill="white" stroke="#666666" points="553,-19 401,-19 401,0 553,0 553,-19"/>
<text text-anchor="middle" x="477" y="-7" font-family="Helvetica,sans-Serif" font-size="10.00">TimeOfDay::calculatePeriod</text>
</a>
</g>
</g>
<!-- Node2&#45;&gt;Node3 -->
<g id="edge2_Node000002_Node000003" class="edge">
<title>Node2&#45;&gt;Node3</title>
<g id="a_edge2_Node000002_Node000003"><a xlink:title=" ">
<path fill="none" stroke="#63b8ff" d="M365.22,-9.5C373.6,-9.5 382.16,-9.5 390.62,-9.5"/>
<polygon fill="#63b8ff" stroke="#63b8ff" points="390.87,-13 400.87,-9.5 390.87,-6 390.87,-13"/>
</a>
</g>
</g>
</g>
</svg>
