<?xml version="1.0" encoding="UTF-8" standalone="no"?>
<!DOCTYPE svg PUBLIC "-//W3C//DTD SVG 1.1//EN"
 "http://www.w3.org/Graphics/SVG/1.1/DTD/svg11.dtd">
<!-- Generated by graphviz version 2.43.0 (0)
 -->
<!-- Title: AISystem::executeMovementPlan Pages: 1 -->
<svg width="835pt" height="177pt"
 viewBox="0.00 0.00 835.00 177.00" xmlns="http://www.w3.org/2000/svg" xmlns:xlink="http://www.w3.org/1999/xlink">
<g id="graph0" class="graph" transform="scale(1 1) rotate(0) translate(4 173)">
<title>AISystem::executeMovementPlan</title>
<!-- Node1 -->
<g id="Node000001" class="node">
<title>Node1</title>
<g id="a_Node000001"><a xlink:title=" ">
<polygon fill="#999999" stroke="#666666" points="181,-81 0,-81 0,-62 181,-62 181,-81"/>
<text text-anchor="middle" x="90.5" y="-69" font-family="Helvetica,sans-Serif" font-size="10.00">AISystem::executeMovementPlan</text>
</a>
</g>
</g>
<!-- Node2 -->
<g id="Node000002" class="node">
<title>Node2</title>
<g id="a_Node000002"><a xlink:href="classPathfinder.html#a606e84e19623d97559d949a2e27e451c" target="_top" xlink:title="Finds the shortest path from a start point to the nearest valid cell of a named zone.">
<polygon fill="white" stroke="#666666" points="363,-137 217,-137 217,-118 363,-118 363,-137"/>
<text text-anchor="middle" x="290" y="-125" font-family="Helvetica,sans-Serif" font-size="10.00">Pathfinder::findPathToZone</text>
</a>
</g>
</g>
<!-- Node1&#45;&gt;Node2 -->
<g id="edge1_Node000001_Node000002" class="edge">
<title>Node1&#45;&gt;Node2</title>
<g id="a_edge1_Node000001_Node000002"><a xlink:title=" ">
<path fill="none" stroke="#63b8ff" d="M121.56,-81.05C146.9,-89 184.19,-100.44 217,-109.5 224.25,-111.5 231.95,-113.53 239.5,-115.46"/>
<polygon fill="#63b8ff" stroke="#63b8ff" points="238.74,-118.88 249.3,-117.94 240.46,-112.1 238.74,-118.88"/>
</a>
</g>
</g>
<!-- Node9 -->
<g id="Node000009" class="node">
<title>Node9</title>
<g id="a_Node000009"><a xlink:href="classMovementManager.html#a114bf0653e258541fe63e3e5144aba20" target="_top" xlink:title=" ">
<polygon fill="white" stroke="#666666" points="357,-100 223,-100 223,-81 357,-81 357,-100"/>
<text text-anchor="middle" x="290" y="-88" font-family="Helvetica,sans-Serif" font-size="10.00">MovementManager::get</text>
</a>
</g>
</g>
<!-- Node1&#45;&gt;Node9 -->
<g id="edge10_Node000001_Node000009" class="edge">
<title>Node1&#45;&gt;Node9</title>
<g id="a_edge10_Node000001_Node000009"><a xlink:title=" ">
<path fill="none" stroke="#63b8ff" d="M181,-80.11C191.57,-81.13 202.27,-82.16 212.63,-83.15"/>
<polygon fill="#63b8ff" stroke="#63b8ff" points="212.57,-86.66 222.86,-84.14 213.24,-79.7 212.57,-86.66"/>
</a>
</g>
</g>
<!-- Node10 -->
<g id="Node000010" class="node">
<title>Node10</title>
<g id="a_Node000010"><a xlink:href="classPositionManager.html#ac2ce0980eefb0e2afd6e6fe08fb8c28d" target="_top" xlink:title=" ">
<polygon fill="white" stroke="#666666" points="350,-63 230,-63 230,-44 350,-44 350,-63"/>
<text text-anchor="middle" x="290" y="-51" font-family="Helvetica,sans-Serif" font-size="10.00">PositionManager::get</text>
</a>
</g>
</g>
<!-- Node1&#45;&gt;Node10 -->
<g id="edge11_Node000001_Node000010" class="edge">
<title>Node1&#45;&gt;Node10</title>
<g id="a_edge11_Node000001_Node000010"><a xlink:title=" ">
<path fill="none" stroke="#63b8ff" d="M181,-63.34C193.92,-62.17 207.05,-60.97 219.5,-59.83"/>
<polygon fill="#63b8ff" stroke="#63b8ff" points="220.14,-63.29 229.78,-58.9 219.5,-56.32 220.14,-63.29"/>
</a>
</g>
</g>
<!-- Node11 -->
<g id="Node000011" class="node">
<title>Node11</title>
<g id="a_Node000011"><a xlink:href="classAIManager.html#aa0fe5da7752c8478ae72c9cb26dc7886" target="_top" xlink:title=" ">
<polygon fill="white" stroke="#666666" points="335.5,-26 244.5,-26 244.5,-7 335.5,-7 335.5,-26"/>
<text text-anchor="middle" x="290" y="-14" font-family="Helvetica,sans-Serif" font-size="10.00">AIManager::get</text>
</a>
</g>
</g>
<!-- Node1&#45;&gt;Node11 -->
<g id="edge12_Node000001_Node000011" class="edge">
<title>Node1&#45;&gt;Node11</title>
<g id="a_edge12_Node000001_Node000011"><a xlink:title=" ">
<path fill="none" stroke="#63b8ff" d="M122.6,-61.94C147.93,-54.24 184.67,-43.3 217,-34.5 224.35,-32.5 232.14,-30.46 239.78,-28.51"/>
<polygon fill="#63b8ff" stroke="#63b8ff" points="240.85,-31.85 249.69,-26.01 239.13,-25.07 240.85,-31.85"/>
</a>
</g>
</g>
<!-- Node3 -->
<g id="Node000003" class="node">
<title>Node3</title>
<g id="a_Node000003"><a xlink:href="classGrid.html#ae448ea0d444c23fe89743430b040537c" target="_top" xlink:title=" ">
<polygon fill="white" stroke="#666666" points="651,-169 598,-169 598,-150 651,-150 651,-169"/>
<text text-anchor="middle" x="624.5" y="-157" font-family="Helvetica,sans-Serif" font-size="10.00">Grid::at</text>
</a>
</g>
</g>
<!-- Node2&#45;&gt;Node3 -->
<g id="edge2_Node000002_Node000003" class="edge">
<title>Node2&#45;&gt;Node3</title>
<g id="a_edge2_Node000002_Node000003"><a xlink:title=" ">
<path fill="none" stroke="#63b8ff" d="M363.15,-134.44C432.44,-141.11 534.26,-150.91 587.72,-156.06"/>
<polygon fill="#63b8ff" stroke="#63b8ff" points="587.45,-159.55 597.74,-157.02 588.12,-152.58 587.45,-159.55"/>
</a>
</g>
</g>
<!-- Node4 -->
<g id="Node000004" class="node">
<title>Node4</title>
<g id="a_Node000004"><a xlink:href="classPathfinder.html#aaa2739f2fbe69181ecc99c26c3e2c522" target="_top" xlink:title="Finds the shortest path from a start point to an end point using A*.">
<polygon fill="white" stroke="#666666" points="509,-113 399,-113 399,-94 509,-94 509,-113"/>
<text text-anchor="middle" x="454" y="-101" font-family="Helvetica,sans-Serif" font-size="10.00">Pathfinder::findPath</text>
</a>
</g>
</g>
<!-- Node2&#45;&gt;Node4 -->
<g id="edge3_Node000002_Node000004" class="edge">
<title>Node2&#45;&gt;Node4</title>
<g id="a_edge3_Node000002_Node000004"><a xlink:title=" ">
<path fill="none" stroke="#63b8ff" d="M355.49,-117.95C366.5,-116.31 377.94,-114.62 388.94,-112.99"/>
<polygon fill="#63b8ff" stroke="#63b8ff" points="389.52,-116.44 398.9,-111.52 388.49,-109.52 389.52,-116.44"/>
</a>
</g>
</g>
<!-- Node4&#45;&gt;Node3 -->
<g id="edge4_Node000004_Node000003" class="edge">
<title>Node4&#45;&gt;Node3</title>
<g id="a_edge4_Node000004_Node000003"><a xlink:title=" ">
<path fill="none" stroke="#63b8ff" d="M474.99,-113.13C492.98,-121.51 520.31,-133.52 545,-141.5 558.78,-145.95 574.27,-149.75 587.82,-152.69"/>
<polygon fill="#63b8ff" stroke="#63b8ff" points="587.23,-156.15 597.74,-154.77 588.67,-149.29 587.23,-156.15"/>
</a>
</g>
</g>
<!-- Node5 -->
<g id="Node000005" class="node">
<title>Node5</title>
<g id="a_Node000005"><a xlink:href="classPathfinder.html#a939ad9b8cf09ffff15a27a833d1b5abd" target="_top" xlink:title=" ">
<polygon fill="white" stroke="#666666" points="704,-132 545,-132 545,-113 704,-113 704,-132"/>
<text text-anchor="middle" x="624.5" y="-120" font-family="Helvetica,sans-Serif" font-size="10.00">Pathfinder::calculateHeuristic</text>
</a>
</g>
</g>
<!-- Node4&#45;&gt;Node5 -->
<g id="edge5_Node000004_Node000005" class="edge">
<title>Node4&#45;&gt;Node5</title>
<g id="a_edge5_Node000004_Node000005"><a xlink:title=" ">
<path fill="none" stroke="#63b8ff" d="M509.24,-109.62C517.4,-110.54 525.99,-111.51 534.65,-112.48"/>
<polygon fill="#63b8ff" stroke="#63b8ff" points="534.49,-115.99 544.82,-113.63 535.27,-109.03 534.49,-115.99"/>
</a>
</g>
</g>
<!-- Node6 -->
<g id="Node000006" class="node">
<title>Node6</title>
<g id="a_Node000006"><a xlink:href="classGrid.html#aca5987c146fcd4226cc5dfdf927f17b1" target="_top" xlink:title=" ">
<polygon fill="white" stroke="#666666" points="670,-95 579,-95 579,-76 670,-76 670,-95"/>
<text text-anchor="middle" x="624.5" y="-83" font-family="Helvetica,sans-Serif" font-size="10.00">Grid::getHeight</text>
</a>
</g>
</g>
<!-- Node4&#45;&gt;Node6 -->
<g id="edge6_Node000004_Node000006" class="edge">
<title>Node4&#45;&gt;Node6</title>
<g id="a_edge6_Node000004_Node000006"><a xlink:title=" ">
<path fill="none" stroke="#63b8ff" d="M509.24,-97.71C528.32,-95.67 549.77,-93.38 568.88,-91.33"/>
<polygon fill="#63b8ff" stroke="#63b8ff" points="569.36,-94.8 578.94,-90.26 568.62,-87.84 569.36,-94.8"/>
</a>
</g>
</g>
<!-- Node7 -->
<g id="Node000007" class="node">
<title>Node7</title>
<g id="a_Node000007"><a xlink:href="classGrid.html#a1e87189ca4bcb28b72b5e1bb78a532b5" target="_top" xlink:title=" ">
<polygon fill="white" stroke="#666666" points="827,-38 740,-38 740,-19 827,-19 827,-38"/>
<text text-anchor="middle" x="783.5" y="-26" font-family="Helvetica,sans-Serif" font-size="10.00">Grid::getWidth</text>
</a>
</g>
</g>
<!-- Node4&#45;&gt;Node7 -->
<g id="edge7_Node000004_Node000007" class="edge">
<title>Node4&#45;&gt;Node7</title>
<g id="a_edge7_Node000004_Node000007"><a xlink:title=" ">
<path fill="none" stroke="#63b8ff" d="M475.29,-93.9C493.25,-85.77 520.36,-74.36 545,-67.5 607.38,-50.13 681.27,-39.49 729.88,-33.81"/>
<polygon fill="#63b8ff" stroke="#63b8ff" points="730.31,-37.28 739.85,-32.67 729.52,-30.33 730.31,-37.28"/>
</a>
</g>
</g>
<!-- Node8 -->
<g id="Node000008" class="node">
<title>Node8</title>
<g id="a_Node000008"><a xlink:href="classPathfinder.html#a611239025810ac996c2c009e953e6819" target="_top" xlink:title=" ">
<polygon fill="white" stroke="#666666" points="698,-19 551,-19 551,0 698,0 698,-19"/>
<text text-anchor="middle" x="624.5" y="-7" font-family="Helvetica,sans-Serif" font-size="10.00">Pathfinder::reconstructPath</text>
</a>
</g>
</g>
<!-- Node4&#45;&gt;Node8 -->
<g id="edge8_Node000004_Node000008" class="edge">
<title>Node4&#45;&gt;Node8</title>
<g id="a_edge8_Node000004_Node000008"><a xlink:title=" ">
<path fill="none" stroke="#63b8ff" d="M464.68,-93.99C480.32,-79.1 512.67,-50.28 545,-33.5 553.54,-29.06 563.04,-25.3 572.4,-22.16"/>
<polygon fill="#63b8ff" stroke="#63b8ff" points="573.57,-25.46 582.05,-19.11 571.46,-18.78 573.57,-25.46"/>
</a>
</g>
</g>
<!-- Node8&#45;&gt;Node7 -->
<g id="edge9_Node000008_Node000007" class="edge">
<title>Node8&#45;&gt;Node7</title>
<g id="a_edge9_Node000008_Node000007"><a xlink:title=" ">
<path fill="none" stroke="#63b8ff" d="M698.03,-18.28C708.75,-19.58 719.63,-20.89 729.85,-22.13"/>
<polygon fill="#63b8ff" stroke="#63b8ff" points="729.47,-25.61 739.81,-23.33 730.31,-18.66 729.47,-25.61"/>
</a>
</g>
</g>
</g>
</svg>
