<?xml version="1.0" encoding="UTF-8" standalone="no"?>
<!DOCTYPE svg PUBLIC "-//W3C//DTD SVG 1.1//EN"
 "http://www.w3.org/Graphics/SVG/1.1/DTD/svg11.dtd">
<!-- Generated by graphviz version 2.43.0 (0)
 -->
<!-- Title: TiledParser::getDefaultCost Pages: 1 -->
<svg width="731pt" height="38pt"
 viewBox="0.00 0.00 731.00 38.00" xmlns="http://www.w3.org/2000/svg" xmlns:xlink="http://www.w3.org/1999/xlink">
<g id="graph0" class="graph" transform="scale(1 1) rotate(0) translate(4 34)">
<title>TiledParser::getDefaultCost</title>
<!-- Node1 -->
<g id="Node000001" class="node">
<title>Node1</title>
<g id="a_Node000001"><a xlink:title=" ">
<polygon fill="#999999" stroke="#666666" points="723,-24.5 573,-24.5 573,-5.5 723,-5.5 723,-24.5"/>
<text text-anchor="middle" x="648" y="-12.5" font-family="Helvetica,sans-Serif" font-size="10.00">TiledParser::getDefaultCost</text>
</a>
</g>
</g>
<!-- Node2 -->
<g id="Node000002" class="node">
<title>Node2</title>
<g id="a_Node000002"><a xlink:href="classTiledParser.html#a5e4e6b0628ae3c4b1495fcd5746cc652" target="_top" xlink:title=" ">
<polygon fill="white" stroke="#666666" points="537,-30 405,-30 405,0 537,0 537,-30"/>
<text text-anchor="start" x="413" y="-18" font-family="Helvetica,sans-Serif" font-size="10.00">TiledParser::processTile</text>
<text text-anchor="middle" x="471" y="-7" font-family="Helvetica,sans-Serif" font-size="10.00">Layer</text>
</a>
</g>
</g>
<!-- Node1&#45;&gt;Node2 -->
<g id="edge1_Node000001_Node000002" class="edge">
<title>Node1&#45;&gt;Node2</title>
<g id="a_edge1_Node000001_Node000002"><a xlink:title=" ">
<path fill="none" stroke="#63b8ff" d="M562.74,-15C554.16,-15 545.53,-15 537.19,-15"/>
<polygon fill="#63b8ff" stroke="#63b8ff" points="562.78,-18.5 572.78,-15 562.78,-11.5 562.78,-18.5"/>
</a>
</g>
</g>
<!-- Node3 -->
<g id="Node000003" class="node">
<title>Node3</title>
<g id="a_Node000003"><a xlink:href="classTiledParser.html#abb818e8ba61e5fea3471f40507826f62" target="_top" xlink:title="Load a Tiled JSON file and populate the given Grid.">
<polygon fill="white" stroke="#666666" points="369,-24.5 226,-24.5 226,-5.5 369,-5.5 369,-24.5"/>
<text text-anchor="middle" x="297.5" y="-12.5" font-family="Helvetica,sans-Serif" font-size="10.00">TiledParser::loadTiledMap</text>
</a>
</g>
</g>
<!-- Node2&#45;&gt;Node3 -->
<g id="edge2_Node000002_Node000003" class="edge">
<title>Node2&#45;&gt;Node3</title>
<g id="a_edge2_Node000002_Node000003"><a xlink:title=" ">
<path fill="none" stroke="#63b8ff" d="M394.47,-15C386.02,-15 377.45,-15 369.07,-15"/>
<polygon fill="#63b8ff" stroke="#63b8ff" points="394.67,-18.5 404.67,-15 394.67,-11.5 394.67,-18.5"/>
</a>
</g>
</g>
<!-- Node4 -->
<g id="Node000004" class="node">
<title>Node4</title>
<g id="a_Node000004"><a xlink:href="classGrid.html#ae7f84fbbbb1ff7597081f64be300196c" target="_top" xlink:title="Load grid from a Tiled Map Editor JSON file.">
<polygon fill="white" stroke="#666666" points="190,-24.5 77,-24.5 77,-5.5 190,-5.5 190,-24.5"/>
<text text-anchor="middle" x="133.5" y="-12.5" font-family="Helvetica,sans-Serif" font-size="10.00">Grid::loadFromTiled</text>
</a>
</g>
</g>
<!-- Node3&#45;&gt;Node4 -->
<g id="edge3_Node000003_Node000004" class="edge">
<title>Node3&#45;&gt;Node4</title>
<g id="a_edge3_Node000003_Node000004"><a xlink:title=" ">
<path fill="none" stroke="#63b8ff" d="M215.79,-15C207.15,-15 198.5,-15 190.24,-15"/>
<polygon fill="#63b8ff" stroke="#63b8ff" points="215.92,-18.5 225.92,-15 215.92,-11.5 215.92,-18.5"/>
</a>
</g>
</g>
<!-- Node5 -->
<g id="Node000005" class="node">
<title>Node5</title>
<g id="a_Node000005"><a xlink:href="main_8cpp.html#a0ddf1224851353fc92bfbff6f499fa97" target="_top" xlink:title=" ">
<polygon fill="white" stroke="#666666" points="41,-24.5 0,-24.5 0,-5.5 41,-5.5 41,-24.5"/>
<text text-anchor="middle" x="20.5" y="-12.5" font-family="Helvetica,sans-Serif" font-size="10.00">main</text>
</a>
</g>
</g>
<!-- Node4&#45;&gt;Node5 -->
<g id="edge4_Node000004_Node000005" class="edge">
<title>Node4&#45;&gt;Node5</title>
<g id="a_edge4_Node000004_Node000005"><a xlink:title=" ">
<path fill="none" stroke="#63b8ff" d="M66.58,-15C57.37,-15 48.56,-15 41.21,-15"/>
<polygon fill="#63b8ff" stroke="#63b8ff" points="66.67,-18.5 76.67,-15 66.67,-11.5 66.67,-18.5"/>
</a>
</g>
</g>
</g>
</svg>
