<?xml version="1.0" encoding="UTF-8" standalone="no"?>
<!DOCTYPE svg PUBLIC "-//W3C//DTD SVG 1.1//EN"
 "http://www.w3.org/Graphics/SVG/1.1/DTD/svg11.dtd">
<!-- Generated by graphviz version 2.43.0 (0)
 -->
<!-- Title: TiledParser::loadTiledMap Pages: 1 -->
<svg width="549pt" height="175pt"
 viewBox="0.00 0.00 549.00 175.00" xmlns="http://www.w3.org/2000/svg" xmlns:xlink="http://www.w3.org/1999/xlink">
<g id="graph0" class="graph" transform="scale(1 1) rotate(0) translate(4 171)">
<title>TiledParser::loadTiledMap</title>
<!-- Node1 -->
<g id="Node000001" class="node">
<title>Node1</title>
<g id="a_Node000001"><a xlink:title="Load a Tiled JSON file and populate the given Grid.">
<polygon fill="#999999" stroke="#666666" points="143,-117 0,-117 0,-98 143,-98 143,-117"/>
<text text-anchor="middle" x="71.5" y="-105" font-family="Helvetica,sans-Serif" font-size="10.00">TiledParser::loadTiledMap</text>
</a>
</g>
</g>
<!-- Node2 -->
<g id="Node000002" class="node">
<title>Node2</title>
<g id="a_Node000002"><a xlink:href="classTiledParser.html#ad95c5250ecee00c02bec8cf0348d568e" target="_top" xlink:title=" ">
<polygon fill="white" stroke="#666666" points="325,-146.5 179,-146.5 179,-116.5 325,-116.5 325,-146.5"/>
<text text-anchor="start" x="187" y="-134.5" font-family="Helvetica,sans-Serif" font-size="10.00">TiledParser::processObject</text>
<text text-anchor="middle" x="252" y="-123.5" font-family="Helvetica,sans-Serif" font-size="10.00">Group</text>
</a>
</g>
</g>
<!-- Node1&#45;&gt;Node2 -->
<g id="edge1_Node000001_Node000002" class="edge">
<title>Node1&#45;&gt;Node2</title>
<g id="a_edge1_Node000001_Node000002"><a xlink:title=" ">
<path fill="none" stroke="#63b8ff" d="M143.05,-116.99C151.52,-118.12 160.23,-119.3 168.86,-120.46"/>
<polygon fill="#63b8ff" stroke="#63b8ff" points="168.54,-123.94 178.92,-121.81 169.47,-117.01 168.54,-123.94"/>
</a>
</g>
</g>
<!-- Node3 -->
<g id="Node000003" class="node">
<title>Node3</title>
<g id="a_Node000003"><a xlink:href="classTiledParser.html#a5e4e6b0628ae3c4b1495fcd5746cc652" target="_top" xlink:title=" ">
<polygon fill="white" stroke="#666666" points="318,-98.5 186,-98.5 186,-68.5 318,-68.5 318,-98.5"/>
<text text-anchor="start" x="194" y="-86.5" font-family="Helvetica,sans-Serif" font-size="10.00">TiledParser::processTile</text>
<text text-anchor="middle" x="252" y="-75.5" font-family="Helvetica,sans-Serif" font-size="10.00">Layer</text>
</a>
</g>
</g>
<!-- Node1&#45;&gt;Node3 -->
<g id="edge2_Node000001_Node000003" class="edge">
<title>Node1&#45;&gt;Node3</title>
<g id="a_edge2_Node000001_Node000003"><a xlink:title=" ">
<path fill="none" stroke="#63b8ff" d="M143.05,-98.01C153.87,-96.56 165.07,-95.05 175.98,-93.59"/>
<polygon fill="#63b8ff" stroke="#63b8ff" points="176.45,-97.05 185.9,-92.25 175.52,-90.12 176.45,-97.05"/>
</a>
</g>
</g>
<!-- Node4 -->
<g id="Node000004" class="node">
<title>Node4</title>
<g id="a_Node000004"><a xlink:href="classGrid.html#ae448ea0d444c23fe89743430b040537c" target="_top" xlink:title=" ">
<polygon fill="white" stroke="#666666" points="477.5,-167 424.5,-167 424.5,-148 477.5,-148 477.5,-167"/>
<text text-anchor="middle" x="451" y="-155" font-family="Helvetica,sans-Serif" font-size="10.00">Grid::at</text>
</a>
</g>
</g>
<!-- Node3&#45;&gt;Node4 -->
<g id="edge3_Node000003_Node000004" class="edge">
<title>Node3&#45;&gt;Node4</title>
<g id="a_edge3_Node000003_Node000004"><a xlink:title=" ">
<path fill="none" stroke="#63b8ff" d="M306.37,-98.55C312.83,-101.16 319.18,-104.14 325,-107.5 343.53,-118.21 341.85,-129.94 361,-139.5 377.47,-147.72 397.43,-152.19 414.27,-154.62"/>
<polygon fill="#63b8ff" stroke="#63b8ff" points="413.94,-158.1 424.3,-155.88 414.81,-151.16 413.94,-158.1"/>
</a>
</g>
</g>
<!-- Node5 -->
<g id="Node000005" class="node">
<title>Node5</title>
<g id="a_Node000005"><a xlink:href="classTiledParser.html#af67db27823fe46505258abebb377a47d" target="_top" xlink:title=" ">
<polygon fill="white" stroke="#666666" points="526,-130 376,-130 376,-111 526,-111 526,-130"/>
<text text-anchor="middle" x="451" y="-118" font-family="Helvetica,sans-Serif" font-size="10.00">TiledParser::getDefaultCost</text>
</a>
</g>
</g>
<!-- Node3&#45;&gt;Node5 -->
<g id="edge4_Node000003_Node000005" class="edge">
<title>Node3&#45;&gt;Node5</title>
<g id="a_edge4_Node000003_Node000005"><a xlink:title=" ">
<path fill="none" stroke="#63b8ff" d="M318.05,-95.72C340.99,-100.03 366.67,-104.85 389.24,-109.09"/>
<polygon fill="#63b8ff" stroke="#63b8ff" points="388.89,-112.58 399.37,-110.99 390.19,-105.7 388.89,-112.58"/>
</a>
</g>
</g>
<!-- Node6 -->
<g id="Node000006" class="node">
<title>Node6</title>
<g id="a_Node000006"><a xlink:href="classGrid.html#aca5987c146fcd4226cc5dfdf927f17b1" target="_top" xlink:title=" ">
<polygon fill="white" stroke="#666666" points="496.5,-93 405.5,-93 405.5,-74 496.5,-74 496.5,-93"/>
<text text-anchor="middle" x="451" y="-81" font-family="Helvetica,sans-Serif" font-size="10.00">Grid::getHeight</text>
</a>
</g>
</g>
<!-- Node3&#45;&gt;Node6 -->
<g id="edge5_Node000003_Node000006" class="edge">
<title>Node3&#45;&gt;Node6</title>
<g id="a_edge5_Node000003_Node000006"><a xlink:title=" ">
<path fill="none" stroke="#63b8ff" d="M318.05,-83.5C342.95,-83.5 371.08,-83.5 394.95,-83.5"/>
<polygon fill="#63b8ff" stroke="#63b8ff" points="395.24,-87 405.24,-83.5 395.24,-80 395.24,-87"/>
</a>
</g>
</g>
<!-- Node7 -->
<g id="Node000007" class="node">
<title>Node7</title>
<g id="a_Node000007"><a xlink:href="classGrid.html#a1e87189ca4bcb28b72b5e1bb78a532b5" target="_top" xlink:title=" ">
<polygon fill="white" stroke="#666666" points="494.5,-56 407.5,-56 407.5,-37 494.5,-37 494.5,-56"/>
<text text-anchor="middle" x="451" y="-44" font-family="Helvetica,sans-Serif" font-size="10.00">Grid::getWidth</text>
</a>
</g>
</g>
<!-- Node3&#45;&gt;Node7 -->
<g id="edge6_Node000003_Node000007" class="edge">
<title>Node3&#45;&gt;Node7</title>
<g id="a_edge6_Node000003_Node000007"><a xlink:title=" ">
<path fill="none" stroke="#63b8ff" d="M318.05,-71.28C343.74,-66.46 372.88,-60.98 397.23,-56.41"/>
<polygon fill="#63b8ff" stroke="#63b8ff" points="398.16,-59.8 407.35,-54.51 396.87,-52.92 398.16,-59.8"/>
</a>
</g>
</g>
<!-- Node8 -->
<g id="Node000008" class="node">
<title>Node8</title>
<g id="a_Node000008"><a xlink:href="classTiledParser.html#a459b727eea79ddef73d8fd0c3a4b4229" target="_top" xlink:title=" ">
<polygon fill="white" stroke="#666666" points="541,-19 361,-19 361,0 541,0 541,-19"/>
<text text-anchor="middle" x="451" y="-7" font-family="Helvetica,sans-Serif" font-size="10.00">TiledParser::stringToObstacleType</text>
</a>
</g>
</g>
<!-- Node3&#45;&gt;Node8 -->
<g id="edge7_Node000003_Node000008" class="edge">
<title>Node3&#45;&gt;Node8</title>
<g id="a_edge7_Node000003_Node000008"><a xlink:title=" ">
<path fill="none" stroke="#63b8ff" d="M277.91,-68.44C299.29,-56.12 331.25,-39.05 361,-28.5 368.52,-25.84 376.53,-23.48 384.55,-21.42"/>
<polygon fill="#63b8ff" stroke="#63b8ff" points="385.41,-24.82 394.3,-19.05 383.76,-18.01 385.41,-24.82"/>
</a>
</g>
</g>
</g>
</svg>
