<?xml version="1.0" encoding="UTF-8" standalone="no"?>
<!DOCTYPE svg PUBLIC "-//W3C//DTD SVG 1.1//EN"
 "http://www.w3.org/Graphics/SVG/1.1/DTD/svg11.dtd">
<!-- Generated by graphviz version 2.43.0 (0)
 -->
<!-- Title: Grid::loadFromTiled Pages: 1 -->
<svg width="698pt" height="175pt"
 viewBox="0.00 0.00 698.00 175.00" xmlns="http://www.w3.org/2000/svg" xmlns:xlink="http://www.w3.org/1999/xlink">
<g id="graph0" class="graph" transform="scale(1 1) rotate(0) translate(4 171)">
<title>Grid::loadFromTiled</title>
<!-- Node1 -->
<g id="Node000001" class="node">
<title>Node1</title>
<g id="a_Node000001"><a xlink:title="Load grid from a Tiled Map Editor JSON file.">
<polygon fill="#999999" stroke="#666666" points="113,-117 0,-117 0,-98 113,-98 113,-117"/>
<text text-anchor="middle" x="56.5" y="-105" font-family="Helvetica,sans-Serif" font-size="10.00">Grid::loadFromTiled</text>
</a>
</g>
</g>
<!-- Node2 -->
<g id="Node000002" class="node">
<title>Node2</title>
<g id="a_Node000002"><a xlink:href="classTiledParser.html#abb818e8ba61e5fea3471f40507826f62" target="_top" xlink:title="Load a Tiled JSON file and populate the given Grid.">
<polygon fill="white" stroke="#666666" points="292,-117 149,-117 149,-98 292,-98 292,-117"/>
<text text-anchor="middle" x="220.5" y="-105" font-family="Helvetica,sans-Serif" font-size="10.00">TiledParser::loadTiledMap</text>
</a>
</g>
</g>
<!-- Node1&#45;&gt;Node2 -->
<g id="edge1_Node000001_Node000002" class="edge">
<title>Node1&#45;&gt;Node2</title>
<g id="a_edge1_Node000001_Node000002"><a xlink:title=" ">
<path fill="none" stroke="#63b8ff" d="M113.25,-107.5C121.47,-107.5 130.08,-107.5 138.69,-107.5"/>
<polygon fill="#63b8ff" stroke="#63b8ff" points="138.77,-111 148.77,-107.5 138.77,-104 138.77,-111"/>
</a>
</g>
</g>
<!-- Node3 -->
<g id="Node000003" class="node">
<title>Node3</title>
<g id="a_Node000003"><a xlink:href="classTiledParser.html#ad95c5250ecee00c02bec8cf0348d568e" target="_top" xlink:title=" ">
<polygon fill="white" stroke="#666666" points="474,-146.5 328,-146.5 328,-116.5 474,-116.5 474,-146.5"/>
<text text-anchor="start" x="336" y="-134.5" font-family="Helvetica,sans-Serif" font-size="10.00">TiledParser::processObject</text>
<text text-anchor="middle" x="401" y="-123.5" font-family="Helvetica,sans-Serif" font-size="10.00">Group</text>
</a>
</g>
</g>
<!-- Node2&#45;&gt;Node3 -->
<g id="edge2_Node000002_Node000003" class="edge">
<title>Node2&#45;&gt;Node3</title>
<g id="a_edge2_Node000002_Node000003"><a xlink:title=" ">
<path fill="none" stroke="#63b8ff" d="M292.05,-116.99C300.52,-118.12 309.23,-119.3 317.86,-120.46"/>
<polygon fill="#63b8ff" stroke="#63b8ff" points="317.54,-123.94 327.92,-121.81 318.47,-117.01 317.54,-123.94"/>
</a>
</g>
</g>
<!-- Node4 -->
<g id="Node000004" class="node">
<title>Node4</title>
<g id="a_Node000004"><a xlink:href="classTiledParser.html#a5e4e6b0628ae3c4b1495fcd5746cc652" target="_top" xlink:title=" ">
<polygon fill="white" stroke="#666666" points="467,-98.5 335,-98.5 335,-68.5 467,-68.5 467,-98.5"/>
<text text-anchor="start" x="343" y="-86.5" font-family="Helvetica,sans-Serif" font-size="10.00">TiledParser::processTile</text>
<text text-anchor="middle" x="401" y="-75.5" font-family="Helvetica,sans-Serif" font-size="10.00">Layer</text>
</a>
</g>
</g>
<!-- Node2&#45;&gt;Node4 -->
<g id="edge3_Node000002_Node000004" class="edge">
<title>Node2&#45;&gt;Node4</title>
<g id="a_edge3_Node000002_Node000004"><a xlink:title=" ">
<path fill="none" stroke="#63b8ff" d="M292.05,-98.01C302.87,-96.56 314.07,-95.05 324.98,-93.59"/>
<polygon fill="#63b8ff" stroke="#63b8ff" points="325.45,-97.05 334.9,-92.25 324.52,-90.12 325.45,-97.05"/>
</a>
</g>
</g>
<!-- Node5 -->
<g id="Node000005" class="node">
<title>Node5</title>
<g id="a_Node000005"><a xlink:href="classGrid.html#ae448ea0d444c23fe89743430b040537c" target="_top" xlink:title=" ">
<polygon fill="white" stroke="#666666" points="626.5,-167 573.5,-167 573.5,-148 626.5,-148 626.5,-167"/>
<text text-anchor="middle" x="600" y="-155" font-family="Helvetica,sans-Serif" font-size="10.00">Grid::at</text>
</a>
</g>
</g>
<!-- Node4&#45;&gt;Node5 -->
<g id="edge4_Node000004_Node000005" class="edge">
<title>Node4&#45;&gt;Node5</title>
<g id="a_edge4_Node000004_Node000005"><a xlink:title=" ">
<path fill="none" stroke="#63b8ff" d="M455.37,-98.55C461.83,-101.16 468.18,-104.14 474,-107.5 492.53,-118.21 490.85,-129.94 510,-139.5 526.47,-147.72 546.43,-152.19 563.27,-154.62"/>
<polygon fill="#63b8ff" stroke="#63b8ff" points="562.94,-158.1 573.3,-155.88 563.81,-151.16 562.94,-158.1"/>
</a>
</g>
</g>
<!-- Node6 -->
<g id="Node000006" class="node">
<title>Node6</title>
<g id="a_Node000006"><a xlink:href="classTiledParser.html#af67db27823fe46505258abebb377a47d" target="_top" xlink:title=" ">
<polygon fill="white" stroke="#666666" points="675,-130 525,-130 525,-111 675,-111 675,-130"/>
<text text-anchor="middle" x="600" y="-118" font-family="Helvetica,sans-Serif" font-size="10.00">TiledParser::getDefaultCost</text>
</a>
</g>
</g>
<!-- Node4&#45;&gt;Node6 -->
<g id="edge5_Node000004_Node000006" class="edge">
<title>Node4&#45;&gt;Node6</title>
<g id="a_edge5_Node000004_Node000006"><a xlink:title=" ">
<path fill="none" stroke="#63b8ff" d="M467.05,-95.72C489.99,-100.03 515.67,-104.85 538.24,-109.09"/>
<polygon fill="#63b8ff" stroke="#63b8ff" points="537.89,-112.58 548.37,-110.99 539.19,-105.7 537.89,-112.58"/>
</a>
</g>
</g>
<!-- Node7 -->
<g id="Node000007" class="node">
<title>Node7</title>
<g id="a_Node000007"><a xlink:href="classGrid.html#aca5987c146fcd4226cc5dfdf927f17b1" target="_top" xlink:title=" ">
<polygon fill="white" stroke="#666666" points="645.5,-93 554.5,-93 554.5,-74 645.5,-74 645.5,-93"/>
<text text-anchor="middle" x="600" y="-81" font-family="Helvetica,sans-Serif" font-size="10.00">Grid::getHeight</text>
</a>
</g>
</g>
<!-- Node4&#45;&gt;Node7 -->
<g id="edge6_Node000004_Node000007" class="edge">
<title>Node4&#45;&gt;Node7</title>
<g id="a_edge6_Node000004_Node000007"><a xlink:title=" ">
<path fill="none" stroke="#63b8ff" d="M467.05,-83.5C491.95,-83.5 520.08,-83.5 543.95,-83.5"/>
<polygon fill="#63b8ff" stroke="#63b8ff" points="544.24,-87 554.24,-83.5 544.24,-80 544.24,-87"/>
</a>
</g>
</g>
<!-- Node8 -->
<g id="Node000008" class="node">
<title>Node8</title>
<g id="a_Node000008"><a xlink:href="classGrid.html#a1e87189ca4bcb28b72b5e1bb78a532b5" target="_top" xlink:title=" ">
<polygon fill="white" stroke="#666666" points="643.5,-56 556.5,-56 556.5,-37 643.5,-37 643.5,-56"/>
<text text-anchor="middle" x="600" y="-44" font-family="Helvetica,sans-Serif" font-size="10.00">Grid::getWidth</text>
</a>
</g>
</g>
<!-- Node4&#45;&gt;Node8 -->
<g id="edge7_Node000004_Node000008" class="edge">
<title>Node4&#45;&gt;Node8</title>
<g id="a_edge7_Node000004_Node000008"><a xlink:title=" ">
<path fill="none" stroke="#63b8ff" d="M467.05,-71.28C492.74,-66.46 521.88,-60.98 546.23,-56.41"/>
<polygon fill="#63b8ff" stroke="#63b8ff" points="547.16,-59.8 556.35,-54.51 545.87,-52.92 547.16,-59.8"/>
</a>
</g>
</g>
<!-- Node9 -->
<g id="Node000009" class="node">
<title>Node9</title>
<g id="a_Node000009"><a xlink:href="classTiledParser.html#a459b727eea79ddef73d8fd0c3a4b4229" target="_top" xlink:title=" ">
<polygon fill="white" stroke="#666666" points="690,-19 510,-19 510,0 690,0 690,-19"/>
<text text-anchor="middle" x="600" y="-7" font-family="Helvetica,sans-Serif" font-size="10.00">TiledParser::stringToObstacleType</text>
</a>
</g>
</g>
<!-- Node4&#45;&gt;Node9 -->
<g id="edge8_Node000004_Node000009" class="edge">
<title>Node4&#45;&gt;Node9</title>
<g id="a_edge8_Node000004_Node000009"><a xlink:title=" ">
<path fill="none" stroke="#63b8ff" d="M426.91,-68.44C448.29,-56.12 480.25,-39.05 510,-28.5 517.52,-25.84 525.53,-23.48 533.55,-21.42"/>
<polygon fill="#63b8ff" stroke="#63b8ff" points="534.41,-24.82 543.3,-19.05 532.76,-18.01 534.41,-24.82"/>
</a>
</g>
</g>
</g>
</svg>
