<?xml version="1.0" encoding="UTF-8" standalone="no"?>
<!DOCTYPE svg PUBLIC "-//W3C//DTD SVG 1.1//EN"
 "http://www.w3.org/Graphics/SVG/1.1/DTD/svg11.dtd">
<!-- Generated by graphviz version 2.43.0 (0)
 -->
<!-- Title: Controller Pages: 1 -->
<svg width="116pt" height="257pt"
 viewBox="0.00 0.00 116.00 257.00" xmlns="http://www.w3.org/2000/svg" xmlns:xlink="http://www.w3.org/1999/xlink">

<svg id="main" version="1.1" xmlns="http://www.w3.org/2000/svg" xmlns:xlink="http://www.w3.org/1999/xlink" xml:space="preserve" onload="init(evt)">
<style type="text/css"><![CDATA[
.node, .edge {opacity: 0.7;}
.node.selected, .edge.selected {opacity: 1;}
.edge:hover path { stroke: red; }
.edge:hover polygon { stroke: red; fill: red; }
]]></style>
<script type="application/ecmascript" xlink:href="svg.min.js"/>
<svg id="graph" class="graph">
<g id="graph0" class="graph" transform="scale(1 1) rotate(0) translate(4 253)">
<title>Controller</title>
<!-- Node1 -->
<g id="Node000001" class="node">
<title>Node1</title>
<g id="a_Node000001"><a xlink:title=" ">
<polygon fill="#999999" stroke="transparent" points="92.5,-164 15.5,-164 15.5,-100 92.5,-100 92.5,-164"/>
<text text-anchor="start" x="30" y="-152" font-family="Helvetica,sans-Serif" font-size="10.00">Controller</text>
<text text-anchor="start" x="20" y="-137" font-family="Helvetica,sans-Serif" font-size="10.00">+</text>
<text text-anchor="start" x="33" y="-137" font-family="Helvetica,sans-Serif" font-size="10.00">type</text>
<text text-anchor="start" x="20" y="-122" font-family="Helvetica,sans-Serif" font-size="10.00">+</text>
<text text-anchor="start" x="33" y="-122" font-family="Helvetica,sans-Serif" font-size="10.00">Controller()</text>
<text text-anchor="start" x="20" y="-107" font-family="Helvetica,sans-Serif" font-size="10.00">+</text>
<text text-anchor="start" x="33" y="-107" font-family="Helvetica,sans-Serif" font-size="10.00">update()</text>
<polygon fill="#666666" stroke="#666666" points="16,-147 16,-147 93,-147 93,-147 16,-147"/>
<polygon fill="#666666" stroke="#666666" points="16,-132 16,-132 31,-132 31,-132 16,-132"/>
<polygon fill="#666666" stroke="#666666" points="31,-132 31,-132 93,-132 93,-132 31,-132"/>
<polygon fill="none" stroke="#666666" points="15.5,-100 15.5,-164 92.5,-164 92.5,-100 15.5,-100"/>
</a>
</g>
</g>
<!-- Node3 -->
<g id="Node000003" class="node">
<title>Node3</title>
<g id="a_Node000003"><a xlink:href="classPlayerController.html" target="_top" xlink:title="A controller that translates user keyboard input into entity movement.">
<polygon fill="white" stroke="transparent" points="108,-64 0,-64 0,0 108,0 108,-64"/>
<text text-anchor="start" x="14.5" y="-52" font-family="Helvetica,sans-Serif" font-size="10.00">PlayerController</text>
<text text-anchor="start" x="52" y="-37" font-family="Helvetica,sans-Serif" font-size="10.00"> </text>
<text text-anchor="start" x="4" y="-22" font-family="Helvetica,sans-Serif" font-size="10.00">+</text>
<text text-anchor="start" x="17" y="-22" font-family="Helvetica,sans-Serif" font-size="10.00">PlayerController()</text>
<text text-anchor="start" x="4" y="-7" font-family="Helvetica,sans-Serif" font-size="10.00">+</text>
<text text-anchor="start" x="17" y="-7" font-family="Helvetica,sans-Serif" font-size="10.00">handleEvent()</text>
<polygon fill="#666666" stroke="#666666" points="0,-47 0,-47 108,-47 108,-47 0,-47"/>
<polygon fill="#666666" stroke="#666666" points="0,-32 0,-32 108,-32 108,-32 0,-32"/>
<polygon fill="none" stroke="#666666" points="0,0 0,-64 108,-64 108,0 0,0"/>
</a>
</g>
</g>
<!-- Node1&#45;&gt;Node3 -->
<g id="edge2_Node000001_Node000003" class="edge">
<title>Node1&#45;&gt;Node3</title>
<g id="a_edge2_Node000001_Node000003"><a xlink:title=" ">
<path fill="none" stroke="#63b8ff" d="M54,-89.76C54,-81.19 54,-72.28 54,-64.14"/>
<polygon fill="none" stroke="#63b8ff" points="50.5,-89.99 54,-99.99 57.5,-89.99 50.5,-89.99"/>
</a>
</g>
</g>
<!-- Node2 -->
<g id="Node000002" class="node">
<title>Node2</title>
<g id="a_Node000002"><a xlink:href="classECS_1_1IComponent.html" target="_top" xlink:title=" ">
<polygon fill="white" stroke="transparent" points="102.5,-249 5.5,-249 5.5,-200 102.5,-200 102.5,-249"/>
<text text-anchor="start" x="12" y="-236.5" font-family="Helvetica,sans-Serif" font-size="10.00">ECS::IComponent</text>
<text text-anchor="start" x="52.5" y="-221.5" font-family="Helvetica,sans-Serif" font-size="10.00"> </text>
<text text-anchor="start" x="10" y="-206.5" font-family="Helvetica,sans-Serif" font-size="10.00">+</text>
<text text-anchor="start" x="23" y="-206.5" font-family="Helvetica,sans-Serif" font-size="10.00">~IComponent()</text>
<polygon fill="#666666" stroke="#666666" points="6,-231.5 6,-231.5 103,-231.5 103,-231.5 6,-231.5"/>
<polygon fill="#666666" stroke="#666666" points="6,-216.5 6,-216.5 103,-216.5 103,-216.5 6,-216.5"/>
<polygon fill="none" stroke="#666666" points="5.5,-200 5.5,-249 102.5,-249 102.5,-200 5.5,-200"/>
</a>
</g>
</g>
<!-- Node2&#45;&gt;Node1 -->
<g id="edge1_Node000001_Node000002" class="edge">
<title>Node2&#45;&gt;Node1</title>
<g id="a_edge1_Node000001_Node000002"><a xlink:title=" ">
<path fill="none" stroke="#63b8ff" d="M54,-189.54C54,-181.2 54,-172.31 54,-164.11"/>
<polygon fill="none" stroke="#63b8ff" points="50.5,-189.72 54,-199.72 57.5,-189.72 50.5,-189.72"/>
</a>
</g>
</g>
</g>
</svg>
</svg>

<style type='text/css'>
<![CDATA[
[data-mouse-over-selected='false'] { opacity: 0.7; }
[data-mouse-over-selected='true']  { opacity: 1.0; }
]]>
</style>
<script type="application/ecmascript"><![CDATA[
document.addEventListener('DOMContentLoaded', (event) => {
  highlightEdges();
  highlightAdjacentNodes();
});
]]></script>
</svg>
