<?xml version="1.0" encoding="UTF-8" standalone="no"?>
<!DOCTYPE svg PUBLIC "-//W3C//DTD SVG 1.1//EN"
 "http://www.w3.org/Graphics/SVG/1.1/DTD/svg11.dtd">
<!-- Generated by graphviz version 2.43.0 (0)
 -->
<!-- Title: IRenderable Pages: 1 -->
<svg width="179pt" height="272pt"
 viewBox="0.00 0.00 179.00 272.00" xmlns="http://www.w3.org/2000/svg" xmlns:xlink="http://www.w3.org/1999/xlink">
<g id="graph0" class="graph" transform="scale(1 1) rotate(0) translate(4 268)">
<title>IRenderable</title>
<!-- Node1 -->
<g id="Node000001" class="node">
<title>Node1</title>
<g id="a_Node000001"><a xlink:title=" ">
<polygon fill="#999999" stroke="transparent" points="133.5,-264 37.5,-264 37.5,-185 133.5,-185 133.5,-264"/>
<text text-anchor="start" x="56" y="-251.5" font-family="Helvetica,sans-Serif" font-size="10.00">IRenderable</text>
<text text-anchor="start" x="41.5" y="-236.5" font-family="Helvetica,sans-Serif" font-size="10.00">+</text>
<text text-anchor="start" x="54.5" y="-236.5" font-family="Helvetica,sans-Serif" font-size="10.00">rect</text>
<text text-anchor="start" x="41.5" y="-221.5" font-family="Helvetica,sans-Serif" font-size="10.00">+</text>
<text text-anchor="start" x="54.5" y="-221.5" font-family="Helvetica,sans-Serif" font-size="10.00">IRenderable()</text>
<text text-anchor="start" x="41.5" y="-206.5" font-family="Helvetica,sans-Serif" font-size="10.00">+</text>
<text text-anchor="start" x="54.5" y="-206.5" font-family="Helvetica,sans-Serif" font-size="10.00">~IRenderable()</text>
<text text-anchor="start" x="41.5" y="-191.5" font-family="Helvetica,sans-Serif" font-size="10.00">+</text>
<text text-anchor="start" x="54.5" y="-191.5" font-family="Helvetica,sans-Serif" font-size="10.00">render()</text>
<polygon fill="#666666" stroke="#666666" points="37.5,-246.5 37.5,-246.5 133.5,-246.5 133.5,-246.5 37.5,-246.5"/>
<polygon fill="#666666" stroke="#666666" points="37.5,-231.5 37.5,-231.5 52.5,-231.5 52.5,-231.5 37.5,-231.5"/>
<polygon fill="#666666" stroke="#666666" points="52.5,-231.5 52.5,-231.5 133.5,-231.5 133.5,-231.5 52.5,-231.5"/>
<polygon fill="none" stroke="#666666" points="37.5,-185 37.5,-264 133.5,-264 133.5,-185 37.5,-185"/>
</a>
</g>
</g>
<!-- Node2 -->
<g id="Node000002" class="node">
<title>Node2</title>
<g id="a_Node000002"><a xlink:href="classShapeRenderableComponent.html" target="_top" xlink:title=" ">
<polygon fill="white" stroke="transparent" points="171,-149 0,-149 0,-100 171,-100 171,-149"/>
<text text-anchor="start" x="15" y="-136.5" font-family="Helvetica,sans-Serif" font-size="10.00">ShapeRenderableComponent</text>
<text text-anchor="start" x="4.5" y="-121.5" font-family="Helvetica,sans-Serif" font-size="10.00">+</text>
<text text-anchor="start" x="17.5" y="-121.5" font-family="Helvetica,sans-Serif" font-size="10.00">color</text>
<text text-anchor="start" x="4.5" y="-106.5" font-family="Helvetica,sans-Serif" font-size="10.00">+</text>
<text text-anchor="start" x="17.5" y="-106.5" font-family="Helvetica,sans-Serif" font-size="10.00">ShapeRenderableComponent()</text>
<polygon fill="#666666" stroke="#666666" points="0.5,-131.5 0.5,-131.5 171.5,-131.5 171.5,-131.5 0.5,-131.5"/>
<polygon fill="#666666" stroke="#666666" points="0.5,-116.5 0.5,-116.5 15.5,-116.5 15.5,-116.5 0.5,-116.5"/>
<polygon fill="#666666" stroke="#666666" points="15.5,-116.5 15.5,-116.5 171.5,-116.5 171.5,-116.5 15.5,-116.5"/>
<polygon fill="none" stroke="#666666" points="0,-100 0,-149 171,-149 171,-100 0,-100"/>
</a>
</g>
</g>
<!-- Node1&#45;&gt;Node2 -->
<g id="edge1_Node000001_Node000002" class="edge">
<title>Node1&#45;&gt;Node2</title>
<g id="a_edge1_Node000001_Node000002"><a xlink:title=" ">
<path fill="none" stroke="#63b8ff" d="M85.5,-174.72C85.5,-165.75 85.5,-156.78 85.5,-149"/>
<polygon fill="none" stroke="#63b8ff" points="82,-174.77 85.5,-184.77 89,-174.77 82,-174.77"/>
</a>
</g>
</g>
<!-- Node3 -->
<g id="Node000003" class="node">
<title>Node3</title>
<g id="a_Node000003"><a xlink:href="classCircle.html" target="_top" xlink:title=" ">
<polygon fill="white" stroke="transparent" points="76,-64 15,-64 15,0 76,0 76,-64"/>
<text text-anchor="start" x="32" y="-52" font-family="Helvetica,sans-Serif" font-size="10.00">Circle</text>
<text text-anchor="start" x="19.5" y="-37" font-family="Helvetica,sans-Serif" font-size="10.00">+</text>
<text text-anchor="start" x="32.5" y="-37" font-family="Helvetica,sans-Serif" font-size="10.00">radius</text>
<text text-anchor="start" x="19.5" y="-22" font-family="Helvetica,sans-Serif" font-size="10.00">+</text>
<text text-anchor="start" x="32.5" y="-22" font-family="Helvetica,sans-Serif" font-size="10.00">Circle()</text>
<text text-anchor="start" x="19.5" y="-7" font-family="Helvetica,sans-Serif" font-size="10.00">+</text>
<text text-anchor="start" x="32.5" y="-7" font-family="Helvetica,sans-Serif" font-size="10.00">render()</text>
<polygon fill="#666666" stroke="#666666" points="15.5,-47 15.5,-47 76.5,-47 76.5,-47 15.5,-47"/>
<polygon fill="#666666" stroke="#666666" points="15.5,-32 15.5,-32 30.5,-32 30.5,-32 15.5,-32"/>
<polygon fill="#666666" stroke="#666666" points="30.5,-32 30.5,-32 76.5,-32 76.5,-32 30.5,-32"/>
<polygon fill="none" stroke="#666666" points="15,0 15,-64 76,-64 76,0 15,0"/>
</a>
</g>
</g>
<!-- Node2&#45;&gt;Node3 -->
<g id="edge2_Node000002_Node000003" class="edge">
<title>Node2&#45;&gt;Node3</title>
<g id="a_edge2_Node000002_Node000003"><a xlink:title=" ">
<path fill="none" stroke="#63b8ff" d="M70.86,-90.37C67.07,-81.79 63,-72.59 59.25,-64.11"/>
<polygon fill="none" stroke="#63b8ff" points="67.75,-91.99 74.99,-99.72 74.15,-89.16 67.75,-91.99"/>
</a>
</g>
</g>
<!-- Node4 -->
<g id="Node000004" class="node">
<title>Node4</title>
<g id="a_Node000004"><a xlink:href="classSquare.html" target="_top" xlink:title=" ">
<polygon fill="white" stroke="transparent" points="157,-64 94,-64 94,0 157,0 157,-64"/>
<text text-anchor="start" x="109" y="-52" font-family="Helvetica,sans-Serif" font-size="10.00">Square</text>
<text text-anchor="start" x="124" y="-37" font-family="Helvetica,sans-Serif" font-size="10.00"> </text>
<text text-anchor="start" x="98.5" y="-22" font-family="Helvetica,sans-Serif" font-size="10.00">+</text>
<text text-anchor="start" x="111.5" y="-22" font-family="Helvetica,sans-Serif" font-size="10.00">Square()</text>
<text text-anchor="start" x="98.5" y="-7" font-family="Helvetica,sans-Serif" font-size="10.00">+</text>
<text text-anchor="start" x="111.5" y="-7" font-family="Helvetica,sans-Serif" font-size="10.00">render()</text>
<polygon fill="#666666" stroke="#666666" points="94.5,-47 94.5,-47 157.5,-47 157.5,-47 94.5,-47"/>
<polygon fill="#666666" stroke="#666666" points="94.5,-32 94.5,-32 157.5,-32 157.5,-32 94.5,-32"/>
<polygon fill="none" stroke="#666666" points="94,0 94,-64 157,-64 157,0 94,0"/>
</a>
</g>
</g>
<!-- Node2&#45;&gt;Node4 -->
<g id="edge3_Node000002_Node000004" class="edge">
<title>Node2&#45;&gt;Node4</title>
<g id="a_edge3_Node000002_Node000004"><a xlink:title=" ">
<path fill="none" stroke="#63b8ff" d="M100.14,-90.37C103.93,-81.79 108,-72.59 111.75,-64.11"/>
<polygon fill="none" stroke="#63b8ff" points="96.85,-89.16 96.01,-99.72 103.25,-91.99 96.85,-89.16"/>
</a>
</g>
</g>
</g>
</svg>
