<?xml version="1.0" encoding="UTF-8" standalone="no"?>
<!DOCTYPE svg PUBLIC "-//W3C//DTD SVG 1.1//EN"
 "http://www.w3.org/Graphics/SVG/1.1/DTD/svg11.dtd">
<!-- Generated by graphviz version 2.43.0 (0)
 -->
<!-- Title: AISystem::planNextAction Pages: 1 -->
<svg width="476pt" height="76pt"
 viewBox="0.00 0.00 476.00 75.50" xmlns="http://www.w3.org/2000/svg" xmlns:xlink="http://www.w3.org/1999/xlink">

<svg id="main" version="1.1" xmlns="http://www.w3.org/2000/svg" xmlns:xlink="http://www.w3.org/1999/xlink" xml:space="preserve" onload="init(evt)">
<style type="text/css"><![CDATA[
.node, .edge {opacity: 0.7;}
.node.selected, .edge.selected {opacity: 1;}
.edge:hover path { stroke: red; }
.edge:hover polygon { stroke: red; fill: red; }
]]></style>
<script type="application/ecmascript" xlink:href="svg.min.js"/>
<svg id="graph" class="graph">
<g id="graph0" class="graph" transform="scale(1 1) rotate(0) translate(4 71.5)">
<title>AISystem::planNextAction</title>
<!-- Node1 -->
<g id="Node000001" class="node">
<title>Node1</title>
<g id="a_Node000001"><a xlink:title=" ">
<polygon fill="#999999" stroke="#666666" points="468,-40 324,-40 324,-21 468,-21 468,-40"/>
<text text-anchor="middle" x="396" y="-28" font-family="Helvetica,sans-Serif" font-size="10.00">AISystem::planNextAction</text>
</a>
</g>
</g>
<!-- Node2 -->
<g id="Node000002" class="node">
<title>Node2</title>
<g id="a_Node000002"><a xlink:href="classAISystem.html#a6b84082c16eb0af5606049260db2d99f" target="_top" xlink:title=" ">
<polygon fill="white" stroke="#666666" points="288,-67.5 139,-67.5 139,-37.5 288,-37.5 288,-67.5"/>
<text text-anchor="start" x="147" y="-55.5" font-family="Helvetica,sans-Serif" font-size="10.00">AISystem::processPlanning</text>
<text text-anchor="middle" x="213.5" y="-44.5" font-family="Helvetica,sans-Serif" font-size="10.00">Entities</text>
</a>
</g>
</g>
<!-- Node1&#45;&gt;Node2 -->
<g id="edge1_Node000001_Node000002" class="edge">
<title>Node1&#45;&gt;Node2</title>
<g id="a_edge1_Node000001_Node000002"><a xlink:title=" ">
<path fill="none" stroke="#63b8ff" d="M313.93,-40.38C305.35,-41.43 296.67,-42.49 288.19,-43.52"/>
<polygon fill="#63b8ff" stroke="#63b8ff" points="314.42,-43.85 323.92,-39.16 313.57,-36.9 314.42,-43.85"/>
</a>
</g>
</g>
<!-- Node5 -->
<g id="Node000005" class="node">
<title>Node5</title>
<g id="a_Node000005"><a xlink:href="classAISystem.html#a260e9a02dff6d097b45fa7c6e3ae733f" target="_top" xlink:title=" ">
<polygon fill="white" stroke="#666666" points="270,-19 157,-19 157,0 270,0 270,-19"/>
<text text-anchor="middle" x="213.5" y="-7" font-family="Helvetica,sans-Serif" font-size="10.00">AISystem::updateAI</text>
</a>
</g>
</g>
<!-- Node1&#45;&gt;Node5 -->
<g id="edge4_Node000001_Node000005" class="edge">
<title>Node1&#45;&gt;Node5</title>
<g id="a_edge4_Node000001_Node000005"><a xlink:title=" ">
<path fill="none" stroke="#63b8ff" d="M313.79,-21.05C299.04,-19.34 283.97,-17.58 270.18,-15.98"/>
<polygon fill="#63b8ff" stroke="#63b8ff" points="313.58,-24.55 323.92,-22.23 314.39,-17.6 313.58,-24.55"/>
</a>
</g>
</g>
<!-- Node3 -->
<g id="Node000003" class="node">
<title>Node3</title>
<g id="a_Node000003"><a xlink:href="main_8cpp.html#a0ddf1224851353fc92bfbff6f499fa97" target="_top" xlink:title=" ">
<polygon fill="white" stroke="#666666" points="72,-60 31,-60 31,-41 72,-41 72,-60"/>
<text text-anchor="middle" x="51.5" y="-48" font-family="Helvetica,sans-Serif" font-size="10.00">main</text>
</a>
</g>
</g>
<!-- Node2&#45;&gt;Node3 -->
<g id="edge2_Node000002_Node000003" class="edge">
<title>Node2&#45;&gt;Node3</title>
<g id="a_edge2_Node000002_Node000003"><a xlink:title=" ">
<path fill="none" stroke="#63b8ff" d="M128.56,-51.45C107.47,-51.19 86.74,-50.93 72.26,-50.75"/>
<polygon fill="#63b8ff" stroke="#63b8ff" points="128.55,-54.95 138.59,-51.58 128.63,-47.95 128.55,-54.95"/>
</a>
</g>
</g>
<!-- Node4 -->
<g id="Node000004" class="node">
<title>Node4</title>
<g id="a_Node000004"><a xlink:href="classAISystem.html#a4c1e02a04a3053c073e58ad44f4d0293" target="_top" xlink:title=" ">
<polygon fill="white" stroke="#666666" points="103,-22 0,-22 0,-3 103,-3 103,-22"/>
<text text-anchor="middle" x="51.5" y="-10" font-family="Helvetica,sans-Serif" font-size="10.00">AISystem::update</text>
</a>
</g>
</g>
<!-- Node2&#45;&gt;Node4 -->
<g id="edge3_Node000002_Node000004" class="edge">
<title>Node2&#45;&gt;Node4</title>
<g id="a_edge3_Node000002_Node000004"><a xlink:title=" ">
<path fill="none" stroke="#63b8ff" d="M142.62,-35.03C124.74,-30.56 106.16,-25.92 90.56,-22.01"/>
<polygon fill="#63b8ff" stroke="#63b8ff" points="141.92,-38.46 152.47,-37.49 143.61,-31.67 141.92,-38.46"/>
</a>
</g>
</g>
<!-- Node5&#45;&gt;Node3 -->
<g id="edge5_Node000005_Node000003" class="edge">
<title>Node5&#45;&gt;Node3</title>
<g id="a_edge5_Node000005_Node000003"><a xlink:title=" ">
<path fill="none" stroke="#63b8ff" d="M165.63,-21.51C134.62,-29.46 95.53,-39.47 72.36,-45.41"/>
<polygon fill="#63b8ff" stroke="#63b8ff" points="166.57,-24.88 175.39,-19.01 164.83,-18.1 166.57,-24.88"/>
</a>
</g>
</g>
<!-- Node5&#45;&gt;Node4 -->
<g id="edge6_Node000005_Node000004" class="edge">
<title>Node5&#45;&gt;Node4</title>
<g id="a_edge6_Node000005_Node000004"><a xlink:title=" ">
<path fill="none" stroke="#63b8ff" d="M146.98,-10.73C132.34,-11 117.02,-11.29 103.09,-11.55"/>
<polygon fill="#63b8ff" stroke="#63b8ff" points="147.06,-14.23 156.99,-10.54 146.92,-7.23 147.06,-14.23"/>
</a>
</g>
</g>
</g>
</svg>
</svg>

<style type='text/css'>
<![CDATA[
[data-mouse-over-selected='false'] { opacity: 0.7; }
[data-mouse-over-selected='true']  { opacity: 1.0; }
]]>
</style>
<script type="application/ecmascript"><![CDATA[
document.addEventListener('DOMContentLoaded', (event) => {
  highlightEdges();
  highlightAdjacentNodes();
});
]]></script>
</svg>
