<?xml version="1.0" encoding="UTF-8" standalone="no"?>
<!DOCTYPE svg PUBLIC "-//W3C//DTD SVG 1.1//EN"
 "http://www.w3.org/Graphics/SVG/1.1/DTD/svg11.dtd">
<!-- Generated by graphviz version 2.43.0 (0)
 -->
<!-- Title: TimeOfDay::getSuggestedActivity Pages: 1 -->
<svg width="365pt" height="101pt"
 viewBox="0.00 0.00 365.00 101.00" xmlns="http://www.w3.org/2000/svg" xmlns:xlink="http://www.w3.org/1999/xlink">
<g id="graph0" class="graph" transform="scale(1 1) rotate(0) translate(4 97)">
<title>TimeOfDay::getSuggestedActivity</title>
<!-- Node1 -->
<g id="Node000001" class="node">
<title>Node1</title>
<g id="a_Node000001"><a xlink:title=" ">
<polygon fill="#999999" stroke="#666666" points="182,-56 0,-56 0,-37 182,-37 182,-56"/>
<text text-anchor="middle" x="91" y="-44" font-family="Helvetica,sans-Serif" font-size="10.00">TimeOfDay::getSuggestedActivity</text>
</a>
</g>
</g>
<!-- Node2 -->
<g id="Node000002" class="node">
<title>Node2</title>
<g id="a_Node000002"><a xlink:href="classTimeOfDay.html#a23901f37676e501b4ca39c83d84fb410" target="_top" xlink:title=" ">
<polygon fill="white" stroke="#666666" points="354.5,-93 220.5,-93 220.5,-74 354.5,-74 354.5,-93"/>
<text text-anchor="middle" x="287.5" y="-81" font-family="Helvetica,sans-Serif" font-size="10.00">TimeOfDay::isMealTime</text>
</a>
</g>
</g>
<!-- Node1&#45;&gt;Node2 -->
<g id="edge1_Node000001_Node000002" class="edge">
<title>Node1&#45;&gt;Node2</title>
<g id="a_edge1_Node000001_Node000002"><a xlink:title=" ">
<path fill="none" stroke="#63b8ff" d="M142.09,-56.03C167.74,-60.91 199.16,-66.89 226.14,-72.02"/>
<polygon fill="#63b8ff" stroke="#63b8ff" points="225.77,-75.51 236.24,-73.94 227.07,-68.63 225.77,-75.51"/>
</a>
</g>
</g>
<!-- Node3 -->
<g id="Node000003" class="node">
<title>Node3</title>
<g id="a_Node000003"><a xlink:href="classTimeOfDay.html#a2492eebe8a39c1436a27110c4678ba34" target="_top" xlink:title=" ">
<polygon fill="white" stroke="#666666" points="356,-56 219,-56 219,-37 356,-37 356,-56"/>
<text text-anchor="middle" x="287.5" y="-44" font-family="Helvetica,sans-Serif" font-size="10.00">TimeOfDay::isSleepTime</text>
</a>
</g>
</g>
<!-- Node1&#45;&gt;Node3 -->
<g id="edge2_Node000001_Node000003" class="edge">
<title>Node1&#45;&gt;Node3</title>
<g id="a_edge2_Node000001_Node000003"><a xlink:title=" ">
<path fill="none" stroke="#63b8ff" d="M182.13,-46.5C190.99,-46.5 199.92,-46.5 208.64,-46.5"/>
<polygon fill="#63b8ff" stroke="#63b8ff" points="208.76,-50 218.76,-46.5 208.76,-43 208.76,-50"/>
</a>
</g>
</g>
<!-- Node4 -->
<g id="Node000004" class="node">
<title>Node4</title>
<g id="a_Node000004"><a xlink:href="classTimeOfDay.html#ae3a48abc18b275e421133fb4a06fc31a" target="_top" xlink:title=" ">
<polygon fill="white" stroke="#666666" points="357,-19 218,-19 218,0 357,0 357,-19"/>
<text text-anchor="middle" x="287.5" y="-7" font-family="Helvetica,sans-Serif" font-size="10.00">TimeOfDay::isWorkHours</text>
</a>
</g>
</g>
<!-- Node1&#45;&gt;Node4 -->
<g id="edge3_Node000001_Node000004" class="edge">
<title>Node1&#45;&gt;Node4</title>
<g id="a_edge3_Node000001_Node000004"><a xlink:title=" ">
<path fill="none" stroke="#63b8ff" d="M142.09,-36.97C167.74,-32.09 199.16,-26.11 226.14,-20.98"/>
<polygon fill="#63b8ff" stroke="#63b8ff" points="227.07,-24.37 236.24,-19.06 225.77,-17.49 227.07,-24.37"/>
</a>
</g>
</g>
</g>
</svg>
