<?xml version="1.0" encoding="UTF-8" standalone="no"?>
<!DOCTYPE svg PUBLIC "-//W3C//DTD SVG 1.1//EN"
 "http://www.w3.org/Graphics/SVG/1.1/DTD/svg11.dtd">
<!-- Generated by graphviz version 2.43.0 (0)
 -->
<!-- Title: AISystem::updateAI Pages: 1 -->
<!--zoomable 323 -->

<svg id="main" version="1.1" xmlns="http://www.w3.org/2000/svg" xmlns:xlink="http://www.w3.org/1999/xlink" xml:space="preserve" onload="init(evt)">
<style type="text/css"><![CDATA[
.node, .edge {opacity: 0.7;}
.node.selected, .edge.selected {opacity: 1;}
.edge:hover path { stroke: red; }
.edge:hover polygon { stroke: red; fill: red; }
]]></style>

<defs>
  <circle id="rim" cx="0" cy="0" r="7"/>
  <circle id="rim2" cx="0" cy="0" r="3.5"/>
  <g id="zoomPlus">
    <use xlink:href="#rim" fill="#404040"><set attributeName="fill" to="#808080" begin="zoomplus.mouseover" end="zoomplus.mouseout"/></use>
    <path d="M-4,0h8M0,-4v8" fill="none" stroke="white" stroke-width="1.5" pointer-events="none"/>
  </g>
  <g id="zoomMin">
    <use xlink:href="#rim" fill="#404040"><set attributeName="fill" to="#808080" begin="zoomminus.mouseover" end="zoomminus.mouseout"/></use>
    <path d="M-4,0h8" fill="none" stroke="white" stroke-width="1.5" pointer-events="none"/>
  </g>
  <g id="arrowUp" transform="translate(30 24)">
    <use xlink:href="#rim"/>
    <path pointer-events="none" fill="none" stroke="white" stroke-width="1.5" d="M0,-3.0v7 M-2.5,-0.5L0,-3.0L2.5,-0.5"/>
  </g>
  <g id="arrowRight" transform="rotate(90) translate(36 -43)">
    <use xlink:href="#rim"/>
    <path pointer-events="none" fill="none" stroke="white" stroke-width="1.5" d="M0,-3.0v7 M-2.5,-0.5L0,-3.0L2.5,-0.5"/>
  </g>
  <g id="arrowDown" transform="rotate(180) translate(-30 -48)">
    <use xlink:href="#rim"/>
    <path pointer-events="none" fill="none" stroke="white" stroke-width="1.5" d="M0,-3.0v7 M-2.5,-0.5L0,-3.0L2.5,-0.5"/>
  </g>
  <g id="arrowLeft" transform="rotate(270) translate(-36 17)">
    <use xlink:href="#rim"/>
    <path pointer-events="none" fill="none" stroke="white" stroke-width="1.5" d="M0,-3.0v7 M-2.5,-0.5L0,-3.0L2.5,-0.5"/>
  </g>
  <g id="resetDef">
    <use xlink:href="#rim2" fill="#404040"><set attributeName="fill" to="#808080" begin="reset.mouseover" end="reset.mouseout"/></use>
  </g>
</defs>
<script type="application/ecmascript">
var viewWidth = 724;
var viewHeight = 323;
var sectionId = 'dynsection-15';
</script>
<script type="application/ecmascript" xlink:href="svg.min.js"/>
<svg id="graph" class="graph">
<g id="viewport">
<title>AISystem::updateAI</title>
<!-- Node1 -->
<g id="Node000001" class="node">
<title>Node1</title>
<g id="a_Node000001"><a xlink:title=" ">
<polygon fill="#999999" stroke="#666666" points="113,-239 0,-239 0,-220 113,-220 113,-239"/>
<text text-anchor="middle" x="56.5" y="-227" font-family="Helvetica,sans-Serif" font-size="10.00">AISystem::updateAI</text>
</a>
</g>
</g>
<!-- Node2 -->
<g id="Node000002" class="node">
<title>Node2</title>
<g id="a_Node000002"><a xlink:href="classDescriptionComponentManager.html#af2c0d5093dab327c94ea345267cafa91" target="_top" xlink:title=" ">
<polygon fill="white" stroke="#666666" points="522,-315 329,-315 329,-296 522,-296 522,-315"/>
<text text-anchor="middle" x="425.5" y="-303" font-family="Helvetica,sans-Serif" font-size="10.00">DescriptionComponentManager::get</text>
</a>
</g>
</g>
<!-- Node1&#45;&gt;Node2 -->
<g id="edge1_Node000001_Node000002" class="edge">
<title>Node1&#45;&gt;Node2</title>
<g id="a_edge1_Node000001_Node000002"><a xlink:title=" ">
<path fill="none" stroke="#63b8ff" d="M78.51,-239.05C96.79,-246.98 124.16,-257.98 149,-264.5 204.14,-278.96 266.92,-288.8 318.61,-295.21"/>
<polygon fill="#63b8ff" stroke="#63b8ff" points="318.45,-298.71 328.8,-296.44 319.29,-291.76 318.45,-298.71"/>
</a>
</g>
</g>
<!-- Node3 -->
<g id="Node000003" class="node">
<title>Node3</title>
<g id="a_Node000003"><a xlink:href="classMovementManager.html#a114bf0653e258541fe63e3e5144aba20" target="_top" xlink:title=" ">
<polygon fill="white" stroke="#666666" points="492.5,-278 358.5,-278 358.5,-259 492.5,-259 492.5,-278"/>
<text text-anchor="middle" x="425.5" y="-266" font-family="Helvetica,sans-Serif" font-size="10.00">MovementManager::get</text>
</a>
</g>
</g>
<!-- Node1&#45;&gt;Node3 -->
<g id="edge2_Node000001_Node000003" class="edge">
<title>Node1&#45;&gt;Node3</title>
<g id="a_edge2_Node000001_Node000003"><a xlink:title=" ">
<path fill="none" stroke="#63b8ff" d="M113.07,-238.56C124.91,-240.33 137.35,-242.08 149,-243.5 216.21,-251.68 292.94,-258.44 348.33,-262.85"/>
<polygon fill="#63b8ff" stroke="#63b8ff" points="348.17,-266.35 358.42,-263.65 348.72,-259.37 348.17,-266.35"/>
</a>
</g>
</g>
<!-- Node4 -->
<g id="Node000004" class="node">
<title>Node4</title>
<g id="a_Node000004"><a xlink:href="classPositionManager.html#ac2ce0980eefb0e2afd6e6fe08fb8c28d" target="_top" xlink:title=" ">
<polygon fill="white" stroke="#666666" points="485.5,-241 365.5,-241 365.5,-222 485.5,-222 485.5,-241"/>
<text text-anchor="middle" x="425.5" y="-229" font-family="Helvetica,sans-Serif" font-size="10.00">PositionManager::get</text>
</a>
</g>
</g>
<!-- Node1&#45;&gt;Node4 -->
<g id="edge3_Node000001_Node000004" class="edge">
<title>Node1&#45;&gt;Node4</title>
<g id="a_edge3_Node000001_Node000004"><a xlink:title=" ">
<path fill="none" stroke="#63b8ff" d="M113.24,-229.8C178.13,-230.16 285.32,-230.74 355.43,-231.12"/>
<polygon fill="#63b8ff" stroke="#63b8ff" points="355.48,-234.62 365.5,-231.18 355.51,-227.62 355.48,-234.62"/>
</a>
</g>
</g>
<!-- Node5 -->
<g id="Node000005" class="node">
<title>Node5</title>
<g id="a_Node000005"><a xlink:href="classInfoBoxManager.html#a645487042fb4dbdd2665a1a3ac67d913" target="_top" xlink:title=" ">
<polygon fill="white" stroke="#666666" points="485,-19 366,-19 366,0 485,0 485,-19"/>
<text text-anchor="middle" x="425.5" y="-7" font-family="Helvetica,sans-Serif" font-size="10.00">InfoBoxManager::get</text>
</a>
</g>
</g>
<!-- Node1&#45;&gt;Node5 -->
<g id="edge4_Node000001_Node000005" class="edge">
<title>Node1&#45;&gt;Node5</title>
<g id="a_edge4_Node000001_Node000005"><a xlink:title=" ">
<path fill="none" stroke="#63b8ff" d="M66.79,-219.99C99.37,-187.28 212.68,-78.68 329,-28.5 337.49,-24.84 346.72,-21.87 355.97,-19.47"/>
<polygon fill="#63b8ff" stroke="#63b8ff" points="357.08,-22.81 365.99,-17.09 355.46,-16 357.08,-22.81"/>
</a>
</g>
</g>
<!-- Node6 -->
<g id="Node000006" class="node">
<title>Node6</title>
<g id="a_Node000006"><a xlink:href="classAISystem.html#a3e9a6b233a440655d47ce5041941d698" target="_top" xlink:title=" ">
<polygon fill="white" stroke="#666666" points="293,-184 149,-184 149,-165 293,-165 293,-184"/>
<text text-anchor="middle" x="221" y="-172" font-family="Helvetica,sans-Serif" font-size="10.00">AISystem::planNextAction</text>
</a>
</g>
</g>
<!-- Node1&#45;&gt;Node6 -->
<g id="edge5_Node000001_Node000006" class="edge">
<title>Node1&#45;&gt;Node6</title>
<g id="a_edge5_Node000001_Node000006"><a xlink:title=" ">
<path fill="none" stroke="#63b8ff" d="M85.81,-219.92C112.52,-210.88 152.76,-197.26 182.21,-187.29"/>
<polygon fill="#63b8ff" stroke="#63b8ff" points="183.4,-190.58 191.75,-184.06 181.15,-183.95 183.4,-190.58"/>
</a>
</g>
</g>
<!-- Node6&#45;&gt;Node2 -->
<g id="edge6_Node000006_Node000002" class="edge">
<title>Node6&#45;&gt;Node2</title>
<g id="a_edge6_Node000006_Node000002"><a xlink:title=" ">
<path fill="none" stroke="#63b8ff" d="M228.09,-184.3C242.55,-206.66 281.33,-261.49 329,-287.5 332.3,-289.3 335.76,-290.93 339.31,-292.39"/>
<polygon fill="#63b8ff" stroke="#63b8ff" points="338.31,-295.76 348.91,-295.91 340.72,-289.18 338.31,-295.76"/>
</a>
</g>
</g>
<!-- Node6&#45;&gt;Node3 -->
<g id="edge7_Node000006_Node000003" class="edge">
<title>Node6&#45;&gt;Node3</title>
<g id="a_edge7_Node000006_Node000003"><a xlink:title=" ">
<path fill="none" stroke="#63b8ff" d="M232.29,-184.19C250.35,-200.61 289.58,-233.74 329,-250.5 335.21,-253.14 341.8,-255.39 348.52,-257.32"/>
<polygon fill="#63b8ff" stroke="#63b8ff" points="347.85,-260.76 358.41,-259.91 349.62,-253.99 347.85,-260.76"/>
</a>
</g>
</g>
<!-- Node6&#45;&gt;Node4 -->
<g id="edge8_Node000006_Node000004" class="edge">
<title>Node6&#45;&gt;Node4</title>
<g id="a_edge8_Node000006_Node000004"><a xlink:title=" ">
<path fill="none" stroke="#63b8ff" d="M245.02,-184.13C266.46,-192.8 299.45,-205.39 329,-213.5 337.51,-215.84 346.53,-217.97 355.5,-219.88"/>
<polygon fill="#63b8ff" stroke="#63b8ff" points="355.07,-223.37 365.57,-221.95 356.48,-216.51 355.07,-223.37"/>
</a>
</g>
</g>
<!-- Node6&#45;&gt;Node5 -->
<g id="edge10_Node000006_Node000005" class="edge">
<title>Node6&#45;&gt;Node5</title>
<g id="a_edge10_Node000006_Node000005"><a xlink:title=" ">
<path fill="none" stroke="#63b8ff" d="M232.01,-164.93C246.57,-150.68 273.91,-122.66 293,-95.5 312.44,-67.84 301.83,-48.61 329,-28.5 336.95,-22.62 346.25,-18.43 355.88,-15.47"/>
<polygon fill="#63b8ff" stroke="#63b8ff" points="356.8,-18.85 365.57,-12.91 355,-12.08 356.8,-18.85"/>
</a>
</g>
</g>
<!-- Node7 -->
<g id="Node000007" class="node">
<title>Node7</title>
<g id="a_Node000007"><a xlink:href="classAIManager.html#aa0fe5da7752c8478ae72c9cb26dc7886" target="_top" xlink:title=" ">
<polygon fill="white" stroke="#666666" points="471,-130 380,-130 380,-111 471,-111 471,-130"/>
<text text-anchor="middle" x="425.5" y="-118" font-family="Helvetica,sans-Serif" font-size="10.00">AIManager::get</text>
</a>
</g>
</g>
<!-- Node6&#45;&gt;Node7 -->
<g id="edge9_Node000006_Node000007" class="edge">
<title>Node6&#45;&gt;Node7</title>
<g id="a_edge9_Node000006_Node000007"><a xlink:title=" ">
<path fill="none" stroke="#63b8ff" d="M248.12,-164.98C269.63,-157.38 301.02,-146.83 329,-139.5 342.03,-136.09 356.2,-132.96 369.54,-130.26"/>
<polygon fill="#63b8ff" stroke="#63b8ff" points="370.41,-133.66 379.55,-128.29 369.06,-126.79 370.41,-133.66"/>
</a>
</g>
</g>
<!-- Node8 -->
<g id="Node000008" class="node">
<title>Node8</title>
<g id="a_Node000008"><a xlink:href="classAISystem.html#adccbbce5e828f9e07a167eb7045c7760" target="_top" xlink:title=" ">
<polygon fill="white" stroke="#666666" points="495,-93 356,-93 356,-74 495,-74 495,-93"/>
<text text-anchor="middle" x="425.5" y="-81" font-family="Helvetica,sans-Serif" font-size="10.00">AISystem::getHomeZone</text>
</a>
</g>
</g>
<!-- Node6&#45;&gt;Node8 -->
<g id="edge11_Node000006_Node000008" class="edge">
<title>Node6&#45;&gt;Node8</title>
<g id="a_edge11_Node000006_Node000008"><a xlink:title=" ">
<path fill="none" stroke="#63b8ff" d="M233,-164.88C251.49,-149.26 290.55,-118.5 329,-102.5 335.29,-99.88 341.97,-97.62 348.76,-95.66"/>
<polygon fill="#63b8ff" stroke="#63b8ff" points="349.98,-98.96 358.75,-93.01 348.18,-92.19 349.98,-98.96"/>
</a>
</g>
</g>
<!-- Node10 -->
<g id="Node000010" class="node">
<title>Node10</title>
<g id="a_Node000010"><a xlink:href="classClock.html#a606f306fd13229f60d07f86cc9de4ca7" target="_top" xlink:title=" ">
<polygon fill="white" stroke="#666666" points="470,-56 381,-56 381,-37 470,-37 470,-56"/>
<text text-anchor="middle" x="425.5" y="-44" font-family="Helvetica,sans-Serif" font-size="10.00">Clock::getHour</text>
</a>
</g>
</g>
<!-- Node6&#45;&gt;Node10 -->
<g id="edge13_Node000006_Node000010" class="edge">
<title>Node6&#45;&gt;Node10</title>
<g id="a_edge13_Node000006_Node000010"><a xlink:title=" ">
<path fill="none" stroke="#63b8ff" d="M230.2,-164.78C250.86,-140.55 305.09,-78.42 329,-65.5 341.68,-58.64 356.52,-54.25 370.66,-51.43"/>
<polygon fill="#63b8ff" stroke="#63b8ff" points="371.55,-54.83 380.8,-49.65 370.34,-47.93 371.55,-54.83"/>
</a>
</g>
</g>
<!-- Node11 -->
<g id="Node000011" class="node">
<title>Node11</title>
<g id="a_Node000011"><a xlink:href="classAISystem.html#a02ff0714c4118e6eb0d98c95e515cca8" target="_top" xlink:title=" ">
<polygon fill="white" stroke="#666666" points="518,-204 333,-204 333,-185 518,-185 518,-204"/>
<text text-anchor="middle" x="425.5" y="-192" font-family="Helvetica,sans-Serif" font-size="10.00">AISystem::getRandomLeisureZone</text>
</a>
</g>
</g>
<!-- Node6&#45;&gt;Node11 -->
<g id="edge14_Node000006_Node000011" class="edge">
<title>Node6&#45;&gt;Node11</title>
<g id="a_edge14_Node000006_Node000011"><a xlink:title=" ">
<path fill="none" stroke="#63b8ff" d="M293.11,-181.52C302.77,-182.48 312.83,-183.47 322.89,-184.46"/>
<polygon fill="#63b8ff" stroke="#63b8ff" points="322.65,-187.96 332.95,-185.46 323.34,-180.99 322.65,-187.96"/>
</a>
</g>
</g>
<!-- Node12 -->
<g id="Node000012" class="node">
<title>Node12</title>
<g id="a_Node000012"><a xlink:href="classClock.html#abcb74cc346bbd49fb8a7df7deb4c0c9c" target="_top" xlink:title=" ">
<polygon fill="white" stroke="#666666" points="486,-167 365,-167 365,-148 486,-148 486,-167"/>
<text text-anchor="middle" x="425.5" y="-155" font-family="Helvetica,sans-Serif" font-size="10.00">Clock::getTimeOfDay</text>
</a>
</g>
</g>
<!-- Node6&#45;&gt;Node12 -->
<g id="edge15_Node000006_Node000012" class="edge">
<title>Node6&#45;&gt;Node12</title>
<g id="a_edge15_Node000006_Node000012"><a xlink:title=" ">
<path fill="none" stroke="#63b8ff" d="M293.11,-168.53C313.1,-166.85 334.82,-165.03 354.73,-163.36"/>
<polygon fill="#63b8ff" stroke="#63b8ff" points="355.29,-166.82 364.96,-162.5 354.7,-159.85 355.29,-166.82"/>
</a>
</g>
</g>
<!-- Node9 -->
<g id="Node000009" class="node">
<title>Node9</title>
<g id="a_Node000009"><a xlink:href="classHomeManager.html#aa60d21a2bc5f9440913b0324d2b36460" target="_top" xlink:title=" ">
<polygon fill="white" stroke="#666666" points="716,-93 558,-93 558,-74 716,-74 716,-93"/>
<text text-anchor="middle" x="637" y="-81" font-family="Helvetica,sans-Serif" font-size="10.00">HomeManager::getNpcHome</text>
</a>
</g>
</g>
<!-- Node8&#45;&gt;Node9 -->
<g id="edge12_Node000008_Node000009" class="edge">
<title>Node8&#45;&gt;Node9</title>
<g id="a_edge12_Node000008_Node000009"><a xlink:title=" ">
<path fill="none" stroke="#63b8ff" d="M495.1,-83.5C511.86,-83.5 530.02,-83.5 547.56,-83.5"/>
<polygon fill="#63b8ff" stroke="#63b8ff" points="547.8,-87 557.8,-83.5 547.8,-80 547.8,-87"/>
</a>
</g>
</g>
</g>
</svg>

<g id="navigator" transform="translate(0 0)" fill="#404254">
  <rect fill="#f2f5e9" fill-opacity="0.5" stroke="#606060" stroke-width=".5" x="0" y="0" width="60" height="60"/>
  <use id="zoomplus" xlink:href="#zoomPlus" x="17" y="9" onmousedown="handleZoom(evt,'in')"/>
  <use id="zoomminus" xlink:href="#zoomMin" x="42" y="9" onmousedown="handleZoom(evt,'out')"/>
  <use id="reset" xlink:href="#resetDef" x="30" y="36" onmousedown="handleReset()"/>
   <use id="arrowup" xlink:href="#arrowUp" x="0" y="0" onmousedown="handlePan(0,-1)"/>
  <use id="arrowright" xlink:href="#arrowRight" x="0" y="0" onmousedown="handlePan(1,0)"/>
  <use id="arrowdown" xlink:href="#arrowDown" x="0" y="0" onmousedown="handlePan(0,1)"/>
  <use id="arrowleft" xlink:href="#arrowLeft" x="0" y="0" onmousedown="handlePan(-1,0)"/>
</g>
<svg viewBox="0 0 15 15" width="100%" height="30px" preserveAspectRatio="xMaxYMin meet">
 <g id="arrow_out" transform="scale(0.3 0.3)">
  <a xlink:href="classAISystem_a260e9a02dff6d097b45fa7c6e3ae733f_cgraph_org.svg" target="_base">
   <rect id="button" ry="5" rx="5" y="6" x="6" height="38" width="38"
        fill="#f2f5e9" fill-opacity="0.5" stroke="#606060" stroke-width="1.0"/>
   <path id="arrow"
     d="M 11.500037,31.436501 C 11.940474,20.09759 22.043105,11.32322 32.158766,21.979434 L 37.068811,17.246167 C 37.068811,17.246167 37.088388,32 37.088388,32 L 22.160133,31.978069 C 22.160133,31.978069 26.997745,27.140456 26.997745,27.140456 C 18.528582,18.264221 13.291696,25.230495 11.500037,31.436501 z"
     style="fill:#404040;"/>
  </a>
 </g>
</svg>

<style type='text/css'>
<![CDATA[
[data-mouse-over-selected='false'] { opacity: 0.7; }
[data-mouse-over-selected='true']  { opacity: 1.0; }
]]>
</style>
<script type="application/ecmascript"><![CDATA[
document.addEventListener('DOMContentLoaded', (event) => {
  highlightEdges();
  highlightAdjacentNodes();
});
]]></script>
</svg>
