<?xml version="1.0" encoding="UTF-8" standalone="no"?>
<!DOCTYPE svg PUBLIC "-//W3C//DTD SVG 1.1//EN"
 "http://www.w3.org/Graphics/SVG/1.1/DTD/svg11.dtd">
<!-- Generated by graphviz version 2.43.0 (0)
 -->
<!-- Title: TimeOfDay::isSleepTime Pages: 1 -->
<svg width="363pt" height="124pt"
 viewBox="0.00 0.00 363.00 123.50" xmlns="http://www.w3.org/2000/svg" xmlns:xlink="http://www.w3.org/1999/xlink">

<svg id="main" version="1.1" xmlns="http://www.w3.org/2000/svg" xmlns:xlink="http://www.w3.org/1999/xlink" xml:space="preserve" onload="init(evt)">
<style type="text/css"><![CDATA[
.node, .edge {opacity: 0.7;}
.node.selected, .edge.selected {opacity: 1;}
.edge:hover path { stroke: red; }
.edge:hover polygon { stroke: red; fill: red; }
]]></style>
<script type="application/ecmascript" xlink:href="svg.min.js"/>
<svg id="graph" class="graph">
<g id="graph0" class="graph" transform="scale(1 1) rotate(0) translate(4 119.5)">
<title>TimeOfDay::isSleepTime</title>
<!-- Node1 -->
<g id="Node000001" class="node">
<title>Node1</title>
<g id="a_Node000001"><a xlink:title=" ">
<polygon fill="#999999" stroke="#666666" points="355,-72.5 218,-72.5 218,-53.5 355,-53.5 355,-72.5"/>
<text text-anchor="middle" x="286.5" y="-60.5" font-family="Helvetica,sans-Serif" font-size="10.00">TimeOfDay::isSleepTime</text>
</a>
</g>
</g>
<!-- Node2 -->
<g id="Node000002" class="node">
<title>Node2</title>
<g id="a_Node000002"><a xlink:href="classTimeOfDay.html#a7ed5281d460174bb4d16806132f372c0" target="_top" xlink:title=" ">
<polygon fill="white" stroke="#666666" points="182,-115.5 0,-115.5 0,-96.5 182,-96.5 182,-115.5"/>
<text text-anchor="middle" x="91" y="-103.5" font-family="Helvetica,sans-Serif" font-size="10.00">TimeOfDay::getSuggestedActivity</text>
</a>
</g>
</g>
<!-- Node1&#45;&gt;Node2 -->
<g id="edge1_Node000001_Node000002" class="edge">
<title>Node1&#45;&gt;Node2</title>
<g id="a_edge1_Node000001_Node000002"><a xlink:title=" ">
<path fill="none" stroke="#63b8ff" d="M235.04,-74.91C218.19,-78.83 199.3,-83.17 182,-87 167.81,-90.14 152.34,-93.45 138.29,-96.41"/>
<polygon fill="#63b8ff" stroke="#63b8ff" points="236.29,-78.21 245.24,-72.53 234.7,-71.4 236.29,-78.21"/>
</a>
</g>
</g>
<!-- Node3 -->
<g id="Node000003" class="node">
<title>Node3</title>
<g id="a_Node000003"><a xlink:href="classTimeOfDay.html#af58c96672e2e306ac810e88db09fa0ea" target="_top" xlink:title=" ">
<polygon fill="white" stroke="#666666" points="166.5,-78 15.5,-78 15.5,-48 166.5,-48 166.5,-78"/>
<text text-anchor="start" x="23.5" y="-66" font-family="Helvetica,sans-Serif" font-size="10.00">TimeOfDay::isGoodTimeFor</text>
<text text-anchor="middle" x="91" y="-55" font-family="Helvetica,sans-Serif" font-size="10.00">Leisure</text>
</a>
</g>
</g>
<!-- Node1&#45;&gt;Node3 -->
<g id="edge2_Node000001_Node000003" class="edge">
<title>Node1&#45;&gt;Node3</title>
<g id="a_edge2_Node000001_Node000003"><a xlink:title=" ">
<path fill="none" stroke="#63b8ff" d="M207.59,-63C194.06,-63 180.01,-63 166.57,-63"/>
<polygon fill="#63b8ff" stroke="#63b8ff" points="207.82,-66.5 217.82,-63 207.82,-59.5 207.82,-66.5"/>
</a>
</g>
</g>
<!-- Node4 -->
<g id="Node000004" class="node">
<title>Node4</title>
<g id="a_Node000004"><a xlink:href="classTimeOfDay.html#a6865dc486ee3136cd194d1b1637e223f" target="_top" xlink:title=" ">
<polygon fill="white" stroke="#666666" points="166.5,-30 15.5,-30 15.5,0 166.5,0 166.5,-30"/>
<text text-anchor="start" x="23.5" y="-18" font-family="Helvetica,sans-Serif" font-size="10.00">TimeOfDay::isGoodTimeFor</text>
<text text-anchor="middle" x="91" y="-7" font-family="Helvetica,sans-Serif" font-size="10.00">Sleep</text>
</a>
</g>
</g>
<!-- Node1&#45;&gt;Node4 -->
<g id="edge3_Node000001_Node000004" class="edge">
<title>Node1&#45;&gt;Node4</title>
<g id="a_edge3_Node000001_Node000004"><a xlink:title=" ">
<path fill="none" stroke="#63b8ff" d="M236.98,-50.96C211.44,-44.63 179.87,-36.8 152.72,-30.06"/>
<polygon fill="#63b8ff" stroke="#63b8ff" points="236.26,-54.39 246.81,-53.4 237.94,-47.6 236.26,-54.39"/>
</a>
</g>
</g>
</g>
</svg>
</svg>

<style type='text/css'>
<![CDATA[
[data-mouse-over-selected='false'] { opacity: 0.7; }
[data-mouse-over-selected='true']  { opacity: 1.0; }
]]>
</style>
<script type="application/ecmascript"><![CDATA[
document.addEventListener('DOMContentLoaded', (event) => {
  highlightEdges();
  highlightAdjacentNodes();
});
]]></script>
</svg>
