<?xml version="1.0" encoding="UTF-8" standalone="no"?>
<!DOCTYPE svg PUBLIC "-//W3C//DTD SVG 1.1//EN"
 "http://www.w3.org/Graphics/SVG/1.1/DTD/svg11.dtd">
<!-- Generated by graphviz version 2.43.0 (0)
 -->
<!-- Title: Scene::loadFromFile Pages: 1 -->
<svg width="330pt" height="284pt"
 viewBox="0.00 0.00 330.00 284.00" xmlns="http://www.w3.org/2000/svg" xmlns:xlink="http://www.w3.org/1999/xlink">

<svg id="main" version="1.1" xmlns="http://www.w3.org/2000/svg" xmlns:xlink="http://www.w3.org/1999/xlink" xml:space="preserve" onload="init(evt)">
<style type="text/css"><![CDATA[
.node, .edge {opacity: 0.7;}
.node.selected, .edge.selected {opacity: 1;}
.edge:hover path { stroke: red; }
.edge:hover polygon { stroke: red; fill: red; }
]]></style>
<script type="application/ecmascript" xlink:href="svg.min.js"/>
<svg id="graph" class="graph">
<g id="graph0" class="graph" transform="scale(1 1) rotate(0) translate(4 280)">
<title>Scene::loadFromFile</title>
<!-- Node1 -->
<g id="Node000001" class="node">
<title>Node1</title>
<g id="a_Node000001"><a xlink:title=" ">
<polygon fill="#999999" stroke="#666666" points="115,-147.5 0,-147.5 0,-128.5 115,-128.5 115,-147.5"/>
<text text-anchor="middle" x="57.5" y="-135.5" font-family="Helvetica,sans-Serif" font-size="10.00">Scene::loadFromFile</text>
</a>
</g>
</g>
<!-- Node2 -->
<g id="Node000002" class="node">
<title>Node2</title>
<g id="a_Node000002"><a xlink:href="classDescriptionComponentManager.html#a957985c9cdabe72dc49f905d805017d0" target="_top" xlink:title=" ">
<polygon fill="white" stroke="#666666" points="322,-276 151,-276 151,-246 322,-246 322,-276"/>
<text text-anchor="start" x="159" y="-264" font-family="Helvetica,sans-Serif" font-size="10.00">DescriptionComponentManager</text>
<text text-anchor="middle" x="236.5" y="-253" font-family="Helvetica,sans-Serif" font-size="10.00">::create</text>
</a>
</g>
</g>
<!-- Node1&#45;&gt;Node2 -->
<g id="edge1_Node000001_Node000002" class="edge">
<title>Node1&#45;&gt;Node2</title>
<g id="a_edge1_Node000001_Node000002"><a xlink:title=" ">
<path fill="none" stroke="#63b8ff" d="M64.67,-147.5C77.99,-167.25 111.45,-212.86 151,-237 153.8,-238.71 156.72,-240.3 159.73,-241.78"/>
<polygon fill="#63b8ff" stroke="#63b8ff" points="158.42,-245.03 168.98,-245.9 161.27,-238.63 158.42,-245.03"/>
</a>
</g>
</g>
<!-- Node3 -->
<g id="Node000003" class="node">
<title>Node3</title>
<g id="a_Node000003"><a xlink:href="classMovementManager.html#a06a454faa05edd94f48683868486c52f" target="_top" xlink:title=" ">
<polygon fill="white" stroke="#666666" points="311,-227.5 162,-227.5 162,-208.5 311,-208.5 311,-227.5"/>
<text text-anchor="middle" x="236.5" y="-215.5" font-family="Helvetica,sans-Serif" font-size="10.00">MovementManager::create</text>
</a>
</g>
</g>
<!-- Node1&#45;&gt;Node3 -->
<g id="edge2_Node000001_Node000003" class="edge">
<title>Node1&#45;&gt;Node3</title>
<g id="a_edge2_Node000001_Node000003"><a xlink:title=" ">
<path fill="none" stroke="#63b8ff" d="M69.64,-147.56C86.24,-161.3 118.95,-186.44 151,-200 156.01,-202.12 161.29,-204 166.67,-205.66"/>
<polygon fill="#63b8ff" stroke="#63b8ff" points="165.85,-209.07 176.43,-208.44 167.76,-202.33 165.85,-209.07"/>
</a>
</g>
</g>
<!-- Node4 -->
<g id="Node000004" class="node">
<title>Node4</title>
<g id="a_Node000004"><a xlink:href="classPositionManager.html#ac999977f549b781c25b8e9bd1a0ecd7e" target="_top" xlink:title=" ">
<polygon fill="white" stroke="#666666" points="304,-190.5 169,-190.5 169,-171.5 304,-171.5 304,-190.5"/>
<text text-anchor="middle" x="236.5" y="-178.5" font-family="Helvetica,sans-Serif" font-size="10.00">PositionManager::create</text>
</a>
</g>
</g>
<!-- Node1&#45;&gt;Node4 -->
<g id="edge3_Node000001_Node000004" class="edge">
<title>Node1&#45;&gt;Node4</title>
<g id="a_edge3_Node000001_Node000004"><a xlink:title=" ">
<path fill="none" stroke="#63b8ff" d="M94.01,-147.5C111.19,-152.03 132.13,-157.43 151,-162 160.86,-164.39 171.4,-166.84 181.57,-169.15"/>
<polygon fill="#63b8ff" stroke="#63b8ff" points="181.05,-172.62 191.58,-171.41 182.6,-165.79 181.05,-172.62"/>
</a>
</g>
</g>
<!-- Node5 -->
<g id="Node000005" class="node">
<title>Node5</title>
<g id="a_Node000005"><a xlink:href="classControllerManager.html#aa7198a015f8af32ed3720321e3e9bea9" target="_top" xlink:title=" ">
<polygon fill="white" stroke="#666666" points="293,-153 180,-153 180,-123 293,-123 293,-153"/>
<text text-anchor="start" x="188" y="-141" font-family="Helvetica,sans-Serif" font-size="10.00">ControllerManager::</text>
<text text-anchor="middle" x="236.5" y="-130" font-family="Helvetica,sans-Serif" font-size="10.00">create</text>
</a>
</g>
</g>
<!-- Node1&#45;&gt;Node5 -->
<g id="edge4_Node000001_Node000005" class="edge">
<title>Node1&#45;&gt;Node5</title>
<g id="a_edge4_Node000001_Node000005"><a xlink:title=" ">
<path fill="none" stroke="#63b8ff" d="M115.48,-138C132.71,-138 151.78,-138 169.55,-138"/>
<polygon fill="#63b8ff" stroke="#63b8ff" points="169.84,-141.5 179.84,-138 169.84,-134.5 169.84,-141.5"/>
</a>
</g>
</g>
<!-- Node6 -->
<g id="Node000006" class="node">
<title>Node6</title>
<g id="a_Node000006"><a xlink:href="classAIManager.html#a12b76a7fcae1b04d17ad49f26c7e336d" target="_top" xlink:title=" ">
<polygon fill="white" stroke="#666666" points="289.5,-104.5 183.5,-104.5 183.5,-85.5 289.5,-85.5 289.5,-104.5"/>
<text text-anchor="middle" x="236.5" y="-92.5" font-family="Helvetica,sans-Serif" font-size="10.00">AIManager::create</text>
</a>
</g>
</g>
<!-- Node1&#45;&gt;Node6 -->
<g id="edge5_Node000001_Node000006" class="edge">
<title>Node1&#45;&gt;Node6</title>
<g id="a_edge5_Node000001_Node000006"><a xlink:title=" ">
<path fill="none" stroke="#63b8ff" d="M94.01,-128.5C111.19,-123.97 132.13,-118.57 151,-114 160.86,-111.61 171.4,-109.16 181.57,-106.85"/>
<polygon fill="#63b8ff" stroke="#63b8ff" points="182.6,-110.21 191.58,-104.59 181.05,-103.38 182.6,-110.21"/>
</a>
</g>
</g>
<!-- Node7 -->
<g id="Node000007" class="node">
<title>Node7</title>
<g id="a_Node000007"><a xlink:href="classInfoBoxManager.html#a76fca0dcf7f1418b3f86ef55320f075a" target="_top" xlink:title=" ">
<polygon fill="white" stroke="#666666" points="303.5,-67.5 169.5,-67.5 169.5,-48.5 303.5,-48.5 303.5,-67.5"/>
<text text-anchor="middle" x="236.5" y="-55.5" font-family="Helvetica,sans-Serif" font-size="10.00">InfoBoxManager::create</text>
</a>
</g>
</g>
<!-- Node1&#45;&gt;Node7 -->
<g id="edge6_Node000001_Node000007" class="edge">
<title>Node1&#45;&gt;Node7</title>
<g id="a_edge6_Node000001_Node000007"><a xlink:title=" ">
<path fill="none" stroke="#63b8ff" d="M69.97,-128.42C86.71,-114.93 119.31,-90.48 151,-77 156.9,-74.49 163.18,-72.29 169.55,-70.36"/>
<polygon fill="#63b8ff" stroke="#63b8ff" points="170.91,-73.62 179.6,-67.56 169.02,-66.88 170.91,-73.62"/>
</a>
</g>
</g>
<!-- Node8 -->
<g id="Node000008" class="node">
<title>Node8</title>
<g id="a_Node000008"><a xlink:href="classRenderableManager.html#a951babe89b43cb514bf6511947b0e17a" target="_top" xlink:title=" ">
<polygon fill="white" stroke="#666666" points="297,-30 176,-30 176,0 297,0 297,-30"/>
<text text-anchor="start" x="184" y="-18" font-family="Helvetica,sans-Serif" font-size="10.00">RenderableManager::</text>
<text text-anchor="middle" x="236.5" y="-7" font-family="Helvetica,sans-Serif" font-size="10.00">createCircle</text>
</a>
</g>
</g>
<!-- Node1&#45;&gt;Node8 -->
<g id="edge7_Node000001_Node000008" class="edge">
<title>Node1&#45;&gt;Node8</title>
<g id="a_edge7_Node000001_Node000008"><a xlink:title=" ">
<path fill="none" stroke="#63b8ff" d="M64.92,-128.33C78.46,-108.7 111.93,-64.01 151,-40 155.73,-37.1 160.81,-34.51 166.05,-32.22"/>
<polygon fill="#63b8ff" stroke="#63b8ff" points="167.63,-35.36 175.61,-28.4 165.03,-28.86 167.63,-35.36"/>
</a>
</g>
</g>
</g>
</svg>
</svg>

<style type='text/css'>
<![CDATA[
[data-mouse-over-selected='false'] { opacity: 0.7; }
[data-mouse-over-selected='true']  { opacity: 1.0; }
]]>
</style>
<script type="application/ecmascript"><![CDATA[
document.addEventListener('DOMContentLoaded', (event) => {
  highlightEdges();
  highlightAdjacentNodes();
});
]]></script>
</svg>
