<?xml version="1.0" encoding="UTF-8" standalone="no"?>
<!DOCTYPE svg PUBLIC "-//W3C//DTD SVG 1.1//EN"
 "http://www.w3.org/Graphics/SVG/1.1/DTD/svg11.dtd">
<!-- Generated by graphviz version 2.43.0 (0)
 -->
<!-- Title: Clock::getTimeOfDay Pages: 1 -->
<svg width="662pt" height="183pt"
 viewBox="0.00 0.00 662.00 183.00" xmlns="http://www.w3.org/2000/svg" xmlns:xlink="http://www.w3.org/1999/xlink">
<g id="graph0" class="graph" transform="scale(1 1) rotate(0) translate(4 179)">
<title>Clock::getTimeOfDay</title>
<!-- Node1 -->
<g id="Node000001" class="node">
<title>Node1</title>
<g id="a_Node000001"><a xlink:title=" ">
<polygon fill="#999999" stroke="#666666" points="654,-99 533,-99 533,-80 654,-80 654,-99"/>
<text text-anchor="middle" x="593.5" y="-87" font-family="Helvetica,sans-Serif" font-size="10.00">Clock::getTimeOfDay</text>
</a>
</g>
</g>
<!-- Node2 -->
<g id="Node000002" class="node">
<title>Node2</title>
<g id="a_Node000002"><a xlink:href="classAISystem.html#a3e9a6b233a440655d47ce5041941d698" target="_top" xlink:title=" ">
<polygon fill="white" stroke="#666666" points="482.5,-99 338.5,-99 338.5,-80 482.5,-80 482.5,-99"/>
<text text-anchor="middle" x="410.5" y="-87" font-family="Helvetica,sans-Serif" font-size="10.00">AISystem::planNextAction</text>
</a>
</g>
</g>
<!-- Node1&#45;&gt;Node2 -->
<g id="edge1_Node000001_Node000002" class="edge">
<title>Node1&#45;&gt;Node2</title>
<g id="a_edge1_Node000001_Node000002"><a xlink:title=" ">
<path fill="none" stroke="#63b8ff" d="M522.64,-89.5C509.54,-89.5 495.84,-89.5 482.71,-89.5"/>
<polygon fill="#63b8ff" stroke="#63b8ff" points="522.98,-93 532.98,-89.5 522.98,-86 522.98,-93"/>
</a>
</g>
</g>
<!-- Node3 -->
<g id="Node000003" class="node">
<title>Node3</title>
<g id="a_Node000003"><a xlink:href="classAISystem.html#a6b84082c16eb0af5606049260db2d99f" target="_top" xlink:title=" ">
<polygon fill="white" stroke="#666666" points="288,-149.5 139,-149.5 139,-119.5 288,-119.5 288,-149.5"/>
<text text-anchor="start" x="147" y="-137.5" font-family="Helvetica,sans-Serif" font-size="10.00">AISystem::processPlanning</text>
<text text-anchor="middle" x="213.5" y="-126.5" font-family="Helvetica,sans-Serif" font-size="10.00">Entities</text>
</a>
</g>
</g>
<!-- Node1&#45;&gt;Node3 -->
<g id="edge11_Node000001_Node000003" class="edge">
<title>Node1&#45;&gt;Node3</title>
<g id="a_edge11_Node000001_Node000003"><a xlink:title=" ">
<path fill="none" stroke="#63b8ff" d="M536.36,-100.96C523.46,-103.35 509.79,-105.69 497,-107.5 426.39,-117.51 345.31,-124.83 288.18,-129.3"/>
<polygon fill="#63b8ff" stroke="#63b8ff" points="537.32,-104.34 546.49,-99.05 536.02,-97.47 537.32,-104.34"/>
</a>
</g>
</g>
<!-- Node7 -->
<g id="Node000007" class="node">
<title>Node7</title>
<g id="a_Node000007"><a xlink:href="classAISystem.html#a1d7894d2fba2b0f09b8929bbfd58ec4e" target="_top" xlink:title=" ">
<polygon fill="white" stroke="#666666" points="286,-63.5 141,-63.5 141,-33.5 286,-33.5 286,-63.5"/>
<text text-anchor="start" x="149" y="-51.5" font-family="Helvetica,sans-Serif" font-size="10.00">AISystem::processArriving</text>
<text text-anchor="middle" x="213.5" y="-40.5" font-family="Helvetica,sans-Serif" font-size="10.00">Entities</text>
</a>
</g>
</g>
<!-- Node1&#45;&gt;Node7 -->
<g id="edge8_Node000001_Node000007" class="edge">
<title>Node1&#45;&gt;Node7</title>
<g id="a_edge8_Node000001_Node000007"><a xlink:title=" ">
<path fill="none" stroke="#63b8ff" d="M540.39,-77.97C526.36,-75.18 511.15,-72.45 497,-70.5 425.61,-60.65 343.41,-54.87 286.16,-51.73"/>
<polygon fill="#63b8ff" stroke="#63b8ff" points="539.87,-81.44 550.37,-80 541.27,-74.58 539.87,-81.44"/>
</a>
</g>
</g>
<!-- Node8 -->
<g id="Node000008" class="node">
<title>Node8</title>
<g id="a_Node000008"><a xlink:href="main_8cpp.html#a6d16347420cc2c99199a4b48bc986ec0" target="_top" xlink:title=" ">
<polygon fill="white" stroke="#666666" points="448,-19 373,-19 373,0 448,0 448,-19"/>
<text text-anchor="middle" x="410.5" y="-7" font-family="Helvetica,sans-Serif" font-size="10.00">renderClock</text>
</a>
</g>
</g>
<!-- Node1&#45;&gt;Node8 -->
<g id="edge12_Node000001_Node000008" class="edge">
<title>Node1&#45;&gt;Node8</title>
<g id="a_edge12_Node000001_Node000008"><a xlink:title=" ">
<path fill="none" stroke="#63b8ff" d="M569.28,-74.46C550.39,-62.69 522.73,-46.53 497,-35.5 481.46,-28.84 463.65,-23.14 448.32,-18.78"/>
<polygon fill="#63b8ff" stroke="#63b8ff" points="567.48,-77.46 577.81,-79.84 571.22,-71.54 567.48,-77.46"/>
</a>
</g>
</g>
<!-- Node9 -->
<g id="Node000009" class="node">
<title>Node9</title>
<g id="a_Node000009"><a xlink:href="classAISystem.html#a78ba48851d99fa06efdfaf41f5456217" target="_top" xlink:title=" ">
<polygon fill="white" stroke="#666666" points="497,-175 324,-175 324,-156 497,-156 497,-175"/>
<text text-anchor="middle" x="410.5" y="-163" font-family="Helvetica,sans-Serif" font-size="10.00">AISystem::shouldReplanActivity</text>
</a>
</g>
</g>
<!-- Node1&#45;&gt;Node9 -->
<g id="edge14_Node000001_Node000009" class="edge">
<title>Node1&#45;&gt;Node9</title>
<g id="a_edge14_Node000001_Node000009"><a xlink:title=" ">
<path fill="none" stroke="#63b8ff" d="M568.93,-104.28C550.04,-115.65 522.55,-131.11 497,-141.5 482.86,-147.25 466.87,-152.14 452.58,-155.98"/>
<polygon fill="#63b8ff" stroke="#63b8ff" points="570.76,-107.27 577.47,-99.07 567.11,-101.29 570.76,-107.27"/>
</a>
</g>
</g>
<!-- Node2&#45;&gt;Node3 -->
<g id="edge2_Node000002_Node000003" class="edge">
<title>Node2&#45;&gt;Node3</title>
<g id="a_edge2_Node000002_Node000003"><a xlink:title=" ">
<path fill="none" stroke="#63b8ff" d="M358.16,-101.35C334.1,-106.9 305.16,-113.58 279.58,-119.48"/>
<polygon fill="#63b8ff" stroke="#63b8ff" points="359.19,-104.7 368.15,-99.04 357.61,-97.88 359.19,-104.7"/>
</a>
</g>
</g>
<!-- Node6 -->
<g id="Node000006" class="node">
<title>Node6</title>
<g id="a_Node000006"><a xlink:href="classAISystem.html#a260e9a02dff6d097b45fa7c6e3ae733f" target="_top" xlink:title=" ">
<polygon fill="white" stroke="#666666" points="270,-101 157,-101 157,-82 270,-82 270,-101"/>
<text text-anchor="middle" x="213.5" y="-89" font-family="Helvetica,sans-Serif" font-size="10.00">AISystem::updateAI</text>
</a>
</g>
</g>
<!-- Node2&#45;&gt;Node6 -->
<g id="edge5_Node000002_Node000006" class="edge">
<title>Node2&#45;&gt;Node6</title>
<g id="a_edge5_Node000002_Node000006"><a xlink:title=" ">
<path fill="none" stroke="#63b8ff" d="M328.18,-90.33C308.68,-90.53 288.3,-90.74 270.27,-90.93"/>
<polygon fill="#63b8ff" stroke="#63b8ff" points="328.31,-93.83 338.27,-90.23 328.24,-86.83 328.31,-93.83"/>
</a>
</g>
</g>
<!-- Node4 -->
<g id="Node000004" class="node">
<title>Node4</title>
<g id="a_Node000004"><a xlink:href="main_8cpp.html#a0ddf1224851353fc92bfbff6f499fa97" target="_top" xlink:title=" ">
<polygon fill="white" stroke="#666666" points="72,-61 31,-61 31,-42 72,-42 72,-61"/>
<text text-anchor="middle" x="51.5" y="-49" font-family="Helvetica,sans-Serif" font-size="10.00">main</text>
</a>
</g>
</g>
<!-- Node3&#45;&gt;Node4 -->
<g id="edge3_Node000003_Node000004" class="edge">
<title>Node3&#45;&gt;Node4</title>
<g id="a_edge3_Node000003_Node000004"><a xlink:title=" ">
<path fill="none" stroke="#63b8ff" d="M149.4,-115.31C145.8,-113.52 142.3,-111.59 139,-109.5 119.6,-97.25 121.98,-85.39 103,-72.5 93.57,-66.1 81.89,-61.08 72.13,-57.56"/>
<polygon fill="#63b8ff" stroke="#63b8ff" points="147.99,-118.51 158.54,-119.47 150.89,-112.14 147.99,-118.51"/>
</a>
</g>
</g>
<!-- Node5 -->
<g id="Node000005" class="node">
<title>Node5</title>
<g id="a_Node000005"><a xlink:href="classAISystem.html#a4c1e02a04a3053c073e58ad44f4d0293" target="_top" xlink:title=" ">
<polygon fill="white" stroke="#666666" points="103,-101 0,-101 0,-82 103,-82 103,-101"/>
<text text-anchor="middle" x="51.5" y="-89" font-family="Helvetica,sans-Serif" font-size="10.00">AISystem::update</text>
</a>
</g>
</g>
<!-- Node3&#45;&gt;Node5 -->
<g id="edge4_Node000003_Node000005" class="edge">
<title>Node3&#45;&gt;Node5</title>
<g id="a_edge4_Node000003_Node000005"><a xlink:title=" ">
<path fill="none" stroke="#63b8ff" d="M146.81,-116.85C126.75,-111.45 105.45,-105.73 88.17,-101.09"/>
<polygon fill="#63b8ff" stroke="#63b8ff" points="145.97,-120.25 156.54,-119.46 147.79,-113.49 145.97,-120.25"/>
</a>
</g>
</g>
<!-- Node6&#45;&gt;Node4 -->
<g id="edge6_Node000006_Node000004" class="edge">
<title>Node6&#45;&gt;Node4</title>
<g id="a_edge6_Node000006_Node000004"><a xlink:title=" ">
<path fill="none" stroke="#63b8ff" d="M164.42,-79.48C133.47,-71.74 94.88,-62.1 72.05,-56.39"/>
<polygon fill="#63b8ff" stroke="#63b8ff" points="163.63,-82.89 174.18,-81.92 165.32,-76.1 163.63,-82.89"/>
</a>
</g>
</g>
<!-- Node6&#45;&gt;Node5 -->
<g id="edge7_Node000006_Node000005" class="edge">
<title>Node6&#45;&gt;Node5</title>
<g id="a_edge7_Node000006_Node000005"><a xlink:title=" ">
<path fill="none" stroke="#63b8ff" d="M146.98,-91.5C132.34,-91.5 117.02,-91.5 103.09,-91.5"/>
<polygon fill="#63b8ff" stroke="#63b8ff" points="146.99,-95 156.99,-91.5 146.99,-88 146.99,-95"/>
</a>
</g>
</g>
<!-- Node7&#45;&gt;Node4 -->
<g id="edge9_Node000007_Node000004" class="edge">
<title>Node7&#45;&gt;Node4</title>
<g id="a_edge9_Node000007_Node000004"><a xlink:title=" ">
<path fill="none" stroke="#63b8ff" d="M130.88,-50.03C108.98,-50.44 87.25,-50.85 72.24,-51.13"/>
<polygon fill="#63b8ff" stroke="#63b8ff" points="130.99,-53.53 140.92,-49.84 130.86,-46.53 130.99,-53.53"/>
</a>
</g>
</g>
<!-- Node7&#45;&gt;Node5 -->
<g id="edge10_Node000007_Node000005" class="edge">
<title>Node7&#45;&gt;Node5</title>
<g id="a_edge10_Node000007_Node000005"><a xlink:title=" ">
<path fill="none" stroke="#63b8ff" d="M146.81,-66.15C126.75,-71.55 105.45,-77.27 88.17,-81.91"/>
<polygon fill="#63b8ff" stroke="#63b8ff" points="147.79,-69.51 156.54,-63.54 145.97,-62.75 147.79,-69.51"/>
</a>
</g>
</g>
<!-- Node8&#45;&gt;Node4 -->
<g id="edge13_Node000008_Node000004" class="edge">
<title>Node8&#45;&gt;Node4</title>
<g id="a_edge13_Node000008_Node000004"><a xlink:title=" ">
<path fill="none" stroke="#63b8ff" d="M362.85,-8.61C308.61,-8.38 216.61,-10.46 139,-24.5 115.47,-28.76 89.39,-37.48 72.08,-43.86"/>
<polygon fill="#63b8ff" stroke="#63b8ff" points="362.83,-12.11 372.85,-8.68 362.88,-5.11 362.83,-12.11"/>
</a>
</g>
</g>
<!-- Node9&#45;&gt;Node3 -->
<g id="edge15_Node000009_Node000003" class="edge">
<title>Node9&#45;&gt;Node3</title>
<g id="a_edge15_Node000009_Node000003"><a xlink:title=" ">
<path fill="none" stroke="#63b8ff" d="M339.49,-154.37C322.88,-151.73 305.11,-148.9 288.33,-146.24"/>
<polygon fill="#63b8ff" stroke="#63b8ff" points="339.24,-157.87 349.67,-155.99 340.34,-150.96 339.24,-157.87"/>
</a>
</g>
</g>
</g>
</svg>
