<?xml version="1.0" encoding="UTF-8" standalone="no"?>
<!DOCTYPE svg PUBLIC "-//W3C//DTD SVG 1.1//EN"
 "http://www.w3.org/Graphics/SVG/1.1/DTD/svg11.dtd">
<!-- Generated by graphviz version 2.43.0 (0)
 -->
<!-- Title: MovementManager::get Pages: 1 -->
<svg width="693pt" height="304pt"
 viewBox="0.00 0.00 693.00 303.50" xmlns="http://www.w3.org/2000/svg" xmlns:xlink="http://www.w3.org/1999/xlink">
<g id="graph0" class="graph" transform="scale(1 1) rotate(0) translate(4 299.5)">
<title>MovementManager::get</title>
<!-- Node1 -->
<g id="Node000001" class="node">
<title>Node1</title>
<g id="a_Node000001"><a xlink:title=" ">
<polygon fill="#999999" stroke="#666666" points="685,-162.5 551,-162.5 551,-143.5 685,-143.5 685,-162.5"/>
<text text-anchor="middle" x="618" y="-150.5" font-family="Helvetica,sans-Serif" font-size="10.00">MovementManager::get</text>
</a>
</g>
</g>
<!-- Node2 -->
<g id="Node000002" class="node">
<title>Node2</title>
<g id="a_Node000002"><a xlink:href="classMovementManager.html#a7b4c819849375aa4fa32a2fab99df7c0" target="_top" xlink:title="Checks if an entity can accept new movement commands.">
<polygon fill="white" stroke="#666666" points="515,-295.5 324,-295.5 324,-276.5 515,-276.5 515,-295.5"/>
<text text-anchor="middle" x="419.5" y="-283.5" font-family="Helvetica,sans-Serif" font-size="10.00">MovementManager::canEntityMove</text>
</a>
</g>
</g>
<!-- Node1&#45;&gt;Node2 -->
<g id="edge1_Node000001_Node000002" class="edge">
<title>Node1&#45;&gt;Node2</title>
<g id="a_edge1_Node000001_Node000002"><a xlink:title=" ">
<path fill="none" stroke="#63b8ff" d="M605.24,-170.93C588.27,-195.32 554.57,-238.62 515,-262 504.36,-268.29 492.11,-272.94 480.02,-276.38"/>
<polygon fill="#63b8ff" stroke="#63b8ff" points="608.18,-172.82 610.9,-162.58 602.39,-168.89 608.18,-172.82"/>
</a>
</g>
</g>
<!-- Node3 -->
<g id="Node000003" class="node">
<title>Node3</title>
<g id="a_Node000003"><a xlink:href="classAISystem.html#ab7874e368d3dc14dc7838a8721e583e7" target="_top" xlink:title=" ">
<polygon fill="white" stroke="#666666" points="510,-181.5 329,-181.5 329,-162.5 510,-162.5 510,-181.5"/>
<text text-anchor="middle" x="419.5" y="-169.5" font-family="Helvetica,sans-Serif" font-size="10.00">AISystem::executeMovementPlan</text>
</a>
</g>
</g>
<!-- Node1&#45;&gt;Node3 -->
<g id="edge2_Node000001_Node000003" class="edge">
<title>Node1&#45;&gt;Node3</title>
<g id="a_edge2_Node000001_Node000003"><a xlink:title=" ">
<path fill="none" stroke="#63b8ff" d="M540.52,-160.4C530.57,-161.36 520.31,-162.35 510.18,-163.33"/>
<polygon fill="#63b8ff" stroke="#63b8ff" points="541.13,-163.85 550.75,-159.41 540.46,-156.88 541.13,-163.85"/>
</a>
</g>
</g>
<!-- Node4 -->
<g id="Node000004" class="node">
<title>Node4</title>
<g id="a_Node000004"><a xlink:href="classAISystem.html#a1d7894d2fba2b0f09b8929bbfd58ec4e" target="_top" xlink:title=" ">
<polygon fill="white" stroke="#666666" points="286,-199 141,-199 141,-169 286,-169 286,-199"/>
<text text-anchor="start" x="149" y="-187" font-family="Helvetica,sans-Serif" font-size="10.00">AISystem::processArriving</text>
<text text-anchor="middle" x="213.5" y="-176" font-family="Helvetica,sans-Serif" font-size="10.00">Entities</text>
</a>
</g>
</g>
<!-- Node1&#45;&gt;Node4 -->
<g id="edge16_Node000001_Node000004" class="edge">
<title>Node1&#45;&gt;Node4</title>
<g id="a_edge16_Node000001_Node000004"><a xlink:title=" ">
<path fill="none" stroke="#63b8ff" d="M588.48,-166.76C568.44,-175.64 540.73,-186.36 515,-191 437.71,-204.93 347.44,-200.06 286.16,-193.68"/>
<polygon fill="#63b8ff" stroke="#63b8ff" points="590,-169.91 597.66,-162.59 587.1,-163.54 590,-169.91"/>
</a>
</g>
</g>
<!-- Node5 -->
<g id="Node000005" class="node">
<title>Node5</title>
<g id="a_Node000005"><a xlink:href="main_8cpp.html#a0ddf1224851353fc92bfbff6f499fa97" target="_top" xlink:title=" ">
<polygon fill="white" stroke="#666666" points="72,-187.5 31,-187.5 31,-168.5 72,-168.5 72,-187.5"/>
<text text-anchor="middle" x="51.5" y="-175.5" font-family="Helvetica,sans-Serif" font-size="10.00">main</text>
</a>
</g>
</g>
<!-- Node1&#45;&gt;Node5 -->
<g id="edge10_Node000001_Node000005" class="edge">
<title>Node1&#45;&gt;Node5</title>
<g id="a_edge10_Node000001_Node000005"><a xlink:title=" ">
<path fill="none" stroke="#63b8ff" d="M596.15,-168.58C576.42,-182.28 545.38,-201.21 515,-209 353.13,-250.51 303.71,-236.21 139,-208 115.34,-203.95 89.5,-194.24 72.28,-186.96"/>
<polygon fill="#63b8ff" stroke="#63b8ff" points="598.26,-171.37 604.37,-162.71 594.2,-165.67 598.26,-171.37"/>
</a>
</g>
</g>
<!-- Node7 -->
<g id="Node000007" class="node">
<title>Node7</title>
<g id="a_Node000007"><a xlink:href="classAISystem.html#a6b84082c16eb0af5606049260db2d99f" target="_top" xlink:title=" ">
<polygon fill="white" stroke="#666666" points="288,-151 139,-151 139,-121 288,-121 288,-151"/>
<text text-anchor="start" x="147" y="-139" font-family="Helvetica,sans-Serif" font-size="10.00">AISystem::processPlanning</text>
<text text-anchor="middle" x="213.5" y="-128" font-family="Helvetica,sans-Serif" font-size="10.00">Entities</text>
</a>
</g>
</g>
<!-- Node1&#45;&gt;Node7 -->
<g id="edge17_Node000001_Node000007" class="edge">
<title>Node1&#45;&gt;Node7</title>
<g id="a_edge17_Node000001_Node000007"><a xlink:title=" ">
<path fill="none" stroke="#63b8ff" d="M540.99,-149.79C468.43,-146.72 359.8,-142.14 288.06,-139.11"/>
<polygon fill="#63b8ff" stroke="#63b8ff" points="540.85,-153.29 550.99,-150.21 541.14,-146.29 540.85,-153.29"/>
</a>
</g>
</g>
<!-- Node8 -->
<g id="Node000008" class="node">
<title>Node8</title>
<g id="a_Node000008"><a xlink:href="classPlayerController.html#a2d86ce597777dc1026b2ba232110bee2" target="_top" xlink:title="Handles SDL keyboard events to move the player entity.">
<polygon fill="white" stroke="#666666" points="486.5,-30 352.5,-30 352.5,0 486.5,0 486.5,-30"/>
<text text-anchor="start" x="360.5" y="-18" font-family="Helvetica,sans-Serif" font-size="10.00">PlayerController::handle</text>
<text text-anchor="middle" x="419.5" y="-7" font-family="Helvetica,sans-Serif" font-size="10.00">Event</text>
</a>
</g>
</g>
<!-- Node1&#45;&gt;Node8 -->
<g id="edge9_Node000001_Node000008" class="edge">
<title>Node1&#45;&gt;Node8</title>
<g id="a_edge9_Node000001_Node000008"><a xlink:title=" ">
<path fill="none" stroke="#63b8ff" d="M604.81,-134.98C587.57,-110.84 553.79,-68.22 515,-44 505.97,-38.36 495.78,-33.76 485.51,-30.01"/>
<polygon fill="#63b8ff" stroke="#63b8ff" points="601.99,-137.06 610.59,-143.26 607.73,-133.05 601.99,-137.06"/>
</a>
</g>
</g>
<!-- Node9 -->
<g id="Node000009" class="node">
<title>Node9</title>
<g id="a_Node000009"><a xlink:href="classAISystem.html#a3e9a6b233a440655d47ce5041941d698" target="_top" xlink:title=" ">
<polygon fill="white" stroke="#666666" points="491.5,-105.5 347.5,-105.5 347.5,-86.5 491.5,-86.5 491.5,-105.5"/>
<text text-anchor="middle" x="419.5" y="-93.5" font-family="Helvetica,sans-Serif" font-size="10.00">AISystem::planNextAction</text>
</a>
</g>
</g>
<!-- Node1&#45;&gt;Node9 -->
<g id="edge11_Node000001_Node000009" class="edge">
<title>Node1&#45;&gt;Node9</title>
<g id="a_edge11_Node000001_Node000009"><a xlink:title=" ">
<path fill="none" stroke="#63b8ff" d="M579.43,-140.21C560.24,-133.84 536.47,-126.19 515,-120 497.27,-114.89 477.51,-109.78 460.66,-105.59"/>
<polygon fill="#63b8ff" stroke="#63b8ff" points="578.41,-143.56 589.01,-143.41 580.63,-136.92 578.41,-143.56"/>
</a>
</g>
</g>
<!-- Node10 -->
<g id="Node000010" class="node">
<title>Node10</title>
<g id="a_Node000010"><a xlink:href="classAISystem.html#a260e9a02dff6d097b45fa7c6e3ae733f" target="_top" xlink:title=" ">
<polygon fill="white" stroke="#666666" points="270,-102.5 157,-102.5 157,-83.5 270,-83.5 270,-102.5"/>
<text text-anchor="middle" x="213.5" y="-90.5" font-family="Helvetica,sans-Serif" font-size="10.00">AISystem::updateAI</text>
</a>
</g>
</g>
<!-- Node1&#45;&gt;Node10 -->
<g id="edge18_Node000001_Node000010" class="edge">
<title>Node1&#45;&gt;Node10</title>
<g id="a_edge18_Node000001_Node000010"><a xlink:title=" ">
<path fill="none" stroke="#63b8ff" d="M601.32,-136.08C582.79,-117.46 550.03,-88.62 515,-77 422.27,-46.25 304.67,-68.96 248.01,-83.44"/>
<polygon fill="#63b8ff" stroke="#63b8ff" points="598.89,-138.6 608.36,-143.36 603.92,-133.73 598.89,-138.6"/>
</a>
</g>
</g>
<!-- Node3&#45;&gt;Node4 -->
<g id="edge3_Node000003_Node000004" class="edge">
<title>Node3&#45;&gt;Node4</title>
<g id="a_edge3_Node000003_Node000004"><a xlink:title=" ">
<path fill="none" stroke="#63b8ff" d="M318.69,-177.87C307.74,-178.52 296.75,-179.16 286.24,-179.78"/>
<polygon fill="#63b8ff" stroke="#63b8ff" points="318.95,-181.36 328.73,-177.28 318.54,-174.37 318.95,-181.36"/>
</a>
</g>
</g>
<!-- Node3&#45;&gt;Node7 -->
<g id="edge6_Node000003_Node000007" class="edge">
<title>Node3&#45;&gt;Node7</title>
<g id="a_edge6_Node000003_Node000007"><a xlink:title=" ">
<path fill="none" stroke="#63b8ff" d="M354.53,-160.71C333.51,-157 309.96,-152.85 288.27,-149.02"/>
<polygon fill="#63b8ff" stroke="#63b8ff" points="354.18,-164.2 364.63,-162.49 355.39,-157.31 354.18,-164.2"/>
</a>
</g>
</g>
<!-- Node4&#45;&gt;Node5 -->
<g id="edge4_Node000004_Node000005" class="edge">
<title>Node4&#45;&gt;Node5</title>
<g id="a_edge4_Node000004_Node000005"><a xlink:title=" ">
<path fill="none" stroke="#63b8ff" d="M130.88,-180.94C108.98,-180.12 87.25,-179.3 72.24,-178.74"/>
<polygon fill="#63b8ff" stroke="#63b8ff" points="130.8,-184.44 140.92,-181.32 131.06,-177.44 130.8,-184.44"/>
</a>
</g>
</g>
<!-- Node6 -->
<g id="Node000006" class="node">
<title>Node6</title>
<g id="a_Node000006"><a xlink:href="classAISystem.html#a4c1e02a04a3053c073e58ad44f4d0293" target="_top" xlink:title=" ">
<polygon fill="white" stroke="#666666" points="103,-145.5 0,-145.5 0,-126.5 103,-126.5 103,-145.5"/>
<text text-anchor="middle" x="51.5" y="-133.5" font-family="Helvetica,sans-Serif" font-size="10.00">AISystem::update</text>
</a>
</g>
</g>
<!-- Node4&#45;&gt;Node6 -->
<g id="edge5_Node000004_Node000006" class="edge">
<title>Node4&#45;&gt;Node6</title>
<g id="a_edge5_Node000004_Node000006"><a xlink:title=" ">
<path fill="none" stroke="#63b8ff" d="M152.56,-166.02C129.41,-159.07 103.87,-151.41 84.38,-145.56"/>
<polygon fill="#63b8ff" stroke="#63b8ff" points="151.73,-169.42 162.31,-168.94 153.74,-162.72 151.73,-169.42"/>
</a>
</g>
</g>
<!-- Node7&#45;&gt;Node5 -->
<g id="edge7_Node000007_Node000005" class="edge">
<title>Node7&#45;&gt;Node5</title>
<g id="a_edge7_Node000007_Node000005"><a xlink:title=" ">
<path fill="none" stroke="#63b8ff" d="M145.17,-153.67C118.73,-160.61 90.4,-168.05 72.12,-172.85"/>
<polygon fill="#63b8ff" stroke="#63b8ff" points="146.4,-156.97 155.19,-151.04 144.63,-150.2 146.4,-156.97"/>
</a>
</g>
</g>
<!-- Node7&#45;&gt;Node6 -->
<g id="edge8_Node000007_Node000006" class="edge">
<title>Node7&#45;&gt;Node6</title>
<g id="a_edge8_Node000007_Node000006"><a xlink:title=" ">
<path fill="none" stroke="#63b8ff" d="M128.48,-136C119.88,-136 111.33,-136 103.25,-136"/>
<polygon fill="#63b8ff" stroke="#63b8ff" points="128.59,-139.5 138.59,-136 128.59,-132.5 128.59,-139.5"/>
</a>
</g>
</g>
<!-- Node9&#45;&gt;Node7 -->
<g id="edge12_Node000009_Node000007" class="edge">
<title>Node9&#45;&gt;Node7</title>
<g id="a_edge12_Node000009_Node000007"><a xlink:title=" ">
<path fill="none" stroke="#63b8ff" d="M359.9,-107.49C337.57,-111.87 311.82,-116.92 288.26,-121.54"/>
<polygon fill="#63b8ff" stroke="#63b8ff" points="360.76,-110.89 369.9,-105.53 359.41,-104.02 360.76,-110.89"/>
</a>
</g>
</g>
<!-- Node9&#45;&gt;Node10 -->
<g id="edge13_Node000009_Node000010" class="edge">
<title>Node9&#45;&gt;Node10</title>
<g id="a_edge13_Node000009_Node000010"><a xlink:title=" ">
<path fill="none" stroke="#63b8ff" d="M337.23,-94.8C314.75,-94.47 290.87,-94.12 270.21,-93.82"/>
<polygon fill="#63b8ff" stroke="#63b8ff" points="337.39,-98.31 347.44,-94.95 337.49,-91.31 337.39,-98.31"/>
</a>
</g>
</g>
<!-- Node10&#45;&gt;Node5 -->
<g id="edge14_Node000010_Node000005" class="edge">
<title>Node10&#45;&gt;Node5</title>
<g id="a_edge14_Node000010_Node000005"><a xlink:title=" ">
<path fill="none" stroke="#63b8ff" d="M149.64,-106.33C145.93,-108 142.35,-109.88 139,-112 117.93,-125.31 122.83,-139.9 103,-155 93.8,-162 82.13,-167.49 72.33,-171.35"/>
<polygon fill="#63b8ff" stroke="#63b8ff" points="151.05,-109.53 159.05,-102.59 148.47,-103.03 151.05,-109.53"/>
</a>
</g>
</g>
<!-- Node10&#45;&gt;Node6 -->
<g id="edge15_Node000010_Node000006" class="edge">
<title>Node10&#45;&gt;Node6</title>
<g id="a_edge15_Node000010_Node000006"><a xlink:title=" ">
<path fill="none" stroke="#63b8ff" d="M165.35,-105.06C156.59,-107.33 147.51,-109.72 139,-112 121.69,-116.64 102.47,-121.95 86.56,-126.4"/>
<polygon fill="#63b8ff" stroke="#63b8ff" points="166.27,-108.43 175.08,-102.54 164.52,-101.66 166.27,-108.43"/>
</a>
</g>
</g>
</g>
</svg>
