<?xml version="1.0" encoding="UTF-8" standalone="no"?>
<!DOCTYPE svg PUBLIC "-//W3C//DTD SVG 1.1//EN"
 "http://www.w3.org/Graphics/SVG/1.1/DTD/svg11.dtd">
<!-- Generated by graphviz version 2.43.0 (0)
 -->
<!-- Title: Square Pages: 1 -->
<svg width="220pt" height="272pt"
 viewBox="0.00 0.00 219.50 272.00" xmlns="http://www.w3.org/2000/svg" xmlns:xlink="http://www.w3.org/1999/xlink">
<g id="graph0" class="graph" transform="scale(1 1) rotate(0) translate(4 268)">
<title>Square</title>
<!-- Node1 -->
<g id="Node000001" class="node">
<title>Node1</title>
<g id="a_Node000001"><a xlink:title=" ">
<polygon fill="#999999" stroke="transparent" points="137,-64 74,-64 74,0 137,0 137,-64"/>
<text text-anchor="start" x="89" y="-52" font-family="Helvetica,sans-Serif" font-size="10.00">Square</text>
<text text-anchor="start" x="104" y="-37" font-family="Helvetica,sans-Serif" font-size="10.00"> </text>
<text text-anchor="start" x="78.5" y="-22" font-family="Helvetica,sans-Serif" font-size="10.00">+</text>
<text text-anchor="start" x="91.5" y="-22" font-family="Helvetica,sans-Serif" font-size="10.00">Square()</text>
<text text-anchor="start" x="78.5" y="-7" font-family="Helvetica,sans-Serif" font-size="10.00">+</text>
<text text-anchor="start" x="91.5" y="-7" font-family="Helvetica,sans-Serif" font-size="10.00">render()</text>
<polygon fill="#666666" stroke="#666666" points="74.5,-47 74.5,-47 137.5,-47 137.5,-47 74.5,-47"/>
<polygon fill="#666666" stroke="#666666" points="74.5,-32 74.5,-32 137.5,-32 137.5,-32 74.5,-32"/>
<polygon fill="none" stroke="#666666" points="74,0 74,-64 137,-64 137,0 74,0"/>
</a>
</g>
</g>
<!-- Node2 -->
<g id="Node000002" class="node">
<title>Node2</title>
<g id="a_Node000002"><a xlink:href="classShapeRenderableComponent.html" target="_top" xlink:title=" ">
<polygon fill="white" stroke="transparent" points="191,-149 20,-149 20,-100 191,-100 191,-149"/>
<text text-anchor="start" x="35" y="-136.5" font-family="Helvetica,sans-Serif" font-size="10.00">ShapeRenderableComponent</text>
<text text-anchor="start" x="24.5" y="-121.5" font-family="Helvetica,sans-Serif" font-size="10.00">+</text>
<text text-anchor="start" x="37.5" y="-121.5" font-family="Helvetica,sans-Serif" font-size="10.00">color</text>
<text text-anchor="start" x="24.5" y="-106.5" font-family="Helvetica,sans-Serif" font-size="10.00">+</text>
<text text-anchor="start" x="37.5" y="-106.5" font-family="Helvetica,sans-Serif" font-size="10.00">ShapeRenderableComponent()</text>
<polygon fill="#666666" stroke="#666666" points="20.5,-131.5 20.5,-131.5 191.5,-131.5 191.5,-131.5 20.5,-131.5"/>
<polygon fill="#666666" stroke="#666666" points="20.5,-116.5 20.5,-116.5 35.5,-116.5 35.5,-116.5 20.5,-116.5"/>
<polygon fill="#666666" stroke="#666666" points="35.5,-116.5 35.5,-116.5 191.5,-116.5 191.5,-116.5 35.5,-116.5"/>
<polygon fill="none" stroke="#666666" points="20,-100 20,-149 191,-149 191,-100 20,-100"/>
</a>
</g>
</g>
<!-- Node2&#45;&gt;Node1 -->
<g id="edge1_Node000001_Node000002" class="edge">
<title>Node2&#45;&gt;Node1</title>
<g id="a_edge1_Node000001_Node000002"><a xlink:title=" ">
<path fill="none" stroke="#63b8ff" d="M105.5,-89.54C105.5,-81.2 105.5,-72.31 105.5,-64.11"/>
<polygon fill="none" stroke="#63b8ff" points="102,-89.72 105.5,-99.72 109,-89.72 102,-89.72"/>
</a>
</g>
</g>
<!-- Node3 -->
<g id="Node000003" class="node">
<title>Node3</title>
<g id="a_Node000003"><a xlink:href="classECS_1_1IComponent.html" target="_top" xlink:title=" ">
<polygon fill="white" stroke="transparent" points="97,-249 0,-249 0,-200 97,-200 97,-249"/>
<text text-anchor="start" x="6.5" y="-236.5" font-family="Helvetica,sans-Serif" font-size="10.00">ECS::IComponent</text>
<text text-anchor="start" x="47" y="-221.5" font-family="Helvetica,sans-Serif" font-size="10.00"> </text>
<text text-anchor="start" x="4.5" y="-206.5" font-family="Helvetica,sans-Serif" font-size="10.00">+</text>
<text text-anchor="start" x="17.5" y="-206.5" font-family="Helvetica,sans-Serif" font-size="10.00">~IComponent()</text>
<polygon fill="#666666" stroke="#666666" points="0.5,-231.5 0.5,-231.5 97.5,-231.5 97.5,-231.5 0.5,-231.5"/>
<polygon fill="#666666" stroke="#666666" points="0.5,-216.5 0.5,-216.5 97.5,-216.5 97.5,-216.5 0.5,-216.5"/>
<polygon fill="none" stroke="#666666" points="0,-200 0,-249 97,-249 97,-200 0,-200"/>
</a>
</g>
</g>
<!-- Node3&#45;&gt;Node2 -->
<g id="edge2_Node000002_Node000003" class="edge">
<title>Node3&#45;&gt;Node2</title>
<g id="a_edge2_Node000002_Node000003"><a xlink:title=" ">
<path fill="none" stroke="#63b8ff" d="M67.36,-191.08C75.35,-177.33 84.5,-161.61 91.83,-149"/>
<polygon fill="none" stroke="#63b8ff" points="64.3,-189.37 62.3,-199.78 70.35,-192.89 64.3,-189.37"/>
</a>
</g>
</g>
<!-- Node4 -->
<g id="Node000004" class="node">
<title>Node4</title>
<g id="a_Node000004"><a xlink:href="classIRenderable.html" target="_top" xlink:title=" ">
<polygon fill="white" stroke="transparent" points="211.5,-264 115.5,-264 115.5,-185 211.5,-185 211.5,-264"/>
<text text-anchor="start" x="134" y="-251.5" font-family="Helvetica,sans-Serif" font-size="10.00">IRenderable</text>
<text text-anchor="start" x="119.5" y="-236.5" font-family="Helvetica,sans-Serif" font-size="10.00">+</text>
<text text-anchor="start" x="132.5" y="-236.5" font-family="Helvetica,sans-Serif" font-size="10.00">rect</text>
<text text-anchor="start" x="119.5" y="-221.5" font-family="Helvetica,sans-Serif" font-size="10.00">+</text>
<text text-anchor="start" x="132.5" y="-221.5" font-family="Helvetica,sans-Serif" font-size="10.00">IRenderable()</text>
<text text-anchor="start" x="119.5" y="-206.5" font-family="Helvetica,sans-Serif" font-size="10.00">+</text>
<text text-anchor="start" x="132.5" y="-206.5" font-family="Helvetica,sans-Serif" font-size="10.00">~IRenderable()</text>
<text text-anchor="start" x="119.5" y="-191.5" font-family="Helvetica,sans-Serif" font-size="10.00">+</text>
<text text-anchor="start" x="132.5" y="-191.5" font-family="Helvetica,sans-Serif" font-size="10.00">render()</text>
<polygon fill="#666666" stroke="#666666" points="115.5,-246.5 115.5,-246.5 211.5,-246.5 211.5,-246.5 115.5,-246.5"/>
<polygon fill="#666666" stroke="#666666" points="115.5,-231.5 115.5,-231.5 130.5,-231.5 130.5,-231.5 115.5,-231.5"/>
<polygon fill="#666666" stroke="#666666" points="130.5,-231.5 130.5,-231.5 211.5,-231.5 211.5,-231.5 130.5,-231.5"/>
<polygon fill="none" stroke="#666666" points="115.5,-185 115.5,-264 211.5,-264 211.5,-185 115.5,-185"/>
</a>
</g>
</g>
<!-- Node4&#45;&gt;Node2 -->
<g id="edge3_Node000002_Node000004" class="edge">
<title>Node4&#45;&gt;Node2</title>
<g id="a_edge3_Node000002_Node000004"><a xlink:title=" ">
<path fill="none" stroke="#63b8ff" d="M135.31,-175.87C129.78,-166.53 124.21,-157.12 119.41,-149"/>
<polygon fill="none" stroke="#63b8ff" points="132.47,-177.94 140.58,-184.77 138.5,-174.38 132.47,-177.94"/>
</a>
</g>
</g>
</g>
</svg>
