<?xml version="1.0" encoding="UTF-8" standalone="no"?>
<!DOCTYPE svg PUBLIC "-//W3C//DTD SVG 1.1//EN"
 "http://www.w3.org/Graphics/SVG/1.1/DTD/svg11.dtd">
<!-- Generated by graphviz version 2.43.0 (0)
 -->
<!-- Title: AISystem::processPlanningEntities Pages: 1 -->
<!--zoomable 473 -->

<svg id="main" version="1.1" xmlns="http://www.w3.org/2000/svg" xmlns:xlink="http://www.w3.org/1999/xlink" xml:space="preserve" onload="init(evt)">
<style type="text/css"><![CDATA[
.node, .edge {opacity: 0.7;}
.node.selected, .edge.selected {opacity: 1;}
.edge:hover path { stroke: red; }
.edge:hover polygon { stroke: red; fill: red; }
]]></style>

<defs>
  <circle id="rim" cx="0" cy="0" r="7"/>
  <circle id="rim2" cx="0" cy="0" r="3.5"/>
  <g id="zoomPlus">
    <use xlink:href="#rim" fill="#404040"><set attributeName="fill" to="#808080" begin="zoomplus.mouseover" end="zoomplus.mouseout"/></use>
    <path d="M-4,0h8M0,-4v8" fill="none" stroke="white" stroke-width="1.5" pointer-events="none"/>
  </g>
  <g id="zoomMin">
    <use xlink:href="#rim" fill="#404040"><set attributeName="fill" to="#808080" begin="zoomminus.mouseover" end="zoomminus.mouseout"/></use>
    <path d="M-4,0h8" fill="none" stroke="white" stroke-width="1.5" pointer-events="none"/>
  </g>
  <g id="arrowUp" transform="translate(30 24)">
    <use xlink:href="#rim"/>
    <path pointer-events="none" fill="none" stroke="white" stroke-width="1.5" d="M0,-3.0v7 M-2.5,-0.5L0,-3.0L2.5,-0.5"/>
  </g>
  <g id="arrowRight" transform="rotate(90) translate(36 -43)">
    <use xlink:href="#rim"/>
    <path pointer-events="none" fill="none" stroke="white" stroke-width="1.5" d="M0,-3.0v7 M-2.5,-0.5L0,-3.0L2.5,-0.5"/>
  </g>
  <g id="arrowDown" transform="rotate(180) translate(-30 -48)">
    <use xlink:href="#rim"/>
    <path pointer-events="none" fill="none" stroke="white" stroke-width="1.5" d="M0,-3.0v7 M-2.5,-0.5L0,-3.0L2.5,-0.5"/>
  </g>
  <g id="arrowLeft" transform="rotate(270) translate(-36 17)">
    <use xlink:href="#rim"/>
    <path pointer-events="none" fill="none" stroke="white" stroke-width="1.5" d="M0,-3.0v7 M-2.5,-0.5L0,-3.0L2.5,-0.5"/>
  </g>
  <g id="resetDef">
    <use xlink:href="#rim2" fill="#404040"><set attributeName="fill" to="#808080" begin="reset.mouseover" end="reset.mouseout"/></use>
  </g>
</defs>
<script type="application/ecmascript">
var viewWidth = 1115;
var viewHeight = 473;
var sectionId = 'dynsection-10';
</script>
<script type="application/ecmascript" xlink:href="svg.min.js"/>
<svg id="graph" class="graph">
<g id="viewport">
<title>AISystem::processPlanningEntities</title>
<!-- Node1 -->
<g id="Node000001" class="node">
<title>Node1</title>
<g id="a_Node000001"><a xlink:title=" ">
<polygon fill="#999999" stroke="#666666" points="149,-204.5 0,-204.5 0,-174.5 149,-174.5 149,-204.5"/>
<text text-anchor="start" x="8" y="-192.5" font-family="Helvetica,sans-Serif" font-size="10.00">AISystem::processPlanning</text>
<text text-anchor="middle" x="74.5" y="-181.5" font-family="Helvetica,sans-Serif" font-size="10.00">Entities</text>
</a>
</g>
</g>
<!-- Node2 -->
<g id="Node000002" class="node">
<title>Node2</title>
<g id="a_Node000002"><a xlink:href="classAISystem.html#ab7874e368d3dc14dc7838a8721e583e7" target="_top" xlink:title=" ">
<polygon fill="white" stroke="#666666" points="366,-313 185,-313 185,-294 366,-294 366,-313"/>
<text text-anchor="middle" x="275.5" y="-301" font-family="Helvetica,sans-Serif" font-size="10.00">AISystem::executeMovementPlan</text>
</a>
</g>
</g>
<!-- Node1&#45;&gt;Node2 -->
<g id="edge1_Node000001_Node000002" class="edge">
<title>Node1&#45;&gt;Node2</title>
<g id="a_edge1_Node000001_Node000002"><a xlink:title=" ">
<path fill="none" stroke="#63b8ff" d="M89.61,-204.57C109.17,-224.58 146.48,-259.69 185,-279.5 194.01,-284.13 204.01,-287.94 213.96,-291.05"/>
<polygon fill="#63b8ff" stroke="#63b8ff" points="213.28,-294.49 223.86,-293.93 215.23,-287.77 213.28,-294.49"/>
</a>
</g>
</g>
<!-- Node10 -->
<g id="Node000010" class="node">
<title>Node10</title>
<g id="a_Node000010"><a xlink:href="classMovementManager.html#a114bf0653e258541fe63e3e5144aba20" target="_top" xlink:title=" ">
<polygon fill="white" stroke="#666666" points="565.5,-315 431.5,-315 431.5,-296 565.5,-296 565.5,-315"/>
<text text-anchor="middle" x="498.5" y="-303" font-family="Helvetica,sans-Serif" font-size="10.00">MovementManager::get</text>
</a>
</g>
</g>
<!-- Node1&#45;&gt;Node10 -->
<g id="edge15_Node000001_Node000010" class="edge">
<title>Node1&#45;&gt;Node10</title>
<g id="a_edge15_Node000001_Node000010"><a xlink:title=" ">
<path fill="none" stroke="#63b8ff" d="M82.42,-204.77C96.7,-234.12 132.53,-297.73 185,-322.5 226.85,-342.25 351.38,-328.19 430.02,-316.57"/>
<polygon fill="#63b8ff" stroke="#63b8ff" points="430.96,-319.97 440.33,-315.02 429.92,-313.05 430.96,-319.97"/>
</a>
</g>
</g>
<!-- Node11 -->
<g id="Node000011" class="node">
<title>Node11</title>
<g id="a_Node000011"><a xlink:href="classPositionManager.html#ac2ce0980eefb0e2afd6e6fe08fb8c28d" target="_top" xlink:title=" ">
<polygon fill="white" stroke="#666666" points="558.5,-278 438.5,-278 438.5,-259 558.5,-259 558.5,-278"/>
<text text-anchor="middle" x="498.5" y="-266" font-family="Helvetica,sans-Serif" font-size="10.00">PositionManager::get</text>
</a>
</g>
</g>
<!-- Node1&#45;&gt;Node11 -->
<g id="edge16_Node000001_Node000011" class="edge">
<title>Node1&#45;&gt;Node11</title>
<g id="a_edge16_Node000001_Node000011"><a xlink:title=" ">
<path fill="none" stroke="#63b8ff" d="M112.69,-204.53C133.63,-212.44 160.42,-221.69 185,-227.5 267.35,-246.98 364.24,-257.88 428.05,-263.47"/>
<polygon fill="#63b8ff" stroke="#63b8ff" points="428.13,-266.99 438.4,-264.35 428.73,-260.01 428.13,-266.99"/>
</a>
</g>
</g>
<!-- Node13 -->
<g id="Node000013" class="node">
<title>Node13</title>
<g id="a_Node000013"><a xlink:href="classDescriptionComponentManager.html#af2c0d5093dab327c94ea345267cafa91" target="_top" xlink:title=" ">
<polygon fill="white" stroke="#666666" points="595,-241 402,-241 402,-222 595,-222 595,-241"/>
<text text-anchor="middle" x="498.5" y="-229" font-family="Helvetica,sans-Serif" font-size="10.00">DescriptionComponentManager::get</text>
</a>
</g>
</g>
<!-- Node1&#45;&gt;Node13 -->
<g id="edge14_Node000001_Node000013" class="edge">
<title>Node1&#45;&gt;Node13</title>
<g id="a_edge14_Node000001_Node000013"><a xlink:title=" ">
<path fill="none" stroke="#63b8ff" d="M149.04,-200.89C161.04,-202.56 173.36,-204.17 185,-205.5 253.64,-213.36 331.02,-219.82 391.61,-224.33"/>
<polygon fill="#63b8ff" stroke="#63b8ff" points="391.73,-227.85 401.96,-225.1 392.24,-220.87 391.73,-227.85"/>
</a>
</g>
</g>
<!-- Node14 -->
<g id="Node000014" class="node">
<title>Node14</title>
<g id="a_Node000014"><a xlink:href="classInfoBoxManager.html#a645487042fb4dbdd2665a1a3ac67d913" target="_top" xlink:title=" ">
<polygon fill="white" stroke="#666666" points="558,-204 439,-204 439,-185 558,-185 558,-204"/>
<text text-anchor="middle" x="498.5" y="-192" font-family="Helvetica,sans-Serif" font-size="10.00">InfoBoxManager::get</text>
</a>
</g>
</g>
<!-- Node1&#45;&gt;Node14 -->
<g id="edge17_Node000001_Node000014" class="edge">
<title>Node1&#45;&gt;Node14</title>
<g id="a_edge17_Node000001_Node000014"><a xlink:title=" ">
<path fill="none" stroke="#63b8ff" d="M149.01,-190.37C227.77,-191.3 351.8,-192.77 428.7,-193.68"/>
<polygon fill="#63b8ff" stroke="#63b8ff" points="428.72,-197.19 438.76,-193.8 428.8,-190.19 428.72,-197.19"/>
</a>
</g>
</g>
<!-- Node15 -->
<g id="Node000015" class="node">
<title>Node15</title>
<g id="a_Node000015"><a xlink:href="classClock.html#a606f306fd13229f60d07f86cc9de4ca7" target="_top" xlink:title=" ">
<polygon fill="white" stroke="#666666" points="543,-56 454,-56 454,-37 543,-37 543,-56"/>
<text text-anchor="middle" x="498.5" y="-44" font-family="Helvetica,sans-Serif" font-size="10.00">Clock::getHour</text>
</a>
</g>
</g>
<!-- Node1&#45;&gt;Node15 -->
<g id="edge18_Node000001_Node000015" class="edge">
<title>Node1&#45;&gt;Node15</title>
<g id="a_edge18_Node000001_Node000015"><a xlink:title=" ">
<path fill="none" stroke="#63b8ff" d="M87.81,-174.21C106.36,-152.34 143.72,-112.66 185,-93.5 269.38,-54.34 379.08,-46.43 443.54,-45.56"/>
<polygon fill="#63b8ff" stroke="#63b8ff" points="443.9,-49.06 453.87,-45.48 443.84,-42.06 443.9,-49.06"/>
</a>
</g>
</g>
<!-- Node16 -->
<g id="Node000016" class="node">
<title>Node16</title>
<g id="a_Node000016"><a xlink:href="classClock.html#abcb74cc346bbd49fb8a7df7deb4c0c9c" target="_top" xlink:title=" ">
<polygon fill="white" stroke="#666666" points="559,-19 438,-19 438,0 559,0 559,-19"/>
<text text-anchor="middle" x="498.5" y="-7" font-family="Helvetica,sans-Serif" font-size="10.00">Clock::getTimeOfDay</text>
</a>
</g>
</g>
<!-- Node1&#45;&gt;Node16 -->
<g id="edge19_Node000001_Node000016" class="edge">
<title>Node1&#45;&gt;Node16</title>
<g id="a_edge19_Node000001_Node000016"><a xlink:title=" ">
<path fill="none" stroke="#63b8ff" d="M82.16,-174.15C96.21,-143.85 132.01,-76.67 185,-46.5 259.85,-3.88 361.03,0.27 427.72,-2.82"/>
<polygon fill="#63b8ff" stroke="#63b8ff" points="427.54,-6.31 437.71,-3.35 427.91,0.68 427.54,-6.31"/>
</a>
</g>
</g>
<!-- Node17 -->
<g id="Node000017" class="node">
<title>Node17</title>
<g id="a_Node000017"><a xlink:href="classAISystem.html#a3e9a6b233a440655d47ce5041941d698" target="_top" xlink:title=" ">
<polygon fill="white" stroke="#666666" points="347.5,-161 203.5,-161 203.5,-142 347.5,-142 347.5,-161"/>
<text text-anchor="middle" x="275.5" y="-149" font-family="Helvetica,sans-Serif" font-size="10.00">AISystem::planNextAction</text>
</a>
</g>
</g>
<!-- Node1&#45;&gt;Node17 -->
<g id="edge20_Node000001_Node000017" class="edge">
<title>Node1&#45;&gt;Node17</title>
<g id="a_edge20_Node000001_Node000017"><a xlink:title=" ">
<path fill="none" stroke="#63b8ff" d="M149.03,-175.46C170.63,-171.33 193.99,-166.87 214.62,-162.93"/>
<polygon fill="#63b8ff" stroke="#63b8ff" points="215.35,-166.36 224.52,-161.04 214.04,-159.48 215.35,-166.36"/>
</a>
</g>
</g>
<!-- Node21 -->
<g id="Node000021" class="node">
<title>Node21</title>
<g id="a_Node000021"><a xlink:href="classAISystem.html#a78ba48851d99fa06efdfaf41f5456217" target="_top" xlink:title=" ">
<polygon fill="white" stroke="#666666" points="362,-122 189,-122 189,-103 362,-103 362,-122"/>
<text text-anchor="middle" x="275.5" y="-110" font-family="Helvetica,sans-Serif" font-size="10.00">AISystem::shouldReplanActivity</text>
</a>
</g>
</g>
<!-- Node1&#45;&gt;Node21 -->
<g id="edge31_Node000001_Node000021" class="edge">
<title>Node1&#45;&gt;Node21</title>
<g id="a_edge31_Node000001_Node000021"><a xlink:title=" ">
<path fill="none" stroke="#63b8ff" d="M99.88,-174.45C121.53,-161.67 154.4,-143.67 185,-132.5 193.26,-129.49 202.12,-126.84 210.94,-124.55"/>
<polygon fill="#63b8ff" stroke="#63b8ff" points="211.97,-127.9 220.84,-122.11 210.29,-121.1 211.97,-127.9"/>
</a>
</g>
</g>
<!-- Node3 -->
<g id="Node000003" class="node">
<title>Node3</title>
<g id="a_Node000003"><a xlink:href="classPathfinder.html#a606e84e19623d97559d949a2e27e451c" target="_top" xlink:title="Finds the shortest path from a start point to the nearest valid cell of a named zone.">
<polygon fill="white" stroke="#666666" points="571.5,-352 425.5,-352 425.5,-333 571.5,-333 571.5,-352"/>
<text text-anchor="middle" x="498.5" y="-340" font-family="Helvetica,sans-Serif" font-size="10.00">Pathfinder::findPathToZone</text>
</a>
</g>
</g>
<!-- Node2&#45;&gt;Node3 -->
<g id="edge2_Node000002_Node000003" class="edge">
<title>Node2&#45;&gt;Node3</title>
<g id="a_edge2_Node000002_Node000003"><a xlink:title=" ">
<path fill="none" stroke="#63b8ff" d="M330.56,-313.04C361.71,-318.54 401.05,-325.48 433.71,-331.24"/>
<polygon fill="#63b8ff" stroke="#63b8ff" points="433.16,-334.7 443.61,-332.99 434.37,-327.81 433.16,-334.7"/>
</a>
</g>
</g>
<!-- Node2&#45;&gt;Node10 -->
<g id="edge11_Node000002_Node000010" class="edge">
<title>Node2&#45;&gt;Node10</title>
<g id="a_edge11_Node000002_Node000010"><a xlink:title=" ">
<path fill="none" stroke="#63b8ff" d="M366.07,-304.31C384.27,-304.48 403.26,-304.65 420.97,-304.81"/>
<polygon fill="#63b8ff" stroke="#63b8ff" points="421.19,-308.31 431.22,-304.9 421.26,-301.31 421.19,-308.31"/>
</a>
</g>
</g>
<!-- Node2&#45;&gt;Node11 -->
<g id="edge12_Node000002_Node000011" class="edge">
<title>Node2&#45;&gt;Node11</title>
<g id="a_edge12_Node000002_Node000011"><a xlink:title=" ">
<path fill="none" stroke="#63b8ff" d="M336.6,-293.98C364.84,-289.51 398.67,-284.15 428.01,-279.51"/>
<polygon fill="#63b8ff" stroke="#63b8ff" points="428.85,-282.92 438.18,-277.89 427.76,-276 428.85,-282.92"/>
</a>
</g>
</g>
<!-- Node12 -->
<g id="Node000012" class="node">
<title>Node12</title>
<g id="a_Node000012"><a xlink:href="classAIManager.html#aa0fe5da7752c8478ae72c9cb26dc7886" target="_top" xlink:title=" ">
<polygon fill="white" stroke="#666666" points="544,-167 453,-167 453,-148 544,-148 544,-167"/>
<text text-anchor="middle" x="498.5" y="-155" font-family="Helvetica,sans-Serif" font-size="10.00">AIManager::get</text>
</a>
</g>
</g>
<!-- Node2&#45;&gt;Node12 -->
<g id="edge13_Node000002_Node000012" class="edge">
<title>Node2&#45;&gt;Node12</title>
<g id="a_edge13_Node000002_Node000012"><a xlink:title=" ">
<path fill="none" stroke="#63b8ff" d="M282.8,-293.97C299.23,-269.94 346.05,-206.62 402,-176.5 414.46,-169.79 428.97,-165.44 442.88,-162.62"/>
<polygon fill="#63b8ff" stroke="#63b8ff" points="443.63,-166.04 452.85,-160.83 442.39,-159.15 443.63,-166.04"/>
</a>
</g>
</g>
<!-- Node4 -->
<g id="Node000004" class="node">
<title>Node4</title>
<g id="a_Node000004"><a xlink:href="classGrid.html#ae448ea0d444c23fe89743430b040537c" target="_top" xlink:title=" ">
<polygon fill="white" stroke="#666666" points="931,-315 878,-315 878,-296 931,-296 931,-315"/>
<text text-anchor="middle" x="904.5" y="-303" font-family="Helvetica,sans-Serif" font-size="10.00">Grid::at</text>
</a>
</g>
</g>
<!-- Node3&#45;&gt;Node4 -->
<g id="edge3_Node000003_Node000004" class="edge">
<title>Node3&#45;&gt;Node4</title>
<g id="a_edge3_Node000003_Node000004"><a xlink:title=" ">
<path fill="none" stroke="#63b8ff" d="M571.73,-335.89C658.58,-327.93 800.95,-314.89 867.33,-308.81"/>
<polygon fill="#63b8ff" stroke="#63b8ff" points="868.04,-312.26 877.68,-307.86 867.4,-305.29 868.04,-312.26"/>
</a>
</g>
</g>
<!-- Node5 -->
<g id="Node000005" class="node">
<title>Node5</title>
<g id="a_Node000005"><a xlink:href="classPathfinder.html#aaa2739f2fbe69181ecc99c26c3e2c522" target="_top" xlink:title="Finds the shortest path from a start point to an end point using A*.">
<polygon fill="white" stroke="#666666" points="765,-380 655,-380 655,-361 765,-361 765,-380"/>
<text text-anchor="middle" x="710" y="-368" font-family="Helvetica,sans-Serif" font-size="10.00">Pathfinder::findPath</text>
</a>
</g>
</g>
<!-- Node3&#45;&gt;Node5 -->
<g id="edge4_Node000003_Node000005" class="edge">
<title>Node3&#45;&gt;Node5</title>
<g id="a_edge4_Node000003_Node000005"><a xlink:title=" ">
<path fill="none" stroke="#63b8ff" d="M570.72,-352.02C594.69,-355.22 621.28,-358.78 644.69,-361.91"/>
<polygon fill="#63b8ff" stroke="#63b8ff" points="644.48,-365.41 654.86,-363.26 645.41,-358.47 644.48,-365.41"/>
</a>
</g>
</g>
<!-- Node5&#45;&gt;Node4 -->
<g id="edge5_Node000005_Node000004" class="edge">
<title>Node5&#45;&gt;Node4</title>
<g id="a_edge5_Node000005_Node000004"><a xlink:title=" ">
<path fill="none" stroke="#63b8ff" d="M732.09,-360.91C754.72,-350.87 791.88,-335.13 825,-324.5 838.83,-320.06 854.32,-316.1 867.87,-312.97"/>
<polygon fill="#63b8ff" stroke="#63b8ff" points="868.8,-316.34 877.78,-310.73 867.26,-309.51 868.8,-316.34"/>
</a>
</g>
</g>
<!-- Node6 -->
<g id="Node000006" class="node">
<title>Node6</title>
<g id="a_Node000006"><a xlink:href="classPathfinder.html#a939ad9b8cf09ffff15a27a833d1b5abd" target="_top" xlink:title=" ">
<polygon fill="white" stroke="#666666" points="984,-389 825,-389 825,-370 984,-370 984,-389"/>
<text text-anchor="middle" x="904.5" y="-377" font-family="Helvetica,sans-Serif" font-size="10.00">Pathfinder::calculateHeuristic</text>
</a>
</g>
</g>
<!-- Node5&#45;&gt;Node6 -->
<g id="edge6_Node000005_Node000006" class="edge">
<title>Node5&#45;&gt;Node6</title>
<g id="a_edge6_Node000005_Node000006"><a xlink:title=" ">
<path fill="none" stroke="#63b8ff" d="M765.13,-373.03C780.51,-373.75 797.68,-374.55 814.55,-375.34"/>
<polygon fill="#63b8ff" stroke="#63b8ff" points="814.84,-378.86 824.99,-375.83 815.16,-371.87 814.84,-378.86"/>
</a>
</g>
</g>
<!-- Node7 -->
<g id="Node000007" class="node">
<title>Node7</title>
<g id="a_Node000007"><a xlink:href="classGrid.html#aca5987c146fcd4226cc5dfdf927f17b1" target="_top" xlink:title=" ">
<polygon fill="white" stroke="#666666" points="950,-352 859,-352 859,-333 950,-333 950,-352"/>
<text text-anchor="middle" x="904.5" y="-340" font-family="Helvetica,sans-Serif" font-size="10.00">Grid::getHeight</text>
</a>
</g>
</g>
<!-- Node5&#45;&gt;Node7 -->
<g id="edge7_Node000005_Node000007" class="edge">
<title>Node5&#45;&gt;Node7</title>
<g id="a_edge7_Node000005_Node000007"><a xlink:title=" ">
<path fill="none" stroke="#63b8ff" d="M765.13,-362.63C791.25,-358.83 822.51,-354.28 848.71,-350.47"/>
<polygon fill="#63b8ff" stroke="#63b8ff" points="849.46,-353.9 858.85,-348.99 848.45,-346.97 849.46,-353.9"/>
</a>
</g>
</g>
<!-- Node8 -->
<g id="Node000008" class="node">
<title>Node8</title>
<g id="a_Node000008"><a xlink:href="classGrid.html#a1e87189ca4bcb28b72b5e1bb78a532b5" target="_top" xlink:title=" ">
<polygon fill="white" stroke="#666666" points="1107,-446 1020,-446 1020,-427 1107,-427 1107,-446"/>
<text text-anchor="middle" x="1063.5" y="-434" font-family="Helvetica,sans-Serif" font-size="10.00">Grid::getWidth</text>
</a>
</g>
</g>
<!-- Node5&#45;&gt;Node8 -->
<g id="edge8_Node000005_Node000008" class="edge">
<title>Node5&#45;&gt;Node8</title>
<g id="a_edge8_Node000005_Node000008"><a xlink:title=" ">
<path fill="none" stroke="#63b8ff" d="M746.52,-380.02C768.92,-385.83 798.53,-393.14 825,-398.5 888.24,-411.3 961.66,-422.49 1009.93,-429.35"/>
<polygon fill="#63b8ff" stroke="#63b8ff" points="1009.45,-432.82 1019.84,-430.75 1010.42,-425.89 1009.45,-432.82"/>
</a>
</g>
</g>
<!-- Node9 -->
<g id="Node000009" class="node">
<title>Node9</title>
<g id="a_Node000009"><a xlink:href="classPathfinder.html#a611239025810ac996c2c009e953e6819" target="_top" xlink:title=" ">
<polygon fill="white" stroke="#666666" points="978,-465 831,-465 831,-446 978,-446 978,-465"/>
<text text-anchor="middle" x="904.5" y="-453" font-family="Helvetica,sans-Serif" font-size="10.00">Pathfinder::reconstructPath</text>
</a>
</g>
</g>
<!-- Node5&#45;&gt;Node9 -->
<g id="edge9_Node000005_Node000009" class="edge">
<title>Node5&#45;&gt;Node9</title>
<g id="a_edge9_Node000005_Node000009"><a xlink:title=" ">
<path fill="none" stroke="#63b8ff" d="M726.75,-380.2C748.32,-393.19 788.52,-416.33 825,-431.5 835.28,-435.77 846.59,-439.67 857.35,-443.03"/>
<polygon fill="#63b8ff" stroke="#63b8ff" points="856.44,-446.41 867.03,-445.95 858.47,-439.71 856.44,-446.41"/>
</a>
</g>
</g>
<!-- Node9&#45;&gt;Node8 -->
<g id="edge10_Node000009_Node000008" class="edge">
<title>Node9&#45;&gt;Node8</title>
<g id="a_edge10_Node000009_Node000008"><a xlink:title=" ">
<path fill="none" stroke="#63b8ff" d="M978.03,-446.72C988.75,-445.42 999.63,-444.11 1009.85,-442.87"/>
<polygon fill="#63b8ff" stroke="#63b8ff" points="1010.31,-446.34 1019.81,-441.67 1009.47,-439.39 1010.31,-446.34"/>
</a>
</g>
</g>
<!-- Node17&#45;&gt;Node10 -->
<g id="edge22_Node000017_Node000010" class="edge">
<title>Node17&#45;&gt;Node10</title>
<g id="a_edge22_Node000017_Node000010"><a xlink:title=" ">
<path fill="none" stroke="#63b8ff" d="M282.37,-161.37C298.12,-186.91 344.11,-255.43 402,-287.5 408.05,-290.85 414.61,-293.59 421.36,-295.83"/>
<polygon fill="#63b8ff" stroke="#63b8ff" points="420.77,-299.3 431.35,-298.76 422.74,-292.59 420.77,-299.3"/>
</a>
</g>
</g>
<!-- Node17&#45;&gt;Node11 -->
<g id="edge23_Node000017_Node000011" class="edge">
<title>Node17&#45;&gt;Node11</title>
<g id="a_edge23_Node000017_Node000011"><a xlink:title=" ">
<path fill="none" stroke="#63b8ff" d="M285.5,-161.24C304.75,-181.44 352.24,-227.85 402,-250.5 410.29,-254.27 419.33,-257.25 428.43,-259.61"/>
<polygon fill="#63b8ff" stroke="#63b8ff" points="427.77,-263.05 438.3,-261.93 429.37,-256.24 427.77,-263.05"/>
</a>
</g>
</g>
<!-- Node17&#45;&gt;Node12 -->
<g id="edge24_Node000017_Node000012" class="edge">
<title>Node17&#45;&gt;Node12</title>
<g id="a_edge24_Node000017_Node000012"><a xlink:title=" ">
<path fill="none" stroke="#63b8ff" d="M347.64,-153.43C378.43,-154.27 413.92,-155.23 442.62,-156.01"/>
<polygon fill="#63b8ff" stroke="#63b8ff" points="442.78,-159.52 452.87,-156.29 442.97,-152.52 442.78,-159.52"/>
</a>
</g>
</g>
<!-- Node17&#45;&gt;Node13 -->
<g id="edge21_Node000017_Node000013" class="edge">
<title>Node17&#45;&gt;Node13</title>
<g id="a_edge21_Node000017_Node000013"><a xlink:title=" ">
<path fill="none" stroke="#63b8ff" d="M292.53,-161.21C315.82,-174.89 360.74,-199.71 402,-213.5 409.01,-215.84 416.42,-217.91 423.88,-219.73"/>
<polygon fill="#63b8ff" stroke="#63b8ff" points="423.16,-223.16 433.69,-221.98 424.73,-216.33 423.16,-223.16"/>
</a>
</g>
</g>
<!-- Node17&#45;&gt;Node14 -->
<g id="edge25_Node000017_Node000014" class="edge">
<title>Node17&#45;&gt;Node14</title>
<g id="a_edge25_Node000017_Node000014"><a xlink:title=" ">
<path fill="none" stroke="#63b8ff" d="M323.86,-161.05C347.35,-165.76 376.15,-171.49 402,-176.5 413.15,-178.66 425.03,-180.93 436.49,-183.1"/>
<polygon fill="#63b8ff" stroke="#63b8ff" points="435.96,-186.56 446.43,-184.98 437.26,-179.68 435.96,-186.56"/>
</a>
</g>
</g>
<!-- Node17&#45;&gt;Node15 -->
<g id="edge28_Node000017_Node000015" class="edge">
<title>Node17&#45;&gt;Node15</title>
<g id="a_edge28_Node000017_Node000015"><a xlink:title=" ">
<path fill="none" stroke="#63b8ff" d="M344.76,-141.98C352.37,-139.08 359.65,-135.34 366,-130.5 392.58,-110.25 374.98,-84.15 402,-64.5 414.08,-55.71 429.24,-50.85 443.89,-48.25"/>
<polygon fill="#63b8ff" stroke="#63b8ff" points="444.52,-51.69 453.91,-46.79 443.51,-44.77 444.52,-51.69"/>
</a>
</g>
</g>
<!-- Node17&#45;&gt;Node16 -->
<g id="edge30_Node000017_Node000016" class="edge">
<title>Node17&#45;&gt;Node16</title>
<g id="a_edge30_Node000017_Node000016"><a xlink:title=" ">
<path fill="none" stroke="#63b8ff" d="M347.79,-142.01C354.43,-139.07 360.66,-135.3 366,-130.5 402.05,-98.07 365.24,-59.13 402,-27.5 409.4,-21.13 418.34,-16.72 427.74,-13.71"/>
<polygon fill="#63b8ff" stroke="#63b8ff" points="428.91,-17.02 437.66,-11.06 427.1,-10.26 428.91,-17.02"/>
</a>
</g>
</g>
<!-- Node18 -->
<g id="Node000018" class="node">
<title>Node18</title>
<g id="a_Node000018"><a xlink:href="classAISystem.html#adccbbce5e828f9e07a167eb7045c7760" target="_top" xlink:title=" ">
<polygon fill="white" stroke="#666666" points="568,-93 429,-93 429,-74 568,-74 568,-93"/>
<text text-anchor="middle" x="498.5" y="-81" font-family="Helvetica,sans-Serif" font-size="10.00">AISystem::getHomeZone</text>
</a>
</g>
</g>
<!-- Node17&#45;&gt;Node18 -->
<g id="edge26_Node000017_Node000018" class="edge">
<title>Node17&#45;&gt;Node18</title>
<g id="a_edge26_Node000017_Node000018"><a xlink:title=" ">
<path fill="none" stroke="#63b8ff" d="M334.16,-141.99C345.04,-139.09 356.1,-135.33 366,-130.5 384.46,-121.48 383.34,-110.11 402,-101.5 407.4,-99.01 413.12,-96.86 418.97,-95.02"/>
<polygon fill="#63b8ff" stroke="#63b8ff" points="420.26,-98.29 428.91,-92.18 418.34,-91.56 420.26,-98.29"/>
</a>
</g>
</g>
<!-- Node20 -->
<g id="Node000020" class="node">
<title>Node20</title>
<g id="a_Node000020"><a xlink:href="classAISystem.html#a02ff0714c4118e6eb0d98c95e515cca8" target="_top" xlink:title=" ">
<polygon fill="white" stroke="#666666" points="591,-130 406,-130 406,-111 591,-111 591,-130"/>
<text text-anchor="middle" x="498.5" y="-118" font-family="Helvetica,sans-Serif" font-size="10.00">AISystem::getRandomLeisureZone</text>
</a>
</g>
</g>
<!-- Node17&#45;&gt;Node20 -->
<g id="edge29_Node000017_Node000020" class="edge">
<title>Node17&#45;&gt;Node20</title>
<g id="a_edge29_Node000017_Node000020"><a xlink:title=" ">
<path fill="none" stroke="#63b8ff" d="M344.31,-141.99C368.06,-138.66 394.93,-134.89 419.45,-131.45"/>
<polygon fill="#63b8ff" stroke="#63b8ff" points="420.02,-134.9 429.44,-130.05 419.05,-127.97 420.02,-134.9"/>
</a>
</g>
</g>
<!-- Node19 -->
<g id="Node000019" class="node">
<title>Node19</title>
<g id="a_Node000019"><a xlink:href="classHomeManager.html#aa60d21a2bc5f9440913b0324d2b36460" target="_top" xlink:title=" ">
<polygon fill="white" stroke="#666666" points="789,-93 631,-93 631,-74 789,-74 789,-93"/>
<text text-anchor="middle" x="710" y="-81" font-family="Helvetica,sans-Serif" font-size="10.00">HomeManager::getNpcHome</text>
</a>
</g>
</g>
<!-- Node18&#45;&gt;Node19 -->
<g id="edge27_Node000018_Node000019" class="edge">
<title>Node18&#45;&gt;Node19</title>
<g id="a_edge27_Node000018_Node000019"><a xlink:title=" ">
<path fill="none" stroke="#63b8ff" d="M568.1,-83.5C584.86,-83.5 603.02,-83.5 620.56,-83.5"/>
<polygon fill="#63b8ff" stroke="#63b8ff" points="620.8,-87 630.8,-83.5 620.8,-80 620.8,-87"/>
</a>
</g>
</g>
<!-- Node21&#45;&gt;Node12 -->
<g id="edge32_Node000021_Node000012" class="edge">
<title>Node21&#45;&gt;Node12</title>
<g id="a_edge32_Node000021_Node000012"><a xlink:title=" ">
<path fill="none" stroke="#63b8ff" d="M322.09,-122.03C345.89,-126.99 375.51,-133.12 402,-138.5 415.2,-141.18 429.44,-144.03 442.79,-146.69"/>
<polygon fill="#63b8ff" stroke="#63b8ff" points="442.3,-150.16 452.79,-148.68 443.66,-143.3 442.3,-150.16"/>
</a>
</g>
</g>
<!-- Node21&#45;&gt;Node15 -->
<g id="edge33_Node000021_Node000015" class="edge">
<title>Node21&#45;&gt;Node15</title>
<g id="a_edge33_Node000021_Node000015"><a xlink:title=" ">
<path fill="none" stroke="#63b8ff" d="M312.82,-102.96C329.33,-98.17 348.94,-91.82 366,-84.5 382.82,-77.29 384.79,-70.72 402,-64.5 415.28,-59.7 430.08,-56.12 443.99,-53.47"/>
<polygon fill="#63b8ff" stroke="#63b8ff" points="444.7,-56.9 453.93,-51.7 443.47,-50 444.7,-56.9"/>
</a>
</g>
</g>
<!-- Node21&#45;&gt;Node16 -->
<g id="edge34_Node000021_Node000016" class="edge">
<title>Node21&#45;&gt;Node16</title>
<g id="a_edge34_Node000021_Node000016"><a xlink:title=" ">
<path fill="none" stroke="#63b8ff" d="M287.35,-102.83C308.05,-84.94 355.28,-46.75 402,-27.5 410.16,-24.14 418.97,-21.4 427.83,-19.17"/>
<polygon fill="#63b8ff" stroke="#63b8ff" points="428.87,-22.52 437.82,-16.86 427.29,-15.7 428.87,-22.52"/>
</a>
</g>
</g>
</g>
</svg>

<g id="navigator" transform="translate(0 0)" fill="#404254">
  <rect fill="#f2f5e9" fill-opacity="0.5" stroke="#606060" stroke-width=".5" x="0" y="0" width="60" height="60"/>
  <use id="zoomplus" xlink:href="#zoomPlus" x="17" y="9" onmousedown="handleZoom(evt,'in')"/>
  <use id="zoomminus" xlink:href="#zoomMin" x="42" y="9" onmousedown="handleZoom(evt,'out')"/>
  <use id="reset" xlink:href="#resetDef" x="30" y="36" onmousedown="handleReset()"/>
   <use id="arrowup" xlink:href="#arrowUp" x="0" y="0" onmousedown="handlePan(0,-1)"/>
  <use id="arrowright" xlink:href="#arrowRight" x="0" y="0" onmousedown="handlePan(1,0)"/>
  <use id="arrowdown" xlink:href="#arrowDown" x="0" y="0" onmousedown="handlePan(0,1)"/>
  <use id="arrowleft" xlink:href="#arrowLeft" x="0" y="0" onmousedown="handlePan(-1,0)"/>
</g>
<svg viewBox="0 0 15 15" width="100%" height="30px" preserveAspectRatio="xMaxYMin meet">
 <g id="arrow_out" transform="scale(0.3 0.3)">
  <a xlink:href="classAISystem_a6b84082c16eb0af5606049260db2d99f_cgraph_org.svg" target="_base">
   <rect id="button" ry="5" rx="5" y="6" x="6" height="38" width="38"
        fill="#f2f5e9" fill-opacity="0.5" stroke="#606060" stroke-width="1.0"/>
   <path id="arrow"
     d="M 11.500037,31.436501 C 11.940474,20.09759 22.043105,11.32322 32.158766,21.979434 L 37.068811,17.246167 C 37.068811,17.246167 37.088388,32 37.088388,32 L 22.160133,31.978069 C 22.160133,31.978069 26.997745,27.140456 26.997745,27.140456 C 18.528582,18.264221 13.291696,25.230495 11.500037,31.436501 z"
     style="fill:#404040;"/>
  </a>
 </g>
</svg>

<style type='text/css'>
<![CDATA[
[data-mouse-over-selected='false'] { opacity: 0.7; }
[data-mouse-over-selected='true']  { opacity: 1.0; }
]]>
</style>
<script type="application/ecmascript"><![CDATA[
document.addEventListener('DOMContentLoaded', (event) => {
  highlightEdges();
  highlightAdjacentNodes();
});
]]></script>
</svg>
