<?xml version="1.0" encoding="UTF-8" standalone="no"?>
<!DOCTYPE svg PUBLIC "-//W3C//DTD SVG 1.1//EN"
 "http://www.w3.org/Graphics/SVG/1.1/DTD/svg11.dtd">
<!-- Generated by graphviz version 2.43.0 (0)
 -->
<!-- Title: PositionManager Pages: 1 -->
<svg width="147pt" height="187pt"
 viewBox="0.00 0.00 147.00 187.00" xmlns="http://www.w3.org/2000/svg" xmlns:xlink="http://www.w3.org/1999/xlink">
<g id="graph0" class="graph" transform="scale(1 1) rotate(0) translate(4 183)">
<title>PositionManager</title>
<!-- Node1 -->
<g id="Node000001" class="node">
<title>Node1</title>
<g id="a_Node000001"><a xlink:title=" ">
<polygon fill="#999999" stroke="transparent" points="115.5,-79 23.5,-79 23.5,0 115.5,0 115.5,-79"/>
<text text-anchor="start" x="28.5" y="-66.5" font-family="Helvetica,sans-Serif" font-size="10.00">PositionManager</text>
<text text-anchor="start" x="34" y="-51.5" font-family="Helvetica,sans-Serif" font-size="10.00">+</text>
<text text-anchor="start" x="53.5" y="-51.5" font-family="Helvetica,sans-Serif" font-size="10.00">positions</text>
<text text-anchor="start" x="34" y="-36.5" font-family="Helvetica,sans-Serif" font-size="10.00">+</text>
<text text-anchor="start" x="53.5" y="-36.5" font-family="Helvetica,sans-Serif" font-size="10.00">create()</text>
<text text-anchor="start" x="34" y="-21.5" font-family="Helvetica,sans-Serif" font-size="10.00">+</text>
<text text-anchor="start" x="53.5" y="-21.5" font-family="Helvetica,sans-Serif" font-size="10.00">get()</text>
<text text-anchor="start" x="34" y="-6.5" font-family="Helvetica,sans-Serif" font-size="10.00">+</text>
<text text-anchor="start" x="53.5" y="-6.5" font-family="Helvetica,sans-Serif" font-size="10.00">dump()</text>
<polygon fill="#666666" stroke="#666666" points="23.5,-61.5 23.5,-61.5 115.5,-61.5 115.5,-61.5 23.5,-61.5"/>
<polygon fill="#666666" stroke="#666666" points="23.5,-46.5 23.5,-46.5 51.5,-46.5 51.5,-46.5 23.5,-46.5"/>
<polygon fill="#666666" stroke="#666666" points="51.5,-46.5 51.5,-46.5 115.5,-46.5 115.5,-46.5 51.5,-46.5"/>
<polygon fill="none" stroke="#666666" points="23.5,0 23.5,-79 115.5,-79 115.5,0 23.5,0"/>
</a>
</g>
</g>
<!-- Node2 -->
<g id="Node000002" class="node">
<title>Node2</title>
<g id="a_Node000002"><a xlink:href="classIComponentManager.html" target="_top" xlink:title="An interface for managing a specific type of component in an ECS architecture.">
<polygon fill="white" stroke="transparent" points="139,-179 0,-179 0,-115 139,-115 139,-179"/>
<text text-anchor="start" x="18.5" y="-167" font-family="Helvetica,sans-Serif" font-size="10.00">IComponentManager</text>
<text text-anchor="start" x="68" y="-152" font-family="Helvetica,sans-Serif" font-size="10.00"> </text>
<text text-anchor="start" x="4.5" y="-137" font-family="Helvetica,sans-Serif" font-size="10.00">+</text>
<text text-anchor="start" x="17.5" y="-137" font-family="Helvetica,sans-Serif" font-size="10.00">~IComponentManager()</text>
<text text-anchor="start" x="4.5" y="-122" font-family="Helvetica,sans-Serif" font-size="10.00">+</text>
<text text-anchor="start" x="17.5" y="-122" font-family="Helvetica,sans-Serif" font-size="10.00">dump()</text>
<polygon fill="#666666" stroke="#666666" points="0.5,-162 0.5,-162 139.5,-162 139.5,-162 0.5,-162"/>
<polygon fill="#666666" stroke="#666666" points="0.5,-147 0.5,-147 139.5,-147 139.5,-147 0.5,-147"/>
<polygon fill="none" stroke="#666666" points="0,-115 0,-179 139,-179 139,-115 0,-115"/>
</a>
</g>
</g>
<!-- Node2&#45;&gt;Node1 -->
<g id="edge1_Node000001_Node000002" class="edge">
<title>Node2&#45;&gt;Node1</title>
<g id="a_edge1_Node000001_Node000002"><a xlink:title=" ">
<path fill="none" stroke="#63b8ff" d="M69.5,-104.89C69.5,-96.44 69.5,-87.58 69.5,-79.22"/>
<polygon fill="none" stroke="#63b8ff" points="66,-104.92 69.5,-114.92 73,-104.92 66,-104.92"/>
</a>
</g>
</g>
</g>
</svg>
