<?xml version="1.0" encoding="UTF-8" standalone="no"?>
<!DOCTYPE svg PUBLIC "-//W3C//DTD SVG 1.1//EN"
 "http://www.w3.org/Graphics/SVG/1.1/DTD/svg11.dtd">
<!-- Generated by graphviz version 2.43.0 (0)
 -->
<!-- Title: Clock::getHour Pages: 1 -->
<svg width="630pt" height="132pt"
 viewBox="0.00 0.00 630.00 131.92" xmlns="http://www.w3.org/2000/svg" xmlns:xlink="http://www.w3.org/1999/xlink">
<g id="graph0" class="graph" transform="scale(1 1) rotate(0) translate(4 127.92)">
<title>Clock::getHour</title>
<!-- Node1 -->
<g id="Node000001" class="node">
<title>Node1</title>
<g id="a_Node000001"><a xlink:title=" ">
<polygon fill="#999999" stroke="#666666" points="622,-85.5 533,-85.5 533,-66.5 622,-66.5 622,-85.5"/>
<text text-anchor="middle" x="577.5" y="-73.5" font-family="Helvetica,sans-Serif" font-size="10.00">Clock::getHour</text>
</a>
</g>
</g>
<!-- Node2 -->
<g id="Node000002" class="node">
<title>Node2</title>
<g id="a_Node000002"><a xlink:href="classAISystem.html#a3e9a6b233a440655d47ce5041941d698" target="_top" xlink:title=" ">
<polygon fill="white" stroke="#666666" points="482.5,-67.5 338.5,-67.5 338.5,-48.5 482.5,-48.5 482.5,-67.5"/>
<text text-anchor="middle" x="410.5" y="-55.5" font-family="Helvetica,sans-Serif" font-size="10.00">AISystem::planNextAction</text>
</a>
</g>
</g>
<!-- Node1&#45;&gt;Node2 -->
<g id="edge1_Node000001_Node000002" class="edge">
<title>Node1&#45;&gt;Node2</title>
<g id="a_edge1_Node000001_Node000002"><a xlink:title=" ">
<path fill="none" stroke="#63b8ff" d="M522.71,-70.13C509.91,-68.74 496.06,-67.23 482.62,-65.76"/>
<polygon fill="#63b8ff" stroke="#63b8ff" points="522.4,-73.62 532.72,-71.22 523.15,-66.66 522.4,-73.62"/>
</a>
</g>
</g>
<!-- Node3 -->
<g id="Node000003" class="node">
<title>Node3</title>
<g id="a_Node000003"><a xlink:href="classAISystem.html#a6b84082c16eb0af5606049260db2d99f" target="_top" xlink:title=" ">
<polygon fill="white" stroke="#666666" points="288,-116 139,-116 139,-86 288,-86 288,-116"/>
<text text-anchor="start" x="147" y="-104" font-family="Helvetica,sans-Serif" font-size="10.00">AISystem::processPlanning</text>
<text text-anchor="middle" x="213.5" y="-93" font-family="Helvetica,sans-Serif" font-size="10.00">Entities</text>
</a>
</g>
</g>
<!-- Node1&#45;&gt;Node3 -->
<g id="edge11_Node000001_Node000003" class="edge">
<title>Node1&#45;&gt;Node3</title>
<g id="a_edge11_Node000001_Node000003"><a xlink:title=" ">
<path fill="none" stroke="#63b8ff" d="M552.93,-90.71C537.63,-99.37 516.89,-109.49 497,-114 427.33,-129.79 345.6,-123.44 288.02,-115"/>
<polygon fill="#63b8ff" stroke="#63b8ff" points="554.85,-93.64 561.7,-85.57 551.31,-87.6 554.85,-93.64"/>
</a>
</g>
</g>
<!-- Node7 -->
<g id="Node000007" class="node">
<title>Node7</title>
<g id="a_Node000007"><a xlink:href="classAISystem.html#a1d7894d2fba2b0f09b8929bbfd58ec4e" target="_top" xlink:title=" ">
<polygon fill="white" stroke="#666666" points="286,-30 141,-30 141,0 286,0 286,-30"/>
<text text-anchor="start" x="149" y="-18" font-family="Helvetica,sans-Serif" font-size="10.00">AISystem::processArriving</text>
<text text-anchor="middle" x="213.5" y="-7" font-family="Helvetica,sans-Serif" font-size="10.00">Entities</text>
</a>
</g>
</g>
<!-- Node1&#45;&gt;Node7 -->
<g id="edge8_Node000001_Node000007" class="edge">
<title>Node1&#45;&gt;Node7</title>
<g id="a_edge8_Node000001_Node000007"><a xlink:title=" ">
<path fill="none" stroke="#63b8ff" d="M551.59,-61.64C536.33,-53.56 516.13,-44.09 497,-39 426.96,-20.35 344.03,-15.22 286.21,-14.22"/>
<polygon fill="#63b8ff" stroke="#63b8ff" points="549.94,-64.72 560.39,-66.44 553.29,-58.58 549.94,-64.72"/>
</a>
</g>
</g>
<!-- Node8 -->
<g id="Node000008" class="node">
<title>Node8</title>
<g id="a_Node000008"><a xlink:href="classAISystem.html#a78ba48851d99fa06efdfaf41f5456217" target="_top" xlink:title=" ">
<polygon fill="white" stroke="#666666" points="497,-104.5 324,-104.5 324,-85.5 497,-85.5 497,-104.5"/>
<text text-anchor="middle" x="410.5" y="-92.5" font-family="Helvetica,sans-Serif" font-size="10.00">AISystem::shouldReplanActivity</text>
</a>
</g>
</g>
<!-- Node1&#45;&gt;Node8 -->
<g id="edge12_Node000001_Node000008" class="edge">
<title>Node1&#45;&gt;Node8</title>
<g id="a_edge12_Node000001_Node000008"><a xlink:title=" ">
<path fill="none" stroke="#63b8ff" d="M522.64,-82.2C513.49,-83.26 503.8,-84.37 494.11,-85.49"/>
<polygon fill="#63b8ff" stroke="#63b8ff" points="523.18,-85.66 532.72,-81.04 522.38,-78.71 523.18,-85.66"/>
</a>
</g>
</g>
<!-- Node2&#45;&gt;Node3 -->
<g id="edge2_Node000002_Node000003" class="edge">
<title>Node2&#45;&gt;Node3</title>
<g id="a_edge2_Node000002_Node000003"><a xlink:title=" ">
<path fill="none" stroke="#63b8ff" d="M353.28,-69.69C343.51,-71.77 333.46,-73.93 324,-76 309.62,-79.16 294.2,-82.62 279.6,-85.95"/>
<polygon fill="#63b8ff" stroke="#63b8ff" points="354.26,-73.06 363.32,-67.57 352.81,-66.22 354.26,-73.06"/>
</a>
</g>
</g>
<!-- Node6 -->
<g id="Node000006" class="node">
<title>Node6</title>
<g id="a_Node000006"><a xlink:href="classAISystem.html#a260e9a02dff6d097b45fa7c6e3ae733f" target="_top" xlink:title=" ">
<polygon fill="white" stroke="#666666" points="270,-67.5 157,-67.5 157,-48.5 270,-48.5 270,-67.5"/>
<text text-anchor="middle" x="213.5" y="-55.5" font-family="Helvetica,sans-Serif" font-size="10.00">AISystem::updateAI</text>
</a>
</g>
</g>
<!-- Node2&#45;&gt;Node6 -->
<g id="edge5_Node000002_Node000006" class="edge">
<title>Node2&#45;&gt;Node6</title>
<g id="a_edge5_Node000002_Node000006"><a xlink:title=" ">
<path fill="none" stroke="#63b8ff" d="M328.18,-58C308.68,-58 288.3,-58 270.27,-58"/>
<polygon fill="#63b8ff" stroke="#63b8ff" points="328.27,-61.5 338.27,-58 328.27,-54.5 328.27,-61.5"/>
</a>
</g>
</g>
<!-- Node4 -->
<g id="Node000004" class="node">
<title>Node4</title>
<g id="a_Node000004"><a xlink:href="main_8cpp.html#a0ddf1224851353fc92bfbff6f499fa97" target="_top" xlink:title=" ">
<polygon fill="white" stroke="#666666" points="72,-85.5 31,-85.5 31,-66.5 72,-66.5 72,-85.5"/>
<text text-anchor="middle" x="51.5" y="-73.5" font-family="Helvetica,sans-Serif" font-size="10.00">main</text>
</a>
</g>
</g>
<!-- Node3&#45;&gt;Node4 -->
<g id="edge3_Node000003_Node000004" class="edge">
<title>Node3&#45;&gt;Node4</title>
<g id="a_edge3_Node000003_Node000004"><a xlink:title=" ">
<path fill="none" stroke="#63b8ff" d="M128.56,-87.88C107.47,-84.59 86.74,-81.35 72.26,-79.09"/>
<polygon fill="#63b8ff" stroke="#63b8ff" points="128.17,-91.37 138.59,-89.45 129.25,-84.45 128.17,-91.37"/>
</a>
</g>
</g>
<!-- Node5 -->
<g id="Node000005" class="node">
<title>Node5</title>
<g id="a_Node000005"><a xlink:href="classAISystem.html#a4c1e02a04a3053c073e58ad44f4d0293" target="_top" xlink:title=" ">
<polygon fill="white" stroke="#666666" points="103,-48.5 0,-48.5 0,-29.5 103,-29.5 103,-48.5"/>
<text text-anchor="middle" x="51.5" y="-36.5" font-family="Helvetica,sans-Serif" font-size="10.00">AISystem::update</text>
</a>
</g>
</g>
<!-- Node3&#45;&gt;Node5 -->
<g id="edge4_Node000003_Node000005" class="edge">
<title>Node3&#45;&gt;Node5</title>
<g id="a_edge4_Node000003_Node000005"><a xlink:title=" ">
<path fill="none" stroke="#63b8ff" d="M154.89,-82.38C149.48,-80.34 144.11,-78.2 139,-76 122.38,-68.84 119.56,-64.28 103,-57 96.18,-54 88.69,-51.12 81.62,-48.58"/>
<polygon fill="#63b8ff" stroke="#63b8ff" points="154.04,-85.8 164.64,-85.94 156.45,-79.22 154.04,-85.8"/>
</a>
</g>
</g>
<!-- Node6&#45;&gt;Node4 -->
<g id="edge6_Node000006_Node000004" class="edge">
<title>Node6&#45;&gt;Node4</title>
<g id="a_edge6_Node000006_Node000004"><a xlink:title=" ">
<path fill="none" stroke="#63b8ff" d="M146.83,-65.39C119.96,-68.41 90.87,-71.68 72.2,-73.78"/>
<polygon fill="#63b8ff" stroke="#63b8ff" points="147.44,-68.84 156.99,-64.25 146.66,-61.88 147.44,-68.84"/>
</a>
</g>
</g>
<!-- Node6&#45;&gt;Node5 -->
<g id="edge7_Node000006_Node000005" class="edge">
<title>Node6&#45;&gt;Node5</title>
<g id="a_edge7_Node000006_Node000005"><a xlink:title=" ">
<path fill="none" stroke="#63b8ff" d="M146.98,-50.22C132.34,-48.48 117.02,-46.66 103.09,-45.01"/>
<polygon fill="#63b8ff" stroke="#63b8ff" points="146.65,-53.7 156.99,-51.41 147.47,-46.75 146.65,-53.7"/>
</a>
</g>
</g>
<!-- Node7&#45;&gt;Node4 -->
<g id="edge9_Node000007_Node000004" class="edge">
<title>Node7&#45;&gt;Node4</title>
<g id="a_edge9_Node000007_Node000004"><a xlink:title=" ">
<path fill="none" stroke="#63b8ff" d="M153.56,-33.39C148.6,-35.19 143.69,-37.07 139,-39 122.45,-45.79 119.39,-49.84 103,-57 93.04,-61.35 81.74,-65.66 72.36,-69.07"/>
<polygon fill="#63b8ff" stroke="#63b8ff" points="154.85,-36.64 163.11,-30.01 152.51,-30.04 154.85,-36.64"/>
</a>
</g>
</g>
<!-- Node7&#45;&gt;Node5 -->
<g id="edge10_Node000007_Node000005" class="edge">
<title>Node7&#45;&gt;Node5</title>
<g id="a_edge10_Node000007_Node000005"><a xlink:title=" ">
<path fill="none" stroke="#63b8ff" d="M130.81,-27.25C121.48,-28.65 112.18,-30.05 103.41,-31.36"/>
<polygon fill="#63b8ff" stroke="#63b8ff" points="131.55,-30.68 140.92,-25.74 130.52,-23.76 131.55,-30.68"/>
</a>
</g>
</g>
<!-- Node8&#45;&gt;Node3 -->
<g id="edge13_Node000008_Node000003" class="edge">
<title>Node8&#45;&gt;Node3</title>
<g id="a_edge13_Node000008_Node000003"><a xlink:title=" ">
<path fill="none" stroke="#63b8ff" d="M313.83,-97.94C305.16,-98.21 296.48,-98.48 288.06,-98.74"/>
<polygon fill="#63b8ff" stroke="#63b8ff" points="314.08,-101.44 323.97,-97.63 313.87,-94.44 314.08,-101.44"/>
</a>
</g>
</g>
</g>
</svg>
