<?xml version="1.0" encoding="UTF-8" standalone="no"?>
<!DOCTYPE svg PUBLIC "-//W3C//DTD SVG 1.1//EN"
 "http://www.w3.org/Graphics/SVG/1.1/DTD/svg11.dtd">
<!-- Generated by graphviz version 2.43.0 (0)
 -->
<!-- Title: TiledParser::processTileLayer Pages: 1 -->
<svg width="356pt" height="175pt"
 viewBox="0.00 0.00 356.00 175.00" xmlns="http://www.w3.org/2000/svg" xmlns:xlink="http://www.w3.org/1999/xlink">
<g id="graph0" class="graph" transform="scale(1 1) rotate(0) translate(4 171)">
<title>TiledParser::processTileLayer</title>
<!-- Node1 -->
<g id="Node000001" class="node">
<title>Node1</title>
<g id="a_Node000001"><a xlink:title=" ">
<polygon fill="#999999" stroke="#666666" points="132,-98.5 0,-98.5 0,-68.5 132,-68.5 132,-98.5"/>
<text text-anchor="start" x="8" y="-86.5" font-family="Helvetica,sans-Serif" font-size="10.00">TiledParser::processTile</text>
<text text-anchor="middle" x="66" y="-75.5" font-family="Helvetica,sans-Serif" font-size="10.00">Layer</text>
</a>
</g>
</g>
<!-- Node2 -->
<g id="Node000002" class="node">
<title>Node2</title>
<g id="a_Node000002"><a xlink:href="classGrid.html#ae448ea0d444c23fe89743430b040537c" target="_top" xlink:title=" ">
<polygon fill="white" stroke="#666666" points="284.5,-167 231.5,-167 231.5,-148 284.5,-148 284.5,-167"/>
<text text-anchor="middle" x="258" y="-155" font-family="Helvetica,sans-Serif" font-size="10.00">Grid::at</text>
</a>
</g>
</g>
<!-- Node1&#45;&gt;Node2 -->
<g id="edge1_Node000001_Node000002" class="edge">
<title>Node1&#45;&gt;Node2</title>
<g id="a_edge1_Node000001_Node000002"><a xlink:title=" ">
<path fill="none" stroke="#63b8ff" d="M89.3,-98.5C109.16,-111.2 139.4,-128.97 168,-139.5 184.99,-145.76 204.65,-150.02 221.16,-152.82"/>
<polygon fill="#63b8ff" stroke="#63b8ff" points="221.07,-156.35 231.5,-154.46 222.17,-149.44 221.07,-156.35"/>
</a>
</g>
</g>
<!-- Node3 -->
<g id="Node000003" class="node">
<title>Node3</title>
<g id="a_Node000003"><a xlink:href="classTiledParser.html#af67db27823fe46505258abebb377a47d" target="_top" xlink:title=" ">
<polygon fill="white" stroke="#666666" points="333,-130 183,-130 183,-111 333,-111 333,-130"/>
<text text-anchor="middle" x="258" y="-118" font-family="Helvetica,sans-Serif" font-size="10.00">TiledParser::getDefaultCost</text>
</a>
</g>
</g>
<!-- Node1&#45;&gt;Node3 -->
<g id="edge2_Node000001_Node000003" class="edge">
<title>Node1&#45;&gt;Node3</title>
<g id="a_edge2_Node000001_Node000003"><a xlink:title=" ">
<path fill="none" stroke="#63b8ff" d="M132.12,-96.18C153.54,-100.35 177.21,-104.96 198.14,-109.04"/>
<polygon fill="#63b8ff" stroke="#63b8ff" points="197.68,-112.51 208.17,-110.99 199.02,-105.64 197.68,-112.51"/>
</a>
</g>
</g>
<!-- Node4 -->
<g id="Node000004" class="node">
<title>Node4</title>
<g id="a_Node000004"><a xlink:href="classGrid.html#aca5987c146fcd4226cc5dfdf927f17b1" target="_top" xlink:title=" ">
<polygon fill="white" stroke="#666666" points="303.5,-93 212.5,-93 212.5,-74 303.5,-74 303.5,-93"/>
<text text-anchor="middle" x="258" y="-81" font-family="Helvetica,sans-Serif" font-size="10.00">Grid::getHeight</text>
</a>
</g>
</g>
<!-- Node1&#45;&gt;Node4 -->
<g id="edge3_Node000001_Node000004" class="edge">
<title>Node1&#45;&gt;Node4</title>
<g id="a_edge3_Node000001_Node000004"><a xlink:title=" ">
<path fill="none" stroke="#63b8ff" d="M132.12,-83.5C154.93,-83.5 180.31,-83.5 202.19,-83.5"/>
<polygon fill="#63b8ff" stroke="#63b8ff" points="202.3,-87 212.3,-83.5 202.3,-80 202.3,-87"/>
</a>
</g>
</g>
<!-- Node5 -->
<g id="Node000005" class="node">
<title>Node5</title>
<g id="a_Node000005"><a xlink:href="classGrid.html#a1e87189ca4bcb28b72b5e1bb78a532b5" target="_top" xlink:title=" ">
<polygon fill="white" stroke="#666666" points="301.5,-56 214.5,-56 214.5,-37 301.5,-37 301.5,-56"/>
<text text-anchor="middle" x="258" y="-44" font-family="Helvetica,sans-Serif" font-size="10.00">Grid::getWidth</text>
</a>
</g>
</g>
<!-- Node1&#45;&gt;Node5 -->
<g id="edge4_Node000001_Node000005" class="edge">
<title>Node1&#45;&gt;Node5</title>
<g id="a_edge4_Node000001_Node000005"><a xlink:title=" ">
<path fill="none" stroke="#63b8ff" d="M132.12,-70.82C155.69,-66.23 181.99,-61.11 204.35,-56.75"/>
<polygon fill="#63b8ff" stroke="#63b8ff" points="205.18,-60.16 214.33,-54.81 203.84,-53.29 205.18,-60.16"/>
</a>
</g>
</g>
<!-- Node6 -->
<g id="Node000006" class="node">
<title>Node6</title>
<g id="a_Node000006"><a xlink:href="classTiledParser.html#a459b727eea79ddef73d8fd0c3a4b4229" target="_top" xlink:title=" ">
<polygon fill="white" stroke="#666666" points="348,-19 168,-19 168,0 348,0 348,-19"/>
<text text-anchor="middle" x="258" y="-7" font-family="Helvetica,sans-Serif" font-size="10.00">TiledParser::stringToObstacleType</text>
</a>
</g>
</g>
<!-- Node1&#45;&gt;Node6 -->
<g id="edge5_Node000001_Node000006" class="edge">
<title>Node1&#45;&gt;Node6</title>
<g id="a_edge5_Node000001_Node000006"><a xlink:title=" ">
<path fill="none" stroke="#63b8ff" d="M90.16,-68.37C110.06,-55.99 139.91,-38.9 168,-28.5 175.19,-25.84 182.85,-23.5 190.54,-21.47"/>
<polygon fill="#63b8ff" stroke="#63b8ff" points="191.42,-24.86 200.28,-19.05 189.73,-18.06 191.42,-24.86"/>
</a>
</g>
</g>
</g>
</svg>
