<?xml version="1.0" encoding="UTF-8" standalone="no"?>
<!DOCTYPE svg PUBLIC "-//W3C//DTD SVG 1.1//EN"
 "http://www.w3.org/Graphics/SVG/1.1/DTD/svg11.dtd">
<!-- Generated by graphviz version 2.43.0 (0)
 -->
<!-- Title: TimeOfDay::isWorkHours Pages: 1 -->
<svg width="365pt" height="113pt"
 viewBox="0.00 0.00 365.00 113.00" xmlns="http://www.w3.org/2000/svg" xmlns:xlink="http://www.w3.org/1999/xlink">

<svg id="main" version="1.1" xmlns="http://www.w3.org/2000/svg" xmlns:xlink="http://www.w3.org/1999/xlink" xml:space="preserve" onload="init(evt)">
<style type="text/css"><![CDATA[
.node, .edge {opacity: 0.7;}
.node.selected, .edge.selected {opacity: 1;}
.edge:hover path { stroke: red; }
.edge:hover polygon { stroke: red; fill: red; }
]]></style>
<script type="application/ecmascript" xlink:href="svg.min.js"/>
<svg id="graph" class="graph">
<g id="graph0" class="graph" transform="scale(1 1) rotate(0) translate(4 109)">
<title>TimeOfDay::isWorkHours</title>
<!-- Node1 -->
<g id="Node000001" class="node">
<title>Node1</title>
<g id="a_Node000001"><a xlink:title=" ">
<polygon fill="#999999" stroke="#666666" points="357,-62 218,-62 218,-43 357,-43 357,-62"/>
<text text-anchor="middle" x="287.5" y="-50" font-family="Helvetica,sans-Serif" font-size="10.00">TimeOfDay::isWorkHours</text>
</a>
</g>
</g>
<!-- Node2 -->
<g id="Node000002" class="node">
<title>Node2</title>
<g id="a_Node000002"><a xlink:href="classTimeOfDay.html#a7ed5281d460174bb4d16806132f372c0" target="_top" xlink:title=" ">
<polygon fill="white" stroke="#666666" points="182,-105 0,-105 0,-86 182,-86 182,-105"/>
<text text-anchor="middle" x="91" y="-93" font-family="Helvetica,sans-Serif" font-size="10.00">TimeOfDay::getSuggestedActivity</text>
</a>
</g>
</g>
<!-- Node1&#45;&gt;Node2 -->
<g id="edge1_Node000001_Node000002" class="edge">
<title>Node1&#45;&gt;Node2</title>
<g id="a_edge1_Node000001_Node000002"><a xlink:title=" ">
<path fill="none" stroke="#63b8ff" d="M236.03,-64.28C218.89,-68.23 199.63,-72.62 182,-76.5 167.65,-79.66 151.99,-83 137.82,-85.99"/>
<polygon fill="#63b8ff" stroke="#63b8ff" points="236.89,-67.67 245.84,-62.01 235.31,-60.85 236.89,-67.67"/>
</a>
</g>
</g>
<!-- Node3 -->
<g id="Node000003" class="node">
<title>Node3</title>
<g id="a_Node000003"><a xlink:href="classTimeOfDay.html#af58c96672e2e306ac810e88db09fa0ea" target="_top" xlink:title=" ">
<polygon fill="white" stroke="#666666" points="166.5,-67.5 15.5,-67.5 15.5,-37.5 166.5,-37.5 166.5,-67.5"/>
<text text-anchor="start" x="23.5" y="-55.5" font-family="Helvetica,sans-Serif" font-size="10.00">TimeOfDay::isGoodTimeFor</text>
<text text-anchor="middle" x="91" y="-44.5" font-family="Helvetica,sans-Serif" font-size="10.00">Leisure</text>
</a>
</g>
</g>
<!-- Node1&#45;&gt;Node3 -->
<g id="edge2_Node000001_Node000003" class="edge">
<title>Node1&#45;&gt;Node3</title>
<g id="a_edge2_Node000001_Node000003"><a xlink:title=" ">
<path fill="none" stroke="#63b8ff" d="M207.66,-52.5C194.09,-52.5 180.02,-52.5 166.56,-52.5"/>
<polygon fill="#63b8ff" stroke="#63b8ff" points="207.93,-56 217.93,-52.5 207.93,-49 207.93,-56"/>
</a>
</g>
</g>
<!-- Node4 -->
<g id="Node000004" class="node">
<title>Node4</title>
<g id="a_Node000004"><a xlink:href="classTimeOfDay.html#a658bb98f26f2b306040153bf2c11c84d" target="_top" xlink:title=" ">
<polygon fill="white" stroke="#666666" points="179,-19 3,-19 3,0 179,0 179,-19"/>
<text text-anchor="middle" x="91" y="-7" font-family="Helvetica,sans-Serif" font-size="10.00">TimeOfDay::isGoodTimeForWork</text>
</a>
</g>
</g>
<!-- Node1&#45;&gt;Node4 -->
<g id="edge3_Node000001_Node000004" class="edge">
<title>Node1&#45;&gt;Node4</title>
<g id="a_edge3_Node000001_Node000004"><a xlink:title=" ">
<path fill="none" stroke="#63b8ff" d="M236.03,-40.72C218.89,-36.77 199.63,-32.38 182,-28.5 167.65,-25.34 151.99,-22 137.82,-19.01"/>
<polygon fill="#63b8ff" stroke="#63b8ff" points="235.31,-44.15 245.84,-42.99 236.89,-37.33 235.31,-44.15"/>
</a>
</g>
</g>
</g>
</svg>
</svg>

<style type='text/css'>
<![CDATA[
[data-mouse-over-selected='false'] { opacity: 0.7; }
[data-mouse-over-selected='true']  { opacity: 1.0; }
]]>
</style>
<script type="application/ecmascript"><![CDATA[
document.addEventListener('DOMContentLoaded', (event) => {
  highlightEdges();
  highlightAdjacentNodes();
});
]]></script>
</svg>
