<?xml version="1.0" encoding="UTF-8" standalone="no"?>
<!DOCTYPE svg PUBLIC "-//W3C//DTD SVG 1.1//EN"
 "http://www.w3.org/Graphics/SVG/1.1/DTD/svg11.dtd">
<!-- Generated by graphviz version 2.43.0 (0)
 -->
<!-- Title: AISystem Pages: 1 -->
<!--zoomable 909 -->

<svg id="main" version="1.1" xmlns="http://www.w3.org/2000/svg" xmlns:xlink="http://www.w3.org/1999/xlink" xml:space="preserve" onload="init(evt)">
<style type="text/css"><![CDATA[
.node, .edge {opacity: 0.7;}
.node.selected, .edge.selected {opacity: 1;}
.edge:hover path { stroke: red; }
.edge:hover polygon { stroke: red; fill: red; }
]]></style>

<defs>
  <circle id="rim" cx="0" cy="0" r="7"/>
  <circle id="rim2" cx="0" cy="0" r="3.5"/>
  <g id="zoomPlus">
    <use xlink:href="#rim" fill="#404040"><set attributeName="fill" to="#808080" begin="zoomplus.mouseover" end="zoomplus.mouseout"/></use>
    <path d="M-4,0h8M0,-4v8" fill="none" stroke="white" stroke-width="1.5" pointer-events="none"/>
  </g>
  <g id="zoomMin">
    <use xlink:href="#rim" fill="#404040"><set attributeName="fill" to="#808080" begin="zoomminus.mouseover" end="zoomminus.mouseout"/></use>
    <path d="M-4,0h8" fill="none" stroke="white" stroke-width="1.5" pointer-events="none"/>
  </g>
  <g id="arrowUp" transform="translate(30 24)">
    <use xlink:href="#rim"/>
    <path pointer-events="none" fill="none" stroke="white" stroke-width="1.5" d="M0,-3.0v7 M-2.5,-0.5L0,-3.0L2.5,-0.5"/>
  </g>
  <g id="arrowRight" transform="rotate(90) translate(36 -43)">
    <use xlink:href="#rim"/>
    <path pointer-events="none" fill="none" stroke="white" stroke-width="1.5" d="M0,-3.0v7 M-2.5,-0.5L0,-3.0L2.5,-0.5"/>
  </g>
  <g id="arrowDown" transform="rotate(180) translate(-30 -48)">
    <use xlink:href="#rim"/>
    <path pointer-events="none" fill="none" stroke="white" stroke-width="1.5" d="M0,-3.0v7 M-2.5,-0.5L0,-3.0L2.5,-0.5"/>
  </g>
  <g id="arrowLeft" transform="rotate(270) translate(-36 17)">
    <use xlink:href="#rim"/>
    <path pointer-events="none" fill="none" stroke="white" stroke-width="1.5" d="M0,-3.0v7 M-2.5,-0.5L0,-3.0L2.5,-0.5"/>
  </g>
  <g id="resetDef">
    <use xlink:href="#rim2" fill="#404040"><set attributeName="fill" to="#808080" begin="reset.mouseover" end="reset.mouseout"/></use>
  </g>
</defs>
<script type="application/ecmascript">
var viewWidth = 1275;
var viewHeight = 909;
var sectionId = 'dynsection-0';
</script>
<script type="application/ecmascript" xlink:href="svg.min.js"/>
<svg id="graph" class="graph">
<g id="viewport">
<title>AISystem</title>
<!-- Node1 -->
<g id="Node000001" class="node">
<title>Node1</title>
<g id="a_Node000001"><a xlink:title=" ">
<polygon fill="#999999" stroke="transparent" points="661,-229 516,-229 516,0 661,0 661,-229"/>
<text text-anchor="start" x="565.5" y="-216.5" font-family="Helvetica,sans-Serif" font-size="10.00">AISystem</text>
<text text-anchor="start" x="523" y="-201.5" font-family="Helvetica,sans-Serif" font-size="10.00">&#45;</text>
<text text-anchor="start" x="533.5" y="-201.5" font-family="Helvetica,sans-Serif" font-size="10.00">cellSize</text>
<text text-anchor="start" x="523" y="-186.5" font-family="Helvetica,sans-Serif" font-size="10.00">&#45;</text>
<text text-anchor="start" x="533.5" y="-186.5" font-family="Helvetica,sans-Serif" font-size="10.00">aiUpdateTimer</text>
<text text-anchor="start" x="523" y="-171.5" font-family="Helvetica,sans-Serif" font-size="10.00">&#45;</text>
<text text-anchor="start" x="533.5" y="-171.5" font-family="Helvetica,sans-Serif" font-size="10.00">aiUpdateInterval</text>
<text text-anchor="start" x="520.5" y="-156.5" font-family="Helvetica,sans-Serif" font-size="10.00">+</text>
<text text-anchor="start" x="533.5" y="-156.5" font-family="Helvetica,sans-Serif" font-size="10.00">AISystem()</text>
<text text-anchor="start" x="520.5" y="-141.5" font-family="Helvetica,sans-Serif" font-size="10.00">+</text>
<text text-anchor="start" x="533.5" y="-141.5" font-family="Helvetica,sans-Serif" font-size="10.00">update()</text>
<text text-anchor="start" x="520.5" y="-126.5" font-family="Helvetica,sans-Serif" font-size="10.00">+</text>
<text text-anchor="start" x="533.5" y="-126.5" font-family="Helvetica,sans-Serif" font-size="10.00">updateAI()</text>
<text text-anchor="start" x="520.5" y="-111.5" font-family="Helvetica,sans-Serif" font-size="10.00">+</text>
<text text-anchor="start" x="533.5" y="-111.5" font-family="Helvetica,sans-Serif" font-size="10.00">processArrivingEntities()</text>
<text text-anchor="start" x="520.5" y="-96.5" font-family="Helvetica,sans-Serif" font-size="10.00">+</text>
<text text-anchor="start" x="533.5" y="-96.5" font-family="Helvetica,sans-Serif" font-size="10.00">processPlanningEntities()</text>
<text text-anchor="start" x="523" y="-81.5" font-family="Helvetica,sans-Serif" font-size="10.00">&#45;</text>
<text text-anchor="start" x="533.5" y="-81.5" font-family="Helvetica,sans-Serif" font-size="10.00">planNextAction()</text>
<text text-anchor="start" x="523" y="-66.5" font-family="Helvetica,sans-Serif" font-size="10.00">&#45;</text>
<text text-anchor="start" x="533.5" y="-66.5" font-family="Helvetica,sans-Serif" font-size="10.00">executeMovementPlan()</text>
<text text-anchor="start" x="523" y="-51.5" font-family="Helvetica,sans-Serif" font-size="10.00">&#45;</text>
<text text-anchor="start" x="533.5" y="-51.5" font-family="Helvetica,sans-Serif" font-size="10.00">handleArrival()</text>
<text text-anchor="start" x="523" y="-36.5" font-family="Helvetica,sans-Serif" font-size="10.00">&#45;</text>
<text text-anchor="start" x="533.5" y="-36.5" font-family="Helvetica,sans-Serif" font-size="10.00">getHomeZone()</text>
<text text-anchor="start" x="523" y="-21.5" font-family="Helvetica,sans-Serif" font-size="10.00">&#45;</text>
<text text-anchor="start" x="533.5" y="-21.5" font-family="Helvetica,sans-Serif" font-size="10.00">getRandomLeisureZone()</text>
<text text-anchor="start" x="523" y="-6.5" font-family="Helvetica,sans-Serif" font-size="10.00">&#45;</text>
<text text-anchor="start" x="533.5" y="-6.5" font-family="Helvetica,sans-Serif" font-size="10.00">shouldReplanActivity()</text>
<polygon fill="#666666" stroke="#666666" points="516.5,-211.5 516.5,-211.5 661.5,-211.5 661.5,-211.5 516.5,-211.5"/>
<polygon fill="#666666" stroke="#666666" points="516.5,-166.5 516.5,-166.5 531.5,-166.5 531.5,-166.5 516.5,-166.5"/>
<polygon fill="#666666" stroke="#666666" points="531.5,-166.5 531.5,-166.5 661.5,-166.5 661.5,-166.5 531.5,-166.5"/>
<polygon fill="none" stroke="#666666" points="516,0 516,-229 661,-229 661,0 516,0"/>
</a>
</g>
</g>
<!-- Node2 -->
<g id="Node000002" class="node">
<title>Node2</title>
<g id="a_Node000002"><a xlink:href="classAIManager.html" target="_top" xlink:title=" ">
<polygon fill="white" stroke="transparent" points="63,-482.5 0,-482.5 0,-403.5 63,-403.5 63,-482.5"/>
<text text-anchor="start" x="5.5" y="-470" font-family="Helvetica,sans-Serif" font-size="10.00">AIManager</text>
<text text-anchor="start" x="5" y="-455" font-family="Helvetica,sans-Serif" font-size="10.00">+</text>
<text text-anchor="start" x="18.5" y="-455" font-family="Helvetica,sans-Serif" font-size="10.00">states</text>
<text text-anchor="start" x="5" y="-440" font-family="Helvetica,sans-Serif" font-size="10.00">+</text>
<text text-anchor="start" x="18.5" y="-440" font-family="Helvetica,sans-Serif" font-size="10.00">create()</text>
<text text-anchor="start" x="5" y="-425" font-family="Helvetica,sans-Serif" font-size="10.00">+</text>
<text text-anchor="start" x="18.5" y="-425" font-family="Helvetica,sans-Serif" font-size="10.00">get()</text>
<text text-anchor="start" x="5" y="-410" font-family="Helvetica,sans-Serif" font-size="10.00">+</text>
<text text-anchor="start" x="18.5" y="-410" font-family="Helvetica,sans-Serif" font-size="10.00">dump()</text>
<polygon fill="#666666" stroke="#666666" points="0.5,-465 0.5,-465 63.5,-465 63.5,-465 0.5,-465"/>
<polygon fill="#666666" stroke="#666666" points="0.5,-450 0.5,-450 16.5,-450 16.5,-450 0.5,-450"/>
<polygon fill="#666666" stroke="#666666" points="16.5,-450 16.5,-450 63.5,-450 63.5,-450 16.5,-450"/>
<polygon fill="none" stroke="#666666" points="0,-403.5 0,-482.5 63,-482.5 63,-403.5 0,-403.5"/>
</a>
</g>
</g>
<!-- Node2&#45;&gt;Node1 -->
<g id="edge1_Node000001_Node000002" class="edge">
<title>Node2&#45;&gt;Node1</title>
<g id="a_edge1_Node000001_Node000002"><a xlink:title=" ">
<path fill="none" stroke="#63b8ff" d="M31.37,-403.18C33.27,-366.29 41.66,-311.34 72.5,-276 182,-150.5 387.78,-121.88 503.64,-116.12"/>
<polygon fill="none" stroke="#63b8ff" points="503.95,-116.11 509.77,-111.85 515.94,-115.58 510.12,-119.84 503.95,-116.11"/>
</a>
</g>
<text text-anchor="middle" x="122" y="-250" font-family="Helvetica,sans-Serif" font-size="10.00" fill="grey"> &#45;aiManager</text>
</g>
<!-- Node3 -->
<g id="Node000003" class="node">
<title>Node3</title>
<g id="a_Node000003"><a xlink:href="classIComponentManager.html" target="_top" xlink:title="An interface for managing a specific type of component in an ECS architecture.">
<polygon fill="white" stroke="transparent" points="321,-811 182,-811 182,-747 321,-747 321,-811"/>
<text text-anchor="start" x="200.5" y="-799" font-family="Helvetica,sans-Serif" font-size="10.00">IComponentManager</text>
<text text-anchor="start" x="250" y="-784" font-family="Helvetica,sans-Serif" font-size="10.00"> </text>
<text text-anchor="start" x="186.5" y="-769" font-family="Helvetica,sans-Serif" font-size="10.00">+</text>
<text text-anchor="start" x="199.5" y="-769" font-family="Helvetica,sans-Serif" font-size="10.00">~IComponentManager()</text>
<text text-anchor="start" x="186.5" y="-754" font-family="Helvetica,sans-Serif" font-size="10.00">+</text>
<text text-anchor="start" x="199.5" y="-754" font-family="Helvetica,sans-Serif" font-size="10.00">dump()</text>
<polygon fill="#666666" stroke="#666666" points="182.5,-794 182.5,-794 321.5,-794 321.5,-794 182.5,-794"/>
<polygon fill="#666666" stroke="#666666" points="182.5,-779 182.5,-779 321.5,-779 321.5,-779 182.5,-779"/>
<polygon fill="none" stroke="#666666" points="182,-747 182,-811 321,-811 321,-747 182,-747"/>
</a>
</g>
</g>
<!-- Node3&#45;&gt;Node2 -->
<g id="edge2_Node000002_Node000003" class="edge">
<title>Node3&#45;&gt;Node2</title>
<g id="a_edge2_Node000002_Node000003"><a xlink:title=" ">
<path fill="none" stroke="#63b8ff" d="M197.34,-740.72C157.01,-710.15 103.72,-663.34 72.5,-610 49.25,-570.29 39.13,-517.81 34.76,-482.59"/>
<polygon fill="none" stroke="#63b8ff" points="195.38,-743.62 205.48,-746.81 199.57,-738.02 195.38,-743.62"/>
</a>
</g>
</g>
<!-- Node4 -->
<g id="Node000004" class="node">
<title>Node4</title>
<g id="a_Node000004"><a xlink:href="classPositionManager.html" target="_top" xlink:title=" ">
<polygon fill="white" stroke="transparent" points="173.5,-482.5 81.5,-482.5 81.5,-403.5 173.5,-403.5 173.5,-482.5"/>
<text text-anchor="start" x="86.5" y="-470" font-family="Helvetica,sans-Serif" font-size="10.00">PositionManager</text>
<text text-anchor="start" x="92" y="-455" font-family="Helvetica,sans-Serif" font-size="10.00">+</text>
<text text-anchor="start" x="111.5" y="-455" font-family="Helvetica,sans-Serif" font-size="10.00">positions</text>
<text text-anchor="start" x="92" y="-440" font-family="Helvetica,sans-Serif" font-size="10.00">+</text>
<text text-anchor="start" x="111.5" y="-440" font-family="Helvetica,sans-Serif" font-size="10.00">create()</text>
<text text-anchor="start" x="92" y="-425" font-family="Helvetica,sans-Serif" font-size="10.00">+</text>
<text text-anchor="start" x="111.5" y="-425" font-family="Helvetica,sans-Serif" font-size="10.00">get()</text>
<text text-anchor="start" x="92" y="-410" font-family="Helvetica,sans-Serif" font-size="10.00">+</text>
<text text-anchor="start" x="111.5" y="-410" font-family="Helvetica,sans-Serif" font-size="10.00">dump()</text>
<polygon fill="#666666" stroke="#666666" points="81.5,-465 81.5,-465 173.5,-465 173.5,-465 81.5,-465"/>
<polygon fill="#666666" stroke="#666666" points="81.5,-450 81.5,-450 109.5,-450 109.5,-450 81.5,-450"/>
<polygon fill="#666666" stroke="#666666" points="109.5,-450 109.5,-450 173.5,-450 173.5,-450 109.5,-450"/>
<polygon fill="none" stroke="#666666" points="81.5,-403.5 81.5,-482.5 173.5,-482.5 173.5,-403.5 81.5,-403.5"/>
</a>
</g>
</g>
<!-- Node3&#45;&gt;Node4 -->
<g id="edge4_Node000004_Node000003" class="edge">
<title>Node3&#45;&gt;Node4</title>
<g id="a_edge4_Node000004_Node000003"><a xlink:title=" ">
<path fill="none" stroke="#63b8ff" d="M233.91,-737.45C219.47,-703.61 198.8,-654 182.5,-610 166.47,-566.73 150.08,-516.32 139.42,-482.5"/>
<polygon fill="none" stroke="#63b8ff" points="230.84,-739.17 238,-746.98 237.28,-736.41 230.84,-739.17"/>
</a>
</g>
</g>
<!-- Node5 -->
<g id="Node000005" class="node">
<title>Node5</title>
<g id="a_Node000005"><a xlink:href="classMovementManager.html" target="_top" xlink:title=" ">
<polygon fill="white" stroke="transparent" points="311.5,-512.5 191.5,-512.5 191.5,-373.5 311.5,-373.5 311.5,-512.5"/>
<text text-anchor="start" x="203.5" y="-500" font-family="Helvetica,sans-Serif" font-size="10.00">MovementManager</text>
<text text-anchor="start" x="195.5" y="-485" font-family="Helvetica,sans-Serif" font-size="10.00">+</text>
<text text-anchor="start" x="208.5" y="-485" font-family="Helvetica,sans-Serif" font-size="10.00">movements</text>
<text text-anchor="start" x="195.5" y="-470" font-family="Helvetica,sans-Serif" font-size="10.00">+</text>
<text text-anchor="start" x="208.5" y="-470" font-family="Helvetica,sans-Serif" font-size="10.00">create()</text>
<text text-anchor="start" x="195.5" y="-455" font-family="Helvetica,sans-Serif" font-size="10.00">+</text>
<text text-anchor="start" x="208.5" y="-455" font-family="Helvetica,sans-Serif" font-size="10.00">get()</text>
<text text-anchor="start" x="195.5" y="-440" font-family="Helvetica,sans-Serif" font-size="10.00">+</text>
<text text-anchor="start" x="208.5" y="-440" font-family="Helvetica,sans-Serif" font-size="10.00">update()</text>
<text text-anchor="start" x="195.5" y="-425" font-family="Helvetica,sans-Serif" font-size="10.00">+</text>
<text text-anchor="start" x="208.5" y="-425" font-family="Helvetica,sans-Serif" font-size="10.00">getEntitiesInPhase()</text>
<text text-anchor="start" x="195.5" y="-410" font-family="Helvetica,sans-Serif" font-size="10.00">+</text>
<text text-anchor="start" x="208.5" y="-410" font-family="Helvetica,sans-Serif" font-size="10.00">canEntityMove()</text>
<text text-anchor="start" x="195.5" y="-395" font-family="Helvetica,sans-Serif" font-size="10.00">+</text>
<text text-anchor="start" x="208.5" y="-395" font-family="Helvetica,sans-Serif" font-size="10.00">dump()</text>
<text text-anchor="start" x="198" y="-380" font-family="Helvetica,sans-Serif" font-size="10.00">&#45;</text>
<text text-anchor="start" x="208.5" y="-380" font-family="Helvetica,sans-Serif" font-size="10.00">updateMovement()</text>
<polygon fill="#666666" stroke="#666666" points="191.5,-495 191.5,-495 311.5,-495 311.5,-495 191.5,-495"/>
<polygon fill="#666666" stroke="#666666" points="191.5,-480 191.5,-480 206.5,-480 206.5,-480 191.5,-480"/>
<polygon fill="#666666" stroke="#666666" points="206.5,-480 206.5,-480 311.5,-480 311.5,-480 206.5,-480"/>
<polygon fill="none" stroke="#666666" points="191.5,-373.5 191.5,-512.5 311.5,-512.5 311.5,-373.5 191.5,-373.5"/>
</a>
</g>
</g>
<!-- Node3&#45;&gt;Node5 -->
<g id="edge6_Node000005_Node000003" class="edge">
<title>Node3&#45;&gt;Node5</title>
<g id="a_edge6_Node000005_Node000003"><a xlink:title=" ">
<path fill="none" stroke="#63b8ff" d="M251.5,-736.63C251.5,-680.66 251.5,-580.05 251.5,-512.65"/>
<polygon fill="none" stroke="#63b8ff" points="248,-736.88 251.5,-746.88 255,-736.88 248,-736.88"/>
</a>
</g>
</g>
<!-- Node6 -->
<g id="Node000006" class="node">
<title>Node6</title>
<g id="a_Node000006"><a xlink:href="classDescriptionComponentManager.html" target="_top" xlink:title=" ">
<polygon fill="white" stroke="transparent" points="495,-490 330,-490 330,-396 495,-396 495,-490"/>
<text text-anchor="start" x="335.5" y="-478" font-family="Helvetica,sans-Serif" font-size="10.00">DescriptionComponentManager</text>
<text text-anchor="start" x="355.5" y="-463" font-family="Helvetica,sans-Serif" font-size="10.00">+</text>
<text text-anchor="start" x="389.5" y="-463" font-family="Helvetica,sans-Serif" font-size="10.00">descriptions</text>
<text text-anchor="start" x="355.5" y="-448" font-family="Helvetica,sans-Serif" font-size="10.00">+</text>
<text text-anchor="start" x="389.5" y="-448" font-family="Helvetica,sans-Serif" font-size="10.00">create()</text>
<text text-anchor="start" x="355.5" y="-433" font-family="Helvetica,sans-Serif" font-size="10.00">+</text>
<text text-anchor="start" x="389.5" y="-433" font-family="Helvetica,sans-Serif" font-size="10.00">get()</text>
<text text-anchor="start" x="355.5" y="-418" font-family="Helvetica,sans-Serif" font-size="10.00">+</text>
<text text-anchor="start" x="389.5" y="-418" font-family="Helvetica,sans-Serif" font-size="10.00">dump()</text>
<text text-anchor="start" x="355.5" y="-403" font-family="Helvetica,sans-Serif" font-size="10.00">+</text>
<text text-anchor="start" x="389.5" y="-403" font-family="Helvetica,sans-Serif" font-size="10.00">update()</text>
<polygon fill="#666666" stroke="#666666" points="330.5,-473 330.5,-473 495.5,-473 495.5,-473 330.5,-473"/>
<polygon fill="#666666" stroke="#666666" points="330.5,-458 330.5,-458 387.5,-458 387.5,-458 330.5,-458"/>
<polygon fill="#666666" stroke="#666666" points="387.5,-458 387.5,-458 495.5,-458 495.5,-458 387.5,-458"/>
<polygon fill="none" stroke="#666666" points="330,-396 330,-490 495,-490 495,-396 330,-396"/>
</a>
</g>
</g>
<!-- Node3&#45;&gt;Node6 -->
<g id="edge8_Node000006_Node000003" class="edge">
<title>Node3&#45;&gt;Node6</title>
<g id="a_edge8_Node000006_Node000003"><a xlink:title=" ">
<path fill="none" stroke="#63b8ff" d="M270.9,-737.75C300.94,-675.44 358.52,-555.99 390.22,-490.23"/>
<polygon fill="none" stroke="#63b8ff" points="267.69,-736.35 266.5,-746.88 274,-739.39 267.69,-736.35"/>
</a>
</g>
</g>
<!-- Node10 -->
<g id="Node000010" class="node">
<title>Node10</title>
<g id="a_Node000010"><a xlink:href="classInfoBoxManager.html" target="_top" xlink:title=" ">
<polygon fill="white" stroke="transparent" points="604,-490 513,-490 513,-396 604,-396 604,-490"/>
<text text-anchor="start" x="518.5" y="-478" font-family="Helvetica,sans-Serif" font-size="10.00">InfoBoxManager</text>
<text text-anchor="start" x="522" y="-463" font-family="Helvetica,sans-Serif" font-size="10.00">+</text>
<text text-anchor="start" x="539.5" y="-463" font-family="Helvetica,sans-Serif" font-size="10.00">infoBoxes</text>
<text text-anchor="start" x="522" y="-448" font-family="Helvetica,sans-Serif" font-size="10.00">+</text>
<text text-anchor="start" x="539.5" y="-448" font-family="Helvetica,sans-Serif" font-size="10.00">create()</text>
<text text-anchor="start" x="522" y="-433" font-family="Helvetica,sans-Serif" font-size="10.00">+</text>
<text text-anchor="start" x="539.5" y="-433" font-family="Helvetica,sans-Serif" font-size="10.00">get()</text>
<text text-anchor="start" x="522" y="-418" font-family="Helvetica,sans-Serif" font-size="10.00">+</text>
<text text-anchor="start" x="539.5" y="-418" font-family="Helvetica,sans-Serif" font-size="10.00">renderAll()</text>
<text text-anchor="start" x="522" y="-403" font-family="Helvetica,sans-Serif" font-size="10.00">+</text>
<text text-anchor="start" x="539.5" y="-403" font-family="Helvetica,sans-Serif" font-size="10.00">dump()</text>
<polygon fill="#666666" stroke="#666666" points="513.5,-473 513.5,-473 604.5,-473 604.5,-473 513.5,-473"/>
<polygon fill="#666666" stroke="#666666" points="513.5,-458 513.5,-458 537.5,-458 537.5,-458 513.5,-458"/>
<polygon fill="#666666" stroke="#666666" points="537.5,-458 537.5,-458 604.5,-458 604.5,-458 537.5,-458"/>
<polygon fill="none" stroke="#666666" points="513,-396 513,-490 604,-490 604,-396 513,-396"/>
</a>
</g>
</g>
<!-- Node3&#45;&gt;Node10 -->
<g id="edge14_Node000010_Node000003" class="edge">
<title>Node3&#45;&gt;Node10</title>
<g id="a_edge14_Node000010_Node000003"><a xlink:title=" ">
<path fill="none" stroke="#63b8ff" d="M330.28,-743.25C386.23,-714.85 459.19,-669.66 504.5,-610 531.26,-574.76 545.06,-525.73 551.98,-490.09"/>
<polygon fill="none" stroke="#63b8ff" points="328.48,-740.24 321.1,-747.84 331.61,-746.5 328.48,-740.24"/>
</a>
</g>
</g>
<!-- Node4&#45;&gt;Node1 -->
<g id="edge3_Node000001_Node000004" class="edge">
<title>Node4&#45;&gt;Node1</title>
<g id="a_edge3_Node000001_Node000004"><a xlink:title=" ">
<path fill="none" stroke="#63b8ff" d="M130.97,-403.32C136.24,-366.27 149.45,-310.97 182.5,-276 268.44,-185.06 412.38,-144.66 503.78,-127.44"/>
<polygon fill="none" stroke="#63b8ff" points="503.95,-127.41 509.14,-122.4 515.76,-125.26 510.57,-130.27 503.95,-127.41"/>
</a>
</g>
<text text-anchor="middle" x="242" y="-250" font-family="Helvetica,sans-Serif" font-size="10.00" fill="grey"> &#45;posManager</text>
</g>
<!-- Node5&#45;&gt;Node1 -->
<g id="edge5_Node000001_Node000005" class="edge">
<title>Node5&#45;&gt;Node1</title>
<g id="a_edge5_Node000001_Node000005"><a xlink:title=" ">
<path fill="none" stroke="#63b8ff" d="M269.18,-373.18C280.02,-341 296.52,-303.75 320.5,-276 370.38,-218.27 446.37,-175.52 504.72,-148.72"/>
<polygon fill="none" stroke="#63b8ff" points="504.83,-148.67 508.65,-142.56 515.76,-143.73 511.94,-149.85 504.83,-148.67"/>
</a>
</g>
<text text-anchor="middle" x="383.5" y="-250" font-family="Helvetica,sans-Serif" font-size="10.00" fill="grey"> &#45;moveManager</text>
</g>
<!-- Node6&#45;&gt;Node1 -->
<g id="edge7_Node000001_Node000006" class="edge">
<title>Node6&#45;&gt;Node1</title>
<g id="a_edge7_Node000001_Node000006"><a xlink:title=" ">
<path fill="none" stroke="#63b8ff" d="M416.61,-395.74C421.85,-354.55 433.58,-293.75 459.5,-247 471.95,-224.54 489.28,-203.24 507.2,-184.57"/>
<polygon fill="none" stroke="#63b8ff" points="507.32,-184.45 508.68,-177.37 515.74,-175.91 514.38,-182.99 507.32,-184.45"/>
</a>
</g>
<text text-anchor="middle" x="496" y="-250" font-family="Helvetica,sans-Serif" font-size="10.00" fill="grey"> &#45;descManager</text>
</g>
<!-- Node7 -->
<g id="Node000007" class="node">
<title>Node7</title>
<g id="a_Node000007"><a xlink:href="classPathfinder.html" target="_top" xlink:title=" ">
<polygon fill="white" stroke="transparent" points="802,-497.5 685,-497.5 685,-388.5 802,-388.5 802,-497.5"/>
<text text-anchor="start" x="719.5" y="-485" font-family="Helvetica,sans-Serif" font-size="10.00">Pathfinder</text>
<text text-anchor="start" x="742" y="-470" font-family="Helvetica,sans-Serif" font-size="10.00"> </text>
<text text-anchor="start" x="689.5" y="-455" font-family="Helvetica,sans-Serif" font-size="10.00">+</text>
<text text-anchor="start" x="702.5" y="-455" font-family="Helvetica,sans-Serif" font-size="10.00">Pathfinder()</text>
<text text-anchor="start" x="689.5" y="-440" font-family="Helvetica,sans-Serif" font-size="10.00">+</text>
<text text-anchor="start" x="702.5" y="-440" font-family="Helvetica,sans-Serif" font-size="10.00">findPath()</text>
<text text-anchor="start" x="689.5" y="-425" font-family="Helvetica,sans-Serif" font-size="10.00">+</text>
<text text-anchor="start" x="702.5" y="-425" font-family="Helvetica,sans-Serif" font-size="10.00">findPathToZone()</text>
<text text-anchor="start" x="692" y="-410" font-family="Helvetica,sans-Serif" font-size="10.00">&#45;</text>
<text text-anchor="start" x="702.5" y="-410" font-family="Helvetica,sans-Serif" font-size="10.00">reconstructPath()</text>
<text text-anchor="start" x="692" y="-395" font-family="Helvetica,sans-Serif" font-size="10.00">&#45;</text>
<text text-anchor="start" x="702.5" y="-395" font-family="Helvetica,sans-Serif" font-size="10.00">calculateHeuristic()</text>
<polygon fill="#666666" stroke="#666666" points="685.5,-480 685.5,-480 802.5,-480 802.5,-480 685.5,-480"/>
<polygon fill="#666666" stroke="#666666" points="685.5,-465 685.5,-465 802.5,-465 802.5,-465 685.5,-465"/>
<polygon fill="none" stroke="#666666" points="685,-388.5 685,-497.5 802,-497.5 802,-388.5 685,-388.5"/>
</a>
</g>
</g>
<!-- Node7&#45;&gt;Node1 -->
<g id="edge9_Node000001_Node000007" class="edge">
<title>Node7&#45;&gt;Node1</title>
<g id="a_edge9_Node000001_Node000007"><a xlink:title=" ">
<path fill="none" stroke="#63b8ff" d="M720.78,-388.19C706.75,-355.53 688.12,-313.11 670.5,-276 664.95,-264.31 659.06,-252.22 653.07,-240.14"/>
<polygon fill="none" stroke="#63b8ff" points="652.91,-239.82 646.65,-236.23 647.56,-229.08 653.81,-232.66 652.91,-239.82"/>
</a>
</g>
<text text-anchor="middle" x="688" y="-250" font-family="Helvetica,sans-Serif" font-size="10.00" fill="grey"> &#45;pathfinder</text>
</g>
<!-- Node8 -->
<g id="Node000008" class="node">
<title>Node8</title>
<g id="a_Node000008"><a xlink:href="classGrid.html" target="_top" xlink:title=" ">
<polygon fill="white" stroke="transparent" points="724,-893.5 625,-893.5 625,-664.5 724,-664.5 724,-893.5"/>
<text text-anchor="start" x="664.5" y="-881" font-family="Helvetica,sans-Serif" font-size="10.00">Grid</text>
<text text-anchor="start" x="629.5" y="-866" font-family="Helvetica,sans-Serif" font-size="10.00">+</text>
<text text-anchor="start" x="642.5" y="-866" font-family="Helvetica,sans-Serif" font-size="10.00">zones</text>
<text text-anchor="start" x="632" y="-851" font-family="Helvetica,sans-Serif" font-size="10.00">&#45;</text>
<text text-anchor="start" x="642.5" y="-851" font-family="Helvetica,sans-Serif" font-size="10.00">width</text>
<text text-anchor="start" x="632" y="-836" font-family="Helvetica,sans-Serif" font-size="10.00">&#45;</text>
<text text-anchor="start" x="642.5" y="-836" font-family="Helvetica,sans-Serif" font-size="10.00">height</text>
<text text-anchor="start" x="632" y="-821" font-family="Helvetica,sans-Serif" font-size="10.00">&#45;</text>
<text text-anchor="start" x="642.5" y="-821" font-family="Helvetica,sans-Serif" font-size="10.00">cells</text>
<text text-anchor="start" x="629.5" y="-806" font-family="Helvetica,sans-Serif" font-size="10.00">+</text>
<text text-anchor="start" x="642.5" y="-806" font-family="Helvetica,sans-Serif" font-size="10.00">Grid()</text>
<text text-anchor="start" x="629.5" y="-791" font-family="Helvetica,sans-Serif" font-size="10.00">+</text>
<text text-anchor="start" x="642.5" y="-791" font-family="Helvetica,sans-Serif" font-size="10.00">at()</text>
<text text-anchor="start" x="629.5" y="-776" font-family="Helvetica,sans-Serif" font-size="10.00">+</text>
<text text-anchor="start" x="642.5" y="-776" font-family="Helvetica,sans-Serif" font-size="10.00">at()</text>
<text text-anchor="start" x="629.5" y="-761" font-family="Helvetica,sans-Serif" font-size="10.00">+</text>
<text text-anchor="start" x="642.5" y="-761" font-family="Helvetica,sans-Serif" font-size="10.00">getWidth()</text>
<text text-anchor="start" x="629.5" y="-746" font-family="Helvetica,sans-Serif" font-size="10.00">+</text>
<text text-anchor="start" x="642.5" y="-746" font-family="Helvetica,sans-Serif" font-size="10.00">getHeight()</text>
<text text-anchor="start" x="629.5" y="-731" font-family="Helvetica,sans-Serif" font-size="10.00">+</text>
<text text-anchor="start" x="642.5" y="-731" font-family="Helvetica,sans-Serif" font-size="10.00">dump()</text>
<text text-anchor="start" x="629.5" y="-716" font-family="Helvetica,sans-Serif" font-size="10.00">+</text>
<text text-anchor="start" x="642.5" y="-716" font-family="Helvetica,sans-Serif" font-size="10.00">loadFromJson()</text>
<text text-anchor="start" x="629.5" y="-701" font-family="Helvetica,sans-Serif" font-size="10.00">+</text>
<text text-anchor="start" x="642.5" y="-701" font-family="Helvetica,sans-Serif" font-size="10.00">loadFromTiled()</text>
<text text-anchor="start" x="629.5" y="-686" font-family="Helvetica,sans-Serif" font-size="10.00">+</text>
<text text-anchor="start" x="642.5" y="-686" font-family="Helvetica,sans-Serif" font-size="10.00">cycleTileType()</text>
<text text-anchor="start" x="629.5" y="-671" font-family="Helvetica,sans-Serif" font-size="10.00">+</text>
<text text-anchor="start" x="642.5" y="-671" font-family="Helvetica,sans-Serif" font-size="10.00">saveToJson()</text>
<polygon fill="#666666" stroke="#666666" points="625.5,-876 625.5,-876 724.5,-876 724.5,-876 625.5,-876"/>
<polygon fill="#666666" stroke="#666666" points="625.5,-816 625.5,-816 640.5,-816 640.5,-816 625.5,-816"/>
<polygon fill="#666666" stroke="#666666" points="640.5,-816 640.5,-816 724.5,-816 724.5,-816 640.5,-816"/>
<polygon fill="none" stroke="#666666" points="625,-664.5 625,-893.5 724,-893.5 724,-664.5 625,-664.5"/>
</a>
</g>
</g>
<!-- Node8&#45;&gt;Node1 -->
<g id="edge11_Node000001_Node000008" class="edge">
<title>Node8&#45;&gt;Node1</title>
<g id="a_edge11_Node000001_Node000008"><a xlink:title=" ">
<path fill="none" stroke="#63b8ff" d="M657.06,-664.28C654.63,-646.15 652.33,-627.58 650.5,-610 633.72,-449.19 654.44,-406.25 626.5,-247 626.16,-245.08 625.81,-243.15 625.44,-241.21"/>
<polygon fill="none" stroke="#63b8ff" points="625.39,-240.94 620.26,-235.87 622.98,-229.19 628.1,-234.26 625.39,-240.94"/>
</a>
</g>
<text text-anchor="middle" x="663.5" y="-440.5" font-family="Helvetica,sans-Serif" font-size="10.00" fill="grey"> &#45;grid</text>
</g>
<!-- Node8&#45;&gt;Node7 -->
<g id="edge10_Node000007_Node000008" class="edge">
<title>Node8&#45;&gt;Node7</title>
<g id="a_edge10_Node000007_Node000008"><a xlink:title=" ">
<path fill="none" stroke="#63b8ff" d="M697.96,-664.46C708.6,-612.94 720.81,-553.84 729.9,-509.81"/>
<polygon fill="none" stroke="#63b8ff" points="729.96,-509.56 727.25,-502.88 732.38,-497.81 735.09,-504.49 729.96,-509.56"/>
</a>
</g>
<text text-anchor="middle" x="717.5" y="-631" font-family="Helvetica,sans-Serif" font-size="10.00" fill="grey"> &#45;grid</text>
</g>
<!-- Node9 -->
<g id="Node000009" class="node">
<title>Node9</title>
<g id="a_Node000009"><a xlink:href="classGeminiClient.html" target="_top" xlink:title=" ">
<polygon fill="white" stroke="transparent" points="931,-482.5 820,-482.5 820,-403.5 931,-403.5 931,-482.5"/>
<text text-anchor="start" x="844" y="-470" font-family="Helvetica,sans-Serif" font-size="10.00">GeminiClient</text>
<text text-anchor="start" x="827" y="-455" font-family="Helvetica,sans-Serif" font-size="10.00">&#45;</text>
<text text-anchor="start" x="837.5" y="-455" font-family="Helvetica,sans-Serif" font-size="10.00">apiKey</text>
<text text-anchor="start" x="827" y="-440" font-family="Helvetica,sans-Serif" font-size="10.00">&#45;</text>
<text text-anchor="start" x="837.5" y="-440" font-family="Helvetica,sans-Serif" font-size="10.00">apiUrl</text>
<text text-anchor="start" x="824.5" y="-425" font-family="Helvetica,sans-Serif" font-size="10.00">+</text>
<text text-anchor="start" x="837.5" y="-425" font-family="Helvetica,sans-Serif" font-size="10.00">GeminiClient()</text>
<text text-anchor="start" x="824.5" y="-410" font-family="Helvetica,sans-Serif" font-size="10.00">+</text>
<text text-anchor="start" x="837.5" y="-410" font-family="Helvetica,sans-Serif" font-size="10.00">generateContent()</text>
<polygon fill="#666666" stroke="#666666" points="820.5,-465 820.5,-465 931.5,-465 931.5,-465 820.5,-465"/>
<polygon fill="#666666" stroke="#666666" points="820.5,-435 820.5,-435 835.5,-435 835.5,-435 820.5,-435"/>
<polygon fill="#666666" stroke="#666666" points="835.5,-435 835.5,-435 931.5,-435 931.5,-435 835.5,-435"/>
<polygon fill="none" stroke="#666666" points="820,-403.5 820,-482.5 931,-482.5 931,-403.5 820,-403.5"/>
</a>
</g>
</g>
<!-- Node9&#45;&gt;Node1 -->
<g id="edge12_Node000001_Node000009" class="edge">
<title>Node9&#45;&gt;Node1</title>
<g id="a_edge12_Node000001_Node000009"><a xlink:title=" ">
<path fill="none" stroke="#63b8ff" d="M867.31,-403.26C858.27,-367.44 840.95,-314.14 811.5,-276 774.03,-227.47 717.98,-187.21 671.44,-159.16"/>
<polygon fill="none" stroke="#63b8ff" points="671.38,-159.12 664.18,-159.5 661.06,-153 668.26,-152.62 671.38,-159.12"/>
</a>
</g>
<text text-anchor="middle" x="812" y="-250" font-family="Helvetica,sans-Serif" font-size="10.00" fill="grey"> &#45;gemini</text>
</g>
<!-- Node10&#45;&gt;Node1 -->
<g id="edge13_Node000001_Node000010" class="edge">
<title>Node10&#45;&gt;Node1</title>
<g id="a_edge13_Node000001_Node000010"><a xlink:title=" ">
<path fill="none" stroke="#63b8ff" d="M546.39,-395.61C537.79,-355.91 529.25,-297.37 538.5,-247 538.87,-244.98 539.27,-242.94 539.7,-240.91"/>
<polygon fill="none" stroke="#63b8ff" points="539.71,-240.86 537.18,-234.11 542.44,-229.18 544.97,-235.93 539.71,-240.86"/>
</a>
</g>
<text text-anchor="middle" x="582.5" y="-250" font-family="Helvetica,sans-Serif" font-size="10.00" fill="grey"> &#45;infoBoxManager</text>
</g>
<!-- Node11 -->
<g id="Node000011" class="node">
<title>Node11</title>
<g id="a_Node000011"><a xlink:href="classClock.html" target="_top" xlink:title=" ">
<polygon fill="white" stroke="transparent" points="1098,-610 949,-610 949,-276 1098,-276 1098,-610"/>
<text text-anchor="start" x="1010" y="-598" font-family="Helvetica,sans-Serif" font-size="10.00">Clock</text>
<text text-anchor="start" x="956" y="-583" font-family="Helvetica,sans-Serif" font-size="10.00">&#45;</text>
<text text-anchor="start" x="966.5" y="-583" font-family="Helvetica,sans-Serif" font-size="10.00">totalSeconds</text>
<text text-anchor="start" x="956" y="-568" font-family="Helvetica,sans-Serif" font-size="10.00">&#45;</text>
<text text-anchor="start" x="966.5" y="-568" font-family="Helvetica,sans-Serif" font-size="10.00">hour</text>
<text text-anchor="start" x="956" y="-553" font-family="Helvetica,sans-Serif" font-size="10.00">&#45;</text>
<text text-anchor="start" x="966.5" y="-553" font-family="Helvetica,sans-Serif" font-size="10.00">minute</text>
<text text-anchor="start" x="956" y="-538" font-family="Helvetica,sans-Serif" font-size="10.00">&#45;</text>
<text text-anchor="start" x="966.5" y="-538" font-family="Helvetica,sans-Serif" font-size="10.00">day</text>
<text text-anchor="start" x="956" y="-523" font-family="Helvetica,sans-Serif" font-size="10.00">&#45;</text>
<text text-anchor="start" x="966.5" y="-523" font-family="Helvetica,sans-Serif" font-size="10.00">timeScale</text>
<text text-anchor="start" x="956" y="-508" font-family="Helvetica,sans-Serif" font-size="10.00">&#45;</text>
<text text-anchor="start" x="966.5" y="-508" font-family="Helvetica,sans-Serif" font-size="10.00">paused</text>
<text text-anchor="start" x="953.5" y="-493" font-family="Helvetica,sans-Serif" font-size="10.00">+</text>
<text text-anchor="start" x="966.5" y="-493" font-family="Helvetica,sans-Serif" font-size="10.00">Clock()</text>
<text text-anchor="start" x="953.5" y="-478" font-family="Helvetica,sans-Serif" font-size="10.00">+</text>
<text text-anchor="start" x="966.5" y="-478" font-family="Helvetica,sans-Serif" font-size="10.00">update()</text>
<text text-anchor="start" x="953.5" y="-463" font-family="Helvetica,sans-Serif" font-size="10.00">+</text>
<text text-anchor="start" x="966.5" y="-463" font-family="Helvetica,sans-Serif" font-size="10.00">getHour()</text>
<text text-anchor="start" x="953.5" y="-448" font-family="Helvetica,sans-Serif" font-size="10.00">+</text>
<text text-anchor="start" x="966.5" y="-448" font-family="Helvetica,sans-Serif" font-size="10.00">getMinute()</text>
<text text-anchor="start" x="953.5" y="-433" font-family="Helvetica,sans-Serif" font-size="10.00">+</text>
<text text-anchor="start" x="966.5" y="-433" font-family="Helvetica,sans-Serif" font-size="10.00">getDay()</text>
<text text-anchor="start" x="953.5" y="-418" font-family="Helvetica,sans-Serif" font-size="10.00">+</text>
<text text-anchor="start" x="966.5" y="-418" font-family="Helvetica,sans-Serif" font-size="10.00">getTotalSeconds()</text>
<text text-anchor="start" x="953.5" y="-403" font-family="Helvetica,sans-Serif" font-size="10.00">+</text>
<text text-anchor="start" x="966.5" y="-403" font-family="Helvetica,sans-Serif" font-size="10.00">getTimeOfDay()</text>
<text text-anchor="start" x="953.5" y="-388" font-family="Helvetica,sans-Serif" font-size="10.00">+</text>
<text text-anchor="start" x="966.5" y="-388" font-family="Helvetica,sans-Serif" font-size="10.00">getTimeOfDay()</text>
<text text-anchor="start" x="953.5" y="-373" font-family="Helvetica,sans-Serif" font-size="10.00">+</text>
<text text-anchor="start" x="966.5" y="-373" font-family="Helvetica,sans-Serif" font-size="10.00">getTimeString()</text>
<text text-anchor="start" x="953.5" y="-358" font-family="Helvetica,sans-Serif" font-size="10.00">+</text>
<text text-anchor="start" x="966.5" y="-358" font-family="Helvetica,sans-Serif" font-size="10.00">setTimeScale()</text>
<text text-anchor="start" x="953.5" y="-343" font-family="Helvetica,sans-Serif" font-size="10.00">+</text>
<text text-anchor="start" x="966.5" y="-343" font-family="Helvetica,sans-Serif" font-size="10.00">getTimeScale()</text>
<text text-anchor="start" x="953.5" y="-328" font-family="Helvetica,sans-Serif" font-size="10.00">+</text>
<text text-anchor="start" x="966.5" y="-328" font-family="Helvetica,sans-Serif" font-size="10.00">pause()</text>
<text text-anchor="start" x="953.5" y="-313" font-family="Helvetica,sans-Serif" font-size="10.00">+</text>
<text text-anchor="start" x="966.5" y="-313" font-family="Helvetica,sans-Serif" font-size="10.00">resume()</text>
<text text-anchor="start" x="953.5" y="-298" font-family="Helvetica,sans-Serif" font-size="10.00">+</text>
<text text-anchor="start" x="966.5" y="-298" font-family="Helvetica,sans-Serif" font-size="10.00">isPaused()</text>
<text text-anchor="start" x="956" y="-283" font-family="Helvetica,sans-Serif" font-size="10.00">&#45;</text>
<text text-anchor="start" x="966.5" y="-283" font-family="Helvetica,sans-Serif" font-size="10.00">updateTimeComponents()</text>
<polygon fill="#666666" stroke="#666666" points="949.5,-593 949.5,-593 1098.5,-593 1098.5,-593 949.5,-593"/>
<polygon fill="#666666" stroke="#666666" points="949.5,-503 949.5,-503 964.5,-503 964.5,-503 949.5,-503"/>
<polygon fill="#666666" stroke="#666666" points="964.5,-503 964.5,-503 1098.5,-503 1098.5,-503 964.5,-503"/>
<polygon fill="none" stroke="#666666" points="949,-276 949,-610 1098,-610 1098,-276 949,-276"/>
</a>
</g>
</g>
<!-- Node11&#45;&gt;Node1 -->
<g id="edge15_Node000001_Node000011" class="edge">
<title>Node11&#45;&gt;Node1</title>
<g id="a_edge15_Node000001_Node000011"><a xlink:title=" ">
<path fill="none" stroke="#63b8ff" d="M948.94,-284.74C946.21,-281.72 943.4,-278.8 940.5,-276 864.99,-203.14 750.54,-159.44 672.81,-136.43"/>
<polygon fill="none" stroke="#63b8ff" points="672.67,-136.39 665.79,-138.57 661.14,-133.05 668.02,-130.88 672.67,-136.39"/>
</a>
</g>
<text text-anchor="middle" x="933" y="-250" font-family="Helvetica,sans-Serif" font-size="10.00" fill="grey"> &#45;clock</text>
</g>
<!-- Node12 -->
<g id="Node000012" class="node">
<title>Node12</title>
<g id="a_Node000012"><a xlink:href="classTimeOfDay.html" target="_top" xlink:title=" ">
<polygon fill="white" stroke="transparent" points="1092.5,-901 954.5,-901 954.5,-657 1092.5,-657 1092.5,-901"/>
<text text-anchor="start" x="995.5" y="-889" font-family="Helvetica,sans-Serif" font-size="10.00">TimeOfDay</text>
<text text-anchor="start" x="961" y="-874" font-family="Helvetica,sans-Serif" font-size="10.00">&#45;</text>
<text text-anchor="start" x="971.5" y="-874" font-family="Helvetica,sans-Serif" font-size="10.00">currentPeriod</text>
<text text-anchor="start" x="958.5" y="-859" font-family="Helvetica,sans-Serif" font-size="10.00">+</text>
<text text-anchor="start" x="971.5" y="-859" font-family="Helvetica,sans-Serif" font-size="10.00">TimeOfDay()</text>
<text text-anchor="start" x="958.5" y="-844" font-family="Helvetica,sans-Serif" font-size="10.00">+</text>
<text text-anchor="start" x="971.5" y="-844" font-family="Helvetica,sans-Serif" font-size="10.00">updateFromHour()</text>
<text text-anchor="start" x="958.5" y="-829" font-family="Helvetica,sans-Serif" font-size="10.00">+</text>
<text text-anchor="start" x="971.5" y="-829" font-family="Helvetica,sans-Serif" font-size="10.00">getCurrentPeriod()</text>
<text text-anchor="start" x="958.5" y="-814" font-family="Helvetica,sans-Serif" font-size="10.00">+</text>
<text text-anchor="start" x="971.5" y="-814" font-family="Helvetica,sans-Serif" font-size="10.00">getPeriodString()</text>
<text text-anchor="start" x="958.5" y="-799" font-family="Helvetica,sans-Serif" font-size="10.00">+</text>
<text text-anchor="start" x="971.5" y="-799" font-family="Helvetica,sans-Serif" font-size="10.00">isDay()</text>
<text text-anchor="start" x="958.5" y="-784" font-family="Helvetica,sans-Serif" font-size="10.00">+</text>
<text text-anchor="start" x="971.5" y="-784" font-family="Helvetica,sans-Serif" font-size="10.00">isNight()</text>
<text text-anchor="start" x="958.5" y="-769" font-family="Helvetica,sans-Serif" font-size="10.00">+</text>
<text text-anchor="start" x="971.5" y="-769" font-family="Helvetica,sans-Serif" font-size="10.00">isWorkHours()</text>
<text text-anchor="start" x="958.5" y="-754" font-family="Helvetica,sans-Serif" font-size="10.00">+</text>
<text text-anchor="start" x="971.5" y="-754" font-family="Helvetica,sans-Serif" font-size="10.00">isSleepTime()</text>
<text text-anchor="start" x="958.5" y="-739" font-family="Helvetica,sans-Serif" font-size="10.00">+</text>
<text text-anchor="start" x="971.5" y="-739" font-family="Helvetica,sans-Serif" font-size="10.00">isMealTime()</text>
<text text-anchor="start" x="958.5" y="-724" font-family="Helvetica,sans-Serif" font-size="10.00">+</text>
<text text-anchor="start" x="971.5" y="-724" font-family="Helvetica,sans-Serif" font-size="10.00">getSuggestedActivity()</text>
<text text-anchor="start" x="958.5" y="-709" font-family="Helvetica,sans-Serif" font-size="10.00">+</text>
<text text-anchor="start" x="971.5" y="-709" font-family="Helvetica,sans-Serif" font-size="10.00">isGoodTimeForWork()</text>
<text text-anchor="start" x="958.5" y="-694" font-family="Helvetica,sans-Serif" font-size="10.00">+</text>
<text text-anchor="start" x="971.5" y="-694" font-family="Helvetica,sans-Serif" font-size="10.00">isGoodTimeForSleep()</text>
<text text-anchor="start" x="958.5" y="-679" font-family="Helvetica,sans-Serif" font-size="10.00">+</text>
<text text-anchor="start" x="971.5" y="-679" font-family="Helvetica,sans-Serif" font-size="10.00">isGoodTimeForLeisure()</text>
<text text-anchor="start" x="961" y="-664" font-family="Helvetica,sans-Serif" font-size="10.00">&#45;</text>
<text text-anchor="start" x="971.5" y="-664" font-family="Helvetica,sans-Serif" font-size="10.00">calculatePeriod()</text>
<polygon fill="#666666" stroke="#666666" points="954.5,-884 954.5,-884 1092.5,-884 1092.5,-884 954.5,-884"/>
<polygon fill="#666666" stroke="#666666" points="954.5,-869 954.5,-869 969.5,-869 969.5,-869 954.5,-869"/>
<polygon fill="#666666" stroke="#666666" points="969.5,-869 969.5,-869 1092.5,-869 1092.5,-869 969.5,-869"/>
<polygon fill="none" stroke="#666666" points="954.5,-657 954.5,-901 1092.5,-901 1092.5,-657 954.5,-657"/>
</a>
</g>
</g>
<!-- Node12&#45;&gt;Node11 -->
<g id="edge16_Node000011_Node000012" class="edge">
<title>Node12&#45;&gt;Node11</title>
<g id="a_edge16_Node000011_Node000012"><a xlink:title=" ">
<path fill="none" stroke="#63b8ff" d="M1023.5,-656.95C1023.5,-645.65 1023.5,-634.06 1023.5,-622.39"/>
<polygon fill="none" stroke="#63b8ff" points="1023.5,-622.21 1019.5,-616.21 1023.5,-610.21 1027.5,-616.21 1023.5,-622.21"/>
</a>
</g>
<text text-anchor="middle" x="1054" y="-631" font-family="Helvetica,sans-Serif" font-size="10.00" fill="grey"> &#45;timeOfDay</text>
</g>
<!-- Node13 -->
<g id="Node000013" class="node">
<title>Node13</title>
<g id="a_Node000013"><a xlink:href="classHomeManager.html" target="_top" xlink:title=" ">
<polygon fill="white" stroke="transparent" points="1267,-527.5 1116,-527.5 1116,-358.5 1267,-358.5 1267,-527.5"/>
<text text-anchor="start" x="1155.5" y="-515" font-family="Helvetica,sans-Serif" font-size="10.00">HomeManager</text>
<text text-anchor="start" x="1123" y="-500" font-family="Helvetica,sans-Serif" font-size="10.00">&#45;</text>
<text text-anchor="start" x="1133.5" y="-500" font-family="Helvetica,sans-Serif" font-size="10.00">npcToHome</text>
<text text-anchor="start" x="1123" y="-485" font-family="Helvetica,sans-Serif" font-size="10.00">&#45;</text>
<text text-anchor="start" x="1133.5" y="-485" font-family="Helvetica,sans-Serif" font-size="10.00">homeToNpc</text>
<text text-anchor="start" x="1123" y="-470" font-family="Helvetica,sans-Serif" font-size="10.00">&#45;</text>
<text text-anchor="start" x="1133.5" y="-470" font-family="Helvetica,sans-Serif" font-size="10.00">availableHomes</text>
<text text-anchor="start" x="1120.5" y="-455" font-family="Helvetica,sans-Serif" font-size="10.00">+</text>
<text text-anchor="start" x="1133.5" y="-455" font-family="Helvetica,sans-Serif" font-size="10.00">HomeManager()</text>
<text text-anchor="start" x="1120.5" y="-440" font-family="Helvetica,sans-Serif" font-size="10.00">+</text>
<text text-anchor="start" x="1133.5" y="-440" font-family="Helvetica,sans-Serif" font-size="10.00">assignHome()</text>
<text text-anchor="start" x="1120.5" y="-425" font-family="Helvetica,sans-Serif" font-size="10.00">+</text>
<text text-anchor="start" x="1133.5" y="-425" font-family="Helvetica,sans-Serif" font-size="10.00">getNpcHome()</text>
<text text-anchor="start" x="1120.5" y="-410" font-family="Helvetica,sans-Serif" font-size="10.00">+</text>
<text text-anchor="start" x="1133.5" y="-410" font-family="Helvetica,sans-Serif" font-size="10.00">getHomeResident()</text>
<text text-anchor="start" x="1120.5" y="-395" font-family="Helvetica,sans-Serif" font-size="10.00">+</text>
<text text-anchor="start" x="1133.5" y="-395" font-family="Helvetica,sans-Serif" font-size="10.00">getAllAssignments()</text>
<text text-anchor="start" x="1120.5" y="-380" font-family="Helvetica,sans-Serif" font-size="10.00">+</text>
<text text-anchor="start" x="1133.5" y="-380" font-family="Helvetica,sans-Serif" font-size="10.00">unassignHome()</text>
<text text-anchor="start" x="1120.5" y="-365" font-family="Helvetica,sans-Serif" font-size="10.00">+</text>
<text text-anchor="start" x="1133.5" y="-365" font-family="Helvetica,sans-Serif" font-size="10.00">getNpcHomeCoordinates()</text>
<polygon fill="#666666" stroke="#666666" points="1116.5,-510 1116.5,-510 1267.5,-510 1267.5,-510 1116.5,-510"/>
<polygon fill="#666666" stroke="#666666" points="1116.5,-465 1116.5,-465 1131.5,-465 1131.5,-465 1116.5,-465"/>
<polygon fill="#666666" stroke="#666666" points="1131.5,-465 1131.5,-465 1267.5,-465 1267.5,-465 1131.5,-465"/>
<polygon fill="none" stroke="#666666" points="1116,-358.5 1116,-527.5 1267,-527.5 1267,-358.5 1116,-358.5"/>
</a>
</g>
</g>
<!-- Node13&#45;&gt;Node1 -->
<g id="edge17_Node000001_Node000013" class="edge">
<title>Node13&#45;&gt;Node1</title>
<g id="a_edge17_Node000001_Node000013"><a xlink:title=" ">
<path fill="none" stroke="#63b8ff" d="M1164.78,-358.42C1151.66,-328.83 1133.04,-297.56 1107.5,-276 981.25,-169.42 784.75,-133.55 673.27,-121.52"/>
<polygon fill="none" stroke="#63b8ff" points="673.03,-121.5 666.66,-124.86 661.1,-120.27 667.48,-116.9 673.03,-121.5"/>
</a>
</g>
<text text-anchor="middle" x="1111.5" y="-250" font-family="Helvetica,sans-Serif" font-size="10.00" fill="grey"> &#45;homeManager</text>
</g>
</g>
</svg>

<g id="navigator" transform="translate(0 0)" fill="#404254">
  <rect fill="#f2f5e9" fill-opacity="0.5" stroke="#606060" stroke-width=".5" x="0" y="0" width="60" height="60"/>
  <use id="zoomplus" xlink:href="#zoomPlus" x="17" y="9" onmousedown="handleZoom(evt,'in')"/>
  <use id="zoomminus" xlink:href="#zoomMin" x="42" y="9" onmousedown="handleZoom(evt,'out')"/>
  <use id="reset" xlink:href="#resetDef" x="30" y="36" onmousedown="handleReset()"/>
   <use id="arrowup" xlink:href="#arrowUp" x="0" y="0" onmousedown="handlePan(0,-1)"/>
  <use id="arrowright" xlink:href="#arrowRight" x="0" y="0" onmousedown="handlePan(1,0)"/>
  <use id="arrowdown" xlink:href="#arrowDown" x="0" y="0" onmousedown="handlePan(0,1)"/>
  <use id="arrowleft" xlink:href="#arrowLeft" x="0" y="0" onmousedown="handlePan(-1,0)"/>
</g>
<svg viewBox="0 0 15 15" width="100%" height="30px" preserveAspectRatio="xMaxYMin meet">
 <g id="arrow_out" transform="scale(0.3 0.3)">
  <a xlink:href="classAISystem__coll__graph_org.svg" target="_base">
   <rect id="button" ry="5" rx="5" y="6" x="6" height="38" width="38"
        fill="#f2f5e9" fill-opacity="0.5" stroke="#606060" stroke-width="1.0"/>
   <path id="arrow"
     d="M 11.500037,31.436501 C 11.940474,20.09759 22.043105,11.32322 32.158766,21.979434 L 37.068811,17.246167 C 37.068811,17.246167 37.088388,32 37.088388,32 L 22.160133,31.978069 C 22.160133,31.978069 26.997745,27.140456 26.997745,27.140456 C 18.528582,18.264221 13.291696,25.230495 11.500037,31.436501 z"
     style="fill:#404040;"/>
  </a>
 </g>
</svg>

<style type='text/css'>
<![CDATA[
[data-mouse-over-selected='false'] { opacity: 0.7; }
[data-mouse-over-selected='true']  { opacity: 1.0; }
]]>
</style>
<script type="application/ecmascript"><![CDATA[
document.addEventListener('DOMContentLoaded', (event) => {
  highlightEdges();
  highlightAdjacentNodes();
});
]]></script>
</svg>
