<?xml version="1.0" encoding="UTF-8" standalone="no"?>
<!DOCTYPE svg PUBLIC "-//W3C//DTD SVG 1.1//EN"
 "http://www.w3.org/Graphics/SVG/1.1/DTD/svg11.dtd">
<!-- Generated by graphviz version 2.43.0 (0)
 -->
<!-- Title: TimeOfDay::isGoodTimeForLeisure Pages: 1 -->
<svg width="334pt" height="64pt"
 viewBox="0.00 0.00 334.00 64.00" xmlns="http://www.w3.org/2000/svg" xmlns:xlink="http://www.w3.org/1999/xlink">
<g id="graph0" class="graph" transform="scale(1 1) rotate(0) translate(4 60)">
<title>TimeOfDay::isGoodTimeForLeisure</title>
<!-- Node1 -->
<g id="Node000001" class="node">
<title>Node1</title>
<g id="a_Node000001"><a xlink:title=" ">
<polygon fill="#999999" stroke="#666666" points="151,-42.5 0,-42.5 0,-12.5 151,-12.5 151,-42.5"/>
<text text-anchor="start" x="8" y="-30.5" font-family="Helvetica,sans-Serif" font-size="10.00">TimeOfDay::isGoodTimeFor</text>
<text text-anchor="middle" x="75.5" y="-19.5" font-family="Helvetica,sans-Serif" font-size="10.00">Leisure</text>
</a>
</g>
</g>
<!-- Node2 -->
<g id="Node000002" class="node">
<title>Node2</title>
<g id="a_Node000002"><a xlink:href="classTimeOfDay.html#a2492eebe8a39c1436a27110c4678ba34" target="_top" xlink:title=" ">
<polygon fill="white" stroke="#666666" points="325,-56 188,-56 188,-37 325,-37 325,-56"/>
<text text-anchor="middle" x="256.5" y="-44" font-family="Helvetica,sans-Serif" font-size="10.00">TimeOfDay::isSleepTime</text>
</a>
</g>
</g>
<!-- Node1&#45;&gt;Node2 -->
<g id="edge1_Node000001_Node000002" class="edge">
<title>Node1&#45;&gt;Node2</title>
<g id="a_edge1_Node000001_Node000002"><a xlink:title=" ">
<path fill="none" stroke="#63b8ff" d="M151.12,-35.42C159.97,-36.36 169.02,-37.32 177.91,-38.26"/>
<polygon fill="#63b8ff" stroke="#63b8ff" points="177.55,-41.75 187.86,-39.32 178.29,-34.78 177.55,-41.75"/>
</a>
</g>
</g>
<!-- Node3 -->
<g id="Node000003" class="node">
<title>Node3</title>
<g id="a_Node000003"><a xlink:href="classTimeOfDay.html#ae3a48abc18b275e421133fb4a06fc31a" target="_top" xlink:title=" ">
<polygon fill="white" stroke="#666666" points="326,-19 187,-19 187,0 326,0 326,-19"/>
<text text-anchor="middle" x="256.5" y="-7" font-family="Helvetica,sans-Serif" font-size="10.00">TimeOfDay::isWorkHours</text>
</a>
</g>
</g>
<!-- Node1&#45;&gt;Node3 -->
<g id="edge2_Node000001_Node000003" class="edge">
<title>Node1&#45;&gt;Node3</title>
<g id="a_edge2_Node000001_Node000003"><a xlink:title=" ">
<path fill="none" stroke="#63b8ff" d="M151.12,-20C159.5,-19.15 168.07,-18.29 176.51,-17.44"/>
<polygon fill="#63b8ff" stroke="#63b8ff" points="177.13,-20.9 186.73,-16.42 176.43,-13.93 177.13,-20.9"/>
</a>
</g>
</g>
</g>
</svg>
