<?xml version="1.0" encoding="UTF-8" standalone="no"?>
<!DOCTYPE svg PUBLIC "-//W3C//DTD SVG 1.1//EN"
 "http://www.w3.org/Graphics/SVG/1.1/DTD/svg11.dtd">
<!-- Generated by graphviz version 2.43.0 (0)
 -->
<!-- Title: IComponentManager Pages: 1 -->
<!--zoomable 247 -->

<svg id="main" version="1.1" xmlns="http://www.w3.org/2000/svg" xmlns:xlink="http://www.w3.org/1999/xlink" xml:space="preserve" onload="init(evt)">
<style type="text/css"><![CDATA[
.node, .edge {opacity: 0.7;}
.node.selected, .edge.selected {opacity: 1;}
.edge:hover path { stroke: red; }
.edge:hover polygon { stroke: red; fill: red; }
]]></style>

<defs>
  <circle id="rim" cx="0" cy="0" r="7"/>
  <circle id="rim2" cx="0" cy="0" r="3.5"/>
  <g id="zoomPlus">
    <use xlink:href="#rim" fill="#404040"><set attributeName="fill" to="#808080" begin="zoomplus.mouseover" end="zoomplus.mouseout"/></use>
    <path d="M-4,0h8M0,-4v8" fill="none" stroke="white" stroke-width="1.5" pointer-events="none"/>
  </g>
  <g id="zoomMin">
    <use xlink:href="#rim" fill="#404040"><set attributeName="fill" to="#808080" begin="zoomminus.mouseover" end="zoomminus.mouseout"/></use>
    <path d="M-4,0h8" fill="none" stroke="white" stroke-width="1.5" pointer-events="none"/>
  </g>
  <g id="arrowUp" transform="translate(30 24)">
    <use xlink:href="#rim"/>
    <path pointer-events="none" fill="none" stroke="white" stroke-width="1.5" d="M0,-3.0v7 M-2.5,-0.5L0,-3.0L2.5,-0.5"/>
  </g>
  <g id="arrowRight" transform="rotate(90) translate(36 -43)">
    <use xlink:href="#rim"/>
    <path pointer-events="none" fill="none" stroke="white" stroke-width="1.5" d="M0,-3.0v7 M-2.5,-0.5L0,-3.0L2.5,-0.5"/>
  </g>
  <g id="arrowDown" transform="rotate(180) translate(-30 -48)">
    <use xlink:href="#rim"/>
    <path pointer-events="none" fill="none" stroke="white" stroke-width="1.5" d="M0,-3.0v7 M-2.5,-0.5L0,-3.0L2.5,-0.5"/>
  </g>
  <g id="arrowLeft" transform="rotate(270) translate(-36 17)">
    <use xlink:href="#rim"/>
    <path pointer-events="none" fill="none" stroke="white" stroke-width="1.5" d="M0,-3.0v7 M-2.5,-0.5L0,-3.0L2.5,-0.5"/>
  </g>
  <g id="resetDef">
    <use xlink:href="#rim2" fill="#404040"><set attributeName="fill" to="#808080" begin="reset.mouseover" end="reset.mouseout"/></use>
  </g>
</defs>
<script type="application/ecmascript">
var viewWidth = 858;
var viewHeight = 247;
var sectionId = 'dynsection-0';
</script>
<script type="application/ecmascript" xlink:href="svg.min.js"/>
<svg id="graph" class="graph">
<g id="viewport">
<title>IComponentManager</title>
<!-- Node1 -->
<g id="Node000001" class="node">
<title>Node1</title>
<g id="a_Node000001"><a xlink:title="An interface for managing a specific type of component in an ECS architecture.">
<polygon fill="#999999" stroke="transparent" points="498,-239 359,-239 359,-175 498,-175 498,-239"/>
<text text-anchor="start" x="377.5" y="-227" font-family="Helvetica,sans-Serif" font-size="10.00">IComponentManager</text>
<text text-anchor="start" x="427" y="-212" font-family="Helvetica,sans-Serif" font-size="10.00"> </text>
<text text-anchor="start" x="363.5" y="-197" font-family="Helvetica,sans-Serif" font-size="10.00">+</text>
<text text-anchor="start" x="376.5" y="-197" font-family="Helvetica,sans-Serif" font-size="10.00">~IComponentManager()</text>
<text text-anchor="start" x="363.5" y="-182" font-family="Helvetica,sans-Serif" font-size="10.00">+</text>
<text text-anchor="start" x="376.5" y="-182" font-family="Helvetica,sans-Serif" font-size="10.00">dump()</text>
<polygon fill="#666666" stroke="#666666" points="359.5,-222 359.5,-222 498.5,-222 498.5,-222 359.5,-222"/>
<polygon fill="#666666" stroke="#666666" points="359.5,-207 359.5,-207 498.5,-207 498.5,-207 359.5,-207"/>
<polygon fill="none" stroke="#666666" points="359,-175 359,-239 498,-239 498,-175 359,-175"/>
</a>
</g>
</g>
<!-- Node2 -->
<g id="Node000002" class="node">
<title>Node2</title>
<g id="a_Node000002"><a xlink:href="classAIManager.html" target="_top" xlink:title=" ">
<polygon fill="white" stroke="transparent" points="63,-109 0,-109 0,-30 63,-30 63,-109"/>
<text text-anchor="start" x="5.5" y="-96.5" font-family="Helvetica,sans-Serif" font-size="10.00">AIManager</text>
<text text-anchor="start" x="5" y="-81.5" font-family="Helvetica,sans-Serif" font-size="10.00">+</text>
<text text-anchor="start" x="18.5" y="-81.5" font-family="Helvetica,sans-Serif" font-size="10.00">states</text>
<text text-anchor="start" x="5" y="-66.5" font-family="Helvetica,sans-Serif" font-size="10.00">+</text>
<text text-anchor="start" x="18.5" y="-66.5" font-family="Helvetica,sans-Serif" font-size="10.00">create()</text>
<text text-anchor="start" x="5" y="-51.5" font-family="Helvetica,sans-Serif" font-size="10.00">+</text>
<text text-anchor="start" x="18.5" y="-51.5" font-family="Helvetica,sans-Serif" font-size="10.00">get()</text>
<text text-anchor="start" x="5" y="-36.5" font-family="Helvetica,sans-Serif" font-size="10.00">+</text>
<text text-anchor="start" x="18.5" y="-36.5" font-family="Helvetica,sans-Serif" font-size="10.00">dump()</text>
<polygon fill="#666666" stroke="#666666" points="0.5,-91.5 0.5,-91.5 63.5,-91.5 63.5,-91.5 0.5,-91.5"/>
<polygon fill="#666666" stroke="#666666" points="0.5,-76.5 0.5,-76.5 16.5,-76.5 16.5,-76.5 0.5,-76.5"/>
<polygon fill="#666666" stroke="#666666" points="16.5,-76.5 16.5,-76.5 63.5,-76.5 63.5,-76.5 16.5,-76.5"/>
<polygon fill="none" stroke="#666666" points="0,-30 0,-109 63,-109 63,-30 0,-30"/>
</a>
</g>
</g>
<!-- Node1&#45;&gt;Node2 -->
<g id="edge1_Node000001_Node000002" class="edge">
<title>Node1&#45;&gt;Node2</title>
<g id="a_edge1_Node000001_Node000002"><a xlink:title=" ">
<path fill="none" stroke="#63b8ff" d="M348.96,-198.79C257.76,-189.21 115.22,-169.81 71.5,-139 60.92,-131.54 52.71,-120.33 46.57,-109.12"/>
<polygon fill="none" stroke="#63b8ff" points="348.68,-202.28 358.99,-199.83 349.4,-195.32 348.68,-202.28"/>
</a>
</g>
</g>
<!-- Node3 -->
<g id="Node000003" class="node">
<title>Node3</title>
<g id="a_Node000003"><a xlink:href="classControllerManager.html" target="_top" xlink:title=" ">
<polygon fill="white" stroke="transparent" points="182,-116.5 81,-116.5 81,-22.5 182,-22.5 182,-116.5"/>
<text text-anchor="start" x="86.5" y="-104.5" font-family="Helvetica,sans-Serif" font-size="10.00">ControllerManager</text>
<text text-anchor="start" x="87" y="-89.5" font-family="Helvetica,sans-Serif" font-size="10.00">+</text>
<text text-anchor="start" x="101.5" y="-89.5" font-family="Helvetica,sans-Serif" font-size="10.00">controllers</text>
<text text-anchor="start" x="87" y="-74.5" font-family="Helvetica,sans-Serif" font-size="10.00">+</text>
<text text-anchor="start" x="101.5" y="-74.5" font-family="Helvetica,sans-Serif" font-size="10.00">create()</text>
<text text-anchor="start" x="87" y="-59.5" font-family="Helvetica,sans-Serif" font-size="10.00">+</text>
<text text-anchor="start" x="101.5" y="-59.5" font-family="Helvetica,sans-Serif" font-size="10.00">get()</text>
<text text-anchor="start" x="87" y="-44.5" font-family="Helvetica,sans-Serif" font-size="10.00">+</text>
<text text-anchor="start" x="101.5" y="-44.5" font-family="Helvetica,sans-Serif" font-size="10.00">handleEvents()</text>
<text text-anchor="start" x="87" y="-29.5" font-family="Helvetica,sans-Serif" font-size="10.00">+</text>
<text text-anchor="start" x="101.5" y="-29.5" font-family="Helvetica,sans-Serif" font-size="10.00">dump()</text>
<polygon fill="#666666" stroke="#666666" points="81.5,-99.5 81.5,-99.5 182.5,-99.5 182.5,-99.5 81.5,-99.5"/>
<polygon fill="#666666" stroke="#666666" points="81.5,-84.5 81.5,-84.5 99.5,-84.5 99.5,-84.5 81.5,-84.5"/>
<polygon fill="#666666" stroke="#666666" points="99.5,-84.5 99.5,-84.5 182.5,-84.5 182.5,-84.5 99.5,-84.5"/>
<polygon fill="none" stroke="#666666" points="81,-22.5 81,-116.5 182,-116.5 182,-22.5 81,-22.5"/>
</a>
</g>
</g>
<!-- Node1&#45;&gt;Node3 -->
<g id="edge2_Node000001_Node000003" class="edge">
<title>Node1&#45;&gt;Node3</title>
<g id="a_edge2_Node000001_Node000003"><a xlink:title=" ">
<path fill="none" stroke="#63b8ff" d="M348.88,-195.52C300.21,-186.34 238.35,-169.47 190.5,-139 181.1,-133.01 172.38,-125.08 164.68,-116.74"/>
<polygon fill="none" stroke="#63b8ff" points="348.27,-198.97 358.74,-197.32 349.52,-192.08 348.27,-198.97"/>
</a>
</g>
</g>
<!-- Node4 -->
<g id="Node000004" class="node">
<title>Node4</title>
<g id="a_Node000004"><a xlink:href="classDescriptionComponentManager.html" target="_top" xlink:title=" ">
<polygon fill="white" stroke="transparent" points="365,-116.5 200,-116.5 200,-22.5 365,-22.5 365,-116.5"/>
<text text-anchor="start" x="205.5" y="-104.5" font-family="Helvetica,sans-Serif" font-size="10.00">DescriptionComponentManager</text>
<text text-anchor="start" x="225.5" y="-89.5" font-family="Helvetica,sans-Serif" font-size="10.00">+</text>
<text text-anchor="start" x="259.5" y="-89.5" font-family="Helvetica,sans-Serif" font-size="10.00">descriptions</text>
<text text-anchor="start" x="225.5" y="-74.5" font-family="Helvetica,sans-Serif" font-size="10.00">+</text>
<text text-anchor="start" x="259.5" y="-74.5" font-family="Helvetica,sans-Serif" font-size="10.00">create()</text>
<text text-anchor="start" x="225.5" y="-59.5" font-family="Helvetica,sans-Serif" font-size="10.00">+</text>
<text text-anchor="start" x="259.5" y="-59.5" font-family="Helvetica,sans-Serif" font-size="10.00">get()</text>
<text text-anchor="start" x="225.5" y="-44.5" font-family="Helvetica,sans-Serif" font-size="10.00">+</text>
<text text-anchor="start" x="259.5" y="-44.5" font-family="Helvetica,sans-Serif" font-size="10.00">dump()</text>
<text text-anchor="start" x="225.5" y="-29.5" font-family="Helvetica,sans-Serif" font-size="10.00">+</text>
<text text-anchor="start" x="259.5" y="-29.5" font-family="Helvetica,sans-Serif" font-size="10.00">update()</text>
<polygon fill="#666666" stroke="#666666" points="200.5,-99.5 200.5,-99.5 365.5,-99.5 365.5,-99.5 200.5,-99.5"/>
<polygon fill="#666666" stroke="#666666" points="200.5,-84.5 200.5,-84.5 257.5,-84.5 257.5,-84.5 200.5,-84.5"/>
<polygon fill="#666666" stroke="#666666" points="257.5,-84.5 257.5,-84.5 365.5,-84.5 365.5,-84.5 257.5,-84.5"/>
<polygon fill="none" stroke="#666666" points="200,-22.5 200,-116.5 365,-116.5 365,-22.5 200,-22.5"/>
</a>
</g>
</g>
<!-- Node1&#45;&gt;Node4 -->
<g id="edge3_Node000001_Node000004" class="edge">
<title>Node1&#45;&gt;Node4</title>
<g id="a_edge3_Node000001_Node000004"><a xlink:title=" ">
<path fill="none" stroke="#63b8ff" d="M387.35,-167.81C370.2,-151.9 350.14,-133.28 332.19,-116.61"/>
<polygon fill="none" stroke="#63b8ff" points="385.29,-170.68 395,-174.91 390.06,-165.55 385.29,-170.68"/>
</a>
</g>
</g>
<!-- Node5 -->
<g id="Node000005" class="node">
<title>Node5</title>
<g id="a_Node000005"><a xlink:href="classInfoBoxManager.html" target="_top" xlink:title=" ">
<polygon fill="white" stroke="transparent" points="474,-116.5 383,-116.5 383,-22.5 474,-22.5 474,-116.5"/>
<text text-anchor="start" x="388.5" y="-104.5" font-family="Helvetica,sans-Serif" font-size="10.00">InfoBoxManager</text>
<text text-anchor="start" x="392" y="-89.5" font-family="Helvetica,sans-Serif" font-size="10.00">+</text>
<text text-anchor="start" x="409.5" y="-89.5" font-family="Helvetica,sans-Serif" font-size="10.00">infoBoxes</text>
<text text-anchor="start" x="392" y="-74.5" font-family="Helvetica,sans-Serif" font-size="10.00">+</text>
<text text-anchor="start" x="409.5" y="-74.5" font-family="Helvetica,sans-Serif" font-size="10.00">create()</text>
<text text-anchor="start" x="392" y="-59.5" font-family="Helvetica,sans-Serif" font-size="10.00">+</text>
<text text-anchor="start" x="409.5" y="-59.5" font-family="Helvetica,sans-Serif" font-size="10.00">get()</text>
<text text-anchor="start" x="392" y="-44.5" font-family="Helvetica,sans-Serif" font-size="10.00">+</text>
<text text-anchor="start" x="409.5" y="-44.5" font-family="Helvetica,sans-Serif" font-size="10.00">renderAll()</text>
<text text-anchor="start" x="392" y="-29.5" font-family="Helvetica,sans-Serif" font-size="10.00">+</text>
<text text-anchor="start" x="409.5" y="-29.5" font-family="Helvetica,sans-Serif" font-size="10.00">dump()</text>
<polygon fill="#666666" stroke="#666666" points="383.5,-99.5 383.5,-99.5 474.5,-99.5 474.5,-99.5 383.5,-99.5"/>
<polygon fill="#666666" stroke="#666666" points="383.5,-84.5 383.5,-84.5 407.5,-84.5 407.5,-84.5 383.5,-84.5"/>
<polygon fill="#666666" stroke="#666666" points="407.5,-84.5 407.5,-84.5 474.5,-84.5 474.5,-84.5 407.5,-84.5"/>
<polygon fill="none" stroke="#666666" points="383,-22.5 383,-116.5 474,-116.5 474,-22.5 383,-22.5"/>
</a>
</g>
</g>
<!-- Node1&#45;&gt;Node5 -->
<g id="edge4_Node000001_Node000005" class="edge">
<title>Node1&#45;&gt;Node5</title>
<g id="a_edge4_Node000001_Node000005"><a xlink:title=" ">
<path fill="none" stroke="#63b8ff" d="M428.5,-164.77C428.5,-149.56 428.5,-132.23 428.5,-116.61"/>
<polygon fill="none" stroke="#63b8ff" points="425,-164.91 428.5,-174.91 432,-164.91 425,-164.91"/>
</a>
</g>
</g>
<!-- Node6 -->
<g id="Node000006" class="node">
<title>Node6</title>
<g id="a_Node000006"><a xlink:href="classMovementManager.html" target="_top" xlink:title=" ">
<polygon fill="white" stroke="transparent" points="612.5,-139 492.5,-139 492.5,0 612.5,0 612.5,-139"/>
<text text-anchor="start" x="504.5" y="-126.5" font-family="Helvetica,sans-Serif" font-size="10.00">MovementManager</text>
<text text-anchor="start" x="496.5" y="-111.5" font-family="Helvetica,sans-Serif" font-size="10.00">+</text>
<text text-anchor="start" x="509.5" y="-111.5" font-family="Helvetica,sans-Serif" font-size="10.00">movements</text>
<text text-anchor="start" x="496.5" y="-96.5" font-family="Helvetica,sans-Serif" font-size="10.00">+</text>
<text text-anchor="start" x="509.5" y="-96.5" font-family="Helvetica,sans-Serif" font-size="10.00">create()</text>
<text text-anchor="start" x="496.5" y="-81.5" font-family="Helvetica,sans-Serif" font-size="10.00">+</text>
<text text-anchor="start" x="509.5" y="-81.5" font-family="Helvetica,sans-Serif" font-size="10.00">get()</text>
<text text-anchor="start" x="496.5" y="-66.5" font-family="Helvetica,sans-Serif" font-size="10.00">+</text>
<text text-anchor="start" x="509.5" y="-66.5" font-family="Helvetica,sans-Serif" font-size="10.00">update()</text>
<text text-anchor="start" x="496.5" y="-51.5" font-family="Helvetica,sans-Serif" font-size="10.00">+</text>
<text text-anchor="start" x="509.5" y="-51.5" font-family="Helvetica,sans-Serif" font-size="10.00">getEntitiesInPhase()</text>
<text text-anchor="start" x="496.5" y="-36.5" font-family="Helvetica,sans-Serif" font-size="10.00">+</text>
<text text-anchor="start" x="509.5" y="-36.5" font-family="Helvetica,sans-Serif" font-size="10.00">canEntityMove()</text>
<text text-anchor="start" x="496.5" y="-21.5" font-family="Helvetica,sans-Serif" font-size="10.00">+</text>
<text text-anchor="start" x="509.5" y="-21.5" font-family="Helvetica,sans-Serif" font-size="10.00">dump()</text>
<text text-anchor="start" x="499" y="-6.5" font-family="Helvetica,sans-Serif" font-size="10.00">&#45;</text>
<text text-anchor="start" x="509.5" y="-6.5" font-family="Helvetica,sans-Serif" font-size="10.00">updateMovement()</text>
<polygon fill="#666666" stroke="#666666" points="492.5,-121.5 492.5,-121.5 612.5,-121.5 612.5,-121.5 492.5,-121.5"/>
<polygon fill="#666666" stroke="#666666" points="492.5,-106.5 492.5,-106.5 507.5,-106.5 507.5,-106.5 492.5,-106.5"/>
<polygon fill="#666666" stroke="#666666" points="507.5,-106.5 507.5,-106.5 612.5,-106.5 612.5,-106.5 507.5,-106.5"/>
<polygon fill="none" stroke="#666666" points="492.5,0 492.5,-139 612.5,-139 612.5,0 492.5,0"/>
</a>
</g>
</g>
<!-- Node1&#45;&gt;Node6 -->
<g id="edge5_Node000001_Node000006" class="edge">
<title>Node1&#45;&gt;Node6</title>
<g id="a_edge5_Node000001_Node000006"><a xlink:title=" ">
<path fill="none" stroke="#63b8ff" d="M463.88,-167.34C472.78,-157.62 482.58,-146.9 492.33,-136.25"/>
<polygon fill="none" stroke="#63b8ff" points="461.12,-165.17 456.95,-174.91 466.28,-169.9 461.12,-165.17"/>
</a>
</g>
</g>
<!-- Node7 -->
<g id="Node000007" class="node">
<title>Node7</title>
<g id="a_Node000007"><a xlink:href="classPositionManager.html" target="_top" xlink:title=" ">
<polygon fill="white" stroke="transparent" points="722.5,-109 630.5,-109 630.5,-30 722.5,-30 722.5,-109"/>
<text text-anchor="start" x="635.5" y="-96.5" font-family="Helvetica,sans-Serif" font-size="10.00">PositionManager</text>
<text text-anchor="start" x="641" y="-81.5" font-family="Helvetica,sans-Serif" font-size="10.00">+</text>
<text text-anchor="start" x="660.5" y="-81.5" font-family="Helvetica,sans-Serif" font-size="10.00">positions</text>
<text text-anchor="start" x="641" y="-66.5" font-family="Helvetica,sans-Serif" font-size="10.00">+</text>
<text text-anchor="start" x="660.5" y="-66.5" font-family="Helvetica,sans-Serif" font-size="10.00">create()</text>
<text text-anchor="start" x="641" y="-51.5" font-family="Helvetica,sans-Serif" font-size="10.00">+</text>
<text text-anchor="start" x="660.5" y="-51.5" font-family="Helvetica,sans-Serif" font-size="10.00">get()</text>
<text text-anchor="start" x="641" y="-36.5" font-family="Helvetica,sans-Serif" font-size="10.00">+</text>
<text text-anchor="start" x="660.5" y="-36.5" font-family="Helvetica,sans-Serif" font-size="10.00">dump()</text>
<polygon fill="#666666" stroke="#666666" points="630.5,-91.5 630.5,-91.5 722.5,-91.5 722.5,-91.5 630.5,-91.5"/>
<polygon fill="#666666" stroke="#666666" points="630.5,-76.5 630.5,-76.5 658.5,-76.5 658.5,-76.5 630.5,-76.5"/>
<polygon fill="#666666" stroke="#666666" points="658.5,-76.5 658.5,-76.5 722.5,-76.5 722.5,-76.5 658.5,-76.5"/>
<polygon fill="none" stroke="#666666" points="630.5,-30 630.5,-109 722.5,-109 722.5,-30 630.5,-30"/>
</a>
</g>
</g>
<!-- Node1&#45;&gt;Node7 -->
<g id="edge6_Node000001_Node000007" class="edge">
<title>Node1&#45;&gt;Node7</title>
<g id="a_edge6_Node000001_Node000007"><a xlink:title=" ">
<path fill="none" stroke="#63b8ff" d="M507.81,-189.23C544.67,-178.85 587.71,-162.83 621.5,-139 632.84,-131 643.07,-120.03 651.54,-109.22"/>
<polygon fill="none" stroke="#63b8ff" points="506.82,-185.88 498.09,-191.88 508.66,-192.63 506.82,-185.88"/>
</a>
</g>
</g>
<!-- Node8 -->
<g id="Node000008" class="node">
<title>Node8</title>
<g id="a_Node000008"><a xlink:href="classRenderableManager.html" target="_top" xlink:title=" ">
<polygon fill="white" stroke="transparent" points="850,-116.5 741,-116.5 741,-22.5 850,-22.5 850,-116.5"/>
<text text-anchor="start" x="746.5" y="-104.5" font-family="Helvetica,sans-Serif" font-size="10.00">RenderableManager</text>
<text text-anchor="start" x="750.5" y="-89.5" font-family="Helvetica,sans-Serif" font-size="10.00">+</text>
<text text-anchor="start" x="768.5" y="-89.5" font-family="Helvetica,sans-Serif" font-size="10.00">renderables</text>
<text text-anchor="start" x="750.5" y="-74.5" font-family="Helvetica,sans-Serif" font-size="10.00">+</text>
<text text-anchor="start" x="768.5" y="-74.5" font-family="Helvetica,sans-Serif" font-size="10.00">createQuad()</text>
<text text-anchor="start" x="750.5" y="-59.5" font-family="Helvetica,sans-Serif" font-size="10.00">+</text>
<text text-anchor="start" x="768.5" y="-59.5" font-family="Helvetica,sans-Serif" font-size="10.00">createCircle()</text>
<text text-anchor="start" x="750.5" y="-44.5" font-family="Helvetica,sans-Serif" font-size="10.00">+</text>
<text text-anchor="start" x="768.5" y="-44.5" font-family="Helvetica,sans-Serif" font-size="10.00">renderAll()</text>
<text text-anchor="start" x="750.5" y="-29.5" font-family="Helvetica,sans-Serif" font-size="10.00">+</text>
<text text-anchor="start" x="768.5" y="-29.5" font-family="Helvetica,sans-Serif" font-size="10.00">dump()</text>
<polygon fill="#666666" stroke="#666666" points="741.5,-99.5 741.5,-99.5 850.5,-99.5 850.5,-99.5 741.5,-99.5"/>
<polygon fill="#666666" stroke="#666666" points="741.5,-84.5 741.5,-84.5 766.5,-84.5 766.5,-84.5 741.5,-84.5"/>
<polygon fill="#666666" stroke="#666666" points="766.5,-84.5 766.5,-84.5 850.5,-84.5 850.5,-84.5 766.5,-84.5"/>
<polygon fill="none" stroke="#666666" points="741,-22.5 741,-116.5 850,-116.5 850,-22.5 741,-22.5"/>
</a>
</g>
</g>
<!-- Node1&#45;&gt;Node8 -->
<g id="edge7_Node000001_Node000008" class="edge">
<title>Node1&#45;&gt;Node8</title>
<g id="a_edge7_Node000001_Node000008"><a xlink:title=" ">
<path fill="none" stroke="#63b8ff" d="M508.32,-201.33C572.28,-194.65 662.43,-178.41 731.5,-139 741.68,-133.19 751.19,-125.23 759.61,-116.79"/>
<polygon fill="none" stroke="#63b8ff" points="507.89,-197.86 498.28,-202.32 508.58,-204.82 507.89,-197.86"/>
</a>
</g>
</g>
</g>
</svg>

<g id="navigator" transform="translate(0 0)" fill="#404254">
  <rect fill="#f2f5e9" fill-opacity="0.5" stroke="#606060" stroke-width=".5" x="0" y="0" width="60" height="60"/>
  <use id="zoomplus" xlink:href="#zoomPlus" x="17" y="9" onmousedown="handleZoom(evt,'in')"/>
  <use id="zoomminus" xlink:href="#zoomMin" x="42" y="9" onmousedown="handleZoom(evt,'out')"/>
  <use id="reset" xlink:href="#resetDef" x="30" y="36" onmousedown="handleReset()"/>
   <use id="arrowup" xlink:href="#arrowUp" x="0" y="0" onmousedown="handlePan(0,-1)"/>
  <use id="arrowright" xlink:href="#arrowRight" x="0" y="0" onmousedown="handlePan(1,0)"/>
  <use id="arrowdown" xlink:href="#arrowDown" x="0" y="0" onmousedown="handlePan(0,1)"/>
  <use id="arrowleft" xlink:href="#arrowLeft" x="0" y="0" onmousedown="handlePan(-1,0)"/>
</g>
<svg viewBox="0 0 15 15" width="100%" height="30px" preserveAspectRatio="xMaxYMin meet">
 <g id="arrow_out" transform="scale(0.3 0.3)">
  <a xlink:href="classIComponentManager__inherit__graph_org.svg" target="_base">
   <rect id="button" ry="5" rx="5" y="6" x="6" height="38" width="38"
        fill="#f2f5e9" fill-opacity="0.5" stroke="#606060" stroke-width="1.0"/>
   <path id="arrow"
     d="M 11.500037,31.436501 C 11.940474,20.09759 22.043105,11.32322 32.158766,21.979434 L 37.068811,17.246167 C 37.068811,17.246167 37.088388,32 37.088388,32 L 22.160133,31.978069 C 22.160133,31.978069 26.997745,27.140456 26.997745,27.140456 C 18.528582,18.264221 13.291696,25.230495 11.500037,31.436501 z"
     style="fill:#404040;"/>
  </a>
 </g>
</svg>

<style type='text/css'>
<![CDATA[
[data-mouse-over-selected='false'] { opacity: 0.7; }
[data-mouse-over-selected='true']  { opacity: 1.0; }
]]>
</style>
<script type="application/ecmascript"><![CDATA[
document.addEventListener('DOMContentLoaded', (event) => {
  highlightEdges();
  highlightAdjacentNodes();
});
]]></script>
</svg>
