<?xml version="1.0" encoding="UTF-8" standalone="no"?>
<!DOCTYPE svg PUBLIC "-//W3C//DTD SVG 1.1//EN"
 "http://www.w3.org/Graphics/SVG/1.1/DTD/svg11.dtd">
<!-- Generated by graphviz version 2.43.0 (0)
 -->
<!-- Title: Pathfinder::findPath Pages: 1 -->
<svg width="436pt" height="177pt"
 viewBox="0.00 0.00 436.00 177.00" xmlns="http://www.w3.org/2000/svg" xmlns:xlink="http://www.w3.org/1999/xlink">

<svg id="main" version="1.1" xmlns="http://www.w3.org/2000/svg" xmlns:xlink="http://www.w3.org/1999/xlink" xml:space="preserve" onload="init(evt)">
<style type="text/css"><![CDATA[
.node, .edge {opacity: 0.7;}
.node.selected, .edge.selected {opacity: 1;}
.edge:hover path { stroke: red; }
.edge:hover polygon { stroke: red; fill: red; }
]]></style>
<script type="application/ecmascript" xlink:href="svg.min.js"/>
<svg id="graph" class="graph">
<g id="graph0" class="graph" transform="scale(1 1) rotate(0) translate(4 173)">
<title>Pathfinder::findPath</title>
<!-- Node1 -->
<g id="Node000001" class="node">
<title>Node1</title>
<g id="a_Node000001"><a xlink:title="Finds the shortest path from a start point to an end point using A*.">
<polygon fill="#999999" stroke="#666666" points="110,-95 0,-95 0,-76 110,-76 110,-95"/>
<text text-anchor="middle" x="55" y="-83" font-family="Helvetica,sans-Serif" font-size="10.00">Pathfinder::findPath</text>
</a>
</g>
</g>
<!-- Node2 -->
<g id="Node000002" class="node">
<title>Node2</title>
<g id="a_Node000002"><a xlink:href="classGrid.html#ae448ea0d444c23fe89743430b040537c" target="_top" xlink:title=" ">
<polygon fill="white" stroke="#666666" points="252,-169 199,-169 199,-150 252,-150 252,-169"/>
<text text-anchor="middle" x="225.5" y="-157" font-family="Helvetica,sans-Serif" font-size="10.00">Grid::at</text>
</a>
</g>
</g>
<!-- Node1&#45;&gt;Node2 -->
<g id="edge1_Node000001_Node000002" class="edge">
<title>Node1&#45;&gt;Node2</title>
<g id="a_edge1_Node000001_Node000002"><a xlink:title=" ">
<path fill="none" stroke="#63b8ff" d="M68.39,-95.08C85.1,-107.56 116.23,-129.23 146,-141.5 159.49,-147.06 175.04,-151.08 188.71,-153.89"/>
<polygon fill="#63b8ff" stroke="#63b8ff" points="188.26,-157.37 198.74,-155.81 189.58,-150.49 188.26,-157.37"/>
</a>
</g>
</g>
<!-- Node3 -->
<g id="Node000003" class="node">
<title>Node3</title>
<g id="a_Node000003"><a xlink:href="classPathfinder.html#a939ad9b8cf09ffff15a27a833d1b5abd" target="_top" xlink:title=" ">
<polygon fill="white" stroke="#666666" points="305,-132 146,-132 146,-113 305,-113 305,-132"/>
<text text-anchor="middle" x="225.5" y="-120" font-family="Helvetica,sans-Serif" font-size="10.00">Pathfinder::calculateHeuristic</text>
</a>
</g>
</g>
<!-- Node1&#45;&gt;Node3 -->
<g id="edge2_Node000001_Node000003" class="edge">
<title>Node1&#45;&gt;Node3</title>
<g id="a_edge2_Node000001_Node000003"><a xlink:title=" ">
<path fill="none" stroke="#63b8ff" d="M99.39,-95.03C121.22,-99.82 147.88,-105.68 170.97,-110.75"/>
<polygon fill="#63b8ff" stroke="#63b8ff" points="170.44,-114.21 180.96,-112.94 171.94,-107.38 170.44,-114.21"/>
</a>
</g>
</g>
<!-- Node4 -->
<g id="Node000004" class="node">
<title>Node4</title>
<g id="a_Node000004"><a xlink:href="classGrid.html#aca5987c146fcd4226cc5dfdf927f17b1" target="_top" xlink:title=" ">
<polygon fill="white" stroke="#666666" points="271,-95 180,-95 180,-76 271,-76 271,-95"/>
<text text-anchor="middle" x="225.5" y="-83" font-family="Helvetica,sans-Serif" font-size="10.00">Grid::getHeight</text>
</a>
</g>
</g>
<!-- Node1&#45;&gt;Node4 -->
<g id="edge3_Node000001_Node000004" class="edge">
<title>Node1&#45;&gt;Node4</title>
<g id="a_edge3_Node000001_Node000004"><a xlink:title=" ">
<path fill="none" stroke="#63b8ff" d="M110.24,-85.5C129.32,-85.5 150.77,-85.5 169.88,-85.5"/>
<polygon fill="#63b8ff" stroke="#63b8ff" points="169.94,-89 179.94,-85.5 169.94,-82 169.94,-89"/>
</a>
</g>
</g>
<!-- Node5 -->
<g id="Node000005" class="node">
<title>Node5</title>
<g id="a_Node000005"><a xlink:href="classGrid.html#a1e87189ca4bcb28b72b5e1bb78a532b5" target="_top" xlink:title=" ">
<polygon fill="white" stroke="#666666" points="428,-38 341,-38 341,-19 428,-19 428,-38"/>
<text text-anchor="middle" x="384.5" y="-26" font-family="Helvetica,sans-Serif" font-size="10.00">Grid::getWidth</text>
</a>
</g>
</g>
<!-- Node1&#45;&gt;Node5 -->
<g id="edge4_Node000001_Node000005" class="edge">
<title>Node1&#45;&gt;Node5</title>
<g id="a_edge4_Node000001_Node000005"><a xlink:title=" ">
<path fill="none" stroke="#63b8ff" d="M102.19,-75.94C116.24,-73.12 131.73,-70.1 146,-67.5 209.52,-55.94 282.88,-44.12 331.06,-36.58"/>
<polygon fill="#63b8ff" stroke="#63b8ff" points="331.61,-40.03 340.95,-35.03 330.53,-33.12 331.61,-40.03"/>
</a>
</g>
</g>
<!-- Node6 -->
<g id="Node000006" class="node">
<title>Node6</title>
<g id="a_Node000006"><a xlink:href="classPathfinder.html#a611239025810ac996c2c009e953e6819" target="_top" xlink:title=" ">
<polygon fill="white" stroke="#666666" points="299,-19 152,-19 152,0 299,0 299,-19"/>
<text text-anchor="middle" x="225.5" y="-7" font-family="Helvetica,sans-Serif" font-size="10.00">Pathfinder::reconstructPath</text>
</a>
</g>
</g>
<!-- Node1&#45;&gt;Node6 -->
<g id="edge5_Node000001_Node000006" class="edge">
<title>Node1&#45;&gt;Node6</title>
<g id="a_edge5_Node000001_Node000006"><a xlink:title=" ">
<path fill="none" stroke="#63b8ff" d="M70.12,-75.98C87.41,-64.65 117.87,-45.74 146,-33.5 155.9,-29.19 166.82,-25.33 177.29,-22.03"/>
<polygon fill="#63b8ff" stroke="#63b8ff" points="178.58,-25.3 187.13,-19.04 176.55,-18.6 178.58,-25.3"/>
</a>
</g>
</g>
<!-- Node6&#45;&gt;Node5 -->
<g id="edge6_Node000006_Node000005" class="edge">
<title>Node6&#45;&gt;Node5</title>
<g id="a_edge6_Node000006_Node000005"><a xlink:title=" ">
<path fill="none" stroke="#63b8ff" d="M299.03,-18.28C309.75,-19.58 320.63,-20.89 330.85,-22.13"/>
<polygon fill="#63b8ff" stroke="#63b8ff" points="330.47,-25.61 340.81,-23.33 331.31,-18.66 330.47,-25.61"/>
</a>
</g>
</g>
</g>
</svg>
</svg>

<style type='text/css'>
<![CDATA[
[data-mouse-over-selected='false'] { opacity: 0.7; }
[data-mouse-over-selected='true']  { opacity: 1.0; }
]]>
</style>
<script type="application/ecmascript"><![CDATA[
document.addEventListener('DOMContentLoaded', (event) => {
  highlightEdges();
  highlightAdjacentNodes();
});
]]></script>
</svg>
