<?xml version="1.0" encoding="UTF-8" standalone="no"?>
<!DOCTYPE svg PUBLIC "-//W3C//DTD SVG 1.1//EN"
 "http://www.w3.org/Graphics/SVG/1.1/DTD/svg11.dtd">
<!-- Generated by graphviz version 2.43.0 (0)
 -->
<!-- Title: ControllerManager Pages: 1 -->
<svg width="147pt" height="202pt"
 viewBox="0.00 0.00 147.00 202.00" xmlns="http://www.w3.org/2000/svg" xmlns:xlink="http://www.w3.org/1999/xlink">
<g id="graph0" class="graph" transform="scale(1 1) rotate(0) translate(4 198)">
<title>ControllerManager</title>
<!-- Node1 -->
<g id="Node000001" class="node">
<title>Node1</title>
<g id="a_Node000001"><a xlink:title=" ">
<polygon fill="#999999" stroke="transparent" points="120,-94 19,-94 19,0 120,0 120,-94"/>
<text text-anchor="start" x="24.5" y="-82" font-family="Helvetica,sans-Serif" font-size="10.00">ControllerManager</text>
<text text-anchor="start" x="25" y="-67" font-family="Helvetica,sans-Serif" font-size="10.00">+</text>
<text text-anchor="start" x="39.5" y="-67" font-family="Helvetica,sans-Serif" font-size="10.00">controllers</text>
<text text-anchor="start" x="25" y="-52" font-family="Helvetica,sans-Serif" font-size="10.00">+</text>
<text text-anchor="start" x="39.5" y="-52" font-family="Helvetica,sans-Serif" font-size="10.00">create()</text>
<text text-anchor="start" x="25" y="-37" font-family="Helvetica,sans-Serif" font-size="10.00">+</text>
<text text-anchor="start" x="39.5" y="-37" font-family="Helvetica,sans-Serif" font-size="10.00">get()</text>
<text text-anchor="start" x="25" y="-22" font-family="Helvetica,sans-Serif" font-size="10.00">+</text>
<text text-anchor="start" x="39.5" y="-22" font-family="Helvetica,sans-Serif" font-size="10.00">handleEvents()</text>
<text text-anchor="start" x="25" y="-7" font-family="Helvetica,sans-Serif" font-size="10.00">+</text>
<text text-anchor="start" x="39.5" y="-7" font-family="Helvetica,sans-Serif" font-size="10.00">dump()</text>
<polygon fill="#666666" stroke="#666666" points="19.5,-77 19.5,-77 120.5,-77 120.5,-77 19.5,-77"/>
<polygon fill="#666666" stroke="#666666" points="19.5,-62 19.5,-62 37.5,-62 37.5,-62 19.5,-62"/>
<polygon fill="#666666" stroke="#666666" points="37.5,-62 37.5,-62 120.5,-62 120.5,-62 37.5,-62"/>
<polygon fill="none" stroke="#666666" points="19,0 19,-94 120,-94 120,0 19,0"/>
</a>
</g>
</g>
<!-- Node2 -->
<g id="Node000002" class="node">
<title>Node2</title>
<g id="a_Node000002"><a xlink:href="classIComponentManager.html" target="_top" xlink:title="An interface for managing a specific type of component in an ECS architecture.">
<polygon fill="white" stroke="transparent" points="139,-194 0,-194 0,-130 139,-130 139,-194"/>
<text text-anchor="start" x="18.5" y="-182" font-family="Helvetica,sans-Serif" font-size="10.00">IComponentManager</text>
<text text-anchor="start" x="68" y="-167" font-family="Helvetica,sans-Serif" font-size="10.00"> </text>
<text text-anchor="start" x="4.5" y="-152" font-family="Helvetica,sans-Serif" font-size="10.00">+</text>
<text text-anchor="start" x="17.5" y="-152" font-family="Helvetica,sans-Serif" font-size="10.00">~IComponentManager()</text>
<text text-anchor="start" x="4.5" y="-137" font-family="Helvetica,sans-Serif" font-size="10.00">+</text>
<text text-anchor="start" x="17.5" y="-137" font-family="Helvetica,sans-Serif" font-size="10.00">dump()</text>
<polygon fill="#666666" stroke="#666666" points="0.5,-177 0.5,-177 139.5,-177 139.5,-177 0.5,-177"/>
<polygon fill="#666666" stroke="#666666" points="0.5,-162 0.5,-162 139.5,-162 139.5,-162 0.5,-162"/>
<polygon fill="none" stroke="#666666" points="0,-130 0,-194 139,-194 139,-130 0,-130"/>
</a>
</g>
</g>
<!-- Node2&#45;&gt;Node1 -->
<g id="edge1_Node000001_Node000002" class="edge">
<title>Node2&#45;&gt;Node1</title>
<g id="a_edge1_Node000001_Node000002"><a xlink:title=" ">
<path fill="none" stroke="#63b8ff" d="M69.5,-119.68C69.5,-111.43 69.5,-102.72 69.5,-94.31"/>
<polygon fill="none" stroke="#63b8ff" points="66,-119.82 69.5,-129.82 73,-119.82 66,-119.82"/>
</a>
</g>
</g>
</g>
</svg>
