<?xml version="1.0" encoding="UTF-8" standalone="no"?>
<!DOCTYPE svg PUBLIC "-//W3C//DTD SVG 1.1//EN"
 "http://www.w3.org/Graphics/SVG/1.1/DTD/svg11.dtd">
<!-- Generated by graphviz version 2.43.0 (0)
 -->
<!-- Title: Grid::getHeight Pages: 1 -->
<!--zoomable 253 -->

<svg id="main" version="1.1" xmlns="http://www.w3.org/2000/svg" xmlns:xlink="http://www.w3.org/1999/xlink" xml:space="preserve" onload="init(evt)">
<style type="text/css"><![CDATA[
.node, .edge {opacity: 0.7;}
.node.selected, .edge.selected {opacity: 1;}
.edge:hover path { stroke: red; }
.edge:hover polygon { stroke: red; fill: red; }
]]></style>

<defs>
  <circle id="rim" cx="0" cy="0" r="7"/>
  <circle id="rim2" cx="0" cy="0" r="3.5"/>
  <g id="zoomPlus">
    <use xlink:href="#rim" fill="#404040"><set attributeName="fill" to="#808080" begin="zoomplus.mouseover" end="zoomplus.mouseout"/></use>
    <path d="M-4,0h8M0,-4v8" fill="none" stroke="white" stroke-width="1.5" pointer-events="none"/>
  </g>
  <g id="zoomMin">
    <use xlink:href="#rim" fill="#404040"><set attributeName="fill" to="#808080" begin="zoomminus.mouseover" end="zoomminus.mouseout"/></use>
    <path d="M-4,0h8" fill="none" stroke="white" stroke-width="1.5" pointer-events="none"/>
  </g>
  <g id="arrowUp" transform="translate(30 24)">
    <use xlink:href="#rim"/>
    <path pointer-events="none" fill="none" stroke="white" stroke-width="1.5" d="M0,-3.0v7 M-2.5,-0.5L0,-3.0L2.5,-0.5"/>
  </g>
  <g id="arrowRight" transform="rotate(90) translate(36 -43)">
    <use xlink:href="#rim"/>
    <path pointer-events="none" fill="none" stroke="white" stroke-width="1.5" d="M0,-3.0v7 M-2.5,-0.5L0,-3.0L2.5,-0.5"/>
  </g>
  <g id="arrowDown" transform="rotate(180) translate(-30 -48)">
    <use xlink:href="#rim"/>
    <path pointer-events="none" fill="none" stroke="white" stroke-width="1.5" d="M0,-3.0v7 M-2.5,-0.5L0,-3.0L2.5,-0.5"/>
  </g>
  <g id="arrowLeft" transform="rotate(270) translate(-36 17)">
    <use xlink:href="#rim"/>
    <path pointer-events="none" fill="none" stroke="white" stroke-width="1.5" d="M0,-3.0v7 M-2.5,-0.5L0,-3.0L2.5,-0.5"/>
  </g>
  <g id="resetDef">
    <use xlink:href="#rim2" fill="#404040"><set attributeName="fill" to="#808080" begin="reset.mouseover" end="reset.mouseout"/></use>
  </g>
</defs>
<script type="application/ecmascript">
var viewWidth = 992;
var viewHeight = 253;
var sectionId = 'dynsection-6';
</script>
<script type="application/ecmascript" xlink:href="svg.min.js"/>
<svg id="graph" class="graph">
<g id="viewport">
<title>Grid::getHeight</title>
<!-- Node1 -->
<g id="Node000001" class="node">
<title>Node1</title>
<g id="a_Node000001"><a xlink:title=" ">
<polygon fill="#999999" stroke="#666666" points="984,-110.5 893,-110.5 893,-91.5 984,-91.5 984,-110.5"/>
<text text-anchor="middle" x="938.5" y="-98.5" font-family="Helvetica,sans-Serif" font-size="10.00">Grid::getHeight</text>
</a>
</g>
</g>
<!-- Node2 -->
<g id="Node000002" class="node">
<title>Node2</title>
<g id="a_Node000002"><a xlink:href="classPathfinder.html#aaa2739f2fbe69181ecc99c26c3e2c522" target="_top" xlink:title="Finds the shortest path from a start point to an end point using A*.">
<polygon fill="white" stroke="#666666" points="845,-191.5 735,-191.5 735,-172.5 845,-172.5 845,-191.5"/>
<text text-anchor="middle" x="790" y="-179.5" font-family="Helvetica,sans-Serif" font-size="10.00">Pathfinder::findPath</text>
</a>
</g>
</g>
<!-- Node1&#45;&gt;Node2 -->
<g id="edge1_Node000001_Node000002" class="edge">
<title>Node1&#45;&gt;Node2</title>
<g id="a_edge1_Node000001_Node000002"><a xlink:title=" ">
<path fill="none" stroke="#63b8ff" d="M918.21,-116.9C902.47,-129.3 879.27,-146.34 857,-158 846.2,-163.66 833.77,-168.56 822.62,-172.43"/>
<polygon fill="#63b8ff" stroke="#63b8ff" points="920.53,-119.53 926.14,-110.54 916.15,-114.07 920.53,-119.53"/>
</a>
</g>
</g>
<!-- Node9 -->
<g id="Node000009" class="node">
<title>Node9</title>
<g id="a_Node000009"><a xlink:href="classPlayerController.html#a2d86ce597777dc1026b2ba232110bee2" target="_top" xlink:title="Handles SDL keyboard events to move the player entity.">
<polygon fill="white" stroke="#666666" points="857,-30 723,-30 723,0 857,0 857,-30"/>
<text text-anchor="start" x="731" y="-18" font-family="Helvetica,sans-Serif" font-size="10.00">PlayerController::handle</text>
<text text-anchor="middle" x="790" y="-7" font-family="Helvetica,sans-Serif" font-size="10.00">Event</text>
</a>
</g>
</g>
<!-- Node1&#45;&gt;Node9 -->
<g id="edge10_Node000001_Node000009" class="edge">
<title>Node1&#45;&gt;Node9</title>
<g id="a_edge10_Node000001_Node000009"><a xlink:title=" ">
<path fill="none" stroke="#63b8ff" d="M919.51,-84.52C903.9,-70.89 880.22,-51.76 857,-39 851.02,-35.71 844.49,-32.71 837.95,-30.04"/>
<polygon fill="#63b8ff" stroke="#63b8ff" points="917.5,-87.42 927.3,-91.45 922.16,-82.19 917.5,-87.42"/>
</a>
</g>
</g>
<!-- Node10 -->
<g id="Node000010" class="node">
<title>Node10</title>
<g id="a_Node000010"><a xlink:href="classGrid.html#af3d66f362b026dda4300c110ad54fb45" target="_top" xlink:title=" ">
<polygon fill="white" stroke="#666666" points="469,-151.5 360,-151.5 360,-132.5 469,-132.5 469,-151.5"/>
<text text-anchor="middle" x="414.5" y="-139.5" font-family="Helvetica,sans-Serif" font-size="10.00">Grid::loadFromJson</text>
</a>
</g>
</g>
<!-- Node1&#45;&gt;Node10 -->
<g id="edge11_Node000001_Node000010" class="edge">
<title>Node1&#45;&gt;Node10</title>
<g id="a_edge11_Node000001_Node000010"><a xlink:title=" ">
<path fill="none" stroke="#63b8ff" d="M901.81,-113.74C887.99,-118.11 871.94,-122.53 857,-125 718.7,-147.9 552.87,-146.77 469.29,-144.25"/>
<polygon fill="#63b8ff" stroke="#63b8ff" points="903.01,-117.03 911.43,-110.59 900.83,-110.38 903.01,-117.03"/>
</a>
</g>
</g>
<!-- Node11 -->
<g id="Node000011" class="node">
<title>Node11</title>
<g id="a_Node000011"><a xlink:href="classTiledParser.html#a5e4e6b0628ae3c4b1495fcd5746cc652" target="_top" xlink:title=" ">
<polygon fill="white" stroke="#666666" points="856,-116 724,-116 724,-86 856,-86 856,-116"/>
<text text-anchor="start" x="732" y="-104" font-family="Helvetica,sans-Serif" font-size="10.00">TiledParser::processTile</text>
<text text-anchor="middle" x="790" y="-93" font-family="Helvetica,sans-Serif" font-size="10.00">Layer</text>
</a>
</g>
</g>
<!-- Node1&#45;&gt;Node11 -->
<g id="edge13_Node000001_Node000011" class="edge">
<title>Node1&#45;&gt;Node11</title>
<g id="a_edge13_Node000001_Node000011"><a xlink:title=" ">
<path fill="none" stroke="#63b8ff" d="M882.51,-101C873.94,-101 865.01,-101 856.24,-101"/>
<polygon fill="#63b8ff" stroke="#63b8ff" points="882.75,-104.5 892.75,-101 882.75,-97.5 882.75,-104.5"/>
</a>
</g>
</g>
<!-- Node14 -->
<g id="Node000014" class="node">
<title>Node14</title>
<g id="a_Node000014"><a xlink:href="namespaceGridRenderer.html#acb569c89b4d3ee96ec4473b1db16ee2e" target="_top" xlink:title=" ">
<polygon fill="white" stroke="#666666" points="849.5,-67.5 730.5,-67.5 730.5,-48.5 849.5,-48.5 849.5,-67.5"/>
<text text-anchor="middle" x="790" y="-55.5" font-family="Helvetica,sans-Serif" font-size="10.00">GridRenderer::render</text>
</a>
</g>
</g>
<!-- Node1&#45;&gt;Node14 -->
<g id="edge17_Node000001_Node000014" class="edge">
<title>Node1&#45;&gt;Node14</title>
<g id="a_edge17_Node000001_Node000014"><a xlink:title=" ">
<path fill="none" stroke="#63b8ff" d="M896.05,-88.56C883.51,-84.82 869.7,-80.72 857,-77 846.36,-73.88 834.74,-70.52 824.26,-67.51"/>
<polygon fill="#63b8ff" stroke="#63b8ff" points="895.2,-91.96 905.79,-91.47 897.21,-85.25 895.2,-91.96"/>
</a>
</g>
</g>
<!-- Node3 -->
<g id="Node000003" class="node">
<title>Node3</title>
<g id="a_Node000003"><a xlink:href="classPathfinder.html#a606e84e19623d97559d949a2e27e451c" target="_top" xlink:title="Finds the shortest path from a start point to the nearest valid cell of a named zone.">
<polygon fill="white" stroke="#666666" points="687,-191.5 541,-191.5 541,-172.5 687,-172.5 687,-191.5"/>
<text text-anchor="middle" x="614" y="-179.5" font-family="Helvetica,sans-Serif" font-size="10.00">Pathfinder::findPathToZone</text>
</a>
</g>
</g>
<!-- Node2&#45;&gt;Node3 -->
<g id="edge2_Node000002_Node000003" class="edge">
<title>Node2&#45;&gt;Node3</title>
<g id="a_edge2_Node000002_Node000003"><a xlink:title=" ">
<path fill="none" stroke="#63b8ff" d="M724.82,-182C712.6,-182 699.74,-182 687.3,-182"/>
<polygon fill="#63b8ff" stroke="#63b8ff" points="724.9,-185.5 734.9,-182 724.9,-178.5 724.9,-185.5"/>
</a>
</g>
</g>
<!-- Node4 -->
<g id="Node000004" class="node">
<title>Node4</title>
<g id="a_Node000004"><a xlink:href="classAISystem.html#ab7874e368d3dc14dc7838a8721e583e7" target="_top" xlink:title=" ">
<polygon fill="white" stroke="#666666" points="505,-191.5 324,-191.5 324,-172.5 505,-172.5 505,-191.5"/>
<text text-anchor="middle" x="414.5" y="-179.5" font-family="Helvetica,sans-Serif" font-size="10.00">AISystem::executeMovementPlan</text>
</a>
</g>
</g>
<!-- Node3&#45;&gt;Node4 -->
<g id="edge3_Node000003_Node000004" class="edge">
<title>Node3&#45;&gt;Node4</title>
<g id="a_edge3_Node000003_Node000004"><a xlink:title=" ">
<path fill="none" stroke="#63b8ff" d="M530.71,-182C522.31,-182 513.75,-182 505.27,-182"/>
<polygon fill="#63b8ff" stroke="#63b8ff" points="530.86,-185.5 540.86,-182 530.86,-178.5 530.86,-185.5"/>
</a>
</g>
</g>
<!-- Node5 -->
<g id="Node000005" class="node">
<title>Node5</title>
<g id="a_Node000005"><a xlink:href="classAISystem.html#a1d7894d2fba2b0f09b8929bbfd58ec4e" target="_top" xlink:title=" ">
<polygon fill="white" stroke="#666666" points="286,-245 141,-245 141,-215 286,-215 286,-245"/>
<text text-anchor="start" x="149" y="-233" font-family="Helvetica,sans-Serif" font-size="10.00">AISystem::processArriving</text>
<text text-anchor="middle" x="213.5" y="-222" font-family="Helvetica,sans-Serif" font-size="10.00">Entities</text>
</a>
</g>
</g>
<!-- Node4&#45;&gt;Node5 -->
<g id="edge4_Node000004_Node000005" class="edge">
<title>Node4&#45;&gt;Node5</title>
<g id="a_edge4_Node000004_Node000005"><a xlink:title=" ">
<path fill="none" stroke="#63b8ff" d="M363.95,-193.95C337.62,-200.3 304.99,-208.17 276.95,-214.94"/>
<polygon fill="#63b8ff" stroke="#63b8ff" points="364.81,-197.35 373.71,-191.6 363.17,-190.54 364.81,-197.35"/>
</a>
</g>
</g>
<!-- Node8 -->
<g id="Node000008" class="node">
<title>Node8</title>
<g id="a_Node000008"><a xlink:href="classAISystem.html#a6b84082c16eb0af5606049260db2d99f" target="_top" xlink:title=" ">
<polygon fill="white" stroke="#666666" points="288,-197 139,-197 139,-167 288,-167 288,-197"/>
<text text-anchor="start" x="147" y="-185" font-family="Helvetica,sans-Serif" font-size="10.00">AISystem::processPlanning</text>
<text text-anchor="middle" x="213.5" y="-174" font-family="Helvetica,sans-Serif" font-size="10.00">Entities</text>
</a>
</g>
</g>
<!-- Node4&#45;&gt;Node8 -->
<g id="edge7_Node000004_Node000008" class="edge">
<title>Node4&#45;&gt;Node8</title>
<g id="a_edge7_Node000004_Node000008"><a xlink:title=" ">
<path fill="none" stroke="#63b8ff" d="M313.77,-182C305.13,-182 296.49,-182 288.12,-182"/>
<polygon fill="#63b8ff" stroke="#63b8ff" points="313.9,-185.5 323.9,-182 313.9,-178.5 313.9,-185.5"/>
</a>
</g>
</g>
<!-- Node6 -->
<g id="Node000006" class="node">
<title>Node6</title>
<g id="a_Node000006"><a xlink:href="main_8cpp.html#a0ddf1224851353fc92bfbff6f499fa97" target="_top" xlink:title=" ">
<polygon fill="white" stroke="#666666" points="72,-148.5 31,-148.5 31,-129.5 72,-129.5 72,-148.5"/>
<text text-anchor="middle" x="51.5" y="-136.5" font-family="Helvetica,sans-Serif" font-size="10.00">main</text>
</a>
</g>
</g>
<!-- Node5&#45;&gt;Node6 -->
<g id="edge5_Node000005_Node000006" class="edge">
<title>Node5&#45;&gt;Node6</title>
<g id="a_edge5_Node000005_Node000006"><a xlink:title=" ">
<path fill="none" stroke="#63b8ff" d="M149.72,-211.15C146.04,-209.54 142.44,-207.82 139,-206 108.45,-189.81 77.62,-162.78 62.35,-148.5"/>
<polygon fill="#63b8ff" stroke="#63b8ff" points="148.42,-214.4 159,-214.94 151.07,-207.92 148.42,-214.4"/>
</a>
</g>
</g>
<!-- Node7 -->
<g id="Node000007" class="node">
<title>Node7</title>
<g id="a_Node000007"><a xlink:href="classAISystem.html#a4c1e02a04a3053c073e58ad44f4d0293" target="_top" xlink:title=" ">
<polygon fill="white" stroke="#666666" points="103,-215.5 0,-215.5 0,-196.5 103,-196.5 103,-215.5"/>
<text text-anchor="middle" x="51.5" y="-203.5" font-family="Helvetica,sans-Serif" font-size="10.00">AISystem::update</text>
</a>
</g>
</g>
<!-- Node5&#45;&gt;Node7 -->
<g id="edge6_Node000005_Node000007" class="edge">
<title>Node5&#45;&gt;Node7</title>
<g id="a_edge6_Node000005_Node000007"><a xlink:title=" ">
<path fill="none" stroke="#63b8ff" d="M130.81,-217.75C121.48,-216.35 112.18,-214.95 103.41,-213.64"/>
<polygon fill="#63b8ff" stroke="#63b8ff" points="130.52,-221.24 140.92,-219.26 131.55,-214.32 130.52,-221.24"/>
</a>
</g>
</g>
<!-- Node8&#45;&gt;Node6 -->
<g id="edge8_Node000008_Node000006" class="edge">
<title>Node8&#45;&gt;Node6</title>
<g id="a_edge8_Node000008_Node000006"><a xlink:title=" ">
<path fill="none" stroke="#63b8ff" d="M146.75,-164.33C119.85,-157.1 90.73,-149.27 72.08,-144.26"/>
<polygon fill="#63b8ff" stroke="#63b8ff" points="145.97,-167.75 156.54,-166.96 147.79,-160.99 145.97,-167.75"/>
</a>
</g>
</g>
<!-- Node8&#45;&gt;Node7 -->
<g id="edge9_Node000008_Node000007" class="edge">
<title>Node8&#45;&gt;Node7</title>
<g id="a_edge9_Node000008_Node000007"><a xlink:title=" ">
<path fill="none" stroke="#63b8ff" d="M128.48,-194.6C119.88,-195.89 111.33,-197.17 103.25,-198.39"/>
<polygon fill="#63b8ff" stroke="#63b8ff" points="129.22,-198.03 138.59,-193.09 128.18,-191.11 129.22,-198.03"/>
</a>
</g>
</g>
<!-- Node10&#45;&gt;Node6 -->
<g id="edge12_Node000010_Node000006" class="edge">
<title>Node10&#45;&gt;Node6</title>
<g id="a_edge12_Node000010_Node000006"><a xlink:title=" ">
<path fill="none" stroke="#63b8ff" d="M349.7,-141.47C266.14,-140.78 124.14,-139.6 72.25,-139.16"/>
<polygon fill="#63b8ff" stroke="#63b8ff" points="349.82,-144.97 359.84,-141.55 349.87,-137.97 349.82,-144.97"/>
</a>
</g>
</g>
<!-- Node12 -->
<g id="Node000012" class="node">
<title>Node12</title>
<g id="a_Node000012"><a xlink:href="classTiledParser.html#abb818e8ba61e5fea3471f40507826f62" target="_top" xlink:title="Load a Tiled JSON file and populate the given Grid.">
<polygon fill="white" stroke="#666666" points="685.5,-110.5 542.5,-110.5 542.5,-91.5 685.5,-91.5 685.5,-110.5"/>
<text text-anchor="middle" x="614" y="-98.5" font-family="Helvetica,sans-Serif" font-size="10.00">TiledParser::loadTiledMap</text>
</a>
</g>
</g>
<!-- Node11&#45;&gt;Node12 -->
<g id="edge14_Node000011_Node000012" class="edge">
<title>Node11&#45;&gt;Node12</title>
<g id="a_edge14_Node000011_Node000012"><a xlink:title=" ">
<path fill="none" stroke="#63b8ff" d="M713.69,-101C704.36,-101 694.86,-101 685.6,-101"/>
<polygon fill="#63b8ff" stroke="#63b8ff" points="713.71,-104.5 723.71,-101 713.71,-97.5 713.71,-104.5"/>
</a>
</g>
</g>
<!-- Node13 -->
<g id="Node000013" class="node">
<title>Node13</title>
<g id="a_Node000013"><a xlink:href="classGrid.html#ae7f84fbbbb1ff7597081f64be300196c" target="_top" xlink:title="Load grid from a Tiled Map Editor JSON file.">
<polygon fill="white" stroke="#666666" points="471,-110.5 358,-110.5 358,-91.5 471,-91.5 471,-110.5"/>
<text text-anchor="middle" x="414.5" y="-98.5" font-family="Helvetica,sans-Serif" font-size="10.00">Grid::loadFromTiled</text>
</a>
</g>
</g>
<!-- Node12&#45;&gt;Node13 -->
<g id="edge15_Node000012_Node000013" class="edge">
<title>Node12&#45;&gt;Node13</title>
<g id="a_edge15_Node000012_Node000013"><a xlink:title=" ">
<path fill="none" stroke="#63b8ff" d="M532,-101C511.57,-101 490.08,-101 471.2,-101"/>
<polygon fill="#63b8ff" stroke="#63b8ff" points="532.26,-104.5 542.26,-101 532.26,-97.5 532.26,-104.5"/>
</a>
</g>
</g>
<!-- Node13&#45;&gt;Node6 -->
<g id="edge16_Node000013_Node000006" class="edge">
<title>Node13&#45;&gt;Node6</title>
<g id="a_edge16_Node000013_Node000006"><a xlink:title=" ">
<path fill="none" stroke="#63b8ff" d="M347.69,-107.93C263.74,-116.76 123.29,-131.55 72,-136.95"/>
<polygon fill="#63b8ff" stroke="#63b8ff" points="348.31,-111.38 357.88,-106.85 347.57,-104.42 348.31,-111.38"/>
</a>
</g>
</g>
<!-- Node15 -->
<g id="Node000015" class="node">
<title>Node15</title>
<g id="a_Node000015"><a xlink:href="namespaceGridRenderer.html#ac325da891d9fa57d4a93243fef147c8b" target="_top" xlink:title=" ">
<polygon fill="white" stroke="#666666" points="284,-73 143,-73 143,-43 284,-43 284,-73"/>
<text text-anchor="start" x="151" y="-61" font-family="Helvetica,sans-Serif" font-size="10.00">GridRenderer::renderWith</text>
<text text-anchor="middle" x="213.5" y="-50" font-family="Helvetica,sans-Serif" font-size="10.00">Labels</text>
</a>
</g>
</g>
<!-- Node14&#45;&gt;Node15 -->
<g id="edge18_Node000014_Node000015" class="edge">
<title>Node14&#45;&gt;Node15</title>
<g id="a_edge18_Node000014_Node000015"><a xlink:title=" ">
<path fill="none" stroke="#63b8ff" d="M720.16,-58C609.98,-58 395.21,-58 284.38,-58"/>
<polygon fill="#63b8ff" stroke="#63b8ff" points="720.49,-61.5 730.49,-58 720.49,-54.5 720.49,-61.5"/>
</a>
</g>
</g>
<!-- Node15&#45;&gt;Node6 -->
<g id="edge19_Node000015_Node000006" class="edge">
<title>Node15&#45;&gt;Node6</title>
<g id="a_edge19_Node000015_Node000006"><a xlink:title=" ">
<path fill="none" stroke="#63b8ff" d="M161.28,-76.95C153.72,-80.1 146.09,-83.5 139,-87 112.6,-100.03 83.6,-118.35 66.78,-129.41"/>
<polygon fill="#63b8ff" stroke="#63b8ff" points="162.83,-80.09 170.77,-73.08 160.19,-73.61 162.83,-80.09"/>
</a>
</g>
</g>
</g>
</svg>

<g id="navigator" transform="translate(0 0)" fill="#404254">
  <rect fill="#f2f5e9" fill-opacity="0.5" stroke="#606060" stroke-width=".5" x="0" y="0" width="60" height="60"/>
  <use id="zoomplus" xlink:href="#zoomPlus" x="17" y="9" onmousedown="handleZoom(evt,'in')"/>
  <use id="zoomminus" xlink:href="#zoomMin" x="42" y="9" onmousedown="handleZoom(evt,'out')"/>
  <use id="reset" xlink:href="#resetDef" x="30" y="36" onmousedown="handleReset()"/>
   <use id="arrowup" xlink:href="#arrowUp" x="0" y="0" onmousedown="handlePan(0,-1)"/>
  <use id="arrowright" xlink:href="#arrowRight" x="0" y="0" onmousedown="handlePan(1,0)"/>
  <use id="arrowdown" xlink:href="#arrowDown" x="0" y="0" onmousedown="handlePan(0,1)"/>
  <use id="arrowleft" xlink:href="#arrowLeft" x="0" y="0" onmousedown="handlePan(-1,0)"/>
</g>
<svg viewBox="0 0 15 15" width="100%" height="30px" preserveAspectRatio="xMaxYMin meet">
 <g id="arrow_out" transform="scale(0.3 0.3)">
  <a xlink:href="classGrid_aca5987c146fcd4226cc5dfdf927f17b1_icgraph_org.svg" target="_base">
   <rect id="button" ry="5" rx="5" y="6" x="6" height="38" width="38"
        fill="#f2f5e9" fill-opacity="0.5" stroke="#606060" stroke-width="1.0"/>
   <path id="arrow"
     d="M 11.500037,31.436501 C 11.940474,20.09759 22.043105,11.32322 32.158766,21.979434 L 37.068811,17.246167 C 37.068811,17.246167 37.088388,32 37.088388,32 L 22.160133,31.978069 C 22.160133,31.978069 26.997745,27.140456 26.997745,27.140456 C 18.528582,18.264221 13.291696,25.230495 11.500037,31.436501 z"
     style="fill:#404040;"/>
  </a>
 </g>
</svg>

<style type='text/css'>
<![CDATA[
[data-mouse-over-selected='false'] { opacity: 0.7; }
[data-mouse-over-selected='true']  { opacity: 1.0; }
]]>
</style>
<script type="application/ecmascript"><![CDATA[
document.addEventListener('DOMContentLoaded', (event) => {
  highlightEdges();
  highlightAdjacentNodes();
});
]]></script>
</svg>
