<?xml version="1.0" encoding="UTF-8" standalone="no"?>
<!DOCTYPE svg PUBLIC "-//W3C//DTD SVG 1.1//EN"
 "http://www.w3.org/Graphics/SVG/1.1/DTD/svg11.dtd">
<!-- Generated by graphviz version 2.43.0 (0)
 -->
<!-- Title: MovementManager::update Pages: 1 -->
<svg width="556pt" height="27pt"
 viewBox="0.00 0.00 556.00 27.00" xmlns="http://www.w3.org/2000/svg" xmlns:xlink="http://www.w3.org/1999/xlink">
<g id="graph0" class="graph" transform="scale(1 1) rotate(0) translate(4 23)">
<title>MovementManager::update</title>
<!-- Node1 -->
<g id="Node000001" class="node">
<title>Node1</title>
<g id="a_Node000001"><a xlink:title=" ">
<polygon fill="#999999" stroke="#666666" points="152,-19 0,-19 0,0 152,0 152,-19"/>
<text text-anchor="middle" x="76" y="-7" font-family="Helvetica,sans-Serif" font-size="10.00">MovementManager::update</text>
</a>
</g>
</g>
<!-- Node2 -->
<g id="Node000002" class="node">
<title>Node2</title>
<g id="a_Node000002"><a xlink:href="classMovementManager.html#adb24d456292714c1171a96936b8d0097" target="_top" xlink:title=" ">
<polygon fill="white" stroke="#666666" points="392,-19 188,-19 188,0 392,0 392,-19"/>
<text text-anchor="middle" x="290" y="-7" font-family="Helvetica,sans-Serif" font-size="10.00">MovementManager::updateMovement</text>
</a>
</g>
</g>
<!-- Node1&#45;&gt;Node2 -->
<g id="edge1_Node000001_Node000002" class="edge">
<title>Node1&#45;&gt;Node2</title>
<g id="a_edge1_Node000001_Node000002"><a xlink:title=" ">
<path fill="none" stroke="#63b8ff" d="M152.04,-9.5C160.35,-9.5 168.93,-9.5 177.56,-9.5"/>
<polygon fill="#63b8ff" stroke="#63b8ff" points="177.7,-13 187.7,-9.5 177.7,-6 177.7,-13"/>
</a>
</g>
</g>
<!-- Node3 -->
<g id="Node000003" class="node">
<title>Node3</title>
<g id="a_Node000003"><a xlink:href="classPositionManager.html#ac2ce0980eefb0e2afd6e6fe08fb8c28d" target="_top" xlink:title=" ">
<polygon fill="white" stroke="#666666" points="548,-19 428,-19 428,0 548,0 548,-19"/>
<text text-anchor="middle" x="488" y="-7" font-family="Helvetica,sans-Serif" font-size="10.00">PositionManager::get</text>
</a>
</g>
</g>
<!-- Node2&#45;&gt;Node3 -->
<g id="edge2_Node000002_Node000003" class="edge">
<title>Node2&#45;&gt;Node3</title>
<g id="a_edge2_Node000002_Node000003"><a xlink:title=" ">
<path fill="none" stroke="#63b8ff" d="M392.16,-9.5C400.88,-9.5 409.56,-9.5 417.93,-9.5"/>
<polygon fill="#63b8ff" stroke="#63b8ff" points="417.98,-13 427.98,-9.5 417.98,-6 417.98,-13"/>
</a>
</g>
</g>
</g>
</svg>
