<?xml version="1.0" encoding="UTF-8" standalone="no"?>
<!DOCTYPE svg PUBLIC "-//W3C//DTD SVG 1.1//EN"
 "http://www.w3.org/Graphics/SVG/1.1/DTD/svg11.dtd">
<!-- Generated by graphviz version 2.43.0 (0)
 -->
<!-- Title: InfoBoxManager::get Pages: 1 -->
<svg width="631pt" height="126pt"
 viewBox="0.00 0.00 631.00 125.71" xmlns="http://www.w3.org/2000/svg" xmlns:xlink="http://www.w3.org/1999/xlink">
<g id="graph0" class="graph" transform="scale(1 1) rotate(0) translate(4 121.71)">
<title>InfoBoxManager::get</title>
<!-- Node1 -->
<g id="Node000001" class="node">
<title>Node1</title>
<g id="a_Node000001"><a xlink:title=" ">
<polygon fill="#999999" stroke="#666666" points="623,-81.5 504,-81.5 504,-62.5 623,-62.5 623,-81.5"/>
<text text-anchor="middle" x="563.5" y="-69.5" font-family="Helvetica,sans-Serif" font-size="10.00">InfoBoxManager::get</text>
</a>
</g>
</g>
<!-- Node2 -->
<g id="Node000002" class="node">
<title>Node2</title>
<g id="a_Node000002"><a xlink:href="classAISystem.html#a3e9a6b233a440655d47ce5041941d698" target="_top" xlink:title=" ">
<polygon fill="white" stroke="#666666" points="468,-100.5 324,-100.5 324,-81.5 468,-81.5 468,-100.5"/>
<text text-anchor="middle" x="396" y="-88.5" font-family="Helvetica,sans-Serif" font-size="10.00">AISystem::planNextAction</text>
</a>
</g>
</g>
<!-- Node1&#45;&gt;Node2 -->
<g id="edge1_Node000001_Node000002" class="edge">
<title>Node1&#45;&gt;Node2</title>
<g id="a_edge1_Node000001_Node000002"><a xlink:title=" ">
<path fill="none" stroke="#63b8ff" d="M493.55,-79.92C485.14,-80.88 476.53,-81.87 468.09,-82.84"/>
<polygon fill="#63b8ff" stroke="#63b8ff" points="494.15,-83.37 503.68,-78.75 493.35,-76.42 494.15,-83.37"/>
</a>
</g>
</g>
<!-- Node3 -->
<g id="Node000003" class="node">
<title>Node3</title>
<g id="a_Node000003"><a xlink:href="classAISystem.html#a6b84082c16eb0af5606049260db2d99f" target="_top" xlink:title=" ">
<polygon fill="white" stroke="#666666" points="288,-116 139,-116 139,-86 288,-86 288,-116"/>
<text text-anchor="start" x="147" y="-104" font-family="Helvetica,sans-Serif" font-size="10.00">AISystem::processPlanning</text>
<text text-anchor="middle" x="213.5" y="-93" font-family="Helvetica,sans-Serif" font-size="10.00">Entities</text>
</a>
</g>
</g>
<!-- Node1&#45;&gt;Node3 -->
<g id="edge11_Node000001_Node000003" class="edge">
<title>Node1&#45;&gt;Node3</title>
<g id="a_edge11_Node000001_Node000003"><a xlink:title=" ">
<path fill="none" stroke="#63b8ff" d="M535.68,-86C517.21,-94.82 491.8,-105.39 468,-110 408.23,-121.57 339.08,-118.02 288.12,-112.3"/>
<polygon fill="#63b8ff" stroke="#63b8ff" points="537.24,-89.13 544.67,-81.58 534.15,-82.85 537.24,-89.13"/>
</a>
</g>
</g>
<!-- Node6 -->
<g id="Node000006" class="node">
<title>Node6</title>
<g id="a_Node000006"><a xlink:href="classAISystem.html#a260e9a02dff6d097b45fa7c6e3ae733f" target="_top" xlink:title=" ">
<polygon fill="white" stroke="#666666" points="270,-67.5 157,-67.5 157,-48.5 270,-48.5 270,-67.5"/>
<text text-anchor="middle" x="213.5" y="-55.5" font-family="Helvetica,sans-Serif" font-size="10.00">AISystem::updateAI</text>
</a>
</g>
</g>
<!-- Node1&#45;&gt;Node6 -->
<g id="edge12_Node000001_Node000006" class="edge">
<title>Node1&#45;&gt;Node6</title>
<g id="a_edge12_Node000001_Node000006"><a xlink:title=" ">
<path fill="none" stroke="#63b8ff" d="M493.64,-69.23C428.17,-66.6 330.94,-62.68 270.21,-60.24"/>
<polygon fill="#63b8ff" stroke="#63b8ff" points="493.73,-72.74 503.86,-69.64 494.01,-65.74 493.73,-72.74"/>
</a>
</g>
</g>
<!-- Node7 -->
<g id="Node000007" class="node">
<title>Node7</title>
<g id="a_Node000007"><a xlink:href="classAISystem.html#a1d7894d2fba2b0f09b8929bbfd58ec4e" target="_top" xlink:title=" ">
<polygon fill="white" stroke="#666666" points="286,-30 141,-30 141,0 286,0 286,-30"/>
<text text-anchor="start" x="149" y="-18" font-family="Helvetica,sans-Serif" font-size="10.00">AISystem::processArriving</text>
<text text-anchor="middle" x="213.5" y="-7" font-family="Helvetica,sans-Serif" font-size="10.00">Entities</text>
</a>
</g>
</g>
<!-- Node1&#45;&gt;Node7 -->
<g id="edge8_Node000001_Node000007" class="edge">
<title>Node1&#45;&gt;Node7</title>
<g id="a_edge8_Node000001_Node000007"><a xlink:title=" ">
<path fill="none" stroke="#63b8ff" d="M494.12,-60.8C434.12,-50.97 347.17,-36.73 286.21,-26.75"/>
<polygon fill="#63b8ff" stroke="#63b8ff" points="493.82,-64.3 504.25,-62.46 494.95,-57.39 493.82,-64.3"/>
</a>
</g>
</g>
<!-- Node2&#45;&gt;Node3 -->
<g id="edge2_Node000002_Node000003" class="edge">
<title>Node2&#45;&gt;Node3</title>
<g id="a_edge2_Node000002_Node000003"><a xlink:title=" ">
<path fill="none" stroke="#63b8ff" d="M313.93,-95.49C305.35,-95.97 296.67,-96.45 288.19,-96.92"/>
<polygon fill="#63b8ff" stroke="#63b8ff" points="314.13,-98.99 323.92,-94.94 313.74,-92 314.13,-98.99"/>
</a>
</g>
</g>
<!-- Node2&#45;&gt;Node6 -->
<g id="edge5_Node000002_Node000006" class="edge">
<title>Node2&#45;&gt;Node6</title>
<g id="a_edge5_Node000002_Node000006"><a xlink:title=" ">
<path fill="none" stroke="#63b8ff" d="M332.75,-79.62C311.18,-75.68 287.25,-71.3 266.59,-67.52"/>
<polygon fill="#63b8ff" stroke="#63b8ff" points="332.33,-83.1 342.79,-81.46 333.58,-76.21 332.33,-83.1"/>
</a>
</g>
</g>
<!-- Node4 -->
<g id="Node000004" class="node">
<title>Node4</title>
<g id="a_Node000004"><a xlink:href="main_8cpp.html#a0ddf1224851353fc92bfbff6f499fa97" target="_top" xlink:title=" ">
<polygon fill="white" stroke="#666666" points="72,-85.5 31,-85.5 31,-66.5 72,-66.5 72,-85.5"/>
<text text-anchor="middle" x="51.5" y="-73.5" font-family="Helvetica,sans-Serif" font-size="10.00">main</text>
</a>
</g>
</g>
<!-- Node3&#45;&gt;Node4 -->
<g id="edge3_Node000003_Node000004" class="edge">
<title>Node3&#45;&gt;Node4</title>
<g id="a_edge3_Node000003_Node000004"><a xlink:title=" ">
<path fill="none" stroke="#63b8ff" d="M128.56,-87.88C107.47,-84.59 86.74,-81.35 72.26,-79.09"/>
<polygon fill="#63b8ff" stroke="#63b8ff" points="128.17,-91.37 138.59,-89.45 129.25,-84.45 128.17,-91.37"/>
</a>
</g>
</g>
<!-- Node5 -->
<g id="Node000005" class="node">
<title>Node5</title>
<g id="a_Node000005"><a xlink:href="classAISystem.html#a4c1e02a04a3053c073e58ad44f4d0293" target="_top" xlink:title=" ">
<polygon fill="white" stroke="#666666" points="103,-48.5 0,-48.5 0,-29.5 103,-29.5 103,-48.5"/>
<text text-anchor="middle" x="51.5" y="-36.5" font-family="Helvetica,sans-Serif" font-size="10.00">AISystem::update</text>
</a>
</g>
</g>
<!-- Node3&#45;&gt;Node5 -->
<g id="edge4_Node000003_Node000005" class="edge">
<title>Node3&#45;&gt;Node5</title>
<g id="a_edge4_Node000003_Node000005"><a xlink:title=" ">
<path fill="none" stroke="#63b8ff" d="M152.9,-82.5C148.16,-80.74 143.48,-78.9 139,-77 122.34,-69.94 119.5,-65.42 103,-58 95.57,-54.66 87.35,-51.39 79.75,-48.54"/>
<polygon fill="#63b8ff" stroke="#63b8ff" points="152.06,-85.92 162.66,-86 154.42,-79.33 152.06,-85.92"/>
</a>
</g>
</g>
<!-- Node6&#45;&gt;Node4 -->
<g id="edge6_Node000006_Node000004" class="edge">
<title>Node6&#45;&gt;Node4</title>
<g id="a_edge6_Node000006_Node000004"><a xlink:title=" ">
<path fill="none" stroke="#63b8ff" d="M146.83,-65.39C119.96,-68.41 90.87,-71.68 72.2,-73.78"/>
<polygon fill="#63b8ff" stroke="#63b8ff" points="147.44,-68.84 156.99,-64.25 146.66,-61.88 147.44,-68.84"/>
</a>
</g>
</g>
<!-- Node6&#45;&gt;Node5 -->
<g id="edge7_Node000006_Node000005" class="edge">
<title>Node6&#45;&gt;Node5</title>
<g id="a_edge7_Node000006_Node000005"><a xlink:title=" ">
<path fill="none" stroke="#63b8ff" d="M146.98,-50.22C132.34,-48.48 117.02,-46.66 103.09,-45.01"/>
<polygon fill="#63b8ff" stroke="#63b8ff" points="146.65,-53.7 156.99,-51.41 147.47,-46.75 146.65,-53.7"/>
</a>
</g>
</g>
<!-- Node7&#45;&gt;Node4 -->
<g id="edge9_Node000007_Node000004" class="edge">
<title>Node7&#45;&gt;Node4</title>
<g id="a_edge9_Node000007_Node000004"><a xlink:title=" ">
<path fill="none" stroke="#63b8ff" d="M152.9,-33.5C148.16,-35.26 143.48,-37.1 139,-39 122.34,-46.06 119.56,-50.72 103,-58 93.12,-62.34 81.82,-66.45 72.42,-69.64"/>
<polygon fill="#63b8ff" stroke="#63b8ff" points="154.42,-36.67 162.66,-30 152.06,-30.08 154.42,-36.67"/>
</a>
</g>
</g>
<!-- Node7&#45;&gt;Node5 -->
<g id="edge10_Node000007_Node000005" class="edge">
<title>Node7&#45;&gt;Node5</title>
<g id="a_edge10_Node000007_Node000005"><a xlink:title=" ">
<path fill="none" stroke="#63b8ff" d="M130.81,-27.25C121.48,-28.65 112.18,-30.05 103.41,-31.36"/>
<polygon fill="#63b8ff" stroke="#63b8ff" points="131.55,-30.68 140.92,-25.74 130.52,-23.76 131.55,-30.68"/>
</a>
</g>
</g>
</g>
</svg>
