<?xml version="1.0" encoding="UTF-8" standalone="no"?>
<!DOCTYPE svg PUBLIC "-//W3C//DTD SVG 1.1//EN"
 "http://www.w3.org/Graphics/SVG/1.1/DTD/svg11.dtd">
<!-- Generated by graphviz version 2.43.0 (0)
 -->
<!-- Title: HomeManager::getNpcHome Pages: 1 -->
<svg width="923pt" height="92pt"
 viewBox="0.00 0.00 923.00 91.50" xmlns="http://www.w3.org/2000/svg" xmlns:xlink="http://www.w3.org/1999/xlink">
<g id="graph0" class="graph" transform="scale(1 1) rotate(0) translate(4 87.5)">
<title>HomeManager::getNpcHome</title>
<!-- Node1 -->
<g id="Node000001" class="node">
<title>Node1</title>
<g id="a_Node000001"><a xlink:title=" ">
<polygon fill="#999999" stroke="#666666" points="915,-37 757,-37 757,-18 915,-18 915,-37"/>
<text text-anchor="middle" x="836" y="-25" font-family="Helvetica,sans-Serif" font-size="10.00">HomeManager::getNpcHome</text>
</a>
</g>
</g>
<!-- Node2 -->
<g id="Node000002" class="node">
<title>Node2</title>
<g id="a_Node000002"><a xlink:href="classAISystem.html#adccbbce5e828f9e07a167eb7045c7760" target="_top" xlink:title=" ">
<polygon fill="white" stroke="#666666" points="682,-56 543,-56 543,-37 682,-37 682,-56"/>
<text text-anchor="middle" x="612.5" y="-44" font-family="Helvetica,sans-Serif" font-size="10.00">AISystem::getHomeZone</text>
</a>
</g>
</g>
<!-- Node1&#45;&gt;Node2 -->
<g id="edge1_Node000001_Node000002" class="edge">
<title>Node1&#45;&gt;Node2</title>
<g id="a_edge1_Node000001_Node000002"><a xlink:title=" ">
<path fill="none" stroke="#63b8ff" d="M746.78,-35.07C725.24,-36.92 702.52,-38.86 682.05,-40.62"/>
<polygon fill="#63b8ff" stroke="#63b8ff" points="747.24,-38.54 756.91,-34.2 746.64,-31.57 747.24,-38.54"/>
</a>
</g>
</g>
<!-- Node8 -->
<g id="Node000008" class="node">
<title>Node8</title>
<g id="a_Node000008"><a xlink:href="classHomeManager.html#a34c9160cc9c10b5a6bf4ea241ae51816" target="_top" xlink:title=" ">
<polygon fill="white" stroke="#666666" points="721,-19 504,-19 504,0 721,0 721,-19"/>
<text text-anchor="middle" x="612.5" y="-7" font-family="Helvetica,sans-Serif" font-size="10.00">HomeManager::getNpcHomeCoordinates</text>
</a>
</g>
</g>
<!-- Node1&#45;&gt;Node8 -->
<g id="edge9_Node000001_Node000008" class="edge">
<title>Node1&#45;&gt;Node8</title>
<g id="a_edge9_Node000001_Node000008"><a xlink:title=" ">
<path fill="none" stroke="#63b8ff" d="M746.74,-20.33C738.33,-19.64 729.73,-18.95 721.16,-18.25"/>
<polygon fill="#63b8ff" stroke="#63b8ff" points="746.66,-23.83 756.91,-21.15 747.22,-16.86 746.66,-23.83"/>
</a>
</g>
</g>
<!-- Node3 -->
<g id="Node000003" class="node">
<title>Node3</title>
<g id="a_Node000003"><a xlink:href="classAISystem.html#a3e9a6b233a440655d47ce5041941d698" target="_top" xlink:title=" ">
<polygon fill="white" stroke="#666666" points="468,-56 324,-56 324,-37 468,-37 468,-56"/>
<text text-anchor="middle" x="396" y="-44" font-family="Helvetica,sans-Serif" font-size="10.00">AISystem::planNextAction</text>
</a>
</g>
</g>
<!-- Node2&#45;&gt;Node3 -->
<g id="edge2_Node000002_Node000003" class="edge">
<title>Node2&#45;&gt;Node3</title>
<g id="a_edge2_Node000002_Node000003"><a xlink:title=" ">
<path fill="none" stroke="#63b8ff" d="M532.56,-46.5C511.52,-46.5 488.92,-46.5 468.32,-46.5"/>
<polygon fill="#63b8ff" stroke="#63b8ff" points="532.75,-50 542.75,-46.5 532.75,-43 532.75,-50"/>
</a>
</g>
</g>
<!-- Node4 -->
<g id="Node000004" class="node">
<title>Node4</title>
<g id="a_Node000004"><a xlink:href="classAISystem.html#a6b84082c16eb0af5606049260db2d99f" target="_top" xlink:title=" ">
<polygon fill="white" stroke="#666666" points="288,-83.5 139,-83.5 139,-53.5 288,-53.5 288,-83.5"/>
<text text-anchor="start" x="147" y="-71.5" font-family="Helvetica,sans-Serif" font-size="10.00">AISystem::processPlanning</text>
<text text-anchor="middle" x="213.5" y="-60.5" font-family="Helvetica,sans-Serif" font-size="10.00">Entities</text>
</a>
</g>
</g>
<!-- Node3&#45;&gt;Node4 -->
<g id="edge3_Node000003_Node000004" class="edge">
<title>Node3&#45;&gt;Node4</title>
<g id="a_edge3_Node000003_Node000004"><a xlink:title=" ">
<path fill="none" stroke="#63b8ff" d="M313.93,-56.38C305.35,-57.43 296.67,-58.49 288.19,-59.52"/>
<polygon fill="#63b8ff" stroke="#63b8ff" points="314.42,-59.85 323.92,-55.16 313.57,-52.9 314.42,-59.85"/>
</a>
</g>
</g>
<!-- Node7 -->
<g id="Node000007" class="node">
<title>Node7</title>
<g id="a_Node000007"><a xlink:href="classAISystem.html#a260e9a02dff6d097b45fa7c6e3ae733f" target="_top" xlink:title=" ">
<polygon fill="white" stroke="#666666" points="270,-35 157,-35 157,-16 270,-16 270,-35"/>
<text text-anchor="middle" x="213.5" y="-23" font-family="Helvetica,sans-Serif" font-size="10.00">AISystem::updateAI</text>
</a>
</g>
</g>
<!-- Node3&#45;&gt;Node7 -->
<g id="edge6_Node000003_Node000007" class="edge">
<title>Node3&#45;&gt;Node7</title>
<g id="a_edge6_Node000003_Node000007"><a xlink:title=" ">
<path fill="none" stroke="#63b8ff" d="M313.79,-37.05C299.04,-35.34 283.97,-33.58 270.18,-31.98"/>
<polygon fill="#63b8ff" stroke="#63b8ff" points="313.58,-40.55 323.92,-38.23 314.39,-33.6 313.58,-40.55"/>
</a>
</g>
</g>
<!-- Node5 -->
<g id="Node000005" class="node">
<title>Node5</title>
<g id="a_Node000005"><a xlink:href="main_8cpp.html#a0ddf1224851353fc92bfbff6f499fa97" target="_top" xlink:title=" ">
<polygon fill="white" stroke="#666666" points="72,-76 31,-76 31,-57 72,-57 72,-76"/>
<text text-anchor="middle" x="51.5" y="-64" font-family="Helvetica,sans-Serif" font-size="10.00">main</text>
</a>
</g>
</g>
<!-- Node4&#45;&gt;Node5 -->
<g id="edge4_Node000004_Node000005" class="edge">
<title>Node4&#45;&gt;Node5</title>
<g id="a_edge4_Node000004_Node000005"><a xlink:title=" ">
<path fill="none" stroke="#63b8ff" d="M128.56,-67.45C107.47,-67.19 86.74,-66.93 72.26,-66.75"/>
<polygon fill="#63b8ff" stroke="#63b8ff" points="128.55,-70.95 138.59,-67.58 128.63,-63.95 128.55,-70.95"/>
</a>
</g>
</g>
<!-- Node6 -->
<g id="Node000006" class="node">
<title>Node6</title>
<g id="a_Node000006"><a xlink:href="classAISystem.html#a4c1e02a04a3053c073e58ad44f4d0293" target="_top" xlink:title=" ">
<polygon fill="white" stroke="#666666" points="103,-38 0,-38 0,-19 103,-19 103,-38"/>
<text text-anchor="middle" x="51.5" y="-26" font-family="Helvetica,sans-Serif" font-size="10.00">AISystem::update</text>
</a>
</g>
</g>
<!-- Node4&#45;&gt;Node6 -->
<g id="edge5_Node000004_Node000006" class="edge">
<title>Node4&#45;&gt;Node6</title>
<g id="a_edge5_Node000004_Node000006"><a xlink:title=" ">
<path fill="none" stroke="#63b8ff" d="M142.62,-51.03C124.74,-46.56 106.16,-41.92 90.56,-38.01"/>
<polygon fill="#63b8ff" stroke="#63b8ff" points="141.92,-54.46 152.47,-53.49 143.61,-47.67 141.92,-54.46"/>
</a>
</g>
</g>
<!-- Node7&#45;&gt;Node5 -->
<g id="edge7_Node000007_Node000005" class="edge">
<title>Node7&#45;&gt;Node5</title>
<g id="a_edge7_Node000007_Node000005"><a xlink:title=" ">
<path fill="none" stroke="#63b8ff" d="M165.63,-37.51C134.62,-45.46 95.53,-55.47 72.36,-61.41"/>
<polygon fill="#63b8ff" stroke="#63b8ff" points="166.57,-40.88 175.39,-35.01 164.83,-34.1 166.57,-40.88"/>
</a>
</g>
</g>
<!-- Node7&#45;&gt;Node6 -->
<g id="edge8_Node000007_Node000006" class="edge">
<title>Node7&#45;&gt;Node6</title>
<g id="a_edge8_Node000007_Node000006"><a xlink:title=" ">
<path fill="none" stroke="#63b8ff" d="M146.98,-26.73C132.34,-27 117.02,-27.29 103.09,-27.55"/>
<polygon fill="#63b8ff" stroke="#63b8ff" points="147.06,-30.23 156.99,-26.54 146.92,-23.23 147.06,-30.23"/>
</a>
</g>
</g>
</g>
</svg>
