<?xml version="1.0" encoding="UTF-8" standalone="no"?>
<!DOCTYPE svg PUBLIC "-//W3C//DTD SVG 1.1//EN"
 "http://www.w3.org/Graphics/SVG/1.1/DTD/svg11.dtd">
<!-- Generated by graphviz version 2.43.0 (0)
 -->
<!-- Title: Clock::update Pages: 1 -->
<svg width="680pt" height="27pt"
 viewBox="0.00 0.00 680.00 27.00" xmlns="http://www.w3.org/2000/svg" xmlns:xlink="http://www.w3.org/1999/xlink">
<g id="graph0" class="graph" transform="scale(1 1) rotate(0) translate(4 23)">
<title>Clock::update</title>
<!-- Node1 -->
<g id="Node000001" class="node">
<title>Node1</title>
<g id="a_Node000001"><a xlink:title=" ">
<polygon fill="#999999" stroke="#666666" points="83,-19 0,-19 0,0 83,0 83,-19"/>
<text text-anchor="middle" x="41.5" y="-7" font-family="Helvetica,sans-Serif" font-size="10.00">Clock::update</text>
</a>
</g>
</g>
<!-- Node2 -->
<g id="Node000002" class="node">
<title>Node2</title>
<g id="a_Node000002"><a xlink:href="classClock.html#a31209395c2d9bb7467abeaea8382e1ce" target="_top" xlink:title=" ">
<polygon fill="white" stroke="#666666" points="289,-19 119,-19 119,0 289,0 289,-19"/>
<text text-anchor="middle" x="204" y="-7" font-family="Helvetica,sans-Serif" font-size="10.00">Clock::updateTimeComponents</text>
</a>
</g>
</g>
<!-- Node1&#45;&gt;Node2 -->
<g id="edge1_Node000001_Node000002" class="edge">
<title>Node1&#45;&gt;Node2</title>
<g id="a_edge1_Node000001_Node000002"><a xlink:title=" ">
<path fill="none" stroke="#63b8ff" d="M83,-9.5C91.03,-9.5 99.77,-9.5 108.75,-9.5"/>
<polygon fill="#63b8ff" stroke="#63b8ff" points="108.97,-13 118.97,-9.5 108.97,-6 108.97,-13"/>
</a>
</g>
</g>
<!-- Node3 -->
<g id="Node000003" class="node">
<title>Node3</title>
<g id="a_Node000003"><a xlink:href="classTimeOfDay.html#a97e4bb6a1ed1e33f3f122ed243fdc5fb" target="_top" xlink:title=" ">
<polygon fill="white" stroke="#666666" points="484,-19 325,-19 325,0 484,0 484,-19"/>
<text text-anchor="middle" x="404.5" y="-7" font-family="Helvetica,sans-Serif" font-size="10.00">TimeOfDay::updateFromHour</text>
</a>
</g>
</g>
<!-- Node2&#45;&gt;Node3 -->
<g id="edge2_Node000002_Node000003" class="edge">
<title>Node2&#45;&gt;Node3</title>
<g id="a_edge2_Node000002_Node000003"><a xlink:title=" ">
<path fill="none" stroke="#63b8ff" d="M289.18,-9.5C297.6,-9.5 306.16,-9.5 314.62,-9.5"/>
<polygon fill="#63b8ff" stroke="#63b8ff" points="314.87,-13 324.87,-9.5 314.87,-6 314.87,-13"/>
</a>
</g>
</g>
<!-- Node4 -->
<g id="Node000004" class="node">
<title>Node4</title>
<g id="a_Node000004"><a xlink:href="classTimeOfDay.html#ab984981362421551c0548e2fd3916ee0" target="_top" xlink:title=" ">
<polygon fill="white" stroke="#666666" points="672,-19 520,-19 520,0 672,0 672,-19"/>
<text text-anchor="middle" x="596" y="-7" font-family="Helvetica,sans-Serif" font-size="10.00">TimeOfDay::calculatePeriod</text>
</a>
</g>
</g>
<!-- Node3&#45;&gt;Node4 -->
<g id="edge3_Node000003_Node000004" class="edge">
<title>Node3&#45;&gt;Node4</title>
<g id="a_edge3_Node000003_Node000004"><a xlink:title=" ">
<path fill="none" stroke="#63b8ff" d="M484.22,-9.5C492.6,-9.5 501.16,-9.5 509.62,-9.5"/>
<polygon fill="#63b8ff" stroke="#63b8ff" points="509.87,-13 519.87,-9.5 509.87,-6 509.87,-13"/>
</a>
</g>
</g>
</g>
</svg>
