<?xml version="1.0" encoding="UTF-8" standalone="no"?>
<!DOCTYPE svg PUBLIC "-//W3C//DTD SVG 1.1//EN"
 "http://www.w3.org/Graphics/SVG/1.1/DTD/svg11.dtd">
<!-- Generated by graphviz version 2.43.0 (0)
 -->
<!-- Title: ShapeRenderableComponent Pages: 1 -->
<svg width="220pt" height="172pt"
 viewBox="0.00 0.00 219.50 172.00" xmlns="http://www.w3.org/2000/svg" xmlns:xlink="http://www.w3.org/1999/xlink">

<svg id="main" version="1.1" xmlns="http://www.w3.org/2000/svg" xmlns:xlink="http://www.w3.org/1999/xlink" xml:space="preserve" onload="init(evt)">
<style type="text/css"><![CDATA[
.node, .edge {opacity: 0.7;}
.node.selected, .edge.selected {opacity: 1;}
.edge:hover path { stroke: red; }
.edge:hover polygon { stroke: red; fill: red; }
]]></style>
<script type="application/ecmascript" xlink:href="svg.min.js"/>
<svg id="graph" class="graph">
<g id="graph0" class="graph" transform="scale(1 1) rotate(0) translate(4 168)">
<title>ShapeRenderableComponent</title>
<!-- Node1 -->
<g id="Node000001" class="node">
<title>Node1</title>
<g id="a_Node000001"><a xlink:title=" ">
<polygon fill="#999999" stroke="transparent" points="191,-49 20,-49 20,0 191,0 191,-49"/>
<text text-anchor="start" x="35" y="-36.5" font-family="Helvetica,sans-Serif" font-size="10.00">ShapeRenderableComponent</text>
<text text-anchor="start" x="24.5" y="-21.5" font-family="Helvetica,sans-Serif" font-size="10.00">+</text>
<text text-anchor="start" x="37.5" y="-21.5" font-family="Helvetica,sans-Serif" font-size="10.00">color</text>
<text text-anchor="start" x="24.5" y="-6.5" font-family="Helvetica,sans-Serif" font-size="10.00">+</text>
<text text-anchor="start" x="37.5" y="-6.5" font-family="Helvetica,sans-Serif" font-size="10.00">ShapeRenderableComponent()</text>
<polygon fill="#666666" stroke="#666666" points="20.5,-31.5 20.5,-31.5 191.5,-31.5 191.5,-31.5 20.5,-31.5"/>
<polygon fill="#666666" stroke="#666666" points="20.5,-16.5 20.5,-16.5 35.5,-16.5 35.5,-16.5 20.5,-16.5"/>
<polygon fill="#666666" stroke="#666666" points="35.5,-16.5 35.5,-16.5 191.5,-16.5 191.5,-16.5 35.5,-16.5"/>
<polygon fill="none" stroke="#666666" points="20,0 20,-49 191,-49 191,0 20,0"/>
</a>
</g>
</g>
<!-- Node2 -->
<g id="Node000002" class="node">
<title>Node2</title>
<g id="a_Node000002"><a xlink:href="classECS_1_1IComponent.html" target="_top" xlink:title=" ">
<polygon fill="white" stroke="transparent" points="97,-149 0,-149 0,-100 97,-100 97,-149"/>
<text text-anchor="start" x="6.5" y="-136.5" font-family="Helvetica,sans-Serif" font-size="10.00">ECS::IComponent</text>
<text text-anchor="start" x="47" y="-121.5" font-family="Helvetica,sans-Serif" font-size="10.00"> </text>
<text text-anchor="start" x="4.5" y="-106.5" font-family="Helvetica,sans-Serif" font-size="10.00">+</text>
<text text-anchor="start" x="17.5" y="-106.5" font-family="Helvetica,sans-Serif" font-size="10.00">~IComponent()</text>
<polygon fill="#666666" stroke="#666666" points="0.5,-131.5 0.5,-131.5 97.5,-131.5 97.5,-131.5 0.5,-131.5"/>
<polygon fill="#666666" stroke="#666666" points="0.5,-116.5 0.5,-116.5 97.5,-116.5 97.5,-116.5 0.5,-116.5"/>
<polygon fill="none" stroke="#666666" points="0,-100 0,-149 97,-149 97,-100 0,-100"/>
</a>
</g>
</g>
<!-- Node2&#45;&gt;Node1 -->
<g id="edge1_Node000001_Node000002" class="edge">
<title>Node2&#45;&gt;Node1</title>
<g id="a_edge1_Node000001_Node000002"><a xlink:title=" ">
<path fill="none" stroke="#63b8ff" d="M67.36,-91.08C75.35,-77.33 84.5,-61.61 91.83,-49"/>
<polygon fill="none" stroke="#63b8ff" points="64.3,-89.37 62.3,-99.78 70.35,-92.89 64.3,-89.37"/>
</a>
</g>
</g>
<!-- Node3 -->
<g id="Node000003" class="node">
<title>Node3</title>
<g id="a_Node000003"><a xlink:href="classIRenderable.html" target="_top" xlink:title=" ">
<polygon fill="white" stroke="transparent" points="211.5,-164 115.5,-164 115.5,-85 211.5,-85 211.5,-164"/>
<text text-anchor="start" x="134" y="-151.5" font-family="Helvetica,sans-Serif" font-size="10.00">IRenderable</text>
<text text-anchor="start" x="119.5" y="-136.5" font-family="Helvetica,sans-Serif" font-size="10.00">+</text>
<text text-anchor="start" x="132.5" y="-136.5" font-family="Helvetica,sans-Serif" font-size="10.00">rect</text>
<text text-anchor="start" x="119.5" y="-121.5" font-family="Helvetica,sans-Serif" font-size="10.00">+</text>
<text text-anchor="start" x="132.5" y="-121.5" font-family="Helvetica,sans-Serif" font-size="10.00">IRenderable()</text>
<text text-anchor="start" x="119.5" y="-106.5" font-family="Helvetica,sans-Serif" font-size="10.00">+</text>
<text text-anchor="start" x="132.5" y="-106.5" font-family="Helvetica,sans-Serif" font-size="10.00">~IRenderable()</text>
<text text-anchor="start" x="119.5" y="-91.5" font-family="Helvetica,sans-Serif" font-size="10.00">+</text>
<text text-anchor="start" x="132.5" y="-91.5" font-family="Helvetica,sans-Serif" font-size="10.00">render()</text>
<polygon fill="#666666" stroke="#666666" points="115.5,-146.5 115.5,-146.5 211.5,-146.5 211.5,-146.5 115.5,-146.5"/>
<polygon fill="#666666" stroke="#666666" points="115.5,-131.5 115.5,-131.5 130.5,-131.5 130.5,-131.5 115.5,-131.5"/>
<polygon fill="#666666" stroke="#666666" points="130.5,-131.5 130.5,-131.5 211.5,-131.5 211.5,-131.5 130.5,-131.5"/>
<polygon fill="none" stroke="#666666" points="115.5,-85 115.5,-164 211.5,-164 211.5,-85 115.5,-85"/>
</a>
</g>
</g>
<!-- Node3&#45;&gt;Node1 -->
<g id="edge2_Node000001_Node000003" class="edge">
<title>Node3&#45;&gt;Node1</title>
<g id="a_edge2_Node000001_Node000003"><a xlink:title=" ">
<path fill="none" stroke="#63b8ff" d="M135.31,-75.87C129.78,-66.53 124.21,-57.12 119.41,-49"/>
<polygon fill="none" stroke="#63b8ff" points="132.47,-77.94 140.58,-84.77 138.5,-74.38 132.47,-77.94"/>
</a>
</g>
</g>
</g>
</svg>
</svg>

<style type='text/css'>
<![CDATA[
[data-mouse-over-selected='false'] { opacity: 0.7; }
[data-mouse-over-selected='true']  { opacity: 1.0; }
]]>
</style>
<script type="application/ecmascript"><![CDATA[
document.addEventListener('DOMContentLoaded', (event) => {
  highlightEdges();
  highlightAdjacentNodes();
});
]]></script>
</svg>
