<?xml version="1.0" encoding="UTF-8" standalone="no"?>
<!DOCTYPE svg PUBLIC "-//W3C//DTD SVG 1.1//EN"
 "http://www.w3.org/Graphics/SVG/1.1/DTD/svg11.dtd">
<!-- Generated by graphviz version 2.43.0 (0)
 -->
<!-- Title: PlayerController::handleEvent Pages: 1 -->
<svg width="312pt" height="175pt"
 viewBox="0.00 0.00 312.00 175.00" xmlns="http://www.w3.org/2000/svg" xmlns:xlink="http://www.w3.org/1999/xlink">

<svg id="main" version="1.1" xmlns="http://www.w3.org/2000/svg" xmlns:xlink="http://www.w3.org/1999/xlink" xml:space="preserve" onload="init(evt)">
<style type="text/css"><![CDATA[
.node, .edge {opacity: 0.7;}
.node.selected, .edge.selected {opacity: 1;}
.edge:hover path { stroke: red; }
.edge:hover polygon { stroke: red; fill: red; }
]]></style>
<script type="application/ecmascript" xlink:href="svg.min.js"/>
<svg id="graph" class="graph">
<g id="graph0" class="graph" transform="scale(1 1) rotate(0) translate(4 171)">
<title>PlayerController::handleEvent</title>
<!-- Node1 -->
<g id="Node000001" class="node">
<title>Node1</title>
<g id="a_Node000001"><a xlink:title="Handles SDL keyboard events to move the player entity.">
<polygon fill="#999999" stroke="#666666" points="134,-98.5 0,-98.5 0,-68.5 134,-68.5 134,-98.5"/>
<text text-anchor="start" x="8" y="-86.5" font-family="Helvetica,sans-Serif" font-size="10.00">PlayerController::handle</text>
<text text-anchor="middle" x="67" y="-75.5" font-family="Helvetica,sans-Serif" font-size="10.00">Event</text>
</a>
</g>
</g>
<!-- Node2 -->
<g id="Node000002" class="node">
<title>Node2</title>
<g id="a_Node000002"><a xlink:href="classGrid.html#ae448ea0d444c23fe89743430b040537c" target="_top" xlink:title=" ">
<polygon fill="white" stroke="#666666" points="263.5,-167 210.5,-167 210.5,-148 263.5,-148 263.5,-167"/>
<text text-anchor="middle" x="237" y="-155" font-family="Helvetica,sans-Serif" font-size="10.00">Grid::at</text>
</a>
</g>
</g>
<!-- Node1&#45;&gt;Node2 -->
<g id="edge1_Node000001_Node000002" class="edge">
<title>Node1&#45;&gt;Node2</title>
<g id="a_edge1_Node000001_Node000002"><a xlink:title=" ">
<path fill="none" stroke="#63b8ff" d="M91.53,-98.51C111.72,-110.87 141.91,-128.14 170,-139.5 179.74,-143.44 190.64,-146.81 200.72,-149.53"/>
<polygon fill="#63b8ff" stroke="#63b8ff" points="199.91,-152.93 210.47,-152.03 201.65,-146.15 199.91,-152.93"/>
</a>
</g>
</g>
<!-- Node3 -->
<g id="Node000003" class="node">
<title>Node3</title>
<g id="a_Node000003"><a xlink:href="classMovementManager.html#a114bf0653e258541fe63e3e5144aba20" target="_top" xlink:title=" ">
<polygon fill="white" stroke="#666666" points="304,-130 170,-130 170,-111 304,-111 304,-130"/>
<text text-anchor="middle" x="237" y="-118" font-family="Helvetica,sans-Serif" font-size="10.00">MovementManager::get</text>
</a>
</g>
</g>
<!-- Node1&#45;&gt;Node3 -->
<g id="edge2_Node000001_Node000003" class="edge">
<title>Node1&#45;&gt;Node3</title>
<g id="a_edge2_Node000001_Node000003"><a xlink:title=" ">
<path fill="none" stroke="#63b8ff" d="M134.4,-98.12C150.5,-101.67 167.5,-105.41 182.9,-108.8"/>
<polygon fill="#63b8ff" stroke="#63b8ff" points="182.24,-112.24 192.76,-110.98 183.74,-105.41 182.24,-112.24"/>
</a>
</g>
</g>
<!-- Node4 -->
<g id="Node000004" class="node">
<title>Node4</title>
<g id="a_Node000004"><a xlink:href="classPositionManager.html#ac2ce0980eefb0e2afd6e6fe08fb8c28d" target="_top" xlink:title=" ">
<polygon fill="white" stroke="#666666" points="297,-93 177,-93 177,-74 297,-74 297,-93"/>
<text text-anchor="middle" x="237" y="-81" font-family="Helvetica,sans-Serif" font-size="10.00">PositionManager::get</text>
</a>
</g>
</g>
<!-- Node1&#45;&gt;Node4 -->
<g id="edge3_Node000001_Node000004" class="edge">
<title>Node1&#45;&gt;Node4</title>
<g id="a_edge3_Node000001_Node000004"><a xlink:title=" ">
<path fill="none" stroke="#63b8ff" d="M134.4,-83.5C145.03,-83.5 156.06,-83.5 166.76,-83.5"/>
<polygon fill="#63b8ff" stroke="#63b8ff" points="166.89,-87 176.89,-83.5 166.89,-80 166.89,-87"/>
</a>
</g>
</g>
<!-- Node5 -->
<g id="Node000005" class="node">
<title>Node5</title>
<g id="a_Node000005"><a xlink:href="classGrid.html#aca5987c146fcd4226cc5dfdf927f17b1" target="_top" xlink:title=" ">
<polygon fill="white" stroke="#666666" points="282.5,-56 191.5,-56 191.5,-37 282.5,-37 282.5,-56"/>
<text text-anchor="middle" x="237" y="-44" font-family="Helvetica,sans-Serif" font-size="10.00">Grid::getHeight</text>
</a>
</g>
</g>
<!-- Node1&#45;&gt;Node5 -->
<g id="edge4_Node000001_Node000005" class="edge">
<title>Node1&#45;&gt;Node5</title>
<g id="a_edge4_Node000001_Node000005"><a xlink:title=" ">
<path fill="none" stroke="#63b8ff" d="M134.4,-68.88C150.5,-65.33 167.5,-61.59 182.9,-58.2"/>
<polygon fill="#63b8ff" stroke="#63b8ff" points="183.74,-61.59 192.76,-56.02 182.24,-54.76 183.74,-61.59"/>
</a>
</g>
</g>
<!-- Node6 -->
<g id="Node000006" class="node">
<title>Node6</title>
<g id="a_Node000006"><a xlink:href="classGrid.html#a1e87189ca4bcb28b72b5e1bb78a532b5" target="_top" xlink:title=" ">
<polygon fill="white" stroke="#666666" points="280.5,-19 193.5,-19 193.5,0 280.5,0 280.5,-19"/>
<text text-anchor="middle" x="237" y="-7" font-family="Helvetica,sans-Serif" font-size="10.00">Grid::getWidth</text>
</a>
</g>
</g>
<!-- Node1&#45;&gt;Node6 -->
<g id="edge5_Node000001_Node000006" class="edge">
<title>Node1&#45;&gt;Node6</title>
<g id="a_edge5_Node000001_Node000006"><a xlink:title=" ">
<path fill="none" stroke="#63b8ff" d="M92.42,-68.4C112.65,-56.37 142.43,-39.75 170,-28.5 175.59,-26.22 181.54,-24.1 187.51,-22.16"/>
<polygon fill="#63b8ff" stroke="#63b8ff" points="188.96,-25.38 197.48,-19.08 186.9,-18.69 188.96,-25.38"/>
</a>
</g>
</g>
</g>
</svg>
</svg>

<style type='text/css'>
<![CDATA[
[data-mouse-over-selected='false'] { opacity: 0.7; }
[data-mouse-over-selected='true']  { opacity: 1.0; }
]]>
</style>
<script type="application/ecmascript"><![CDATA[
document.addEventListener('DOMContentLoaded', (event) => {
  highlightEdges();
  highlightAdjacentNodes();
});
]]></script>
</svg>
