<?xml version="1.0" encoding="UTF-8" standalone="no"?>
<!DOCTYPE svg PUBLIC "-//W3C//DTD SVG 1.1//EN"
 "http://www.w3.org/Graphics/SVG/1.1/DTD/svg11.dtd">
<!-- Generated by graphviz version 2.43.0 (0)
 -->
<!-- Title: TimeOfDay::calculatePeriod Pages: 1 -->
<svg width="757pt" height="64pt"
 viewBox="0.00 0.00 757.00 64.00" xmlns="http://www.w3.org/2000/svg" xmlns:xlink="http://www.w3.org/1999/xlink">
<g id="graph0" class="graph" transform="scale(1 1) rotate(0) translate(4 60)">
<title>TimeOfDay::calculatePeriod</title>
<!-- Node1 -->
<g id="Node000001" class="node">
<title>Node1</title>
<g id="a_Node000001"><a xlink:title=" ">
<polygon fill="#999999" stroke="#666666" points="749,-37 597,-37 597,-18 749,-18 749,-37"/>
<text text-anchor="middle" x="673" y="-25" font-family="Helvetica,sans-Serif" font-size="10.00">TimeOfDay::calculatePeriod</text>
</a>
</g>
</g>
<!-- Node2 -->
<g id="Node000002" class="node">
<title>Node2</title>
<g id="a_Node000002"><a xlink:href="classTimeOfDay.html#a97e4bb6a1ed1e33f3f122ed243fdc5fb" target="_top" xlink:title=" ">
<polygon fill="white" stroke="#666666" points="561,-37 402,-37 402,-18 561,-18 561,-37"/>
<text text-anchor="middle" x="481.5" y="-25" font-family="Helvetica,sans-Serif" font-size="10.00">TimeOfDay::updateFromHour</text>
</a>
</g>
</g>
<!-- Node1&#45;&gt;Node2 -->
<g id="edge1_Node000001_Node000002" class="edge">
<title>Node1&#45;&gt;Node2</title>
<g id="a_edge1_Node000001_Node000002"><a xlink:title=" ">
<path fill="none" stroke="#63b8ff" d="M586.62,-27.5C578.19,-27.5 569.67,-27.5 561.31,-27.5"/>
<polygon fill="#63b8ff" stroke="#63b8ff" points="586.83,-31 596.83,-27.5 586.83,-24 586.83,-31"/>
</a>
</g>
</g>
<!-- Node3 -->
<g id="Node000003" class="node">
<title>Node3</title>
<g id="a_Node000003"><a xlink:href="classClock.html#a0a946648473117739635a093579d21a4" target="_top" xlink:title=" ">
<polygon fill="white" stroke="#666666" points="319.5,-56 242.5,-56 242.5,-37 319.5,-37 319.5,-56"/>
<text text-anchor="middle" x="281" y="-44" font-family="Helvetica,sans-Serif" font-size="10.00">Clock::Clock</text>
</a>
</g>
</g>
<!-- Node2&#45;&gt;Node3 -->
<g id="edge2_Node000002_Node000003" class="edge">
<title>Node2&#45;&gt;Node3</title>
<g id="a_edge2_Node000002_Node000003"><a xlink:title=" ">
<path fill="none" stroke="#63b8ff" d="M391.75,-35.99C366.45,-38.42 340.22,-40.93 319.76,-42.89"/>
<polygon fill="#63b8ff" stroke="#63b8ff" points="392.14,-39.47 401.76,-35.04 391.47,-32.51 392.14,-39.47"/>
</a>
</g>
</g>
<!-- Node4 -->
<g id="Node000004" class="node">
<title>Node4</title>
<g id="a_Node000004"><a xlink:href="classClock.html#a31209395c2d9bb7467abeaea8382e1ce" target="_top" xlink:title=" ">
<polygon fill="white" stroke="#666666" points="366,-19 196,-19 196,0 366,0 366,-19"/>
<text text-anchor="middle" x="281" y="-7" font-family="Helvetica,sans-Serif" font-size="10.00">Clock::updateTimeComponents</text>
</a>
</g>
</g>
<!-- Node2&#45;&gt;Node4 -->
<g id="edge3_Node000002_Node000004" class="edge">
<title>Node2&#45;&gt;Node4</title>
<g id="a_edge3_Node000002_Node000004"><a xlink:title=" ">
<path fill="none" stroke="#63b8ff" d="M391.54,-19.43C383.11,-18.67 374.58,-17.89 366.19,-17.13"/>
<polygon fill="#63b8ff" stroke="#63b8ff" points="391.49,-22.94 401.76,-20.36 392.12,-15.97 391.49,-22.94"/>
</a>
</g>
</g>
<!-- Node5 -->
<g id="Node000005" class="node">
<title>Node5</title>
<g id="a_Node000005"><a xlink:href="classClock.html#a0d264b12da1c7bcfa85df1c73701099d" target="_top" xlink:title=" ">
<polygon fill="white" stroke="#666666" points="160,-19 77,-19 77,0 160,0 160,-19"/>
<text text-anchor="middle" x="118.5" y="-7" font-family="Helvetica,sans-Serif" font-size="10.00">Clock::update</text>
</a>
</g>
</g>
<!-- Node4&#45;&gt;Node5 -->
<g id="edge4_Node000004_Node000005" class="edge">
<title>Node4&#45;&gt;Node5</title>
<g id="a_edge4_Node000004_Node000005"><a xlink:title=" ">
<path fill="none" stroke="#63b8ff" d="M185.84,-9.5C176.91,-9.5 168.23,-9.5 160.23,-9.5"/>
<polygon fill="#63b8ff" stroke="#63b8ff" points="185.99,-13 195.99,-9.5 185.99,-6 185.99,-13"/>
</a>
</g>
</g>
<!-- Node6 -->
<g id="Node000006" class="node">
<title>Node6</title>
<g id="a_Node000006"><a xlink:href="main_8cpp.html#a0ddf1224851353fc92bfbff6f499fa97" target="_top" xlink:title=" ">
<polygon fill="white" stroke="#666666" points="41,-19 0,-19 0,0 41,0 41,-19"/>
<text text-anchor="middle" x="20.5" y="-7" font-family="Helvetica,sans-Serif" font-size="10.00">main</text>
</a>
</g>
</g>
<!-- Node5&#45;&gt;Node6 -->
<g id="edge5_Node000005_Node000006" class="edge">
<title>Node5&#45;&gt;Node6</title>
<g id="a_edge5_Node000005_Node000006"><a xlink:title=" ">
<path fill="none" stroke="#63b8ff" d="M66.56,-9.5C57.5,-9.5 48.58,-9.5 41.09,-9.5"/>
<polygon fill="#63b8ff" stroke="#63b8ff" points="66.79,-13 76.79,-9.5 66.79,-6 66.79,-13"/>
</a>
</g>
</g>
</g>
</svg>
