<?xml version="1.0" encoding="UTF-8" standalone="no"?>
<!DOCTYPE svg PUBLIC "-//W3C//DTD SVG 1.1//EN"
 "http://www.w3.org/Graphics/SVG/1.1/DTD/svg11.dtd">
<!-- Generated by graphviz version 2.43.0 (0)
 -->
<!-- Title: Grid::at Pages: 1 -->
<svg width="954pt" height="377pt"
 viewBox="0.00 0.00 954.00 377.00" xmlns="http://www.w3.org/2000/svg" xmlns:xlink="http://www.w3.org/1999/xlink">
<g id="graph0" class="graph" transform="scale(1 1) rotate(0) translate(4 373)">
<title>Grid::at</title>
<!-- Node1 -->
<g id="Node000001" class="node">
<title>Node1</title>
<g id="a_Node000001"><a xlink:title=" ">
<polygon fill="#999999" stroke="#666666" points="946,-191.5 893,-191.5 893,-172.5 946,-172.5 946,-191.5"/>
<text text-anchor="middle" x="919.5" y="-179.5" font-family="Helvetica,sans-Serif" font-size="10.00">Grid::at</text>
</a>
</g>
</g>
<!-- Node2 -->
<g id="Node000002" class="node">
<title>Node2</title>
<g id="a_Node000002"><a xlink:href="classGrid.html#a02a7a82d9d68be87c8f6d48f17b66bc9" target="_top" xlink:title="Cycles a tile to the next type when clicked.">
<polygon fill="white" stroke="#666666" points="469,-107.5 360,-107.5 360,-88.5 469,-88.5 469,-107.5"/>
<text text-anchor="middle" x="414.5" y="-95.5" font-family="Helvetica,sans-Serif" font-size="10.00">Grid::cycleTileType</text>
</a>
</g>
</g>
<!-- Node1&#45;&gt;Node2 -->
<g id="edge1_Node000001_Node000002" class="edge">
<title>Node1&#45;&gt;Node2</title>
<g id="a_edge1_Node000001_Node000002"><a xlink:title=" ">
<path fill="none" stroke="#63b8ff" d="M907.81,-163.89C897.18,-147.81 879.28,-125.31 857,-115 725.08,-53.96 546.54,-73.98 462.69,-88.49"/>
<polygon fill="#63b8ff" stroke="#63b8ff" points="904.92,-165.87 913.2,-172.48 910.84,-162.15 904.92,-165.87"/>
</a>
</g>
</g>
<!-- Node4 -->
<g id="Node000004" class="node">
<title>Node4</title>
<g id="a_Node000004"><a xlink:href="classGrid.html#a50d665e1a6ed00a7b5ed46d2a65872ad" target="_top" xlink:title="Dumps the grid to console in ASCII format Shows obstacles as &#39;#&#39; and movement costs as numbers.">
<polygon fill="white" stroke="#666666" points="249,-69.5 178,-69.5 178,-50.5 249,-50.5 249,-69.5"/>
<text text-anchor="middle" x="213.5" y="-57.5" font-family="Helvetica,sans-Serif" font-size="10.00">Grid::dump</text>
</a>
</g>
</g>
<!-- Node1&#45;&gt;Node4 -->
<g id="edge3_Node000001_Node000004" class="edge">
<title>Node1&#45;&gt;Node4</title>
<g id="a_edge3_Node000001_Node000004"><a xlink:title=" ">
<path fill="none" stroke="#63b8ff" d="M913.56,-162.62C906.03,-137.59 889.05,-94.99 857,-76 753.33,-14.56 367.2,-45.41 249.06,-56.55"/>
<polygon fill="#63b8ff" stroke="#63b8ff" points="910.24,-163.75 916.3,-172.44 916.98,-161.87 910.24,-163.75"/>
</a>
</g>
</g>
<!-- Node5 -->
<g id="Node000005" class="node">
<title>Node5</title>
<g id="a_Node000005"><a xlink:href="classPathfinder.html#aaa2739f2fbe69181ecc99c26c3e2c522" target="_top" xlink:title="Finds the shortest path from a start point to an end point using A*.">
<polygon fill="white" stroke="#666666" points="845,-343.5 735,-343.5 735,-324.5 845,-324.5 845,-343.5"/>
<text text-anchor="middle" x="790" y="-331.5" font-family="Helvetica,sans-Serif" font-size="10.00">Pathfinder::findPath</text>
</a>
</g>
</g>
<!-- Node1&#45;&gt;Node5 -->
<g id="edge5_Node000001_Node000005" class="edge">
<title>Node1&#45;&gt;Node5</title>
<g id="a_edge5_Node000001_Node000005"><a xlink:title=" ">
<path fill="none" stroke="#63b8ff" d="M914.07,-201.6C906.8,-229.43 889.77,-280.33 857,-310 850.04,-316.3 841.3,-320.98 832.47,-324.45"/>
<polygon fill="#63b8ff" stroke="#63b8ff" points="917.56,-202.06 916.53,-191.52 910.76,-200.4 917.56,-202.06"/>
</a>
</g>
</g>
<!-- Node6 -->
<g id="Node000006" class="node">
<title>Node6</title>
<g id="a_Node000006"><a xlink:href="classPathfinder.html#a606e84e19623d97559d949a2e27e451c" target="_top" xlink:title="Finds the shortest path from a start point to the nearest valid cell of a named zone.">
<polygon fill="white" stroke="#666666" points="687,-329.5 541,-329.5 541,-310.5 687,-310.5 687,-329.5"/>
<text text-anchor="middle" x="614" y="-317.5" font-family="Helvetica,sans-Serif" font-size="10.00">Pathfinder::findPathToZone</text>
</a>
</g>
</g>
<!-- Node1&#45;&gt;Node6 -->
<g id="edge14_Node000001_Node000006" class="edge">
<title>Node1&#45;&gt;Node6</title>
<g id="a_edge14_Node000001_Node000006"><a xlink:title=" ">
<path fill="none" stroke="#63b8ff" d="M911.51,-201.32C902.48,-223.35 884.57,-258.7 857,-277 829.71,-295.11 748.14,-306.97 687.2,-313.55"/>
<polygon fill="#63b8ff" stroke="#63b8ff" points="914.89,-202.29 915.24,-191.7 908.36,-199.76 914.89,-202.29"/>
</a>
</g>
</g>
<!-- Node11 -->
<g id="Node000011" class="node">
<title>Node11</title>
<g id="a_Node000011"><a xlink:href="classPlayerController.html#a2d86ce597777dc1026b2ba232110bee2" target="_top" xlink:title="Handles SDL keyboard events to move the player entity.">
<polygon fill="white" stroke="#666666" points="857,-30 723,-30 723,0 857,0 857,-30"/>
<text text-anchor="start" x="731" y="-18" font-family="Helvetica,sans-Serif" font-size="10.00">PlayerController::handle</text>
<text text-anchor="middle" x="790" y="-7" font-family="Helvetica,sans-Serif" font-size="10.00">Event</text>
</a>
</g>
</g>
<!-- Node1&#45;&gt;Node11 -->
<g id="edge15_Node000001_Node000011" class="edge">
<title>Node1&#45;&gt;Node11</title>
<g id="a_edge15_Node000001_Node000011"><a xlink:title=" ">
<path fill="none" stroke="#63b8ff" d="M914.51,-162.41C907.61,-133.08 890.8,-77.63 857,-44 851.41,-38.44 844.57,-33.86 837.44,-30.11"/>
<polygon fill="#63b8ff" stroke="#63b8ff" points="911.12,-163.26 916.69,-172.27 917.95,-161.75 911.12,-163.26"/>
</a>
</g>
</g>
<!-- Node12 -->
<g id="Node000012" class="node">
<title>Node12</title>
<g id="a_Node000012"><a xlink:href="classGrid.html#af3d66f362b026dda4300c110ad54fb45" target="_top" xlink:title=" ">
<polygon fill="white" stroke="#666666" points="668.5,-188.5 559.5,-188.5 559.5,-169.5 668.5,-169.5 668.5,-188.5"/>
<text text-anchor="middle" x="614" y="-176.5" font-family="Helvetica,sans-Serif" font-size="10.00">Grid::loadFromJson</text>
</a>
</g>
</g>
<!-- Node1&#45;&gt;Node12 -->
<g id="edge16_Node000001_Node000012" class="edge">
<title>Node1&#45;&gt;Node12</title>
<g id="a_edge16_Node000001_Node000012"><a xlink:title=" ">
<path fill="none" stroke="#63b8ff" d="M882.64,-181.65C829.71,-181.12 730.3,-180.14 668.67,-179.53"/>
<polygon fill="#63b8ff" stroke="#63b8ff" points="882.85,-185.15 892.89,-181.75 882.92,-178.15 882.85,-185.15"/>
</a>
</g>
</g>
<!-- Node13 -->
<g id="Node000013" class="node">
<title>Node13</title>
<g id="a_Node000013"><a xlink:href="classTiledParser.html#a5e4e6b0628ae3c4b1495fcd5746cc652" target="_top" xlink:title=" ">
<polygon fill="white" stroke="#666666" points="856,-154 724,-154 724,-124 856,-124 856,-154"/>
<text text-anchor="start" x="732" y="-142" font-family="Helvetica,sans-Serif" font-size="10.00">TiledParser::processTile</text>
<text text-anchor="middle" x="790" y="-131" font-family="Helvetica,sans-Serif" font-size="10.00">Layer</text>
</a>
</g>
</g>
<!-- Node1&#45;&gt;Node13 -->
<g id="edge18_Node000001_Node000013" class="edge">
<title>Node1&#45;&gt;Node13</title>
<g id="a_edge18_Node000001_Node000013"><a xlink:title=" ">
<path fill="none" stroke="#63b8ff" d="M882.99,-170.02C868.31,-165.07 851.12,-159.28 835.61,-154.04"/>
<polygon fill="#63b8ff" stroke="#63b8ff" points="882.1,-173.42 892.7,-173.3 884.34,-166.79 882.1,-173.42"/>
</a>
</g>
</g>
<!-- Node16 -->
<g id="Node000016" class="node">
<title>Node16</title>
<g id="a_Node000016"><a xlink:href="namespaceGridRenderer.html#acb569c89b4d3ee96ec4473b1db16ee2e" target="_top" xlink:title=" ">
<polygon fill="white" stroke="#666666" points="849.5,-267.5 730.5,-267.5 730.5,-248.5 849.5,-248.5 849.5,-267.5"/>
<text text-anchor="middle" x="790" y="-255.5" font-family="Helvetica,sans-Serif" font-size="10.00">GridRenderer::render</text>
</a>
</g>
</g>
<!-- Node1&#45;&gt;Node16 -->
<g id="edge22_Node000001_Node000016" class="edge">
<title>Node1&#45;&gt;Node16</title>
<g id="a_edge22_Node000001_Node000016"><a xlink:title=" ">
<path fill="none" stroke="#63b8ff" d="M902.02,-198.76C890.29,-209.94 873.71,-224.31 857,-234 846.87,-239.87 835.06,-244.71 824.25,-248.47"/>
<polygon fill="#63b8ff" stroke="#63b8ff" points="904.61,-201.12 909.3,-191.63 899.71,-196.12 904.61,-201.12"/>
</a>
</g>
</g>
<!-- Node18 -->
<g id="Node000018" class="node">
<title>Node18</title>
<g id="a_Node000018"><a xlink:href="classGrid.html#a13dd9dbf3d68c7a9bfbcb67388feb77c" target="_top" xlink:title="Save current grid state back to environment.json.">
<polygon fill="white" stroke="#666666" points="463,-226.5 366,-226.5 366,-207.5 463,-207.5 463,-226.5"/>
<text text-anchor="middle" x="414.5" y="-214.5" font-family="Helvetica,sans-Serif" font-size="10.00">Grid::saveToJson</text>
</a>
</g>
</g>
<!-- Node1&#45;&gt;Node18 -->
<g id="edge25_Node000001_Node000018" class="edge">
<title>Node1&#45;&gt;Node18</title>
<g id="a_edge25_Node000001_Node000018"><a xlink:title=" ">
<path fill="none" stroke="#63b8ff" d="M882.96,-190.51C874.5,-192.26 865.46,-193.9 857,-195 714.49,-213.49 544.25,-216.7 463.09,-217.09"/>
<polygon fill="#63b8ff" stroke="#63b8ff" points="883.89,-193.89 892.92,-188.35 882.41,-187.05 883.89,-193.89"/>
</a>
</g>
</g>
<!-- Node3 -->
<g id="Node000003" class="node">
<title>Node3</title>
<g id="a_Node000003"><a xlink:href="main_8cpp.html#a0ddf1224851353fc92bfbff6f499fa97" target="_top" xlink:title=" ">
<polygon fill="white" stroke="#666666" points="72,-205.5 31,-205.5 31,-186.5 72,-186.5 72,-205.5"/>
<text text-anchor="middle" x="51.5" y="-193.5" font-family="Helvetica,sans-Serif" font-size="10.00">main</text>
</a>
</g>
</g>
<!-- Node2&#45;&gt;Node3 -->
<g id="edge2_Node000002_Node000003" class="edge">
<title>Node2&#45;&gt;Node3</title>
<g id="a_edge2_Node000002_Node000003"><a xlink:title=" ">
<path fill="none" stroke="#63b8ff" d="M349.63,-99.76C292.69,-103.13 207.95,-112.62 139,-139 109.27,-150.38 79.3,-173.27 63.63,-186.32"/>
<polygon fill="#63b8ff" stroke="#63b8ff" points="350.13,-103.24 359.92,-99.2 349.75,-96.25 350.13,-103.24"/>
</a>
</g>
</g>
<!-- Node4&#45;&gt;Node3 -->
<g id="edge4_Node000004_Node000003" class="edge">
<title>Node4&#45;&gt;Node3</title>
<g id="a_edge4_Node000004_Node000003"><a xlink:title=" ">
<path fill="none" stroke="#63b8ff" d="M168.07,-71.19C157.97,-74.93 147.67,-79.78 139,-86 99.71,-114.18 69.24,-165.02 57.61,-186.26"/>
<polygon fill="#63b8ff" stroke="#63b8ff" points="169.29,-74.47 177.63,-67.94 167.04,-67.84 169.29,-74.47"/>
</a>
</g>
</g>
<!-- Node5&#45;&gt;Node6 -->
<g id="edge6_Node000005_Node000006" class="edge">
<title>Node5&#45;&gt;Node6</title>
<g id="a_edge6_Node000005_Node000006"><a xlink:title=" ">
<path fill="none" stroke="#63b8ff" d="M724.82,-328.84C712.6,-327.85 699.74,-326.82 687.3,-325.82"/>
<polygon fill="#63b8ff" stroke="#63b8ff" points="724.65,-332.33 734.9,-329.65 725.21,-325.36 724.65,-332.33"/>
</a>
</g>
</g>
<!-- Node7 -->
<g id="Node000007" class="node">
<title>Node7</title>
<g id="a_Node000007"><a xlink:href="classAISystem.html#ab7874e368d3dc14dc7838a8721e583e7" target="_top" xlink:title=" ">
<polygon fill="white" stroke="#666666" points="505,-329.5 324,-329.5 324,-310.5 505,-310.5 505,-329.5"/>
<text text-anchor="middle" x="414.5" y="-317.5" font-family="Helvetica,sans-Serif" font-size="10.00">AISystem::executeMovementPlan</text>
</a>
</g>
</g>
<!-- Node6&#45;&gt;Node7 -->
<g id="edge7_Node000006_Node000007" class="edge">
<title>Node6&#45;&gt;Node7</title>
<g id="a_edge7_Node000006_Node000007"><a xlink:title=" ">
<path fill="none" stroke="#63b8ff" d="M530.71,-320C522.31,-320 513.75,-320 505.27,-320"/>
<polygon fill="#63b8ff" stroke="#63b8ff" points="530.86,-323.5 540.86,-320 530.86,-316.5 530.86,-323.5"/>
</a>
</g>
</g>
<!-- Node8 -->
<g id="Node000008" class="node">
<title>Node8</title>
<g id="a_Node000008"><a xlink:href="classAISystem.html#a1d7894d2fba2b0f09b8929bbfd58ec4e" target="_top" xlink:title=" ">
<polygon fill="white" stroke="#666666" points="286,-369 141,-369 141,-339 286,-339 286,-369"/>
<text text-anchor="start" x="149" y="-357" font-family="Helvetica,sans-Serif" font-size="10.00">AISystem::processArriving</text>
<text text-anchor="middle" x="213.5" y="-346" font-family="Helvetica,sans-Serif" font-size="10.00">Entities</text>
</a>
</g>
</g>
<!-- Node7&#45;&gt;Node8 -->
<g id="edge8_Node000007_Node000008" class="edge">
<title>Node7&#45;&gt;Node8</title>
<g id="a_edge8_Node000007_Node000008"><a xlink:title=" ">
<path fill="none" stroke="#63b8ff" d="M347.7,-331.24C327.99,-334.61 306.29,-338.32 286.22,-341.75"/>
<polygon fill="#63b8ff" stroke="#63b8ff" points="348.54,-334.65 357.8,-329.52 347.36,-327.75 348.54,-334.65"/>
</a>
</g>
</g>
<!-- Node10 -->
<g id="Node000010" class="node">
<title>Node10</title>
<g id="a_Node000010"><a xlink:href="classAISystem.html#a6b84082c16eb0af5606049260db2d99f" target="_top" xlink:title=" ">
<polygon fill="white" stroke="#666666" points="288,-321 139,-321 139,-291 288,-291 288,-321"/>
<text text-anchor="start" x="147" y="-309" font-family="Helvetica,sans-Serif" font-size="10.00">AISystem::processPlanning</text>
<text text-anchor="middle" x="213.5" y="-298" font-family="Helvetica,sans-Serif" font-size="10.00">Entities</text>
</a>
</g>
</g>
<!-- Node7&#45;&gt;Node10 -->
<g id="edge11_Node000007_Node000010" class="edge">
<title>Node7&#45;&gt;Node10</title>
<g id="a_edge11_Node000007_Node000010"><a xlink:title=" ">
<path fill="none" stroke="#63b8ff" d="M313.77,-312.98C305.13,-312.38 296.49,-311.77 288.12,-311.18"/>
<polygon fill="#63b8ff" stroke="#63b8ff" points="313.68,-316.49 323.9,-313.7 314.17,-309.5 313.68,-316.49"/>
</a>
</g>
</g>
<!-- Node8&#45;&gt;Node3 -->
<g id="edge9_Node000008_Node000003" class="edge">
<title>Node8&#45;&gt;Node3</title>
<g id="a_edge9_Node000008_Node000003"><a xlink:title=" ">
<path fill="none" stroke="#63b8ff" d="M144.68,-333.96C142.71,-332.72 140.81,-331.4 139,-330 94.04,-295.35 65.62,-230.27 56.08,-205.71"/>
<polygon fill="#63b8ff" stroke="#63b8ff" points="143.21,-337.15 153.65,-338.94 146.6,-331.03 143.21,-337.15"/>
</a>
</g>
</g>
<!-- Node9 -->
<g id="Node000009" class="node">
<title>Node9</title>
<g id="a_Node000009"><a xlink:href="classAISystem.html#a4c1e02a04a3053c073e58ad44f4d0293" target="_top" xlink:title=" ">
<polygon fill="white" stroke="#666666" points="103,-339.5 0,-339.5 0,-320.5 103,-320.5 103,-339.5"/>
<text text-anchor="middle" x="51.5" y="-327.5" font-family="Helvetica,sans-Serif" font-size="10.00">AISystem::update</text>
</a>
</g>
</g>
<!-- Node8&#45;&gt;Node9 -->
<g id="edge10_Node000008_Node000009" class="edge">
<title>Node8&#45;&gt;Node9</title>
<g id="a_edge10_Node000008_Node000009"><a xlink:title=" ">
<path fill="none" stroke="#63b8ff" d="M130.81,-341.75C121.48,-340.35 112.18,-338.95 103.41,-337.64"/>
<polygon fill="#63b8ff" stroke="#63b8ff" points="130.52,-345.24 140.92,-343.26 131.55,-338.32 130.52,-345.24"/>
</a>
</g>
</g>
<!-- Node10&#45;&gt;Node3 -->
<g id="edge12_Node000010_Node000003" class="edge">
<title>Node10&#45;&gt;Node3</title>
<g id="a_edge12_Node000010_Node000003"><a xlink:title=" ">
<path fill="none" stroke="#63b8ff" d="M147.31,-286.6C144.45,-285.16 141.66,-283.63 139,-282 104.5,-260.89 73.33,-223.41 59.72,-205.73"/>
<polygon fill="#63b8ff" stroke="#63b8ff" points="146.12,-289.9 156.67,-290.87 149.03,-283.53 146.12,-289.9"/>
</a>
</g>
</g>
<!-- Node10&#45;&gt;Node9 -->
<g id="edge13_Node000010_Node000009" class="edge">
<title>Node10&#45;&gt;Node9</title>
<g id="a_edge13_Node000010_Node000009"><a xlink:title=" ">
<path fill="none" stroke="#63b8ff" d="M128.48,-318.6C119.88,-319.89 111.33,-321.17 103.25,-322.39"/>
<polygon fill="#63b8ff" stroke="#63b8ff" points="129.22,-322.03 138.59,-317.09 128.18,-315.11 129.22,-322.03"/>
</a>
</g>
</g>
<!-- Node12&#45;&gt;Node3 -->
<g id="edge17_Node000012_Node000003" class="edge">
<title>Node12&#45;&gt;Node3</title>
<g id="a_edge17_Node000012_Node000003"><a xlink:title=" ">
<path fill="none" stroke="#63b8ff" d="M548.98,-180.94C422.8,-184.77 147.66,-193.11 72.06,-195.41"/>
<polygon fill="#63b8ff" stroke="#63b8ff" points="549.37,-184.43 559.26,-180.63 549.16,-177.43 549.37,-184.43"/>
</a>
</g>
</g>
<!-- Node14 -->
<g id="Node000014" class="node">
<title>Node14</title>
<g id="a_Node000014"><a xlink:href="classTiledParser.html#abb818e8ba61e5fea3471f40507826f62" target="_top" xlink:title="Load a Tiled JSON file and populate the given Grid.">
<polygon fill="white" stroke="#666666" points="685.5,-148.5 542.5,-148.5 542.5,-129.5 685.5,-129.5 685.5,-148.5"/>
<text text-anchor="middle" x="614" y="-136.5" font-family="Helvetica,sans-Serif" font-size="10.00">TiledParser::loadTiledMap</text>
</a>
</g>
</g>
<!-- Node13&#45;&gt;Node14 -->
<g id="edge19_Node000013_Node000014" class="edge">
<title>Node13&#45;&gt;Node14</title>
<g id="a_edge19_Node000013_Node000014"><a xlink:title=" ">
<path fill="none" stroke="#63b8ff" d="M713.69,-139C704.36,-139 694.86,-139 685.6,-139"/>
<polygon fill="#63b8ff" stroke="#63b8ff" points="713.71,-142.5 723.71,-139 713.71,-135.5 713.71,-142.5"/>
</a>
</g>
</g>
<!-- Node15 -->
<g id="Node000015" class="node">
<title>Node15</title>
<g id="a_Node000015"><a xlink:href="classGrid.html#ae7f84fbbbb1ff7597081f64be300196c" target="_top" xlink:title="Load grid from a Tiled Map Editor JSON file.">
<polygon fill="white" stroke="#666666" points="471,-148.5 358,-148.5 358,-129.5 471,-129.5 471,-148.5"/>
<text text-anchor="middle" x="414.5" y="-136.5" font-family="Helvetica,sans-Serif" font-size="10.00">Grid::loadFromTiled</text>
</a>
</g>
</g>
<!-- Node14&#45;&gt;Node15 -->
<g id="edge20_Node000014_Node000015" class="edge">
<title>Node14&#45;&gt;Node15</title>
<g id="a_edge20_Node000014_Node000015"><a xlink:title=" ">
<path fill="none" stroke="#63b8ff" d="M532,-139C511.57,-139 490.08,-139 471.2,-139"/>
<polygon fill="#63b8ff" stroke="#63b8ff" points="532.26,-142.5 542.26,-139 532.26,-135.5 532.26,-142.5"/>
</a>
</g>
</g>
<!-- Node15&#45;&gt;Node3 -->
<g id="edge21_Node000015_Node000003" class="edge">
<title>Node15&#45;&gt;Node3</title>
<g id="a_edge21_Node000015_Node000003"><a xlink:title=" ">
<path fill="none" stroke="#63b8ff" d="M347.69,-139.66C291.58,-141.43 209.12,-146.89 139,-163 115.35,-168.43 89.5,-178.94 72.28,-186.64"/>
<polygon fill="#63b8ff" stroke="#63b8ff" points="347.96,-143.15 357.85,-139.37 347.76,-136.16 347.96,-143.15"/>
</a>
</g>
</g>
<!-- Node17 -->
<g id="Node000017" class="node">
<title>Node17</title>
<g id="a_Node000017"><a xlink:href="namespaceGridRenderer.html#ac325da891d9fa57d4a93243fef147c8b" target="_top" xlink:title=" ">
<polygon fill="white" stroke="#666666" points="284,-273 143,-273 143,-243 284,-243 284,-273"/>
<text text-anchor="start" x="151" y="-261" font-family="Helvetica,sans-Serif" font-size="10.00">GridRenderer::renderWith</text>
<text text-anchor="middle" x="213.5" y="-250" font-family="Helvetica,sans-Serif" font-size="10.00">Labels</text>
</a>
</g>
</g>
<!-- Node16&#45;&gt;Node17 -->
<g id="edge23_Node000016_Node000017" class="edge">
<title>Node16&#45;&gt;Node17</title>
<g id="a_edge23_Node000016_Node000017"><a xlink:title=" ">
<path fill="none" stroke="#63b8ff" d="M720.16,-258C609.98,-258 395.21,-258 284.38,-258"/>
<polygon fill="#63b8ff" stroke="#63b8ff" points="720.49,-261.5 730.49,-258 720.49,-254.5 720.49,-261.5"/>
</a>
</g>
</g>
<!-- Node17&#45;&gt;Node3 -->
<g id="edge24_Node000017_Node000003" class="edge">
<title>Node17&#45;&gt;Node3</title>
<g id="a_edge24_Node000017_Node000003"><a xlink:title=" ">
<path fill="none" stroke="#63b8ff" d="M164.08,-239.24C133.33,-227.32 95.17,-212.54 72.39,-203.71"/>
<polygon fill="#63b8ff" stroke="#63b8ff" points="163.18,-242.64 173.77,-242.99 165.71,-236.11 163.18,-242.64"/>
</a>
</g>
</g>
<!-- Node18&#45;&gt;Node3 -->
<g id="edge26_Node000018_Node000003" class="edge">
<title>Node18&#45;&gt;Node3</title>
<g id="a_edge26_Node000018_Node000003"><a xlink:title=" ">
<path fill="none" stroke="#63b8ff" d="M355.7,-213.64C273.09,-208.83 125.37,-200.24 72.22,-197.15"/>
<polygon fill="#63b8ff" stroke="#63b8ff" points="355.75,-217.15 365.93,-214.23 356.15,-210.16 355.75,-217.15"/>
</a>
</g>
</g>
</g>
</svg>
