<?xml version="1.0" encoding="UTF-8" standalone="no"?>
<!DOCTYPE svg PUBLIC "-//W3C//DTD SVG 1.1//EN"
 "http://www.w3.org/Graphics/SVG/1.1/DTD/svg11.dtd">
<!-- Generated by graphviz version 2.43.0 (0)
 -->
<!-- Title: AISystem::processArrivingEntities Pages: 1 -->
<svg width="292pt" height="64pt"
 viewBox="0.00 0.00 292.00 64.00" xmlns="http://www.w3.org/2000/svg" xmlns:xlink="http://www.w3.org/1999/xlink">
<g id="graph0" class="graph" transform="scale(1 1) rotate(0) translate(4 60)">
<title>AISystem::processArrivingEntities</title>
<!-- Node1 -->
<g id="Node000001" class="node">
<title>Node1</title>
<g id="a_Node000001"><a xlink:title=" ">
<polygon fill="#999999" stroke="#666666" points="284,-42.5 139,-42.5 139,-12.5 284,-12.5 284,-42.5"/>
<text text-anchor="start" x="147" y="-30.5" font-family="Helvetica,sans-Serif" font-size="10.00">AISystem::processArriving</text>
<text text-anchor="middle" x="211.5" y="-19.5" font-family="Helvetica,sans-Serif" font-size="10.00">Entities</text>
</a>
</g>
</g>
<!-- Node2 -->
<g id="Node000002" class="node">
<title>Node2</title>
<g id="a_Node000002"><a xlink:href="main_8cpp.html#a0ddf1224851353fc92bfbff6f499fa97" target="_top" xlink:title=" ">
<polygon fill="white" stroke="#666666" points="72,-56 31,-56 31,-37 72,-37 72,-56"/>
<text text-anchor="middle" x="51.5" y="-44" font-family="Helvetica,sans-Serif" font-size="10.00">main</text>
</a>
</g>
</g>
<!-- Node1&#45;&gt;Node2 -->
<g id="edge1_Node000001_Node000002" class="edge">
<title>Node1&#45;&gt;Node2</title>
<g id="a_edge1_Node000001_Node000002"><a xlink:title=" ">
<path fill="none" stroke="#63b8ff" d="M128.82,-37.32C107.6,-39.87 86.64,-42.39 72.07,-44.15"/>
<polygon fill="#63b8ff" stroke="#63b8ff" points="129.39,-40.78 138.9,-36.11 128.55,-33.83 129.39,-40.78"/>
</a>
</g>
</g>
<!-- Node3 -->
<g id="Node000003" class="node">
<title>Node3</title>
<g id="a_Node000003"><a xlink:href="classAISystem.html#a4c1e02a04a3053c073e58ad44f4d0293" target="_top" xlink:title=" ">
<polygon fill="white" stroke="#666666" points="103,-19 0,-19 0,0 103,0 103,-19"/>
<text text-anchor="middle" x="51.5" y="-7" font-family="Helvetica,sans-Serif" font-size="10.00">AISystem::update</text>
</a>
</g>
</g>
<!-- Node1&#45;&gt;Node3 -->
<g id="edge2_Node000001_Node000003" class="edge">
<title>Node1&#45;&gt;Node3</title>
<g id="a_edge2_Node000001_Node000003"><a xlink:title=" ">
<path fill="none" stroke="#63b8ff" d="M128.95,-18.21C120.14,-17.21 111.38,-16.21 103.09,-15.26"/>
<polygon fill="#63b8ff" stroke="#63b8ff" points="128.56,-21.69 138.9,-19.34 129.36,-14.73 128.56,-21.69"/>
</a>
</g>
</g>
</g>
</svg>
