<?xml version="1.0" encoding="UTF-8" standalone="no"?>
<!DOCTYPE svg PUBLIC "-//W3C//DTD SVG 1.1//EN"
 "http://www.w3.org/Graphics/SVG/1.1/DTD/svg11.dtd">
<!-- Generated by graphviz version 2.43.0 (0)
 -->
<!-- Title: /home/sean/Projects/Brenda/src/Clock.h Pages: 1 -->
<svg width="140pt" height="148pt"
 viewBox="0.00 0.00 140.00 148.00" xmlns="http://www.w3.org/2000/svg" xmlns:xlink="http://www.w3.org/1999/xlink">

<svg id="main" version="1.1" xmlns="http://www.w3.org/2000/svg" xmlns:xlink="http://www.w3.org/1999/xlink" xml:space="preserve" onload="init(evt)">
<style type="text/css"><![CDATA[
.node, .edge {opacity: 0.7;}
.node.selected, .edge.selected {opacity: 1;}
.edge:hover path { stroke: red; }
.edge:hover polygon { stroke: red; fill: red; }
]]></style>
<script type="application/ecmascript" xlink:href="svg.min.js"/>
<svg id="graph" class="graph">
<g id="graph0" class="graph" transform="scale(1 1) rotate(0) translate(4 144)">
<title>/home/sean/Projects/Brenda/src/Clock.h</title>
<!-- Node1 -->
<g id="Node000001" class="node">
<title>Node1</title>
<g id="a_Node000001"><a xlink:title=" ">
<polygon fill="#999999" stroke="#666666" points="116,-140 0,-140 0,-110 116,-110 116,-140"/>
<text text-anchor="start" x="8" y="-128" font-family="Helvetica,sans-Serif" font-size="10.00">/home/sean/Projects</text>
<text text-anchor="middle" x="58" y="-117" font-family="Helvetica,sans-Serif" font-size="10.00">/Brenda/src/Clock.h</text>
</a>
</g>
</g>
<!-- Node2 -->
<g id="Node000002" class="node">
<title>Node2</title>
<g id="a_Node000002"><a xlink:title=" ">
<polygon fill="#e0e0e0" stroke="#999999" points="80,-19 36,-19 36,0 80,0 80,-19"/>
<text text-anchor="middle" x="58" y="-7" font-family="Helvetica,sans-Serif" font-size="10.00">string</text>
</a>
</g>
</g>
<!-- Node1&#45;&gt;Node2 -->
<g id="edge1_Node000001_Node000002" class="edge">
<title>Node1&#45;&gt;Node2</title>
<g id="a_edge1_Node000001_Node000002"><a xlink:title=" ">
<path fill="none" stroke="#63b8ff" d="M51.71,-109.81C46.31,-95.92 39.87,-74.11 43,-55 44.47,-46.05 47.49,-36.47 50.44,-28.51"/>
<polygon fill="#63b8ff" stroke="#63b8ff" points="53.72,-29.74 54.14,-19.15 47.21,-27.16 53.72,-29.74"/>
</a>
</g>
</g>
<!-- Node3 -->
<g id="Node000003" class="node">
<title>Node3</title>
<g id="a_Node000003"><a xlink:href="TimeOfDay_8h.html" target="_top" xlink:title=" ">
<polygon fill="white" stroke="#666666" points="132,-74 52,-74 52,-55 132,-55 132,-74"/>
<text text-anchor="middle" x="92" y="-62" font-family="Helvetica,sans-Serif" font-size="10.00">TimeOfDay.h</text>
</a>
</g>
</g>
<!-- Node1&#45;&gt;Node3 -->
<g id="edge2_Node000001_Node000003" class="edge">
<title>Node1&#45;&gt;Node3</title>
<g id="a_edge2_Node000001_Node000003"><a xlink:title=" ">
<path fill="none" stroke="#63b8ff" d="M66.23,-109.84C70.91,-101.78 76.82,-91.62 81.8,-83.06"/>
<polygon fill="#63b8ff" stroke="#63b8ff" points="84.91,-84.67 86.91,-74.27 78.85,-81.15 84.91,-84.67"/>
</a>
</g>
</g>
<!-- Node3&#45;&gt;Node2 -->
<g id="edge3_Node000003_Node000002" class="edge">
<title>Node3&#45;&gt;Node2</title>
<g id="a_edge3_Node000003_Node000002"><a xlink:title=" ">
<path fill="none" stroke="#63b8ff" d="M86.39,-54.75C81.68,-47.42 74.83,-36.73 69.03,-27.7"/>
<polygon fill="#63b8ff" stroke="#63b8ff" points="71.86,-25.62 63.51,-19.09 65.96,-29.4 71.86,-25.62"/>
</a>
</g>
</g>
</g>
</svg>
</svg>

<style type='text/css'>
<![CDATA[
[data-mouse-over-selected='false'] { opacity: 0.7; }
[data-mouse-over-selected='true']  { opacity: 1.0; }
]]>
</style>
<script type="application/ecmascript"><![CDATA[
document.addEventListener('DOMContentLoaded', (event) => {
  highlightEdges();
  highlightAdjacentNodes();
});
]]></script>
</svg>
