<?xml version="1.0" encoding="UTF-8" standalone="no"?>
<!DOCTYPE svg PUBLIC "-//W3C//DTD SVG 1.1//EN"
 "http://www.w3.org/Graphics/SVG/1.1/DTD/svg11.dtd">
<!-- Generated by graphviz version 2.43.0 (0)
 -->
<!-- Title: /home/sean/Projects/Brenda/src/Clock.cpp Pages: 1 -->
<svg width="210pt" height="203pt"
 viewBox="0.00 0.00 209.50 203.00" xmlns="http://www.w3.org/2000/svg" xmlns:xlink="http://www.w3.org/1999/xlink">
<g id="graph0" class="graph" transform="scale(1 1) rotate(0) translate(4 199)">
<title>/home/sean/Projects/Brenda/src/Clock.cpp</title>
<!-- Node1 -->
<g id="Node000001" class="node">
<title>Node1</title>
<g id="a_Node000001"><a xlink:title=" ">
<polygon fill="#999999" stroke="#666666" points="160.5,-195 38.5,-195 38.5,-165 160.5,-165 160.5,-195"/>
<text text-anchor="start" x="46.5" y="-183" font-family="Helvetica,sans-Serif" font-size="10.00">/home/sean/Projects</text>
<text text-anchor="middle" x="99.5" y="-172" font-family="Helvetica,sans-Serif" font-size="10.00">/Brenda/src/Clock.cpp</text>
</a>
</g>
</g>
<!-- Node2 -->
<g id="Node000002" class="node">
<title>Node2</title>
<g id="a_Node000002"><a xlink:href="Clock_8h.html" target="_top" xlink:title=" ">
<polygon fill="white" stroke="#666666" points="53,-129 0,-129 0,-110 53,-110 53,-129"/>
<text text-anchor="middle" x="26.5" y="-117" font-family="Helvetica,sans-Serif" font-size="10.00">Clock.h</text>
</a>
</g>
</g>
<!-- Node1&#45;&gt;Node2 -->
<g id="edge1_Node000001_Node000002" class="edge">
<title>Node1&#45;&gt;Node2</title>
<g id="a_edge1_Node000001_Node000002"><a xlink:title=" ">
<path fill="none" stroke="#63b8ff" d="M81.83,-164.84C70.8,-156 56.61,-144.63 45.37,-135.62"/>
<polygon fill="#63b8ff" stroke="#63b8ff" points="47.43,-132.79 37.44,-129.27 43.05,-138.25 47.43,-132.79"/>
</a>
</g>
</g>
<!-- Node5 -->
<g id="Node000005" class="node">
<title>Node5</title>
<g id="a_Node000005"><a xlink:title=" ">
<polygon fill="#e0e0e0" stroke="#999999" points="127.5,-129 71.5,-129 71.5,-110 127.5,-110 127.5,-129"/>
<text text-anchor="middle" x="99.5" y="-117" font-family="Helvetica,sans-Serif" font-size="10.00">sstream</text>
</a>
</g>
</g>
<!-- Node1&#45;&gt;Node5 -->
<g id="edge5_Node000001_Node000005" class="edge">
<title>Node1&#45;&gt;Node5</title>
<g id="a_edge5_Node000001_Node000005"><a xlink:title=" ">
<path fill="none" stroke="#63b8ff" d="M99.5,-164.84C99.5,-157.21 99.5,-147.7 99.5,-139.45"/>
<polygon fill="#63b8ff" stroke="#63b8ff" points="103,-139.27 99.5,-129.27 96,-139.27 103,-139.27"/>
</a>
</g>
</g>
<!-- Node6 -->
<g id="Node000006" class="node">
<title>Node6</title>
<g id="a_Node000006"><a xlink:title=" ">
<polygon fill="#e0e0e0" stroke="#999999" points="201.5,-129 145.5,-129 145.5,-110 201.5,-110 201.5,-129"/>
<text text-anchor="middle" x="173.5" y="-117" font-family="Helvetica,sans-Serif" font-size="10.00">iomanip</text>
</a>
</g>
</g>
<!-- Node1&#45;&gt;Node6 -->
<g id="edge6_Node000001_Node000006" class="edge">
<title>Node1&#45;&gt;Node6</title>
<g id="a_edge6_Node000001_Node000006"><a xlink:title=" ">
<path fill="none" stroke="#63b8ff" d="M117.41,-164.84C128.59,-156 142.98,-144.63 154.38,-135.62"/>
<polygon fill="#63b8ff" stroke="#63b8ff" points="156.74,-138.21 162.41,-129.27 152.4,-132.72 156.74,-138.21"/>
</a>
</g>
</g>
<!-- Node3 -->
<g id="Node000003" class="node">
<title>Node3</title>
<g id="a_Node000003"><a xlink:title=" ">
<polygon fill="#e0e0e0" stroke="#999999" points="48.5,-19 4.5,-19 4.5,0 48.5,0 48.5,-19"/>
<text text-anchor="middle" x="26.5" y="-7" font-family="Helvetica,sans-Serif" font-size="10.00">string</text>
</a>
</g>
</g>
<!-- Node2&#45;&gt;Node3 -->
<g id="edge2_Node000002_Node000003" class="edge">
<title>Node2&#45;&gt;Node3</title>
<g id="a_edge2_Node000002_Node000003"><a xlink:title=" ">
<path fill="none" stroke="#63b8ff" d="M22.64,-109.85C18.94,-101.04 13.61,-86.87 11.5,-74 8.95,-58.46 13.6,-41.06 18.37,-28.41"/>
<polygon fill="#63b8ff" stroke="#63b8ff" points="21.66,-29.63 22.26,-19.05 15.19,-26.94 21.66,-29.63"/>
</a>
</g>
</g>
<!-- Node4 -->
<g id="Node000004" class="node">
<title>Node4</title>
<g id="a_Node000004"><a xlink:href="TimeOfDay_8h.html" target="_top" xlink:title=" ">
<polygon fill="white" stroke="#666666" points="100.5,-74 20.5,-74 20.5,-55 100.5,-55 100.5,-74"/>
<text text-anchor="middle" x="60.5" y="-62" font-family="Helvetica,sans-Serif" font-size="10.00">TimeOfDay.h</text>
</a>
</g>
</g>
<!-- Node2&#45;&gt;Node4 -->
<g id="edge3_Node000002_Node000004" class="edge">
<title>Node2&#45;&gt;Node4</title>
<g id="a_edge3_Node000002_Node000004"><a xlink:title=" ">
<path fill="none" stroke="#63b8ff" d="M32.11,-109.75C36.82,-102.42 43.67,-91.73 49.47,-82.7"/>
<polygon fill="#63b8ff" stroke="#63b8ff" points="52.54,-84.4 54.99,-74.09 46.64,-80.62 52.54,-84.4"/>
</a>
</g>
</g>
<!-- Node4&#45;&gt;Node3 -->
<g id="edge4_Node000004_Node000003" class="edge">
<title>Node4&#45;&gt;Node3</title>
<g id="a_edge4_Node000004_Node000003"><a xlink:title=" ">
<path fill="none" stroke="#63b8ff" d="M54.89,-54.75C50.18,-47.42 43.33,-36.73 37.53,-27.7"/>
<polygon fill="#63b8ff" stroke="#63b8ff" points="40.36,-25.62 32.01,-19.09 34.46,-29.4 40.36,-25.62"/>
</a>
</g>
</g>
</g>
</svg>
