<?xml version="1.0" encoding="UTF-8" standalone="no"?>
<!DOCTYPE svg PUBLIC "-//W3C//DTD SVG 1.1//EN"
 "http://www.w3.org/Graphics/SVG/1.1/DTD/svg11.dtd">
<!-- Generated by graphviz version 2.43.0 (0)
 -->
<!-- Title: /home/sean/Projects/Brenda/src/ECS/ControllerManager.h Pages: 1 -->
<svg width="1239pt" height="324pt"
 viewBox="0.00 0.00 1239.00 324.00" xmlns="http://www.w3.org/2000/svg" xmlns:xlink="http://www.w3.org/1999/xlink">
<g id="graph0" class="graph" transform="scale(1 1) rotate(0) translate(4 320)">
<title>/home/sean/Projects/Brenda/src/ECS/ControllerManager.h</title>
<!-- Node1 -->
<g id="Node000001" class="node">
<title>Node1</title>
<g id="a_Node000001"><a xlink:title=" ">
<polygon fill="#999999" stroke="#666666" points="444,-316 300,-316 300,-275 444,-275 444,-316"/>
<text text-anchor="start" x="308" y="-304" font-family="Helvetica,sans-Serif" font-size="10.00">/home/sean/Projects</text>
<text text-anchor="start" x="308" y="-293" font-family="Helvetica,sans-Serif" font-size="10.00">/Brenda/src/ECS/Controller</text>
<text text-anchor="middle" x="372" y="-282" font-family="Helvetica,sans-Serif" font-size="10.00">Manager.h</text>
</a>
</g>
</g>
<!-- Node2 -->
<g id="Node000002" class="node">
<title>Node2</title>
<g id="a_Node000002"><a xlink:title=" ">
<polygon fill="#e0e0e0" stroke="#999999" points="594.5,-74 501.5,-74 501.5,-55 594.5,-55 594.5,-74"/>
<text text-anchor="middle" x="548" y="-62" font-family="Helvetica,sans-Serif" font-size="10.00">unordered_map</text>
</a>
</g>
</g>
<!-- Node1&#45;&gt;Node2 -->
<g id="edge1_Node000001_Node000002" class="edge">
<title>Node1&#45;&gt;Node2</title>
<g id="a_edge1_Node000001_Node000002"><a xlink:title=" ">
<path fill="none" stroke="#63b8ff" d="M367.7,-274.83C360.86,-237.85 352.02,-157.42 392,-110 404.96,-94.63 451.97,-82.57 491.03,-74.9"/>
<polygon fill="#63b8ff" stroke="#63b8ff" points="492.11,-78.26 501.28,-72.95 490.8,-71.38 492.11,-78.26"/>
</a>
</g>
</g>
<!-- Node3 -->
<g id="Node000003" class="node">
<title>Node3</title>
<g id="a_Node000003"><a xlink:title=" ">
<polygon fill="#e0e0e0" stroke="#999999" points="58,-74 0,-74 0,-55 58,-55 58,-74"/>
<text text-anchor="middle" x="29" y="-62" font-family="Helvetica,sans-Serif" font-size="10.00">memory</text>
</a>
</g>
</g>
<!-- Node1&#45;&gt;Node3 -->
<g id="edge2_Node000001_Node000003" class="edge">
<title>Node1&#45;&gt;Node3</title>
<g id="a_edge2_Node000001_Node000003"><a xlink:title=" ">
<path fill="none" stroke="#63b8ff" d="M310.79,-274.95C285.79,-265.74 257.15,-253.55 233,-239 154.81,-191.88 76.55,-114.97 44.33,-81.69"/>
<polygon fill="#63b8ff" stroke="#63b8ff" points="46.6,-79.01 37.15,-74.21 41.55,-83.85 46.6,-79.01"/>
</a>
</g>
</g>
<!-- Node4 -->
<g id="Node000004" class="node">
<title>Node4</title>
<g id="a_Node000004"><a xlink:href="Entity_8h.html" target="_top" xlink:title=" ">
<polygon fill="white" stroke="#666666" points="129.5,-74 76.5,-74 76.5,-55 129.5,-55 129.5,-74"/>
<text text-anchor="middle" x="103" y="-62" font-family="Helvetica,sans-Serif" font-size="10.00">Entity.h</text>
</a>
</g>
</g>
<!-- Node1&#45;&gt;Node4 -->
<g id="edge3_Node000001_Node000004" class="edge">
<title>Node1&#45;&gt;Node4</title>
<g id="a_edge3_Node000001_Node000004"><a xlink:title=" ">
<path fill="none" stroke="#63b8ff" d="M321.68,-274.98C300.93,-265.7 277.29,-253.45 258,-239 195.07,-191.85 138.21,-116.06 114.58,-82.47"/>
<polygon fill="#63b8ff" stroke="#63b8ff" points="117.4,-80.39 108.82,-74.17 111.65,-84.39 117.4,-80.39"/>
</a>
</g>
</g>
<!-- Node6 -->
<g id="Node000006" class="node">
<title>Node6</title>
<g id="a_Node000006"><a xlink:href="IComponentManager_8h.html" target="_top" xlink:title=" ">
<polygon fill="white" stroke="#666666" points="274.5,-74 147.5,-74 147.5,-55 274.5,-55 274.5,-74"/>
<text text-anchor="middle" x="211" y="-62" font-family="Helvetica,sans-Serif" font-size="10.00">IComponentManager.h</text>
</a>
</g>
</g>
<!-- Node1&#45;&gt;Node6 -->
<g id="edge5_Node000001_Node000006" class="edge">
<title>Node1&#45;&gt;Node6</title>
<g id="a_edge5_Node000001_Node000006"><a xlink:title=" ">
<path fill="none" stroke="#63b8ff" d="M336.25,-274.95C292.07,-248.5 219.07,-196.73 189,-129 182.22,-113.73 189.91,-95.67 198.01,-82.72"/>
<polygon fill="#63b8ff" stroke="#63b8ff" points="201.01,-84.53 203.77,-74.31 195.23,-80.58 201.01,-84.53"/>
</a>
</g>
</g>
<!-- Node7 -->
<g id="Node000007" class="node">
<title>Node7</title>
<g id="a_Node000007"><a xlink:href="PlayerController_8h.html" target="_top" xlink:title=" ">
<polygon fill="white" stroke="#666666" points="678.5,-239 505.5,-239 505.5,-220 678.5,-220 678.5,-239"/>
<text text-anchor="middle" x="592" y="-227" font-family="Helvetica,sans-Serif" font-size="10.00">./components/PlayerController.h</text>
</a>
</g>
</g>
<!-- Node1&#45;&gt;Node7 -->
<g id="edge6_Node000001_Node000007" class="edge">
<title>Node1&#45;&gt;Node7</title>
<g id="a_edge6_Node000001_Node000007"><a xlink:title=" ">
<path fill="none" stroke="#63b8ff" d="M439.2,-274.95C476.49,-264.1 521.55,-251 553.03,-241.84"/>
<polygon fill="#63b8ff" stroke="#63b8ff" points="554.13,-245.16 562.75,-239.01 552.17,-238.44 554.13,-245.16"/>
</a>
</g>
</g>
<!-- Node8 -->
<g id="Node000008" class="node">
<title>Node8</title>
<g id="a_Node000008"><a xlink:href="Controller_8h.html" target="_top" xlink:title=" ">
<polygon fill="white" stroke="#666666" points="831.5,-184 758.5,-184 758.5,-165 831.5,-165 831.5,-184"/>
<text text-anchor="middle" x="795" y="-172" font-family="Helvetica,sans-Serif" font-size="10.00">Controller.h</text>
</a>
</g>
</g>
<!-- Node1&#45;&gt;Node8 -->
<g id="edge38_Node000001_Node000008" class="edge">
<title>Node1&#45;&gt;Node8</title>
<g id="a_edge38_Node000001_Node000008"><a xlink:title=" ">
<path fill="none" stroke="#63b8ff" d="M444.21,-289.28C509.55,-282.83 607.56,-268.79 688,-239 720.82,-226.84 754.96,-204.64 775.6,-189.97"/>
<polygon fill="#63b8ff" stroke="#63b8ff" points="777.78,-192.72 783.83,-184.02 773.67,-187.05 777.78,-192.72"/>
</a>
</g>
</g>
<!-- Node10 -->
<g id="Node000010" class="node">
<title>Node10</title>
<g id="a_Node000010"><a xlink:href="MovementManager_8h.html" target="_top" xlink:title=" ">
<polygon fill="white" stroke="#666666" points="529.5,-184 400.5,-184 400.5,-165 529.5,-165 529.5,-184"/>
<text text-anchor="middle" x="465" y="-172" font-family="Helvetica,sans-Serif" font-size="10.00">../MovementManager.h</text>
</a>
</g>
</g>
<!-- Node1&#45;&gt;Node10 -->
<g id="edge39_Node000001_Node000010" class="edge">
<title>Node1&#45;&gt;Node10</title>
<g id="a_edge39_Node000001_Node000010"><a xlink:title=" ">
<path fill="none" stroke="#63b8ff" d="M387.36,-274.85C405.4,-251.76 435.03,-213.84 451.99,-192.14"/>
<polygon fill="#63b8ff" stroke="#63b8ff" points="454.82,-194.21 458.22,-184.18 449.3,-189.9 454.82,-194.21"/>
</a>
</g>
</g>
<!-- Node15 -->
<g id="Node000015" class="node">
<title>Node15</title>
<g id="a_Node000015"><a xlink:href="PositionManager_8h.html" target="_top" xlink:title=" ">
<polygon fill="white" stroke="#666666" points="305.5,-129 198.5,-129 198.5,-110 305.5,-110 305.5,-129"/>
<text text-anchor="middle" x="252" y="-117" font-family="Helvetica,sans-Serif" font-size="10.00">PositionManager.h</text>
</a>
</g>
</g>
<!-- Node1&#45;&gt;Node15 -->
<g id="edge40_Node000001_Node000015" class="edge">
<title>Node1&#45;&gt;Node15</title>
<g id="a_edge40_Node000001_Node000015"><a xlink:title=" ">
<path fill="none" stroke="#63b8ff" d="M358.47,-274.88C334.81,-240.58 286.33,-170.28 263.89,-137.74"/>
<polygon fill="#63b8ff" stroke="#63b8ff" points="266.61,-135.52 258.05,-129.27 260.85,-139.49 266.61,-135.52"/>
</a>
</g>
</g>
<!-- Node18 -->
<g id="Node000018" class="node">
<title>Node18</title>
<g id="a_Node000018"><a xlink:href="Grid_8h.html" target="_top" xlink:title=" ">
<polygon fill="white" stroke="#666666" points="914,-184 850,-184 850,-165 914,-165 914,-184"/>
<text text-anchor="middle" x="882" y="-172" font-family="Helvetica,sans-Serif" font-size="10.00">../../Grid.h</text>
</a>
</g>
</g>
<!-- Node1&#45;&gt;Node18 -->
<g id="edge41_Node000001_Node000018" class="edge">
<title>Node1&#45;&gt;Node18</title>
<g id="a_edge41_Node000001_Node000018"><a xlink:title=" ">
<path fill="none" stroke="#63b8ff" d="M444.03,-287.77C515.49,-280.01 627.66,-264.86 722,-239 770.11,-225.81 823.51,-202.82 854.85,-188.42"/>
<polygon fill="#63b8ff" stroke="#63b8ff" points="856.62,-191.46 864.21,-184.07 853.67,-185.11 856.62,-191.46"/>
</a>
</g>
</g>
<!-- Node5 -->
<g id="Node000005" class="node">
<title>Node5</title>
<g id="a_Node000005"><a xlink:title=" ">
<polygon fill="#e0e0e0" stroke="#999999" points="128,-19 78,-19 78,0 128,0 128,-19"/>
<text text-anchor="middle" x="103" y="-7" font-family="Helvetica,sans-Serif" font-size="10.00">cstdint</text>
</a>
</g>
</g>
<!-- Node4&#45;&gt;Node5 -->
<g id="edge4_Node000004_Node000005" class="edge">
<title>Node4&#45;&gt;Node5</title>
<g id="a_edge4_Node000004_Node000005"><a xlink:title=" ">
<path fill="none" stroke="#63b8ff" d="M103,-54.75C103,-47.8 103,-37.85 103,-29.13"/>
<polygon fill="#63b8ff" stroke="#63b8ff" points="106.5,-29.09 103,-19.09 99.5,-29.09 106.5,-29.09"/>
</a>
</g>
</g>
<!-- Node7&#45;&gt;Node8 -->
<g id="edge7_Node000007_Node000008" class="edge">
<title>Node7&#45;&gt;Node8</title>
<g id="a_edge7_Node000007_Node000008"><a xlink:title=" ">
<path fill="none" stroke="#63b8ff" d="M624.62,-219.98C659.29,-210.93 714.26,-196.58 752.35,-186.64"/>
<polygon fill="#63b8ff" stroke="#63b8ff" points="753.34,-189.99 762.13,-184.08 751.57,-183.22 753.34,-189.99"/>
</a>
</g>
</g>
<!-- Node7&#45;&gt;Node10 -->
<g id="edge9_Node000007_Node000010" class="edge">
<title>Node7&#45;&gt;Node10</title>
<g id="a_edge9_Node000007_Node000010"><a xlink:title=" ">
<path fill="none" stroke="#63b8ff" d="M571.6,-219.98C550.98,-211.38 518.89,-197.99 495.31,-188.15"/>
<polygon fill="#63b8ff" stroke="#63b8ff" points="496.35,-184.79 485.78,-184.17 493.66,-191.25 496.35,-184.79"/>
</a>
</g>
</g>
<!-- Node13 -->
<g id="Node000013" class="node">
<title>Node13</title>
<g id="a_Node000013"><a xlink:href="Movement_8h.html" target="_top" xlink:title=" ">
<polygon fill="white" stroke="#666666" points="651.5,-129 504.5,-129 504.5,-110 651.5,-110 651.5,-129"/>
<text text-anchor="middle" x="578" y="-117" font-family="Helvetica,sans-Serif" font-size="10.00">./components/Movement.h</text>
</a>
</g>
</g>
<!-- Node7&#45;&gt;Node13 -->
<g id="edge35_Node000007_Node000013" class="edge">
<title>Node7&#45;&gt;Node13</title>
<g id="a_edge35_Node000007_Node000013"><a xlink:title=" ">
<path fill="none" stroke="#63b8ff" d="M590.85,-219.66C588.59,-202.17 583.48,-162.8 580.43,-139.27"/>
<polygon fill="#63b8ff" stroke="#63b8ff" points="583.88,-138.63 579.12,-129.16 576.94,-139.53 583.88,-138.63"/>
</a>
</g>
</g>
<!-- Node7&#45;&gt;Node15 -->
<g id="edge25_Node000007_Node000015" class="edge">
<title>Node7&#45;&gt;Node15</title>
<g id="a_edge25_Node000007_Node000015"><a xlink:title=" ">
<path fill="none" stroke="#63b8ff" d="M539.82,-219.95C498.99,-212.53 441.09,-200.4 392,-184 350.33,-170.08 304.37,-147.81 276.86,-133.68"/>
<polygon fill="#63b8ff" stroke="#63b8ff" points="278.43,-130.55 267.94,-129.05 275.2,-136.76 278.43,-130.55"/>
</a>
</g>
</g>
<!-- Node17 -->
<g id="Node000017" class="node">
<title>Node17</title>
<g id="a_Node000017"><a xlink:title=" ">
<polygon fill="#e0e0e0" stroke="#999999" points="775,-74 715,-74 715,-55 775,-55 775,-74"/>
<text text-anchor="middle" x="745" y="-62" font-family="Helvetica,sans-Serif" font-size="10.00">iostream</text>
</a>
</g>
</g>
<!-- Node7&#45;&gt;Node17 -->
<g id="edge37_Node000007_Node000017" class="edge">
<title>Node7&#45;&gt;Node17</title>
<g id="a_edge37_Node000007_Node000017"><a xlink:title=" ">
<path fill="none" stroke="#63b8ff" d="M619.51,-219.9C639.71,-212.63 667.01,-200.7 687,-184 710,-164.79 712.86,-155.93 726,-129 733.02,-114.6 738.03,-97.08 741.13,-84.1"/>
<polygon fill="#63b8ff" stroke="#63b8ff" points="744.61,-84.57 743.37,-74.04 737.78,-83.04 744.61,-84.57"/>
</a>
</g>
</g>
<!-- Node7&#45;&gt;Node18 -->
<g id="edge26_Node000007_Node000018" class="edge">
<title>Node7&#45;&gt;Node18</title>
<g id="a_edge26_Node000007_Node000018"><a xlink:title=" ">
<path fill="none" stroke="#63b8ff" d="M642.15,-219.96C690.33,-211.65 765.43,-198.47 839.78,-184.19"/>
<polygon fill="#63b8ff" stroke="#63b8ff" points="840.63,-187.59 849.79,-182.27 839.31,-180.72 840.63,-187.59"/>
</a>
</g>
</g>
<!-- Node23 -->
<g id="Node000023" class="node">
<title>Node23</title>
<g id="a_Node000023"><a xlink:title=" ">
<polygon fill="#e0e0e0" stroke="#999999" points="678,-184 606,-184 606,-165 678,-165 678,-184"/>
<text text-anchor="middle" x="642" y="-172" font-family="Helvetica,sans-Serif" font-size="10.00">SDL3/SDL.h</text>
</a>
</g>
</g>
<!-- Node7&#45;&gt;Node23 -->
<g id="edge36_Node000007_Node000023" class="edge">
<title>Node7&#45;&gt;Node23</title>
<g id="a_edge36_Node000007_Node000023"><a xlink:title=" ">
<path fill="none" stroke="#63b8ff" d="M600.26,-219.75C607.46,-212.11 618.11,-200.82 626.85,-191.56"/>
<polygon fill="#63b8ff" stroke="#63b8ff" points="629.58,-193.76 633.9,-184.09 624.49,-188.96 629.58,-193.76"/>
</a>
</g>
</g>
<!-- Node9 -->
<g id="Node000009" class="node">
<title>Node9</title>
<g id="a_Node000009"><a xlink:title=" ">
<polygon fill="#e0e0e0" stroke="#999999" points="817,-129 773,-129 773,-110 817,-110 817,-129"/>
<text text-anchor="middle" x="795" y="-117" font-family="Helvetica,sans-Serif" font-size="10.00">string</text>
</a>
</g>
</g>
<!-- Node8&#45;&gt;Node9 -->
<g id="edge8_Node000008_Node000009" class="edge">
<title>Node8&#45;&gt;Node9</title>
<g id="a_edge8_Node000008_Node000009"><a xlink:title=" ">
<path fill="none" stroke="#63b8ff" d="M795,-164.75C795,-157.8 795,-147.85 795,-139.13"/>
<polygon fill="#63b8ff" stroke="#63b8ff" points="798.5,-139.09 795,-129.09 791.5,-139.09 798.5,-139.09"/>
</a>
</g>
</g>
<!-- Node10&#45;&gt;Node2 -->
<g id="edge10_Node000010_Node000002" class="edge">
<title>Node10&#45;&gt;Node2</title>
<g id="a_edge10_Node000010_Node000002"><a xlink:title=" ">
<path fill="none" stroke="#63b8ff" d="M468,-164.65C472.65,-151.76 482.49,-127.46 496,-110 504.75,-98.69 516.76,-88.19 527.03,-80.22"/>
<polygon fill="#63b8ff" stroke="#63b8ff" points="529.22,-82.96 535.15,-74.17 525.04,-77.35 529.22,-82.96"/>
</a>
</g>
</g>
<!-- Node10&#45;&gt;Node3 -->
<g id="edge11_Node000010_Node000003" class="edge">
<title>Node10&#45;&gt;Node3</title>
<g id="a_edge11_Node000010_Node000003"><a xlink:title=" ">
<path fill="none" stroke="#63b8ff" d="M400.29,-167.1C343.81,-160.57 260.01,-148.56 189,-129 140.9,-115.75 87.5,-92.78 56.16,-78.4"/>
<polygon fill="#63b8ff" stroke="#63b8ff" points="57.34,-75.09 46.79,-74.06 54.39,-81.44 57.34,-75.09"/>
</a>
</g>
</g>
<!-- Node10&#45;&gt;Node6 -->
<g id="edge14_Node000010_Node000006" class="edge">
<title>Node10&#45;&gt;Node6</title>
<g id="a_edge14_Node000010_Node000006"><a xlink:title=" ">
<path fill="none" stroke="#63b8ff" d="M444.64,-164.84C399.85,-145.8 292.61,-100.2 240.46,-78.03"/>
<polygon fill="#63b8ff" stroke="#63b8ff" points="241.67,-74.74 231.1,-74.05 238.93,-81.18 241.67,-74.74"/>
</a>
</g>
</g>
<!-- Node11 -->
<g id="Node000011" class="node">
<title>Node11</title>
<g id="a_Node000011"><a xlink:title=" ">
<polygon fill="#e0e0e0" stroke="#999999" points="447.5,-129 400.5,-129 400.5,-110 447.5,-110 447.5,-129"/>
<text text-anchor="middle" x="424" y="-117" font-family="Helvetica,sans-Serif" font-size="10.00">cmath</text>
</a>
</g>
</g>
<!-- Node10&#45;&gt;Node11 -->
<g id="edge12_Node000010_Node000011" class="edge">
<title>Node10&#45;&gt;Node11</title>
<g id="a_edge12_Node000010_Node000011"><a xlink:title=" ">
<path fill="none" stroke="#63b8ff" d="M458.23,-164.75C452.44,-157.26 443.94,-146.28 436.86,-137.13"/>
<polygon fill="#63b8ff" stroke="#63b8ff" points="439.53,-134.86 430.64,-129.09 433.99,-139.14 439.53,-134.86"/>
</a>
</g>
</g>
<!-- Node12 -->
<g id="Node000012" class="node">
<title>Node12</title>
<g id="a_Node000012"><a xlink:title=" ">
<polygon fill="#e0e0e0" stroke="#999999" points="716.5,-129 669.5,-129 669.5,-110 716.5,-110 716.5,-129"/>
<text text-anchor="middle" x="693" y="-117" font-family="Helvetica,sans-Serif" font-size="10.00">vector</text>
</a>
</g>
</g>
<!-- Node10&#45;&gt;Node12 -->
<g id="edge13_Node000010_Node000012" class="edge">
<title>Node10&#45;&gt;Node12</title>
<g id="a_edge13_Node000010_Node000012"><a xlink:title=" ">
<path fill="none" stroke="#63b8ff" d="M504.52,-164.97C542.08,-156.76 600.4,-143.77 659.4,-129.33"/>
<polygon fill="#63b8ff" stroke="#63b8ff" points="660.38,-132.7 669.26,-126.91 658.71,-125.9 660.38,-132.7"/>
</a>
</g>
</g>
<!-- Node10&#45;&gt;Node13 -->
<g id="edge15_Node000010_Node000013" class="edge">
<title>Node10&#45;&gt;Node13</title>
<g id="a_edge15_Node000010_Node000013"><a xlink:title=" ">
<path fill="none" stroke="#63b8ff" d="M483.16,-164.98C501.25,-156.5 529.28,-143.35 550.19,-133.54"/>
<polygon fill="#63b8ff" stroke="#63b8ff" points="551.95,-136.59 559.51,-129.17 548.97,-130.25 551.95,-136.59"/>
</a>
</g>
</g>
<!-- Node10&#45;&gt;Node15 -->
<g id="edge17_Node000010_Node000015" class="edge">
<title>Node10&#45;&gt;Node15</title>
<g id="a_edge17_Node000010_Node000015"><a xlink:title=" ">
<path fill="none" stroke="#63b8ff" d="M430.78,-164.98C394.24,-155.89 336.22,-141.46 296.24,-131.51"/>
<polygon fill="#63b8ff" stroke="#63b8ff" points="297.04,-128.1 286.49,-129.08 295.35,-134.89 297.04,-128.1"/>
</a>
</g>
</g>
<!-- Node14 -->
<g id="Node000014" class="node">
<title>Node14</title>
<g id="a_Node000014"><a xlink:href="IComponent_8h.html" target="_top" xlink:title=" ">
<polygon fill="white" stroke="#666666" points="552,-19 458,-19 458,0 552,0 552,-19"/>
<text text-anchor="middle" x="505" y="-7" font-family="Helvetica,sans-Serif" font-size="10.00">../IComponent.h</text>
</a>
</g>
</g>
<!-- Node13&#45;&gt;Node14 -->
<g id="edge16_Node000013_Node000014" class="edge">
<title>Node13&#45;&gt;Node14</title>
<g id="a_edge16_Node000013_Node000014"><a xlink:title=" ">
<path fill="none" stroke="#63b8ff" d="M586.59,-109.79C598.06,-97.08 615.65,-73 604,-55 593.81,-39.25 576.57,-29.02 559.31,-22.4"/>
<polygon fill="#63b8ff" stroke="#63b8ff" points="560.36,-19.05 549.76,-19.08 558.06,-25.67 560.36,-19.05"/>
</a>
</g>
</g>
<!-- Node15&#45;&gt;Node2 -->
<g id="edge22_Node000015_Node000002" class="edge">
<title>Node15&#45;&gt;Node2</title>
<g id="a_edge22_Node000015_Node000002"><a xlink:title=" ">
<path fill="none" stroke="#63b8ff" d="M299.56,-109.98C351.71,-100.65 435.37,-85.67 491,-75.71"/>
<polygon fill="#63b8ff" stroke="#63b8ff" points="491.82,-79.11 501.05,-73.91 490.59,-72.22 491.82,-79.11"/>
</a>
</g>
</g>
<!-- Node15&#45;&gt;Node3 -->
<g id="edge23_Node000015_Node000003" class="edge">
<title>Node15&#45;&gt;Node3</title>
<g id="a_edge23_Node000015_Node000003"><a xlink:title=" ">
<path fill="none" stroke="#63b8ff" d="M216.17,-109.98C175.68,-100.36 109.98,-84.75 68.16,-74.81"/>
<polygon fill="#63b8ff" stroke="#63b8ff" points="68.87,-71.38 58.33,-72.47 67.25,-78.19 68.87,-71.38"/>
</a>
</g>
</g>
<!-- Node15&#45;&gt;Node4 -->
<g id="edge18_Node000015_Node000004" class="edge">
<title>Node15&#45;&gt;Node4</title>
<g id="a_edge18_Node000015_Node000004"><a xlink:title=" ">
<path fill="none" stroke="#63b8ff" d="M228.06,-109.98C203.44,-101.23 164.88,-87.51 137.08,-77.62"/>
<polygon fill="#63b8ff" stroke="#63b8ff" points="137.97,-74.22 127.38,-74.17 135.62,-80.82 137.97,-74.22"/>
</a>
</g>
</g>
<!-- Node15&#45;&gt;Node6 -->
<g id="edge21_Node000015_Node000006" class="edge">
<title>Node15&#45;&gt;Node6</title>
<g id="a_edge21_Node000015_Node000006"><a xlink:title=" ">
<path fill="none" stroke="#63b8ff" d="M245.23,-109.75C239.44,-102.26 230.94,-91.28 223.86,-82.13"/>
<polygon fill="#63b8ff" stroke="#63b8ff" points="226.53,-79.86 217.64,-74.09 220.99,-84.14 226.53,-79.86"/>
</a>
</g>
</g>
<!-- Node16 -->
<g id="Node000016" class="node">
<title>Node16</title>
<g id="a_Node000016"><a xlink:href="PositionComponent_8h.html" target="_top" xlink:title=" ">
<polygon fill="white" stroke="#666666" points="483,-74 293,-74 293,-55 483,-55 483,-74"/>
<text text-anchor="middle" x="388" y="-62" font-family="Helvetica,sans-Serif" font-size="10.00">./components/PositionComponent.h</text>
</a>
</g>
</g>
<!-- Node15&#45;&gt;Node16 -->
<g id="edge19_Node000015_Node000016" class="edge">
<title>Node15&#45;&gt;Node16</title>
<g id="a_edge19_Node000015_Node000016"><a xlink:title=" ">
<path fill="none" stroke="#63b8ff" d="M273.85,-109.98C296.12,-101.3 330.9,-87.75 356.22,-77.88"/>
<polygon fill="#63b8ff" stroke="#63b8ff" points="357.71,-81.06 365.75,-74.17 355.16,-74.54 357.71,-81.06"/>
</a>
</g>
</g>
<!-- Node15&#45;&gt;Node17 -->
<g id="edge24_Node000015_Node000017" class="edge">
<title>Node15&#45;&gt;Node17</title>
<g id="a_edge24_Node000015_Node000017"><a xlink:title=" ">
<path fill="none" stroke="#63b8ff" d="M305.7,-112.73C405.22,-102.03 616.22,-79.34 704.66,-69.84"/>
<polygon fill="#63b8ff" stroke="#63b8ff" points="705.25,-73.29 714.82,-68.74 704.51,-66.33 705.25,-73.29"/>
</a>
</g>
</g>
<!-- Node16&#45;&gt;Node14 -->
<g id="edge20_Node000016_Node000014" class="edge">
<title>Node16&#45;&gt;Node14</title>
<g id="a_edge20_Node000016_Node000014"><a xlink:title=" ">
<path fill="none" stroke="#63b8ff" d="M406.8,-54.98C425.62,-46.46 454.82,-33.23 476.5,-23.41"/>
<polygon fill="#63b8ff" stroke="#63b8ff" points="478.2,-26.48 485.86,-19.17 475.31,-20.11 478.2,-26.48"/>
</a>
</g>
</g>
<!-- Node18&#45;&gt;Node2 -->
<g id="edge31_Node000018_Node000002" class="edge">
<title>Node18&#45;&gt;Node2</title>
<g id="a_edge31_Node000018_Node000002"><a xlink:title=" ">
<path fill="none" stroke="#63b8ff" d="M877.1,-164.81C868.66,-150.73 849.95,-123.19 826,-110 788.92,-89.58 674.72,-76.42 604.76,-70.04"/>
<polygon fill="#63b8ff" stroke="#63b8ff" points="605.04,-66.55 594.77,-69.15 604.42,-73.53 605.04,-66.55"/>
</a>
</g>
</g>
<!-- Node18&#45;&gt;Node9 -->
<g id="edge30_Node000018_Node000009" class="edge">
<title>Node18&#45;&gt;Node9</title>
<g id="a_edge30_Node000018_Node000009"><a xlink:title=" ">
<path fill="none" stroke="#63b8ff" d="M868.02,-164.98C854.53,-156.77 833.87,-144.18 817.96,-134.49"/>
<polygon fill="#63b8ff" stroke="#63b8ff" points="819.59,-131.38 809.23,-129.17 815.95,-137.36 819.59,-131.38"/>
</a>
</g>
</g>
<!-- Node18&#45;&gt;Node12 -->
<g id="edge27_Node000018_Node000012" class="edge">
<title>Node18&#45;&gt;Node12</title>
<g id="a_edge27_Node000018_Node000012"><a xlink:title=" ">
<path fill="none" stroke="#63b8ff" d="M851.63,-164.98C817.44,-155.4 762.05,-139.86 726.59,-129.92"/>
<polygon fill="#63b8ff" stroke="#63b8ff" points="727.28,-126.48 716.71,-127.15 725.39,-133.22 727.28,-126.48"/>
</a>
</g>
</g>
<!-- Node18&#45;&gt;Node17 -->
<g id="edge28_Node000018_Node000017" class="edge">
<title>Node18&#45;&gt;Node17</title>
<g id="a_edge28_Node000018_Node000017"><a xlink:title=" ">
<path fill="none" stroke="#63b8ff" d="M881.14,-164.92C879.36,-151.49 874.07,-125.44 859,-110 839.33,-89.84 809.46,-78.63 785.24,-72.5"/>
<polygon fill="#63b8ff" stroke="#63b8ff" points="785.78,-69.03 775.24,-70.17 784.19,-75.85 785.78,-69.03"/>
</a>
</g>
</g>
<!-- Node19 -->
<g id="Node000019" class="node">
<title>Node19</title>
<g id="a_Node000019"><a xlink:title=" ">
<polygon fill="#e0e0e0" stroke="#999999" points="967,-129 911,-129 911,-110 967,-110 967,-129"/>
<text text-anchor="middle" x="939" y="-117" font-family="Helvetica,sans-Serif" font-size="10.00">iomanip</text>
</a>
</g>
</g>
<!-- Node18&#45;&gt;Node19 -->
<g id="edge29_Node000018_Node000019" class="edge">
<title>Node18&#45;&gt;Node19</title>
<g id="a_edge29_Node000018_Node000019"><a xlink:title=" ">
<path fill="none" stroke="#63b8ff" d="M891.16,-164.98C899.5,-157.23 912.03,-145.58 922.18,-136.14"/>
<polygon fill="#63b8ff" stroke="#63b8ff" points="924.74,-138.54 929.68,-129.17 919.97,-133.42 924.74,-138.54"/>
</a>
</g>
</g>
<!-- Node20 -->
<g id="Node000020" class="node">
<title>Node20</title>
<g id="a_Node000020"><a xlink:title=" ">
<polygon fill="#e0e0e0" stroke="#999999" points="1040.5,-129 985.5,-129 985.5,-110 1040.5,-110 1040.5,-129"/>
<text text-anchor="middle" x="1013" y="-117" font-family="Helvetica,sans-Serif" font-size="10.00">fstream</text>
</a>
</g>
</g>
<!-- Node18&#45;&gt;Node20 -->
<g id="edge32_Node000018_Node000020" class="edge">
<title>Node18&#45;&gt;Node20</title>
<g id="a_edge32_Node000018_Node000020"><a xlink:title=" ">
<path fill="none" stroke="#63b8ff" d="M903.05,-164.98C924.41,-156.34 957.7,-142.87 982.06,-133.02"/>
<polygon fill="#63b8ff" stroke="#63b8ff" points="983.61,-136.17 991.57,-129.17 980.99,-129.68 983.61,-136.17"/>
</a>
</g>
</g>
<!-- Node21 -->
<g id="Node000021" class="node">
<title>Node21</title>
<g id="a_Node000021"><a xlink:title=" ">
<polygon fill="#e0e0e0" stroke="#999999" points="1103,-129 1059,-129 1059,-110 1103,-110 1103,-129"/>
<text text-anchor="middle" x="1081" y="-117" font-family="Helvetica,sans-Serif" font-size="10.00">regex</text>
</a>
</g>
</g>
<!-- Node18&#45;&gt;Node21 -->
<g id="edge33_Node000018_Node000021" class="edge">
<title>Node18&#45;&gt;Node21</title>
<g id="a_edge33_Node000018_Node000021"><a xlink:title=" ">
<path fill="none" stroke="#63b8ff" d="M914.23,-165.05C946.08,-156.68 996.46,-143.39 1049.13,-129.22"/>
<polygon fill="#63b8ff" stroke="#63b8ff" points="1050.25,-132.54 1058.99,-126.56 1048.42,-125.78 1050.25,-132.54"/>
</a>
</g>
</g>
<!-- Node22 -->
<g id="Node000022" class="node">
<title>Node22</title>
<g id="a_Node000022"><a xlink:title=" ">
<polygon fill="#e0e0e0" stroke="#999999" points="1231,-129 1121,-129 1121,-110 1231,-110 1231,-129"/>
<text text-anchor="middle" x="1176" y="-117" font-family="Helvetica,sans-Serif" font-size="10.00">nlohmann/json.hpp</text>
</a>
</g>
</g>
<!-- Node18&#45;&gt;Node22 -->
<g id="edge34_Node000018_Node000022" class="edge">
<title>Node18&#45;&gt;Node22</title>
<g id="a_edge34_Node000018_Node000022"><a xlink:title=" ">
<path fill="none" stroke="#63b8ff" d="M914.02,-167.73C963.15,-158.87 1057.84,-141.8 1118.91,-130.79"/>
<polygon fill="#63b8ff" stroke="#63b8ff" points="1119.56,-134.23 1128.78,-129.01 1118.32,-127.34 1119.56,-134.23"/>
</a>
</g>
</g>
</g>
</svg>
