<?xml version="1.0" encoding="UTF-8" standalone="no"?>
<!DOCTYPE svg PUBLIC "-//W3C//DTD SVG 1.1//EN"
 "http://www.w3.org/Graphics/SVG/1.1/DTD/svg11.dtd">
<!-- Generated by graphviz version 2.43.0 (0)
 -->
<!-- Title: /home/sean/Projects/Brenda/src/ECS/DescriptionComponentManager.h Pages: 1 -->
<svg width="429pt" height="181pt"
 viewBox="0.00 0.00 428.50 181.00" xmlns="http://www.w3.org/2000/svg" xmlns:xlink="http://www.w3.org/1999/xlink">

<svg id="main" version="1.1" xmlns="http://www.w3.org/2000/svg" xmlns:xlink="http://www.w3.org/1999/xlink" xml:space="preserve" onload="init(evt)">
<style type="text/css"><![CDATA[
.node, .edge {opacity: 0.7;}
.node.selected, .edge.selected {opacity: 1;}
.edge:hover path { stroke: red; }
.edge:hover polygon { stroke: red; fill: red; }
]]></style>
<script type="application/ecmascript" xlink:href="svg.min.js"/>
<svg id="graph" class="graph">
<g id="graph0" class="graph" transform="scale(1 1) rotate(0) translate(4 177)">
<title>/home/sean/Projects/Brenda/src/ECS/DescriptionComponentManager.h</title>
<!-- Node1 -->
<g id="Node000001" class="node">
<title>Node1</title>
<g id="a_Node000001"><a xlink:title=" ">
<polygon fill="#999999" stroke="#666666" points="348.5,-173 196.5,-173 196.5,-132 348.5,-132 348.5,-173"/>
<text text-anchor="start" x="204.5" y="-161" font-family="Helvetica,sans-Serif" font-size="10.00">/home/sean/Projects</text>
<text text-anchor="start" x="204.5" y="-150" font-family="Helvetica,sans-Serif" font-size="10.00">/Brenda/src/ECS/Description</text>
<text text-anchor="middle" x="272.5" y="-139" font-family="Helvetica,sans-Serif" font-size="10.00">ComponentManager.h</text>
</a>
</g>
</g>
<!-- Node2 -->
<g id="Node000002" class="node">
<title>Node2</title>
<g id="a_Node000002"><a xlink:href="AISystem_8h.html" target="_top" xlink:title=" ">
<polygon fill="white" stroke="#666666" points="196.5,-96 66.5,-96 66.5,-66 196.5,-66 196.5,-96"/>
<text text-anchor="start" x="74.5" y="-84" font-family="Helvetica,sans-Serif" font-size="10.00">/home/sean/Projects</text>
<text text-anchor="middle" x="131.5" y="-73" font-family="Helvetica,sans-Serif" font-size="10.00">/Brenda/src/AISystem.h</text>
</a>
</g>
</g>
<!-- Node1&#45;&gt;Node2 -->
<g id="edge1_Node000001_Node000002" class="edge">
<title>Node1&#45;&gt;Node2</title>
<g id="a_edge1_Node000001_Node000002"><a xlink:title=" ">
<path fill="none" stroke="#63b8ff" d="M223.66,-127.42C202.46,-116.98 178.36,-105.1 160.13,-96.11"/>
<polygon fill="#63b8ff" stroke="#63b8ff" points="222.33,-130.67 232.85,-131.96 225.43,-124.39 222.33,-130.67"/>
</a>
</g>
</g>
<!-- Node5 -->
<g id="Node000005" class="node">
<title>Node5</title>
<g id="a_Node000005"><a xlink:href="Scene_8cpp.html" target="_top" xlink:title=" ">
<polygon fill="white" stroke="#666666" points="420.5,-30 296.5,-30 296.5,0 420.5,0 420.5,-30"/>
<text text-anchor="start" x="304.5" y="-18" font-family="Helvetica,sans-Serif" font-size="10.00">/home/sean/Projects</text>
<text text-anchor="middle" x="358.5" y="-7" font-family="Helvetica,sans-Serif" font-size="10.00">/Brenda/src/Scene.cpp</text>
</a>
</g>
</g>
<!-- Node1&#45;&gt;Node5 -->
<g id="edge4_Node000001_Node000005" class="edge">
<title>Node1&#45;&gt;Node5</title>
<g id="a_edge4_Node000001_Node000005"><a xlink:title=" ">
<path fill="none" stroke="#63b8ff" d="M312.27,-125.63C322.47,-117.28 332.52,-107.24 339.5,-96 352.31,-75.39 356.49,-46.87 357.85,-30.04"/>
<polygon fill="#63b8ff" stroke="#63b8ff" points="309.87,-123.06 304.12,-131.96 314.16,-128.59 309.87,-123.06"/>
</a>
</g>
</g>
<!-- Node6 -->
<g id="Node000006" class="node">
<title>Node6</title>
<g id="a_Node000006"><a xlink:href="Scene_8h.html" target="_top" xlink:title=" ">
<polygon fill="white" stroke="#666666" points="330.5,-96 214.5,-96 214.5,-66 330.5,-66 330.5,-96"/>
<text text-anchor="start" x="222.5" y="-84" font-family="Helvetica,sans-Serif" font-size="10.00">/home/sean/Projects</text>
<text text-anchor="middle" x="272.5" y="-73" font-family="Helvetica,sans-Serif" font-size="10.00">/Brenda/src/Scene.h</text>
</a>
</g>
</g>
<!-- Node1&#45;&gt;Node6 -->
<g id="edge5_Node000001_Node000006" class="edge">
<title>Node1&#45;&gt;Node6</title>
<g id="a_edge5_Node000001_Node000006"><a xlink:title=" ">
<path fill="none" stroke="#63b8ff" d="M272.5,-121.66C272.5,-112.76 272.5,-103.42 272.5,-96.04"/>
<polygon fill="#63b8ff" stroke="#63b8ff" points="269,-121.77 272.5,-131.77 276,-121.77 269,-121.77"/>
</a>
</g>
</g>
<!-- Node3 -->
<g id="Node000003" class="node">
<title>Node3</title>
<g id="a_Node000003"><a xlink:href="AISystem_8cpp.html" target="_top" xlink:title=" ">
<polygon fill="white" stroke="#666666" points="141,-30 0,-30 0,0 141,0 141,-30"/>
<text text-anchor="start" x="8" y="-18" font-family="Helvetica,sans-Serif" font-size="10.00">/home/sean/Projects</text>
<text text-anchor="middle" x="70.5" y="-7" font-family="Helvetica,sans-Serif" font-size="10.00">/Brenda/src/AISystem.cpp</text>
</a>
</g>
</g>
<!-- Node2&#45;&gt;Node3 -->
<g id="edge2_Node000002_Node000003" class="edge">
<title>Node2&#45;&gt;Node3</title>
<g id="a_edge2_Node000002_Node000003"><a xlink:title=" ">
<path fill="none" stroke="#63b8ff" d="M110.88,-58.37C102.01,-49.06 91.89,-38.44 84,-30.16"/>
<polygon fill="#63b8ff" stroke="#63b8ff" points="108.53,-60.97 117.96,-65.8 113.6,-56.14 108.53,-60.97"/>
</a>
</g>
</g>
<!-- Node4 -->
<g id="Node000004" class="node">
<title>Node4</title>
<g id="a_Node000004"><a xlink:href="main_8cpp.html" target="_top" xlink:title=" ">
<polygon fill="white" stroke="#666666" points="278,-30 159,-30 159,0 278,0 278,-30"/>
<text text-anchor="start" x="167" y="-18" font-family="Helvetica,sans-Serif" font-size="10.00">/home/sean/Projects</text>
<text text-anchor="middle" x="218.5" y="-7" font-family="Helvetica,sans-Serif" font-size="10.00">/Brenda/src/main.cpp</text>
</a>
</g>
</g>
<!-- Node2&#45;&gt;Node4 -->
<g id="edge3_Node000002_Node000004" class="edge">
<title>Node2&#45;&gt;Node4</title>
<g id="a_edge3_Node000002_Node000004"><a xlink:title=" ">
<path fill="none" stroke="#63b8ff" d="M159.02,-59.75C172.11,-50.13 187.43,-38.86 199.25,-30.16"/>
<polygon fill="#63b8ff" stroke="#63b8ff" points="156.79,-57.05 150.81,-65.8 160.94,-62.69 156.79,-57.05"/>
</a>
</g>
</g>
<!-- Node6&#45;&gt;Node4 -->
<g id="edge7_Node000006_Node000004" class="edge">
<title>Node6&#45;&gt;Node4</title>
<g id="a_edge7_Node000006_Node000004"><a xlink:title=" ">
<path fill="none" stroke="#63b8ff" d="M254.01,-58.09C246.22,-48.85 237.37,-38.36 230.45,-30.16"/>
<polygon fill="#63b8ff" stroke="#63b8ff" points="251.39,-60.41 260.52,-65.8 256.74,-55.9 251.39,-60.41"/>
</a>
</g>
</g>
<!-- Node6&#45;&gt;Node5 -->
<g id="edge6_Node000006_Node000005" class="edge">
<title>Node6&#45;&gt;Node5</title>
<g id="a_edge6_Node000006_Node000005"><a xlink:title=" ">
<path fill="none" stroke="#63b8ff" d="M299.71,-59.75C312.64,-50.13 327.79,-38.86 339.47,-30.16"/>
<polygon fill="#63b8ff" stroke="#63b8ff" points="297.52,-57.02 291.59,-65.8 301.7,-62.63 297.52,-57.02"/>
</a>
</g>
</g>
</g>
</svg>
</svg>

<style type='text/css'>
<![CDATA[
[data-mouse-over-selected='false'] { opacity: 0.7; }
[data-mouse-over-selected='true']  { opacity: 1.0; }
]]>
</style>
<script type="application/ecmascript"><![CDATA[
document.addEventListener('DOMContentLoaded', (event) => {
  highlightEdges();
  highlightAdjacentNodes();
});
]]></script>
</svg>
