<?xml version="1.0" encoding="UTF-8" standalone="no"?>
<!DOCTYPE svg PUBLIC "-//W3C//DTD SVG 1.1//EN"
 "http://www.w3.org/Graphics/SVG/1.1/DTD/svg11.dtd">
<!-- Generated by graphviz version 2.43.0 (0)
 -->
<!-- Title: /home/sean/Projects/Brenda/src/ECS/DescriptionComponentManager.h Pages: 1 -->
<svg width="598pt" height="170pt"
 viewBox="0.00 0.00 598.00 170.00" xmlns="http://www.w3.org/2000/svg" xmlns:xlink="http://www.w3.org/1999/xlink">
<g id="graph0" class="graph" transform="scale(1 1) rotate(0) translate(4 166)">
<title>/home/sean/Projects/Brenda/src/ECS/DescriptionComponentManager.h</title>
<!-- Node1 -->
<g id="Node000001" class="node">
<title>Node1</title>
<g id="a_Node000001"><a xlink:title=" ">
<polygon fill="#999999" stroke="#666666" points="302.5,-162 150.5,-162 150.5,-121 302.5,-121 302.5,-162"/>
<text text-anchor="start" x="158.5" y="-150" font-family="Helvetica,sans-Serif" font-size="10.00">/home/sean/Projects</text>
<text text-anchor="start" x="158.5" y="-139" font-family="Helvetica,sans-Serif" font-size="10.00">/Brenda/src/ECS/Description</text>
<text text-anchor="middle" x="226.5" y="-128" font-family="Helvetica,sans-Serif" font-size="10.00">ComponentManager.h</text>
</a>
</g>
</g>
<!-- Node2 -->
<g id="Node000002" class="node">
<title>Node2</title>
<g id="a_Node000002"><a xlink:title=" ">
<polygon fill="#e0e0e0" stroke="#999999" points="93,-79.5 0,-79.5 0,-60.5 93,-60.5 93,-79.5"/>
<text text-anchor="middle" x="46.5" y="-67.5" font-family="Helvetica,sans-Serif" font-size="10.00">unordered_map</text>
</a>
</g>
</g>
<!-- Node1&#45;&gt;Node2 -->
<g id="edge1_Node000001_Node000002" class="edge">
<title>Node1&#45;&gt;Node2</title>
<g id="a_edge1_Node000001_Node000002"><a xlink:title=" ">
<path fill="none" stroke="#63b8ff" d="M175.88,-120.96C144.39,-108.8 104.9,-93.55 77.88,-83.11"/>
<polygon fill="#63b8ff" stroke="#63b8ff" points="79.11,-79.84 68.52,-79.5 76.59,-86.37 79.11,-79.84"/>
</a>
</g>
</g>
<!-- Node3 -->
<g id="Node000003" class="node">
<title>Node3</title>
<g id="a_Node000003"><a xlink:title=" ">
<polygon fill="#e0e0e0" stroke="#999999" points="169.5,-79.5 111.5,-79.5 111.5,-60.5 169.5,-60.5 169.5,-79.5"/>
<text text-anchor="middle" x="140.5" y="-67.5" font-family="Helvetica,sans-Serif" font-size="10.00">memory</text>
</a>
</g>
</g>
<!-- Node1&#45;&gt;Node3 -->
<g id="edge2_Node000001_Node000003" class="edge">
<title>Node1&#45;&gt;Node3</title>
<g id="a_edge2_Node000001_Node000003"><a xlink:title=" ">
<path fill="none" stroke="#63b8ff" d="M202.09,-120.77C188.53,-109.81 171.92,-96.39 159.37,-86.25"/>
<polygon fill="#63b8ff" stroke="#63b8ff" points="161.39,-83.38 151.41,-79.82 156.99,-88.83 161.39,-83.38"/>
</a>
</g>
</g>
<!-- Node4 -->
<g id="Node000004" class="node">
<title>Node4</title>
<g id="a_Node000004"><a xlink:title=" ">
<polygon fill="#e0e0e0" stroke="#999999" points="337.5,-19 293.5,-19 293.5,0 337.5,0 337.5,-19"/>
<text text-anchor="middle" x="315.5" y="-7" font-family="Helvetica,sans-Serif" font-size="10.00">string</text>
</a>
</g>
</g>
<!-- Node1&#45;&gt;Node4 -->
<g id="edge3_Node000001_Node000004" class="edge">
<title>Node1&#45;&gt;Node4</title>
<g id="a_edge3_Node000001_Node000004"><a xlink:title=" ">
<path fill="none" stroke="#63b8ff" d="M217.45,-120.87C210.4,-102.4 203.76,-74.7 216.5,-55 231.14,-32.36 260.35,-21.13 283.26,-15.62"/>
<polygon fill="#63b8ff" stroke="#63b8ff" points="284.22,-18.99 293.27,-13.47 282.76,-12.15 284.22,-18.99"/>
</a>
</g>
</g>
<!-- Node5 -->
<g id="Node000005" class="node">
<title>Node5</title>
<g id="a_Node000005"><a xlink:title=" ">
<polygon fill="#e0e0e0" stroke="#999999" points="285.5,-79.5 225.5,-79.5 225.5,-60.5 285.5,-60.5 285.5,-79.5"/>
<text text-anchor="middle" x="255.5" y="-67.5" font-family="Helvetica,sans-Serif" font-size="10.00">iostream</text>
</a>
</g>
</g>
<!-- Node1&#45;&gt;Node5 -->
<g id="edge4_Node000001_Node000005" class="edge">
<title>Node1&#45;&gt;Node5</title>
<g id="a_edge4_Node000001_Node000005"><a xlink:title=" ">
<path fill="none" stroke="#63b8ff" d="M234.73,-120.77C238.86,-110.87 243.84,-98.95 247.88,-89.26"/>
<polygon fill="#63b8ff" stroke="#63b8ff" points="251.2,-90.4 251.82,-79.82 244.74,-87.7 251.2,-90.4"/>
</a>
</g>
</g>
<!-- Node6 -->
<g id="Node000006" class="node">
<title>Node6</title>
<g id="a_Node000006"><a xlink:href="IComponentManager_8h.html" target="_top" xlink:title=" ">
<polygon fill="white" stroke="#666666" points="431,-79.5 304,-79.5 304,-60.5 431,-60.5 431,-79.5"/>
<text text-anchor="middle" x="367.5" y="-67.5" font-family="Helvetica,sans-Serif" font-size="10.00">IComponentManager.h</text>
</a>
</g>
</g>
<!-- Node1&#45;&gt;Node6 -->
<g id="edge5_Node000001_Node000006" class="edge">
<title>Node1&#45;&gt;Node6</title>
<g id="a_edge5_Node000001_Node000006"><a xlink:title=" ">
<path fill="none" stroke="#63b8ff" d="M266.15,-120.96C290.17,-109.12 320.13,-94.35 341.23,-83.95"/>
<polygon fill="#63b8ff" stroke="#63b8ff" points="342.83,-87.06 350.25,-79.5 339.73,-80.79 342.83,-87.06"/>
</a>
</g>
</g>
<!-- Node7 -->
<g id="Node000007" class="node">
<title>Node7</title>
<g id="a_Node000007"><a xlink:href="DescriptionComponent_8h.html" target="_top" xlink:title=" ">
<polygon fill="white" stroke="#666666" points="590,-85 449,-85 449,-55 590,-55 590,-85"/>
<text text-anchor="start" x="457" y="-73" font-family="Helvetica,sans-Serif" font-size="10.00">./components/Description</text>
<text text-anchor="middle" x="519.5" y="-62" font-family="Helvetica,sans-Serif" font-size="10.00">Component.h</text>
</a>
</g>
</g>
<!-- Node1&#45;&gt;Node7 -->
<g id="edge6_Node000001_Node000007" class="edge">
<title>Node1&#45;&gt;Node7</title>
<g id="a_edge6_Node000001_Node000007"><a xlink:title=" ">
<path fill="none" stroke="#63b8ff" d="M302.72,-122.42C348.43,-111.58 406.11,-97.9 450.48,-87.37"/>
<polygon fill="#63b8ff" stroke="#63b8ff" points="451.39,-90.75 460.31,-85.04 449.77,-83.94 451.39,-90.75"/>
</a>
</g>
</g>
<!-- Node7&#45;&gt;Node4 -->
<g id="edge7_Node000007_Node000004" class="edge">
<title>Node7&#45;&gt;Node4</title>
<g id="a_edge7_Node000007_Node000004"><a xlink:title=" ">
<path fill="none" stroke="#63b8ff" d="M470.64,-54.99C432.56,-44.07 380.77,-29.22 347.74,-19.74"/>
<polygon fill="#63b8ff" stroke="#63b8ff" points="348.29,-16.26 337.71,-16.87 346.36,-22.99 348.29,-16.26"/>
</a>
</g>
</g>
<!-- Node8 -->
<g id="Node000008" class="node">
<title>Node8</title>
<g id="a_Node000008"><a xlink:href="IComponent_8h.html" target="_top" xlink:title=" ">
<polygon fill="white" stroke="#666666" points="566.5,-19 472.5,-19 472.5,0 566.5,0 566.5,-19"/>
<text text-anchor="middle" x="519.5" y="-7" font-family="Helvetica,sans-Serif" font-size="10.00">../IComponent.h</text>
</a>
</g>
</g>
<!-- Node7&#45;&gt;Node8 -->
<g id="edge8_Node000007_Node000008" class="edge">
<title>Node7&#45;&gt;Node8</title>
<g id="a_edge8_Node000007_Node000008"><a xlink:title=" ">
<path fill="none" stroke="#63b8ff" d="M519.5,-54.84C519.5,-47.21 519.5,-37.7 519.5,-29.45"/>
<polygon fill="#63b8ff" stroke="#63b8ff" points="523,-29.27 519.5,-19.27 516,-29.27 523,-29.27"/>
</a>
</g>
</g>
</g>
</svg>
