<?xml version="1.0" encoding="UTF-8" standalone="no"?>
<!DOCTYPE svg PUBLIC "-//W3C//DTD SVG 1.1//EN"
 "http://www.w3.org/Graphics/SVG/1.1/DTD/svg11.dtd">
<!-- Generated by graphviz version 2.43.0 (0)
 -->
<!-- Title: /home/sean/Projects/Brenda/src/ECS/Entity.h Pages: 1 -->
<!--zoomable 456 -->

<svg id="main" version="1.1" xmlns="http://www.w3.org/2000/svg" xmlns:xlink="http://www.w3.org/1999/xlink" xml:space="preserve" onload="init(evt)">
<style type="text/css"><![CDATA[
.node, .edge {opacity: 0.7;}
.node.selected, .edge.selected {opacity: 1;}
.edge:hover path { stroke: red; }
.edge:hover polygon { stroke: red; fill: red; }
]]></style>

<defs>
  <circle id="rim" cx="0" cy="0" r="7"/>
  <circle id="rim2" cx="0" cy="0" r="3.5"/>
  <g id="zoomPlus">
    <use xlink:href="#rim" fill="#404040"><set attributeName="fill" to="#808080" begin="zoomplus.mouseover" end="zoomplus.mouseout"/></use>
    <path d="M-4,0h8M0,-4v8" fill="none" stroke="white" stroke-width="1.5" pointer-events="none"/>
  </g>
  <g id="zoomMin">
    <use xlink:href="#rim" fill="#404040"><set attributeName="fill" to="#808080" begin="zoomminus.mouseover" end="zoomminus.mouseout"/></use>
    <path d="M-4,0h8" fill="none" stroke="white" stroke-width="1.5" pointer-events="none"/>
  </g>
  <g id="arrowUp" transform="translate(30 24)">
    <use xlink:href="#rim"/>
    <path pointer-events="none" fill="none" stroke="white" stroke-width="1.5" d="M0,-3.0v7 M-2.5,-0.5L0,-3.0L2.5,-0.5"/>
  </g>
  <g id="arrowRight" transform="rotate(90) translate(36 -43)">
    <use xlink:href="#rim"/>
    <path pointer-events="none" fill="none" stroke="white" stroke-width="1.5" d="M0,-3.0v7 M-2.5,-0.5L0,-3.0L2.5,-0.5"/>
  </g>
  <g id="arrowDown" transform="rotate(180) translate(-30 -48)">
    <use xlink:href="#rim"/>
    <path pointer-events="none" fill="none" stroke="white" stroke-width="1.5" d="M0,-3.0v7 M-2.5,-0.5L0,-3.0L2.5,-0.5"/>
  </g>
  <g id="arrowLeft" transform="rotate(270) translate(-36 17)">
    <use xlink:href="#rim"/>
    <path pointer-events="none" fill="none" stroke="white" stroke-width="1.5" d="M0,-3.0v7 M-2.5,-0.5L0,-3.0L2.5,-0.5"/>
  </g>
  <g id="resetDef">
    <use xlink:href="#rim2" fill="#404040"><set attributeName="fill" to="#808080" begin="reset.mouseover" end="reset.mouseout"/></use>
  </g>
</defs>
<script type="application/ecmascript">
var viewWidth = 1192;
var viewHeight = 456;
var sectionId = 'dynsection-1';
</script>
<script type="application/ecmascript" xlink:href="svg.min.js"/>
<svg id="graph" class="graph">
<g id="viewport">
<title>/home/sean/Projects/Brenda/src/ECS/Entity.h</title>
<!-- Node1 -->
<g id="Node000001" class="node">
<title>Node1</title>
<g id="a_Node000001"><a xlink:title=" ">
<polygon fill="#999999" stroke="#666666" points="922.89,-448 790.89,-448 790.89,-418 922.89,-418 922.89,-448"/>
<text text-anchor="start" x="798.89" y="-436" font-family="Helvetica,sans-Serif" font-size="10.00">/home/sean/Projects</text>
<text text-anchor="middle" x="856.89" y="-425" font-family="Helvetica,sans-Serif" font-size="10.00">/Brenda/src/ECS/Entity.h</text>
</a>
</g>
</g>
<!-- Node2 -->
<g id="Node000002" class="node">
<title>Node2</title>
<g id="a_Node000002"><a xlink:href="ControllerManager_8h.html" target="_top" xlink:title=" ">
<polygon fill="white" stroke="#666666" points="202.89,-173 58.89,-173 58.89,-132 202.89,-132 202.89,-173"/>
<text text-anchor="start" x="66.89" y="-161" font-family="Helvetica,sans-Serif" font-size="10.00">/home/sean/Projects</text>
<text text-anchor="start" x="66.89" y="-150" font-family="Helvetica,sans-Serif" font-size="10.00">/Brenda/src/ECS/Controller</text>
<text text-anchor="middle" x="130.89" y="-139" font-family="Helvetica,sans-Serif" font-size="10.00">Manager.h</text>
</a>
</g>
</g>
<!-- Node1&#45;&gt;Node2 -->
<g id="edge1_Node000001_Node000002" class="edge">
<title>Node1&#45;&gt;Node2</title>
<g id="a_edge1_Node000001_Node000002"><a xlink:title=" ">
<path fill="none" stroke="#63b8ff" d="M780.54,-430.25C601.79,-424.72 162.56,-402.48 47.89,-316 7.83,-285.79 -15.07,-251.32 11.89,-209 22.73,-191.98 40.3,-180.1 58.64,-171.83"/>
<polygon fill="#63b8ff" stroke="#63b8ff" points="780.55,-433.75 790.65,-430.55 780.76,-426.75 780.55,-433.75"/>
</a>
</g>
</g>
<!-- Node4 -->
<g id="Node000004" class="node">
<title>Node4</title>
<g id="a_Node000004"><a xlink:href="Scene_8h.html" target="_top" xlink:title=" ">
<polygon fill="white" stroke="#666666" points="738.89,-96 622.89,-96 622.89,-66 738.89,-66 738.89,-96"/>
<text text-anchor="start" x="630.89" y="-84" font-family="Helvetica,sans-Serif" font-size="10.00">/home/sean/Projects</text>
<text text-anchor="middle" x="680.89" y="-73" font-family="Helvetica,sans-Serif" font-size="10.00">/Brenda/src/Scene.h</text>
</a>
</g>
</g>
<!-- Node1&#45;&gt;Node4 -->
<g id="edge30_Node000001_Node000004" class="edge">
<title>Node1&#45;&gt;Node4</title>
<g id="a_edge30_Node000001_Node000004"><a xlink:title=" ">
<path fill="none" stroke="#63b8ff" d="M841.58,-409.16C826.24,-384.03 804.89,-341.88 804.89,-302 804.89,-302 804.89,-302 804.89,-228.5 804.89,-167.52 741.53,-118.86 705.39,-96.07"/>
<polygon fill="#63b8ff" stroke="#63b8ff" points="838.81,-411.34 847.11,-417.93 844.73,-407.6 838.81,-411.34"/>
</a>
</g>
</g>
<!-- Node5 -->
<g id="Node000005" class="node">
<title>Node5</title>
<g id="a_Node000005"><a xlink:href="main_8cpp.html" target="_top" xlink:title=" ">
<polygon fill="white" stroke="#666666" points="826.39,-30 707.39,-30 707.39,0 826.39,0 826.39,-30"/>
<text text-anchor="start" x="715.39" y="-18" font-family="Helvetica,sans-Serif" font-size="10.00">/home/sean/Projects</text>
<text text-anchor="middle" x="766.89" y="-7" font-family="Helvetica,sans-Serif" font-size="10.00">/Brenda/src/main.cpp</text>
</a>
</g>
</g>
<!-- Node1&#45;&gt;Node5 -->
<g id="edge31_Node000001_Node000005" class="edge">
<title>Node1&#45;&gt;Node5</title>
<g id="a_edge31_Node000001_Node000005"><a xlink:title=" ">
<path fill="none" stroke="#63b8ff" d="M907.76,-414.01C953.28,-394.28 1012.89,-357.79 1012.89,-302 1012.89,-302 1012.89,-302 1012.89,-151.5 1012.89,-66.66 899.24,-34.55 826.44,-22.69"/>
<polygon fill="#63b8ff" stroke="#63b8ff" points="906.16,-410.89 898.29,-417.97 908.86,-417.35 906.16,-410.89"/>
</a>
</g>
</g>
<!-- Node6 -->
<g id="Node000006" class="node">
<title>Node6</title>
<g id="a_Node000006"><a xlink:href="Entity_8cpp.html" target="_top" xlink:title=" ">
<polygon fill="white" stroke="#666666" points="1184.39,-382 1041.39,-382 1041.39,-352 1184.39,-352 1184.39,-382"/>
<text text-anchor="start" x="1049.39" y="-370" font-family="Helvetica,sans-Serif" font-size="10.00">/home/sean/Projects</text>
<text text-anchor="middle" x="1112.89" y="-359" font-family="Helvetica,sans-Serif" font-size="10.00">/Brenda/src/ECS/Entity.cpp</text>
</a>
</g>
</g>
<!-- Node1&#45;&gt;Node6 -->
<g id="edge6_Node000001_Node000006" class="edge">
<title>Node1&#45;&gt;Node6</title>
<g id="a_edge6_Node000001_Node000006"><a xlink:title=" ">
<path fill="none" stroke="#63b8ff" d="M922.82,-415.52C964.34,-405.14 1017.36,-391.88 1056.84,-382.01"/>
<polygon fill="#63b8ff" stroke="#63b8ff" points="921.92,-412.13 913.07,-417.95 923.62,-418.92 921.92,-412.13"/>
</a>
</g>
</g>
<!-- Node7 -->
<g id="Node000007" class="node">
<title>Node7</title>
<g id="a_Node000007"><a xlink:href="PositionManager_8h.html" target="_top" xlink:title=" ">
<polygon fill="white" stroke="#666666" points="536.89,-382 350.89,-382 350.89,-352 536.89,-352 536.89,-382"/>
<text text-anchor="start" x="358.89" y="-370" font-family="Helvetica,sans-Serif" font-size="10.00">/home/sean/Projects</text>
<text text-anchor="middle" x="443.89" y="-359" font-family="Helvetica,sans-Serif" font-size="10.00">/Brenda/src/ECS/PositionManager.h</text>
</a>
</g>
</g>
<!-- Node1&#45;&gt;Node7 -->
<g id="edge7_Node000001_Node000007" class="edge">
<title>Node1&#45;&gt;Node7</title>
<g id="a_edge7_Node000001_Node000007"><a xlink:title=" ">
<path fill="none" stroke="#63b8ff" d="M780.51,-420.16C710.91,-409.38 608.03,-393.43 534.34,-382.02"/>
<polygon fill="#63b8ff" stroke="#63b8ff" points="780.12,-423.64 790.53,-421.72 781.19,-416.73 780.12,-423.64"/>
</a>
</g>
</g>
<!-- Node14 -->
<g id="Node000014" class="node">
<title>Node14</title>
<g id="a_Node000014"><a xlink:href="RenderableManager_8h.html" target="_top" xlink:title=" ">
<polygon fill="white" stroke="#666666" points="984.89,-173 832.89,-173 832.89,-132 984.89,-132 984.89,-173"/>
<text text-anchor="start" x="840.89" y="-161" font-family="Helvetica,sans-Serif" font-size="10.00">/home/sean/Projects</text>
<text text-anchor="start" x="840.89" y="-150" font-family="Helvetica,sans-Serif" font-size="10.00">/Brenda/src/ECS/Renderable</text>
<text text-anchor="middle" x="908.89" y="-139" font-family="Helvetica,sans-Serif" font-size="10.00">Manager.h</text>
</a>
</g>
</g>
<!-- Node1&#45;&gt;Node14 -->
<g id="edge29_Node000001_Node000014" class="edge">
<title>Node1&#45;&gt;Node14</title>
<g id="a_edge29_Node000001_Node000014"><a xlink:title=" ">
<path fill="none" stroke="#63b8ff" d="M861.43,-407.7C871.58,-353.3 895.99,-222.61 905.24,-173.03"/>
<polygon fill="#63b8ff" stroke="#63b8ff" points="857.94,-407.33 859.54,-417.81 864.82,-408.62 857.94,-407.33"/>
</a>
</g>
</g>
<!-- Node3 -->
<g id="Node000003" class="node">
<title>Node3</title>
<g id="a_Node000003"><a xlink:href="Scene_8cpp.html" target="_top" xlink:title=" ">
<polygon fill="white" stroke="#666666" points="451.89,-30 327.89,-30 327.89,0 451.89,0 451.89,-30"/>
<text text-anchor="start" x="335.89" y="-18" font-family="Helvetica,sans-Serif" font-size="10.00">/home/sean/Projects</text>
<text text-anchor="middle" x="389.89" y="-7" font-family="Helvetica,sans-Serif" font-size="10.00">/Brenda/src/Scene.cpp</text>
</a>
</g>
</g>
<!-- Node2&#45;&gt;Node3 -->
<g id="edge2_Node000002_Node000003" class="edge">
<title>Node2&#45;&gt;Node3</title>
<g id="a_edge2_Node000002_Node000003"><a xlink:title=" ">
<path fill="none" stroke="#63b8ff" d="M158.73,-124.93C179.47,-106.32 209.22,-82.01 238.89,-66 268.06,-50.27 303.06,-38.3 332.02,-30.02"/>
<polygon fill="#63b8ff" stroke="#63b8ff" points="156.28,-122.43 151.24,-131.75 160.99,-127.6 156.28,-122.43"/>
</a>
</g>
</g>
<!-- Node2&#45;&gt;Node4 -->
<g id="edge3_Node000002_Node000004" class="edge">
<title>Node2&#45;&gt;Node4</title>
<g id="a_edge3_Node000002_Node000004"><a xlink:title=" ">
<path fill="none" stroke="#63b8ff" d="M213,-140.39C233.84,-137.61 256.18,-134.66 276.89,-132 399.91,-116.17 544.13,-98.55 622.66,-89.03"/>
<polygon fill="#63b8ff" stroke="#63b8ff" points="212.35,-136.95 202.9,-141.74 213.28,-143.89 212.35,-136.95"/>
</a>
</g>
</g>
<!-- Node4&#45;&gt;Node3 -->
<g id="edge4_Node000004_Node000003" class="edge">
<title>Node4&#45;&gt;Node3</title>
<g id="a_edge4_Node000004_Node000003"><a xlink:title=" ">
<path fill="none" stroke="#63b8ff" d="M612.89,-65.04C564.24,-54.34 499.26,-40.05 452,-29.66"/>
<polygon fill="#63b8ff" stroke="#63b8ff" points="612.18,-68.47 622.7,-67.2 613.69,-61.64 612.18,-68.47"/>
</a>
</g>
</g>
<!-- Node4&#45;&gt;Node5 -->
<g id="edge5_Node000004_Node000005" class="edge">
<title>Node4&#45;&gt;Node5</title>
<g id="a_edge5_Node000004_Node000005"><a xlink:title=" ">
<path fill="none" stroke="#63b8ff" d="M708.1,-59.75C721.03,-50.13 736.18,-38.86 747.86,-30.16"/>
<polygon fill="#63b8ff" stroke="#63b8ff" points="705.91,-57.02 699.98,-65.8 710.09,-62.63 705.91,-57.02"/>
</a>
</g>
</g>
<!-- Node7&#45;&gt;Node2 -->
<g id="edge11_Node000007_Node000002" class="edge">
<title>Node7&#45;&gt;Node2</title>
<g id="a_edge11_Node000007_Node000002"><a xlink:title=" ">
<path fill="none" stroke="#63b8ff" d="M340.37,-361.77C274.97,-356.29 189.73,-343.89 118.89,-316 70.37,-296.9 46.28,-296.09 21.89,-250 13.37,-233.89 12.37,-224.54 21.89,-209 31.71,-192.98 47.77,-181.4 64.58,-173.11"/>
<polygon fill="#63b8ff" stroke="#63b8ff" points="340.45,-365.29 350.69,-362.59 341,-358.31 340.45,-365.29"/>
</a>
</g>
</g>
<!-- Node7&#45;&gt;Node4 -->
<g id="edge28_Node000007_Node000004" class="edge">
<title>Node7&#45;&gt;Node4</title>
<g id="a_edge28_Node000007_Node000004"><a xlink:title=" ">
<path fill="none" stroke="#63b8ff" d="M546.86,-351.97C607.11,-337.6 677.52,-308.58 709.89,-250 738.23,-198.71 705.39,-126.26 689.05,-96.06"/>
<polygon fill="#63b8ff" stroke="#63b8ff" points="545.87,-348.6 536.9,-354.23 547.42,-355.43 545.87,-348.6"/>
</a>
</g>
</g>
<!-- Node8 -->
<g id="Node000008" class="node">
<title>Node8</title>
<g id="a_Node000008"><a xlink:href="AISystem_8h.html" target="_top" xlink:title=" ">
<polygon fill="white" stroke="#666666" points="448.89,-244.5 318.89,-244.5 318.89,-214.5 448.89,-214.5 448.89,-244.5"/>
<text text-anchor="start" x="326.89" y="-232.5" font-family="Helvetica,sans-Serif" font-size="10.00">/home/sean/Projects</text>
<text text-anchor="middle" x="383.89" y="-221.5" font-family="Helvetica,sans-Serif" font-size="10.00">/Brenda/src/AISystem.h</text>
</a>
</g>
</g>
<!-- Node7&#45;&gt;Node8 -->
<g id="edge8_Node000007_Node000008" class="edge">
<title>Node7&#45;&gt;Node8</title>
<g id="a_edge8_Node000007_Node000008"><a xlink:title=" ">
<path fill="none" stroke="#63b8ff" d="M421.64,-344.29C414.35,-336.06 406.85,-326.2 401.89,-316 390.54,-292.68 386.32,-262.36 384.77,-244.8"/>
<polygon fill="#63b8ff" stroke="#63b8ff" points="419.11,-346.7 428.49,-351.64 424.24,-341.94 419.11,-346.7"/>
</a>
</g>
</g>
<!-- Node10 -->
<g id="Node000010" class="node">
<title>Node10</title>
<g id="a_Node000010"><a xlink:href="InfoBoxManager_8h.html" target="_top" xlink:title=" ">
<polygon fill="white" stroke="#666666" points="596.39,-316 411.39,-316 411.39,-286 596.39,-286 596.39,-316"/>
<text text-anchor="start" x="419.39" y="-304" font-family="Helvetica,sans-Serif" font-size="10.00">/home/sean/Projects</text>
<text text-anchor="middle" x="503.89" y="-293" font-family="Helvetica,sans-Serif" font-size="10.00">/Brenda/src/ECS/InfoBoxManager.h</text>
</a>
</g>
</g>
<!-- Node7&#45;&gt;Node10 -->
<g id="edge12_Node000007_Node000010" class="edge">
<title>Node7&#45;&gt;Node10</title>
<g id="a_edge12_Node000007_Node000010"><a xlink:title=" ">
<path fill="none" stroke="#63b8ff" d="M464.17,-344.37C472.9,-335.06 482.85,-324.44 490.61,-316.16"/>
<polygon fill="#63b8ff" stroke="#63b8ff" points="461.49,-342.11 457.21,-351.8 466.6,-346.89 461.49,-342.11"/>
</a>
</g>
</g>
<!-- Node12 -->
<g id="Node000012" class="node">
<title>Node12</title>
<g id="a_Node000012"><a xlink:href="MovementManager_8h.html" target="_top" xlink:title=" ">
<polygon fill="white" stroke="#666666" points="353.89,-316 153.89,-316 153.89,-286 353.89,-286 353.89,-316"/>
<text text-anchor="start" x="161.89" y="-304" font-family="Helvetica,sans-Serif" font-size="10.00">/home/sean/Projects</text>
<text text-anchor="middle" x="253.89" y="-293" font-family="Helvetica,sans-Serif" font-size="10.00">/Brenda/src/ECS/MovementManager.h</text>
</a>
</g>
</g>
<!-- Node7&#45;&gt;Node12 -->
<g id="edge17_Node000007_Node000012" class="edge">
<title>Node7&#45;&gt;Node12</title>
<g id="a_edge17_Node000007_Node000012"><a xlink:title=" ">
<path fill="none" stroke="#63b8ff" d="M392.6,-348.72C362.16,-338.47 324.05,-325.63 295.49,-316.01"/>
<polygon fill="#63b8ff" stroke="#63b8ff" points="391.6,-352.08 402.19,-351.95 393.83,-345.45 391.6,-352.08"/>
</a>
</g>
</g>
<!-- Node13 -->
<g id="Node000013" class="node">
<title>Node13</title>
<g id="a_Node000013"><a xlink:href="PlayerController_8h.html" target="_top" xlink:title=" ">
<polygon fill="white" stroke="#666666" points="186.89,-250 30.89,-250 30.89,-209 186.89,-209 186.89,-250"/>
<text text-anchor="start" x="38.89" y="-238" font-family="Helvetica,sans-Serif" font-size="10.00">/home/sean/Projects</text>
<text text-anchor="start" x="38.89" y="-227" font-family="Helvetica,sans-Serif" font-size="10.00">/Brenda/src/ECS/components</text>
<text text-anchor="middle" x="108.89" y="-216" font-family="Helvetica,sans-Serif" font-size="10.00">/PlayerController.h</text>
</a>
</g>
</g>
<!-- Node7&#45;&gt;Node13 -->
<g id="edge27_Node000007_Node000013" class="edge">
<title>Node7&#45;&gt;Node13</title>
<g id="a_edge27_Node000007_Node000013"><a xlink:title=" ">
<path fill="none" stroke="#63b8ff" d="M340.41,-359.26C266.38,-352.51 174.76,-339.61 144.89,-316 124.42,-299.82 115.44,-269.88 111.61,-250.07"/>
<polygon fill="#63b8ff" stroke="#63b8ff" points="340.46,-362.77 350.73,-360.17 341.08,-355.8 340.46,-362.77"/>
</a>
</g>
</g>
<!-- Node7&#45;&gt;Node14 -->
<g id="edge24_Node000007_Node000014" class="edge">
<title>Node7&#45;&gt;Node14</title>
<g id="a_edge24_Node000007_Node000014"><a xlink:title=" ">
<path fill="none" stroke="#63b8ff" d="M547.23,-363.98C607.15,-359.18 682.46,-346.71 742.89,-316 811.38,-281.19 869.86,-208.2 895.3,-173.13"/>
<polygon fill="#63b8ff" stroke="#63b8ff" points="546.71,-360.51 536.99,-364.74 547.22,-367.49 546.71,-360.51"/>
</a>
</g>
</g>
<!-- Node8&#45;&gt;Node5 -->
<g id="edge10_Node000008_Node000005" class="edge">
<title>Node8&#45;&gt;Node5</title>
<g id="a_edge10_Node000008_Node000005"><a xlink:title=" ">
<path fill="none" stroke="#63b8ff" d="M414.72,-208.97C430.99,-198.52 451.18,-185.3 468.89,-173 534.67,-127.31 542.69,-102.69 613.89,-66 644.07,-50.45 680.07,-38.4 709.56,-30.02"/>
<polygon fill="#63b8ff" stroke="#63b8ff" points="412.67,-206.13 406.14,-214.47 416.44,-212.02 412.67,-206.13"/>
</a>
</g>
</g>
<!-- Node9 -->
<g id="Node000009" class="node">
<title>Node9</title>
<g id="a_Node000009"><a xlink:href="AISystem_8cpp.html" target="_top" xlink:title=" ">
<polygon fill="white" stroke="#666666" points="460.39,-167.5 319.39,-167.5 319.39,-137.5 460.39,-137.5 460.39,-167.5"/>
<text text-anchor="start" x="327.39" y="-155.5" font-family="Helvetica,sans-Serif" font-size="10.00">/home/sean/Projects</text>
<text text-anchor="middle" x="389.89" y="-144.5" font-family="Helvetica,sans-Serif" font-size="10.00">/Brenda/src/AISystem.cpp</text>
</a>
</g>
</g>
<!-- Node8&#45;&gt;Node9 -->
<g id="edge9_Node000008_Node000009" class="edge">
<title>Node8&#45;&gt;Node9</title>
<g id="a_edge9_Node000008_Node000009"><a xlink:title=" ">
<path fill="none" stroke="#63b8ff" d="M385.82,-204.41C386.79,-192.24 387.94,-177.9 388.77,-167.54"/>
<polygon fill="#63b8ff" stroke="#63b8ff" points="382.33,-204.15 385.02,-214.39 389.31,-204.7 382.33,-204.15"/>
</a>
</g>
</g>
<!-- Node10&#45;&gt;Node3 -->
<g id="edge15_Node000010_Node000003" class="edge">
<title>Node10&#45;&gt;Node3</title>
<g id="a_edge15_Node000010_Node000003"><a xlink:title=" ">
<path fill="none" stroke="#63b8ff" d="M500.04,-275.76C493.48,-235.73 479.8,-157.68 468.89,-132 451.84,-91.86 420.01,-51.14 402.4,-30.27"/>
<polygon fill="#63b8ff" stroke="#63b8ff" points="496.6,-276.43 501.66,-285.74 503.51,-275.31 496.6,-276.43"/>
</a>
</g>
</g>
<!-- Node10&#45;&gt;Node5 -->
<g id="edge16_Node000010_Node000005" class="edge">
<title>Node10&#45;&gt;Node5</title>
<g id="a_edge16_Node000010_Node000005"><a xlink:title=" ">
<path fill="none" stroke="#63b8ff" d="M606.49,-285.25C650.19,-276.97 694.62,-265.21 709.89,-250 771.95,-188.18 770.61,-70.83 768.07,-30.24"/>
<polygon fill="#63b8ff" stroke="#63b8ff" points="605.8,-281.82 596.6,-287.07 607.07,-288.71 605.8,-281.82"/>
</a>
</g>
</g>
<!-- Node10&#45;&gt;Node8 -->
<g id="edge13_Node000010_Node000008" class="edge">
<title>Node10&#45;&gt;Node8</title>
<g id="a_edge13_Node000010_Node000008"><a xlink:title=" ">
<path fill="none" stroke="#63b8ff" d="M470.88,-280.88C451.02,-269.38 426.18,-254.99 408.14,-244.54"/>
<polygon fill="#63b8ff" stroke="#63b8ff" points="469.2,-283.95 479.61,-285.94 472.71,-277.9 469.2,-283.95"/>
</a>
</g>
</g>
<!-- Node11 -->
<g id="Node000011" class="node">
<title>Node11</title>
<g id="a_Node000011"><a xlink:href="InfoBoxManager_8cpp.html" target="_top" xlink:title=" ">
<polygon fill="white" stroke="#666666" points="700.89,-244.5 504.89,-244.5 504.89,-214.5 700.89,-214.5 700.89,-244.5"/>
<text text-anchor="start" x="512.89" y="-232.5" font-family="Helvetica,sans-Serif" font-size="10.00">/home/sean/Projects</text>
<text text-anchor="middle" x="602.89" y="-221.5" font-family="Helvetica,sans-Serif" font-size="10.00">/Brenda/src/ECS/InfoBoxManager.cpp</text>
</a>
</g>
</g>
<!-- Node10&#45;&gt;Node11 -->
<g id="edge14_Node000010_Node000011" class="edge">
<title>Node10&#45;&gt;Node11</title>
<g id="a_edge14_Node000010_Node000011"><a xlink:title=" ">
<path fill="none" stroke="#63b8ff" d="M532.46,-279.94C548.61,-268.6 568.4,-254.71 582.89,-244.54"/>
<polygon fill="#63b8ff" stroke="#63b8ff" points="530.1,-277.33 523.92,-285.94 534.12,-283.05 530.1,-277.33"/>
</a>
</g>
</g>
<!-- Node12&#45;&gt;Node2 -->
<g id="edge19_Node000012_Node000002" class="edge">
<title>Node12&#45;&gt;Node2</title>
<g id="a_edge19_Node000012_Node000002"><a xlink:title=" ">
<path fill="none" stroke="#63b8ff" d="M241.72,-276.91C231.01,-257.7 214.29,-230.16 195.89,-209 184.5,-195.9 169.94,-183.18 157.49,-173.23"/>
<polygon fill="#63b8ff" stroke="#63b8ff" points="238.74,-278.77 246.61,-285.86 244.88,-275.41 238.74,-278.77"/>
</a>
</g>
</g>
<!-- Node12&#45;&gt;Node3 -->
<g id="edge22_Node000012_Node000003" class="edge">
<title>Node12&#45;&gt;Node3</title>
<g id="a_edge22_Node000012_Node000003"><a xlink:title=" ">
<path fill="none" stroke="#63b8ff" d="M254.62,-275.56C256.57,-241.45 263.62,-178.54 288.89,-132 311.57,-90.23 351.54,-50.46 373.79,-30.11"/>
<polygon fill="#63b8ff" stroke="#63b8ff" points="251.12,-275.41 254.15,-285.56 258.12,-275.74 251.12,-275.41"/>
</a>
</g>
</g>
<!-- Node12&#45;&gt;Node4 -->
<g id="edge23_Node000012_Node000004" class="edge">
<title>Node12&#45;&gt;Node4</title>
<g id="a_edge23_Node000012_Node000004"><a xlink:title=" ">
<path fill="none" stroke="#63b8ff" d="M260.39,-275.94C272.54,-231.78 298.49,-141.44 309.89,-132 356.32,-93.56 530.26,-84.57 622.54,-82.54"/>
<polygon fill="#63b8ff" stroke="#63b8ff" points="256.94,-275.28 257.68,-285.85 263.7,-277.13 256.94,-275.28"/>
</a>
</g>
</g>
<!-- Node12&#45;&gt;Node8 -->
<g id="edge18_Node000012_Node000008" class="edge">
<title>Node12&#45;&gt;Node8</title>
<g id="a_edge18_Node000012_Node000008"><a xlink:title=" ">
<path fill="none" stroke="#63b8ff" d="M289.08,-281.19C310.68,-269.64 337.9,-255.09 357.62,-244.54"/>
<polygon fill="#63b8ff" stroke="#63b8ff" points="287.37,-278.13 280.2,-285.94 290.67,-284.31 287.37,-278.13"/>
</a>
</g>
</g>
<!-- Node12&#45;&gt;Node13 -->
<g id="edge20_Node000012_Node000013" class="edge">
<title>Node12&#45;&gt;Node13</title>
<g id="a_edge20_Node000012_Node000013"><a xlink:title=" ">
<path fill="none" stroke="#63b8ff" d="M215.31,-281.51C195.07,-271.81 170.29,-259.93 149.73,-250.07"/>
<polygon fill="#63b8ff" stroke="#63b8ff" points="214.02,-284.77 224.55,-285.94 217.04,-278.46 214.02,-284.77"/>
</a>
</g>
</g>
<!-- Node13&#45;&gt;Node2 -->
<g id="edge21_Node000013_Node000002" class="edge">
<title>Node13&#45;&gt;Node2</title>
<g id="a_edge21_Node000013_Node000002"><a xlink:title=" ">
<path fill="none" stroke="#63b8ff" d="M117.55,-198.98C120.1,-190.28 122.83,-180.98 125.15,-173.07"/>
<polygon fill="#63b8ff" stroke="#63b8ff" points="114.13,-198.21 114.67,-208.79 120.84,-200.18 114.13,-198.21"/>
</a>
</g>
</g>
<!-- Node14&#45;&gt;Node4 -->
<g id="edge25_Node000014_Node000004" class="edge">
<title>Node14&#45;&gt;Node4</title>
<g id="a_edge25_Node000014_Node000004"><a xlink:title=" ">
<path fill="none" stroke="#63b8ff" d="M834.91,-128.95C799.33,-118.1 757.8,-105.44 726.83,-96"/>
<polygon fill="#63b8ff" stroke="#63b8ff" points="834.19,-132.39 844.77,-131.96 836.23,-125.69 834.19,-132.39"/>
</a>
</g>
</g>
<!-- Node14&#45;&gt;Node5 -->
<g id="edge26_Node000014_Node000005" class="edge">
<title>Node14&#45;&gt;Node5</title>
<g id="a_edge26_Node000014_Node000005"><a xlink:title=" ">
<path fill="none" stroke="#63b8ff" d="M880.69,-124.59C850.98,-96.24 805.34,-52.69 781.91,-30.33"/>
<polygon fill="#63b8ff" stroke="#63b8ff" points="878.59,-127.43 888.24,-131.8 883.42,-122.36 878.59,-127.43"/>
</a>
</g>
</g>
</g>
</svg>

<g id="navigator" transform="translate(0 0)" fill="#404254">
  <rect fill="#f2f5e9" fill-opacity="0.5" stroke="#606060" stroke-width=".5" x="0" y="0" width="60" height="60"/>
  <use id="zoomplus" xlink:href="#zoomPlus" x="17" y="9" onmousedown="handleZoom(evt,'in')"/>
  <use id="zoomminus" xlink:href="#zoomMin" x="42" y="9" onmousedown="handleZoom(evt,'out')"/>
  <use id="reset" xlink:href="#resetDef" x="30" y="36" onmousedown="handleReset()"/>
   <use id="arrowup" xlink:href="#arrowUp" x="0" y="0" onmousedown="handlePan(0,-1)"/>
  <use id="arrowright" xlink:href="#arrowRight" x="0" y="0" onmousedown="handlePan(1,0)"/>
  <use id="arrowdown" xlink:href="#arrowDown" x="0" y="0" onmousedown="handlePan(0,1)"/>
  <use id="arrowleft" xlink:href="#arrowLeft" x="0" y="0" onmousedown="handlePan(-1,0)"/>
</g>
<svg viewBox="0 0 15 15" width="100%" height="30px" preserveAspectRatio="xMaxYMin meet">
 <g id="arrow_out" transform="scale(0.3 0.3)">
  <a xlink:href="Entity_8h__dep__incl_org.svg" target="_base">
   <rect id="button" ry="5" rx="5" y="6" x="6" height="38" width="38"
        fill="#f2f5e9" fill-opacity="0.5" stroke="#606060" stroke-width="1.0"/>
   <path id="arrow"
     d="M 11.500037,31.436501 C 11.940474,20.09759 22.043105,11.32322 32.158766,21.979434 L 37.068811,17.246167 C 37.068811,17.246167 37.088388,32 37.088388,32 L 22.160133,31.978069 C 22.160133,31.978069 26.997745,27.140456 26.997745,27.140456 C 18.528582,18.264221 13.291696,25.230495 11.500037,31.436501 z"
     style="fill:#404040;"/>
  </a>
 </g>
</svg>

<style type='text/css'>
<![CDATA[
[data-mouse-over-selected='false'] { opacity: 0.7; }
[data-mouse-over-selected='true']  { opacity: 1.0; }
]]>
</style>
<script type="application/ecmascript"><![CDATA[
document.addEventListener('DOMContentLoaded', (event) => {
  highlightEdges();
  highlightAdjacentNodes();
});
]]></script>
</svg>
