<?xml version="1.0" encoding="UTF-8" standalone="no"?>
<!DOCTYPE svg PUBLIC "-//W3C//DTD SVG 1.1//EN"
 "http://www.w3.org/Graphics/SVG/1.1/DTD/svg11.dtd">
<!-- Generated by graphviz version 2.43.0 (0)
 -->
<!-- Title: /home/sean/Projects/Brenda/src/Grid.h Pages: 1 -->
<!--zoomable 324 -->

<svg id="main" version="1.1" xmlns="http://www.w3.org/2000/svg" xmlns:xlink="http://www.w3.org/1999/xlink" xml:space="preserve" onload="init(evt)">
<style type="text/css"><![CDATA[
.node, .edge {opacity: 0.7;}
.node.selected, .edge.selected {opacity: 1;}
.edge:hover path { stroke: red; }
.edge:hover polygon { stroke: red; fill: red; }
]]></style>

<defs>
  <circle id="rim" cx="0" cy="0" r="7"/>
  <circle id="rim2" cx="0" cy="0" r="3.5"/>
  <g id="zoomPlus">
    <use xlink:href="#rim" fill="#404040"><set attributeName="fill" to="#808080" begin="zoomplus.mouseover" end="zoomplus.mouseout"/></use>
    <path d="M-4,0h8M0,-4v8" fill="none" stroke="white" stroke-width="1.5" pointer-events="none"/>
  </g>
  <g id="zoomMin">
    <use xlink:href="#rim" fill="#404040"><set attributeName="fill" to="#808080" begin="zoomminus.mouseover" end="zoomminus.mouseout"/></use>
    <path d="M-4,0h8" fill="none" stroke="white" stroke-width="1.5" pointer-events="none"/>
  </g>
  <g id="arrowUp" transform="translate(30 24)">
    <use xlink:href="#rim"/>
    <path pointer-events="none" fill="none" stroke="white" stroke-width="1.5" d="M0,-3.0v7 M-2.5,-0.5L0,-3.0L2.5,-0.5"/>
  </g>
  <g id="arrowRight" transform="rotate(90) translate(36 -43)">
    <use xlink:href="#rim"/>
    <path pointer-events="none" fill="none" stroke="white" stroke-width="1.5" d="M0,-3.0v7 M-2.5,-0.5L0,-3.0L2.5,-0.5"/>
  </g>
  <g id="arrowDown" transform="rotate(180) translate(-30 -48)">
    <use xlink:href="#rim"/>
    <path pointer-events="none" fill="none" stroke="white" stroke-width="1.5" d="M0,-3.0v7 M-2.5,-0.5L0,-3.0L2.5,-0.5"/>
  </g>
  <g id="arrowLeft" transform="rotate(270) translate(-36 17)">
    <use xlink:href="#rim"/>
    <path pointer-events="none" fill="none" stroke="white" stroke-width="1.5" d="M0,-3.0v7 M-2.5,-0.5L0,-3.0L2.5,-0.5"/>
  </g>
  <g id="resetDef">
    <use xlink:href="#rim2" fill="#404040"><set attributeName="fill" to="#808080" begin="reset.mouseover" end="reset.mouseout"/></use>
  </g>
</defs>
<script type="application/ecmascript">
var viewWidth = 953;
var viewHeight = 324;
var sectionId = 'dynsection-1';
</script>
<script type="application/ecmascript" xlink:href="svg.min.js"/>
<svg id="graph" class="graph">
<g id="viewport">
<title>/home/sean/Projects/Brenda/src/Grid.h</title>
<!-- Node1 -->
<g id="Node000001" class="node">
<title>Node1</title>
<g id="a_Node000001"><a xlink:title=" ">
<polygon fill="#999999" stroke="#666666" points="469,-316 353,-316 353,-286 469,-286 469,-316"/>
<text text-anchor="start" x="361" y="-304" font-family="Helvetica,sans-Serif" font-size="10.00">/home/sean/Projects</text>
<text text-anchor="middle" x="411" y="-293" font-family="Helvetica,sans-Serif" font-size="10.00">/Brenda/src/Grid.h</text>
</a>
</g>
</g>
<!-- Node2 -->
<g id="Node000002" class="node">
<title>Node2</title>
<g id="a_Node000002"><a xlink:href="AISystem_8h.html" target="_top" xlink:title=" ">
<polygon fill="white" stroke="#666666" points="741,-167.5 611,-167.5 611,-137.5 741,-137.5 741,-167.5"/>
<text text-anchor="start" x="619" y="-155.5" font-family="Helvetica,sans-Serif" font-size="10.00">/home/sean/Projects</text>
<text text-anchor="middle" x="676" y="-144.5" font-family="Helvetica,sans-Serif" font-size="10.00">/Brenda/src/AISystem.h</text>
</a>
</g>
</g>
<!-- Node1&#45;&gt;Node2 -->
<g id="edge1_Node000001_Node000002" class="edge">
<title>Node1&#45;&gt;Node2</title>
<g id="a_edge1_Node000001_Node000002"><a xlink:title=" ">
<path fill="none" stroke="#63b8ff" d="M479.4,-290.59C514.73,-283.44 557.36,-271.08 591,-250 625.43,-228.42 653.87,-188.75 667.43,-167.62"/>
<polygon fill="#63b8ff" stroke="#63b8ff" points="478.33,-287.23 469.17,-292.56 479.65,-294.1 478.33,-287.23"/>
</a>
</g>
</g>
<!-- Node4 -->
<g id="Node000004" class="node">
<title>Node4</title>
<g id="a_Node000004"><a xlink:href="main_8cpp.html" target="_top" xlink:title=" ">
<polygon fill="white" stroke="#666666" points="480.5,-30 361.5,-30 361.5,0 480.5,0 480.5,-30"/>
<text text-anchor="start" x="369.5" y="-18" font-family="Helvetica,sans-Serif" font-size="10.00">/home/sean/Projects</text>
<text text-anchor="middle" x="421" y="-7" font-family="Helvetica,sans-Serif" font-size="10.00">/Brenda/src/main.cpp</text>
</a>
</g>
</g>
<!-- Node1&#45;&gt;Node4 -->
<g id="edge25_Node000001_Node000004" class="edge">
<title>Node1&#45;&gt;Node4</title>
<g id="a_edge25_Node000001_Node000004"><a xlink:title=" ">
<path fill="none" stroke="#63b8ff" d="M342.75,-289.15C299.46,-280.71 249.2,-267.49 236,-250 184.68,-181.96 227.53,-123.98 290,-66 309.72,-47.7 336.82,-35.88 361.26,-28.36"/>
<polygon fill="#63b8ff" stroke="#63b8ff" points="342.25,-292.61 352.72,-291.03 343.55,-285.73 342.25,-292.61"/>
</a>
</g>
</g>
<!-- Node5 -->
<g id="Node000005" class="node">
<title>Node5</title>
<g id="a_Node000005"><a xlink:href="ControllerManager_8h.html" target="_top" xlink:title=" ">
<polygon fill="white" stroke="#666666" points="144,-173 0,-173 0,-132 144,-132 144,-173"/>
<text text-anchor="start" x="8" y="-161" font-family="Helvetica,sans-Serif" font-size="10.00">/home/sean/Projects</text>
<text text-anchor="start" x="8" y="-150" font-family="Helvetica,sans-Serif" font-size="10.00">/Brenda/src/ECS/Controller</text>
<text text-anchor="middle" x="72" y="-139" font-family="Helvetica,sans-Serif" font-size="10.00">Manager.h</text>
</a>
</g>
</g>
<!-- Node1&#45;&gt;Node5 -->
<g id="edge4_Node000001_Node000005" class="edge">
<title>Node1&#45;&gt;Node5</title>
<g id="a_edge4_Node000001_Node000005"><a xlink:title=" ">
<path fill="none" stroke="#63b8ff" d="M342.82,-296.16C235.99,-289.44 39.08,-273.94 18,-250 -2.68,-226.52 24.86,-193.82 47.61,-173.16"/>
<polygon fill="#63b8ff" stroke="#63b8ff" points="342.68,-299.66 352.87,-296.78 343.11,-292.67 342.68,-299.66"/>
</a>
</g>
</g>
<!-- Node8 -->
<g id="Node000008" class="node">
<title>Node8</title>
<g id="a_Node000008"><a xlink:href="PlayerController_8h.html" target="_top" xlink:title=" ">
<polygon fill="white" stroke="#666666" points="183,-250 27,-250 27,-209 183,-209 183,-250"/>
<text text-anchor="start" x="35" y="-238" font-family="Helvetica,sans-Serif" font-size="10.00">/home/sean/Projects</text>
<text text-anchor="start" x="35" y="-227" font-family="Helvetica,sans-Serif" font-size="10.00">/Brenda/src/ECS/components</text>
<text text-anchor="middle" x="105" y="-216" font-family="Helvetica,sans-Serif" font-size="10.00">/PlayerController.h</text>
</a>
</g>
</g>
<!-- Node1&#45;&gt;Node8 -->
<g id="edge9_Node000001_Node000008" class="edge">
<title>Node1&#45;&gt;Node8</title>
<g id="a_edge9_Node000001_Node000008"><a xlink:title=" ">
<path fill="none" stroke="#63b8ff" d="M342.88,-284.53C295.55,-273.78 232.36,-259.43 183.01,-248.22"/>
<polygon fill="#63b8ff" stroke="#63b8ff" points="342.2,-287.96 352.72,-286.76 343.75,-281.14 342.2,-287.96"/>
</a>
</g>
</g>
<!-- Node9 -->
<g id="Node000009" class="node">
<title>Node9</title>
<g id="a_Node000009"><a xlink:href="Grid_8cpp.html" target="_top" xlink:title=" ">
<polygon fill="white" stroke="#666666" points="393,-167.5 277,-167.5 277,-137.5 393,-137.5 393,-167.5"/>
<text text-anchor="start" x="285" y="-155.5" font-family="Helvetica,sans-Serif" font-size="10.00">/home/sean/Projects</text>
<text text-anchor="middle" x="335" y="-144.5" font-family="Helvetica,sans-Serif" font-size="10.00">/Brenda/src/Grid.cpp</text>
</a>
</g>
</g>
<!-- Node1&#45;&gt;Node9 -->
<g id="edge11_Node000001_Node000009" class="edge">
<title>Node1&#45;&gt;Node9</title>
<g id="a_edge11_Node000001_Node000009"><a xlink:title=" ">
<path fill="none" stroke="#63b8ff" d="M409.81,-275.86C407.99,-256.7 403.42,-229.79 392,-209 382.89,-192.41 367.21,-177.69 354.59,-167.58"/>
<polygon fill="#63b8ff" stroke="#63b8ff" points="406.32,-276.17 410.58,-285.87 413.3,-275.63 406.32,-276.17"/>
</a>
</g>
</g>
<!-- Node10 -->
<g id="Node000010" class="node">
<title>Node10</title>
<g id="a_Node000010"><a xlink:href="GridRenderer_8h.html" target="_top" xlink:title=" ">
<polygon fill="white" stroke="#666666" points="944.5,-167.5 797.5,-167.5 797.5,-137.5 944.5,-137.5 944.5,-167.5"/>
<text text-anchor="start" x="805.5" y="-155.5" font-family="Helvetica,sans-Serif" font-size="10.00">/home/sean/Projects</text>
<text text-anchor="middle" x="871" y="-144.5" font-family="Helvetica,sans-Serif" font-size="10.00">/Brenda/src/GridRenderer.h</text>
</a>
</g>
</g>
<!-- Node1&#45;&gt;Node10 -->
<g id="edge12_Node000001_Node000010" class="edge">
<title>Node1&#45;&gt;Node10</title>
<g id="a_edge12_Node000001_Node000010"><a xlink:title=" ">
<path fill="none" stroke="#63b8ff" d="M479.61,-300.44C585.54,-299.73 782.32,-292.53 836,-250 861.56,-229.75 868.46,-189.14 870.32,-167.63"/>
<polygon fill="#63b8ff" stroke="#63b8ff" points="479.32,-296.94 469.34,-300.49 479.35,-303.94 479.32,-296.94"/>
</a>
</g>
</g>
<!-- Node11 -->
<g id="Node000011" class="node">
<title>Node11</title>
<g id="a_Node000011"><a xlink:href="HomeManager_8h.html" target="_top" xlink:title=" ">
<polygon fill="white" stroke="#666666" points="826.5,-244.5 671.5,-244.5 671.5,-214.5 826.5,-214.5 826.5,-244.5"/>
<text text-anchor="start" x="679.5" y="-232.5" font-family="Helvetica,sans-Serif" font-size="10.00">/home/sean/Projects</text>
<text text-anchor="middle" x="749" y="-221.5" font-family="Helvetica,sans-Serif" font-size="10.00">/Brenda/src/HomeManager.h</text>
</a>
</g>
</g>
<!-- Node1&#45;&gt;Node11 -->
<g id="edge14_Node000001_Node000011" class="edge">
<title>Node1&#45;&gt;Node11</title>
<g id="a_edge14_Node000001_Node000011"><a xlink:title=" ">
<path fill="none" stroke="#63b8ff" d="M479.03,-286.01C537.75,-273.94 622.15,-256.58 680.9,-244.5"/>
<polygon fill="#63b8ff" stroke="#63b8ff" points="478.19,-282.61 469.1,-288.05 479.6,-289.47 478.19,-282.61"/>
</a>
</g>
</g>
<!-- Node12 -->
<g id="Node000012" class="node">
<title>Node12</title>
<g id="a_Node000012"><a xlink:href="Pathfinder_8h.html" target="_top" xlink:title=" ">
<polygon fill="white" stroke="#666666" points="581.5,-244.5 450.5,-244.5 450.5,-214.5 581.5,-214.5 581.5,-244.5"/>
<text text-anchor="start" x="458.5" y="-232.5" font-family="Helvetica,sans-Serif" font-size="10.00">/home/sean/Projects</text>
<text text-anchor="middle" x="516" y="-221.5" font-family="Helvetica,sans-Serif" font-size="10.00">/Brenda/src/Pathfinder.h</text>
</a>
</g>
</g>
<!-- Node1&#45;&gt;Node12 -->
<g id="edge18_Node000001_Node000012" class="edge">
<title>Node1&#45;&gt;Node12</title>
<g id="a_edge18_Node000001_Node000012"><a xlink:title=" ">
<path fill="none" stroke="#63b8ff" d="M440.83,-280.25C458.04,-268.86 479.28,-254.81 494.78,-244.54"/>
<polygon fill="#63b8ff" stroke="#63b8ff" points="438.66,-277.5 432.25,-285.94 442.52,-283.33 438.66,-277.5"/>
</a>
</g>
</g>
<!-- Node14 -->
<g id="Node000014" class="node">
<title>Node14</title>
<g id="a_Node000014"><a xlink:href="TiledParser_8h.html" target="_top" xlink:title=" ">
<polygon fill="white" stroke="#666666" points="382.5,-244.5 245.5,-244.5 245.5,-214.5 382.5,-214.5 382.5,-244.5"/>
<text text-anchor="start" x="253.5" y="-232.5" font-family="Helvetica,sans-Serif" font-size="10.00">/home/sean/Projects</text>
<text text-anchor="middle" x="314" y="-221.5" font-family="Helvetica,sans-Serif" font-size="10.00">/Brenda/src/TiledParser.h</text>
</a>
</g>
</g>
<!-- Node1&#45;&gt;Node14 -->
<g id="edge22_Node000001_Node000014" class="edge">
<title>Node1&#45;&gt;Node14</title>
<g id="a_edge22_Node000001_Node000014"><a xlink:title=" ">
<path fill="none" stroke="#63b8ff" d="M383,-279.94C367.18,-268.6 347.79,-254.71 333.6,-244.54"/>
<polygon fill="#63b8ff" stroke="#63b8ff" points="381.2,-282.96 391.37,-285.94 385.28,-277.27 381.2,-282.96"/>
</a>
</g>
</g>
<!-- Node3 -->
<g id="Node000003" class="node">
<title>Node3</title>
<g id="a_Node000003"><a xlink:href="AISystem_8cpp.html" target="_top" xlink:title=" ">
<polygon fill="white" stroke="#666666" points="647.5,-96 506.5,-96 506.5,-66 647.5,-66 647.5,-96"/>
<text text-anchor="start" x="514.5" y="-84" font-family="Helvetica,sans-Serif" font-size="10.00">/home/sean/Projects</text>
<text text-anchor="middle" x="577" y="-73" font-family="Helvetica,sans-Serif" font-size="10.00">/Brenda/src/AISystem.cpp</text>
</a>
</g>
</g>
<!-- Node2&#45;&gt;Node3 -->
<g id="edge2_Node000002_Node000003" class="edge">
<title>Node2&#45;&gt;Node3</title>
<g id="a_edge2_Node000002_Node000003"><a xlink:title=" ">
<path fill="none" stroke="#63b8ff" d="M647.43,-131.44C631.28,-120.1 611.49,-106.21 597,-96.04"/>
<polygon fill="#63b8ff" stroke="#63b8ff" points="645.77,-134.55 655.97,-137.44 649.79,-128.83 645.77,-134.55"/>
</a>
</g>
</g>
<!-- Node2&#45;&gt;Node4 -->
<g id="edge3_Node000002_Node000004" class="edge">
<title>Node2&#45;&gt;Node4</title>
<g id="a_edge3_Node000002_Node000004"><a xlink:title=" ">
<path fill="none" stroke="#63b8ff" d="M677.25,-127.07C676.83,-107.87 672.97,-81.81 657,-66 632.52,-41.76 542.06,-28.03 480.51,-21.31"/>
<polygon fill="#63b8ff" stroke="#63b8ff" points="673.74,-127.16 677.16,-137.19 680.74,-127.21 673.74,-127.16"/>
</a>
</g>
</g>
<!-- Node6 -->
<g id="Node000006" class="node">
<title>Node6</title>
<g id="a_Node000006"><a xlink:href="Scene_8cpp.html" target="_top" xlink:title=" ">
<polygon fill="white" stroke="#666666" points="144,-30 20,-30 20,0 144,0 144,-30"/>
<text text-anchor="start" x="28" y="-18" font-family="Helvetica,sans-Serif" font-size="10.00">/home/sean/Projects</text>
<text text-anchor="middle" x="82" y="-7" font-family="Helvetica,sans-Serif" font-size="10.00">/Brenda/src/Scene.cpp</text>
</a>
</g>
</g>
<!-- Node5&#45;&gt;Node6 -->
<g id="edge5_Node000005_Node000006" class="edge">
<title>Node5&#45;&gt;Node6</title>
<g id="a_edge5_Node000005_Node000006"><a xlink:title=" ">
<path fill="none" stroke="#63b8ff" d="M61.57,-122C57.11,-105.44 53.8,-84.46 58,-66 60.91,-53.23 67.5,-39.92 73.04,-30.24"/>
<polygon fill="#63b8ff" stroke="#63b8ff" points="58.24,-123.08 64.43,-131.67 64.95,-121.09 58.24,-123.08"/>
</a>
</g>
</g>
<!-- Node7 -->
<g id="Node000007" class="node">
<title>Node7</title>
<g id="a_Node000007"><a xlink:href="Scene_8h.html" target="_top" xlink:title=" ">
<polygon fill="white" stroke="#666666" points="183,-96 67,-96 67,-66 183,-66 183,-96"/>
<text text-anchor="start" x="75" y="-84" font-family="Helvetica,sans-Serif" font-size="10.00">/home/sean/Projects</text>
<text text-anchor="middle" x="125" y="-73" font-family="Helvetica,sans-Serif" font-size="10.00">/Brenda/src/Scene.h</text>
</a>
</g>
</g>
<!-- Node5&#45;&gt;Node7 -->
<g id="edge6_Node000005_Node000007" class="edge">
<title>Node5&#45;&gt;Node7</title>
<g id="a_edge6_Node000005_Node000007"><a xlink:title=" ">
<path fill="none" stroke="#63b8ff" d="M93.21,-123.69C100.45,-114.19 108.24,-103.98 114.29,-96.04"/>
<polygon fill="#63b8ff" stroke="#63b8ff" points="90.33,-121.7 87.05,-131.77 95.89,-125.94 90.33,-121.7"/>
</a>
</g>
</g>
<!-- Node7&#45;&gt;Node4 -->
<g id="edge8_Node000007_Node000004" class="edge">
<title>Node7&#45;&gt;Node4</title>
<g id="a_edge8_Node000007_Node000004"><a xlink:title=" ">
<path fill="none" stroke="#63b8ff" d="M193.05,-65.29C243.92,-54.29 312.8,-39.4 361.49,-28.87"/>
<polygon fill="#63b8ff" stroke="#63b8ff" points="192.16,-61.9 183.13,-67.43 193.64,-68.74 192.16,-61.9"/>
</a>
</g>
</g>
<!-- Node7&#45;&gt;Node6 -->
<g id="edge7_Node000007_Node000006" class="edge">
<title>Node7&#45;&gt;Node6</title>
<g id="a_edge7_Node000007_Node000006"><a xlink:title=" ">
<path fill="none" stroke="#63b8ff" d="M109.71,-57.24C103.64,-48.21 96.86,-38.11 91.52,-30.16"/>
<polygon fill="#63b8ff" stroke="#63b8ff" points="106.97,-59.45 115.46,-65.8 112.79,-55.54 106.97,-59.45"/>
</a>
</g>
</g>
<!-- Node8&#45;&gt;Node5 -->
<g id="edge10_Node000008_Node000005" class="edge">
<title>Node8&#45;&gt;Node5</title>
<g id="a_edge10_Node000008_Node000005"><a xlink:title=" ">
<path fill="none" stroke="#63b8ff" d="M92.26,-199.55C88.36,-190.69 84.17,-181.15 80.61,-173.07"/>
<polygon fill="#63b8ff" stroke="#63b8ff" points="89.1,-201.05 96.33,-208.79 95.51,-198.23 89.1,-201.05"/>
</a>
</g>
</g>
<!-- Node10&#45;&gt;Node4 -->
<g id="edge13_Node000010_Node000004" class="edge">
<title>Node10&#45;&gt;Node4</title>
<g id="a_edge13_Node000010_Node000004"><a xlink:title=" ">
<path fill="none" stroke="#63b8ff" d="M855.07,-129.47C839.22,-109.37 812.98,-80.64 783,-66 730.98,-40.6 569.15,-26.01 480.52,-19.72"/>
<polygon fill="#63b8ff" stroke="#63b8ff" points="852.35,-131.67 861.21,-137.49 857.91,-127.42 852.35,-131.67"/>
</a>
</g>
</g>
<!-- Node11&#45;&gt;Node2 -->
<g id="edge15_Node000011_Node000002" class="edge">
<title>Node11&#45;&gt;Node2</title>
<g id="a_edge15_Node000011_Node000002"><a xlink:title=" ">
<path fill="none" stroke="#63b8ff" d="M728.03,-206.96C715.7,-194.29 700.46,-178.63 689.67,-167.54"/>
<polygon fill="#63b8ff" stroke="#63b8ff" points="725.79,-209.67 735.27,-214.39 730.8,-204.79 725.79,-209.67"/>
</a>
</g>
</g>
<!-- Node11&#45;&gt;Node4 -->
<g id="edge17_Node000011_Node000004" class="edge">
<title>Node11&#45;&gt;Node4</title>
<g id="a_edge17_Node000011_Node000004"><a xlink:title=" ">
<path fill="none" stroke="#63b8ff" d="M754.57,-204.41C758.04,-184.19 760.12,-155.01 750,-132 732.52,-92.26 716.76,-85.55 678,-66 615.29,-34.38 534.67,-22.71 480.59,-18.44"/>
<polygon fill="#63b8ff" stroke="#63b8ff" points="751.11,-203.87 752.64,-214.36 757.99,-205.21 751.11,-203.87"/>
</a>
</g>
</g>
<!-- Node11&#45;&gt;Node10 -->
<g id="edge16_Node000011_Node000010" class="edge">
<title>Node11&#45;&gt;Node10</title>
<g id="a_edge16_Node000011_Node000010"><a xlink:title=" ">
<path fill="none" stroke="#63b8ff" d="M780.59,-209.08C801.74,-196.08 829.1,-179.26 848.16,-167.54"/>
<polygon fill="#63b8ff" stroke="#63b8ff" points="778.63,-206.17 771.95,-214.39 782.3,-212.14 778.63,-206.17"/>
</a>
</g>
</g>
<!-- Node12&#45;&gt;Node2 -->
<g id="edge19_Node000012_Node000002" class="edge">
<title>Node12&#45;&gt;Node2</title>
<g id="a_edge19_Node000012_Node000002"><a xlink:title=" ">
<path fill="none" stroke="#63b8ff" d="M555.22,-210.12C583.24,-196.98 620.38,-179.57 646.04,-167.54"/>
<polygon fill="#63b8ff" stroke="#63b8ff" points="553.66,-206.98 546.09,-214.39 556.63,-213.32 553.66,-206.98"/>
</a>
</g>
</g>
<!-- Node12&#45;&gt;Node4 -->
<g id="edge21_Node000012_Node000004" class="edge">
<title>Node12&#45;&gt;Node4</title>
<g id="a_edge21_Node000012_Node000004"><a xlink:title=" ">
<path fill="none" stroke="#63b8ff" d="M478.19,-209.13C464.26,-200.06 449.75,-187.93 441,-173 413.76,-126.54 416.51,-59.19 419.29,-30.17"/>
<polygon fill="#63b8ff" stroke="#63b8ff" points="476.39,-212.13 486.74,-214.38 480.05,-206.17 476.39,-212.13"/>
</a>
</g>
</g>
<!-- Node13 -->
<g id="Node000013" class="node">
<title>Node13</title>
<g id="a_Node000013"><a xlink:href="Pathfinder_8cpp.html" target="_top" xlink:title=" ">
<polygon fill="white" stroke="#666666" points="592.5,-167.5 449.5,-167.5 449.5,-137.5 592.5,-137.5 592.5,-167.5"/>
<text text-anchor="start" x="457.5" y="-155.5" font-family="Helvetica,sans-Serif" font-size="10.00">/home/sean/Projects</text>
<text text-anchor="middle" x="521" y="-144.5" font-family="Helvetica,sans-Serif" font-size="10.00">/Brenda/src/Pathfinder.cpp</text>
</a>
</g>
</g>
<!-- Node12&#45;&gt;Node13 -->
<g id="edge20_Node000012_Node000013" class="edge">
<title>Node12&#45;&gt;Node13</title>
<g id="a_edge20_Node000012_Node000013"><a xlink:title=" ">
<path fill="none" stroke="#63b8ff" d="M517.61,-204.41C518.42,-192.24 519.37,-177.9 520.06,-167.54"/>
<polygon fill="#63b8ff" stroke="#63b8ff" points="514.11,-204.18 516.94,-214.39 521.1,-204.65 514.11,-204.18"/>
</a>
</g>
</g>
<!-- Node14&#45;&gt;Node4 -->
<g id="edge24_Node000014_Node000004" class="edge">
<title>Node14&#45;&gt;Node4</title>
<g id="a_edge24_Node000014_Node000004"><a xlink:title=" ">
<path fill="none" stroke="#63b8ff" d="M290.2,-207C281.46,-197.54 272.58,-185.69 268,-173 261.82,-155.86 259.89,-148.32 268,-132 292.84,-82 350.67,-47.77 387.69,-30.08"/>
<polygon fill="#63b8ff" stroke="#63b8ff" points="287.92,-209.67 297.42,-214.35 292.91,-204.76 287.92,-209.67"/>
</a>
</g>
</g>
<!-- Node14&#45;&gt;Node9 -->
<g id="edge23_Node000014_Node000009" class="edge">
<title>Node14&#45;&gt;Node9</title>
<g id="a_edge23_Node000014_Node000009"><a xlink:title=" ">
<path fill="none" stroke="#63b8ff" d="M320.74,-204.41C324.15,-192.24 328.17,-177.9 331.07,-167.54"/>
<polygon fill="#63b8ff" stroke="#63b8ff" points="317.28,-203.82 317.95,-214.39 324.02,-205.71 317.28,-203.82"/>
</a>
</g>
</g>
</g>
</svg>

<g id="navigator" transform="translate(0 0)" fill="#404254">
  <rect fill="#f2f5e9" fill-opacity="0.5" stroke="#606060" stroke-width=".5" x="0" y="0" width="60" height="60"/>
  <use id="zoomplus" xlink:href="#zoomPlus" x="17" y="9" onmousedown="handleZoom(evt,'in')"/>
  <use id="zoomminus" xlink:href="#zoomMin" x="42" y="9" onmousedown="handleZoom(evt,'out')"/>
  <use id="reset" xlink:href="#resetDef" x="30" y="36" onmousedown="handleReset()"/>
   <use id="arrowup" xlink:href="#arrowUp" x="0" y="0" onmousedown="handlePan(0,-1)"/>
  <use id="arrowright" xlink:href="#arrowRight" x="0" y="0" onmousedown="handlePan(1,0)"/>
  <use id="arrowdown" xlink:href="#arrowDown" x="0" y="0" onmousedown="handlePan(0,1)"/>
  <use id="arrowleft" xlink:href="#arrowLeft" x="0" y="0" onmousedown="handlePan(-1,0)"/>
</g>
<svg viewBox="0 0 15 15" width="100%" height="30px" preserveAspectRatio="xMaxYMin meet">
 <g id="arrow_out" transform="scale(0.3 0.3)">
  <a xlink:href="Grid_8h__dep__incl_org.svg" target="_base">
   <rect id="button" ry="5" rx="5" y="6" x="6" height="38" width="38"
        fill="#f2f5e9" fill-opacity="0.5" stroke="#606060" stroke-width="1.0"/>
   <path id="arrow"
     d="M 11.500037,31.436501 C 11.940474,20.09759 22.043105,11.32322 32.158766,21.979434 L 37.068811,17.246167 C 37.068811,17.246167 37.088388,32 37.088388,32 L 22.160133,31.978069 C 22.160133,31.978069 26.997745,27.140456 26.997745,27.140456 C 18.528582,18.264221 13.291696,25.230495 11.500037,31.436501 z"
     style="fill:#404040;"/>
  </a>
 </g>
</svg>

<style type='text/css'>
<![CDATA[
[data-mouse-over-selected='false'] { opacity: 0.7; }
[data-mouse-over-selected='true']  { opacity: 1.0; }
]]>
</style>
<script type="application/ecmascript"><![CDATA[
document.addEventListener('DOMContentLoaded', (event) => {
  highlightEdges();
  highlightAdjacentNodes();
});
]]></script>
</svg>
