<?xml version="1.0" encoding="UTF-8" standalone="no"?>
<!DOCTYPE svg PUBLIC "-//W3C//DTD SVG 1.1//EN"
 "http://www.w3.org/Graphics/SVG/1.1/DTD/svg11.dtd">
<!-- Generated by graphviz version 2.43.0 (0)
 -->
<!-- Title: /home/sean/Projects/Brenda/src/GridRenderer.h Pages: 1 -->
<svg width="645pt" height="203pt"
 viewBox="0.00 0.00 645.00 203.00" xmlns="http://www.w3.org/2000/svg" xmlns:xlink="http://www.w3.org/1999/xlink">
<g id="graph0" class="graph" transform="scale(1 1) rotate(0) translate(4 199)">
<title>/home/sean/Projects/Brenda/src/GridRenderer.h</title>
<!-- Node1 -->
<g id="Node000001" class="node">
<title>Node1</title>
<g id="a_Node000001"><a xlink:title=" ">
<polygon fill="#999999" stroke="#666666" points="347,-195 200,-195 200,-165 347,-165 347,-195"/>
<text text-anchor="start" x="208" y="-183" font-family="Helvetica,sans-Serif" font-size="10.00">/home/sean/Projects</text>
<text text-anchor="middle" x="273.5" y="-172" font-family="Helvetica,sans-Serif" font-size="10.00">/Brenda/src/GridRenderer.h</text>
</a>
</g>
</g>
<!-- Node2 -->
<g id="Node000002" class="node">
<title>Node2</title>
<g id="a_Node000002"><a xlink:title=" ">
<polygon fill="#e0e0e0" stroke="#999999" points="163.5,-129 91.5,-129 91.5,-110 163.5,-110 163.5,-129"/>
<text text-anchor="middle" x="127.5" y="-117" font-family="Helvetica,sans-Serif" font-size="10.00">SDL3/SDL.h</text>
</a>
</g>
</g>
<!-- Node1&#45;&gt;Node2 -->
<g id="edge1_Node000001_Node000002" class="edge">
<title>Node1&#45;&gt;Node2</title>
<g id="a_edge1_Node000001_Node000002"><a xlink:title=" ">
<path fill="none" stroke="#63b8ff" d="M238.53,-164.99C214.17,-155.23 181.97,-142.33 158.53,-132.93"/>
<polygon fill="#63b8ff" stroke="#63b8ff" points="159.65,-129.61 149.06,-129.14 157.04,-136.11 159.65,-129.61"/>
</a>
</g>
</g>
<!-- Node3 -->
<g id="Node000003" class="node">
<title>Node3</title>
<g id="a_Node000003"><a xlink:title=" ">
<polygon fill="#e0e0e0" stroke="#999999" points="285.5,-129 181.5,-129 181.5,-110 285.5,-110 285.5,-129"/>
<text text-anchor="middle" x="233.5" y="-117" font-family="Helvetica,sans-Serif" font-size="10.00">SDL3_ttf/SDL_ttf.h</text>
</a>
</g>
</g>
<!-- Node1&#45;&gt;Node3 -->
<g id="edge2_Node000001_Node000003" class="edge">
<title>Node1&#45;&gt;Node3</title>
<g id="a_edge2_Node000001_Node000003"><a xlink:title=" ">
<path fill="none" stroke="#63b8ff" d="M263.82,-164.84C258.25,-156.69 251.21,-146.4 245.32,-137.78"/>
<polygon fill="#63b8ff" stroke="#63b8ff" points="248.03,-135.55 239.49,-129.27 242.25,-139.5 248.03,-135.55"/>
</a>
</g>
</g>
<!-- Node4 -->
<g id="Node000004" class="node">
<title>Node4</title>
<g id="a_Node000004"><a xlink:href="Grid_8h.html" target="_top" xlink:title=" ">
<polygon fill="white" stroke="#666666" points="336.5,-74 290.5,-74 290.5,-55 336.5,-55 336.5,-74"/>
<text text-anchor="middle" x="313.5" y="-62" font-family="Helvetica,sans-Serif" font-size="10.00">Grid.h</text>
</a>
</g>
</g>
<!-- Node1&#45;&gt;Node4 -->
<g id="edge3_Node000001_Node000004" class="edge">
<title>Node1&#45;&gt;Node4</title>
<g id="a_edge3_Node000001_Node000004"><a xlink:title=" ">
<path fill="none" stroke="#63b8ff" d="M279.98,-164.72C284.36,-154.8 290.12,-141.23 294.5,-129 299.85,-114.09 304.94,-96.85 308.5,-84.1"/>
<polygon fill="#63b8ff" stroke="#63b8ff" points="311.94,-84.79 311.21,-74.22 305.19,-82.94 311.94,-84.79"/>
</a>
</g>
</g>
<!-- Node13 -->
<g id="Node000013" class="node">
<title>Node13</title>
<g id="a_Node000013"><a xlink:href="HomeManager_8h.html" target="_top" xlink:title=" ">
<polygon fill="white" stroke="#666666" points="439,-129 342,-129 342,-110 439,-110 439,-129"/>
<text text-anchor="middle" x="390.5" y="-117" font-family="Helvetica,sans-Serif" font-size="10.00">HomeManager.h</text>
</a>
</g>
</g>
<!-- Node1&#45;&gt;Node13 -->
<g id="edge12_Node000001_Node000013" class="edge">
<title>Node1&#45;&gt;Node13</title>
<g id="a_edge12_Node000001_Node000013"><a xlink:title=" ">
<path fill="none" stroke="#63b8ff" d="M301.52,-164.99C320.52,-155.49 345.47,-143.02 364.11,-133.69"/>
<polygon fill="#63b8ff" stroke="#63b8ff" points="365.84,-136.74 373.22,-129.14 362.71,-130.48 365.84,-136.74"/>
</a>
</g>
</g>
<!-- Node5 -->
<g id="Node000005" class="node">
<title>Node5</title>
<g id="a_Node000005"><a xlink:title=" ">
<polygon fill="#e0e0e0" stroke="#999999" points="47,-19 0,-19 0,0 47,0 47,-19"/>
<text text-anchor="middle" x="23.5" y="-7" font-family="Helvetica,sans-Serif" font-size="10.00">vector</text>
</a>
</g>
</g>
<!-- Node4&#45;&gt;Node5 -->
<g id="edge4_Node000004_Node000005" class="edge">
<title>Node4&#45;&gt;Node5</title>
<g id="a_edge4_Node000004_Node000005"><a xlink:title=" ">
<path fill="none" stroke="#63b8ff" d="M290.34,-60.13C246.75,-53.65 149.33,-38.53 57.28,-19.01"/>
<polygon fill="#63b8ff" stroke="#63b8ff" points="57.75,-15.53 47.24,-16.86 56.28,-22.38 57.75,-15.53"/>
</a>
</g>
</g>
<!-- Node6 -->
<g id="Node000006" class="node">
<title>Node6</title>
<g id="a_Node000006"><a xlink:title=" ">
<polygon fill="#e0e0e0" stroke="#999999" points="125.5,-19 65.5,-19 65.5,0 125.5,0 125.5,-19"/>
<text text-anchor="middle" x="95.5" y="-7" font-family="Helvetica,sans-Serif" font-size="10.00">iostream</text>
</a>
</g>
</g>
<!-- Node4&#45;&gt;Node6 -->
<g id="edge5_Node000004_Node000006" class="edge">
<title>Node4&#45;&gt;Node6</title>
<g id="a_edge5_Node000004_Node000006"><a xlink:title=" ">
<path fill="none" stroke="#63b8ff" d="M290.17,-57.83C253.2,-48.84 180.72,-31.22 135.39,-20.2"/>
<polygon fill="#63b8ff" stroke="#63b8ff" points="136.14,-16.78 125.6,-17.82 134.49,-23.58 136.14,-16.78"/>
</a>
</g>
</g>
<!-- Node7 -->
<g id="Node000007" class="node">
<title>Node7</title>
<g id="a_Node000007"><a xlink:title=" ">
<polygon fill="#e0e0e0" stroke="#999999" points="199.5,-19 143.5,-19 143.5,0 199.5,0 199.5,-19"/>
<text text-anchor="middle" x="171.5" y="-7" font-family="Helvetica,sans-Serif" font-size="10.00">iomanip</text>
</a>
</g>
</g>
<!-- Node4&#45;&gt;Node7 -->
<g id="edge6_Node000004_Node000007" class="edge">
<title>Node4&#45;&gt;Node7</title>
<g id="a_edge6_Node000004_Node000007"><a xlink:title=" ">
<path fill="none" stroke="#63b8ff" d="M290.69,-54.98C267.33,-46.27 230.8,-32.63 204.33,-22.75"/>
<polygon fill="#63b8ff" stroke="#63b8ff" points="205.32,-19.39 194.73,-19.17 202.87,-25.95 205.32,-19.39"/>
</a>
</g>
</g>
<!-- Node8 -->
<g id="Node000008" class="node">
<title>Node8</title>
<g id="a_Node000008"><a xlink:title=" ">
<polygon fill="#e0e0e0" stroke="#999999" points="525.5,-19 481.5,-19 481.5,0 525.5,0 525.5,-19"/>
<text text-anchor="middle" x="503.5" y="-7" font-family="Helvetica,sans-Serif" font-size="10.00">string</text>
</a>
</g>
</g>
<!-- Node4&#45;&gt;Node8 -->
<g id="edge7_Node000004_Node000008" class="edge">
<title>Node4&#45;&gt;Node8</title>
<g id="a_edge7_Node000004_Node000008"><a xlink:title=" ">
<path fill="none" stroke="#63b8ff" d="M336.8,-57C370.58,-47.58 433.29,-30.08 471.43,-19.45"/>
<polygon fill="#63b8ff" stroke="#63b8ff" points="472.79,-22.7 481.48,-16.64 470.91,-15.96 472.79,-22.7"/>
</a>
</g>
</g>
<!-- Node9 -->
<g id="Node000009" class="node">
<title>Node9</title>
<g id="a_Node000009"><a xlink:title=" ">
<polygon fill="#e0e0e0" stroke="#999999" points="637,-19 544,-19 544,0 637,0 637,-19"/>
<text text-anchor="middle" x="590.5" y="-7" font-family="Helvetica,sans-Serif" font-size="10.00">unordered_map</text>
</a>
</g>
</g>
<!-- Node4&#45;&gt;Node9 -->
<g id="edge8_Node000004_Node000009" class="edge">
<title>Node4&#45;&gt;Node9</title>
<g id="a_edge8_Node000004_Node000009"><a xlink:title=" ">
<path fill="none" stroke="#63b8ff" d="M336.64,-59.07C380.15,-50.75 475.23,-32.55 535.88,-20.95"/>
<polygon fill="#63b8ff" stroke="#63b8ff" points="536.88,-24.32 546.05,-19.01 535.57,-17.45 536.88,-24.32"/>
</a>
</g>
</g>
<!-- Node10 -->
<g id="Node000010" class="node">
<title>Node10</title>
<g id="a_Node000010"><a xlink:title=" ">
<polygon fill="#e0e0e0" stroke="#999999" points="273,-19 218,-19 218,0 273,0 273,-19"/>
<text text-anchor="middle" x="245.5" y="-7" font-family="Helvetica,sans-Serif" font-size="10.00">fstream</text>
</a>
</g>
</g>
<!-- Node4&#45;&gt;Node10 -->
<g id="edge9_Node000004_Node000010" class="edge">
<title>Node4&#45;&gt;Node10</title>
<g id="a_edge9_Node000004_Node000010"><a xlink:title=" ">
<path fill="none" stroke="#63b8ff" d="M302.57,-54.98C292.42,-47.07 277.08,-35.11 264.85,-25.58"/>
<polygon fill="#63b8ff" stroke="#63b8ff" points="266.66,-22.56 256.62,-19.17 262.36,-28.08 266.66,-22.56"/>
</a>
</g>
</g>
<!-- Node11 -->
<g id="Node000011" class="node">
<title>Node11</title>
<g id="a_Node000011"><a xlink:title=" ">
<polygon fill="#e0e0e0" stroke="#999999" points="335.5,-19 291.5,-19 291.5,0 335.5,0 335.5,-19"/>
<text text-anchor="middle" x="313.5" y="-7" font-family="Helvetica,sans-Serif" font-size="10.00">regex</text>
</a>
</g>
</g>
<!-- Node4&#45;&gt;Node11 -->
<g id="edge10_Node000004_Node000011" class="edge">
<title>Node4&#45;&gt;Node11</title>
<g id="a_edge10_Node000004_Node000011"><a xlink:title=" ">
<path fill="none" stroke="#63b8ff" d="M313.5,-54.75C313.5,-47.8 313.5,-37.85 313.5,-29.13"/>
<polygon fill="#63b8ff" stroke="#63b8ff" points="317,-29.09 313.5,-19.09 310,-29.09 317,-29.09"/>
</a>
</g>
</g>
<!-- Node12 -->
<g id="Node000012" class="node">
<title>Node12</title>
<g id="a_Node000012"><a xlink:title=" ">
<polygon fill="#e0e0e0" stroke="#999999" points="463.5,-19 353.5,-19 353.5,0 463.5,0 463.5,-19"/>
<text text-anchor="middle" x="408.5" y="-7" font-family="Helvetica,sans-Serif" font-size="10.00">nlohmann/json.hpp</text>
</a>
</g>
</g>
<!-- Node4&#45;&gt;Node12 -->
<g id="edge11_Node000004_Node000012" class="edge">
<title>Node4&#45;&gt;Node12</title>
<g id="a_edge11_Node000004_Node000012"><a xlink:title=" ">
<path fill="none" stroke="#63b8ff" d="M328.76,-54.98C343.63,-46.69 366.48,-33.94 383.92,-24.22"/>
<polygon fill="#63b8ff" stroke="#63b8ff" points="385.93,-27.1 392.96,-19.17 382.52,-20.99 385.93,-27.1"/>
</a>
</g>
</g>
<!-- Node13&#45;&gt;Node4 -->
<g id="edge16_Node000013_Node000004" class="edge">
<title>Node13&#45;&gt;Node4</title>
<g id="a_edge16_Node000013_Node000004"><a xlink:title=" ">
<path fill="none" stroke="#63b8ff" d="M378.13,-109.98C366.41,-101.92 348.58,-89.65 334.61,-80.03"/>
<polygon fill="#63b8ff" stroke="#63b8ff" points="336.32,-76.96 326.1,-74.17 332.35,-82.72 336.32,-76.96"/>
</a>
</g>
</g>
<!-- Node13&#45;&gt;Node5 -->
<g id="edge15_Node000013_Node000005" class="edge">
<title>Node13&#45;&gt;Node5</title>
<g id="a_edge15_Node000013_Node000005"><a xlink:title=" ">
<path fill="none" stroke="#63b8ff" d="M361.4,-109.94C294.17,-90.15 128.43,-41.38 57.06,-20.38"/>
<polygon fill="#63b8ff" stroke="#63b8ff" points="57.83,-16.95 47.24,-17.49 55.85,-23.67 57.83,-16.95"/>
</a>
</g>
</g>
<!-- Node13&#45;&gt;Node8 -->
<g id="edge14_Node000013_Node000008" class="edge">
<title>Node13&#45;&gt;Node8</title>
<g id="a_edge14_Node000013_Node000008"><a xlink:title=" ">
<path fill="none" stroke="#63b8ff" d="M399.75,-109.66C418.88,-91.38 463.03,-49.18 487.11,-26.17"/>
<polygon fill="#63b8ff" stroke="#63b8ff" points="489.63,-28.6 494.44,-19.16 484.79,-23.54 489.63,-28.6"/>
</a>
</g>
</g>
<!-- Node13&#45;&gt;Node9 -->
<g id="edge13_Node000013_Node000009" class="edge">
<title>Node13&#45;&gt;Node9</title>
<g id="a_edge13_Node000013_Node000009"><a xlink:title=" ">
<path fill="none" stroke="#63b8ff" d="M406.53,-109.84C441.36,-91.04 524.14,-46.33 565.74,-23.87"/>
<polygon fill="#63b8ff" stroke="#63b8ff" points="567.54,-26.88 574.67,-19.05 564.21,-20.72 567.54,-26.88"/>
</a>
</g>
</g>
</g>
</svg>
