<?xml version="1.0" encoding="UTF-8" standalone="no"?>
<!DOCTYPE svg PUBLIC "-//W3C//DTD SVG 1.1//EN"
 "http://www.w3.org/Graphics/SVG/1.1/DTD/svg11.dtd">
<!-- Generated by graphviz version 2.43.0 (0)
 -->
<!-- Title: /home/sean/Projects/Brenda/src/Grid.cpp Pages: 1 -->
<svg width="645pt" height="203pt"
 viewBox="0.00 0.00 644.50 203.00" xmlns="http://www.w3.org/2000/svg" xmlns:xlink="http://www.w3.org/1999/xlink">
<g id="graph0" class="graph" transform="scale(1 1) rotate(0) translate(4 199)">
<title>/home/sean/Projects/Brenda/src/Grid.cpp</title>
<!-- Node1 -->
<g id="Node000001" class="node">
<title>Node1</title>
<g id="a_Node000001"><a xlink:title=" ">
<polygon fill="#999999" stroke="#666666" points="418.5,-195 302.5,-195 302.5,-165 418.5,-165 418.5,-195"/>
<text text-anchor="start" x="310.5" y="-183" font-family="Helvetica,sans-Serif" font-size="10.00">/home/sean/Projects</text>
<text text-anchor="middle" x="360.5" y="-172" font-family="Helvetica,sans-Serif" font-size="10.00">/Brenda/src/Grid.cpp</text>
</a>
</g>
</g>
<!-- Node2 -->
<g id="Node000002" class="node">
<title>Node2</title>
<g id="a_Node000002"><a xlink:href="Grid_8h.html" target="_top" xlink:title=" ">
<polygon fill="white" stroke="#666666" points="357.5,-74 311.5,-74 311.5,-55 357.5,-55 357.5,-74"/>
<text text-anchor="middle" x="334.5" y="-62" font-family="Helvetica,sans-Serif" font-size="10.00">Grid.h</text>
</a>
</g>
</g>
<!-- Node1&#45;&gt;Node2 -->
<g id="edge1_Node000001_Node000002" class="edge">
<title>Node1&#45;&gt;Node2</title>
<g id="a_edge1_Node000001_Node000002"><a xlink:title=" ">
<path fill="none" stroke="#63b8ff" d="M356.13,-164.64C353.18,-154.7 349.33,-141.11 346.5,-129 343.02,-114.11 339.84,-97.08 337.63,-84.41"/>
<polygon fill="#63b8ff" stroke="#63b8ff" points="341.02,-83.45 335.9,-74.18 334.12,-84.62 341.02,-83.45"/>
</a>
</g>
</g>
<!-- Node11 -->
<g id="Node000011" class="node">
<title>Node11</title>
<g id="a_Node000011"><a xlink:href="TiledParser_8h.html" target="_top" xlink:title=" ">
<polygon fill="white" stroke="#666666" points="434,-129 355,-129 355,-110 434,-110 434,-129"/>
<text text-anchor="middle" x="394.5" y="-117" font-family="Helvetica,sans-Serif" font-size="10.00">TiledParser.h</text>
</a>
</g>
</g>
<!-- Node1&#45;&gt;Node11 -->
<g id="edge10_Node000001_Node000011" class="edge">
<title>Node1&#45;&gt;Node11</title>
<g id="a_edge10_Node000001_Node000011"><a xlink:title=" ">
<path fill="none" stroke="#63b8ff" d="M368.73,-164.84C373.41,-156.78 379.32,-146.62 384.3,-138.06"/>
<polygon fill="#63b8ff" stroke="#63b8ff" points="387.41,-139.67 389.41,-129.27 381.35,-136.15 387.41,-139.67"/>
</a>
</g>
</g>
<!-- Node3 -->
<g id="Node000003" class="node">
<title>Node3</title>
<g id="a_Node000003"><a xlink:title=" ">
<polygon fill="#e0e0e0" stroke="#999999" points="496,-19 449,-19 449,0 496,0 496,-19"/>
<text text-anchor="middle" x="472.5" y="-7" font-family="Helvetica,sans-Serif" font-size="10.00">vector</text>
</a>
</g>
</g>
<!-- Node2&#45;&gt;Node3 -->
<g id="edge2_Node000002_Node000003" class="edge">
<title>Node2&#45;&gt;Node3</title>
<g id="a_edge2_Node000002_Node000003"><a xlink:title=" ">
<path fill="none" stroke="#63b8ff" d="M356.67,-54.98C379.27,-46.3 414.56,-32.75 440.25,-22.88"/>
<polygon fill="#63b8ff" stroke="#63b8ff" points="441.84,-26.02 449.92,-19.17 439.33,-19.49 441.84,-26.02"/>
</a>
</g>
</g>
<!-- Node4 -->
<g id="Node000004" class="node">
<title>Node4</title>
<g id="a_Node000004"><a xlink:title=" ">
<polygon fill="#e0e0e0" stroke="#999999" points="574.5,-19 514.5,-19 514.5,0 574.5,0 574.5,-19"/>
<text text-anchor="middle" x="544.5" y="-7" font-family="Helvetica,sans-Serif" font-size="10.00">iostream</text>
</a>
</g>
</g>
<!-- Node2&#45;&gt;Node4 -->
<g id="edge3_Node000002_Node000004" class="edge">
<title>Node2&#45;&gt;Node4</title>
<g id="a_edge3_Node000002_Node000004"><a xlink:title=" ">
<path fill="none" stroke="#63b8ff" d="M357.78,-57.63C393.17,-48.69 460.98,-31.58 504.41,-20.62"/>
<polygon fill="#63b8ff" stroke="#63b8ff" points="505.52,-23.95 514.36,-18.11 503.81,-17.16 505.52,-23.95"/>
</a>
</g>
</g>
<!-- Node5 -->
<g id="Node000005" class="node">
<title>Node5</title>
<g id="a_Node000005"><a xlink:title=" ">
<polygon fill="#e0e0e0" stroke="#999999" points="302.5,-19 246.5,-19 246.5,0 302.5,0 302.5,-19"/>
<text text-anchor="middle" x="274.5" y="-7" font-family="Helvetica,sans-Serif" font-size="10.00">iomanip</text>
</a>
</g>
</g>
<!-- Node2&#45;&gt;Node5 -->
<g id="edge4_Node000002_Node000005" class="edge">
<title>Node2&#45;&gt;Node5</title>
<g id="a_edge4_Node000002_Node000005"><a xlink:title=" ">
<path fill="none" stroke="#63b8ff" d="M324.86,-54.98C315.99,-47.15 302.63,-35.34 291.89,-25.86"/>
<polygon fill="#63b8ff" stroke="#63b8ff" points="294.13,-23.17 284.32,-19.17 289.49,-28.41 294.13,-23.17"/>
</a>
</g>
</g>
<!-- Node6 -->
<g id="Node000006" class="node">
<title>Node6</title>
<g id="a_Node000006"><a xlink:title=" ">
<polygon fill="#e0e0e0" stroke="#999999" points="636.5,-19 592.5,-19 592.5,0 636.5,0 636.5,-19"/>
<text text-anchor="middle" x="614.5" y="-7" font-family="Helvetica,sans-Serif" font-size="10.00">string</text>
</a>
</g>
</g>
<!-- Node2&#45;&gt;Node6 -->
<g id="edge5_Node000002_Node000006" class="edge">
<title>Node2&#45;&gt;Node6</title>
<g id="a_edge5_Node000002_Node000006"><a xlink:title=" ">
<path fill="none" stroke="#63b8ff" d="M357.64,-60.08C400.21,-53.65 493.94,-38.76 582.3,-19.1"/>
<polygon fill="#63b8ff" stroke="#63b8ff" points="583.22,-22.48 592.21,-16.87 581.69,-15.65 583.22,-22.48"/>
</a>
</g>
</g>
<!-- Node7 -->
<g id="Node000007" class="node">
<title>Node7</title>
<g id="a_Node000007"><a xlink:title=" ">
<polygon fill="#e0e0e0" stroke="#999999" points="93,-19 0,-19 0,0 93,0 93,-19"/>
<text text-anchor="middle" x="46.5" y="-7" font-family="Helvetica,sans-Serif" font-size="10.00">unordered_map</text>
</a>
</g>
</g>
<!-- Node2&#45;&gt;Node7 -->
<g id="edge6_Node000002_Node000007" class="edge">
<title>Node2&#45;&gt;Node7</title>
<g id="a_edge6_Node000002_Node000007"><a xlink:title=" ">
<path fill="none" stroke="#63b8ff" d="M311.42,-59.25C266.5,-50.99 166.2,-32.53 102.71,-20.84"/>
<polygon fill="#63b8ff" stroke="#63b8ff" points="103.32,-17.4 92.85,-19.03 102.05,-24.28 103.32,-17.4"/>
</a>
</g>
</g>
<!-- Node8 -->
<g id="Node000008" class="node">
<title>Node8</title>
<g id="a_Node000008"><a xlink:title=" ">
<polygon fill="#e0e0e0" stroke="#999999" points="166,-19 111,-19 111,0 166,0 166,-19"/>
<text text-anchor="middle" x="138.5" y="-7" font-family="Helvetica,sans-Serif" font-size="10.00">fstream</text>
</a>
</g>
</g>
<!-- Node2&#45;&gt;Node8 -->
<g id="edge7_Node000002_Node000008" class="edge">
<title>Node2&#45;&gt;Node8</title>
<g id="a_edge7_Node000002_Node000008"><a xlink:title=" ">
<path fill="none" stroke="#63b8ff" d="M311.25,-57.21C277.85,-48.18 215.95,-31.44 176.02,-20.65"/>
<polygon fill="#63b8ff" stroke="#63b8ff" points="176.7,-17.2 166.13,-17.97 174.87,-23.96 176.7,-17.2"/>
</a>
</g>
</g>
<!-- Node9 -->
<g id="Node000009" class="node">
<title>Node9</title>
<g id="a_Node000009"><a xlink:title=" ">
<polygon fill="#e0e0e0" stroke="#999999" points="228.5,-19 184.5,-19 184.5,0 228.5,0 228.5,-19"/>
<text text-anchor="middle" x="206.5" y="-7" font-family="Helvetica,sans-Serif" font-size="10.00">regex</text>
</a>
</g>
</g>
<!-- Node2&#45;&gt;Node9 -->
<g id="edge8_Node000002_Node000009" class="edge">
<title>Node2&#45;&gt;Node9</title>
<g id="a_edge8_Node000002_Node000009"><a xlink:title=" ">
<path fill="none" stroke="#63b8ff" d="M313.93,-54.98C293.07,-46.34 260.53,-32.87 236.73,-23.02"/>
<polygon fill="#63b8ff" stroke="#63b8ff" points="238.02,-19.76 227.44,-19.17 235.34,-26.23 238.02,-19.76"/>
</a>
</g>
</g>
<!-- Node10 -->
<g id="Node000010" class="node">
<title>Node10</title>
<g id="a_Node000010"><a xlink:title=" ">
<polygon fill="#e0e0e0" stroke="#999999" points="430.5,-19 320.5,-19 320.5,0 430.5,0 430.5,-19"/>
<text text-anchor="middle" x="375.5" y="-7" font-family="Helvetica,sans-Serif" font-size="10.00">nlohmann/json.hpp</text>
</a>
</g>
</g>
<!-- Node2&#45;&gt;Node10 -->
<g id="edge9_Node000002_Node000010" class="edge">
<title>Node2&#45;&gt;Node10</title>
<g id="a_edge9_Node000002_Node000010"><a xlink:title=" ">
<path fill="none" stroke="#63b8ff" d="M341.27,-54.75C347.06,-47.26 355.56,-36.28 362.64,-27.13"/>
<polygon fill="#63b8ff" stroke="#63b8ff" points="365.51,-29.14 368.86,-19.09 359.97,-24.86 365.51,-29.14"/>
</a>
</g>
</g>
<!-- Node11&#45;&gt;Node2 -->
<g id="edge17_Node000011_Node000002" class="edge">
<title>Node11&#45;&gt;Node2</title>
<g id="a_edge17_Node000011_Node000002"><a xlink:title=" ">
<path fill="none" stroke="#63b8ff" d="M384.86,-109.98C375.99,-102.15 362.63,-90.34 351.89,-80.86"/>
<polygon fill="#63b8ff" stroke="#63b8ff" points="354.13,-78.17 344.32,-74.17 349.49,-83.41 354.13,-78.17"/>
</a>
</g>
</g>
<!-- Node11&#45;&gt;Node3 -->
<g id="edge11_Node000011_Node000003" class="edge">
<title>Node11&#45;&gt;Node3</title>
<g id="a_edge11_Node000011_Node000003"><a xlink:title=" ">
<path fill="none" stroke="#63b8ff" d="M400.88,-109.66C413.86,-91.69 443.51,-50.64 460.31,-27.38"/>
<polygon fill="#63b8ff" stroke="#63b8ff" points="463.23,-29.31 466.25,-19.16 457.55,-25.22 463.23,-29.31"/>
</a>
</g>
</g>
<!-- Node11&#45;&gt;Node4 -->
<g id="edge12_Node000011_Node000004" class="edge">
<title>Node11&#45;&gt;Node4</title>
<g id="a_edge12_Node000011_Node000004"><a xlink:title=" ">
<path fill="none" stroke="#63b8ff" d="M406.52,-109.84C432.19,-91.36 492.61,-47.86 524.3,-25.05"/>
<polygon fill="#63b8ff" stroke="#63b8ff" points="526.35,-27.88 532.42,-19.2 522.26,-22.2 526.35,-27.88"/>
</a>
</g>
</g>
<!-- Node11&#45;&gt;Node6 -->
<g id="edge13_Node000011_Node000006" class="edge">
<title>Node11&#45;&gt;Node6</title>
<g id="a_edge13_Node000011_Node000006"><a xlink:title=" ">
<path fill="none" stroke="#63b8ff" d="M412.13,-109.84C450.6,-90.96 542.28,-45.96 587.84,-23.59"/>
<polygon fill="#63b8ff" stroke="#63b8ff" points="589.66,-26.6 597.09,-19.05 586.57,-20.31 589.66,-26.6"/>
</a>
</g>
</g>
<!-- Node11&#45;&gt;Node7 -->
<g id="edge14_Node000011_Node000007" class="edge">
<title>Node11&#45;&gt;Node7</title>
<g id="a_edge14_Node000011_Node000007"><a xlink:title=" ">
<path fill="none" stroke="#63b8ff" d="M366.01,-109.99C336.38,-101.1 288.64,-86.73 247.5,-74 189.81,-56.16 122.98,-34.93 82.76,-22.1"/>
<polygon fill="#63b8ff" stroke="#63b8ff" points="83.72,-18.73 73.13,-19.02 81.59,-25.4 83.72,-18.73"/>
</a>
</g>
</g>
<!-- Node11&#45;&gt;Node8 -->
<g id="edge15_Node000011_Node000008" class="edge">
<title>Node11&#45;&gt;Node8</title>
<g id="a_edge15_Node000011_Node000008"><a xlink:title=" ">
<path fill="none" stroke="#63b8ff" d="M373.98,-109.84C328.84,-90.8 220.75,-45.2 168.2,-23.03"/>
<polygon fill="#63b8ff" stroke="#63b8ff" points="169.33,-19.71 158.76,-19.05 166.61,-26.16 169.33,-19.71"/>
</a>
</g>
</g>
<!-- Node11&#45;&gt;Node10 -->
<g id="edge16_Node000011_Node000010" class="edge">
<title>Node11&#45;&gt;Node10</title>
<g id="a_edge16_Node000011_Node000010"><a xlink:title=" ">
<path fill="none" stroke="#63b8ff" d="M392.95,-109.66C389.87,-92.17 382.94,-52.8 378.8,-29.27"/>
<polygon fill="#63b8ff" stroke="#63b8ff" points="382.2,-28.4 377.02,-19.16 375.31,-29.61 382.2,-28.4"/>
</a>
</g>
</g>
</g>
</svg>
