<?xml version="1.0" encoding="UTF-8" standalone="no"?>
<!DOCTYPE svg PUBLIC "-//W3C//DTD SVG 1.1//EN"
 "http://www.w3.org/Graphics/SVG/1.1/DTD/svg11.dtd">
<!-- Generated by graphviz version 2.43.0 (0)
 -->
<!-- Title: /home/sean/Projects/Brenda/src/HomeManager.h Pages: 1 -->
<svg width="374pt" height="170pt"
 viewBox="0.00 0.00 374.00 170.00" xmlns="http://www.w3.org/2000/svg" xmlns:xlink="http://www.w3.org/1999/xlink">
<g id="graph0" class="graph" transform="scale(1 1) rotate(0) translate(4 166)">
<title>/home/sean/Projects/Brenda/src/HomeManager.h</title>
<!-- Node1 -->
<g id="Node000001" class="node">
<title>Node1</title>
<g id="a_Node000001"><a xlink:title=" ">
<polygon fill="#999999" stroke="#666666" points="268,-162 113,-162 113,-132 268,-132 268,-162"/>
<text text-anchor="start" x="121" y="-150" font-family="Helvetica,sans-Serif" font-size="10.00">/home/sean/Projects</text>
<text text-anchor="middle" x="190.5" y="-139" font-family="Helvetica,sans-Serif" font-size="10.00">/Brenda/src/HomeManager.h</text>
</a>
</g>
</g>
<!-- Node2 -->
<g id="Node000002" class="node">
<title>Node2</title>
<g id="a_Node000002"><a xlink:href="AISystem_8h.html" target="_top" xlink:title=" ">
<polygon fill="white" stroke="#666666" points="162.5,-96 32.5,-96 32.5,-66 162.5,-66 162.5,-96"/>
<text text-anchor="start" x="40.5" y="-84" font-family="Helvetica,sans-Serif" font-size="10.00">/home/sean/Projects</text>
<text text-anchor="middle" x="97.5" y="-73" font-family="Helvetica,sans-Serif" font-size="10.00">/Brenda/src/AISystem.h</text>
</a>
</g>
</g>
<!-- Node1&#45;&gt;Node2 -->
<g id="edge1_Node000001_Node000002" class="edge">
<title>Node1&#45;&gt;Node2</title>
<g id="a_edge1_Node000001_Node000002"><a xlink:title=" ">
<path fill="none" stroke="#63b8ff" d="M161.48,-126.03C147.41,-116.34 130.83,-104.94 118.08,-96.16"/>
<polygon fill="#63b8ff" stroke="#63b8ff" points="159.64,-129.01 169.86,-131.8 163.61,-123.24 159.64,-129.01"/>
</a>
</g>
</g>
<!-- Node4 -->
<g id="Node000004" class="node">
<title>Node4</title>
<g id="a_Node000004"><a xlink:href="main_8cpp.html" target="_top" xlink:title=" ">
<polygon fill="white" stroke="#666666" points="278,-30 159,-30 159,0 278,0 278,-30"/>
<text text-anchor="start" x="167" y="-18" font-family="Helvetica,sans-Serif" font-size="10.00">/home/sean/Projects</text>
<text text-anchor="middle" x="218.5" y="-7" font-family="Helvetica,sans-Serif" font-size="10.00">/Brenda/src/main.cpp</text>
</a>
</g>
</g>
<!-- Node1&#45;&gt;Node4 -->
<g id="edge6_Node000001_Node000004" class="edge">
<title>Node1&#45;&gt;Node4</title>
<g id="a_edge6_Node000001_Node000004"><a xlink:title=" ">
<path fill="none" stroke="#63b8ff" d="M195.66,-122.04C201.47,-95.08 210.7,-52.21 215.45,-30.14"/>
<polygon fill="#63b8ff" stroke="#63b8ff" points="192.23,-121.33 193.55,-131.84 199.08,-122.8 192.23,-121.33"/>
</a>
</g>
</g>
<!-- Node5 -->
<g id="Node000005" class="node">
<title>Node5</title>
<g id="a_Node000005"><a xlink:href="GridRenderer_8h.html" target="_top" xlink:title=" ">
<polygon fill="white" stroke="#666666" points="366,-96 219,-96 219,-66 366,-66 366,-96"/>
<text text-anchor="start" x="227" y="-84" font-family="Helvetica,sans-Serif" font-size="10.00">/home/sean/Projects</text>
<text text-anchor="middle" x="292.5" y="-73" font-family="Helvetica,sans-Serif" font-size="10.00">/Brenda/src/GridRenderer.h</text>
</a>
</g>
</g>
<!-- Node1&#45;&gt;Node5 -->
<g id="edge4_Node000001_Node000005" class="edge">
<title>Node1&#45;&gt;Node5</title>
<g id="a_edge4_Node000001_Node000005"><a xlink:title=" ">
<path fill="none" stroke="#63b8ff" d="M221.71,-126.42C237.36,-116.6 255.96,-104.93 270.17,-96.01"/>
<polygon fill="#63b8ff" stroke="#63b8ff" points="219.49,-123.68 212.88,-131.95 223.22,-129.6 219.49,-123.68"/>
</a>
</g>
</g>
<!-- Node3 -->
<g id="Node000003" class="node">
<title>Node3</title>
<g id="a_Node000003"><a xlink:href="AISystem_8cpp.html" target="_top" xlink:title=" ">
<polygon fill="white" stroke="#666666" points="141,-30 0,-30 0,0 141,0 141,-30"/>
<text text-anchor="start" x="8" y="-18" font-family="Helvetica,sans-Serif" font-size="10.00">/home/sean/Projects</text>
<text text-anchor="middle" x="70.5" y="-7" font-family="Helvetica,sans-Serif" font-size="10.00">/Brenda/src/AISystem.cpp</text>
</a>
</g>
</g>
<!-- Node2&#45;&gt;Node3 -->
<g id="edge2_Node000002_Node000003" class="edge">
<title>Node2&#45;&gt;Node3</title>
<g id="a_edge2_Node000002_Node000003"><a xlink:title=" ">
<path fill="none" stroke="#63b8ff" d="M87.54,-56.39C83.83,-47.59 79.72,-37.86 76.48,-30.16"/>
<polygon fill="#63b8ff" stroke="#63b8ff" points="84.4,-57.94 91.51,-65.8 90.85,-55.22 84.4,-57.94"/>
</a>
</g>
</g>
<!-- Node2&#45;&gt;Node4 -->
<g id="edge3_Node000002_Node000004" class="edge">
<title>Node2&#45;&gt;Node4</title>
<g id="a_edge3_Node000002_Node000004"><a xlink:title=" ">
<path fill="none" stroke="#63b8ff" d="M132.97,-61.24C151.85,-51.25 174.68,-39.18 192.01,-30.01"/>
<polygon fill="#63b8ff" stroke="#63b8ff" points="131.26,-58.19 124.05,-65.95 134.53,-64.37 131.26,-58.19"/>
</a>
</g>
</g>
<!-- Node5&#45;&gt;Node4 -->
<g id="edge5_Node000005_Node000004" class="edge">
<title>Node5&#45;&gt;Node4</title>
<g id="a_edge5_Node000005_Node000004"><a xlink:title=" ">
<path fill="none" stroke="#63b8ff" d="M268.45,-59.2C257.47,-49.7 244.74,-38.69 234.88,-30.16"/>
<polygon fill="#63b8ff" stroke="#63b8ff" points="266.22,-61.9 276.08,-65.8 270.8,-56.61 266.22,-61.9"/>
</a>
</g>
</g>
</g>
</svg>
