<?xml version="1.0" encoding="UTF-8" standalone="no"?>
<!DOCTYPE svg PUBLIC "-//W3C//DTD SVG 1.1//EN"
 "http://www.w3.org/Graphics/SVG/1.1/DTD/svg11.dtd">
<!-- Generated by graphviz version 2.43.0 (0)
 -->
<!-- Title: /home/sean/Projects/Brenda/src/HomeManager.h Pages: 1 -->
<svg width="646pt" height="148pt"
 viewBox="0.00 0.00 645.50 148.00" xmlns="http://www.w3.org/2000/svg" xmlns:xlink="http://www.w3.org/1999/xlink">
<g id="graph0" class="graph" transform="scale(1 1) rotate(0) translate(4 144)">
<title>/home/sean/Projects/Brenda/src/HomeManager.h</title>
<!-- Node1 -->
<g id="Node000001" class="node">
<title>Node1</title>
<g id="a_Node000001"><a xlink:title=" ">
<polygon fill="#999999" stroke="#666666" points="249,-140 94,-140 94,-110 249,-110 249,-140"/>
<text text-anchor="start" x="102" y="-128" font-family="Helvetica,sans-Serif" font-size="10.00">/home/sean/Projects</text>
<text text-anchor="middle" x="171.5" y="-117" font-family="Helvetica,sans-Serif" font-size="10.00">/Brenda/src/HomeManager.h</text>
</a>
</g>
</g>
<!-- Node2 -->
<g id="Node000002" class="node">
<title>Node2</title>
<g id="a_Node000002"><a xlink:title=" ">
<polygon fill="#e0e0e0" stroke="#999999" points="93,-19 0,-19 0,0 93,0 93,-19"/>
<text text-anchor="middle" x="46.5" y="-7" font-family="Helvetica,sans-Serif" font-size="10.00">unordered_map</text>
</a>
</g>
</g>
<!-- Node1&#45;&gt;Node2 -->
<g id="edge1_Node000001_Node000002" class="edge">
<title>Node1&#45;&gt;Node2</title>
<g id="a_edge1_Node000001_Node000002"><a xlink:title=" ">
<path fill="none" stroke="#63b8ff" d="M155.92,-109.85C132.4,-88.5 87.99,-48.17 63.6,-26.03"/>
<polygon fill="#63b8ff" stroke="#63b8ff" points="65.92,-23.4 56.16,-19.27 61.21,-28.58 65.92,-23.4"/>
</a>
</g>
</g>
<!-- Node3 -->
<g id="Node000003" class="node">
<title>Node3</title>
<g id="a_Node000003"><a xlink:title=" ">
<polygon fill="#e0e0e0" stroke="#999999" points="155.5,-19 111.5,-19 111.5,0 155.5,0 155.5,-19"/>
<text text-anchor="middle" x="133.5" y="-7" font-family="Helvetica,sans-Serif" font-size="10.00">string</text>
</a>
</g>
</g>
<!-- Node1&#45;&gt;Node3 -->
<g id="edge2_Node000001_Node000003" class="edge">
<title>Node1&#45;&gt;Node3</title>
<g id="a_edge2_Node000001_Node000003"><a xlink:title=" ">
<path fill="none" stroke="#63b8ff" d="M166.69,-109.63C159.82,-89.12 147.22,-51.47 139.67,-28.93"/>
<polygon fill="#63b8ff" stroke="#63b8ff" points="142.92,-27.6 136.42,-19.23 136.28,-29.82 142.92,-27.6"/>
</a>
</g>
</g>
<!-- Node4 -->
<g id="Node000004" class="node">
<title>Node4</title>
<g id="a_Node000004"><a xlink:title=" ">
<polygon fill="#e0e0e0" stroke="#999999" points="221,-19 174,-19 174,0 221,0 221,-19"/>
<text text-anchor="middle" x="197.5" y="-7" font-family="Helvetica,sans-Serif" font-size="10.00">vector</text>
</a>
</g>
</g>
<!-- Node1&#45;&gt;Node4 -->
<g id="edge3_Node000001_Node000004" class="edge">
<title>Node1&#45;&gt;Node4</title>
<g id="a_edge3_Node000001_Node000004"><a xlink:title=" ">
<path fill="none" stroke="#63b8ff" d="M174.79,-109.63C179.47,-89.21 188.04,-51.81 193.21,-29.24"/>
<polygon fill="#63b8ff" stroke="#63b8ff" points="196.68,-29.76 195.5,-19.23 189.86,-28.2 196.68,-29.76"/>
</a>
</g>
</g>
<!-- Node5 -->
<g id="Node000005" class="node">
<title>Node5</title>
<g id="a_Node000005"><a xlink:href="Grid_8h.html" target="_top" xlink:title=" ">
<polygon fill="white" stroke="#666666" points="317.5,-74 271.5,-74 271.5,-55 317.5,-55 317.5,-74"/>
<text text-anchor="middle" x="294.5" y="-62" font-family="Helvetica,sans-Serif" font-size="10.00">Grid.h</text>
</a>
</g>
</g>
<!-- Node1&#45;&gt;Node5 -->
<g id="edge4_Node000001_Node000005" class="edge">
<title>Node1&#45;&gt;Node5</title>
<g id="a_edge4_Node000001_Node000005"><a xlink:title=" ">
<path fill="none" stroke="#63b8ff" d="M200.96,-109.99C221.12,-100.4 247.64,-87.79 267.3,-78.44"/>
<polygon fill="#63b8ff" stroke="#63b8ff" points="268.81,-81.6 276.34,-74.14 265.8,-75.27 268.81,-81.6"/>
</a>
</g>
</g>
<!-- Node5&#45;&gt;Node2 -->
<g id="edge9_Node000005_Node000002" class="edge">
<title>Node5&#45;&gt;Node2</title>
<g id="a_edge9_Node000005_Node000002"><a xlink:title=" ">
<path fill="none" stroke="#63b8ff" d="M271.17,-58.51C231.41,-50.02 149.67,-32.55 96.52,-21.19"/>
<polygon fill="#63b8ff" stroke="#63b8ff" points="97.13,-17.74 86.62,-19.07 95.67,-24.59 97.13,-17.74"/>
</a>
</g>
</g>
<!-- Node5&#45;&gt;Node3 -->
<g id="edge8_Node000005_Node000003" class="edge">
<title>Node5&#45;&gt;Node3</title>
<g id="a_edge8_Node000005_Node000003"><a xlink:title=" ">
<path fill="none" stroke="#63b8ff" d="M271.43,-55.91C243.58,-46.74 196.59,-31.27 165.31,-20.97"/>
<polygon fill="#63b8ff" stroke="#63b8ff" points="166.34,-17.63 155.75,-17.82 164.15,-24.28 166.34,-17.63"/>
</a>
</g>
</g>
<!-- Node5&#45;&gt;Node4 -->
<g id="edge5_Node000005_Node000004" class="edge">
<title>Node5&#45;&gt;Node4</title>
<g id="a_edge5_Node000005_Node000004"><a xlink:title=" ">
<path fill="none" stroke="#63b8ff" d="M278.92,-54.98C263.73,-46.69 240.4,-33.94 222.6,-24.22"/>
<polygon fill="#63b8ff" stroke="#63b8ff" points="223.82,-20.89 213.37,-19.17 220.47,-27.04 223.82,-20.89"/>
</a>
</g>
</g>
<!-- Node6 -->
<g id="Node000006" class="node">
<title>Node6</title>
<g id="a_Node000006"><a xlink:title=" ">
<polygon fill="#e0e0e0" stroke="#999999" points="427.5,-19 367.5,-19 367.5,0 427.5,0 427.5,-19"/>
<text text-anchor="middle" x="397.5" y="-7" font-family="Helvetica,sans-Serif" font-size="10.00">iostream</text>
</a>
</g>
</g>
<!-- Node5&#45;&gt;Node6 -->
<g id="edge6_Node000005_Node000006" class="edge">
<title>Node5&#45;&gt;Node6</title>
<g id="a_edge6_Node000005_Node000006"><a xlink:title=" ">
<path fill="none" stroke="#63b8ff" d="M311.05,-54.98C327.39,-46.57 352.63,-33.59 371.63,-23.81"/>
<polygon fill="#63b8ff" stroke="#63b8ff" points="373.36,-26.86 380.65,-19.17 370.16,-20.63 373.36,-26.86"/>
</a>
</g>
</g>
<!-- Node7 -->
<g id="Node000007" class="node">
<title>Node7</title>
<g id="a_Node000007"><a xlink:title=" ">
<polygon fill="#e0e0e0" stroke="#999999" points="501.5,-19 445.5,-19 445.5,0 501.5,0 501.5,-19"/>
<text text-anchor="middle" x="473.5" y="-7" font-family="Helvetica,sans-Serif" font-size="10.00">iomanip</text>
</a>
</g>
</g>
<!-- Node5&#45;&gt;Node7 -->
<g id="edge7_Node000005_Node000007" class="edge">
<title>Node5&#45;&gt;Node7</title>
<g id="a_edge7_Node000005_Node000007"><a xlink:title=" ">
<path fill="none" stroke="#63b8ff" d="M317.53,-56.68C347.4,-47.84 399.88,-32.3 435.64,-21.71"/>
<polygon fill="#63b8ff" stroke="#63b8ff" points="436.65,-25.06 445.25,-18.86 434.67,-18.35 436.65,-25.06"/>
</a>
</g>
</g>
<!-- Node8 -->
<g id="Node000008" class="node">
<title>Node8</title>
<g id="a_Node000008"><a xlink:title=" ">
<polygon fill="#e0e0e0" stroke="#999999" points="575,-19 520,-19 520,0 575,0 575,-19"/>
<text text-anchor="middle" x="547.5" y="-7" font-family="Helvetica,sans-Serif" font-size="10.00">fstream</text>
</a>
</g>
</g>
<!-- Node5&#45;&gt;Node8 -->
<g id="edge10_Node000005_Node000008" class="edge">
<title>Node5&#45;&gt;Node8</title>
<g id="a_edge10_Node000005_Node000008"><a xlink:title=" ">
<path fill="none" stroke="#63b8ff" d="M317.55,-58.93C355.47,-51.37 433.6,-35.64 509.86,-19.1"/>
<polygon fill="#63b8ff" stroke="#63b8ff" points="510.61,-22.52 519.63,-16.97 509.12,-15.68 510.61,-22.52"/>
</a>
</g>
</g>
<!-- Node9 -->
<g id="Node000009" class="node">
<title>Node9</title>
<g id="a_Node000009"><a xlink:title=" ">
<polygon fill="#e0e0e0" stroke="#999999" points="637.5,-19 593.5,-19 593.5,0 637.5,0 637.5,-19"/>
<text text-anchor="middle" x="615.5" y="-7" font-family="Helvetica,sans-Serif" font-size="10.00">regex</text>
</a>
</g>
</g>
<!-- Node5&#45;&gt;Node9 -->
<g id="edge11_Node000005_Node000009" class="edge">
<title>Node5&#45;&gt;Node9</title>
<g id="a_edge11_Node000005_Node000009"><a xlink:title=" ">
<path fill="none" stroke="#63b8ff" d="M317.6,-60.88C365.39,-55.25 478.73,-40.9 583.15,-19.07"/>
<polygon fill="#63b8ff" stroke="#63b8ff" points="584.17,-22.44 593.22,-16.94 582.72,-15.59 584.17,-22.44"/>
</a>
</g>
</g>
<!-- Node10 -->
<g id="Node000010" class="node">
<title>Node10</title>
<g id="a_Node000010"><a xlink:title=" ">
<polygon fill="#e0e0e0" stroke="#999999" points="349.5,-19 239.5,-19 239.5,0 349.5,0 349.5,-19"/>
<text text-anchor="middle" x="294.5" y="-7" font-family="Helvetica,sans-Serif" font-size="10.00">nlohmann/json.hpp</text>
</a>
</g>
</g>
<!-- Node5&#45;&gt;Node10 -->
<g id="edge12_Node000005_Node000010" class="edge">
<title>Node5&#45;&gt;Node10</title>
<g id="a_edge12_Node000005_Node000010"><a xlink:title=" ">
<path fill="none" stroke="#63b8ff" d="M294.5,-54.75C294.5,-47.8 294.5,-37.85 294.5,-29.13"/>
<polygon fill="#63b8ff" stroke="#63b8ff" points="298,-29.09 294.5,-19.09 291,-29.09 298,-29.09"/>
</a>
</g>
</g>
</g>
</svg>
