<?xml version="1.0" encoding="UTF-8" standalone="no"?>
<!DOCTYPE svg PUBLIC "-//W3C//DTD SVG 1.1//EN"
 "http://www.w3.org/Graphics/SVG/1.1/DTD/svg11.dtd">
<!-- Generated by graphviz version 2.43.0 (0)
 -->
<!-- Title: /home/sean/Projects/Brenda/src/ECS/IComponentManager.h Pages: 1 -->
<!--zoomable 467 -->

<svg id="main" version="1.1" xmlns="http://www.w3.org/2000/svg" xmlns:xlink="http://www.w3.org/1999/xlink" xml:space="preserve" onload="init(evt)">
<style type="text/css"><![CDATA[
.node, .edge {opacity: 0.7;}
.node.selected, .edge.selected {opacity: 1;}
.edge:hover path { stroke: red; }
.edge:hover polygon { stroke: red; fill: red; }
]]></style>

<defs>
  <circle id="rim" cx="0" cy="0" r="7"/>
  <circle id="rim2" cx="0" cy="0" r="3.5"/>
  <g id="zoomPlus">
    <use xlink:href="#rim" fill="#404040"><set attributeName="fill" to="#808080" begin="zoomplus.mouseover" end="zoomplus.mouseout"/></use>
    <path d="M-4,0h8M0,-4v8" fill="none" stroke="white" stroke-width="1.5" pointer-events="none"/>
  </g>
  <g id="zoomMin">
    <use xlink:href="#rim" fill="#404040"><set attributeName="fill" to="#808080" begin="zoomminus.mouseover" end="zoomminus.mouseout"/></use>
    <path d="M-4,0h8" fill="none" stroke="white" stroke-width="1.5" pointer-events="none"/>
  </g>
  <g id="arrowUp" transform="translate(30 24)">
    <use xlink:href="#rim"/>
    <path pointer-events="none" fill="none" stroke="white" stroke-width="1.5" d="M0,-3.0v7 M-2.5,-0.5L0,-3.0L2.5,-0.5"/>
  </g>
  <g id="arrowRight" transform="rotate(90) translate(36 -43)">
    <use xlink:href="#rim"/>
    <path pointer-events="none" fill="none" stroke="white" stroke-width="1.5" d="M0,-3.0v7 M-2.5,-0.5L0,-3.0L2.5,-0.5"/>
  </g>
  <g id="arrowDown" transform="rotate(180) translate(-30 -48)">
    <use xlink:href="#rim"/>
    <path pointer-events="none" fill="none" stroke="white" stroke-width="1.5" d="M0,-3.0v7 M-2.5,-0.5L0,-3.0L2.5,-0.5"/>
  </g>
  <g id="arrowLeft" transform="rotate(270) translate(-36 17)">
    <use xlink:href="#rim"/>
    <path pointer-events="none" fill="none" stroke="white" stroke-width="1.5" d="M0,-3.0v7 M-2.5,-0.5L0,-3.0L2.5,-0.5"/>
  </g>
  <g id="resetDef">
    <use xlink:href="#rim2" fill="#404040"><set attributeName="fill" to="#808080" begin="reset.mouseover" end="reset.mouseout"/></use>
  </g>
</defs>
<script type="application/ecmascript">
var viewWidth = 925;
var viewHeight = 467;
var sectionId = 'dynsection-0';
</script>
<script type="application/ecmascript" xlink:href="svg.min.js"/>
<svg id="graph" class="graph">
<g id="viewport">
<title>/home/sean/Projects/Brenda/src/ECS/IComponentManager.h</title>
<!-- Node1 -->
<g id="Node000001" class="node">
<title>Node1</title>
<g id="a_Node000001"><a xlink:title=" ">
<polygon fill="#999999" stroke="#666666" points="552.56,-459 397.56,-459 397.56,-418 552.56,-418 552.56,-459"/>
<text text-anchor="start" x="405.56" y="-447" font-family="Helvetica,sans-Serif" font-size="10.00">/home/sean/Projects</text>
<text text-anchor="start" x="405.56" y="-436" font-family="Helvetica,sans-Serif" font-size="10.00">/Brenda/src/ECS/IComponent</text>
<text text-anchor="middle" x="475.06" y="-425" font-family="Helvetica,sans-Serif" font-size="10.00">Manager.h</text>
</a>
</g>
</g>
<!-- Node2 -->
<g id="Node000002" class="node">
<title>Node2</title>
<g id="a_Node000002"><a xlink:href="AIManager_8h.html" target="_top" xlink:title=" ">
<polygon fill="white" stroke="#666666" points="698.56,-167.5 541.56,-167.5 541.56,-137.5 698.56,-137.5 698.56,-167.5"/>
<text text-anchor="start" x="549.56" y="-155.5" font-family="Helvetica,sans-Serif" font-size="10.00">/home/sean/Projects</text>
<text text-anchor="middle" x="620.06" y="-144.5" font-family="Helvetica,sans-Serif" font-size="10.00">/Brenda/src/ECS/AIManager.h</text>
</a>
</g>
</g>
<!-- Node1&#45;&gt;Node2 -->
<g id="edge1_Node000001_Node000002" class="edge">
<title>Node1&#45;&gt;Node2</title>
<g id="a_edge1_Node000001_Node000002"><a xlink:title=" ">
<path fill="none" stroke="#63b8ff" d="M489.58,-409.05C520.17,-349.13 590.29,-211.8 612.89,-167.53"/>
<polygon fill="#63b8ff" stroke="#63b8ff" points="486.45,-407.48 485.02,-417.98 492.69,-410.66 486.45,-407.48"/>
</a>
</g>
</g>
<!-- Node8 -->
<g id="Node000008" class="node">
<title>Node8</title>
<g id="a_Node000008"><a xlink:href="ControllerManager_8h.html" target="_top" xlink:title=" ">
<polygon fill="white" stroke="#666666" points="163.06,-173 19.06,-173 19.06,-132 163.06,-132 163.06,-173"/>
<text text-anchor="start" x="27.06" y="-161" font-family="Helvetica,sans-Serif" font-size="10.00">/home/sean/Projects</text>
<text text-anchor="start" x="27.06" y="-150" font-family="Helvetica,sans-Serif" font-size="10.00">/Brenda/src/ECS/Controller</text>
<text text-anchor="middle" x="91.06" y="-139" font-family="Helvetica,sans-Serif" font-size="10.00">Manager.h</text>
</a>
</g>
</g>
<!-- Node1&#45;&gt;Node8 -->
<g id="edge10_Node000001_Node000008" class="edge">
<title>Node1&#45;&gt;Node8</title>
<g id="a_edge10_Node000001_Node000008"><a xlink:title=" ">
<path fill="none" stroke="#63b8ff" d="M387.33,-424.19C280.39,-405.83 109.7,-368.9 76.06,-316 47.7,-271.42 68.62,-205.55 82.07,-173.07"/>
<polygon fill="#63b8ff" stroke="#63b8ff" points="387.03,-427.68 397.48,-425.9 388.2,-420.78 387.03,-427.68"/>
</a>
</g>
</g>
<!-- Node9 -->
<g id="Node000009" class="node">
<title>Node9</title>
<g id="a_Node000009"><a xlink:href="DescriptionComponentManager_8h.html" target="_top" xlink:title=" ">
<polygon fill="white" stroke="#666666" points="447.06,-173 295.06,-173 295.06,-132 447.06,-132 447.06,-173"/>
<text text-anchor="start" x="303.06" y="-161" font-family="Helvetica,sans-Serif" font-size="10.00">/home/sean/Projects</text>
<text text-anchor="start" x="303.06" y="-150" font-family="Helvetica,sans-Serif" font-size="10.00">/Brenda/src/ECS/Description</text>
<text text-anchor="middle" x="371.06" y="-139" font-family="Helvetica,sans-Serif" font-size="10.00">ComponentManager.h</text>
</a>
</g>
</g>
<!-- Node1&#45;&gt;Node9 -->
<g id="edge13_Node000001_Node000009" class="edge">
<title>Node1&#45;&gt;Node9</title>
<g id="a_edge13_Node000001_Node000009"><a xlink:title=" ">
<path fill="none" stroke="#63b8ff" d="M469.84,-407.66C466.59,-391.07 461.91,-370.17 456.06,-352 434.28,-284.38 398.17,-208.1 380.87,-173.04"/>
<polygon fill="#63b8ff" stroke="#63b8ff" points="466.47,-408.69 471.77,-417.87 473.35,-407.39 466.47,-408.69"/>
</a>
</g>
</g>
<!-- Node10 -->
<g id="Node000010" class="node">
<title>Node10</title>
<g id="a_Node000010"><a xlink:href="InfoBoxManager_8h.html" target="_top" xlink:title=" ">
<polygon fill="white" stroke="#666666" points="901.56,-167.5 716.56,-167.5 716.56,-137.5 901.56,-137.5 901.56,-167.5"/>
<text text-anchor="start" x="724.56" y="-155.5" font-family="Helvetica,sans-Serif" font-size="10.00">/home/sean/Projects</text>
<text text-anchor="middle" x="809.06" y="-144.5" font-family="Helvetica,sans-Serif" font-size="10.00">/Brenda/src/ECS/InfoBoxManager.h</text>
</a>
</g>
</g>
<!-- Node1&#45;&gt;Node10 -->
<g id="edge17_Node000001_Node000010" class="edge">
<title>Node1&#45;&gt;Node10</title>
<g id="a_edge17_Node000001_Node000010"><a xlink:title=" ">
<path fill="none" stroke="#63b8ff" d="M562.57,-422.87C596.66,-414.49 634.94,-401.6 666.06,-382 732.64,-340.06 746.92,-319.38 784.06,-250 798.51,-222.99 804.93,-187.2 807.51,-167.68"/>
<polygon fill="#63b8ff" stroke="#63b8ff" points="561.53,-419.52 552.6,-425.22 563.14,-426.33 561.53,-419.52"/>
</a>
</g>
</g>
<!-- Node12 -->
<g id="Node000012" class="node">
<title>Node12</title>
<g id="a_Node000012"><a xlink:href="MovementManager_8h.html" target="_top" xlink:title=" ">
<polygon fill="white" stroke="#666666" points="285.06,-316 85.06,-316 85.06,-286 285.06,-286 285.06,-316"/>
<text text-anchor="start" x="93.06" y="-304" font-family="Helvetica,sans-Serif" font-size="10.00">/home/sean/Projects</text>
<text text-anchor="middle" x="185.06" y="-293" font-family="Helvetica,sans-Serif" font-size="10.00">/Brenda/src/ECS/MovementManager.h</text>
</a>
</g>
</g>
<!-- Node1&#45;&gt;Node12 -->
<g id="edge22_Node000001_Node000012" class="edge">
<title>Node1&#45;&gt;Node12</title>
<g id="a_edge22_Node000001_Node000012"><a xlink:title=" ">
<path fill="none" stroke="#63b8ff" d="M387.39,-428.62C344.11,-421.14 292.62,-407.36 252.06,-382 225.33,-365.29 203.98,-334.34 193.05,-316.22"/>
<polygon fill="#63b8ff" stroke="#63b8ff" points="386.91,-432.09 397.35,-430.26 388.05,-425.18 386.91,-432.09"/>
</a>
</g>
</g>
<!-- Node14 -->
<g id="Node000014" class="node">
<title>Node14</title>
<g id="a_Node000014"><a xlink:href="PositionManager_8h.html" target="_top" xlink:title=" ">
<polygon fill="white" stroke="#666666" points="447.06,-382 261.06,-382 261.06,-352 447.06,-352 447.06,-382"/>
<text text-anchor="start" x="269.06" y="-370" font-family="Helvetica,sans-Serif" font-size="10.00">/home/sean/Projects</text>
<text text-anchor="middle" x="354.06" y="-359" font-family="Helvetica,sans-Serif" font-size="10.00">/Brenda/src/ECS/PositionManager.h</text>
</a>
</g>
</g>
<!-- Node1&#45;&gt;Node14 -->
<g id="edge29_Node000001_Node000014" class="edge">
<title>Node1&#45;&gt;Node14</title>
<g id="a_edge29_Node000001_Node000014"><a xlink:title=" ">
<path fill="none" stroke="#63b8ff" d="M431.91,-412.72C414.02,-402.44 393.92,-390.9 378.63,-382.11"/>
<polygon fill="#63b8ff" stroke="#63b8ff" points="430.61,-416.01 441.03,-417.96 434.1,-409.94 430.61,-416.01"/>
</a>
</g>
</g>
<!-- Node15 -->
<g id="Node000015" class="node">
<title>Node15</title>
<g id="a_Node000015"><a xlink:href="RenderableManager_8h.html" target="_top" xlink:title=" ">
<polygon fill="white" stroke="#666666" points="775.06,-250 623.06,-250 623.06,-209 775.06,-209 775.06,-250"/>
<text text-anchor="start" x="631.06" y="-238" font-family="Helvetica,sans-Serif" font-size="10.00">/home/sean/Projects</text>
<text text-anchor="start" x="631.06" y="-227" font-family="Helvetica,sans-Serif" font-size="10.00">/Brenda/src/ECS/Renderable</text>
<text text-anchor="middle" x="699.06" y="-216" font-family="Helvetica,sans-Serif" font-size="10.00">Manager.h</text>
</a>
</g>
</g>
<!-- Node1&#45;&gt;Node15 -->
<g id="edge39_Node000001_Node000015" class="edge">
<title>Node1&#45;&gt;Node15</title>
<g id="a_edge39_Node000001_Node000015"><a xlink:title=" ">
<path fill="none" stroke="#63b8ff" d="M562.55,-423.59C590.48,-415.43 619.66,-402.5 641.06,-382 678.89,-345.76 692.36,-282.21 696.9,-250.16"/>
<polygon fill="#63b8ff" stroke="#63b8ff" points="561.46,-420.26 552.74,-426.28 563.31,-427.01 561.46,-420.26"/>
</a>
</g>
</g>
<!-- Node3 -->
<g id="Node000003" class="node">
<title>Node3</title>
<g id="a_Node000003"><a xlink:href="AISystem_8h.html" target="_top" xlink:title=" ">
<polygon fill="white" stroke="#666666" points="575.06,-96 445.06,-96 445.06,-66 575.06,-66 575.06,-96"/>
<text text-anchor="start" x="453.06" y="-84" font-family="Helvetica,sans-Serif" font-size="10.00">/home/sean/Projects</text>
<text text-anchor="middle" x="510.06" y="-73" font-family="Helvetica,sans-Serif" font-size="10.00">/Brenda/src/AISystem.h</text>
</a>
</g>
</g>
<!-- Node2&#45;&gt;Node3 -->
<g id="edge2_Node000002_Node000003" class="edge">
<title>Node2&#45;&gt;Node3</title>
<g id="a_edge2_Node000002_Node000003"><a xlink:title=" ">
<path fill="none" stroke="#63b8ff" d="M589.3,-132.07C571.18,-120.62 548.68,-106.4 532.28,-96.04"/>
<polygon fill="#63b8ff" stroke="#63b8ff" points="587.47,-135.05 597.8,-137.44 591.21,-129.14 587.47,-135.05"/>
</a>
</g>
</g>
<!-- Node5 -->
<g id="Node000005" class="node">
<title>Node5</title>
<g id="a_Node000005"><a xlink:href="main_8cpp.html" target="_top" xlink:title=" ">
<polygon fill="white" stroke="#666666" points="689.56,-30 570.56,-30 570.56,0 689.56,0 689.56,-30"/>
<text text-anchor="start" x="578.56" y="-18" font-family="Helvetica,sans-Serif" font-size="10.00">/home/sean/Projects</text>
<text text-anchor="middle" x="630.06" y="-7" font-family="Helvetica,sans-Serif" font-size="10.00">/Brenda/src/main.cpp</text>
</a>
</g>
</g>
<!-- Node2&#45;&gt;Node5 -->
<g id="edge9_Node000002_Node000005" class="edge">
<title>Node2&#45;&gt;Node5</title>
<g id="a_edge9_Node000002_Node000005"><a xlink:title=" ">
<path fill="none" stroke="#63b8ff" d="M621.87,-126.98C623.96,-98.64 627.33,-52.96 629.02,-30.05"/>
<polygon fill="#63b8ff" stroke="#63b8ff" points="618.35,-127.02 621.11,-137.26 625.33,-127.54 618.35,-127.02"/>
</a>
</g>
</g>
<!-- Node6 -->
<g id="Node000006" class="node">
<title>Node6</title>
<g id="a_Node000006"><a xlink:href="Scene_8cpp.html" target="_top" xlink:title=" ">
<polygon fill="white" stroke="#666666" points="375.06,-30 251.06,-30 251.06,0 375.06,0 375.06,-30"/>
<text text-anchor="start" x="259.06" y="-18" font-family="Helvetica,sans-Serif" font-size="10.00">/home/sean/Projects</text>
<text text-anchor="middle" x="313.06" y="-7" font-family="Helvetica,sans-Serif" font-size="10.00">/Brenda/src/Scene.cpp</text>
</a>
</g>
</g>
<!-- Node2&#45;&gt;Node6 -->
<g id="edge5_Node000002_Node000006" class="edge">
<title>Node2&#45;&gt;Node6</title>
<g id="a_edge5_Node000002_Node000006"><a xlink:title=" ">
<path fill="none" stroke="#63b8ff" d="M547.9,-134.82C513.23,-125.54 471.59,-112.5 436.06,-96 396.32,-77.54 354.45,-47.77 331.26,-30.23"/>
<polygon fill="#63b8ff" stroke="#63b8ff" points="547.4,-138.31 557.96,-137.46 549.17,-131.54 547.4,-138.31"/>
</a>
</g>
</g>
<!-- Node7 -->
<g id="Node000007" class="node">
<title>Node7</title>
<g id="a_Node000007"><a xlink:href="Scene_8h.html" target="_top" xlink:title=" ">
<polygon fill="white" stroke="#666666" points="329.06,-96 213.06,-96 213.06,-66 329.06,-66 329.06,-96"/>
<text text-anchor="start" x="221.06" y="-84" font-family="Helvetica,sans-Serif" font-size="10.00">/home/sean/Projects</text>
<text text-anchor="middle" x="271.06" y="-73" font-family="Helvetica,sans-Serif" font-size="10.00">/Brenda/src/Scene.h</text>
</a>
</g>
</g>
<!-- Node2&#45;&gt;Node7 -->
<g id="edge6_Node000002_Node000007" class="edge">
<title>Node2&#45;&gt;Node7</title>
<g id="a_edge6_Node000002_Node000007"><a xlink:title=" ">
<path fill="none" stroke="#63b8ff" d="M539.33,-135.42C475.05,-122.62 386.62,-105.01 329.15,-93.57"/>
<polygon fill="#63b8ff" stroke="#63b8ff" points="538.94,-138.92 549.43,-137.44 540.31,-132.05 538.94,-138.92"/>
</a>
</g>
</g>
<!-- Node4 -->
<g id="Node000004" class="node">
<title>Node4</title>
<g id="a_Node000004"><a xlink:href="AISystem_8cpp.html" target="_top" xlink:title=" ">
<polygon fill="white" stroke="#666666" points="552.56,-30 411.56,-30 411.56,0 552.56,0 552.56,-30"/>
<text text-anchor="start" x="419.56" y="-18" font-family="Helvetica,sans-Serif" font-size="10.00">/home/sean/Projects</text>
<text text-anchor="middle" x="482.06" y="-7" font-family="Helvetica,sans-Serif" font-size="10.00">/Brenda/src/AISystem.cpp</text>
</a>
</g>
</g>
<!-- Node3&#45;&gt;Node4 -->
<g id="edge3_Node000003_Node000004" class="edge">
<title>Node3&#45;&gt;Node4</title>
<g id="a_edge3_Node000003_Node000004"><a xlink:title=" ">
<path fill="none" stroke="#63b8ff" d="M499.73,-56.39C495.88,-47.59 491.62,-37.86 488.25,-30.16"/>
<polygon fill="#63b8ff" stroke="#63b8ff" points="496.63,-58.04 503.84,-65.8 503.04,-55.23 496.63,-58.04"/>
</a>
</g>
</g>
<!-- Node3&#45;&gt;Node5 -->
<g id="edge4_Node000003_Node000005" class="edge">
<title>Node3&#45;&gt;Node5</title>
<g id="a_edge4_Node000003_Node000005"><a xlink:title=" ">
<path fill="none" stroke="#63b8ff" d="M545.23,-61.24C563.96,-51.25 586.6,-39.18 603.78,-30.01"/>
<polygon fill="#63b8ff" stroke="#63b8ff" points="543.57,-58.16 536.39,-65.95 546.86,-64.34 543.57,-58.16"/>
</a>
</g>
</g>
<!-- Node7&#45;&gt;Node5 -->
<g id="edge8_Node000007_Node000005" class="edge">
<title>Node7&#45;&gt;Node5</title>
<g id="a_edge8_Node000007_Node000005"><a xlink:title=" ">
<path fill="none" stroke="#63b8ff" d="M339.11,-68.85C397.95,-59.07 485.23,-44.23 561.06,-30 564.06,-29.44 567.14,-28.85 570.24,-28.25"/>
<polygon fill="#63b8ff" stroke="#63b8ff" points="338.49,-65.4 329.2,-70.49 339.63,-72.31 338.49,-65.4"/>
</a>
</g>
</g>
<!-- Node7&#45;&gt;Node6 -->
<g id="edge7_Node000007_Node000006" class="edge">
<title>Node7&#45;&gt;Node6</title>
<g id="a_edge7_Node000007_Node000006"><a xlink:title=" ">
<path fill="none" stroke="#63b8ff" d="M285.99,-57.24C291.92,-48.21 298.55,-38.11 303.76,-30.16"/>
<polygon fill="#63b8ff" stroke="#63b8ff" points="282.94,-55.52 280.38,-65.8 288.79,-59.36 282.94,-55.52"/>
</a>
</g>
</g>
<!-- Node8&#45;&gt;Node6 -->
<g id="edge11_Node000008_Node000006" class="edge">
<title>Node8&#45;&gt;Node6</title>
<g id="a_edge11_Node000008_Node000006"><a xlink:title=" ">
<path fill="none" stroke="#63b8ff" d="M121.8,-125.33C143.82,-107.32 174.66,-83.58 204.06,-66 227.47,-52 255.46,-39.24 277.22,-30.11"/>
<polygon fill="#63b8ff" stroke="#63b8ff" points="119.29,-122.86 113.81,-131.92 123.75,-128.25 119.29,-122.86"/>
</a>
</g>
</g>
<!-- Node8&#45;&gt;Node7 -->
<g id="edge12_Node000008_Node000007" class="edge">
<title>Node8&#45;&gt;Node7</title>
<g id="a_edge12_Node000008_Node000007"><a xlink:title=" ">
<path fill="none" stroke="#63b8ff" d="M151.27,-128.25C178.95,-117.56 210.86,-105.24 234.79,-96"/>
<polygon fill="#63b8ff" stroke="#63b8ff" points="149.74,-125.09 141.68,-131.96 152.27,-131.62 149.74,-125.09"/>
</a>
</g>
</g>
<!-- Node9&#45;&gt;Node3 -->
<g id="edge14_Node000009_Node000003" class="edge">
<title>Node9&#45;&gt;Node3</title>
<g id="a_edge14_Node000009_Node000003"><a xlink:title=" ">
<path fill="none" stroke="#63b8ff" d="M419.21,-127.42C440.11,-116.98 463.86,-105.1 481.83,-96.11"/>
<polygon fill="#63b8ff" stroke="#63b8ff" points="417.53,-124.35 410.15,-131.96 420.66,-130.61 417.53,-124.35"/>
</a>
</g>
</g>
<!-- Node9&#45;&gt;Node6 -->
<g id="edge15_Node000009_Node000006" class="edge">
<title>Node9&#45;&gt;Node6</title>
<g id="a_edge15_Node000009_Node000006"><a xlink:title=" ">
<path fill="none" stroke="#63b8ff" d="M360.54,-122.21C354.37,-105.57 346.2,-84.44 338.06,-66 332.64,-53.75 325.8,-40.18 320.65,-30.27"/>
<polygon fill="#63b8ff" stroke="#63b8ff" points="357.38,-123.75 364.11,-131.93 363.95,-121.34 357.38,-123.75"/>
</a>
</g>
</g>
<!-- Node9&#45;&gt;Node7 -->
<g id="edge16_Node000009_Node000007" class="edge">
<title>Node9&#45;&gt;Node7</title>
<g id="a_edge16_Node000009_Node000007"><a xlink:title=" ">
<path fill="none" stroke="#63b8ff" d="M334.59,-126.15C320.01,-116.02 303.77,-104.74 291.36,-96.11"/>
<polygon fill="#63b8ff" stroke="#63b8ff" points="332.73,-129.12 342.94,-131.96 336.72,-123.37 332.73,-129.12"/>
</a>
</g>
</g>
<!-- Node10&#45;&gt;Node3 -->
<g id="edge18_Node000010_Node000003" class="edge">
<title>Node10&#45;&gt;Node3</title>
<g id="a_edge18_Node000010_Node000003"><a xlink:title=" ">
<path fill="none" stroke="#63b8ff" d="M738.57,-135.12C687.47,-123.24 619.08,-107.34 570.47,-96.04"/>
<polygon fill="#63b8ff" stroke="#63b8ff" points="738.02,-138.58 748.55,-137.44 739.6,-131.76 738.02,-138.58"/>
</a>
</g>
</g>
<!-- Node10&#45;&gt;Node5 -->
<g id="edge21_Node000010_Node000005" class="edge">
<title>Node10&#45;&gt;Node5</title>
<g id="a_edge21_Node000010_Node000005"><a xlink:title=" ">
<path fill="none" stroke="#63b8ff" d="M841.36,-131.53C865.67,-114.01 891.98,-87.97 874.06,-66 851.23,-38.02 754.35,-25.27 689.75,-19.78"/>
<polygon fill="#63b8ff" stroke="#63b8ff" points="839.16,-128.79 832.92,-137.35 843.14,-134.56 839.16,-128.79"/>
</a>
</g>
</g>
<!-- Node10&#45;&gt;Node6 -->
<g id="edge20_Node000010_Node000006" class="edge">
<title>Node10&#45;&gt;Node6</title>
<g id="a_edge20_Node000010_Node000006"><a xlink:title=" ">
<path fill="none" stroke="#63b8ff" d="M761.14,-133.92C731.88,-123.12 693.75,-108.92 660.06,-96 626.15,-82.99 618.96,-76.01 584.06,-66 545.77,-55.02 442.65,-37.17 375.23,-26.04"/>
<polygon fill="#63b8ff" stroke="#63b8ff" points="760.11,-137.27 770.7,-137.45 762.53,-130.7 760.11,-137.27"/>
</a>
</g>
</g>
<!-- Node11 -->
<g id="Node000011" class="node">
<title>Node11</title>
<g id="a_Node000011"><a xlink:href="InfoBoxManager_8cpp.html" target="_top" xlink:title=" ">
<polygon fill="white" stroke="#666666" points="865.06,-96 669.06,-96 669.06,-66 865.06,-66 865.06,-96"/>
<text text-anchor="start" x="677.06" y="-84" font-family="Helvetica,sans-Serif" font-size="10.00">/home/sean/Projects</text>
<text text-anchor="middle" x="767.06" y="-73" font-family="Helvetica,sans-Serif" font-size="10.00">/Brenda/src/ECS/InfoBoxManager.cpp</text>
</a>
</g>
</g>
<!-- Node10&#45;&gt;Node11 -->
<g id="edge19_Node000010_Node000011" class="edge">
<title>Node10&#45;&gt;Node11</title>
<g id="a_edge19_Node000010_Node000011"><a xlink:title=" ">
<path fill="none" stroke="#63b8ff" d="M795.19,-128.56C788.7,-117.82 781.18,-105.36 775.54,-96.04"/>
<polygon fill="#63b8ff" stroke="#63b8ff" points="792.39,-130.69 800.56,-137.44 798.38,-127.07 792.39,-130.69"/>
</a>
</g>
</g>
<!-- Node12&#45;&gt;Node3 -->
<g id="edge23_Node000012_Node000003" class="edge">
<title>Node12&#45;&gt;Node3</title>
<g id="a_edge23_Node000012_Node000003"><a xlink:title=" ">
<path fill="none" stroke="#63b8ff" d="M252.42,-283.03C312.63,-264.78 399.82,-230.38 456.06,-173 478.82,-149.78 495.92,-115.17 504.31,-96.01"/>
<polygon fill="#63b8ff" stroke="#63b8ff" points="251.22,-279.73 242.62,-285.92 253.2,-286.44 251.22,-279.73"/>
</a>
</g>
</g>
<!-- Node12&#45;&gt;Node6 -->
<g id="edge27_Node000012_Node000006" class="edge">
<title>Node12&#45;&gt;Node6</title>
<g id="a_edge27_Node000012_Node000006"><a xlink:title=" ">
<path fill="none" stroke="#63b8ff" d="M138.72,-281.92C73.88,-253.81 -31.57,-196.15 10.06,-132 62.11,-51.79 178.35,-26.95 250.78,-19.32"/>
<polygon fill="#63b8ff" stroke="#63b8ff" points="137.4,-285.16 147.97,-285.85 140.14,-278.72 137.4,-285.16"/>
</a>
</g>
</g>
<!-- Node12&#45;&gt;Node7 -->
<g id="edge28_Node000012_Node000007" class="edge">
<title>Node12&#45;&gt;Node7</title>
<g id="a_edge28_Node000012_Node000007"><a xlink:title=" ">
<path fill="none" stroke="#63b8ff" d="M169.72,-277.29C165.01,-269.06 160.45,-259.45 158.06,-250 153.59,-232.33 152.35,-226.31 158.06,-209 174.51,-159.11 222.72,-117.2 250.56,-96.29"/>
<polygon fill="#63b8ff" stroke="#63b8ff" points="166.79,-279.2 174.99,-285.92 172.77,-275.56 166.79,-279.2"/>
</a>
</g>
</g>
<!-- Node12&#45;&gt;Node8 -->
<g id="edge24_Node000012_Node000008" class="edge">
<title>Node12&#45;&gt;Node8</title>
<g id="a_edge24_Node000012_Node000008"><a xlink:title=" ">
<path fill="none" stroke="#63b8ff" d="M154.55,-279.77C144.03,-271.56 132.93,-261.33 125.06,-250 108.53,-226.23 99.27,-193.6 94.72,-173.04"/>
<polygon fill="#63b8ff" stroke="#63b8ff" points="152.67,-282.73 162.78,-285.9 156.85,-277.12 152.67,-282.73"/>
</a>
</g>
</g>
<!-- Node13 -->
<g id="Node000013" class="node">
<title>Node13</title>
<g id="a_Node000013"><a xlink:href="PlayerController_8h.html" target="_top" xlink:title=" ">
<polygon fill="white" stroke="#666666" points="323.06,-250 167.06,-250 167.06,-209 323.06,-209 323.06,-250"/>
<text text-anchor="start" x="175.06" y="-238" font-family="Helvetica,sans-Serif" font-size="10.00">/home/sean/Projects</text>
<text text-anchor="start" x="175.06" y="-227" font-family="Helvetica,sans-Serif" font-size="10.00">/Brenda/src/ECS/components</text>
<text text-anchor="middle" x="245.06" y="-216" font-family="Helvetica,sans-Serif" font-size="10.00">/PlayerController.h</text>
</a>
</g>
</g>
<!-- Node12&#45;&gt;Node13 -->
<g id="edge25_Node000012_Node000013" class="edge">
<title>Node12&#45;&gt;Node13</title>
<g id="a_edge25_Node000012_Node000013"><a xlink:title=" ">
<path fill="none" stroke="#63b8ff" d="M203.93,-278.14C211.69,-269.15 220.61,-258.81 228.16,-250.07"/>
<polygon fill="#63b8ff" stroke="#63b8ff" points="201.08,-276.08 197.2,-285.94 206.38,-280.65 201.08,-276.08"/>
</a>
</g>
</g>
<!-- Node13&#45;&gt;Node8 -->
<g id="edge26_Node000013_Node000008" class="edge">
<title>Node13&#45;&gt;Node8</title>
<g id="a_edge26_Node000013_Node000008"><a xlink:title=" ">
<path fill="none" stroke="#63b8ff" d="M195.95,-204.59C175.06,-194.41 150.99,-182.69 131.18,-173.04"/>
<polygon fill="#63b8ff" stroke="#63b8ff" points="194.47,-207.76 205,-208.99 197.54,-201.47 194.47,-207.76"/>
</a>
</g>
</g>
<!-- Node14&#45;&gt;Node3 -->
<g id="edge30_Node000014_Node000003" class="edge">
<title>Node14&#45;&gt;Node3</title>
<g id="a_edge30_Node000014_Node000003"><a xlink:title=" ">
<path fill="none" stroke="#63b8ff" d="M373.09,-343.54C401.42,-309.03 454.58,-239.93 485.06,-173 496.87,-147.05 504.17,-114.34 507.64,-96.04"/>
<polygon fill="#63b8ff" stroke="#63b8ff" points="370.14,-341.61 366.46,-351.54 375.53,-346.08 370.14,-341.61"/>
</a>
</g>
</g>
<!-- Node14&#45;&gt;Node7 -->
<g id="edge38_Node000014_Node000007" class="edge">
<title>Node14&#45;&gt;Node7</title>
<g id="a_edge38_Node000014_Node000007"><a xlink:title=" ">
<path fill="none" stroke="#63b8ff" d="M366.24,-342.38C369.82,-334.24 373.26,-324.92 375.06,-316 377.69,-302.93 376.58,-299.25 375.06,-286 371.03,-251.09 380.06,-235.57 357.06,-209 328.31,-175.81 289.81,-209.27 265.06,-173 249.26,-149.85 258.17,-115.21 265.18,-96.04"/>
<polygon fill="#63b8ff" stroke="#63b8ff" points="362.99,-341.08 361.91,-351.61 369.33,-344.05 362.99,-341.08"/>
</a>
</g>
</g>
<!-- Node14&#45;&gt;Node8 -->
<g id="edge31_Node000014_Node000008" class="edge">
<title>Node14&#45;&gt;Node8</title>
<g id="a_edge31_Node000014_Node000008"><a xlink:title=" ">
<path fill="none" stroke="#63b8ff" d="M358.34,-341.6C362.85,-307.37 365.28,-245.25 332.06,-209 320.51,-196.4 230.07,-178 163.36,-165.89"/>
<polygon fill="#63b8ff" stroke="#63b8ff" points="354.86,-341.26 356.85,-351.66 361.78,-342.28 354.86,-341.26"/>
</a>
</g>
</g>
<!-- Node14&#45;&gt;Node10 -->
<g id="edge32_Node000014_Node000010" class="edge">
<title>Node14&#45;&gt;Node10</title>
<g id="a_edge32_Node000014_Node000010"><a xlink:title=" ">
<path fill="none" stroke="#63b8ff" d="M449.99,-349.33C476.4,-341.88 504.07,-331.22 527.06,-316 578.17,-282.17 562.88,-242.73 614.06,-209 635.51,-194.86 695.92,-178.8 743.87,-167.6"/>
<polygon fill="#63b8ff" stroke="#63b8ff" points="449.08,-345.95 440.33,-351.93 450.9,-352.71 449.08,-345.95"/>
</a>
</g>
</g>
<!-- Node14&#45;&gt;Node12 -->
<g id="edge33_Node000014_Node000012" class="edge">
<title>Node14&#45;&gt;Node12</title>
<g id="a_edge33_Node000014_Node000012"><a xlink:title=" ">
<path fill="none" stroke="#63b8ff" d="M307.38,-348.32C280.48,-338.14 247.13,-325.51 222.06,-316.01"/>
<polygon fill="#63b8ff" stroke="#63b8ff" points="306.38,-351.69 316.97,-351.95 308.86,-345.14 306.38,-351.69"/>
</a>
</g>
</g>
<!-- Node14&#45;&gt;Node13 -->
<g id="edge37_Node000014_Node000013" class="edge">
<title>Node14&#45;&gt;Node13</title>
<g id="a_edge37_Node000014_Node000013"><a xlink:title=" ">
<path fill="none" stroke="#63b8ff" d="M337.95,-343.53C326.12,-327.29 309.5,-304.97 294.06,-286 284.16,-273.84 272.56,-260.67 263.14,-250.2"/>
<polygon fill="#63b8ff" stroke="#63b8ff" points="335.28,-345.82 343.98,-351.87 340.95,-341.72 335.28,-345.82"/>
</a>
</g>
</g>
<!-- Node14&#45;&gt;Node15 -->
<g id="edge34_Node000014_Node000015" class="edge">
<title>Node14&#45;&gt;Node15</title>
<g id="a_edge34_Node000014_Node000015"><a xlink:title=" ">
<path fill="none" stroke="#63b8ff" d="M452.23,-349.87C488.53,-342.07 529.48,-331.05 565.06,-316 605.72,-298.79 647.9,-269.7 673.81,-250.29"/>
<polygon fill="#63b8ff" stroke="#63b8ff" points="451.19,-346.51 442.12,-351.99 452.62,-353.36 451.19,-346.51"/>
</a>
</g>
</g>
<!-- Node15&#45;&gt;Node5 -->
<g id="edge36_Node000015_Node000005" class="edge">
<title>Node15&#45;&gt;Node5</title>
<g id="a_edge36_Node000015_Node000005"><a xlink:title=" ">
<path fill="none" stroke="#63b8ff" d="M785,-216.8C836.62,-207.81 895.28,-193.44 911.06,-173 922.19,-158.58 913.85,-150.01 911.06,-132 906.33,-101.58 913.07,-86.44 890.06,-66 861.02,-40.2 757.01,-26.68 689.67,-20.46"/>
<polygon fill="#63b8ff" stroke="#63b8ff" points="784.39,-213.35 775.12,-218.47 785.56,-220.25 784.39,-213.35"/>
</a>
</g>
</g>
<!-- Node15&#45;&gt;Node7 -->
<g id="edge35_Node000015_Node000007" class="edge">
<title>Node15&#45;&gt;Node7</title>
<g id="a_edge35_Node000015_Node000007"><a xlink:title=" ">
<path fill="none" stroke="#63b8ff" d="M612.67,-222.34C498.51,-213.37 309.08,-195.35 286.06,-173 265.49,-153.04 266.35,-116.5 268.73,-96.33"/>
<polygon fill="#63b8ff" stroke="#63b8ff" points="612.55,-225.84 622.79,-223.12 613.09,-218.86 612.55,-225.84"/>
</a>
</g>
</g>
</g>
</svg>

<g id="navigator" transform="translate(0 0)" fill="#404254">
  <rect fill="#f2f5e9" fill-opacity="0.5" stroke="#606060" stroke-width=".5" x="0" y="0" width="60" height="60"/>
  <use id="zoomplus" xlink:href="#zoomPlus" x="17" y="9" onmousedown="handleZoom(evt,'in')"/>
  <use id="zoomminus" xlink:href="#zoomMin" x="42" y="9" onmousedown="handleZoom(evt,'out')"/>
  <use id="reset" xlink:href="#resetDef" x="30" y="36" onmousedown="handleReset()"/>
   <use id="arrowup" xlink:href="#arrowUp" x="0" y="0" onmousedown="handlePan(0,-1)"/>
  <use id="arrowright" xlink:href="#arrowRight" x="0" y="0" onmousedown="handlePan(1,0)"/>
  <use id="arrowdown" xlink:href="#arrowDown" x="0" y="0" onmousedown="handlePan(0,1)"/>
  <use id="arrowleft" xlink:href="#arrowLeft" x="0" y="0" onmousedown="handlePan(-1,0)"/>
</g>
<svg viewBox="0 0 15 15" width="100%" height="30px" preserveAspectRatio="xMaxYMin meet">
 <g id="arrow_out" transform="scale(0.3 0.3)">
  <a xlink:href="IComponentManager_8h__dep__incl_org.svg" target="_base">
   <rect id="button" ry="5" rx="5" y="6" x="6" height="38" width="38"
        fill="#f2f5e9" fill-opacity="0.5" stroke="#606060" stroke-width="1.0"/>
   <path id="arrow"
     d="M 11.500037,31.436501 C 11.940474,20.09759 22.043105,11.32322 32.158766,21.979434 L 37.068811,17.246167 C 37.068811,17.246167 37.088388,32 37.088388,32 L 22.160133,31.978069 C 22.160133,31.978069 26.997745,27.140456 26.997745,27.140456 C 18.528582,18.264221 13.291696,25.230495 11.500037,31.436501 z"
     style="fill:#404040;"/>
  </a>
 </g>
</svg>

<style type='text/css'>
<![CDATA[
[data-mouse-over-selected='false'] { opacity: 0.7; }
[data-mouse-over-selected='true']  { opacity: 1.0; }
]]>
</style>
<script type="application/ecmascript"><![CDATA[
document.addEventListener('DOMContentLoaded', (event) => {
  highlightEdges();
  highlightAdjacentNodes();
});
]]></script>
</svg>
