<?xml version="1.0" encoding="UTF-8" standalone="no"?>
<!DOCTYPE svg PUBLIC "-//W3C//DTD SVG 1.1//EN"
 "http://www.w3.org/Graphics/SVG/1.1/DTD/svg11.dtd">
<!-- Generated by graphviz version 2.43.0 (0)
 -->
<!-- Title: /home/sean/Projects/Brenda/src/ECS/IComponent.h Pages: 1 -->
<!--zoomable 555 -->

<svg id="main" version="1.1" xmlns="http://www.w3.org/2000/svg" xmlns:xlink="http://www.w3.org/1999/xlink" xml:space="preserve" onload="init(evt)">
<style type="text/css"><![CDATA[
.node, .edge {opacity: 0.7;}
.node.selected, .edge.selected {opacity: 1;}
.edge:hover path { stroke: red; }
.edge:hover polygon { stroke: red; fill: red; }
]]></style>

<defs>
  <circle id="rim" cx="0" cy="0" r="7"/>
  <circle id="rim2" cx="0" cy="0" r="3.5"/>
  <g id="zoomPlus">
    <use xlink:href="#rim" fill="#404040"><set attributeName="fill" to="#808080" begin="zoomplus.mouseover" end="zoomplus.mouseout"/></use>
    <path d="M-4,0h8M0,-4v8" fill="none" stroke="white" stroke-width="1.5" pointer-events="none"/>
  </g>
  <g id="zoomMin">
    <use xlink:href="#rim" fill="#404040"><set attributeName="fill" to="#808080" begin="zoomminus.mouseover" end="zoomminus.mouseout"/></use>
    <path d="M-4,0h8" fill="none" stroke="white" stroke-width="1.5" pointer-events="none"/>
  </g>
  <g id="arrowUp" transform="translate(30 24)">
    <use xlink:href="#rim"/>
    <path pointer-events="none" fill="none" stroke="white" stroke-width="1.5" d="M0,-3.0v7 M-2.5,-0.5L0,-3.0L2.5,-0.5"/>
  </g>
  <g id="arrowRight" transform="rotate(90) translate(36 -43)">
    <use xlink:href="#rim"/>
    <path pointer-events="none" fill="none" stroke="white" stroke-width="1.5" d="M0,-3.0v7 M-2.5,-0.5L0,-3.0L2.5,-0.5"/>
  </g>
  <g id="arrowDown" transform="rotate(180) translate(-30 -48)">
    <use xlink:href="#rim"/>
    <path pointer-events="none" fill="none" stroke="white" stroke-width="1.5" d="M0,-3.0v7 M-2.5,-0.5L0,-3.0L2.5,-0.5"/>
  </g>
  <g id="arrowLeft" transform="rotate(270) translate(-36 17)">
    <use xlink:href="#rim"/>
    <path pointer-events="none" fill="none" stroke="white" stroke-width="1.5" d="M0,-3.0v7 M-2.5,-0.5L0,-3.0L2.5,-0.5"/>
  </g>
  <g id="resetDef">
    <use xlink:href="#rim2" fill="#404040"><set attributeName="fill" to="#808080" begin="reset.mouseover" end="reset.mouseout"/></use>
  </g>
</defs>
<script type="application/ecmascript">
var viewWidth = 1074;
var viewHeight = 555;
var sectionId = 'dynsection-0';
</script>
<script type="application/ecmascript" xlink:href="svg.min.js"/>
<svg id="graph" class="graph">
<g id="viewport">
<title>/home/sean/Projects/Brenda/src/ECS/IComponent.h</title>
<!-- Node1 -->
<g id="Node000001" class="node">
<title>Node1</title>
<g id="a_Node000001"><a xlink:title=" ">
<polygon fill="#999999" stroke="#666666" points="532,-547 368,-547 368,-517 532,-517 532,-547"/>
<text text-anchor="start" x="376" y="-535" font-family="Helvetica,sans-Serif" font-size="10.00">/home/sean/Projects</text>
<text text-anchor="middle" x="450" y="-524" font-family="Helvetica,sans-Serif" font-size="10.00">/Brenda/src/ECS/IComponent.h</text>
</a>
</g>
</g>
<!-- Node2 -->
<g id="Node000002" class="node">
<title>Node2</title>
<g id="a_Node000002"><a xlink:href="DescriptionComponent_8h.html" target="_top" xlink:title=" ">
<polygon fill="white" stroke="#666666" points="354,-481 198,-481 198,-440 354,-440 354,-481"/>
<text text-anchor="start" x="206" y="-469" font-family="Helvetica,sans-Serif" font-size="10.00">/home/sean/Projects</text>
<text text-anchor="start" x="206" y="-458" font-family="Helvetica,sans-Serif" font-size="10.00">/Brenda/src/ECS/components</text>
<text text-anchor="middle" x="276" y="-447" font-family="Helvetica,sans-Serif" font-size="10.00">/DescriptionComponent.h</text>
</a>
</g>
</g>
<!-- Node1&#45;&gt;Node2 -->
<g id="edge1_Node000001_Node000002" class="edge">
<title>Node1&#45;&gt;Node2</title>
<g id="a_edge1_Node000001_Node000002"><a xlink:title=" ">
<path fill="none" stroke="#63b8ff" d="M405.34,-513.16C380.77,-503.35 350.23,-491.15 325,-481.07"/>
<polygon fill="#63b8ff" stroke="#63b8ff" points="404.2,-516.48 414.79,-516.94 406.8,-509.98 404.2,-516.48"/>
</a>
</g>
</g>
<!-- Node9 -->
<g id="Node000009" class="node">
<title>Node9</title>
<g id="a_Node000009"><a xlink:href="InfoBoxComponent_8h.html" target="_top" xlink:title=" ">
<polygon fill="white" stroke="#666666" points="1055,-481 899,-481 899,-440 1055,-440 1055,-481"/>
<text text-anchor="start" x="907" y="-469" font-family="Helvetica,sans-Serif" font-size="10.00">/home/sean/Projects</text>
<text text-anchor="start" x="907" y="-458" font-family="Helvetica,sans-Serif" font-size="10.00">/Brenda/src/ECS/components</text>
<text text-anchor="middle" x="977" y="-447" font-family="Helvetica,sans-Serif" font-size="10.00">/InfoBoxComponent.h</text>
</a>
</g>
</g>
<!-- Node1&#45;&gt;Node9 -->
<g id="edge10_Node000001_Node000009" class="edge">
<title>Node1&#45;&gt;Node9</title>
<g id="a_edge10_Node000001_Node000009"><a xlink:title=" ">
<path fill="none" stroke="#63b8ff" d="M542.24,-518.83C643.23,-505.52 803.43,-484.39 898.58,-471.84"/>
<polygon fill="#63b8ff" stroke="#63b8ff" points="541.51,-515.4 532.05,-520.18 542.43,-522.34 541.51,-515.4"/>
</a>
</g>
</g>
<!-- Node12 -->
<g id="Node000012" class="node">
<title>Node12</title>
<g id="a_Node000012"><a xlink:href="Movement_8h.html" target="_top" xlink:title=" ">
<polygon fill="white" stroke="#666666" points="248,-404 92,-404 92,-363 248,-363 248,-404"/>
<text text-anchor="start" x="100" y="-392" font-family="Helvetica,sans-Serif" font-size="10.00">/home/sean/Projects</text>
<text text-anchor="start" x="100" y="-381" font-family="Helvetica,sans-Serif" font-size="10.00">/Brenda/src/ECS/components</text>
<text text-anchor="middle" x="170" y="-370" font-family="Helvetica,sans-Serif" font-size="10.00">/Movement.h</text>
</a>
</g>
</g>
<!-- Node1&#45;&gt;Node12 -->
<g id="edge16_Node000001_Node000012" class="edge">
<title>Node1&#45;&gt;Node12</title>
<g id="a_edge16_Node000001_Node000012"><a xlink:title=" ">
<path fill="none" stroke="#63b8ff" d="M357.42,-524.12C292.24,-517.33 212.56,-504.44 189,-481 168.78,-460.89 166.86,-425.95 167.96,-404.09"/>
<polygon fill="#63b8ff" stroke="#63b8ff" points="357.45,-527.64 367.75,-525.16 358.15,-520.68 357.45,-527.64"/>
</a>
</g>
</g>
<!-- Node16 -->
<g id="Node000016" class="node">
<title>Node16</title>
<g id="a_Node000016"><a xlink:href="PositionComponent_8h.html" target="_top" xlink:title=" ">
<polygon fill="white" stroke="#666666" points="528,-481 372,-481 372,-440 528,-440 528,-481"/>
<text text-anchor="start" x="380" y="-469" font-family="Helvetica,sans-Serif" font-size="10.00">/home/sean/Projects</text>
<text text-anchor="start" x="380" y="-458" font-family="Helvetica,sans-Serif" font-size="10.00">/Brenda/src/ECS/components</text>
<text text-anchor="middle" x="450" y="-447" font-family="Helvetica,sans-Serif" font-size="10.00">/PositionComponent.h</text>
</a>
</g>
</g>
<!-- Node1&#45;&gt;Node16 -->
<g id="edge27_Node000001_Node000016" class="edge">
<title>Node1&#45;&gt;Node16</title>
<g id="a_edge27_Node000001_Node000016"><a xlink:title=" ">
<path fill="none" stroke="#63b8ff" d="M450,-506.91C450,-498.47 450,-489.1 450,-481.07"/>
<polygon fill="#63b8ff" stroke="#63b8ff" points="446.5,-506.94 450,-516.94 453.5,-506.94 446.5,-506.94"/>
</a>
</g>
</g>
<!-- Node19 -->
<g id="Node000019" class="node">
<title>Node19</title>
<g id="a_Node000019"><a xlink:href="ShapeRenderableComponent_8h.html" target="_top" xlink:title=" ">
<polygon fill="white" stroke="#666666" points="793,-481 623,-481 623,-440 793,-440 793,-481"/>
<text text-anchor="start" x="631" y="-469" font-family="Helvetica,sans-Serif" font-size="10.00">/home/sean/Projects</text>
<text text-anchor="start" x="631" y="-458" font-family="Helvetica,sans-Serif" font-size="10.00">/Brenda/src/ECS/components</text>
<text text-anchor="middle" x="708" y="-447" font-family="Helvetica,sans-Serif" font-size="10.00">/ShapeRenderableComponent.h</text>
</a>
</g>
</g>
<!-- Node1&#45;&gt;Node19 -->
<g id="edge38_Node000001_Node000019" class="edge">
<title>Node1&#45;&gt;Node19</title>
<g id="a_edge38_Node000001_Node000019"><a xlink:title=" ">
<path fill="none" stroke="#63b8ff" d="M511.9,-514.32C549.03,-504.32 596.44,-491.55 635.34,-481.07"/>
<polygon fill="#63b8ff" stroke="#63b8ff" points="510.96,-510.95 502.21,-516.94 512.78,-517.71 510.96,-510.95"/>
</a>
</g>
</g>
<!-- Node3 -->
<g id="Node000003" class="node">
<title>Node3</title>
<g id="a_Node000003"><a xlink:href="DescriptionComponentManager_8h.html" target="_top" xlink:title=" ">
<polygon fill="white" stroke="#666666" points="536,-327 384,-327 384,-286 536,-286 536,-327"/>
<text text-anchor="start" x="392" y="-315" font-family="Helvetica,sans-Serif" font-size="10.00">/home/sean/Projects</text>
<text text-anchor="start" x="392" y="-304" font-family="Helvetica,sans-Serif" font-size="10.00">/Brenda/src/ECS/Description</text>
<text text-anchor="middle" x="460" y="-293" font-family="Helvetica,sans-Serif" font-size="10.00">ComponentManager.h</text>
</a>
</g>
</g>
<!-- Node2&#45;&gt;Node3 -->
<g id="edge2_Node000002_Node000003" class="edge">
<title>Node2&#45;&gt;Node3</title>
<g id="a_edge2_Node000002_Node000003"><a xlink:title=" ">
<path fill="none" stroke="#63b8ff" d="M274.44,-429.6C274.96,-408.59 279.1,-381.11 295,-363 317.43,-337.45 352.01,-323.63 383.73,-316.18"/>
<polygon fill="#63b8ff" stroke="#63b8ff" points="270.94,-429.62 274.45,-439.61 277.94,-429.61 270.94,-429.62"/>
</a>
</g>
</g>
<!-- Node4 -->
<g id="Node000004" class="node">
<title>Node4</title>
<g id="a_Node000004"><a xlink:href="AISystem_8h.html" target="_top" xlink:title=" ">
<polygon fill="white" stroke="#666666" points="627,-244.5 497,-244.5 497,-214.5 627,-214.5 627,-244.5"/>
<text text-anchor="start" x="505" y="-232.5" font-family="Helvetica,sans-Serif" font-size="10.00">/home/sean/Projects</text>
<text text-anchor="middle" x="562" y="-221.5" font-family="Helvetica,sans-Serif" font-size="10.00">/Brenda/src/AISystem.h</text>
</a>
</g>
</g>
<!-- Node3&#45;&gt;Node4 -->
<g id="edge3_Node000003_Node000004" class="edge">
<title>Node3&#45;&gt;Node4</title>
<g id="a_edge3_Node000003_Node000004"><a xlink:title=" ">
<path fill="none" stroke="#63b8ff" d="M494.66,-280.01C510.71,-268.22 529.16,-254.65 542.69,-244.7"/>
<polygon fill="#63b8ff" stroke="#63b8ff" points="492.52,-277.25 486.53,-285.99 496.66,-282.89 492.52,-277.25"/>
</a>
</g>
</g>
<!-- Node7 -->
<g id="Node000007" class="node">
<title>Node7</title>
<g id="a_Node000007"><a xlink:href="Scene_8cpp.html" target="_top" xlink:title=" ">
<polygon fill="white" stroke="#666666" points="446,-30 322,-30 322,0 446,0 446,-30"/>
<text text-anchor="start" x="330" y="-18" font-family="Helvetica,sans-Serif" font-size="10.00">/home/sean/Projects</text>
<text text-anchor="middle" x="384" y="-7" font-family="Helvetica,sans-Serif" font-size="10.00">/Brenda/src/Scene.cpp</text>
</a>
</g>
</g>
<!-- Node3&#45;&gt;Node7 -->
<g id="edge6_Node000003_Node000007" class="edge">
<title>Node3&#45;&gt;Node7</title>
<g id="a_edge6_Node000003_Node000007"><a xlink:title=" ">
<path fill="none" stroke="#63b8ff" d="M451.7,-276.17C440.32,-235.73 419.43,-160.52 403,-96 397.15,-73.04 390.9,-46.22 387.22,-30.2"/>
<polygon fill="#63b8ff" stroke="#63b8ff" points="448.36,-277.24 454.44,-285.92 455.1,-275.34 448.36,-277.24"/>
</a>
</g>
</g>
<!-- Node8 -->
<g id="Node000008" class="node">
<title>Node8</title>
<g id="a_Node000008"><a xlink:href="Scene_8h.html" target="_top" xlink:title=" ">
<polygon fill="white" stroke="#666666" points="528,-96 412,-96 412,-66 528,-66 528,-96"/>
<text text-anchor="start" x="420" y="-84" font-family="Helvetica,sans-Serif" font-size="10.00">/home/sean/Projects</text>
<text text-anchor="middle" x="470" y="-73" font-family="Helvetica,sans-Serif" font-size="10.00">/Brenda/src/Scene.h</text>
</a>
</g>
</g>
<!-- Node3&#45;&gt;Node8 -->
<g id="edge7_Node000003_Node000008" class="edge">
<title>Node3&#45;&gt;Node8</title>
<g id="a_edge7_Node000003_Node000008"><a xlink:title=" ">
<path fill="none" stroke="#63b8ff" d="M461.35,-275.41C463.53,-226.56 467.77,-131.85 469.37,-96.11"/>
<polygon fill="#63b8ff" stroke="#63b8ff" points="457.84,-275.52 460.89,-285.67 464.83,-275.83 457.84,-275.52"/>
</a>
</g>
</g>
<!-- Node5 -->
<g id="Node000005" class="node">
<title>Node5</title>
<g id="a_Node000005"><a xlink:href="AISystem_8cpp.html" target="_top" xlink:title=" ">
<polygon fill="white" stroke="#666666" points="629.5,-167.5 488.5,-167.5 488.5,-137.5 629.5,-137.5 629.5,-167.5"/>
<text text-anchor="start" x="496.5" y="-155.5" font-family="Helvetica,sans-Serif" font-size="10.00">/home/sean/Projects</text>
<text text-anchor="middle" x="559" y="-144.5" font-family="Helvetica,sans-Serif" font-size="10.00">/Brenda/src/AISystem.cpp</text>
</a>
</g>
</g>
<!-- Node4&#45;&gt;Node5 -->
<g id="edge4_Node000004_Node000005" class="edge">
<title>Node4&#45;&gt;Node5</title>
<g id="a_edge4_Node000004_Node000005"><a xlink:title=" ">
<path fill="none" stroke="#63b8ff" d="M561.02,-204.04C560.54,-191.95 559.97,-177.79 559.56,-167.54"/>
<polygon fill="#63b8ff" stroke="#63b8ff" points="557.54,-204.54 561.44,-214.39 564.53,-204.26 557.54,-204.54"/>
</a>
</g>
</g>
<!-- Node6 -->
<g id="Node000006" class="node">
<title>Node6</title>
<g id="a_Node000006"><a xlink:href="main_8cpp.html" target="_top" xlink:title=" ">
<polygon fill="white" stroke="#666666" points="821.5,-30 702.5,-30 702.5,0 821.5,0 821.5,-30"/>
<text text-anchor="start" x="710.5" y="-18" font-family="Helvetica,sans-Serif" font-size="10.00">/home/sean/Projects</text>
<text text-anchor="middle" x="762" y="-7" font-family="Helvetica,sans-Serif" font-size="10.00">/Brenda/src/main.cpp</text>
</a>
</g>
</g>
<!-- Node4&#45;&gt;Node6 -->
<g id="edge5_Node000004_Node000006" class="edge">
<title>Node4&#45;&gt;Node6</title>
<g id="a_edge5_Node000004_Node000006"><a xlink:title=" ">
<path fill="none" stroke="#63b8ff" d="M593.55,-208.73C608.13,-198.87 625.22,-186.24 639,-173 687.94,-125.98 734.04,-58.93 752.96,-30.08"/>
<polygon fill="#63b8ff" stroke="#63b8ff" points="591.26,-206.05 584.85,-214.49 595.12,-211.88 591.26,-206.05"/>
</a>
</g>
</g>
<!-- Node8&#45;&gt;Node6 -->
<g id="edge9_Node000008_Node000006" class="edge">
<title>Node8&#45;&gt;Node6</title>
<g id="a_edge9_Node000008_Node000006"><a xlink:title=" ">
<path fill="none" stroke="#63b8ff" d="M538.07,-65.08C587.82,-54.18 654.64,-39.53 702.32,-29.08"/>
<polygon fill="#63b8ff" stroke="#63b8ff" points="537.06,-61.72 528.04,-67.28 538.56,-68.56 537.06,-61.72"/>
</a>
</g>
</g>
<!-- Node8&#45;&gt;Node7 -->
<g id="edge8_Node000008_Node000007" class="edge">
<title>Node8&#45;&gt;Node7</title>
<g id="a_edge8_Node000008_Node000007"><a xlink:title=" ">
<path fill="none" stroke="#63b8ff" d="M442.79,-59.75C429.86,-50.13 414.71,-38.86 403.03,-30.16"/>
<polygon fill="#63b8ff" stroke="#63b8ff" points="440.8,-62.63 450.91,-65.8 444.98,-57.02 440.8,-62.63"/>
</a>
</g>
</g>
<!-- Node10 -->
<g id="Node000010" class="node">
<title>Node10</title>
<g id="a_Node000010"><a xlink:href="InfoBoxManager_8h.html" target="_top" xlink:title=" ">
<polygon fill="white" stroke="#666666" points="1065.5,-321.5 880.5,-321.5 880.5,-291.5 1065.5,-291.5 1065.5,-321.5"/>
<text text-anchor="start" x="888.5" y="-309.5" font-family="Helvetica,sans-Serif" font-size="10.00">/home/sean/Projects</text>
<text text-anchor="middle" x="973" y="-298.5" font-family="Helvetica,sans-Serif" font-size="10.00">/Brenda/src/ECS/InfoBoxManager.h</text>
</a>
</g>
</g>
<!-- Node9&#45;&gt;Node10 -->
<g id="edge11_Node000009_Node000010" class="edge">
<title>Node9&#45;&gt;Node10</title>
<g id="a_edge11_Node000009_Node000010"><a xlink:title=" ">
<path fill="none" stroke="#63b8ff" d="M1021.79,-433.78C1031.93,-425.65 1041.36,-415.68 1047,-404 1054.93,-387.59 1055.15,-379.3 1047,-363 1037.88,-344.76 1019.6,-330.96 1003.49,-321.68"/>
<polygon fill="#63b8ff" stroke="#63b8ff" points="1019.49,-431.13 1013.57,-439.91 1023.68,-436.74 1019.49,-431.13"/>
</a>
</g>
</g>
<!-- Node10&#45;&gt;Node4 -->
<g id="edge12_Node000010_Node000004" class="edge">
<title>Node10&#45;&gt;Node4</title>
<g id="a_edge12_Node000010_Node000004"><a xlink:title=" ">
<path fill="none" stroke="#63b8ff" d="M890.13,-289.58C883.66,-288.36 877.22,-287.15 871,-286 786.86,-270.4 689.71,-253.06 627.14,-241.98"/>
<polygon fill="#63b8ff" stroke="#63b8ff" points="889.83,-293.08 900.3,-291.5 891.13,-286.2 889.83,-293.08"/>
</a>
</g>
</g>
<!-- Node10&#45;&gt;Node6 -->
<g id="edge15_Node000010_Node000006" class="edge">
<title>Node10&#45;&gt;Node6</title>
<g id="a_edge15_Node000010_Node000006"><a xlink:title=" ">
<path fill="none" stroke="#63b8ff" d="M1018.09,-286.67C1033.26,-277.89 1048.49,-265.83 1057,-250 1065.63,-233.95 1065.67,-225.03 1057,-209 1003.73,-110.48 875.87,-54.19 807.29,-30.1"/>
<polygon fill="#63b8ff" stroke="#63b8ff" points="1016.35,-283.63 1009.21,-291.46 1019.68,-289.79 1016.35,-283.63"/>
</a>
</g>
</g>
<!-- Node10&#45;&gt;Node7 -->
<g id="edge14_Node000010_Node000007" class="edge">
<title>Node10&#45;&gt;Node7</title>
<g id="a_edge14_Node000010_Node000007"><a xlink:title=" ">
<path fill="none" stroke="#63b8ff" d="M917.73,-288C893.52,-278.84 865.55,-266.14 843,-250 785.67,-208.97 796.01,-170.57 737,-132 658.64,-80.79 625.93,-95.2 537,-66 499.96,-53.84 457.86,-40.08 427.21,-30.08"/>
<polygon fill="#63b8ff" stroke="#63b8ff" points="916.56,-291.3 927.16,-291.46 918.98,-284.73 916.56,-291.3"/>
</a>
</g>
</g>
<!-- Node11 -->
<g id="Node000011" class="node">
<title>Node11</title>
<g id="a_Node000011"><a xlink:href="InfoBoxManager_8cpp.html" target="_top" xlink:title=" ">
<polygon fill="white" stroke="#666666" points="1048,-244.5 852,-244.5 852,-214.5 1048,-214.5 1048,-244.5"/>
<text text-anchor="start" x="860" y="-232.5" font-family="Helvetica,sans-Serif" font-size="10.00">/home/sean/Projects</text>
<text text-anchor="middle" x="950" y="-221.5" font-family="Helvetica,sans-Serif" font-size="10.00">/Brenda/src/ECS/InfoBoxManager.cpp</text>
</a>
</g>
</g>
<!-- Node10&#45;&gt;Node11 -->
<g id="edge13_Node000010_Node000011" class="edge">
<title>Node10&#45;&gt;Node11</title>
<g id="a_edge13_Node000010_Node000011"><a xlink:title=" ">
<path fill="none" stroke="#63b8ff" d="M965.73,-281.78C961.97,-269.53 957.51,-255 954.31,-244.54"/>
<polygon fill="#63b8ff" stroke="#63b8ff" points="962.4,-282.86 968.67,-291.39 969.09,-280.81 962.4,-282.86"/>
</a>
</g>
</g>
<!-- Node13 -->
<g id="Node000013" class="node">
<title>Node13</title>
<g id="a_Node000013"><a xlink:href="MovementManager_8h.html" target="_top" xlink:title=" ">
<polygon fill="white" stroke="#666666" points="328,-321.5 128,-321.5 128,-291.5 328,-291.5 328,-321.5"/>
<text text-anchor="start" x="136" y="-309.5" font-family="Helvetica,sans-Serif" font-size="10.00">/home/sean/Projects</text>
<text text-anchor="middle" x="228" y="-298.5" font-family="Helvetica,sans-Serif" font-size="10.00">/Brenda/src/ECS/MovementManager.h</text>
</a>
</g>
</g>
<!-- Node12&#45;&gt;Node13 -->
<g id="edge17_Node000012_Node000013" class="edge">
<title>Node12&#45;&gt;Node13</title>
<g id="a_edge17_Node000012_Node000013"><a xlink:title=" ">
<path fill="none" stroke="#63b8ff" d="M191.58,-354.59C200.19,-343.46 209.74,-331.12 216.89,-321.86"/>
<polygon fill="#63b8ff" stroke="#63b8ff" points="188.59,-352.74 185.24,-362.79 194.13,-357.03 188.59,-352.74"/>
</a>
</g>
</g>
<!-- Node15 -->
<g id="Node000015" class="node">
<title>Node15</title>
<g id="a_Node000015"><a xlink:href="PlayerController_8h.html" target="_top" xlink:title=" ">
<polygon fill="white" stroke="#666666" points="156,-250 0,-250 0,-209 156,-209 156,-250"/>
<text text-anchor="start" x="8" y="-238" font-family="Helvetica,sans-Serif" font-size="10.00">/home/sean/Projects</text>
<text text-anchor="start" x="8" y="-227" font-family="Helvetica,sans-Serif" font-size="10.00">/Brenda/src/ECS/components</text>
<text text-anchor="middle" x="78" y="-216" font-family="Helvetica,sans-Serif" font-size="10.00">/PlayerController.h</text>
</a>
</g>
</g>
<!-- Node12&#45;&gt;Node15 -->
<g id="edge26_Node000012_Node000015" class="edge">
<title>Node12&#45;&gt;Node15</title>
<g id="a_edge26_Node000012_Node000015"><a xlink:title=" ">
<path fill="none" stroke="#63b8ff" d="M116.14,-357.31C104.35,-349.28 93.24,-339.22 86,-327 72.03,-303.42 72.61,-270.75 74.87,-250.12"/>
<polygon fill="#63b8ff" stroke="#63b8ff" points="114.48,-360.4 124.8,-362.8 118.23,-354.49 114.48,-360.4"/>
</a>
</g>
</g>
<!-- Node13&#45;&gt;Node4 -->
<g id="edge18_Node000013_Node000004" class="edge">
<title>Node13&#45;&gt;Node4</title>
<g id="a_edge18_Node000013_Node000004"><a xlink:title=" ">
<path fill="none" stroke="#63b8ff" d="M300.49,-289.22C359.91,-275.88 443.11,-257.2 499.59,-244.51"/>
<polygon fill="#63b8ff" stroke="#63b8ff" points="299.42,-285.88 290.43,-291.48 300.95,-292.7 299.42,-285.88"/>
</a>
</g>
</g>
<!-- Node13&#45;&gt;Node7 -->
<g id="edge24_Node000013_Node000007" class="edge">
<title>Node13&#45;&gt;Node7</title>
<g id="a_edge24_Node000013_Node000007"><a xlink:title=" ">
<path fill="none" stroke="#63b8ff" d="M216.05,-282.07C200.04,-247.14 176.55,-180.36 203,-132 231.92,-79.11 296.39,-46.79 340.04,-30.13"/>
<polygon fill="#63b8ff" stroke="#63b8ff" points="213.05,-283.91 220.51,-291.43 219.37,-280.9 213.05,-283.91"/>
</a>
</g>
</g>
<!-- Node13&#45;&gt;Node8 -->
<g id="edge25_Node000013_Node000008" class="edge">
<title>Node13&#45;&gt;Node8</title>
<g id="a_edge25_Node000013_Node000008"><a xlink:title=" ">
<path fill="none" stroke="#63b8ff" d="M251.07,-284.2C300.06,-238.95 413.37,-134.3 454.62,-96.2"/>
<polygon fill="#63b8ff" stroke="#63b8ff" points="248.48,-281.82 243.51,-291.18 253.23,-286.97 248.48,-281.82"/>
</a>
</g>
</g>
<!-- Node14 -->
<g id="Node000014" class="node">
<title>Node14</title>
<g id="a_Node000014"><a xlink:href="ControllerManager_8h.html" target="_top" xlink:title=" ">
<polygon fill="white" stroke="#666666" points="356,-173 212,-173 212,-132 356,-132 356,-173"/>
<text text-anchor="start" x="220" y="-161" font-family="Helvetica,sans-Serif" font-size="10.00">/home/sean/Projects</text>
<text text-anchor="start" x="220" y="-150" font-family="Helvetica,sans-Serif" font-size="10.00">/Brenda/src/ECS/Controller</text>
<text text-anchor="middle" x="284" y="-139" font-family="Helvetica,sans-Serif" font-size="10.00">Manager.h</text>
</a>
</g>
</g>
<!-- Node13&#45;&gt;Node14 -->
<g id="edge19_Node000013_Node000014" class="edge">
<title>Node13&#45;&gt;Node14</title>
<g id="a_edge19_Node000013_Node000014"><a xlink:title=" ">
<path fill="none" stroke="#63b8ff" d="M236.71,-281.85C247.73,-251.96 266.48,-201.05 276.75,-173.18"/>
<polygon fill="#63b8ff" stroke="#63b8ff" points="233.34,-280.88 233.17,-291.47 239.91,-283.3 233.34,-280.88"/>
</a>
</g>
</g>
<!-- Node13&#45;&gt;Node15 -->
<g id="edge22_Node000013_Node000015" class="edge">
<title>Node13&#45;&gt;Node15</title>
<g id="a_edge22_Node000013_Node000015"><a xlink:title=" ">
<path fill="none" stroke="#63b8ff" d="M190.6,-286.8C168.21,-275.61 139.81,-261.4 117.12,-250.06"/>
<polygon fill="#63b8ff" stroke="#63b8ff" points="189.28,-290.05 199.79,-291.39 192.41,-283.79 189.28,-290.05"/>
</a>
</g>
</g>
<!-- Node14&#45;&gt;Node7 -->
<g id="edge20_Node000014_Node000007" class="edge">
<title>Node14&#45;&gt;Node7</title>
<g id="a_edge20_Node000014_Node000007"><a xlink:title=" ">
<path fill="none" stroke="#63b8ff" d="M304.67,-123.5C325.6,-95.14 357.14,-52.4 373.43,-30.33"/>
<polygon fill="#63b8ff" stroke="#63b8ff" points="301.66,-121.67 298.54,-131.8 307.3,-125.83 301.66,-121.67"/>
</a>
</g>
</g>
<!-- Node14&#45;&gt;Node8 -->
<g id="edge21_Node000014_Node000008" class="edge">
<title>Node14&#45;&gt;Node8</title>
<g id="a_edge21_Node000014_Node000008"><a xlink:title=" ">
<path fill="none" stroke="#63b8ff" d="M345.85,-128.39C374.53,-117.67 407.69,-105.28 432.52,-96"/>
<polygon fill="#63b8ff" stroke="#63b8ff" points="344.45,-125.18 336.31,-131.96 346.9,-131.73 344.45,-125.18"/>
</a>
</g>
</g>
<!-- Node15&#45;&gt;Node14 -->
<g id="edge23_Node000015_Node000014" class="edge">
<title>Node15&#45;&gt;Node14</title>
<g id="a_edge23_Node000015_Node000014"><a xlink:title=" ">
<path fill="none" stroke="#63b8ff" d="M141.07,-205.54C169.61,-195.15 203,-182.99 230.32,-173.04"/>
<polygon fill="#63b8ff" stroke="#63b8ff" points="139.79,-202.28 131.59,-208.99 142.18,-208.86 139.79,-202.28"/>
</a>
</g>
</g>
<!-- Node17 -->
<g id="Node000017" class="node">
<title>Node17</title>
<g id="a_Node000017"><a xlink:href="PositionManager_8h.html" target="_top" xlink:title=" ">
<polygon fill="white" stroke="#666666" points="490,-398.5 304,-398.5 304,-368.5 490,-368.5 490,-398.5"/>
<text text-anchor="start" x="312" y="-386.5" font-family="Helvetica,sans-Serif" font-size="10.00">/home/sean/Projects</text>
<text text-anchor="middle" x="397" y="-375.5" font-family="Helvetica,sans-Serif" font-size="10.00">/Brenda/src/ECS/PositionManager.h</text>
</a>
</g>
</g>
<!-- Node16&#45;&gt;Node17 -->
<g id="edge28_Node000016_Node000017" class="edge">
<title>Node16&#45;&gt;Node17</title>
<g id="a_edge28_Node000016_Node000017"><a xlink:title=" ">
<path fill="none" stroke="#63b8ff" d="M430.28,-431.59C422.41,-420.46 413.69,-408.12 407.15,-398.86"/>
<polygon fill="#63b8ff" stroke="#63b8ff" points="427.45,-433.65 436.07,-439.79 433.16,-429.61 427.45,-433.65"/>
</a>
</g>
</g>
<!-- Node17&#45;&gt;Node4 -->
<g id="edge29_Node000017_Node000004" class="edge">
<title>Node17&#45;&gt;Node4</title>
<g id="a_edge29_Node000017_Node000004"><a xlink:title=" ">
<path fill="none" stroke="#63b8ff" d="M487.66,-365.03C509.24,-356.82 530.26,-344.74 545,-327 564.57,-303.45 565.02,-265.31 563.57,-244.74"/>
<polygon fill="#63b8ff" stroke="#63b8ff" points="486.32,-361.8 478.06,-368.43 488.65,-368.4 486.32,-361.8"/>
</a>
</g>
</g>
<!-- Node17&#45;&gt;Node8 -->
<g id="edge37_Node000017_Node000008" class="edge">
<title>Node17&#45;&gt;Node8</title>
<g id="a_edge37_Node000017_Node000008"><a xlink:title=" ">
<path fill="none" stroke="#63b8ff" d="M477.22,-365.63C506.97,-357.05 540.01,-344.6 567,-327 605.49,-301.9 618.75,-292.59 636,-250 655.69,-201.37 670.4,-174.03 639,-132 625.5,-113.92 571.45,-100.08 528.06,-91.59"/>
<polygon fill="#63b8ff" stroke="#63b8ff" points="475.97,-362.35 467.27,-368.4 477.84,-369.09 475.97,-362.35"/>
</a>
</g>
</g>
<!-- Node17&#45;&gt;Node10 -->
<g id="edge31_Node000017_Node000010" class="edge">
<title>Node17&#45;&gt;Node10</title>
<g id="a_edge31_Node000017_Node000010"><a xlink:title=" ">
<path fill="none" stroke="#63b8ff" d="M475.65,-366.71C483.52,-365.36 491.41,-364.09 499,-363 663.42,-339.38 706.58,-350.62 871,-327 881.8,-325.45 893.19,-323.54 904.29,-321.53"/>
<polygon fill="#63b8ff" stroke="#63b8ff" points="474.95,-363.28 465.71,-368.47 476.17,-370.17 474.95,-363.28"/>
</a>
</g>
</g>
<!-- Node17&#45;&gt;Node13 -->
<g id="edge32_Node000017_Node000013" class="edge">
<title>Node17&#45;&gt;Node13</title>
<g id="a_edge32_Node000017_Node000013"><a xlink:title=" ">
<path fill="none" stroke="#63b8ff" d="M355.96,-364.29C326.32,-351.13 286.87,-333.62 259.65,-321.54"/>
<polygon fill="#63b8ff" stroke="#63b8ff" points="354.65,-367.54 365.21,-368.39 357.49,-361.14 354.65,-367.54"/>
</a>
</g>
</g>
<!-- Node17&#45;&gt;Node14 -->
<g id="edge30_Node000017_Node000014" class="edge">
<title>Node17&#45;&gt;Node14</title>
<g id="a_edge30_Node000017_Node000014"><a xlink:title=" ">
<path fill="none" stroke="#63b8ff" d="M385.47,-359.13C363.17,-313.93 314.49,-215.28 293.71,-173.18"/>
<polygon fill="#63b8ff" stroke="#63b8ff" points="382.37,-360.76 389.93,-368.18 388.64,-357.66 382.37,-360.76"/>
</a>
</g>
</g>
<!-- Node17&#45;&gt;Node15 -->
<g id="edge36_Node000017_Node000015" class="edge">
<title>Node17&#45;&gt;Node15</title>
<g id="a_edge36_Node000017_Node000015"><a xlink:title=" ">
<path fill="none" stroke="#63b8ff" d="M294.68,-366.82C221.26,-354.77 132.92,-338.33 119,-327 95.28,-307.7 85.04,-272.17 80.79,-250.03"/>
<polygon fill="#63b8ff" stroke="#63b8ff" points="294.49,-370.33 304.93,-368.49 295.62,-363.42 294.49,-370.33"/>
</a>
</g>
</g>
<!-- Node18 -->
<g id="Node000018" class="node">
<title>Node18</title>
<g id="a_Node000018"><a xlink:href="RenderableManager_8h.html" target="_top" xlink:title=" ">
<polygon fill="white" stroke="#666666" points="862,-327 710,-327 710,-286 862,-286 862,-327"/>
<text text-anchor="start" x="718" y="-315" font-family="Helvetica,sans-Serif" font-size="10.00">/home/sean/Projects</text>
<text text-anchor="start" x="718" y="-304" font-family="Helvetica,sans-Serif" font-size="10.00">/Brenda/src/ECS/Renderable</text>
<text text-anchor="middle" x="786" y="-293" font-family="Helvetica,sans-Serif" font-size="10.00">Manager.h</text>
</a>
</g>
</g>
<!-- Node17&#45;&gt;Node18 -->
<g id="edge33_Node000017_Node000018" class="edge">
<title>Node17&#45;&gt;Node18</title>
<g id="a_edge33_Node000017_Node000018"><a xlink:title=" ">
<path fill="none" stroke="#63b8ff" d="M480.05,-366.56C486.46,-365.35 492.84,-364.15 499,-363 586.49,-346.64 608.72,-344.43 696,-327 700.55,-326.09 705.22,-325.14 709.93,-324.16"/>
<polygon fill="#63b8ff" stroke="#63b8ff" points="479.15,-363.17 469.98,-368.47 480.45,-370.05 479.15,-363.17"/>
</a>
</g>
</g>
<!-- Node18&#45;&gt;Node6 -->
<g id="edge35_Node000018_Node000006" class="edge">
<title>Node18&#45;&gt;Node6</title>
<g id="a_edge35_Node000018_Node000006"><a xlink:title=" ">
<path fill="none" stroke="#63b8ff" d="M783.5,-275.36C778.39,-213.7 766.9,-75.15 763.19,-30.3"/>
<polygon fill="#63b8ff" stroke="#63b8ff" points="780.04,-275.92 784.35,-285.6 787.01,-275.35 780.04,-275.92"/>
</a>
</g>
</g>
<!-- Node18&#45;&gt;Node8 -->
<g id="edge34_Node000018_Node000008" class="edge">
<title>Node18&#45;&gt;Node8</title>
<g id="a_edge34_Node000018_Node000008"><a xlink:title=" ">
<path fill="none" stroke="#63b8ff" d="M776.85,-276.35C762.38,-232.08 733.45,-151.03 710,-132 682.61,-109.78 590.08,-95.37 528.24,-87.97"/>
<polygon fill="#63b8ff" stroke="#63b8ff" points="773.55,-277.54 779.96,-285.98 780.22,-275.39 773.55,-277.54"/>
</a>
</g>
</g>
<!-- Node20 -->
<g id="Node000020" class="node">
<title>Node20</title>
<g id="a_Node000020"><a xlink:href="Circle_8h.html" target="_top" xlink:title=" ">
<polygon fill="white" stroke="#666666" points="1038,-404 882,-404 882,-363 1038,-363 1038,-404"/>
<text text-anchor="start" x="890" y="-392" font-family="Helvetica,sans-Serif" font-size="10.00">/home/sean/Projects</text>
<text text-anchor="start" x="890" y="-381" font-family="Helvetica,sans-Serif" font-size="10.00">/Brenda/src/ECS/components</text>
<text text-anchor="middle" x="960" y="-370" font-family="Helvetica,sans-Serif" font-size="10.00">/Circle.h</text>
</a>
</g>
</g>
<!-- Node19&#45;&gt;Node20 -->
<g id="edge39_Node000019_Node000020" class="edge">
<title>Node19&#45;&gt;Node20</title>
<g id="a_edge39_Node000019_Node000020"><a xlink:title=" ">
<path fill="none" stroke="#63b8ff" d="M783.33,-437.08C818.65,-426.57 860.33,-414.16 894.34,-404.04"/>
<polygon fill="#63b8ff" stroke="#63b8ff" points="782.14,-433.78 773.55,-439.99 784.14,-440.49 782.14,-433.78"/>
</a>
</g>
</g>
<!-- Node21 -->
<g id="Node000021" class="node">
<title>Node21</title>
<g id="a_Node000021"><a xlink:href="ShapeRenderableComponent_8cpp.html" target="_top" xlink:title=" ">
<polygon fill="white" stroke="#666666" points="690,-404 508,-404 508,-363 690,-363 690,-404"/>
<text text-anchor="start" x="516" y="-392" font-family="Helvetica,sans-Serif" font-size="10.00">/home/sean/Projects</text>
<text text-anchor="start" x="516" y="-381" font-family="Helvetica,sans-Serif" font-size="10.00">/Brenda/src/ECS/components</text>
<text text-anchor="middle" x="599" y="-370" font-family="Helvetica,sans-Serif" font-size="10.00">/ShapeRenderableComponent.cpp</text>
</a>
</g>
</g>
<!-- Node19&#45;&gt;Node21 -->
<g id="edge41_Node000019_Node000021" class="edge">
<title>Node19&#45;&gt;Node21</title>
<g id="a_edge41_Node000019_Node000021"><a xlink:title=" ">
<path fill="none" stroke="#63b8ff" d="M671.07,-434.09C656.87,-424.32 640.89,-413.32 627.59,-404.17"/>
<polygon fill="#63b8ff" stroke="#63b8ff" points="669.42,-437.21 679.65,-439.99 673.39,-431.44 669.42,-437.21"/>
</a>
</g>
</g>
<!-- Node22 -->
<g id="Node000022" class="node">
<title>Node22</title>
<g id="a_Node000022"><a xlink:href="Square_8h.html" target="_top" xlink:title=" ">
<polygon fill="white" stroke="#666666" points="864,-404 708,-404 708,-363 864,-363 864,-404"/>
<text text-anchor="start" x="716" y="-392" font-family="Helvetica,sans-Serif" font-size="10.00">/home/sean/Projects</text>
<text text-anchor="start" x="716" y="-381" font-family="Helvetica,sans-Serif" font-size="10.00">/Brenda/src/ECS/components</text>
<text text-anchor="middle" x="786" y="-370" font-family="Helvetica,sans-Serif" font-size="10.00">/Square.h</text>
</a>
</g>
</g>
<!-- Node19&#45;&gt;Node22 -->
<g id="edge42_Node000019_Node000022" class="edge">
<title>Node19&#45;&gt;Node22</title>
<g id="a_edge42_Node000019_Node000022"><a xlink:title=" ">
<path fill="none" stroke="#63b8ff" d="M735.78,-432.79C745.63,-423.32 756.53,-412.84 765.64,-404.07"/>
<polygon fill="#63b8ff" stroke="#63b8ff" points="733.28,-430.34 728.49,-439.79 738.13,-435.39 733.28,-430.34"/>
</a>
</g>
</g>
<!-- Node20&#45;&gt;Node18 -->
<g id="edge40_Node000020_Node000018" class="edge">
<title>Node20&#45;&gt;Node18</title>
<g id="a_edge40_Node000020_Node000018"><a xlink:title=" ">
<path fill="none" stroke="#63b8ff" d="M905.47,-359C881.64,-348.72 854.02,-336.82 831.34,-327.04"/>
<polygon fill="#63b8ff" stroke="#63b8ff" points="904.17,-362.25 914.74,-362.99 906.94,-355.82 904.17,-362.25"/>
</a>
</g>
</g>
<!-- Node22&#45;&gt;Node18 -->
<g id="edge43_Node000022_Node000018" class="edge">
<title>Node22&#45;&gt;Node18</title>
<g id="a_edge43_Node000022_Node000018"><a xlink:title=" ">
<path fill="none" stroke="#63b8ff" d="M786,-352.69C786,-344.08 786,-334.9 786,-327.07"/>
<polygon fill="#63b8ff" stroke="#63b8ff" points="782.5,-352.79 786,-362.79 789.5,-352.79 782.5,-352.79"/>
</a>
</g>
</g>
</g>
</svg>

<g id="navigator" transform="translate(0 0)" fill="#404254">
  <rect fill="#f2f5e9" fill-opacity="0.5" stroke="#606060" stroke-width=".5" x="0" y="0" width="60" height="60"/>
  <use id="zoomplus" xlink:href="#zoomPlus" x="17" y="9" onmousedown="handleZoom(evt,'in')"/>
  <use id="zoomminus" xlink:href="#zoomMin" x="42" y="9" onmousedown="handleZoom(evt,'out')"/>
  <use id="reset" xlink:href="#resetDef" x="30" y="36" onmousedown="handleReset()"/>
   <use id="arrowup" xlink:href="#arrowUp" x="0" y="0" onmousedown="handlePan(0,-1)"/>
  <use id="arrowright" xlink:href="#arrowRight" x="0" y="0" onmousedown="handlePan(1,0)"/>
  <use id="arrowdown" xlink:href="#arrowDown" x="0" y="0" onmousedown="handlePan(0,1)"/>
  <use id="arrowleft" xlink:href="#arrowLeft" x="0" y="0" onmousedown="handlePan(-1,0)"/>
</g>
<svg viewBox="0 0 15 15" width="100%" height="30px" preserveAspectRatio="xMaxYMin meet">
 <g id="arrow_out" transform="scale(0.3 0.3)">
  <a xlink:href="IComponent_8h__dep__incl_org.svg" target="_base">
   <rect id="button" ry="5" rx="5" y="6" x="6" height="38" width="38"
        fill="#f2f5e9" fill-opacity="0.5" stroke="#606060" stroke-width="1.0"/>
   <path id="arrow"
     d="M 11.500037,31.436501 C 11.940474,20.09759 22.043105,11.32322 32.158766,21.979434 L 37.068811,17.246167 C 37.068811,17.246167 37.088388,32 37.088388,32 L 22.160133,31.978069 C 22.160133,31.978069 26.997745,27.140456 26.997745,27.140456 C 18.528582,18.264221 13.291696,25.230495 11.500037,31.436501 z"
     style="fill:#404040;"/>
  </a>
 </g>
</svg>

<style type='text/css'>
<![CDATA[
[data-mouse-over-selected='false'] { opacity: 0.7; }
[data-mouse-over-selected='true']  { opacity: 1.0; }
]]>
</style>
<script type="application/ecmascript"><![CDATA[
document.addEventListener('DOMContentLoaded', (event) => {
  highlightEdges();
  highlightAdjacentNodes();
});
]]></script>
</svg>
