<?xml version="1.0" encoding="UTF-8" standalone="no"?>
<!DOCTYPE svg PUBLIC "-//W3C//DTD SVG 1.1//EN"
 "http://www.w3.org/Graphics/SVG/1.1/DTD/svg11.dtd">
<!-- Generated by graphviz version 2.43.0 (0)
 -->
<!-- Title: /home/sean/Projects/Brenda/src/ECS/InfoBoxManager.h Pages: 1 -->
<svg width="834pt" height="203pt"
 viewBox="0.00 0.00 834.00 203.00" xmlns="http://www.w3.org/2000/svg" xmlns:xlink="http://www.w3.org/1999/xlink">
<g id="graph0" class="graph" transform="scale(1 1) rotate(0) translate(4 199)">
<title>/home/sean/Projects/Brenda/src/ECS/InfoBoxManager.h</title>
<!-- Node1 -->
<g id="Node000001" class="node">
<title>Node1</title>
<g id="a_Node000001"><a xlink:title=" ">
<polygon fill="#999999" stroke="#666666" points="617.5,-195 432.5,-195 432.5,-165 617.5,-165 617.5,-195"/>
<text text-anchor="start" x="440.5" y="-183" font-family="Helvetica,sans-Serif" font-size="10.00">/home/sean/Projects</text>
<text text-anchor="middle" x="525" y="-172" font-family="Helvetica,sans-Serif" font-size="10.00">/Brenda/src/ECS/InfoBoxManager.h</text>
</a>
</g>
</g>
<!-- Node2 -->
<g id="Node000002" class="node">
<title>Node2</title>
<g id="a_Node000002"><a xlink:href="IComponentManager_8h.html" target="_top" xlink:title=" ">
<polygon fill="white" stroke="#666666" points="227.5,-74 100.5,-74 100.5,-55 227.5,-55 227.5,-74"/>
<text text-anchor="middle" x="164" y="-62" font-family="Helvetica,sans-Serif" font-size="10.00">IComponentManager.h</text>
</a>
</g>
</g>
<!-- Node1&#45;&gt;Node2 -->
<g id="edge1_Node000001_Node000002" class="edge">
<title>Node1&#45;&gt;Node2</title>
<g id="a_edge1_Node000001_Node000002"><a xlink:title=" ">
<path fill="none" stroke="#63b8ff" d="M480.37,-164.97C408.42,-142.35 268.09,-98.23 201.2,-77.2"/>
<polygon fill="#63b8ff" stroke="#63b8ff" points="202.08,-73.81 191.5,-74.14 199.99,-80.48 202.08,-73.81"/>
</a>
</g>
</g>
<!-- Node3 -->
<g id="Node000003" class="node">
<title>Node3</title>
<g id="a_Node000003"><a xlink:href="InfoBoxComponent_8h.html" target="_top" xlink:title=" ">
<polygon fill="white" stroke="#666666" points="238,-129 50,-129 50,-110 238,-110 238,-129"/>
<text text-anchor="middle" x="144" y="-117" font-family="Helvetica,sans-Serif" font-size="10.00">./components/InfoBoxComponent.h</text>
</a>
</g>
</g>
<!-- Node1&#45;&gt;Node3 -->
<g id="edge2_Node000001_Node000003" class="edge">
<title>Node1&#45;&gt;Node3</title>
<g id="a_edge2_Node000001_Node000003"><a xlink:title=" ">
<path fill="none" stroke="#63b8ff" d="M433.74,-164.99C364.61,-154.37 271.29,-140.04 209.45,-130.55"/>
<polygon fill="#63b8ff" stroke="#63b8ff" points="209.85,-127.07 199.43,-129.01 208.78,-133.99 209.85,-127.07"/>
</a>
</g>
</g>
<!-- Node4 -->
<g id="Node000004" class="node">
<title>Node4</title>
<g id="a_Node000004"><a xlink:title=" ">
<polygon fill="#e0e0e0" stroke="#999999" points="44,-74 0,-74 0,-55 44,-55 44,-74"/>
<text text-anchor="middle" x="22" y="-62" font-family="Helvetica,sans-Serif" font-size="10.00">string</text>
</a>
</g>
</g>
<!-- Node1&#45;&gt;Node4 -->
<g id="edge15_Node000001_Node000004" class="edge">
<title>Node1&#45;&gt;Node4</title>
<g id="a_edge15_Node000001_Node000004"><a xlink:title=" ">
<path fill="none" stroke="#63b8ff" d="M432.3,-174.92C300.2,-168.28 70.44,-153.38 41,-129 27.99,-118.23 23.65,-98.94 22.32,-84.44"/>
<polygon fill="#63b8ff" stroke="#63b8ff" points="25.8,-83.89 21.79,-74.09 18.81,-84.25 25.8,-83.89"/>
</a>
</g>
</g>
<!-- Node6 -->
<g id="Node000006" class="node">
<title>Node6</title>
<g id="a_Node000006"><a xlink:href="PositionManager_8h.html" target="_top" xlink:title=" ">
<polygon fill="white" stroke="#666666" points="537.5,-129 430.5,-129 430.5,-110 537.5,-110 537.5,-129"/>
<text text-anchor="middle" x="484" y="-117" font-family="Helvetica,sans-Serif" font-size="10.00">PositionManager.h</text>
</a>
</g>
</g>
<!-- Node1&#45;&gt;Node6 -->
<g id="edge5_Node000001_Node000006" class="edge">
<title>Node1&#45;&gt;Node6</title>
<g id="a_edge5_Node000001_Node000006"><a xlink:title=" ">
<path fill="none" stroke="#63b8ff" d="M515.08,-164.84C509.31,-156.61 502,-146.18 495.92,-137.51"/>
<polygon fill="#63b8ff" stroke="#63b8ff" points="498.75,-135.45 490.14,-129.27 493.02,-139.46 498.75,-135.45"/>
</a>
</g>
</g>
<!-- Node10 -->
<g id="Node000010" class="node">
<title>Node10</title>
<g id="a_Node000010"><a xlink:title=" ">
<polygon fill="#e0e0e0" stroke="#999999" points="696.5,-74 603.5,-74 603.5,-55 696.5,-55 696.5,-74"/>
<text text-anchor="middle" x="650" y="-62" font-family="Helvetica,sans-Serif" font-size="10.00">unordered_map</text>
</a>
</g>
</g>
<!-- Node1&#45;&gt;Node10 -->
<g id="edge14_Node000001_Node000010" class="edge">
<title>Node1&#45;&gt;Node10</title>
<g id="a_edge14_Node000001_Node000010"><a xlink:title=" ">
<path fill="none" stroke="#63b8ff" d="M537.03,-164.82C549.59,-150.36 570.2,-127.6 590,-110 602.2,-99.15 616.92,-88.21 628.72,-79.89"/>
<polygon fill="#63b8ff" stroke="#63b8ff" points="630.87,-82.66 637.09,-74.09 626.88,-76.91 630.87,-82.66"/>
</a>
</g>
</g>
<!-- Node11 -->
<g id="Node000011" class="node">
<title>Node11</title>
<g id="a_Node000011"><a xlink:title=" ">
<polygon fill="#e0e0e0" stroke="#999999" points="773,-74 715,-74 715,-55 773,-55 773,-74"/>
<text text-anchor="middle" x="744" y="-62" font-family="Helvetica,sans-Serif" font-size="10.00">memory</text>
</a>
</g>
</g>
<!-- Node1&#45;&gt;Node11 -->
<g id="edge16_Node000001_Node000011" class="edge">
<title>Node1&#45;&gt;Node11</title>
<g id="a_edge16_Node000001_Node000011"><a xlink:title=" ">
<path fill="none" stroke="#63b8ff" d="M542.16,-164.81C561.06,-149.71 592.78,-125.85 623,-110 649.31,-96.21 680.86,-84.75 705.15,-76.92"/>
<polygon fill="#63b8ff" stroke="#63b8ff" points="706.25,-80.24 714.74,-73.9 704.15,-73.57 706.25,-80.24"/>
</a>
</g>
</g>
<!-- Node13 -->
<g id="Node000013" class="node">
<title>Node13</title>
<g id="a_Node000013"><a xlink:title=" ">
<polygon fill="#e0e0e0" stroke="#999999" points="704,-129 632,-129 632,-110 704,-110 704,-129"/>
<text text-anchor="middle" x="668" y="-117" font-family="Helvetica,sans-Serif" font-size="10.00">SDL3/SDL.h</text>
</a>
</g>
</g>
<!-- Node1&#45;&gt;Node13 -->
<g id="edge17_Node000001_Node000013" class="edge">
<title>Node1&#45;&gt;Node13</title>
<g id="a_edge17_Node000001_Node000013"><a xlink:title=" ">
<path fill="none" stroke="#63b8ff" d="M559.25,-164.99C583.11,-155.23 614.65,-142.33 637.61,-132.93"/>
<polygon fill="#63b8ff" stroke="#63b8ff" points="638.95,-136.17 646.88,-129.14 636.3,-129.69 638.95,-136.17"/>
</a>
</g>
</g>
<!-- Node14 -->
<g id="Node000014" class="node">
<title>Node14</title>
<g id="a_Node000014"><a xlink:title=" ">
<polygon fill="#e0e0e0" stroke="#999999" points="826,-129 722,-129 722,-110 826,-110 826,-129"/>
<text text-anchor="middle" x="774" y="-117" font-family="Helvetica,sans-Serif" font-size="10.00">SDL3_ttf/SDL_ttf.h</text>
</a>
</g>
</g>
<!-- Node1&#45;&gt;Node14 -->
<g id="edge18_Node000001_Node000014" class="edge">
<title>Node1&#45;&gt;Node14</title>
<g id="a_edge18_Node000001_Node000014"><a xlink:title=" ">
<path fill="none" stroke="#63b8ff" d="M584.64,-164.99C628.54,-154.67 687.37,-140.85 727.75,-131.37"/>
<polygon fill="#63b8ff" stroke="#63b8ff" points="728.66,-134.75 737.59,-129.05 727.06,-127.93 728.66,-134.75"/>
</a>
</g>
</g>
<!-- Node3&#45;&gt;Node4 -->
<g id="edge3_Node000003_Node000004" class="edge">
<title>Node3&#45;&gt;Node4</title>
<g id="a_edge3_Node000003_Node000004"><a xlink:title=" ">
<path fill="none" stroke="#63b8ff" d="M124.4,-109.98C104.68,-101.42 74.05,-88.11 51.42,-78.28"/>
<polygon fill="#63b8ff" stroke="#63b8ff" points="52.52,-74.94 41.96,-74.17 49.74,-81.37 52.52,-74.94"/>
</a>
</g>
</g>
<!-- Node5 -->
<g id="Node000005" class="node">
<title>Node5</title>
<g id="a_Node000005"><a xlink:href="IComponent_8h.html" target="_top" xlink:title=" ">
<polygon fill="white" stroke="#666666" points="254,-19 160,-19 160,0 254,0 254,-19"/>
<text text-anchor="middle" x="207" y="-7" font-family="Helvetica,sans-Serif" font-size="10.00">../IComponent.h</text>
</a>
</g>
</g>
<!-- Node3&#45;&gt;Node5 -->
<g id="edge4_Node000003_Node000005" class="edge">
<title>Node3&#45;&gt;Node5</title>
<g id="a_edge4_Node000003_Node000005"><a xlink:title=" ">
<path fill="none" stroke="#63b8ff" d="M127.51,-109.87C107.1,-98.03 76.68,-75.83 91,-55 104.46,-35.41 127.83,-24.44 150.08,-18.3"/>
<polygon fill="#63b8ff" stroke="#63b8ff" points="150.98,-21.68 159.85,-15.88 149.3,-14.89 150.98,-21.68"/>
</a>
</g>
</g>
<!-- Node6&#45;&gt;Node2 -->
<g id="edge10_Node000006_Node000002" class="edge">
<title>Node6&#45;&gt;Node2</title>
<g id="a_edge10_Node000006_Node000002"><a xlink:title=" ">
<path fill="none" stroke="#63b8ff" d="M432.59,-109.98C376.22,-100.65 285.81,-85.67 225.67,-75.71"/>
<polygon fill="#63b8ff" stroke="#63b8ff" points="225.99,-72.22 215.55,-74.04 224.84,-79.13 225.99,-72.22"/>
</a>
</g>
</g>
<!-- Node7 -->
<g id="Node000007" class="node">
<title>Node7</title>
<g id="a_Node000007"><a xlink:href="Entity_8h.html" target="_top" xlink:title=" ">
<polygon fill="white" stroke="#666666" points="585.5,-74 532.5,-74 532.5,-55 585.5,-55 585.5,-74"/>
<text text-anchor="middle" x="559" y="-62" font-family="Helvetica,sans-Serif" font-size="10.00">Entity.h</text>
</a>
</g>
</g>
<!-- Node6&#45;&gt;Node7 -->
<g id="edge6_Node000006_Node000007" class="edge">
<title>Node6&#45;&gt;Node7</title>
<g id="a_edge6_Node000006_Node000007"><a xlink:title=" ">
<path fill="none" stroke="#63b8ff" d="M496.05,-109.98C507.46,-101.92 524.83,-89.65 538.43,-80.03"/>
<polygon fill="#63b8ff" stroke="#63b8ff" points="540.58,-82.8 546.73,-74.17 536.54,-77.08 540.58,-82.8"/>
</a>
</g>
</g>
<!-- Node9 -->
<g id="Node000009" class="node">
<title>Node9</title>
<g id="a_Node000009"><a xlink:href="PositionComponent_8h.html" target="_top" xlink:title=" ">
<polygon fill="white" stroke="#666666" points="436,-74 246,-74 246,-55 436,-55 436,-74"/>
<text text-anchor="middle" x="341" y="-62" font-family="Helvetica,sans-Serif" font-size="10.00">./components/PositionComponent.h</text>
</a>
</g>
</g>
<!-- Node6&#45;&gt;Node9 -->
<g id="edge8_Node000006_Node000009" class="edge">
<title>Node6&#45;&gt;Node9</title>
<g id="a_edge8_Node000006_Node000009"><a xlink:title=" ">
<path fill="none" stroke="#63b8ff" d="M461.02,-109.98C437.5,-101.27 400.71,-87.63 374.06,-77.75"/>
<polygon fill="#63b8ff" stroke="#63b8ff" points="374.99,-74.36 364.39,-74.17 372.55,-80.93 374.99,-74.36"/>
</a>
</g>
</g>
<!-- Node6&#45;&gt;Node10 -->
<g id="edge11_Node000006_Node000010" class="edge">
<title>Node6&#45;&gt;Node10</title>
<g id="a_edge11_Node000006_Node000010"><a xlink:title=" ">
<path fill="none" stroke="#63b8ff" d="M510.67,-109.98C538.54,-101.09 582.45,-87.07 613.52,-77.15"/>
<polygon fill="#63b8ff" stroke="#63b8ff" points="614.66,-80.46 623.12,-74.08 612.53,-73.79 614.66,-80.46"/>
</a>
</g>
</g>
<!-- Node6&#45;&gt;Node11 -->
<g id="edge12_Node000006_Node000011" class="edge">
<title>Node6&#45;&gt;Node11</title>
<g id="a_edge12_Node000006_Node000011"><a xlink:title=" ">
<path fill="none" stroke="#63b8ff" d="M528.29,-109.92C571.03,-101.58 637.84,-88.36 705.05,-74.16"/>
<polygon fill="#63b8ff" stroke="#63b8ff" points="705.91,-77.56 714.97,-72.06 704.46,-70.71 705.91,-77.56"/>
</a>
</g>
</g>
<!-- Node12 -->
<g id="Node000012" class="node">
<title>Node12</title>
<g id="a_Node000012"><a xlink:title=" ">
<polygon fill="#e0e0e0" stroke="#999999" points="514,-74 454,-74 454,-55 514,-55 514,-74"/>
<text text-anchor="middle" x="484" y="-62" font-family="Helvetica,sans-Serif" font-size="10.00">iostream</text>
</a>
</g>
</g>
<!-- Node6&#45;&gt;Node12 -->
<g id="edge13_Node000006_Node000012" class="edge">
<title>Node6&#45;&gt;Node12</title>
<g id="a_edge13_Node000006_Node000012"><a xlink:title=" ">
<path fill="none" stroke="#63b8ff" d="M484,-109.75C484,-102.8 484,-92.85 484,-84.13"/>
<polygon fill="#63b8ff" stroke="#63b8ff" points="487.5,-84.09 484,-74.09 480.5,-84.09 487.5,-84.09"/>
</a>
</g>
</g>
<!-- Node8 -->
<g id="Node000008" class="node">
<title>Node8</title>
<g id="a_Node000008"><a xlink:title=" ">
<polygon fill="#e0e0e0" stroke="#999999" points="584,-19 534,-19 534,0 584,0 584,-19"/>
<text text-anchor="middle" x="559" y="-7" font-family="Helvetica,sans-Serif" font-size="10.00">cstdint</text>
</a>
</g>
</g>
<!-- Node7&#45;&gt;Node8 -->
<g id="edge7_Node000007_Node000008" class="edge">
<title>Node7&#45;&gt;Node8</title>
<g id="a_edge7_Node000007_Node000008"><a xlink:title=" ">
<path fill="none" stroke="#63b8ff" d="M559,-54.75C559,-47.8 559,-37.85 559,-29.13"/>
<polygon fill="#63b8ff" stroke="#63b8ff" points="562.5,-29.09 559,-19.09 555.5,-29.09 562.5,-29.09"/>
</a>
</g>
</g>
<!-- Node9&#45;&gt;Node5 -->
<g id="edge9_Node000009_Node000005" class="edge">
<title>Node9&#45;&gt;Node5</title>
<g id="a_edge9_Node000009_Node000005"><a xlink:title=" ">
<path fill="none" stroke="#63b8ff" d="M319.47,-54.98C297.53,-46.3 263.26,-32.75 238.31,-22.88"/>
<polygon fill="#63b8ff" stroke="#63b8ff" points="239.51,-19.59 228.92,-19.17 236.93,-26.1 239.51,-19.59"/>
</a>
</g>
</g>
</g>
</svg>
