<?xml version="1.0" encoding="UTF-8" standalone="no"?>
<!DOCTYPE svg PUBLIC "-//W3C//DTD SVG 1.1//EN"
 "http://www.w3.org/Graphics/SVG/1.1/DTD/svg11.dtd">
<!-- Generated by graphviz version 2.43.0 (0)
 -->
<!-- Title: /home/sean/Projects/Brenda/src/ECS/InfoBoxManager.cpp Pages: 1 -->
<svg width="919pt" height="258pt"
 viewBox="0.00 0.00 918.50 258.00" xmlns="http://www.w3.org/2000/svg" xmlns:xlink="http://www.w3.org/1999/xlink">
<g id="graph0" class="graph" transform="scale(1 1) rotate(0) translate(4 254)">
<title>/home/sean/Projects/Brenda/src/ECS/InfoBoxManager.cpp</title>
<!-- Node1 -->
<g id="Node000001" class="node">
<title>Node1</title>
<g id="a_Node000001"><a xlink:title=" ">
<polygon fill="#999999" stroke="#666666" points="887,-250 691,-250 691,-220 887,-220 887,-250"/>
<text text-anchor="start" x="699" y="-238" font-family="Helvetica,sans-Serif" font-size="10.00">/home/sean/Projects</text>
<text text-anchor="middle" x="789" y="-227" font-family="Helvetica,sans-Serif" font-size="10.00">/Brenda/src/ECS/InfoBoxManager.cpp</text>
</a>
</g>
</g>
<!-- Node2 -->
<g id="Node000002" class="node">
<title>Node2</title>
<g id="a_Node000002"><a xlink:href="InfoBoxManager_8h.html" target="_top" xlink:title=" ">
<polygon fill="white" stroke="#666666" points="492.5,-184 387.5,-184 387.5,-165 492.5,-165 492.5,-184"/>
<text text-anchor="middle" x="440" y="-172" font-family="Helvetica,sans-Serif" font-size="10.00">InfoBoxManager.h</text>
</a>
</g>
</g>
<!-- Node1&#45;&gt;Node2 -->
<g id="edge1_Node000001_Node000002" class="edge">
<title>Node1&#45;&gt;Node2</title>
<g id="a_edge1_Node000001_Node000002"><a xlink:title=" ">
<path fill="none" stroke="#63b8ff" d="M705.41,-219.99C642.34,-209.42 557.3,-195.16 500.66,-185.67"/>
<polygon fill="#63b8ff" stroke="#63b8ff" points="501.22,-182.21 490.77,-184.01 500.06,-189.12 501.22,-182.21"/>
</a>
</g>
</g>
<!-- Node13 -->
<g id="Node000013" class="node">
<title>Node13</title>
<g id="a_Node000013"><a xlink:title=" ">
<polygon fill="#e0e0e0" stroke="#999999" points="808,-74 748,-74 748,-55 808,-55 808,-74"/>
<text text-anchor="middle" x="778" y="-62" font-family="Helvetica,sans-Serif" font-size="10.00">iostream</text>
</a>
</g>
</g>
<!-- Node1&#45;&gt;Node13 -->
<g id="edge20_Node000001_Node000013" class="edge">
<title>Node1&#45;&gt;Node13</title>
<g id="a_edge20_Node000001_Node000013"><a xlink:title=" ">
<path fill="none" stroke="#63b8ff" d="M785.78,-219.65C783.71,-209.7 781.18,-196.11 780,-184 776.57,-148.96 776.83,-107.83 777.38,-84.4"/>
<polygon fill="#63b8ff" stroke="#63b8ff" points="780.89,-84.25 777.67,-74.15 773.89,-84.05 780.89,-84.25"/>
</a>
</g>
</g>
<!-- Node16 -->
<g id="Node000016" class="node">
<title>Node16</title>
<g id="a_Node000016"><a xlink:title=" ">
<polygon fill="#e0e0e0" stroke="#999999" points="845,-184 789,-184 789,-165 845,-165 845,-184"/>
<text text-anchor="middle" x="817" y="-172" font-family="Helvetica,sans-Serif" font-size="10.00">sstream</text>
</a>
</g>
</g>
<!-- Node1&#45;&gt;Node16 -->
<g id="edge21_Node000001_Node000016" class="edge">
<title>Node1&#45;&gt;Node16</title>
<g id="a_edge21_Node000001_Node000016"><a xlink:title=" ">
<path fill="none" stroke="#63b8ff" d="M795.78,-219.84C799.59,-211.87 804.39,-201.84 808.46,-193.33"/>
<polygon fill="#63b8ff" stroke="#63b8ff" points="811.64,-194.8 812.8,-184.27 805.33,-191.77 811.64,-194.8"/>
</a>
</g>
</g>
<!-- Node17 -->
<g id="Node000017" class="node">
<title>Node17</title>
<g id="a_Node000017"><a xlink:title=" ">
<polygon fill="#e0e0e0" stroke="#999999" points="910.5,-184 863.5,-184 863.5,-165 910.5,-165 910.5,-184"/>
<text text-anchor="middle" x="887" y="-172" font-family="Helvetica,sans-Serif" font-size="10.00">vector</text>
</a>
</g>
</g>
<!-- Node1&#45;&gt;Node17 -->
<g id="edge22_Node000001_Node000017" class="edge">
<title>Node1&#45;&gt;Node17</title>
<g id="a_edge22_Node000001_Node000017"><a xlink:title=" ">
<path fill="none" stroke="#63b8ff" d="M812.72,-219.84C828.2,-210.6 848.32,-198.59 863.71,-189.4"/>
<polygon fill="#63b8ff" stroke="#63b8ff" points="865.81,-192.23 872.6,-184.09 862.22,-186.21 865.81,-192.23"/>
</a>
</g>
</g>
<!-- Node3 -->
<g id="Node000003" class="node">
<title>Node3</title>
<g id="a_Node000003"><a xlink:href="IComponentManager_8h.html" target="_top" xlink:title=" ">
<polygon fill="white" stroke="#666666" points="729.5,-74 602.5,-74 602.5,-55 729.5,-55 729.5,-74"/>
<text text-anchor="middle" x="666" y="-62" font-family="Helvetica,sans-Serif" font-size="10.00">IComponentManager.h</text>
</a>
</g>
</g>
<!-- Node2&#45;&gt;Node3 -->
<g id="edge2_Node000002_Node000003" class="edge">
<title>Node2&#45;&gt;Node3</title>
<g id="a_edge2_Node000002_Node000003"><a xlink:title=" ">
<path fill="none" stroke="#63b8ff" d="M492.67,-170.91C553.73,-166.67 648.83,-155.85 671,-129 681.32,-116.5 678.18,-97.49 673.61,-83.52"/>
<polygon fill="#63b8ff" stroke="#63b8ff" points="676.83,-82.15 670.04,-74.02 670.28,-84.61 676.83,-82.15"/>
</a>
</g>
</g>
<!-- Node4 -->
<g id="Node000004" class="node">
<title>Node4</title>
<g id="a_Node000004"><a xlink:href="InfoBoxComponent_8h.html" target="_top" xlink:title=" ">
<polygon fill="white" stroke="#666666" points="188,-129 0,-129 0,-110 188,-110 188,-129"/>
<text text-anchor="middle" x="94" y="-117" font-family="Helvetica,sans-Serif" font-size="10.00">./components/InfoBoxComponent.h</text>
</a>
</g>
</g>
<!-- Node2&#45;&gt;Node4 -->
<g id="edge3_Node000002_Node000004" class="edge">
<title>Node2&#45;&gt;Node4</title>
<g id="a_edge3_Node000002_Node000004"><a xlink:title=" ">
<path fill="none" stroke="#63b8ff" d="M387.45,-165.45C326.4,-156.1 225.63,-140.66 159.52,-130.54"/>
<polygon fill="#63b8ff" stroke="#63b8ff" points="160.04,-127.08 149.63,-129.02 158.98,-133.99 160.04,-127.08"/>
</a>
</g>
</g>
<!-- Node5 -->
<g id="Node000005" class="node">
<title>Node5</title>
<g id="a_Node000005"><a xlink:title=" ">
<polygon fill="#e0e0e0" stroke="#999999" points="116,-74 72,-74 72,-55 116,-55 116,-74"/>
<text text-anchor="middle" x="94" y="-62" font-family="Helvetica,sans-Serif" font-size="10.00">string</text>
</a>
</g>
</g>
<!-- Node2&#45;&gt;Node5 -->
<g id="edge16_Node000002_Node000005" class="edge">
<title>Node2&#45;&gt;Node5</title>
<g id="a_edge16_Node000002_Node000005"><a xlink:title=" ">
<path fill="none" stroke="#63b8ff" d="M396.05,-164.94C357.84,-157.05 301.2,-144.27 253,-129 206.21,-114.18 153.63,-92.06 122.19,-78.22"/>
<polygon fill="#63b8ff" stroke="#63b8ff" points="123.32,-74.89 112.76,-74.04 120.49,-81.29 123.32,-74.89"/>
</a>
</g>
</g>
<!-- Node7 -->
<g id="Node000007" class="node">
<title>Node7</title>
<g id="a_Node000007"><a xlink:href="PositionManager_8h.html" target="_top" xlink:title=" ">
<polygon fill="white" stroke="#666666" points="411.5,-129 304.5,-129 304.5,-110 411.5,-110 411.5,-129"/>
<text text-anchor="middle" x="358" y="-117" font-family="Helvetica,sans-Serif" font-size="10.00">PositionManager.h</text>
</a>
</g>
</g>
<!-- Node2&#45;&gt;Node7 -->
<g id="edge6_Node000002_Node000007" class="edge">
<title>Node2&#45;&gt;Node7</title>
<g id="a_edge6_Node000002_Node000007"><a xlink:title=" ">
<path fill="none" stroke="#63b8ff" d="M426.83,-164.98C414.23,-156.84 395,-144.41 380.06,-134.76"/>
<polygon fill="#63b8ff" stroke="#63b8ff" points="381.71,-131.66 371.41,-129.17 377.91,-137.54 381.71,-131.66"/>
</a>
</g>
</g>
<!-- Node11 -->
<g id="Node000011" class="node">
<title>Node11</title>
<g id="a_Node000011"><a xlink:title=" ">
<polygon fill="#e0e0e0" stroke="#999999" points="227.5,-74 134.5,-74 134.5,-55 227.5,-55 227.5,-74"/>
<text text-anchor="middle" x="181" y="-62" font-family="Helvetica,sans-Serif" font-size="10.00">unordered_map</text>
</a>
</g>
</g>
<!-- Node2&#45;&gt;Node11 -->
<g id="edge15_Node000002_Node000011" class="edge">
<title>Node2&#45;&gt;Node11</title>
<g id="a_edge15_Node000002_Node000011"><a xlink:title=" ">
<path fill="none" stroke="#63b8ff" d="M404.99,-164.97C375.16,-157.19 331.46,-144.54 295,-129 261.63,-114.77 225.4,-93.5 202.95,-79.56"/>
<polygon fill="#63b8ff" stroke="#63b8ff" points="204.55,-76.43 194.22,-74.08 200.83,-82.36 204.55,-76.43"/>
</a>
</g>
</g>
<!-- Node12 -->
<g id="Node000012" class="node">
<title>Node12</title>
<g id="a_Node000012"><a xlink:title=" ">
<polygon fill="#e0e0e0" stroke="#999999" points="584,-74 526,-74 526,-55 584,-55 584,-74"/>
<text text-anchor="middle" x="555" y="-62" font-family="Helvetica,sans-Serif" font-size="10.00">memory</text>
</a>
</g>
</g>
<!-- Node2&#45;&gt;Node12 -->
<g id="edge17_Node000002_Node000012" class="edge">
<title>Node2&#45;&gt;Node12</title>
<g id="a_edge17_Node000002_Node000012"><a xlink:title=" ">
<path fill="none" stroke="#63b8ff" d="M440.41,-164.62C441.47,-151.25 445.29,-125.83 459,-110 473.81,-92.89 496.6,-81.95 516.26,-75.19"/>
<polygon fill="#63b8ff" stroke="#63b8ff" points="517.43,-78.49 525.9,-72.12 515.31,-71.82 517.43,-78.49"/>
</a>
</g>
</g>
<!-- Node14 -->
<g id="Node000014" class="node">
<title>Node14</title>
<g id="a_Node000014"><a xlink:title=" ">
<polygon fill="#e0e0e0" stroke="#999999" points="540,-129 468,-129 468,-110 540,-110 540,-129"/>
<text text-anchor="middle" x="504" y="-117" font-family="Helvetica,sans-Serif" font-size="10.00">SDL3/SDL.h</text>
</a>
</g>
</g>
<!-- Node2&#45;&gt;Node14 -->
<g id="edge18_Node000002_Node000014" class="edge">
<title>Node2&#45;&gt;Node14</title>
<g id="a_edge18_Node000002_Node000014"><a xlink:title=" ">
<path fill="none" stroke="#63b8ff" d="M450.28,-164.98C459.84,-157.07 474.28,-145.11 485.78,-135.58"/>
<polygon fill="#63b8ff" stroke="#63b8ff" points="488.06,-138.24 493.53,-129.17 483.6,-132.85 488.06,-138.24"/>
</a>
</g>
</g>
<!-- Node15 -->
<g id="Node000015" class="node">
<title>Node15</title>
<g id="a_Node000015"><a xlink:title=" ">
<polygon fill="#e0e0e0" stroke="#999999" points="662,-129 558,-129 558,-110 662,-110 662,-129"/>
<text text-anchor="middle" x="610" y="-117" font-family="Helvetica,sans-Serif" font-size="10.00">SDL3_ttf/SDL_ttf.h</text>
</a>
</g>
</g>
<!-- Node2&#45;&gt;Node15 -->
<g id="edge19_Node000002_Node000015" class="edge">
<title>Node2&#45;&gt;Node15</title>
<g id="a_edge19_Node000002_Node000015"><a xlink:title=" ">
<path fill="none" stroke="#63b8ff" d="M467.31,-164.98C495.85,-156.09 540.83,-142.07 572.64,-132.15"/>
<polygon fill="#63b8ff" stroke="#63b8ff" points="573.97,-135.4 582.47,-129.08 571.88,-128.72 573.97,-135.4"/>
</a>
</g>
</g>
<!-- Node4&#45;&gt;Node5 -->
<g id="edge4_Node000004_Node000005" class="edge">
<title>Node4&#45;&gt;Node5</title>
<g id="a_edge4_Node000004_Node000005"><a xlink:title=" ">
<path fill="none" stroke="#63b8ff" d="M94,-109.75C94,-102.8 94,-92.85 94,-84.13"/>
<polygon fill="#63b8ff" stroke="#63b8ff" points="97.5,-84.09 94,-74.09 90.5,-84.09 97.5,-84.09"/>
</a>
</g>
</g>
<!-- Node6 -->
<g id="Node000006" class="node">
<title>Node6</title>
<g id="a_Node000006"><a xlink:href="IComponent_8h.html" target="_top" xlink:title=" ">
<polygon fill="white" stroke="#666666" points="240,-19 146,-19 146,0 240,0 240,-19"/>
<text text-anchor="middle" x="193" y="-7" font-family="Helvetica,sans-Serif" font-size="10.00">../IComponent.h</text>
</a>
</g>
</g>
<!-- Node4&#45;&gt;Node6 -->
<g id="edge5_Node000004_Node000006" class="edge">
<title>Node4&#45;&gt;Node6</title>
<g id="a_edge5_Node000004_Node000006"><a xlink:title=" ">
<path fill="none" stroke="#63b8ff" d="M84.03,-109.78C70.7,-97.06 50.16,-72.97 63,-55 79.6,-31.77 109.1,-20.53 135.81,-15.15"/>
<polygon fill="#63b8ff" stroke="#63b8ff" points="136.64,-18.56 145.88,-13.37 135.42,-11.67 136.64,-18.56"/>
</a>
</g>
</g>
<!-- Node7&#45;&gt;Node3 -->
<g id="edge11_Node000007_Node000003" class="edge">
<title>Node7&#45;&gt;Node3</title>
<g id="a_edge11_Node000007_Node000003"><a xlink:title=" ">
<path fill="none" stroke="#63b8ff" d="M407.49,-109.98C461.63,-100.67 548.4,-85.74 606.28,-75.78"/>
<polygon fill="#63b8ff" stroke="#63b8ff" points="607.12,-79.18 616.38,-74.04 605.93,-72.28 607.12,-79.18"/>
</a>
</g>
</g>
<!-- Node8 -->
<g id="Node000008" class="node">
<title>Node8</title>
<g id="a_Node000008"><a xlink:href="Entity_8h.html" target="_top" xlink:title=" ">
<polygon fill="white" stroke="#666666" points="507.5,-74 454.5,-74 454.5,-55 507.5,-55 507.5,-74"/>
<text text-anchor="middle" x="481" y="-62" font-family="Helvetica,sans-Serif" font-size="10.00">Entity.h</text>
</a>
</g>
</g>
<!-- Node7&#45;&gt;Node8 -->
<g id="edge7_Node000007_Node000008" class="edge">
<title>Node7&#45;&gt;Node8</title>
<g id="a_edge7_Node000007_Node000008"><a xlink:title=" ">
<path fill="none" stroke="#63b8ff" d="M377.76,-109.98C397.73,-101.38 428.8,-87.99 451.65,-78.15"/>
<polygon fill="#63b8ff" stroke="#63b8ff" points="453.08,-81.34 460.88,-74.17 450.31,-74.91 453.08,-81.34"/>
</a>
</g>
</g>
<!-- Node10 -->
<g id="Node000010" class="node">
<title>Node10</title>
<g id="a_Node000010"><a xlink:href="PositionComponent_8h.html" target="_top" xlink:title=" ">
<polygon fill="white" stroke="#666666" points="436,-74 246,-74 246,-55 436,-55 436,-74"/>
<text text-anchor="middle" x="341" y="-62" font-family="Helvetica,sans-Serif" font-size="10.00">./components/PositionComponent.h</text>
</a>
</g>
</g>
<!-- Node7&#45;&gt;Node10 -->
<g id="edge9_Node000007_Node000010" class="edge">
<title>Node7&#45;&gt;Node10</title>
<g id="a_edge9_Node000007_Node000010"><a xlink:title=" ">
<path fill="none" stroke="#63b8ff" d="M355.19,-109.75C352.94,-102.72 349.7,-92.62 346.88,-83.84"/>
<polygon fill="#63b8ff" stroke="#63b8ff" points="350.14,-82.54 343.75,-74.09 343.48,-84.68 350.14,-82.54"/>
</a>
</g>
</g>
<!-- Node7&#45;&gt;Node11 -->
<g id="edge12_Node000007_Node000011" class="edge">
<title>Node7&#45;&gt;Node11</title>
<g id="a_edge12_Node000007_Node000011"><a xlink:title=" ">
<path fill="none" stroke="#63b8ff" d="M329.56,-109.98C299.72,-101.05 252.62,-86.94 219.47,-77.02"/>
<polygon fill="#63b8ff" stroke="#63b8ff" points="220.24,-73.6 209.66,-74.08 218.24,-80.3 220.24,-73.6"/>
</a>
</g>
</g>
<!-- Node7&#45;&gt;Node12 -->
<g id="edge13_Node000007_Node000012" class="edge">
<title>Node7&#45;&gt;Node12</title>
<g id="a_edge13_Node000007_Node000012"><a xlink:title=" ">
<path fill="none" stroke="#63b8ff" d="M389.65,-109.98C424.05,-100.73 479.04,-85.94 516.06,-75.98"/>
<polygon fill="#63b8ff" stroke="#63b8ff" points="517.25,-79.28 525.99,-73.3 515.43,-72.52 517.25,-79.28"/>
</a>
</g>
</g>
<!-- Node7&#45;&gt;Node13 -->
<g id="edge14_Node000007_Node000013" class="edge">
<title>Node7&#45;&gt;Node13</title>
<g id="a_edge14_Node000007_Node000013"><a xlink:title=" ">
<path fill="none" stroke="#63b8ff" d="M411.71,-113.79C485.52,-106.97 622.32,-93.02 738,-74 738.1,-73.98 738.2,-73.97 738.3,-73.95"/>
<polygon fill="#63b8ff" stroke="#63b8ff" points="738.7,-77.43 747.92,-72.21 737.45,-70.55 738.7,-77.43"/>
</a>
</g>
</g>
<!-- Node9 -->
<g id="Node000009" class="node">
<title>Node9</title>
<g id="a_Node000009"><a xlink:title=" ">
<polygon fill="#e0e0e0" stroke="#999999" points="506,-19 456,-19 456,0 506,0 506,-19"/>
<text text-anchor="middle" x="481" y="-7" font-family="Helvetica,sans-Serif" font-size="10.00">cstdint</text>
</a>
</g>
</g>
<!-- Node8&#45;&gt;Node9 -->
<g id="edge8_Node000008_Node000009" class="edge">
<title>Node8&#45;&gt;Node9</title>
<g id="a_edge8_Node000008_Node000009"><a xlink:title=" ">
<path fill="none" stroke="#63b8ff" d="M481,-54.75C481,-47.8 481,-37.85 481,-29.13"/>
<polygon fill="#63b8ff" stroke="#63b8ff" points="484.5,-29.09 481,-19.09 477.5,-29.09 484.5,-29.09"/>
</a>
</g>
</g>
<!-- Node10&#45;&gt;Node6 -->
<g id="edge10_Node000010_Node000006" class="edge">
<title>Node10&#45;&gt;Node6</title>
<g id="a_edge10_Node000010_Node000006"><a xlink:title=" ">
<path fill="none" stroke="#63b8ff" d="M317.22,-54.98C292.77,-46.23 254.47,-32.51 226.85,-22.62"/>
<polygon fill="#63b8ff" stroke="#63b8ff" points="227.81,-19.25 217.21,-19.17 225.45,-25.84 227.81,-19.25"/>
</a>
</g>
</g>
</g>
</svg>
