<?xml version="1.0" encoding="UTF-8" standalone="no"?>
<!DOCTYPE svg PUBLIC "-//W3C//DTD SVG 1.1//EN"
 "http://www.w3.org/Graphics/SVG/1.1/DTD/svg11.dtd">
<!-- Generated by graphviz version 2.43.0 (0)
 -->
<!-- Title: /home/sean/Projects/Brenda/src/ECS/components/InfoBoxComponent.h Pages: 1 -->
<svg width="593pt" height="247pt"
 viewBox="0.00 0.00 592.50 247.00" xmlns="http://www.w3.org/2000/svg" xmlns:xlink="http://www.w3.org/1999/xlink">
<g id="graph0" class="graph" transform="scale(1 1) rotate(0) translate(4 243)">
<title>/home/sean/Projects/Brenda/src/ECS/components/InfoBoxComponent.h</title>
<!-- Node1 -->
<g id="Node000001" class="node">
<title>Node1</title>
<g id="a_Node000001"><a xlink:title=" ">
<polygon fill="#999999" stroke="#666666" points="359.5,-239 203.5,-239 203.5,-198 359.5,-198 359.5,-239"/>
<text text-anchor="start" x="211.5" y="-227" font-family="Helvetica,sans-Serif" font-size="10.00">/home/sean/Projects</text>
<text text-anchor="start" x="211.5" y="-216" font-family="Helvetica,sans-Serif" font-size="10.00">/Brenda/src/ECS/components</text>
<text text-anchor="middle" x="281.5" y="-205" font-family="Helvetica,sans-Serif" font-size="10.00">/InfoBoxComponent.h</text>
</a>
</g>
</g>
<!-- Node2 -->
<g id="Node000002" class="node">
<title>Node2</title>
<g id="a_Node000002"><a xlink:href="InfoBoxManager_8h.html" target="_top" xlink:title=" ">
<polygon fill="white" stroke="#666666" points="374,-162 189,-162 189,-132 374,-132 374,-162"/>
<text text-anchor="start" x="197" y="-150" font-family="Helvetica,sans-Serif" font-size="10.00">/home/sean/Projects</text>
<text text-anchor="middle" x="281.5" y="-139" font-family="Helvetica,sans-Serif" font-size="10.00">/Brenda/src/ECS/InfoBoxManager.h</text>
</a>
</g>
</g>
<!-- Node1&#45;&gt;Node2 -->
<g id="edge1_Node000001_Node000002" class="edge">
<title>Node1&#45;&gt;Node2</title>
<g id="a_edge1_Node000001_Node000002"><a xlink:title=" ">
<path fill="none" stroke="#63b8ff" d="M281.5,-187.66C281.5,-178.76 281.5,-169.42 281.5,-162.04"/>
<polygon fill="#63b8ff" stroke="#63b8ff" points="278,-187.77 281.5,-197.77 285,-187.77 278,-187.77"/>
</a>
</g>
</g>
<!-- Node3 -->
<g id="Node000003" class="node">
<title>Node3</title>
<g id="a_Node000003"><a xlink:href="AISystem_8h.html" target="_top" xlink:title=" ">
<polygon fill="white" stroke="#666666" points="190.5,-96 60.5,-96 60.5,-66 190.5,-66 190.5,-96"/>
<text text-anchor="start" x="68.5" y="-84" font-family="Helvetica,sans-Serif" font-size="10.00">/home/sean/Projects</text>
<text text-anchor="middle" x="125.5" y="-73" font-family="Helvetica,sans-Serif" font-size="10.00">/Brenda/src/AISystem.h</text>
</a>
</g>
</g>
<!-- Node2&#45;&gt;Node3 -->
<g id="edge2_Node000002_Node000003" class="edge">
<title>Node2&#45;&gt;Node3</title>
<g id="a_edge2_Node000002_Node000003"><a xlink:title=" ">
<path fill="none" stroke="#63b8ff" d="M237.76,-128.05C213.04,-117.91 182.6,-105.43 159.66,-96.01"/>
<polygon fill="#63b8ff" stroke="#63b8ff" points="236.68,-131.4 247.27,-131.95 239.34,-124.92 236.68,-131.4"/>
</a>
</g>
</g>
<!-- Node5 -->
<g id="Node000005" class="node">
<title>Node5</title>
<g id="a_Node000005"><a xlink:href="main_8cpp.html" target="_top" xlink:title=" ">
<polygon fill="white" stroke="#666666" points="278,-30 159,-30 159,0 278,0 278,-30"/>
<text text-anchor="start" x="167" y="-18" font-family="Helvetica,sans-Serif" font-size="10.00">/home/sean/Projects</text>
<text text-anchor="middle" x="218.5" y="-7" font-family="Helvetica,sans-Serif" font-size="10.00">/Brenda/src/main.cpp</text>
</a>
</g>
</g>
<!-- Node2&#45;&gt;Node5 -->
<g id="edge7_Node000002_Node000005" class="edge">
<title>Node2&#45;&gt;Node5</title>
<g id="a_edge7_Node000002_Node000005"><a xlink:title=" ">
<path fill="none" stroke="#63b8ff" d="M258.32,-124.38C250.69,-116.15 242.81,-106.27 237.5,-96 226.41,-74.57 221.69,-46.57 219.75,-30.01"/>
<polygon fill="#63b8ff" stroke="#63b8ff" points="255.98,-126.99 265.47,-131.71 261,-122.11 255.98,-126.99"/>
</a>
</g>
</g>
<!-- Node6 -->
<g id="Node000006" class="node">
<title>Node6</title>
<g id="a_Node000006"><a xlink:href="InfoBoxManager_8cpp.html" target="_top" xlink:title=" ">
<polygon fill="white" stroke="#666666" points="442.5,-96 246.5,-96 246.5,-66 442.5,-66 442.5,-96"/>
<text text-anchor="start" x="254.5" y="-84" font-family="Helvetica,sans-Serif" font-size="10.00">/home/sean/Projects</text>
<text text-anchor="middle" x="344.5" y="-73" font-family="Helvetica,sans-Serif" font-size="10.00">/Brenda/src/ECS/InfoBoxManager.cpp</text>
</a>
</g>
</g>
<!-- Node2&#45;&gt;Node6 -->
<g id="edge5_Node000002_Node000006" class="edge">
<title>Node2&#45;&gt;Node6</title>
<g id="a_edge5_Node000002_Node000006"><a xlink:title=" ">
<path fill="none" stroke="#63b8ff" d="M302.52,-124.65C311.75,-115.27 322.33,-104.53 330.56,-96.16"/>
<polygon fill="#63b8ff" stroke="#63b8ff" points="300,-122.21 295.48,-131.8 304.99,-127.13 300,-122.21"/>
</a>
</g>
</g>
<!-- Node7 -->
<g id="Node000007" class="node">
<title>Node7</title>
<g id="a_Node000007"><a xlink:href="Scene_8cpp.html" target="_top" xlink:title=" ">
<polygon fill="white" stroke="#666666" points="584.5,-96 460.5,-96 460.5,-66 584.5,-66 584.5,-96"/>
<text text-anchor="start" x="468.5" y="-84" font-family="Helvetica,sans-Serif" font-size="10.00">/home/sean/Projects</text>
<text text-anchor="middle" x="522.5" y="-73" font-family="Helvetica,sans-Serif" font-size="10.00">/Brenda/src/Scene.cpp</text>
</a>
</g>
</g>
<!-- Node2&#45;&gt;Node7 -->
<g id="edge6_Node000002_Node000007" class="edge">
<title>Node2&#45;&gt;Node7</title>
<g id="a_edge6_Node000002_Node000007"><a xlink:title=" ">
<path fill="none" stroke="#63b8ff" d="M344.06,-129.39C383.08,-119.03 432.72,-105.84 469.73,-96.01"/>
<polygon fill="#63b8ff" stroke="#63b8ff" points="343.16,-126.01 334.39,-131.95 344.95,-132.77 343.16,-126.01"/>
</a>
</g>
</g>
<!-- Node4 -->
<g id="Node000004" class="node">
<title>Node4</title>
<g id="a_Node000004"><a xlink:href="AISystem_8cpp.html" target="_top" xlink:title=" ">
<polygon fill="white" stroke="#666666" points="141,-30 0,-30 0,0 141,0 141,-30"/>
<text text-anchor="start" x="8" y="-18" font-family="Helvetica,sans-Serif" font-size="10.00">/home/sean/Projects</text>
<text text-anchor="middle" x="70.5" y="-7" font-family="Helvetica,sans-Serif" font-size="10.00">/Brenda/src/AISystem.cpp</text>
</a>
</g>
</g>
<!-- Node3&#45;&gt;Node4 -->
<g id="edge3_Node000003_Node000004" class="edge">
<title>Node3&#45;&gt;Node4</title>
<g id="a_edge3_Node000003_Node000004"><a xlink:title=" ">
<path fill="none" stroke="#63b8ff" d="M106.67,-58.09C98.73,-48.85 89.72,-38.36 82.67,-30.16"/>
<polygon fill="#63b8ff" stroke="#63b8ff" points="104.12,-60.49 113.29,-65.8 109.43,-55.93 104.12,-60.49"/>
</a>
</g>
</g>
<!-- Node3&#45;&gt;Node5 -->
<g id="edge4_Node000003_Node000005" class="edge">
<title>Node3&#45;&gt;Node5</title>
<g id="a_edge4_Node000003_Node000005"><a xlink:title=" ">
<path fill="none" stroke="#63b8ff" d="M154.52,-60.03C168.59,-50.34 185.17,-38.94 197.92,-30.16"/>
<polygon fill="#63b8ff" stroke="#63b8ff" points="152.39,-57.24 146.14,-65.8 156.36,-63.01 152.39,-57.24"/>
</a>
</g>
</g>
</g>
</svg>
