<?xml version="1.0" encoding="UTF-8" standalone="no"?>
<!DOCTYPE svg PUBLIC "-//W3C//DTD SVG 1.1//EN"
 "http://www.w3.org/Graphics/SVG/1.1/DTD/svg11.dtd">
<!-- Generated by graphviz version 2.43.0 (0)
 -->
<!-- Title: Graphical Class Hierarchy Pages: 1 -->
<svg width="334pt" height="249pt"
 viewBox="0.00 0.00 334.00 249.00" xmlns="http://www.w3.org/2000/svg" xmlns:xlink="http://www.w3.org/1999/xlink">
<g id="graph0" class="graph" transform="scale(1 1) rotate(0) translate(4 245)">
<title>Graphical Class Hierarchy</title>
<!-- Node0 -->
<g id="Node000000" class="node">
<title>Node0</title>
<g id="a_Node000000"><a xlink:href="classIComponentManager.html" target="_top" xlink:title="An interface for managing a specific type of component in an ECS architecture.">
<polygon fill="white" stroke="#666666" points="119,-130 0,-130 0,-111 119,-111 119,-130"/>
<text text-anchor="middle" x="59.5" y="-118" font-family="Helvetica,sans-Serif" font-size="10.00">IComponentManager</text>
</a>
</g>
</g>
<!-- Node1 -->
<g id="Node000001" class="node">
<title>Node1</title>
<g id="a_Node000001"><a xlink:href="classAIManager.html" target="_top" xlink:title=" ">
<polygon fill="white" stroke="#666666" points="275,-241 206,-241 206,-222 275,-222 275,-241"/>
<text text-anchor="middle" x="240.5" y="-229" font-family="Helvetica,sans-Serif" font-size="10.00">AIManager</text>
</a>
</g>
</g>
<!-- Node0&#45;&gt;Node1 -->
<g id="edge11_Node000000_Node000001" class="edge">
<title>Node0&#45;&gt;Node1</title>
<g id="a_edge11_Node000000_Node000001"><a xlink:title=" ">
<path fill="none" stroke="#63b8ff" d="M73.48,-138.42C89.95,-159.77 120.41,-194.89 155,-213.5 170.59,-221.89 189.76,-226.37 205.9,-228.76"/>
<polygon fill="#63b8ff" stroke="#63b8ff" points="76.11,-136.1 67.31,-130.2 70.51,-140.3 76.11,-136.1"/>
</a>
</g>
</g>
<!-- Node2 -->
<g id="Node000002" class="node">
<title>Node2</title>
<g id="a_Node000002"><a xlink:href="classControllerManager.html" target="_top" xlink:title=" ">
<polygon fill="white" stroke="#666666" points="294,-204 187,-204 187,-185 294,-185 294,-204"/>
<text text-anchor="middle" x="240.5" y="-192" font-family="Helvetica,sans-Serif" font-size="10.00">ControllerManager</text>
</a>
</g>
</g>
<!-- Node0&#45;&gt;Node2 -->
<g id="edge12_Node000000_Node000002" class="edge">
<title>Node0&#45;&gt;Node2</title>
<g id="a_edge12_Node000000_Node000002"><a xlink:title=" ">
<path fill="none" stroke="#63b8ff" d="M81.84,-135.9C100.35,-148.56 128.29,-166.06 155,-176.5 165.06,-180.43 176.14,-183.57 186.88,-186.06"/>
<polygon fill="#63b8ff" stroke="#63b8ff" points="83.76,-132.97 73.56,-130.12 79.76,-138.72 83.76,-132.97"/>
</a>
</g>
</g>
<!-- Node3 -->
<g id="Node000003" class="node">
<title>Node3</title>
<g id="a_Node000003"><a xlink:href="classDescriptionComponentManager.html" target="_top" xlink:title=" ">
<polygon fill="white" stroke="#666666" points="326,-167 155,-167 155,-148 326,-148 326,-167"/>
<text text-anchor="middle" x="240.5" y="-155" font-family="Helvetica,sans-Serif" font-size="10.00">DescriptionComponentManager</text>
</a>
</g>
</g>
<!-- Node0&#45;&gt;Node3 -->
<g id="edge13_Node000000_Node000003" class="edge">
<title>Node0&#45;&gt;Node3</title>
<g id="a_edge13_Node000000_Node000003"><a xlink:title=" ">
<path fill="none" stroke="#63b8ff" d="M116.54,-132.08C141.2,-137.18 169.83,-143.1 193.25,-147.94"/>
<polygon fill="#63b8ff" stroke="#63b8ff" points="117.1,-128.63 106.6,-130.03 115.68,-135.48 117.1,-128.63"/>
</a>
</g>
</g>
<!-- Node4 -->
<g id="Node000004" class="node">
<title>Node4</title>
<g id="a_Node000004"><a xlink:href="classInfoBoxManager.html" target="_top" xlink:title=" ">
<polygon fill="white" stroke="#666666" points="289,-130 192,-130 192,-111 289,-111 289,-130"/>
<text text-anchor="middle" x="240.5" y="-118" font-family="Helvetica,sans-Serif" font-size="10.00">InfoBoxManager</text>
</a>
</g>
</g>
<!-- Node0&#45;&gt;Node4 -->
<g id="edge14_Node000000_Node000004" class="edge">
<title>Node0&#45;&gt;Node4</title>
<g id="a_edge14_Node000000_Node000004"><a xlink:title=" ">
<path fill="none" stroke="#63b8ff" d="M129.22,-120.5C150.11,-120.5 172.61,-120.5 191.8,-120.5"/>
<polygon fill="#63b8ff" stroke="#63b8ff" points="129.11,-117 119.11,-120.5 129.11,-124 129.11,-117"/>
</a>
</g>
</g>
<!-- Node5 -->
<g id="Node000005" class="node">
<title>Node5</title>
<g id="a_Node000005"><a xlink:href="classMovementManager.html" target="_top" xlink:title=" ">
<polygon fill="white" stroke="#666666" points="296.5,-93 184.5,-93 184.5,-74 296.5,-74 296.5,-93"/>
<text text-anchor="middle" x="240.5" y="-81" font-family="Helvetica,sans-Serif" font-size="10.00">MovementManager</text>
</a>
</g>
</g>
<!-- Node0&#45;&gt;Node5 -->
<g id="edge15_Node000000_Node000005" class="edge">
<title>Node0&#45;&gt;Node5</title>
<g id="a_edge15_Node000000_Node000005"><a xlink:title=" ">
<path fill="none" stroke="#63b8ff" d="M116.54,-108.92C141.2,-103.82 169.83,-97.9 193.25,-93.06"/>
<polygon fill="#63b8ff" stroke="#63b8ff" points="115.68,-105.52 106.6,-110.97 117.1,-112.37 115.68,-105.52"/>
</a>
</g>
</g>
<!-- Node6 -->
<g id="Node000006" class="node">
<title>Node6</title>
<g id="a_Node000006"><a xlink:href="classPositionManager.html" target="_top" xlink:title=" ">
<polygon fill="white" stroke="#666666" points="289.5,-56 191.5,-56 191.5,-37 289.5,-37 289.5,-56"/>
<text text-anchor="middle" x="240.5" y="-44" font-family="Helvetica,sans-Serif" font-size="10.00">PositionManager</text>
</a>
</g>
</g>
<!-- Node0&#45;&gt;Node6 -->
<g id="edge16_Node000000_Node000006" class="edge">
<title>Node0&#45;&gt;Node6</title>
<g id="a_edge16_Node000000_Node000006"><a xlink:title=" ">
<path fill="none" stroke="#63b8ff" d="M82.23,-105.26C100.78,-92.89 128.58,-75.87 155,-65.5 166.48,-60.99 179.27,-57.43 191.36,-54.66"/>
<polygon fill="#63b8ff" stroke="#63b8ff" points="80.22,-102.39 73.91,-110.9 84.15,-108.18 80.22,-102.39"/>
</a>
</g>
</g>
<!-- Node7 -->
<g id="Node000007" class="node">
<title>Node7</title>
<g id="a_Node000007"><a xlink:href="classRenderableManager.html" target="_top" xlink:title=" ">
<polygon fill="white" stroke="#666666" points="298,-19 183,-19 183,0 298,0 298,-19"/>
<text text-anchor="middle" x="240.5" y="-7" font-family="Helvetica,sans-Serif" font-size="10.00">RenderableManager</text>
</a>
</g>
</g>
<!-- Node0&#45;&gt;Node7 -->
<g id="edge17_Node000000_Node000007" class="edge">
<title>Node0&#45;&gt;Node7</title>
<g id="a_edge17_Node000000_Node000007"><a xlink:title=" ">
<path fill="none" stroke="#63b8ff" d="M73.56,-102.84C90.11,-81.78 120.65,-47.11 155,-28.5 163.59,-23.84 173.27,-20.33 182.93,-17.67"/>
<polygon fill="#63b8ff" stroke="#63b8ff" points="70.65,-100.87 67.35,-110.94 76.21,-105.13 70.65,-100.87"/>
</a>
</g>
</g>
</g>
</svg>
