<?xml version="1.0" encoding="UTF-8" standalone="no"?>
<!DOCTYPE svg PUBLIC "-//W3C//DTD SVG 1.1//EN"
 "http://www.w3.org/Graphics/SVG/1.1/DTD/svg11.dtd">
<!-- Generated by graphviz version 2.43.0 (0)
 -->
<!-- Title: Graphical Class Hierarchy Pages: 1 -->
<svg width="434pt" height="230pt"
 viewBox="0.00 0.00 434.00 230.00" xmlns="http://www.w3.org/2000/svg" xmlns:xlink="http://www.w3.org/1999/xlink">
<g id="graph0" class="graph" transform="scale(1 1) rotate(0) translate(4 226)">
<title>Graphical Class Hierarchy</title>
<!-- Node0 -->
<g id="Node000000" class="node">
<title>Node0</title>
<g id="a_Node000000"><a xlink:href="classECS_1_1IComponent.html" target="_top" xlink:title=" ">
<polygon fill="white" stroke="#666666" points="101,-129 0,-129 0,-110 101,-110 101,-129"/>
<text text-anchor="middle" x="50.5" y="-117" font-family="Helvetica,sans-Serif" font-size="10.00">ECS::IComponent</text>
</a>
</g>
</g>
<!-- Node1 -->
<g id="Node000001" class="node">
<title>Node1</title>
<g id="a_Node000001"><a xlink:href="classController.html" target="_top" xlink:title=" ">
<polygon fill="white" stroke="#666666" points="248.5,-222 183.5,-222 183.5,-203 248.5,-203 248.5,-222"/>
<text text-anchor="middle" x="216" y="-210" font-family="Helvetica,sans-Serif" font-size="10.00">Controller</text>
</a>
</g>
</g>
<!-- Node0&#45;&gt;Node1 -->
<g id="edge1_Node000000_Node000001" class="edge">
<title>Node0&#45;&gt;Node1</title>
<g id="a_edge1_Node000000_Node000001"><a xlink:title=" ">
<path fill="none" stroke="#63b8ff" d="M66.48,-136.93C82.28,-154.17 108.76,-180.03 137,-194.5 151.35,-201.85 168.71,-206.24 183.4,-208.83"/>
<polygon fill="#63b8ff" stroke="#63b8ff" points="68.89,-134.37 59.62,-129.24 63.67,-139.03 68.89,-134.37"/>
</a>
</g>
</g>
<!-- Node3 -->
<g id="Node000003" class="node">
<title>Node3</title>
<g id="a_Node000003"><a xlink:href="structDescriptionComponent.html" target="_top" xlink:title="Component to store a descriptive string for an entity.">
<polygon fill="white" stroke="#666666" points="280,-185 152,-185 152,-166 280,-166 280,-185"/>
<text text-anchor="middle" x="216" y="-173" font-family="Helvetica,sans-Serif" font-size="10.00">DescriptionComponent</text>
</a>
</g>
</g>
<!-- Node0&#45;&gt;Node3 -->
<g id="edge3_Node000000_Node000003" class="edge">
<title>Node0&#45;&gt;Node3</title>
<g id="a_edge3_Node000000_Node000003"><a xlink:title=" ">
<path fill="none" stroke="#63b8ff" d="M79.18,-133.42C95.66,-141.3 117.17,-150.87 137,-157.5 146.62,-160.72 157.1,-163.56 167.16,-165.99"/>
<polygon fill="#63b8ff" stroke="#63b8ff" points="80.63,-130.24 70.1,-129.01 77.57,-136.53 80.63,-130.24"/>
</a>
</g>
</g>
<!-- Node4 -->
<g id="Node000004" class="node">
<title>Node4</title>
<g id="a_Node000004"><a xlink:href="structInfoBoxComponent.html" target="_top" xlink:title="Holds the dynamic text to be displayed for an entity.">
<polygon fill="white" stroke="#666666" points="271,-148 161,-148 161,-129 271,-129 271,-148"/>
<text text-anchor="middle" x="216" y="-136" font-family="Helvetica,sans-Serif" font-size="10.00">InfoBoxComponent</text>
</a>
</g>
</g>
<!-- Node0&#45;&gt;Node4 -->
<g id="edge4_Node000000_Node000004" class="edge">
<title>Node0&#45;&gt;Node4</title>
<g id="a_edge4_Node000000_Node000004"><a xlink:title=" ">
<path fill="none" stroke="#63b8ff" d="M111.8,-126.51C127.86,-128.37 145.1,-130.38 160.81,-132.2"/>
<polygon fill="#63b8ff" stroke="#63b8ff" points="111.78,-122.98 101.44,-125.3 110.97,-129.93 111.78,-122.98"/>
</a>
</g>
</g>
<!-- Node5 -->
<g id="Node000005" class="node">
<title>Node5</title>
<g id="a_Node000005"><a xlink:href="structMovement.html" target="_top" xlink:title="Component to store a movement target and state.">
<polygon fill="white" stroke="#666666" points="250.5,-111 181.5,-111 181.5,-92 250.5,-92 250.5,-111"/>
<text text-anchor="middle" x="216" y="-99" font-family="Helvetica,sans-Serif" font-size="10.00">Movement</text>
</a>
</g>
</g>
<!-- Node0&#45;&gt;Node5 -->
<g id="edge5_Node000000_Node000005" class="edge">
<title>Node0&#45;&gt;Node5</title>
<g id="a_edge5_Node000000_Node000005"><a xlink:title=" ">
<path fill="none" stroke="#63b8ff" d="M111.69,-112.87C135.22,-110.28 161.31,-107.41 181.38,-105.2"/>
<polygon fill="#63b8ff" stroke="#63b8ff" points="111,-109.43 101.44,-114 111.77,-116.39 111,-109.43"/>
</a>
</g>
</g>
<!-- Node6 -->
<g id="Node000006" class="node">
<title>Node6</title>
<g id="a_Node000006"><a xlink:href="classPositionComponent.html" target="_top" xlink:title=" ">
<polygon fill="white" stroke="#666666" points="272,-74 160,-74 160,-55 272,-55 272,-74"/>
<text text-anchor="middle" x="216" y="-62" font-family="Helvetica,sans-Serif" font-size="10.00">PositionComponent</text>
</a>
</g>
</g>
<!-- Node0&#45;&gt;Node6 -->
<g id="edge6_Node000000_Node000006" class="edge">
<title>Node0&#45;&gt;Node6</title>
<g id="a_edge6_Node000000_Node000006"><a xlink:title=" ">
<path fill="none" stroke="#63b8ff" d="M81.04,-105.69C97.31,-98.43 118,-89.77 137,-83.5 147.72,-79.96 159.47,-76.76 170.51,-74.04"/>
<polygon fill="#63b8ff" stroke="#63b8ff" points="79.2,-102.68 71.54,-109.99 82.09,-109.05 79.2,-102.68"/>
</a>
</g>
</g>
<!-- Node7 -->
<g id="Node000007" class="node">
<title>Node7</title>
<g id="a_Node000007"><a xlink:href="classShapeRenderableComponent.html" target="_top" xlink:title=" ">
<polygon fill="white" stroke="#666666" points="295,-37 137,-37 137,-18 295,-18 295,-37"/>
<text text-anchor="middle" x="216" y="-25" font-family="Helvetica,sans-Serif" font-size="10.00">ShapeRenderableComponent</text>
</a>
</g>
</g>
<!-- Node0&#45;&gt;Node7 -->
<g id="edge7_Node000000_Node000007" class="edge">
<title>Node0&#45;&gt;Node7</title>
<g id="a_edge7_Node000000_Node000007"><a xlink:title=" ">
<path fill="none" stroke="#63b8ff" d="M66.87,-102.35C82.8,-85.63 109.22,-60.71 137,-46.5 144.57,-42.63 152.96,-39.52 161.35,-37.04"/>
<polygon fill="#63b8ff" stroke="#63b8ff" points="64.18,-100.11 59.93,-109.82 69.3,-104.88 64.18,-100.11"/>
</a>
</g>
</g>
<!-- Node2 -->
<g id="Node000002" class="node">
<title>Node2</title>
<g id="a_Node000002"><a xlink:href="classPlayerController.html" target="_top" xlink:title="A controller that translates user keyboard input into entity movement.">
<polygon fill="white" stroke="#666666" points="426,-222 331,-222 331,-203 426,-203 426,-222"/>
<text text-anchor="middle" x="378.5" y="-210" font-family="Helvetica,sans-Serif" font-size="10.00">PlayerController</text>
</a>
</g>
</g>
<!-- Node1&#45;&gt;Node2 -->
<g id="edge2_Node000001_Node000002" class="edge">
<title>Node1&#45;&gt;Node2</title>
<g id="a_edge2_Node000001_Node000002"><a xlink:title=" ">
<path fill="none" stroke="#63b8ff" d="M258.8,-212.5C280.92,-212.5 308.16,-212.5 330.95,-212.5"/>
<polygon fill="#63b8ff" stroke="#63b8ff" points="258.71,-209 248.71,-212.5 258.71,-216 258.71,-209"/>
</a>
</g>
</g>
<!-- Node8 -->
<g id="Node000008" class="node">
<title>Node8</title>
<g id="a_Node000008"><a xlink:href="classCircle.html" target="_top" xlink:title=" ">
<polygon fill="white" stroke="#666666" points="400.5,-56 356.5,-56 356.5,-37 400.5,-37 400.5,-56"/>
<text text-anchor="middle" x="378.5" y="-44" font-family="Helvetica,sans-Serif" font-size="10.00">Circle</text>
</a>
</g>
</g>
<!-- Node7&#45;&gt;Node8 -->
<g id="edge8_Node000007_Node000008" class="edge">
<title>Node7&#45;&gt;Node8</title>
<g id="a_edge8_Node000007_Node000008"><a xlink:title=" ">
<path fill="none" stroke="#63b8ff" d="M305.35,-37.96C324.38,-40.21 342.79,-42.39 356.25,-43.98"/>
<polygon fill="#63b8ff" stroke="#63b8ff" points="305.71,-34.48 295.37,-36.78 304.89,-41.43 305.71,-34.48"/>
</a>
</g>
</g>
<!-- Node9 -->
<g id="Node000009" class="node">
<title>Node9</title>
<g id="a_Node000009"><a xlink:href="classSquare.html" target="_top" xlink:title=" ">
<polygon fill="white" stroke="#666666" points="403.5,-19 353.5,-19 353.5,0 403.5,0 403.5,-19"/>
<text text-anchor="middle" x="378.5" y="-7" font-family="Helvetica,sans-Serif" font-size="10.00">Square</text>
</a>
</g>
</g>
<!-- Node7&#45;&gt;Node9 -->
<g id="edge9_Node000007_Node000009" class="edge">
<title>Node7&#45;&gt;Node9</title>
<g id="a_edge9_Node000007_Node000009"><a xlink:title=" ">
<path fill="none" stroke="#63b8ff" d="M305.78,-17.54C323.38,-15.57 340.44,-13.66 353.5,-12.19"/>
<polygon fill="#63b8ff" stroke="#63b8ff" points="304.92,-14.12 295.37,-18.71 305.7,-21.07 304.92,-14.12"/>
</a>
</g>
</g>
<!-- Node10 -->
<g id="Node000010" class="node">
<title>Node10</title>
<g id="a_Node000010"><a xlink:href="classIRenderable.html" target="_top" xlink:title=" ">
<polygon fill="white" stroke="#666666" points="88,-37 13,-37 13,-18 88,-18 88,-37"/>
<text text-anchor="middle" x="50.5" y="-25" font-family="Helvetica,sans-Serif" font-size="10.00">IRenderable</text>
</a>
</g>
</g>
<!-- Node10&#45;&gt;Node7 -->
<g id="edge10_Node000010_Node000007" class="edge">
<title>Node10&#45;&gt;Node7</title>
<g id="a_edge10_Node000010_Node000007"><a xlink:title=" ">
<path fill="none" stroke="#63b8ff" d="M98.44,-27.5C110.5,-27.5 123.8,-27.5 136.97,-27.5"/>
<polygon fill="#63b8ff" stroke="#63b8ff" points="98.19,-24 88.19,-27.5 98.19,-31 98.19,-24"/>
</a>
</g>
</g>
</g>
</svg>
