<?xml version="1.0" encoding="UTF-8" standalone="no"?>
<!DOCTYPE svg PUBLIC "-//W3C//DTD SVG 1.1//EN"
 "http://www.w3.org/Graphics/SVG/1.1/DTD/svg11.dtd">
<!-- Generated by graphviz version 2.43.0 (0)
 -->
<!-- Title: /home/sean/Projects/Brenda/src/ECS/MovementManager.h Pages: 1 -->
<svg width="410pt" height="324pt"
 viewBox="0.00 0.00 409.89 324.00" xmlns="http://www.w3.org/2000/svg" xmlns:xlink="http://www.w3.org/1999/xlink">

<svg id="main" version="1.1" xmlns="http://www.w3.org/2000/svg" xmlns:xlink="http://www.w3.org/1999/xlink" xml:space="preserve" onload="init(evt)">
<style type="text/css"><![CDATA[
.node, .edge {opacity: 0.7;}
.node.selected, .edge.selected {opacity: 1;}
.edge:hover path { stroke: red; }
.edge:hover polygon { stroke: red; fill: red; }
]]></style>
<script type="application/ecmascript" xlink:href="svg.min.js"/>
<svg id="graph" class="graph">
<g id="graph0" class="graph" transform="scale(1 1) rotate(0) translate(4 320)">
<title>/home/sean/Projects/Brenda/src/ECS/MovementManager.h</title>
<!-- Node1 -->
<g id="Node000001" class="node">
<title>Node1</title>
<g id="a_Node000001"><a xlink:title=" ">
<polygon fill="#999999" stroke="#666666" points="392.77,-316 192.77,-316 192.77,-286 392.77,-286 392.77,-316"/>
<text text-anchor="start" x="200.77" y="-304" font-family="Helvetica,sans-Serif" font-size="10.00">/home/sean/Projects</text>
<text text-anchor="middle" x="292.77" y="-293" font-family="Helvetica,sans-Serif" font-size="10.00">/Brenda/src/ECS/MovementManager.h</text>
</a>
</g>
</g>
<!-- Node2 -->
<g id="Node000002" class="node">
<title>Node2</title>
<g id="a_Node000002"><a xlink:href="AISystem_8h.html" target="_top" xlink:title=" ">
<polygon fill="white" stroke="#666666" points="152.77,-244.5 22.77,-244.5 22.77,-214.5 152.77,-214.5 152.77,-244.5"/>
<text text-anchor="start" x="30.77" y="-232.5" font-family="Helvetica,sans-Serif" font-size="10.00">/home/sean/Projects</text>
<text text-anchor="middle" x="87.77" y="-221.5" font-family="Helvetica,sans-Serif" font-size="10.00">/Brenda/src/AISystem.h</text>
</a>
</g>
</g>
<!-- Node1&#45;&gt;Node2 -->
<g id="edge1_Node000001_Node000002" class="edge">
<title>Node1&#45;&gt;Node2</title>
<g id="a_edge1_Node000001_Node000002"><a xlink:title=" ">
<path fill="none" stroke="#63b8ff" d="M241.79,-282.72C207.07,-270.95 161.69,-255.56 129.19,-244.54"/>
<polygon fill="#63b8ff" stroke="#63b8ff" points="240.69,-286.04 251.28,-285.94 242.94,-279.41 240.69,-286.04"/>
</a>
</g>
</g>
<!-- Node5 -->
<g id="Node000005" class="node">
<title>Node5</title>
<g id="a_Node000005"><a xlink:href="ControllerManager_8h.html" target="_top" xlink:title=" ">
<polygon fill="white" stroke="#666666" points="364.77,-173 220.77,-173 220.77,-132 364.77,-132 364.77,-173"/>
<text text-anchor="start" x="228.77" y="-161" font-family="Helvetica,sans-Serif" font-size="10.00">/home/sean/Projects</text>
<text text-anchor="start" x="228.77" y="-150" font-family="Helvetica,sans-Serif" font-size="10.00">/Brenda/src/ECS/Controller</text>
<text text-anchor="middle" x="292.77" y="-139" font-family="Helvetica,sans-Serif" font-size="10.00">Manager.h</text>
</a>
</g>
</g>
<!-- Node1&#45;&gt;Node5 -->
<g id="edge4_Node000001_Node000005" class="edge">
<title>Node1&#45;&gt;Node5</title>
<g id="a_edge4_Node000001_Node000005"><a xlink:title=" ">
<path fill="none" stroke="#63b8ff" d="M345.06,-281.37C358.76,-273.83 371.89,-263.61 379.77,-250 388.89,-234.23 388.53,-224.98 379.77,-209 371.33,-193.6 356.6,-181.86 341.64,-173.23"/>
<polygon fill="#63b8ff" stroke="#63b8ff" points="343.36,-278.31 336.02,-285.95 346.52,-284.55 343.36,-278.31"/>
</a>
</g>
</g>
<!-- Node6 -->
<g id="Node000006" class="node">
<title>Node6</title>
<g id="a_Node000006"><a xlink:href="Scene_8cpp.html" target="_top" xlink:title=" ">
<polygon fill="white" stroke="#666666" points="354.77,-30 230.77,-30 230.77,0 354.77,0 354.77,-30"/>
<text text-anchor="start" x="238.77" y="-18" font-family="Helvetica,sans-Serif" font-size="10.00">/home/sean/Projects</text>
<text text-anchor="middle" x="292.77" y="-7" font-family="Helvetica,sans-Serif" font-size="10.00">/Brenda/src/Scene.cpp</text>
</a>
</g>
</g>
<!-- Node1&#45;&gt;Node6 -->
<g id="edge11_Node000001_Node000006" class="edge">
<title>Node1&#45;&gt;Node6</title>
<g id="a_edge11_Node000001_Node000006"><a xlink:title=" ">
<path fill="none" stroke="#63b8ff" d="M358.81,-281.71C373.8,-274.34 387.89,-264.11 396.77,-250 406.47,-234.57 399.4,-227.03 396.77,-209 391.6,-173.66 389.3,-164.16 373.77,-132 354.54,-92.19 322.31,-51.01 304.86,-30.07"/>
<polygon fill="#63b8ff" stroke="#63b8ff" points="357.09,-278.64 349.41,-285.93 359.96,-285.03 357.09,-278.64"/>
</a>
</g>
</g>
<!-- Node7 -->
<g id="Node000007" class="node">
<title>Node7</title>
<g id="a_Node000007"><a xlink:href="Scene_8h.html" target="_top" xlink:title=" ">
<polygon fill="white" stroke="#666666" points="254.77,-96 138.77,-96 138.77,-66 254.77,-66 254.77,-96"/>
<text text-anchor="start" x="146.77" y="-84" font-family="Helvetica,sans-Serif" font-size="10.00">/home/sean/Projects</text>
<text text-anchor="middle" x="196.77" y="-73" font-family="Helvetica,sans-Serif" font-size="10.00">/Brenda/src/Scene.h</text>
</a>
</g>
</g>
<!-- Node1&#45;&gt;Node7 -->
<g id="edge12_Node000001_Node000007" class="edge">
<title>Node1&#45;&gt;Node7</title>
<g id="a_edge12_Node000001_Node000007"><a xlink:title=" ">
<path fill="none" stroke="#63b8ff" d="M241.31,-281.31C227.48,-273.74 214.08,-263.51 205.77,-250 175.47,-200.74 186.66,-127.18 193.28,-96.38"/>
<polygon fill="#63b8ff" stroke="#63b8ff" points="239.9,-284.52 250.4,-285.9 243.06,-278.27 239.9,-284.52"/>
</a>
</g>
</g>
<!-- Node8 -->
<g id="Node000008" class="node">
<title>Node8</title>
<g id="a_Node000008"><a xlink:href="PlayerController_8h.html" target="_top" xlink:title=" ">
<polygon fill="white" stroke="#666666" points="370.77,-250 214.77,-250 214.77,-209 370.77,-209 370.77,-250"/>
<text text-anchor="start" x="222.77" y="-238" font-family="Helvetica,sans-Serif" font-size="10.00">/home/sean/Projects</text>
<text text-anchor="start" x="222.77" y="-227" font-family="Helvetica,sans-Serif" font-size="10.00">/Brenda/src/ECS/components</text>
<text text-anchor="middle" x="292.77" y="-216" font-family="Helvetica,sans-Serif" font-size="10.00">/PlayerController.h</text>
</a>
</g>
</g>
<!-- Node1&#45;&gt;Node8 -->
<g id="edge9_Node000001_Node000008" class="edge">
<title>Node1&#45;&gt;Node8</title>
<g id="a_edge9_Node000001_Node000008"><a xlink:title=" ">
<path fill="none" stroke="#63b8ff" d="M292.77,-275.91C292.77,-267.47 292.77,-258.1 292.77,-250.07"/>
<polygon fill="#63b8ff" stroke="#63b8ff" points="289.27,-275.94 292.77,-285.94 296.27,-275.94 289.27,-275.94"/>
</a>
</g>
</g>
<!-- Node3 -->
<g id="Node000003" class="node">
<title>Node3</title>
<g id="a_Node000003"><a xlink:href="AISystem_8cpp.html" target="_top" xlink:title=" ">
<polygon fill="white" stroke="#666666" points="158.27,-167.5 17.27,-167.5 17.27,-137.5 158.27,-137.5 158.27,-167.5"/>
<text text-anchor="start" x="25.27" y="-155.5" font-family="Helvetica,sans-Serif" font-size="10.00">/home/sean/Projects</text>
<text text-anchor="middle" x="87.77" y="-144.5" font-family="Helvetica,sans-Serif" font-size="10.00">/Brenda/src/AISystem.cpp</text>
</a>
</g>
</g>
<!-- Node2&#45;&gt;Node3 -->
<g id="edge2_Node000002_Node000003" class="edge">
<title>Node2&#45;&gt;Node3</title>
<g id="a_edge2_Node000002_Node000003"><a xlink:title=" ">
<path fill="none" stroke="#63b8ff" d="M87.77,-204.04C87.77,-191.95 87.77,-177.79 87.77,-167.54"/>
<polygon fill="#63b8ff" stroke="#63b8ff" points="84.27,-204.39 87.77,-214.39 91.27,-204.39 84.27,-204.39"/>
</a>
</g>
</g>
<!-- Node4 -->
<g id="Node000004" class="node">
<title>Node4</title>
<g id="a_Node000004"><a xlink:href="main_8cpp.html" target="_top" xlink:title=" ">
<polygon fill="white" stroke="#666666" points="130.27,-30 11.27,-30 11.27,0 130.27,0 130.27,-30"/>
<text text-anchor="start" x="19.27" y="-18" font-family="Helvetica,sans-Serif" font-size="10.00">/home/sean/Projects</text>
<text text-anchor="middle" x="70.77" y="-7" font-family="Helvetica,sans-Serif" font-size="10.00">/Brenda/src/main.cpp</text>
</a>
</g>
</g>
<!-- Node2&#45;&gt;Node4 -->
<g id="edge3_Node000002_Node000004" class="edge">
<title>Node2&#45;&gt;Node4</title>
<g id="a_edge3_Node000002_Node000004"><a xlink:title=" ">
<path fill="none" stroke="#63b8ff" d="M45.07,-209.39C30.51,-200.54 15.88,-188.5 7.77,-173 -18.65,-122.52 31.15,-58.39 56.82,-30.28"/>
<polygon fill="#63b8ff" stroke="#63b8ff" points="43.63,-212.6 54.06,-214.48 47.08,-206.51 43.63,-212.6"/>
</a>
</g>
</g>
<!-- Node5&#45;&gt;Node6 -->
<g id="edge5_Node000005_Node000006" class="edge">
<title>Node5&#45;&gt;Node6</title>
<g id="a_edge5_Node000005_Node000006"><a xlink:title=" ">
<path fill="none" stroke="#63b8ff" d="M292.77,-121.64C292.77,-93.3 292.77,-51.93 292.77,-30.33"/>
<polygon fill="#63b8ff" stroke="#63b8ff" points="289.27,-121.8 292.77,-131.8 296.27,-121.8 289.27,-121.8"/>
</a>
</g>
</g>
<!-- Node5&#45;&gt;Node7 -->
<g id="edge6_Node000005_Node000007" class="edge">
<title>Node5&#45;&gt;Node7</title>
<g id="a_edge6_Node000005_Node000007"><a xlink:title=" ">
<path fill="none" stroke="#63b8ff" d="M257.36,-125.87C243.47,-115.81 228.06,-104.66 216.26,-96.11"/>
<polygon fill="#63b8ff" stroke="#63b8ff" points="255.62,-128.93 265.77,-131.96 259.72,-123.26 255.62,-128.93"/>
</a>
</g>
</g>
<!-- Node7&#45;&gt;Node4 -->
<g id="edge8_Node000007_Node000004" class="edge">
<title>Node7&#45;&gt;Node4</title>
<g id="a_edge8_Node000007_Node000004"><a xlink:title=" ">
<path fill="none" stroke="#63b8ff" d="M160.11,-61.38C140.39,-51.36 116.48,-39.22 98.35,-30.01"/>
<polygon fill="#63b8ff" stroke="#63b8ff" points="158.62,-64.55 169.12,-65.95 161.79,-58.31 158.62,-64.55"/>
</a>
</g>
</g>
<!-- Node7&#45;&gt;Node6 -->
<g id="edge7_Node000007_Node000006" class="edge">
<title>Node7&#45;&gt;Node6</title>
<g id="a_edge7_Node000007_Node000006"><a xlink:title=" ">
<path fill="none" stroke="#63b8ff" d="M226.73,-60.03C241.25,-50.34 258.36,-38.94 271.52,-30.16"/>
<polygon fill="#63b8ff" stroke="#63b8ff" points="224.45,-57.34 218.07,-65.8 228.34,-63.16 224.45,-57.34"/>
</a>
</g>
</g>
<!-- Node8&#45;&gt;Node5 -->
<g id="edge10_Node000008_Node000005" class="edge">
<title>Node8&#45;&gt;Node5</title>
<g id="a_edge10_Node000008_Node000005"><a xlink:title=" ">
<path fill="none" stroke="#63b8ff" d="M292.77,-198.69C292.77,-190.08 292.77,-180.9 292.77,-173.07"/>
<polygon fill="#63b8ff" stroke="#63b8ff" points="289.27,-198.79 292.77,-208.79 296.27,-198.79 289.27,-198.79"/>
</a>
</g>
</g>
</g>
</svg>
</svg>

<style type='text/css'>
<![CDATA[
[data-mouse-over-selected='false'] { opacity: 0.7; }
[data-mouse-over-selected='true']  { opacity: 1.0; }
]]>
</style>
<script type="application/ecmascript"><![CDATA[
document.addEventListener('DOMContentLoaded', (event) => {
  highlightEdges();
  highlightAdjacentNodes();
});
]]></script>
</svg>
