<?xml version="1.0" encoding="UTF-8" standalone="no"?>
<!DOCTYPE svg PUBLIC "-//W3C//DTD SVG 1.1//EN"
 "http://www.w3.org/Graphics/SVG/1.1/DTD/svg11.dtd">
<!-- Generated by graphviz version 2.43.0 (0)
 -->
<!-- Title: /home/sean/Projects/Brenda/src/ECS/components/Movement.h Pages: 1 -->
<svg width="442pt" height="401pt"
 viewBox="0.00 0.00 441.87 401.00" xmlns="http://www.w3.org/2000/svg" xmlns:xlink="http://www.w3.org/1999/xlink">

<svg id="main" version="1.1" xmlns="http://www.w3.org/2000/svg" xmlns:xlink="http://www.w3.org/1999/xlink" xml:space="preserve" onload="init(evt)">
<style type="text/css"><![CDATA[
.node, .edge {opacity: 0.7;}
.node.selected, .edge.selected {opacity: 1;}
.edge:hover path { stroke: red; }
.edge:hover polygon { stroke: red; fill: red; }
]]></style>
<script type="application/ecmascript" xlink:href="svg.min.js"/>
<svg id="graph" class="graph">
<g id="graph0" class="graph" transform="scale(1 1) rotate(0) translate(4 397)">
<title>/home/sean/Projects/Brenda/src/ECS/components/Movement.h</title>
<!-- Node1 -->
<g id="Node000001" class="node">
<title>Node1</title>
<g id="a_Node000001"><a xlink:title=" ">
<polygon fill="#999999" stroke="#666666" points="233.98,-393 77.98,-393 77.98,-352 233.98,-352 233.98,-393"/>
<text text-anchor="start" x="85.98" y="-381" font-family="Helvetica,sans-Serif" font-size="10.00">/home/sean/Projects</text>
<text text-anchor="start" x="85.98" y="-370" font-family="Helvetica,sans-Serif" font-size="10.00">/Brenda/src/ECS/components</text>
<text text-anchor="middle" x="155.98" y="-359" font-family="Helvetica,sans-Serif" font-size="10.00">/Movement.h</text>
</a>
</g>
</g>
<!-- Node2 -->
<g id="Node000002" class="node">
<title>Node2</title>
<g id="a_Node000002"><a xlink:href="MovementManager_8h.html" target="_top" xlink:title=" ">
<polygon fill="white" stroke="#666666" points="319.98,-316 119.98,-316 119.98,-286 319.98,-286 319.98,-316"/>
<text text-anchor="start" x="127.98" y="-304" font-family="Helvetica,sans-Serif" font-size="10.00">/home/sean/Projects</text>
<text text-anchor="middle" x="219.98" y="-293" font-family="Helvetica,sans-Serif" font-size="10.00">/Brenda/src/ECS/MovementManager.h</text>
</a>
</g>
</g>
<!-- Node1&#45;&gt;Node2 -->
<g id="edge1_Node000001_Node000002" class="edge">
<title>Node1&#45;&gt;Node2</title>
<g id="a_edge1_Node000001_Node000002"><a xlink:title=" ">
<path fill="none" stroke="#63b8ff" d="M181.06,-344.26C189.95,-334.61 199.59,-324.14 207.05,-316.04"/>
<polygon fill="#63b8ff" stroke="#63b8ff" points="178.35,-342.04 174.15,-351.77 183.5,-346.78 178.35,-342.04"/>
</a>
</g>
</g>
<!-- Node9 -->
<g id="Node000009" class="node">
<title>Node9</title>
<g id="a_Node000009"><a xlink:href="PlayerController_8h.html" target="_top" xlink:title=" ">
<polygon fill="white" stroke="#666666" points="180.98,-250 24.98,-250 24.98,-209 180.98,-209 180.98,-250"/>
<text text-anchor="start" x="32.98" y="-238" font-family="Helvetica,sans-Serif" font-size="10.00">/home/sean/Projects</text>
<text text-anchor="start" x="32.98" y="-227" font-family="Helvetica,sans-Serif" font-size="10.00">/Brenda/src/ECS/components</text>
<text text-anchor="middle" x="102.98" y="-216" font-family="Helvetica,sans-Serif" font-size="10.00">/PlayerController.h</text>
</a>
</g>
</g>
<!-- Node1&#45;&gt;Node9 -->
<g id="edge14_Node000001_Node000009" class="edge">
<title>Node1&#45;&gt;Node9</title>
<g id="a_edge14_Node000001_Node000009"><a xlink:title=" ">
<path fill="none" stroke="#63b8ff" d="M128.58,-344.2C121.69,-335.8 115.1,-326.1 110.98,-316 102.31,-294.74 101.17,-268.12 101.65,-250.28"/>
<polygon fill="#63b8ff" stroke="#63b8ff" points="126,-346.56 135.2,-351.81 131.28,-341.97 126,-346.56"/>
</a>
</g>
</g>
<!-- Node3 -->
<g id="Node000003" class="node">
<title>Node3</title>
<g id="a_Node000003"><a xlink:href="AISystem_8h.html" target="_top" xlink:title=" ">
<polygon fill="white" stroke="#666666" points="410.98,-244.5 280.98,-244.5 280.98,-214.5 410.98,-214.5 410.98,-244.5"/>
<text text-anchor="start" x="288.98" y="-232.5" font-family="Helvetica,sans-Serif" font-size="10.00">/home/sean/Projects</text>
<text text-anchor="middle" x="345.98" y="-221.5" font-family="Helvetica,sans-Serif" font-size="10.00">/Brenda/src/AISystem.h</text>
</a>
</g>
</g>
<!-- Node2&#45;&gt;Node3 -->
<g id="edge2_Node000002_Node000003" class="edge">
<title>Node2&#45;&gt;Node3</title>
<g id="a_edge2_Node000002_Node000003"><a xlink:title=" ">
<path fill="none" stroke="#63b8ff" d="M254.36,-281.03C275.26,-269.51 301.49,-255.04 320.52,-244.54"/>
<polygon fill="#63b8ff" stroke="#63b8ff" points="252.54,-278.04 245.48,-285.94 255.92,-284.17 252.54,-278.04"/>
</a>
</g>
</g>
<!-- Node6 -->
<g id="Node000006" class="node">
<title>Node6</title>
<g id="a_Node000006"><a xlink:href="ControllerManager_8h.html" target="_top" xlink:title=" ">
<polygon fill="white" stroke="#666666" points="218.98,-173 74.98,-173 74.98,-132 218.98,-132 218.98,-173"/>
<text text-anchor="start" x="82.98" y="-161" font-family="Helvetica,sans-Serif" font-size="10.00">/home/sean/Projects</text>
<text text-anchor="start" x="82.98" y="-150" font-family="Helvetica,sans-Serif" font-size="10.00">/Brenda/src/ECS/Controller</text>
<text text-anchor="middle" x="146.98" y="-139" font-family="Helvetica,sans-Serif" font-size="10.00">Manager.h</text>
</a>
</g>
</g>
<!-- Node2&#45;&gt;Node6 -->
<g id="edge5_Node000002_Node000006" class="edge">
<title>Node2&#45;&gt;Node6</title>
<g id="a_edge5_Node000002_Node000006"><a xlink:title=" ">
<path fill="none" stroke="#63b8ff" d="M214.45,-275.96C209.55,-257.07 201.39,-230.46 189.98,-209 183.17,-196.19 173.4,-183.3 164.89,-173.17"/>
<polygon fill="#63b8ff" stroke="#63b8ff" points="211.1,-276.97 216.9,-285.84 217.89,-275.29 211.1,-276.97"/>
</a>
</g>
</g>
<!-- Node7 -->
<g id="Node000007" class="node">
<title>Node7</title>
<g id="a_Node000007"><a xlink:href="Scene_8cpp.html" target="_top" xlink:title=" ">
<polygon fill="white" stroke="#666666" points="208.98,-30 84.98,-30 84.98,0 208.98,0 208.98,-30"/>
<text text-anchor="start" x="92.98" y="-18" font-family="Helvetica,sans-Serif" font-size="10.00">/home/sean/Projects</text>
<text text-anchor="middle" x="146.98" y="-7" font-family="Helvetica,sans-Serif" font-size="10.00">/Brenda/src/Scene.cpp</text>
</a>
</g>
</g>
<!-- Node2&#45;&gt;Node7 -->
<g id="edge12_Node000002_Node000007" class="edge">
<title>Node2&#45;&gt;Node7</title>
<g id="a_edge12_Node000002_Node000007"><a xlink:title=" ">
<path fill="none" stroke="#63b8ff" d="M109.91,-285.39C68.55,-277.46 28.48,-265.94 15.98,-250 -43.51,-174.17 78.86,-67.98 127.88,-30.1"/>
<polygon fill="#63b8ff" stroke="#63b8ff" points="109.39,-288.86 119.86,-287.23 110.67,-281.98 109.39,-288.86"/>
</a>
</g>
</g>
<!-- Node8 -->
<g id="Node000008" class="node">
<title>Node8</title>
<g id="a_Node000008"><a xlink:href="Scene_8h.html" target="_top" xlink:title=" ">
<polygon fill="white" stroke="#666666" points="297.98,-96 181.98,-96 181.98,-66 297.98,-66 297.98,-96"/>
<text text-anchor="start" x="189.98" y="-84" font-family="Helvetica,sans-Serif" font-size="10.00">/home/sean/Projects</text>
<text text-anchor="middle" x="239.98" y="-73" font-family="Helvetica,sans-Serif" font-size="10.00">/Brenda/src/Scene.h</text>
</a>
</g>
</g>
<!-- Node2&#45;&gt;Node8 -->
<g id="edge13_Node000002_Node000008" class="edge">
<title>Node2&#45;&gt;Node8</title>
<g id="a_edge13_Node000002_Node000008"><a xlink:title=" ">
<path fill="none" stroke="#63b8ff" d="M222.23,-275.47C226.43,-229.65 235.36,-132.4 238.69,-96.07"/>
<polygon fill="#63b8ff" stroke="#63b8ff" points="218.72,-275.42 221.29,-285.7 225.69,-276.06 218.72,-275.42"/>
</a>
</g>
</g>
<!-- Node2&#45;&gt;Node9 -->
<g id="edge10_Node000002_Node000009" class="edge">
<title>Node2&#45;&gt;Node9</title>
<g id="a_edge10_Node000002_Node000009"><a xlink:title=" ">
<path fill="none" stroke="#63b8ff" d="M187.29,-280.58C171.26,-271.06 151.99,-259.62 135.93,-250.07"/>
<polygon fill="#63b8ff" stroke="#63b8ff" points="185.92,-283.84 196.3,-285.94 189.49,-277.82 185.92,-283.84"/>
</a>
</g>
</g>
<!-- Node4 -->
<g id="Node000004" class="node">
<title>Node4</title>
<g id="a_Node000004"><a xlink:href="AISystem_8cpp.html" target="_top" xlink:title=" ">
<polygon fill="white" stroke="#666666" points="416.48,-167.5 275.48,-167.5 275.48,-137.5 416.48,-137.5 416.48,-167.5"/>
<text text-anchor="start" x="283.48" y="-155.5" font-family="Helvetica,sans-Serif" font-size="10.00">/home/sean/Projects</text>
<text text-anchor="middle" x="345.98" y="-144.5" font-family="Helvetica,sans-Serif" font-size="10.00">/Brenda/src/AISystem.cpp</text>
</a>
</g>
</g>
<!-- Node3&#45;&gt;Node4 -->
<g id="edge3_Node000003_Node000004" class="edge">
<title>Node3&#45;&gt;Node4</title>
<g id="a_edge3_Node000003_Node000004"><a xlink:title=" ">
<path fill="none" stroke="#63b8ff" d="M345.98,-204.04C345.98,-191.95 345.98,-177.79 345.98,-167.54"/>
<polygon fill="#63b8ff" stroke="#63b8ff" points="342.48,-204.39 345.98,-214.39 349.48,-204.39 342.48,-204.39"/>
</a>
</g>
</g>
<!-- Node5 -->
<g id="Node000005" class="node">
<title>Node5</title>
<g id="a_Node000005"><a xlink:href="main_8cpp.html" target="_top" xlink:title=" ">
<polygon fill="white" stroke="#666666" points="425.48,-30 306.48,-30 306.48,0 425.48,0 425.48,-30"/>
<text text-anchor="start" x="314.48" y="-18" font-family="Helvetica,sans-Serif" font-size="10.00">/home/sean/Projects</text>
<text text-anchor="middle" x="365.98" y="-7" font-family="Helvetica,sans-Serif" font-size="10.00">/Brenda/src/main.cpp</text>
</a>
</g>
</g>
<!-- Node3&#45;&gt;Node5 -->
<g id="edge4_Node000003_Node000005" class="edge">
<title>Node3&#45;&gt;Node5</title>
<g id="a_edge4_Node000003_Node000005"><a xlink:title=" ">
<path fill="none" stroke="#63b8ff" d="M388.68,-209.39C403.23,-200.54 417.87,-188.5 425.98,-173 452.23,-122.84 404.24,-58.54 379.45,-30.34"/>
<polygon fill="#63b8ff" stroke="#63b8ff" points="386.66,-206.51 379.69,-214.48 390.12,-212.6 386.66,-206.51"/>
</a>
</g>
</g>
<!-- Node6&#45;&gt;Node7 -->
<g id="edge6_Node000006_Node000007" class="edge">
<title>Node6&#45;&gt;Node7</title>
<g id="a_edge6_Node000006_Node000007"><a xlink:title=" ">
<path fill="none" stroke="#63b8ff" d="M146.98,-121.64C146.98,-93.3 146.98,-51.93 146.98,-30.33"/>
<polygon fill="#63b8ff" stroke="#63b8ff" points="143.48,-121.8 146.98,-131.8 150.48,-121.8 143.48,-121.8"/>
</a>
</g>
</g>
<!-- Node6&#45;&gt;Node8 -->
<g id="edge7_Node000006_Node000008" class="edge">
<title>Node6&#45;&gt;Node8</title>
<g id="a_edge7_Node000006_Node000008"><a xlink:title=" ">
<path fill="none" stroke="#63b8ff" d="M181.52,-125.69C194.95,-115.65 209.82,-104.54 221.19,-96.04"/>
<polygon fill="#63b8ff" stroke="#63b8ff" points="179.3,-122.98 173.38,-131.77 183.49,-128.59 179.3,-122.98"/>
</a>
</g>
</g>
<!-- Node8&#45;&gt;Node5 -->
<g id="edge9_Node000008_Node000005" class="edge">
<title>Node8&#45;&gt;Node5</title>
<g id="a_edge9_Node000008_Node000005"><a xlink:title=" ">
<path fill="none" stroke="#63b8ff" d="M276.64,-61.38C296.36,-51.36 320.27,-39.22 338.39,-30.01"/>
<polygon fill="#63b8ff" stroke="#63b8ff" points="274.96,-58.31 267.63,-65.95 278.13,-64.55 274.96,-58.31"/>
</a>
</g>
</g>
<!-- Node8&#45;&gt;Node7 -->
<g id="edge8_Node000008_Node000007" class="edge">
<title>Node8&#45;&gt;Node7</title>
<g id="a_edge8_Node000008_Node000007"><a xlink:title=" ">
<path fill="none" stroke="#63b8ff" d="M210.96,-60.03C196.88,-50.34 180.31,-38.94 167.56,-30.16"/>
<polygon fill="#63b8ff" stroke="#63b8ff" points="209.12,-63.01 219.34,-65.8 213.09,-57.24 209.12,-63.01"/>
</a>
</g>
</g>
<!-- Node9&#45;&gt;Node6 -->
<g id="edge11_Node000009_Node000006" class="edge">
<title>Node9&#45;&gt;Node6</title>
<g id="a_edge11_Node000009_Node000006"><a xlink:title=" ">
<path fill="none" stroke="#63b8ff" d="M119.64,-200.11C124.93,-191.09 130.66,-181.33 135.5,-173.07"/>
<polygon fill="#63b8ff" stroke="#63b8ff" points="116.58,-198.4 114.54,-208.79 122.62,-201.94 116.58,-198.4"/>
</a>
</g>
</g>
</g>
</svg>
</svg>

<style type='text/css'>
<![CDATA[
[data-mouse-over-selected='false'] { opacity: 0.7; }
[data-mouse-over-selected='true']  { opacity: 1.0; }
]]>
</style>
<script type="application/ecmascript"><![CDATA[
document.addEventListener('DOMContentLoaded', (event) => {
  highlightEdges();
  highlightAdjacentNodes();
});
]]></script>
</svg>
