<?xml version="1.0" encoding="UTF-8" standalone="no"?>
<!DOCTYPE svg PUBLIC "-//W3C//DTD SVG 1.1//EN"
 "http://www.w3.org/Graphics/SVG/1.1/DTD/svg11.dtd">
<!-- Generated by graphviz version 2.43.0 (0)
 -->
<!-- Title: GridRenderer::renderWithLabels Pages: 1 -->
<svg width="431pt" height="101pt"
 viewBox="0.00 0.00 431.00 101.00" xmlns="http://www.w3.org/2000/svg" xmlns:xlink="http://www.w3.org/1999/xlink">
<g id="graph0" class="graph" transform="scale(1 1) rotate(0) translate(4 97)">
<title>GridRenderer::renderWithLabels</title>
<!-- Node1 -->
<g id="Node000001" class="node">
<title>Node1</title>
<g id="a_Node000001"><a xlink:title=" ">
<polygon fill="#999999" stroke="#666666" points="141,-61.5 0,-61.5 0,-31.5 141,-31.5 141,-61.5"/>
<text text-anchor="start" x="8" y="-49.5" font-family="Helvetica,sans-Serif" font-size="10.00">GridRenderer::renderWith</text>
<text text-anchor="middle" x="70.5" y="-38.5" font-family="Helvetica,sans-Serif" font-size="10.00">Labels</text>
</a>
</g>
</g>
<!-- Node2 -->
<g id="Node000002" class="node">
<title>Node2</title>
<g id="a_Node000002"><a xlink:href="namespaceGridRenderer.html#acb569c89b4d3ee96ec4473b1db16ee2e" target="_top" xlink:title=" ">
<polygon fill="white" stroke="#666666" points="296,-56 177,-56 177,-37 296,-37 296,-56"/>
<text text-anchor="middle" x="236.5" y="-44" font-family="Helvetica,sans-Serif" font-size="10.00">GridRenderer::render</text>
</a>
</g>
</g>
<!-- Node1&#45;&gt;Node2 -->
<g id="edge1_Node000001_Node000002" class="edge">
<title>Node1&#45;&gt;Node2</title>
<g id="a_edge1_Node000001_Node000002"><a xlink:title=" ">
<path fill="none" stroke="#63b8ff" d="M141.05,-46.5C149.55,-46.5 158.24,-46.5 166.73,-46.5"/>
<polygon fill="#63b8ff" stroke="#63b8ff" points="166.97,-50 176.97,-46.5 166.97,-43 166.97,-50"/>
</a>
</g>
</g>
<!-- Node3 -->
<g id="Node000003" class="node">
<title>Node3</title>
<g id="a_Node000003"><a xlink:href="classGrid.html#ae448ea0d444c23fe89743430b040537c" target="_top" xlink:title=" ">
<polygon fill="white" stroke="#666666" points="404,-93 351,-93 351,-74 404,-74 404,-93"/>
<text text-anchor="middle" x="377.5" y="-81" font-family="Helvetica,sans-Serif" font-size="10.00">Grid::at</text>
</a>
</g>
</g>
<!-- Node2&#45;&gt;Node3 -->
<g id="edge2_Node000002_Node000003" class="edge">
<title>Node2&#45;&gt;Node3</title>
<g id="a_edge2_Node000002_Node000003"><a xlink:title=" ">
<path fill="none" stroke="#63b8ff" d="M273.3,-56.03C294.17,-61.59 320.4,-68.57 341.19,-74.1"/>
<polygon fill="#63b8ff" stroke="#63b8ff" points="340.35,-77.5 350.92,-76.69 342.15,-70.74 340.35,-77.5"/>
</a>
</g>
</g>
<!-- Node4 -->
<g id="Node000004" class="node">
<title>Node4</title>
<g id="a_Node000004"><a xlink:href="classGrid.html#aca5987c146fcd4226cc5dfdf927f17b1" target="_top" xlink:title=" ">
<polygon fill="white" stroke="#666666" points="423,-56 332,-56 332,-37 423,-37 423,-56"/>
<text text-anchor="middle" x="377.5" y="-44" font-family="Helvetica,sans-Serif" font-size="10.00">Grid::getHeight</text>
</a>
</g>
</g>
<!-- Node2&#45;&gt;Node4 -->
<g id="edge3_Node000002_Node000004" class="edge">
<title>Node2&#45;&gt;Node4</title>
<g id="a_edge3_Node000002_Node000004"><a xlink:title=" ">
<path fill="none" stroke="#63b8ff" d="M296.05,-46.5C304.59,-46.5 313.36,-46.5 321.83,-46.5"/>
<polygon fill="#63b8ff" stroke="#63b8ff" points="321.96,-50 331.96,-46.5 321.96,-43 321.96,-50"/>
</a>
</g>
</g>
<!-- Node5 -->
<g id="Node000005" class="node">
<title>Node5</title>
<g id="a_Node000005"><a xlink:href="classGrid.html#a1e87189ca4bcb28b72b5e1bb78a532b5" target="_top" xlink:title=" ">
<polygon fill="white" stroke="#666666" points="421,-19 334,-19 334,0 421,0 421,-19"/>
<text text-anchor="middle" x="377.5" y="-7" font-family="Helvetica,sans-Serif" font-size="10.00">Grid::getWidth</text>
</a>
</g>
</g>
<!-- Node2&#45;&gt;Node5 -->
<g id="edge4_Node000002_Node000005" class="edge">
<title>Node2&#45;&gt;Node5</title>
<g id="a_edge4_Node000002_Node000005"><a xlink:title=" ">
<path fill="none" stroke="#63b8ff" d="M273.3,-36.97C290.75,-32.33 311.95,-26.68 330.58,-21.72"/>
<polygon fill="#63b8ff" stroke="#63b8ff" points="331.58,-25.08 340.34,-19.12 329.78,-18.31 331.58,-25.08"/>
</a>
</g>
</g>
</g>
</svg>
