<?xml version="1.0" encoding="UTF-8" standalone="no"?>
<!DOCTYPE svg PUBLIC "-//W3C//DTD SVG 1.1//EN"
 "http://www.w3.org/Graphics/SVG/1.1/DTD/svg11.dtd">
<!-- Generated by graphviz version 2.43.0 (0)
 -->
<!-- Title: /home/sean/Projects/Brenda/src/ECS/components/PlayerController.h Pages: 1 -->
<!--zoomable 269 -->

<svg id="main" version="1.1" xmlns="http://www.w3.org/2000/svg" xmlns:xlink="http://www.w3.org/1999/xlink" xml:space="preserve" onload="init(evt)">
<style type="text/css"><![CDATA[
.node, .edge {opacity: 0.7;}
.node.selected, .edge.selected {opacity: 1;}
.edge:hover path { stroke: red; }
.edge:hover polygon { stroke: red; fill: red; }
]]></style>

<defs>
  <circle id="rim" cx="0" cy="0" r="7"/>
  <circle id="rim2" cx="0" cy="0" r="3.5"/>
  <g id="zoomPlus">
    <use xlink:href="#rim" fill="#404040"><set attributeName="fill" to="#808080" begin="zoomplus.mouseover" end="zoomplus.mouseout"/></use>
    <path d="M-4,0h8M0,-4v8" fill="none" stroke="white" stroke-width="1.5" pointer-events="none"/>
  </g>
  <g id="zoomMin">
    <use xlink:href="#rim" fill="#404040"><set attributeName="fill" to="#808080" begin="zoomminus.mouseover" end="zoomminus.mouseout"/></use>
    <path d="M-4,0h8" fill="none" stroke="white" stroke-width="1.5" pointer-events="none"/>
  </g>
  <g id="arrowUp" transform="translate(30 24)">
    <use xlink:href="#rim"/>
    <path pointer-events="none" fill="none" stroke="white" stroke-width="1.5" d="M0,-3.0v7 M-2.5,-0.5L0,-3.0L2.5,-0.5"/>
  </g>
  <g id="arrowRight" transform="rotate(90) translate(36 -43)">
    <use xlink:href="#rim"/>
    <path pointer-events="none" fill="none" stroke="white" stroke-width="1.5" d="M0,-3.0v7 M-2.5,-0.5L0,-3.0L2.5,-0.5"/>
  </g>
  <g id="arrowDown" transform="rotate(180) translate(-30 -48)">
    <use xlink:href="#rim"/>
    <path pointer-events="none" fill="none" stroke="white" stroke-width="1.5" d="M0,-3.0v7 M-2.5,-0.5L0,-3.0L2.5,-0.5"/>
  </g>
  <g id="arrowLeft" transform="rotate(270) translate(-36 17)">
    <use xlink:href="#rim"/>
    <path pointer-events="none" fill="none" stroke="white" stroke-width="1.5" d="M0,-3.0v7 M-2.5,-0.5L0,-3.0L2.5,-0.5"/>
  </g>
  <g id="resetDef">
    <use xlink:href="#rim2" fill="#404040"><set attributeName="fill" to="#808080" begin="reset.mouseover" end="reset.mouseout"/></use>
  </g>
</defs>
<script type="application/ecmascript">
var viewWidth = 1131;
var viewHeight = 269;
var sectionId = 'dynsection-0';
</script>
<script type="application/ecmascript" xlink:href="svg.min.js"/>
<svg id="graph" class="graph">
<g id="viewport">
<title>/home/sean/Projects/Brenda/src/ECS/components/PlayerController.h</title>
<!-- Node1 -->
<g id="Node000001" class="node">
<title>Node1</title>
<g id="a_Node000001"><a xlink:title=" ">
<polygon fill="#999999" stroke="#666666" points="636.5,-261 480.5,-261 480.5,-220 636.5,-220 636.5,-261"/>
<text text-anchor="start" x="488.5" y="-249" font-family="Helvetica,sans-Serif" font-size="10.00">/home/sean/Projects</text>
<text text-anchor="start" x="488.5" y="-238" font-family="Helvetica,sans-Serif" font-size="10.00">/Brenda/src/ECS/components</text>
<text text-anchor="middle" x="558.5" y="-227" font-family="Helvetica,sans-Serif" font-size="10.00">/PlayerController.h</text>
</a>
</g>
</g>
<!-- Node2 -->
<g id="Node000002" class="node">
<title>Node2</title>
<g id="a_Node000002"><a xlink:href="Controller_8h.html" target="_top" xlink:title=" ">
<polygon fill="white" stroke="#666666" points="595,-184 522,-184 522,-165 595,-165 595,-184"/>
<text text-anchor="middle" x="558.5" y="-172" font-family="Helvetica,sans-Serif" font-size="10.00">Controller.h</text>
</a>
</g>
</g>
<!-- Node1&#45;&gt;Node2 -->
<g id="edge1_Node000001_Node000002" class="edge">
<title>Node1&#45;&gt;Node2</title>
<g id="a_edge1_Node000001_Node000002"><a xlink:title=" ">
<path fill="none" stroke="#63b8ff" d="M558.5,-219.95C558.5,-211.85 558.5,-202.5 558.5,-194.47"/>
<polygon fill="#63b8ff" stroke="#63b8ff" points="562,-194.26 558.5,-184.26 555,-194.26 562,-194.26"/>
</a>
</g>
</g>
<!-- Node4 -->
<g id="Node000004" class="node">
<title>Node4</title>
<g id="a_Node000004"><a xlink:href="MovementManager_8h.html" target="_top" xlink:title=" ">
<polygon fill="white" stroke="#666666" points="384,-184 255,-184 255,-165 384,-165 384,-184"/>
<text text-anchor="middle" x="319.5" y="-172" font-family="Helvetica,sans-Serif" font-size="10.00">../MovementManager.h</text>
</a>
</g>
</g>
<!-- Node1&#45;&gt;Node4 -->
<g id="edge3_Node000001_Node000004" class="edge">
<title>Node1&#45;&gt;Node4</title>
<g id="a_edge3_Node000001_Node000004"><a xlink:title=" ">
<path fill="none" stroke="#63b8ff" d="M485.49,-219.95C444.64,-209.01 395.19,-195.77 360.95,-186.6"/>
<polygon fill="#63b8ff" stroke="#63b8ff" points="361.84,-183.21 351.27,-184.01 360.03,-189.98 361.84,-183.21"/>
</a>
</g>
</g>
<!-- Node10 -->
<g id="Node000010" class="node">
<title>Node10</title>
<g id="a_Node000010"><a xlink:href="Movement_8h.html" target="_top" xlink:title=" ">
<polygon fill="white" stroke="#666666" points="147,-129 0,-129 0,-110 147,-110 147,-129"/>
<text text-anchor="middle" x="73.5" y="-117" font-family="Helvetica,sans-Serif" font-size="10.00">./components/Movement.h</text>
</a>
</g>
</g>
<!-- Node1&#45;&gt;Node10 -->
<g id="edge30_Node000001_Node000010" class="edge">
<title>Node1&#45;&gt;Node10</title>
<g id="a_edge30_Node000001_Node000010"><a xlink:title=" ">
<path fill="none" stroke="#63b8ff" d="M480.47,-229.61C416.63,-220.57 324.34,-205.36 245.5,-184 194.05,-170.06 136.31,-147.18 102.52,-133.03"/>
<polygon fill="#63b8ff" stroke="#63b8ff" points="103.82,-129.78 93.25,-129.11 101.1,-136.23 103.82,-129.78"/>
</a>
</g>
</g>
<!-- Node12 -->
<g id="Node000012" class="node">
<title>Node12</title>
<g id="a_Node000012"><a xlink:href="PositionManager_8h.html" target="_top" xlink:title=" ">
<polygon fill="white" stroke="#666666" points="414,-129 307,-129 307,-110 414,-110 414,-129"/>
<text text-anchor="middle" x="360.5" y="-117" font-family="Helvetica,sans-Serif" font-size="10.00">PositionManager.h</text>
</a>
</g>
</g>
<!-- Node1&#45;&gt;Node12 -->
<g id="edge20_Node000001_Node000012" class="edge">
<title>Node1&#45;&gt;Node12</title>
<g id="a_edge20_Node000001_Node000012"><a xlink:title=" ">
<path fill="none" stroke="#63b8ff" d="M525.8,-219.85C485.67,-195.73 418.64,-155.45 383.54,-134.35"/>
<polygon fill="#63b8ff" stroke="#63b8ff" points="385.31,-131.33 374.93,-129.18 381.7,-137.33 385.31,-131.33"/>
</a>
</g>
</g>
<!-- Node16 -->
<g id="Node000016" class="node">
<title>Node16</title>
<g id="a_Node000016"><a xlink:title=" ">
<polygon fill="#e0e0e0" stroke="#999999" points="1014.5,-74 954.5,-74 954.5,-55 1014.5,-55 1014.5,-74"/>
<text text-anchor="middle" x="984.5" y="-62" font-family="Helvetica,sans-Serif" font-size="10.00">iostream</text>
</a>
</g>
</g>
<!-- Node1&#45;&gt;Node16 -->
<g id="edge32_Node000001_Node000016" class="edge">
<title>Node1&#45;&gt;Node16</title>
<g id="a_edge32_Node000001_Node000016"><a xlink:title=" ">
<path fill="none" stroke="#63b8ff" d="M636.51,-230.65C747.73,-216.26 943.14,-183.72 985.5,-129 995.19,-116.48 993.7,-98.02 990.51,-84.23"/>
<polygon fill="#63b8ff" stroke="#63b8ff" points="993.83,-83.07 987.78,-74.37 987.08,-84.94 993.83,-83.07"/>
</a>
</g>
</g>
<!-- Node17 -->
<g id="Node000017" class="node">
<title>Node17</title>
<g id="a_Node000017"><a xlink:href="Grid_8h.html" target="_top" xlink:title=" ">
<polygon fill="white" stroke="#666666" points="726.5,-184 662.5,-184 662.5,-165 726.5,-165 726.5,-184"/>
<text text-anchor="middle" x="694.5" y="-172" font-family="Helvetica,sans-Serif" font-size="10.00">../../Grid.h</text>
</a>
</g>
</g>
<!-- Node1&#45;&gt;Node17 -->
<g id="edge21_Node000001_Node000017" class="edge">
<title>Node1&#45;&gt;Node17</title>
<g id="a_edge21_Node000001_Node000017"><a xlink:title=" ">
<path fill="none" stroke="#63b8ff" d="M600.04,-219.95C621.83,-209.7 647.91,-197.43 667.14,-188.38"/>
<polygon fill="#63b8ff" stroke="#63b8ff" points="668.68,-191.52 676.24,-184.09 665.7,-185.18 668.68,-191.52"/>
</a>
</g>
</g>
<!-- Node22 -->
<g id="Node000022" class="node">
<title>Node22</title>
<g id="a_Node000022"><a xlink:title=" ">
<polygon fill="#e0e0e0" stroke="#999999" points="1122.5,-184 1050.5,-184 1050.5,-165 1122.5,-165 1122.5,-184"/>
<text text-anchor="middle" x="1086.5" y="-172" font-family="Helvetica,sans-Serif" font-size="10.00">SDL3/SDL.h</text>
</a>
</g>
</g>
<!-- Node1&#45;&gt;Node22 -->
<g id="edge31_Node000001_Node000022" class="edge">
<title>Node1&#45;&gt;Node22</title>
<g id="a_edge31_Node000001_Node000022"><a xlink:title=" ">
<path fill="none" stroke="#63b8ff" d="M636.91,-231.68C731.73,-221.93 896.11,-204.07 1036.5,-184 1037.77,-183.82 1039.07,-183.63 1040.37,-183.43"/>
<polygon fill="#63b8ff" stroke="#63b8ff" points="1041.14,-186.86 1050.49,-181.86 1040.07,-179.94 1041.14,-186.86"/>
</a>
</g>
</g>
<!-- Node3 -->
<g id="Node000003" class="node">
<title>Node3</title>
<g id="a_Node000003"><a xlink:title=" ">
<polygon fill="#e0e0e0" stroke="#999999" points="580.5,-129 536.5,-129 536.5,-110 580.5,-110 580.5,-129"/>
<text text-anchor="middle" x="558.5" y="-117" font-family="Helvetica,sans-Serif" font-size="10.00">string</text>
</a>
</g>
</g>
<!-- Node2&#45;&gt;Node3 -->
<g id="edge2_Node000002_Node000003" class="edge">
<title>Node2&#45;&gt;Node3</title>
<g id="a_edge2_Node000002_Node000003"><a xlink:title=" ">
<path fill="none" stroke="#63b8ff" d="M558.5,-164.75C558.5,-157.8 558.5,-147.85 558.5,-139.13"/>
<polygon fill="#63b8ff" stroke="#63b8ff" points="562,-139.09 558.5,-129.09 555,-139.09 562,-139.09"/>
</a>
</g>
</g>
<!-- Node5 -->
<g id="Node000005" class="node">
<title>Node5</title>
<g id="a_Node000005"><a xlink:title=" ">
<polygon fill="#e0e0e0" stroke="#999999" points="697,-74 604,-74 604,-55 697,-55 697,-74"/>
<text text-anchor="middle" x="650.5" y="-62" font-family="Helvetica,sans-Serif" font-size="10.00">unordered_map</text>
</a>
</g>
</g>
<!-- Node4&#45;&gt;Node5 -->
<g id="edge4_Node000004_Node000005" class="edge">
<title>Node4&#45;&gt;Node5</title>
<g id="a_edge4_Node000004_Node000005"><a xlink:title=" ">
<path fill="none" stroke="#63b8ff" d="M340.14,-164.91C361.02,-156.14 394.18,-142.01 422.5,-129 440.02,-120.95 443.34,-116.47 461.5,-110 504.93,-94.52 555.91,-82.88 593.97,-75.4"/>
<polygon fill="#63b8ff" stroke="#63b8ff" points="594.69,-78.82 603.84,-73.49 593.36,-71.95 594.69,-78.82"/>
</a>
</g>
</g>
<!-- Node6 -->
<g id="Node000006" class="node">
<title>Node6</title>
<g id="a_Node000006"><a xlink:title=" ">
<polygon fill="#e0e0e0" stroke="#999999" points="306.5,-74 248.5,-74 248.5,-55 306.5,-55 306.5,-74"/>
<text text-anchor="middle" x="277.5" y="-62" font-family="Helvetica,sans-Serif" font-size="10.00">memory</text>
</a>
</g>
</g>
<!-- Node4&#45;&gt;Node6 -->
<g id="edge5_Node000004_Node000006" class="edge">
<title>Node4&#45;&gt;Node6</title>
<g id="a_edge5_Node000004_Node000006"><a xlink:title=" ">
<path fill="none" stroke="#63b8ff" d="M314.71,-164.82C309.95,-155.98 302.64,-141.79 297.5,-129 291.57,-114.24 286.23,-96.99 282.57,-84.19"/>
<polygon fill="#63b8ff" stroke="#63b8ff" points="285.86,-82.97 279.8,-74.28 279.11,-84.85 285.86,-82.97"/>
</a>
</g>
</g>
<!-- Node7 -->
<g id="Node000007" class="node">
<title>Node7</title>
<g id="a_Node000007"><a xlink:title=" ">
<polygon fill="#e0e0e0" stroke="#999999" points="212,-129 165,-129 165,-110 212,-110 212,-129"/>
<text text-anchor="middle" x="188.5" y="-117" font-family="Helvetica,sans-Serif" font-size="10.00">cmath</text>
</a>
</g>
</g>
<!-- Node4&#45;&gt;Node7 -->
<g id="edge6_Node000004_Node000007" class="edge">
<title>Node4&#45;&gt;Node7</title>
<g id="a_edge6_Node000004_Node000007"><a xlink:title=" ">
<path fill="none" stroke="#63b8ff" d="M298.45,-164.98C277.09,-156.34 243.8,-142.87 219.44,-133.02"/>
<polygon fill="#63b8ff" stroke="#63b8ff" points="220.51,-129.68 209.93,-129.17 217.89,-136.17 220.51,-129.68"/>
</a>
</g>
</g>
<!-- Node8 -->
<g id="Node000008" class="node">
<title>Node8</title>
<g id="a_Node000008"><a xlink:title=" ">
<polygon fill="#e0e0e0" stroke="#999999" points="518,-129 471,-129 471,-110 518,-110 518,-129"/>
<text text-anchor="middle" x="494.5" y="-117" font-family="Helvetica,sans-Serif" font-size="10.00">vector</text>
</a>
</g>
</g>
<!-- Node4&#45;&gt;Node8 -->
<g id="edge7_Node000004_Node000008" class="edge">
<title>Node4&#45;&gt;Node8</title>
<g id="a_edge7_Node000004_Node000008"><a xlink:title=" ">
<path fill="none" stroke="#63b8ff" d="M347.62,-164.98C378.61,-155.6 428.43,-140.51 461.32,-130.55"/>
<polygon fill="#63b8ff" stroke="#63b8ff" points="462.39,-133.88 470.94,-127.63 460.36,-127.18 462.39,-133.88"/>
</a>
</g>
</g>
<!-- Node9 -->
<g id="Node000009" class="node">
<title>Node9</title>
<g id="a_Node000009"><a xlink:href="IComponentManager_8h.html" target="_top" xlink:title=" ">
<polygon fill="white" stroke="#666666" points="230,-74 103,-74 103,-55 230,-55 230,-74"/>
<text text-anchor="middle" x="166.5" y="-62" font-family="Helvetica,sans-Serif" font-size="10.00">IComponentManager.h</text>
</a>
</g>
</g>
<!-- Node4&#45;&gt;Node9 -->
<g id="edge8_Node000004_Node000009" class="edge">
<title>Node4&#45;&gt;Node9</title>
<g id="a_edge8_Node000004_Node000009"><a xlink:title=" ">
<path fill="none" stroke="#63b8ff" d="M307.24,-164.84C281.05,-146.36 219.43,-102.86 187.11,-80.05"/>
<polygon fill="#63b8ff" stroke="#63b8ff" points="189.01,-77.1 178.82,-74.2 184.97,-82.82 189.01,-77.1"/>
</a>
</g>
</g>
<!-- Node4&#45;&gt;Node10 -->
<g id="edge9_Node000004_Node000010" class="edge">
<title>Node4&#45;&gt;Node10</title>
<g id="a_edge9_Node000004_Node000010"><a xlink:title=" ">
<path fill="none" stroke="#63b8ff" d="M279.98,-164.98C237.33,-155.8 169.35,-141.15 123.14,-131.19"/>
<polygon fill="#63b8ff" stroke="#63b8ff" points="123.85,-127.77 113.33,-129.08 122.37,-134.61 123.85,-127.77"/>
</a>
</g>
</g>
<!-- Node4&#45;&gt;Node12 -->
<g id="edge11_Node000004_Node000012" class="edge">
<title>Node4&#45;&gt;Node12</title>
<g id="a_edge11_Node000004_Node000012"><a xlink:title=" ">
<path fill="none" stroke="#63b8ff" d="M326.27,-164.75C332.06,-157.26 340.56,-146.28 347.64,-137.13"/>
<polygon fill="#63b8ff" stroke="#63b8ff" points="350.51,-139.14 353.86,-129.09 344.97,-134.86 350.51,-139.14"/>
</a>
</g>
</g>
<!-- Node11 -->
<g id="Node000011" class="node">
<title>Node11</title>
<g id="a_Node000011"><a xlink:href="IComponent_8h.html" target="_top" xlink:title=" ">
<polygon fill="white" stroke="#666666" points="294.5,-19 200.5,-19 200.5,0 294.5,0 294.5,-19"/>
<text text-anchor="middle" x="247.5" y="-7" font-family="Helvetica,sans-Serif" font-size="10.00">../IComponent.h</text>
</a>
</g>
</g>
<!-- Node10&#45;&gt;Node11 -->
<g id="edge10_Node000010_Node000011" class="edge">
<title>Node10&#45;&gt;Node11</title>
<g id="a_edge10_Node000010_Node000011"><a xlink:title=" ">
<path fill="none" stroke="#63b8ff" d="M73.75,-109.78C74.61,-96.16 78.28,-69.86 93.5,-55 119.1,-30 157.84,-18.89 190.05,-14.02"/>
<polygon fill="#63b8ff" stroke="#63b8ff" points="190.82,-17.45 200.26,-12.65 189.88,-10.51 190.82,-17.45"/>
</a>
</g>
</g>
<!-- Node12&#45;&gt;Node5 -->
<g id="edge17_Node000012_Node000005" class="edge">
<title>Node12&#45;&gt;Node5</title>
<g id="a_edge17_Node000012_Node000005"><a xlink:title=" ">
<path fill="none" stroke="#63b8ff" d="M407.09,-109.98C457.89,-100.7 539.19,-85.84 593.69,-75.88"/>
<polygon fill="#63b8ff" stroke="#63b8ff" points="594.33,-79.32 603.54,-74.08 593.07,-72.44 594.33,-79.32"/>
</a>
</g>
</g>
<!-- Node12&#45;&gt;Node6 -->
<g id="edge18_Node000012_Node000006" class="edge">
<title>Node12&#45;&gt;Node6</title>
<g id="a_edge18_Node000012_Node000006"><a xlink:title=" ">
<path fill="none" stroke="#63b8ff" d="M347.16,-109.98C334.41,-101.84 314.95,-89.41 299.83,-79.76"/>
<polygon fill="#63b8ff" stroke="#63b8ff" points="301.39,-76.6 291.08,-74.17 297.62,-82.5 301.39,-76.6"/>
</a>
</g>
</g>
<!-- Node12&#45;&gt;Node9 -->
<g id="edge16_Node000012_Node000009" class="edge">
<title>Node12&#45;&gt;Node9</title>
<g id="a_edge16_Node000012_Node000009"><a xlink:title=" ">
<path fill="none" stroke="#63b8ff" d="M329.33,-109.98C296.34,-100.97 244.1,-86.7 207.73,-76.76"/>
<polygon fill="#63b8ff" stroke="#63b8ff" points="208.48,-73.34 197.91,-74.08 206.64,-80.09 208.48,-73.34"/>
</a>
</g>
</g>
<!-- Node13 -->
<g id="Node000013" class="node">
<title>Node13</title>
<g id="a_Node000013"><a xlink:href="Entity_8h.html" target="_top" xlink:title=" ">
<polygon fill="white" stroke="#666666" points="586,-74 533,-74 533,-55 586,-55 586,-74"/>
<text text-anchor="middle" x="559.5" y="-62" font-family="Helvetica,sans-Serif" font-size="10.00">Entity.h</text>
</a>
</g>
</g>
<!-- Node12&#45;&gt;Node13 -->
<g id="edge12_Node000012_Node000013" class="edge">
<title>Node12&#45;&gt;Node13</title>
<g id="a_edge12_Node000012_Node000013"><a xlink:title=" ">
<path fill="none" stroke="#63b8ff" d="M392.47,-109.98C428.02,-100.52 485.35,-85.25 522.73,-75.29"/>
<polygon fill="#63b8ff" stroke="#63b8ff" points="523.95,-78.59 532.71,-72.63 522.15,-71.83 523.95,-78.59"/>
</a>
</g>
</g>
<!-- Node15 -->
<g id="Node000015" class="node">
<title>Node15</title>
<g id="a_Node000015"><a xlink:href="PositionComponent_8h.html" target="_top" xlink:title=" ">
<polygon fill="white" stroke="#666666" points="514.5,-74 324.5,-74 324.5,-55 514.5,-55 514.5,-74"/>
<text text-anchor="middle" x="419.5" y="-62" font-family="Helvetica,sans-Serif" font-size="10.00">./components/PositionComponent.h</text>
</a>
</g>
</g>
<!-- Node12&#45;&gt;Node15 -->
<g id="edge14_Node000012_Node000015" class="edge">
<title>Node12&#45;&gt;Node15</title>
<g id="a_edge14_Node000012_Node000015"><a xlink:title=" ">
<path fill="none" stroke="#63b8ff" d="M369.98,-109.98C378.7,-102.15 391.84,-90.34 402.4,-80.86"/>
<polygon fill="#63b8ff" stroke="#63b8ff" points="404.75,-83.46 409.85,-74.17 400.07,-78.25 404.75,-83.46"/>
</a>
</g>
</g>
<!-- Node12&#45;&gt;Node16 -->
<g id="edge19_Node000012_Node000016" class="edge">
<title>Node12&#45;&gt;Node16</title>
<g id="a_edge19_Node000012_Node000016"><a xlink:title=" ">
<path fill="none" stroke="#63b8ff" d="M414.24,-113.94C536.98,-103.51 835.63,-78.14 944.2,-68.92"/>
<polygon fill="#63b8ff" stroke="#63b8ff" points="944.73,-72.39 954.4,-68.06 944.14,-65.42 944.73,-72.39"/>
</a>
</g>
</g>
<!-- Node14 -->
<g id="Node000014" class="node">
<title>Node14</title>
<g id="a_Node000014"><a xlink:title=" ">
<polygon fill="#e0e0e0" stroke="#999999" points="584.5,-19 534.5,-19 534.5,0 584.5,0 584.5,-19"/>
<text text-anchor="middle" x="559.5" y="-7" font-family="Helvetica,sans-Serif" font-size="10.00">cstdint</text>
</a>
</g>
</g>
<!-- Node13&#45;&gt;Node14 -->
<g id="edge13_Node000013_Node000014" class="edge">
<title>Node13&#45;&gt;Node14</title>
<g id="a_edge13_Node000013_Node000014"><a xlink:title=" ">
<path fill="none" stroke="#63b8ff" d="M559.5,-54.75C559.5,-47.8 559.5,-37.85 559.5,-29.13"/>
<polygon fill="#63b8ff" stroke="#63b8ff" points="563,-29.09 559.5,-19.09 556,-29.09 563,-29.09"/>
</a>
</g>
</g>
<!-- Node15&#45;&gt;Node11 -->
<g id="edge15_Node000015_Node000011" class="edge">
<title>Node15&#45;&gt;Node11</title>
<g id="a_edge15_Node000015_Node000011"><a xlink:title=" ">
<path fill="none" stroke="#63b8ff" d="M391.87,-54.98C362.99,-46.09 317.49,-32.07 285.3,-22.15"/>
<polygon fill="#63b8ff" stroke="#63b8ff" points="285.94,-18.68 275.35,-19.08 283.88,-25.37 285.94,-18.68"/>
</a>
</g>
</g>
<!-- Node17&#45;&gt;Node3 -->
<g id="edge25_Node000017_Node000003" class="edge">
<title>Node17&#45;&gt;Node3</title>
<g id="a_edge25_Node000017_Node000003"><a xlink:title=" ">
<path fill="none" stroke="#63b8ff" d="M672.65,-164.98C650.38,-156.3 615.6,-142.75 590.28,-132.88"/>
<polygon fill="#63b8ff" stroke="#63b8ff" points="591.34,-129.54 580.75,-129.17 588.79,-136.06 591.34,-129.54"/>
</a>
</g>
</g>
<!-- Node17&#45;&gt;Node5 -->
<g id="edge26_Node000017_Node000005" class="edge">
<title>Node17&#45;&gt;Node5</title>
<g id="a_edge26_Node000017_Node000005"><a xlink:title=" ">
<path fill="none" stroke="#63b8ff" d="M704.39,-164.69C717.1,-152.26 736.31,-128.98 725.5,-110 717.2,-95.43 702.05,-85.14 687.52,-78.15"/>
<polygon fill="#63b8ff" stroke="#63b8ff" points="688.71,-74.85 678.15,-74.02 685.89,-81.25 688.71,-74.85"/>
</a>
</g>
</g>
<!-- Node17&#45;&gt;Node8 -->
<g id="edge22_Node000017_Node000008" class="edge">
<title>Node17&#45;&gt;Node8</title>
<g id="a_edge22_Node000017_Node000008"><a xlink:title=" ">
<path fill="none" stroke="#63b8ff" d="M662.37,-164.98C625.53,-155.22 565.42,-139.29 528.01,-129.38"/>
<polygon fill="#63b8ff" stroke="#63b8ff" points="528.66,-125.93 518.1,-126.75 526.87,-132.7 528.66,-125.93"/>
</a>
</g>
</g>
<!-- Node17&#45;&gt;Node16 -->
<g id="edge23_Node000017_Node000016" class="edge">
<title>Node17&#45;&gt;Node16</title>
<g id="a_edge23_Node000017_Node000016"><a xlink:title=" ">
<path fill="none" stroke="#63b8ff" d="M726.89,-172.38C790.91,-169.5 930.5,-159.78 965.5,-129 978.04,-117.97 982.47,-99.02 983.95,-84.69"/>
<polygon fill="#63b8ff" stroke="#63b8ff" points="987.46,-84.63 984.61,-74.43 980.48,-84.18 987.46,-84.63"/>
</a>
</g>
</g>
<!-- Node18 -->
<g id="Node000018" class="node">
<title>Node18</title>
<g id="a_Node000018"><a xlink:title=" ">
<polygon fill="#e0e0e0" stroke="#999999" points="956.5,-129 900.5,-129 900.5,-110 956.5,-110 956.5,-129"/>
<text text-anchor="middle" x="928.5" y="-117" font-family="Helvetica,sans-Serif" font-size="10.00">iomanip</text>
</a>
</g>
</g>
<!-- Node17&#45;&gt;Node18 -->
<g id="edge24_Node000017_Node000018" class="edge">
<title>Node17&#45;&gt;Node18</title>
<g id="a_edge24_Node000017_Node000018"><a xlink:title=" ">
<path fill="none" stroke="#63b8ff" d="M726.58,-166.29C763.67,-157.95 826.83,-143.72 890.43,-129.24"/>
<polygon fill="#63b8ff" stroke="#63b8ff" points="891.25,-132.64 900.22,-127.01 889.69,-125.82 891.25,-132.64"/>
</a>
</g>
</g>
<!-- Node19 -->
<g id="Node000019" class="node">
<title>Node19</title>
<g id="a_Node000019"><a xlink:title=" ">
<polygon fill="#e0e0e0" stroke="#999999" points="654,-129 599,-129 599,-110 654,-110 654,-129"/>
<text text-anchor="middle" x="626.5" y="-117" font-family="Helvetica,sans-Serif" font-size="10.00">fstream</text>
</a>
</g>
</g>
<!-- Node17&#45;&gt;Node19 -->
<g id="edge27_Node000017_Node000019" class="edge">
<title>Node17&#45;&gt;Node19</title>
<g id="a_edge27_Node000017_Node000019"><a xlink:title=" ">
<path fill="none" stroke="#63b8ff" d="M683.57,-164.98C673.42,-157.07 658.08,-145.11 645.85,-135.58"/>
<polygon fill="#63b8ff" stroke="#63b8ff" points="647.66,-132.56 637.62,-129.17 643.36,-138.08 647.66,-132.56"/>
</a>
</g>
</g>
<!-- Node20 -->
<g id="Node000020" class="node">
<title>Node20</title>
<g id="a_Node000020"><a xlink:title=" ">
<polygon fill="#e0e0e0" stroke="#999999" points="716.5,-129 672.5,-129 672.5,-110 716.5,-110 716.5,-129"/>
<text text-anchor="middle" x="694.5" y="-117" font-family="Helvetica,sans-Serif" font-size="10.00">regex</text>
</a>
</g>
</g>
<!-- Node17&#45;&gt;Node20 -->
<g id="edge28_Node000017_Node000020" class="edge">
<title>Node17&#45;&gt;Node20</title>
<g id="a_edge28_Node000017_Node000020"><a xlink:title=" ">
<path fill="none" stroke="#63b8ff" d="M694.5,-164.75C694.5,-157.8 694.5,-147.85 694.5,-139.13"/>
<polygon fill="#63b8ff" stroke="#63b8ff" points="698,-139.09 694.5,-129.09 691,-139.09 698,-139.09"/>
</a>
</g>
</g>
<!-- Node21 -->
<g id="Node000021" class="node">
<title>Node21</title>
<g id="a_Node000021"><a xlink:title=" ">
<polygon fill="#e0e0e0" stroke="#999999" points="882.5,-129 772.5,-129 772.5,-110 882.5,-110 882.5,-129"/>
<text text-anchor="middle" x="827.5" y="-117" font-family="Helvetica,sans-Serif" font-size="10.00">nlohmann/json.hpp</text>
</a>
</g>
</g>
<!-- Node17&#45;&gt;Node21 -->
<g id="edge29_Node000017_Node000021" class="edge">
<title>Node17&#45;&gt;Node21</title>
<g id="a_edge29_Node000017_Node000021"><a xlink:title=" ">
<path fill="none" stroke="#63b8ff" d="M715.87,-164.98C737.65,-156.3 771.66,-142.75 796.42,-132.88"/>
<polygon fill="#63b8ff" stroke="#63b8ff" points="797.75,-136.12 805.74,-129.17 795.16,-129.62 797.75,-136.12"/>
</a>
</g>
</g>
</g>
</svg>

<g id="navigator" transform="translate(0 0)" fill="#404254">
  <rect fill="#f2f5e9" fill-opacity="0.5" stroke="#606060" stroke-width=".5" x="0" y="0" width="60" height="60"/>
  <use id="zoomplus" xlink:href="#zoomPlus" x="17" y="9" onmousedown="handleZoom(evt,'in')"/>
  <use id="zoomminus" xlink:href="#zoomMin" x="42" y="9" onmousedown="handleZoom(evt,'out')"/>
  <use id="reset" xlink:href="#resetDef" x="30" y="36" onmousedown="handleReset()"/>
   <use id="arrowup" xlink:href="#arrowUp" x="0" y="0" onmousedown="handlePan(0,-1)"/>
  <use id="arrowright" xlink:href="#arrowRight" x="0" y="0" onmousedown="handlePan(1,0)"/>
  <use id="arrowdown" xlink:href="#arrowDown" x="0" y="0" onmousedown="handlePan(0,1)"/>
  <use id="arrowleft" xlink:href="#arrowLeft" x="0" y="0" onmousedown="handlePan(-1,0)"/>
</g>
<svg viewBox="0 0 15 15" width="100%" height="30px" preserveAspectRatio="xMaxYMin meet">
 <g id="arrow_out" transform="scale(0.3 0.3)">
  <a xlink:href="PlayerController_8h__incl_org.svg" target="_base">
   <rect id="button" ry="5" rx="5" y="6" x="6" height="38" width="38"
        fill="#f2f5e9" fill-opacity="0.5" stroke="#606060" stroke-width="1.0"/>
   <path id="arrow"
     d="M 11.500037,31.436501 C 11.940474,20.09759 22.043105,11.32322 32.158766,21.979434 L 37.068811,17.246167 C 37.068811,17.246167 37.088388,32 37.088388,32 L 22.160133,31.978069 C 22.160133,31.978069 26.997745,27.140456 26.997745,27.140456 C 18.528582,18.264221 13.291696,25.230495 11.500037,31.436501 z"
     style="fill:#404040;"/>
  </a>
 </g>
</svg>

<style type='text/css'>
<![CDATA[
[data-mouse-over-selected='false'] { opacity: 0.7; }
[data-mouse-over-selected='true']  { opacity: 1.0; }
]]>
</style>
<script type="application/ecmascript"><![CDATA[
document.addEventListener('DOMContentLoaded', (event) => {
  highlightEdges();
  highlightAdjacentNodes();
});
]]></script>
</svg>
