<?xml version="1.0" encoding="UTF-8" standalone="no"?>
<!DOCTYPE svg PUBLIC "-//W3C//DTD SVG 1.1//EN"
 "http://www.w3.org/Graphics/SVG/1.1/DTD/svg11.dtd">
<!-- Generated by graphviz version 2.43.0 (0)
 -->
<!-- Title: /home/sean/Projects/Brenda/src/ECS/PositionManager.h Pages: 1 -->
<svg width="939pt" height="390pt"
 viewBox="0.00 0.00 939.05 390.00" xmlns="http://www.w3.org/2000/svg" xmlns:xlink="http://www.w3.org/1999/xlink">
<g id="graph0" class="graph" transform="scale(1 1) rotate(0) translate(4 386)">
<title>/home/sean/Projects/Brenda/src/ECS/PositionManager.h</title>
<!-- Node1 -->
<g id="Node000001" class="node">
<title>Node1</title>
<g id="a_Node000001"><a xlink:title=" ">
<polygon fill="#999999" stroke="#666666" points="431.81,-382 245.81,-382 245.81,-352 431.81,-352 431.81,-382"/>
<text text-anchor="start" x="253.81" y="-370" font-family="Helvetica,sans-Serif" font-size="10.00">/home/sean/Projects</text>
<text text-anchor="middle" x="338.81" y="-359" font-family="Helvetica,sans-Serif" font-size="10.00">/Brenda/src/ECS/PositionManager.h</text>
</a>
</g>
</g>
<!-- Node2 -->
<g id="Node000002" class="node">
<title>Node2</title>
<g id="a_Node000002"><a xlink:href="AISystem_8h.html" target="_top" xlink:title=" ">
<polygon fill="white" stroke="#666666" points="647.81,-244.5 517.81,-244.5 517.81,-214.5 647.81,-214.5 647.81,-244.5"/>
<text text-anchor="start" x="525.81" y="-232.5" font-family="Helvetica,sans-Serif" font-size="10.00">/home/sean/Projects</text>
<text text-anchor="middle" x="582.81" y="-221.5" font-family="Helvetica,sans-Serif" font-size="10.00">/Brenda/src/AISystem.h</text>
</a>
</g>
</g>
<!-- Node1&#45;&gt;Node2 -->
<g id="edge1_Node000001_Node000002" class="edge">
<title>Node1&#45;&gt;Node2</title>
<g id="a_edge1_Node000001_Node000002"><a xlink:title=" ">
<path fill="none" stroke="#63b8ff" d="M373.24,-346.88C422.91,-319.3 513.52,-268.98 557.51,-244.55"/>
<polygon fill="#63b8ff" stroke="#63b8ff" points="371.51,-343.84 364.47,-351.76 374.91,-349.96 371.51,-343.84"/>
</a>
</g>
</g>
<!-- Node5 -->
<g id="Node000005" class="node">
<title>Node5</title>
<g id="a_Node000005"><a xlink:href="ControllerManager_8h.html" target="_top" xlink:title=" ">
<polygon fill="white" stroke="#666666" points="209.81,-173 65.81,-173 65.81,-132 209.81,-132 209.81,-173"/>
<text text-anchor="start" x="73.81" y="-161" font-family="Helvetica,sans-Serif" font-size="10.00">/home/sean/Projects</text>
<text text-anchor="start" x="73.81" y="-150" font-family="Helvetica,sans-Serif" font-size="10.00">/Brenda/src/ECS/Controller</text>
<text text-anchor="middle" x="137.81" y="-139" font-family="Helvetica,sans-Serif" font-size="10.00">Manager.h</text>
</a>
</g>
</g>
<!-- Node1&#45;&gt;Node5 -->
<g id="edge4_Node000001_Node000005" class="edge">
<title>Node1&#45;&gt;Node5</title>
<g id="a_edge4_Node000001_Node000005"><a xlink:title=" ">
<path fill="none" stroke="#63b8ff" d="M235.76,-357.45C188.34,-350.6 132.4,-338.25 85.81,-316 44.53,-296.28 26.19,-291.44 6.81,-250 -0.9,-233.49 -3.25,-224.19 6.81,-209 20.32,-188.61 42.97,-175.69 65.67,-167.52"/>
<polygon fill="#63b8ff" stroke="#63b8ff" points="235.36,-360.93 245.75,-358.83 236.32,-354 235.36,-360.93"/>
</a>
</g>
</g>
<!-- Node7 -->
<g id="Node000007" class="node">
<title>Node7</title>
<g id="a_Node000007"><a xlink:href="Scene_8h.html" target="_top" xlink:title=" ">
<polygon fill="white" stroke="#666666" points="381.81,-96 265.81,-96 265.81,-66 381.81,-66 381.81,-96"/>
<text text-anchor="start" x="273.81" y="-84" font-family="Helvetica,sans-Serif" font-size="10.00">/home/sean/Projects</text>
<text text-anchor="middle" x="323.81" y="-73" font-family="Helvetica,sans-Serif" font-size="10.00">/Brenda/src/Scene.h</text>
</a>
</g>
</g>
<!-- Node1&#45;&gt;Node7 -->
<g id="edge25_Node000001_Node000007" class="edge">
<title>Node1&#45;&gt;Node7</title>
<g id="a_edge25_Node000001_Node000007"><a xlink:title=" ">
<path fill="none" stroke="#63b8ff" d="M337.53,-341.61C334.49,-284.13 326.96,-141.62 324.56,-96.17"/>
<polygon fill="#63b8ff" stroke="#63b8ff" points="334.05,-342.11 338.07,-351.92 341.04,-341.75 334.05,-342.11"/>
</a>
</g>
</g>
<!-- Node8 -->
<g id="Node000008" class="node">
<title>Node8</title>
<g id="a_Node000008"><a xlink:href="InfoBoxManager_8h.html" target="_top" xlink:title=" ">
<polygon fill="white" stroke="#666666" points="774.31,-316 589.31,-316 589.31,-286 774.31,-286 774.31,-316"/>
<text text-anchor="start" x="597.31" y="-304" font-family="Helvetica,sans-Serif" font-size="10.00">/home/sean/Projects</text>
<text text-anchor="middle" x="681.81" y="-293" font-family="Helvetica,sans-Serif" font-size="10.00">/Brenda/src/ECS/InfoBoxManager.h</text>
</a>
</g>
</g>
<!-- Node1&#45;&gt;Node8 -->
<g id="edge9_Node000001_Node000008" class="edge">
<title>Node1&#45;&gt;Node8</title>
<g id="a_edge9_Node000001_Node000008"><a xlink:title=" ">
<path fill="none" stroke="#63b8ff" d="M424,-350.11C480.08,-339.64 552.81,-326.07 606.72,-316.01"/>
<polygon fill="#63b8ff" stroke="#63b8ff" points="423.28,-346.68 414.09,-351.95 424.56,-353.56 423.28,-346.68"/>
</a>
</g>
</g>
<!-- Node10 -->
<g id="Node000010" class="node">
<title>Node10</title>
<g id="a_Node000010"><a xlink:href="MovementManager_8h.html" target="_top" xlink:title=" ">
<polygon fill="white" stroke="#666666" points="310.81,-316 110.81,-316 110.81,-286 310.81,-286 310.81,-316"/>
<text text-anchor="start" x="118.81" y="-304" font-family="Helvetica,sans-Serif" font-size="10.00">/home/sean/Projects</text>
<text text-anchor="middle" x="210.81" y="-293" font-family="Helvetica,sans-Serif" font-size="10.00">/Brenda/src/ECS/MovementManager.h</text>
</a>
</g>
</g>
<!-- Node1&#45;&gt;Node10 -->
<g id="edge14_Node000001_Node000010" class="edge">
<title>Node1&#45;&gt;Node10</title>
<g id="a_edge14_Node000001_Node000010"><a xlink:title=" ">
<path fill="none" stroke="#63b8ff" d="M301.57,-347.38C281.54,-337.36 257.25,-325.22 238.84,-316.01"/>
<polygon fill="#63b8ff" stroke="#63b8ff" points="300.21,-350.61 310.72,-351.95 303.35,-344.35 300.21,-350.61"/>
</a>
</g>
</g>
<!-- Node11 -->
<g id="Node000011" class="node">
<title>Node11</title>
<g id="a_Node000011"><a xlink:href="PlayerController_8h.html" target="_top" xlink:title=" ">
<polygon fill="white" stroke="#666666" points="171.81,-250 15.81,-250 15.81,-209 171.81,-209 171.81,-250"/>
<text text-anchor="start" x="23.81" y="-238" font-family="Helvetica,sans-Serif" font-size="10.00">/home/sean/Projects</text>
<text text-anchor="start" x="23.81" y="-227" font-family="Helvetica,sans-Serif" font-size="10.00">/Brenda/src/ECS/components</text>
<text text-anchor="middle" x="93.81" y="-216" font-family="Helvetica,sans-Serif" font-size="10.00">/PlayerController.h</text>
</a>
</g>
</g>
<!-- Node1&#45;&gt;Node11 -->
<g id="edge24_Node000001_Node000011" class="edge">
<title>Node1&#45;&gt;Node11</title>
<g id="a_edge24_Node000001_Node000011"><a xlink:title=" ">
<path fill="none" stroke="#63b8ff" d="M235.3,-356.28C180.1,-348.82 119.89,-336.28 101.81,-316 85.94,-298.19 86.78,-269.25 89.65,-250.04"/>
<polygon fill="#63b8ff" stroke="#63b8ff" points="235.17,-359.79 245.53,-357.61 236.07,-352.85 235.17,-359.79"/>
</a>
</g>
</g>
<!-- Node12 -->
<g id="Node000012" class="node">
<title>Node12</title>
<g id="a_Node000012"><a xlink:href="RenderableManager_8h.html" target="_top" xlink:title=" ">
<polygon fill="white" stroke="#666666" points="493.81,-173 341.81,-173 341.81,-132 493.81,-132 493.81,-173"/>
<text text-anchor="start" x="349.81" y="-161" font-family="Helvetica,sans-Serif" font-size="10.00">/home/sean/Projects</text>
<text text-anchor="start" x="349.81" y="-150" font-family="Helvetica,sans-Serif" font-size="10.00">/Brenda/src/ECS/Renderable</text>
<text text-anchor="middle" x="417.81" y="-139" font-family="Helvetica,sans-Serif" font-size="10.00">Manager.h</text>
</a>
</g>
</g>
<!-- Node1&#45;&gt;Node12 -->
<g id="edge21_Node000001_Node000012" class="edge">
<title>Node1&#45;&gt;Node12</title>
<g id="a_edge21_Node000001_Node000012"><a xlink:title=" ">
<path fill="none" stroke="#63b8ff" d="M347.65,-342.23C363.39,-299.9 395.98,-212.23 410.53,-173.1"/>
<polygon fill="#63b8ff" stroke="#63b8ff" points="344.32,-341.13 344.12,-351.73 350.89,-343.57 344.32,-341.13"/>
</a>
</g>
</g>
<!-- Node3 -->
<g id="Node000003" class="node">
<title>Node3</title>
<g id="a_Node000003"><a xlink:href="AISystem_8cpp.html" target="_top" xlink:title=" ">
<polygon fill="white" stroke="#666666" points="653.31,-167.5 512.31,-167.5 512.31,-137.5 653.31,-137.5 653.31,-167.5"/>
<text text-anchor="start" x="520.31" y="-155.5" font-family="Helvetica,sans-Serif" font-size="10.00">/home/sean/Projects</text>
<text text-anchor="middle" x="582.81" y="-144.5" font-family="Helvetica,sans-Serif" font-size="10.00">/Brenda/src/AISystem.cpp</text>
</a>
</g>
</g>
<!-- Node2&#45;&gt;Node3 -->
<g id="edge2_Node000002_Node000003" class="edge">
<title>Node2&#45;&gt;Node3</title>
<g id="a_edge2_Node000002_Node000003"><a xlink:title=" ">
<path fill="none" stroke="#63b8ff" d="M582.81,-204.04C582.81,-191.95 582.81,-177.79 582.81,-167.54"/>
<polygon fill="#63b8ff" stroke="#63b8ff" points="579.31,-204.39 582.81,-214.39 586.31,-204.39 579.31,-204.39"/>
</a>
</g>
</g>
<!-- Node4 -->
<g id="Node000004" class="node">
<title>Node4</title>
<g id="a_Node000004"><a xlink:href="main_8cpp.html" target="_top" xlink:title=" ">
<polygon fill="white" stroke="#666666" points="798.31,-30 679.31,-30 679.31,0 798.31,0 798.31,-30"/>
<text text-anchor="start" x="687.31" y="-18" font-family="Helvetica,sans-Serif" font-size="10.00">/home/sean/Projects</text>
<text text-anchor="middle" x="738.81" y="-7" font-family="Helvetica,sans-Serif" font-size="10.00">/Brenda/src/main.cpp</text>
</a>
</g>
</g>
<!-- Node2&#45;&gt;Node4 -->
<g id="edge3_Node000002_Node000004" class="edge">
<title>Node2&#45;&gt;Node4</title>
<g id="a_edge3_Node000002_Node000004"><a xlink:title=" ">
<path fill="none" stroke="#63b8ff" d="M618.59,-209.24C633.65,-199.81 650.51,-187.39 662.81,-173 701.39,-127.89 725.45,-59.83 734.6,-30.4"/>
<polygon fill="#63b8ff" stroke="#63b8ff" points="616.73,-206.27 609.97,-214.43 620.34,-212.26 616.73,-206.27"/>
</a>
</g>
</g>
<!-- Node6 -->
<g id="Node000006" class="node">
<title>Node6</title>
<g id="a_Node000006"><a xlink:href="Scene_8cpp.html" target="_top" xlink:title=" ">
<polygon fill="white" stroke="#666666" points="342.81,-30 218.81,-30 218.81,0 342.81,0 342.81,-30"/>
<text text-anchor="start" x="226.81" y="-18" font-family="Helvetica,sans-Serif" font-size="10.00">/home/sean/Projects</text>
<text text-anchor="middle" x="280.81" y="-7" font-family="Helvetica,sans-Serif" font-size="10.00">/Brenda/src/Scene.cpp</text>
</a>
</g>
</g>
<!-- Node5&#45;&gt;Node6 -->
<g id="edge5_Node000005_Node000006" class="edge">
<title>Node5&#45;&gt;Node6</title>
<g id="a_edge5_Node000005_Node000006"><a xlink:title=" ">
<path fill="none" stroke="#63b8ff" d="M164.25,-124.37C181.05,-107.34 203.4,-85.07 223.81,-66 237.09,-53.6 252.62,-40.04 264.11,-30.17"/>
<polygon fill="#63b8ff" stroke="#63b8ff" points="161.46,-122.21 156.94,-131.79 166.45,-127.12 161.46,-122.21"/>
</a>
</g>
</g>
<!-- Node5&#45;&gt;Node7 -->
<g id="edge6_Node000005_Node000007" class="edge">
<title>Node5&#45;&gt;Node7</title>
<g id="a_edge6_Node000005_Node000007"><a xlink:title=" ">
<path fill="none" stroke="#63b8ff" d="M199.66,-128.39C228.35,-117.67 261.51,-105.28 286.34,-96"/>
<polygon fill="#63b8ff" stroke="#63b8ff" points="198.26,-125.18 190.12,-131.96 200.71,-131.73 198.26,-125.18"/>
</a>
</g>
</g>
<!-- Node7&#45;&gt;Node4 -->
<g id="edge8_Node000007_Node000004" class="edge">
<title>Node7&#45;&gt;Node4</title>
<g id="a_edge8_Node000007_Node000004"><a xlink:title=" ">
<path fill="none" stroke="#63b8ff" d="M391.92,-69.5C471.8,-57.18 602.96,-36.95 679.05,-25.22"/>
<polygon fill="#63b8ff" stroke="#63b8ff" points="391.31,-66.05 381.96,-71.03 392.37,-72.97 391.31,-66.05"/>
</a>
</g>
</g>
<!-- Node7&#45;&gt;Node6 -->
<g id="edge7_Node000007_Node000006" class="edge">
<title>Node7&#45;&gt;Node6</title>
<g id="a_edge7_Node000007_Node000006"><a xlink:title=" ">
<path fill="none" stroke="#63b8ff" d="M308.53,-57.24C302.46,-48.21 295.67,-38.11 290.33,-30.16"/>
<polygon fill="#63b8ff" stroke="#63b8ff" points="305.79,-59.45 314.27,-65.8 311.6,-55.54 305.79,-59.45"/>
</a>
</g>
</g>
<!-- Node8&#45;&gt;Node2 -->
<g id="edge10_Node000008_Node000002" class="edge">
<title>Node8&#45;&gt;Node2</title>
<g id="a_edge10_Node000008_Node000002"><a xlink:title=" ">
<path fill="none" stroke="#63b8ff" d="M653.24,-279.94C637.09,-268.6 617.3,-254.71 602.82,-244.54"/>
<polygon fill="#63b8ff" stroke="#63b8ff" points="651.58,-283.05 661.78,-285.94 655.61,-277.33 651.58,-283.05"/>
</a>
</g>
</g>
<!-- Node8&#45;&gt;Node4 -->
<g id="edge13_Node000008_Node000004" class="edge">
<title>Node8&#45;&gt;Node4</title>
<g id="a_edge13_Node000008_Node000004"><a xlink:title=" ">
<path fill="none" stroke="#63b8ff" d="M784.6,-290.61C839.03,-283.28 898.04,-270.75 914.81,-250 980.48,-168.75 827.31,-67.16 764.32,-30.24"/>
<polygon fill="#63b8ff" stroke="#63b8ff" points="783.97,-287.16 774.5,-291.92 784.87,-294.11 783.97,-287.16"/>
</a>
</g>
</g>
<!-- Node8&#45;&gt;Node6 -->
<g id="edge12_Node000008_Node000006" class="edge">
<title>Node8&#45;&gt;Node6</title>
<g id="a_edge12_Node000008_Node000006"><a xlink:title=" ">
<path fill="none" stroke="#63b8ff" d="M686.61,-275.85C692.22,-240.09 696.86,-172.89 662.81,-132 621.79,-82.73 440.57,-44.09 343.2,-26.45"/>
<polygon fill="#63b8ff" stroke="#63b8ff" points="683.13,-275.43 684.88,-285.88 690.03,-276.62 683.13,-275.43"/>
</a>
</g>
</g>
<!-- Node9 -->
<g id="Node000009" class="node">
<title>Node9</title>
<g id="a_Node000009"><a xlink:href="InfoBoxManager_8cpp.html" target="_top" xlink:title=" ">
<polygon fill="white" stroke="#666666" points="905.81,-244.5 709.81,-244.5 709.81,-214.5 905.81,-214.5 905.81,-244.5"/>
<text text-anchor="start" x="717.81" y="-232.5" font-family="Helvetica,sans-Serif" font-size="10.00">/home/sean/Projects</text>
<text text-anchor="middle" x="807.81" y="-221.5" font-family="Helvetica,sans-Serif" font-size="10.00">/Brenda/src/ECS/InfoBoxManager.cpp</text>
</a>
</g>
</g>
<!-- Node8&#45;&gt;Node9 -->
<g id="edge11_Node000008_Node000009" class="edge">
<title>Node8&#45;&gt;Node9</title>
<g id="a_edge11_Node000008_Node000009"><a xlink:title=" ">
<path fill="none" stroke="#63b8ff" d="M716.2,-281.03C737.09,-269.51 763.32,-255.04 782.35,-244.54"/>
<polygon fill="#63b8ff" stroke="#63b8ff" points="714.38,-278.04 707.31,-285.94 717.76,-284.17 714.38,-278.04"/>
</a>
</g>
</g>
<!-- Node10&#45;&gt;Node2 -->
<g id="edge15_Node000010_Node000002" class="edge">
<title>Node10&#45;&gt;Node2</title>
<g id="a_edge15_Node000010_Node000002"><a xlink:title=" ">
<path fill="none" stroke="#63b8ff" d="M296.26,-284.04C363.61,-271.45 456.11,-254.17 517.59,-242.69"/>
<polygon fill="#63b8ff" stroke="#63b8ff" points="295.28,-280.66 286.09,-285.94 296.57,-287.54 295.28,-280.66"/>
</a>
</g>
</g>
<!-- Node10&#45;&gt;Node5 -->
<g id="edge16_Node000010_Node000005" class="edge">
<title>Node10&#45;&gt;Node5</title>
<g id="a_edge16_Node000010_Node000005"><a xlink:title=" ">
<path fill="none" stroke="#63b8ff" d="M205.29,-275.96C200.39,-257.07 192.23,-230.46 180.81,-209 174,-196.19 164.23,-183.3 155.73,-173.17"/>
<polygon fill="#63b8ff" stroke="#63b8ff" points="201.93,-276.97 207.74,-285.84 208.73,-275.29 201.93,-276.97"/>
</a>
</g>
</g>
<!-- Node10&#45;&gt;Node6 -->
<g id="edge19_Node000010_Node000006" class="edge">
<title>Node10&#45;&gt;Node6</title>
<g id="a_edge19_Node000010_Node000006"><a xlink:title=" ">
<path fill="none" stroke="#63b8ff" d="M213.51,-275.91C218.75,-232.9 232.07,-140.46 256.81,-66 261,-53.39 267.65,-39.85 272.89,-30.04"/>
<polygon fill="#63b8ff" stroke="#63b8ff" points="210.01,-275.63 212.32,-285.97 216.97,-276.45 210.01,-275.63"/>
</a>
</g>
</g>
<!-- Node10&#45;&gt;Node7 -->
<g id="edge20_Node000010_Node000007" class="edge">
<title>Node10&#45;&gt;Node7</title>
<g id="a_edge20_Node000010_Node000007"><a xlink:title=" ">
<path fill="none" stroke="#63b8ff" d="M230.9,-278.43C238.1,-269.98 245.9,-259.94 251.81,-250 280.76,-201.34 276.89,-183.77 299.81,-132 305.2,-119.85 311.75,-106.27 316.65,-96.33"/>
<polygon fill="#63b8ff" stroke="#63b8ff" points="228.23,-276.17 224.25,-285.99 233.48,-280.79 228.23,-276.17"/>
</a>
</g>
</g>
<!-- Node10&#45;&gt;Node11 -->
<g id="edge17_Node000010_Node000011" class="edge">
<title>Node10&#45;&gt;Node11</title>
<g id="a_edge17_Node000010_Node000011"><a xlink:title=" ">
<path fill="none" stroke="#63b8ff" d="M178.12,-280.58C162.09,-271.06 142.83,-259.62 126.77,-250.07"/>
<polygon fill="#63b8ff" stroke="#63b8ff" points="176.75,-283.84 187.14,-285.94 180.33,-277.82 176.75,-283.84"/>
</a>
</g>
</g>
<!-- Node11&#45;&gt;Node5 -->
<g id="edge18_Node000011_Node000005" class="edge">
<title>Node11&#45;&gt;Node5</title>
<g id="a_edge18_Node000011_Node000005"><a xlink:title=" ">
<path fill="none" stroke="#63b8ff" d="M110.47,-200.11C115.76,-191.09 121.49,-181.33 126.33,-173.07"/>
<polygon fill="#63b8ff" stroke="#63b8ff" points="107.42,-198.4 105.38,-208.79 113.45,-201.94 107.42,-198.4"/>
</a>
</g>
</g>
<!-- Node12&#45;&gt;Node4 -->
<g id="edge23_Node000012_Node000004" class="edge">
<title>Node12&#45;&gt;Node4</title>
<g id="a_edge23_Node000012_Node000004"><a xlink:title=" ">
<path fill="none" stroke="#63b8ff" d="M473.69,-127.92C540.53,-99.7 650.29,-53.37 705.25,-30.17"/>
<polygon fill="#63b8ff" stroke="#63b8ff" points="472,-124.83 464.15,-131.94 474.72,-131.28 472,-124.83"/>
</a>
</g>
</g>
<!-- Node12&#45;&gt;Node7 -->
<g id="edge22_Node000012_Node000007" class="edge">
<title>Node12&#45;&gt;Node7</title>
<g id="a_edge22_Node000012_Node000007"><a xlink:title=" ">
<path fill="none" stroke="#63b8ff" d="M383.15,-125.87C369.54,-115.81 354.46,-104.66 342.9,-96.11"/>
<polygon fill="#63b8ff" stroke="#63b8ff" points="381.26,-128.82 391.38,-131.96 385.42,-123.2 381.26,-128.82"/>
</a>
</g>
</g>
</g>
</svg>
