<?xml version="1.0" encoding="UTF-8" standalone="no"?>
<!DOCTYPE svg PUBLIC "-//W3C//DTD SVG 1.1//EN"
 "http://www.w3.org/Graphics/SVG/1.1/DTD/svg11.dtd">
<!-- Generated by graphviz version 2.43.0 (0)
 -->
<!-- Title: /home/sean/Projects/Brenda/src/ECS/PositionManager.h Pages: 1 -->
<svg width="681pt" height="148pt"
 viewBox="0.00 0.00 680.50 148.00" xmlns="http://www.w3.org/2000/svg" xmlns:xlink="http://www.w3.org/1999/xlink">
<g id="graph0" class="graph" transform="scale(1 1) rotate(0) translate(4 144)">
<title>/home/sean/Projects/Brenda/src/ECS/PositionManager.h</title>
<!-- Node1 -->
<g id="Node000001" class="node">
<title>Node1</title>
<g id="a_Node000001"><a xlink:title=" ">
<polygon fill="#999999" stroke="#666666" points="500.5,-140 314.5,-140 314.5,-110 500.5,-110 500.5,-140"/>
<text text-anchor="start" x="322.5" y="-128" font-family="Helvetica,sans-Serif" font-size="10.00">/home/sean/Projects</text>
<text text-anchor="middle" x="407.5" y="-117" font-family="Helvetica,sans-Serif" font-size="10.00">/Brenda/src/ECS/PositionManager.h</text>
</a>
</g>
</g>
<!-- Node2 -->
<g id="Node000002" class="node">
<title>Node2</title>
<g id="a_Node000002"><a xlink:href="Entity_8h.html" target="_top" xlink:title=" ">
<polygon fill="white" stroke="#666666" points="53,-74 0,-74 0,-55 53,-55 53,-74"/>
<text text-anchor="middle" x="26.5" y="-62" font-family="Helvetica,sans-Serif" font-size="10.00">Entity.h</text>
</a>
</g>
</g>
<!-- Node1&#45;&gt;Node2 -->
<g id="edge1_Node000001_Node000002" class="edge">
<title>Node1&#45;&gt;Node2</title>
<g id="a_edge1_Node000001_Node000002"><a xlink:title=" ">
<path fill="none" stroke="#63b8ff" d="M314.15,-112.73C246.97,-104.09 154.03,-91.06 63.11,-73.96"/>
<polygon fill="#63b8ff" stroke="#63b8ff" points="63.66,-70.5 53.18,-72.08 62.35,-77.38 63.66,-70.5"/>
</a>
</g>
</g>
<!-- Node4 -->
<g id="Node000004" class="node">
<title>Node4</title>
<g id="a_Node000004"><a xlink:href="PositionComponent_8h.html" target="_top" xlink:title=" ">
<polygon fill="white" stroke="#666666" points="261.5,-74 71.5,-74 71.5,-55 261.5,-55 261.5,-74"/>
<text text-anchor="middle" x="166.5" y="-62" font-family="Helvetica,sans-Serif" font-size="10.00">./components/PositionComponent.h</text>
</a>
</g>
</g>
<!-- Node1&#45;&gt;Node4 -->
<g id="edge3_Node000001_Node000004" class="edge">
<title>Node1&#45;&gt;Node4</title>
<g id="a_edge3_Node000001_Node000004"><a xlink:title=" ">
<path fill="none" stroke="#63b8ff" d="M349.77,-109.99C307.46,-99.72 250.82,-85.97 211.77,-76.49"/>
<polygon fill="#63b8ff" stroke="#63b8ff" points="212.28,-73.01 201.74,-74.05 210.63,-79.81 212.28,-73.01"/>
</a>
</g>
</g>
<!-- Node6 -->
<g id="Node000006" class="node">
<title>Node6</title>
<g id="a_Node000006"><a xlink:href="IComponentManager_8h.html" target="_top" xlink:title=" ">
<polygon fill="white" stroke="#666666" points="407,-74 280,-74 280,-55 407,-55 407,-74"/>
<text text-anchor="middle" x="343.5" y="-62" font-family="Helvetica,sans-Serif" font-size="10.00">IComponentManager.h</text>
</a>
</g>
</g>
<!-- Node1&#45;&gt;Node6 -->
<g id="edge5_Node000001_Node000006" class="edge">
<title>Node1&#45;&gt;Node6</title>
<g id="a_edge5_Node000001_Node000006"><a xlink:title=" ">
<path fill="none" stroke="#63b8ff" d="M392.01,-109.84C382.53,-101.17 370.39,-90.08 360.62,-81.15"/>
<polygon fill="#63b8ff" stroke="#63b8ff" points="362.83,-78.43 353.09,-74.27 358.11,-83.6 362.83,-78.43"/>
</a>
</g>
</g>
<!-- Node7 -->
<g id="Node000007" class="node">
<title>Node7</title>
<g id="a_Node000007"><a xlink:title=" ">
<polygon fill="#e0e0e0" stroke="#999999" points="518,-74 425,-74 425,-55 518,-55 518,-74"/>
<text text-anchor="middle" x="471.5" y="-62" font-family="Helvetica,sans-Serif" font-size="10.00">unordered_map</text>
</a>
</g>
</g>
<!-- Node1&#45;&gt;Node7 -->
<g id="edge6_Node000001_Node000007" class="edge">
<title>Node1&#45;&gt;Node7</title>
<g id="a_edge6_Node000001_Node000007"><a xlink:title=" ">
<path fill="none" stroke="#63b8ff" d="M422.99,-109.84C432.47,-101.17 444.61,-90.08 454.38,-81.15"/>
<polygon fill="#63b8ff" stroke="#63b8ff" points="456.89,-83.6 461.91,-74.27 452.17,-78.43 456.89,-83.6"/>
</a>
</g>
</g>
<!-- Node8 -->
<g id="Node000008" class="node">
<title>Node8</title>
<g id="a_Node000008"><a xlink:title=" ">
<polygon fill="#e0e0e0" stroke="#999999" points="594.5,-74 536.5,-74 536.5,-55 594.5,-55 594.5,-74"/>
<text text-anchor="middle" x="565.5" y="-62" font-family="Helvetica,sans-Serif" font-size="10.00">memory</text>
</a>
</g>
</g>
<!-- Node1&#45;&gt;Node8 -->
<g id="edge7_Node000001_Node000008" class="edge">
<title>Node1&#45;&gt;Node8</title>
<g id="a_edge7_Node000001_Node000008"><a xlink:title=" ">
<path fill="none" stroke="#63b8ff" d="M445.34,-109.99C471.94,-100.14 507.17,-87.1 532.6,-77.68"/>
<polygon fill="#63b8ff" stroke="#63b8ff" points="534,-80.89 542.17,-74.14 531.57,-74.33 534,-80.89"/>
</a>
</g>
</g>
<!-- Node9 -->
<g id="Node000009" class="node">
<title>Node9</title>
<g id="a_Node000009"><a xlink:title=" ">
<polygon fill="#e0e0e0" stroke="#999999" points="672.5,-74 612.5,-74 612.5,-55 672.5,-55 672.5,-74"/>
<text text-anchor="middle" x="642.5" y="-62" font-family="Helvetica,sans-Serif" font-size="10.00">iostream</text>
</a>
</g>
</g>
<!-- Node1&#45;&gt;Node9 -->
<g id="edge8_Node000001_Node000009" class="edge">
<title>Node1&#45;&gt;Node9</title>
<g id="a_edge8_Node000001_Node000009"><a xlink:title=" ">
<path fill="none" stroke="#63b8ff" d="M463.79,-109.99C506.67,-99.31 564.63,-84.88 602.77,-75.39"/>
<polygon fill="#63b8ff" stroke="#63b8ff" points="603.63,-78.78 612.49,-72.97 601.94,-71.99 603.63,-78.78"/>
</a>
</g>
</g>
<!-- Node3 -->
<g id="Node000003" class="node">
<title>Node3</title>
<g id="a_Node000003"><a xlink:title=" ">
<polygon fill="#e0e0e0" stroke="#999999" points="51.5,-19 1.5,-19 1.5,0 51.5,0 51.5,-19"/>
<text text-anchor="middle" x="26.5" y="-7" font-family="Helvetica,sans-Serif" font-size="10.00">cstdint</text>
</a>
</g>
</g>
<!-- Node2&#45;&gt;Node3 -->
<g id="edge2_Node000002_Node000003" class="edge">
<title>Node2&#45;&gt;Node3</title>
<g id="a_edge2_Node000002_Node000003"><a xlink:title=" ">
<path fill="none" stroke="#63b8ff" d="M26.5,-54.75C26.5,-47.8 26.5,-37.85 26.5,-29.13"/>
<polygon fill="#63b8ff" stroke="#63b8ff" points="30,-29.09 26.5,-19.09 23,-29.09 30,-29.09"/>
</a>
</g>
</g>
<!-- Node5 -->
<g id="Node000005" class="node">
<title>Node5</title>
<g id="a_Node000005"><a xlink:href="IComponent_8h.html" target="_top" xlink:title=" ">
<polygon fill="white" stroke="#666666" points="213.5,-19 119.5,-19 119.5,0 213.5,0 213.5,-19"/>
<text text-anchor="middle" x="166.5" y="-7" font-family="Helvetica,sans-Serif" font-size="10.00">../IComponent.h</text>
</a>
</g>
</g>
<!-- Node4&#45;&gt;Node5 -->
<g id="edge4_Node000004_Node000005" class="edge">
<title>Node4&#45;&gt;Node5</title>
<g id="a_edge4_Node000004_Node000005"><a xlink:title=" ">
<path fill="none" stroke="#63b8ff" d="M166.5,-54.75C166.5,-47.8 166.5,-37.85 166.5,-29.13"/>
<polygon fill="#63b8ff" stroke="#63b8ff" points="170,-29.09 166.5,-19.09 163,-29.09 170,-29.09"/>
</a>
</g>
</g>
</g>
</svg>
