<?xml version="1.0" encoding="UTF-8" standalone="no"?>
<!DOCTYPE svg PUBLIC "-//W3C//DTD SVG 1.1//EN"
 "http://www.w3.org/Graphics/SVG/1.1/DTD/svg11.dtd">
<!-- Generated by graphviz version 2.43.0 (0)
 -->
<!-- Title: /home/sean/Projects/Brenda/src/ECS/RenderableManager.h Pages: 1 -->
<!--zoomable 269 -->

<svg id="main" version="1.1" xmlns="http://www.w3.org/2000/svg" xmlns:xlink="http://www.w3.org/1999/xlink" xml:space="preserve" onload="init(evt)">
<style type="text/css"><![CDATA[
.node, .edge {opacity: 0.7;}
.node.selected, .edge.selected {opacity: 1;}
.edge:hover path { stroke: red; }
.edge:hover polygon { stroke: red; fill: red; }
]]></style>

<defs>
  <circle id="rim" cx="0" cy="0" r="7"/>
  <circle id="rim2" cx="0" cy="0" r="3.5"/>
  <g id="zoomPlus">
    <use xlink:href="#rim" fill="#404040"><set attributeName="fill" to="#808080" begin="zoomplus.mouseover" end="zoomplus.mouseout"/></use>
    <path d="M-4,0h8M0,-4v8" fill="none" stroke="white" stroke-width="1.5" pointer-events="none"/>
  </g>
  <g id="zoomMin">
    <use xlink:href="#rim" fill="#404040"><set attributeName="fill" to="#808080" begin="zoomminus.mouseover" end="zoomminus.mouseout"/></use>
    <path d="M-4,0h8" fill="none" stroke="white" stroke-width="1.5" pointer-events="none"/>
  </g>
  <g id="arrowUp" transform="translate(30 24)">
    <use xlink:href="#rim"/>
    <path pointer-events="none" fill="none" stroke="white" stroke-width="1.5" d="M0,-3.0v7 M-2.5,-0.5L0,-3.0L2.5,-0.5"/>
  </g>
  <g id="arrowRight" transform="rotate(90) translate(36 -43)">
    <use xlink:href="#rim"/>
    <path pointer-events="none" fill="none" stroke="white" stroke-width="1.5" d="M0,-3.0v7 M-2.5,-0.5L0,-3.0L2.5,-0.5"/>
  </g>
  <g id="arrowDown" transform="rotate(180) translate(-30 -48)">
    <use xlink:href="#rim"/>
    <path pointer-events="none" fill="none" stroke="white" stroke-width="1.5" d="M0,-3.0v7 M-2.5,-0.5L0,-3.0L2.5,-0.5"/>
  </g>
  <g id="arrowLeft" transform="rotate(270) translate(-36 17)">
    <use xlink:href="#rim"/>
    <path pointer-events="none" fill="none" stroke="white" stroke-width="1.5" d="M0,-3.0v7 M-2.5,-0.5L0,-3.0L2.5,-0.5"/>
  </g>
  <g id="resetDef">
    <use xlink:href="#rim2" fill="#404040"><set attributeName="fill" to="#808080" begin="reset.mouseover" end="reset.mouseout"/></use>
  </g>
</defs>
<script type="application/ecmascript">
var viewWidth = 970;
var viewHeight = 269;
var sectionId = 'dynsection-0';
</script>
<script type="application/ecmascript" xlink:href="svg.min.js"/>
<svg id="graph" class="graph">
<g id="viewport">
<title>/home/sean/Projects/Brenda/src/ECS/RenderableManager.h</title>
<!-- Node1 -->
<g id="Node000001" class="node">
<title>Node1</title>
<g id="a_Node000001"><a xlink:title=" ">
<polygon fill="#999999" stroke="#666666" points="533.5,-261 381.5,-261 381.5,-220 533.5,-220 533.5,-261"/>
<text text-anchor="start" x="389.5" y="-249" font-family="Helvetica,sans-Serif" font-size="10.00">/home/sean/Projects</text>
<text text-anchor="start" x="389.5" y="-238" font-family="Helvetica,sans-Serif" font-size="10.00">/Brenda/src/ECS/Renderable</text>
<text text-anchor="middle" x="457.5" y="-227" font-family="Helvetica,sans-Serif" font-size="10.00">Manager.h</text>
</a>
</g>
</g>
<!-- Node2 -->
<g id="Node000002" class="node">
<title>Node2</title>
<g id="a_Node000002"><a xlink:title=" ">
<polygon fill="#e0e0e0" stroke="#999999" points="93,-129 0,-129 0,-110 93,-110 93,-129"/>
<text text-anchor="middle" x="46.5" y="-117" font-family="Helvetica,sans-Serif" font-size="10.00">unordered_map</text>
</a>
</g>
</g>
<!-- Node1&#45;&gt;Node2 -->
<g id="edge1_Node000001_Node000002" class="edge">
<title>Node1&#45;&gt;Node2</title>
<g id="a_edge1_Node000001_Node000002"><a xlink:title=" ">
<path fill="none" stroke="#63b8ff" d="M381.48,-222.21C338.17,-211.95 283.03,-198.21 234.5,-184 179.65,-167.94 116.94,-146.03 79.59,-132.59"/>
<polygon fill="#63b8ff" stroke="#63b8ff" points="80.35,-129.15 69.75,-129.04 77.97,-135.73 80.35,-129.15"/>
</a>
</g>
</g>
<!-- Node3 -->
<g id="Node000003" class="node">
<title>Node3</title>
<g id="a_Node000003"><a xlink:title=" ">
<polygon fill="#e0e0e0" stroke="#999999" points="169.5,-129 111.5,-129 111.5,-110 169.5,-110 169.5,-129"/>
<text text-anchor="middle" x="140.5" y="-117" font-family="Helvetica,sans-Serif" font-size="10.00">memory</text>
</a>
</g>
</g>
<!-- Node1&#45;&gt;Node3 -->
<g id="edge2_Node000001_Node000003" class="edge">
<title>Node1&#45;&gt;Node3</title>
<g id="a_edge2_Node000001_Node000003"><a xlink:title=" ">
<path fill="none" stroke="#63b8ff" d="M388.33,-219.95C355.35,-210.08 315.55,-197.39 280.5,-184 239.91,-168.5 194.32,-147.03 166.51,-133.46"/>
<polygon fill="#63b8ff" stroke="#63b8ff" points="167.98,-130.27 157.46,-129.01 164.89,-136.56 167.98,-130.27"/>
</a>
</g>
</g>
<!-- Node4 -->
<g id="Node000004" class="node">
<title>Node4</title>
<g id="a_Node000004"><a xlink:href="IComponentManager_8h.html" target="_top" xlink:title=" ">
<polygon fill="white" stroke="#666666" points="321,-129 188,-129 188,-110 321,-110 321,-129"/>
<text text-anchor="middle" x="254.5" y="-117" font-family="Helvetica,sans-Serif" font-size="10.00">./IComponentManager.h</text>
</a>
</g>
</g>
<!-- Node1&#45;&gt;Node4 -->
<g id="edge3_Node000001_Node000004" class="edge">
<title>Node1&#45;&gt;Node4</title>
<g id="a_edge3_Node000001_Node000004"><a xlink:title=" ">
<path fill="none" stroke="#63b8ff" d="M381.22,-221.44C354.99,-212.87 326.47,-200.74 303.5,-184 286.68,-171.74 272.79,-152.14 264.15,-137.96"/>
<polygon fill="#63b8ff" stroke="#63b8ff" points="267.09,-136.05 259.03,-129.16 261.04,-139.57 267.09,-136.05"/>
</a>
</g>
</g>
<!-- Node5 -->
<g id="Node000005" class="node">
<title>Node5</title>
<g id="a_Node000005"><a xlink:href="PositionManager_8h.html" target="_top" xlink:title=" ">
<polygon fill="white" stroke="#666666" points="426,-184 313,-184 313,-165 426,-165 426,-184"/>
<text text-anchor="middle" x="369.5" y="-172" font-family="Helvetica,sans-Serif" font-size="10.00">./PositionManager.h</text>
</a>
</g>
</g>
<!-- Node1&#45;&gt;Node5 -->
<g id="edge4_Node000001_Node000005" class="edge">
<title>Node1&#45;&gt;Node5</title>
<g id="a_edge4_Node000001_Node000005"><a xlink:title=" ">
<path fill="none" stroke="#63b8ff" d="M430.62,-219.95C417.44,-210.37 401.84,-199.02 389.69,-190.19"/>
<polygon fill="#63b8ff" stroke="#63b8ff" points="391.69,-187.31 381.55,-184.26 387.57,-192.97 391.69,-187.31"/>
</a>
</g>
</g>
<!-- Node6 -->
<g id="Node000006" class="node">
<title>Node6</title>
<g id="a_Node000006"><a xlink:href="Entity_8h.html" target="_top" xlink:title=" ">
<polygon fill="white" stroke="#666666" points="679,-129 626,-129 626,-110 679,-110 679,-129"/>
<text text-anchor="middle" x="652.5" y="-117" font-family="Helvetica,sans-Serif" font-size="10.00">Entity.h</text>
</a>
</g>
</g>
<!-- Node1&#45;&gt;Node6 -->
<g id="edge22_Node000001_Node000006" class="edge">
<title>Node1&#45;&gt;Node6</title>
<g id="a_edge22_Node000001_Node000006"><a xlink:title=" ">
<path fill="none" stroke="#63b8ff" d="M466.52,-219.94C475.25,-203.08 490.02,-179.25 509.5,-165 518.28,-158.57 576.74,-141.52 616.14,-130.49"/>
<polygon fill="#63b8ff" stroke="#63b8ff" points="617.26,-133.81 625.96,-127.75 615.38,-127.07 617.26,-133.81"/>
</a>
</g>
</g>
<!-- Node11 -->
<g id="Node000011" class="node">
<title>Node11</title>
<g id="a_Node000011"><a xlink:href="IRenderable_8h.html" target="_top" xlink:title=" ">
<polygon fill="white" stroke="#666666" points="962,-74 809,-74 809,-55 962,-55 962,-74"/>
<text text-anchor="middle" x="885.5" y="-62" font-family="Helvetica,sans-Serif" font-size="10.00">./components/IRenderable.h</text>
</a>
</g>
</g>
<!-- Node1&#45;&gt;Node11 -->
<g id="edge13_Node000001_Node000011" class="edge">
<title>Node1&#45;&gt;Node11</title>
<g id="a_edge13_Node000001_Node000011"><a xlink:title=" ">
<path fill="none" stroke="#63b8ff" d="M533.6,-238.77C606.58,-235.5 718.37,-223.62 806.5,-184 841.64,-168.2 853.85,-162.14 873.5,-129 881.46,-115.56 884.32,-97.96 885.26,-84.7"/>
<polygon fill="#63b8ff" stroke="#63b8ff" points="888.77,-84.51 885.68,-74.37 881.78,-84.22 888.77,-84.51"/>
</a>
</g>
</g>
<!-- Node13 -->
<g id="Node000013" class="node">
<title>Node13</title>
<g id="a_Node000013"><a xlink:href="Square_8h.html" target="_top" xlink:title=" ">
<polygon fill="white" stroke="#666666" points="646.5,-184 518.5,-184 518.5,-165 646.5,-165 646.5,-184"/>
<text text-anchor="middle" x="582.5" y="-172" font-family="Helvetica,sans-Serif" font-size="10.00">./components/Square.h</text>
</a>
</g>
</g>
<!-- Node1&#45;&gt;Node13 -->
<g id="edge15_Node000001_Node000013" class="edge">
<title>Node1&#45;&gt;Node13</title>
<g id="a_edge15_Node000001_Node000013"><a xlink:title=" ">
<path fill="none" stroke="#63b8ff" d="M495.68,-219.95C515.43,-209.84 539.02,-197.76 556.62,-188.75"/>
<polygon fill="#63b8ff" stroke="#63b8ff" points="558.41,-191.76 565.72,-184.09 555.22,-185.53 558.41,-191.76"/>
</a>
</g>
</g>
<!-- Node15 -->
<g id="Node000015" class="node">
<title>Node15</title>
<g id="a_Node000015"><a xlink:href="Circle_8h.html" target="_top" xlink:title=" ">
<polygon fill="white" stroke="#666666" points="797.5,-184 675.5,-184 675.5,-165 797.5,-165 797.5,-184"/>
<text text-anchor="middle" x="736.5" y="-172" font-family="Helvetica,sans-Serif" font-size="10.00">./components/Circle.h</text>
</a>
</g>
</g>
<!-- Node1&#45;&gt;Node15 -->
<g id="edge20_Node000001_Node000015" class="edge">
<title>Node1&#45;&gt;Node15</title>
<g id="a_edge20_Node000001_Node000015"><a xlink:title=" ">
<path fill="none" stroke="#63b8ff" d="M533.74,-222.01C583.48,-210.6 646.83,-196.07 689.37,-186.31"/>
<polygon fill="#63b8ff" stroke="#63b8ff" points="690.22,-189.71 699.18,-184.06 688.65,-182.89 690.22,-189.71"/>
</a>
</g>
</g>
<!-- Node5&#45;&gt;Node2 -->
<g id="edge10_Node000005_Node000002" class="edge">
<title>Node5&#45;&gt;Node2</title>
<g id="a_edge10_Node000005_Node000002"><a xlink:title=" ">
<path fill="none" stroke="#63b8ff" d="M317.6,-164.98C258.94,-155.36 163.74,-139.74 103.18,-129.8"/>
<polygon fill="#63b8ff" stroke="#63b8ff" points="103.46,-126.3 93.03,-128.13 102.33,-133.21 103.46,-126.3"/>
</a>
</g>
</g>
<!-- Node5&#45;&gt;Node3 -->
<g id="edge11_Node000005_Node000003" class="edge">
<title>Node5&#45;&gt;Node3</title>
<g id="a_edge11_Node000005_Node000003"><a xlink:title=" ">
<path fill="none" stroke="#63b8ff" d="M332.71,-164.98C290.69,-155.26 222.23,-139.42 179.36,-129.49"/>
<polygon fill="#63b8ff" stroke="#63b8ff" points="180.11,-126.07 169.57,-127.23 178.53,-132.89 180.11,-126.07"/>
</a>
</g>
</g>
<!-- Node5&#45;&gt;Node4 -->
<g id="edge9_Node000005_Node000004" class="edge">
<title>Node5&#45;&gt;Node4</title>
<g id="a_edge9_Node000005_Node000004"><a xlink:title=" ">
<path fill="none" stroke="#63b8ff" d="M351.02,-164.98C332.52,-156.46 303.82,-143.23 282.52,-133.41"/>
<polygon fill="#63b8ff" stroke="#63b8ff" points="283.86,-130.18 273.31,-129.17 280.93,-136.53 283.86,-130.18"/>
</a>
</g>
</g>
<!-- Node5&#45;&gt;Node6 -->
<g id="edge5_Node000005_Node000006" class="edge">
<title>Node5&#45;&gt;Node6</title>
<g id="a_edge5_Node000005_Node000006"><a xlink:title=" ">
<path fill="none" stroke="#63b8ff" d="M421.7,-164.93C469.65,-156.87 542.9,-144.09 615.96,-129.02"/>
<polygon fill="#63b8ff" stroke="#63b8ff" points="616.72,-132.43 625.8,-126.97 615.3,-125.58 616.72,-132.43"/>
</a>
</g>
</g>
<!-- Node8 -->
<g id="Node000008" class="node">
<title>Node8</title>
<g id="a_Node000008"><a xlink:href="PositionComponent_8h.html" target="_top" xlink:title=" ">
<polygon fill="white" stroke="#666666" points="607.5,-129 417.5,-129 417.5,-110 607.5,-110 607.5,-129"/>
<text text-anchor="middle" x="512.5" y="-117" font-family="Helvetica,sans-Serif" font-size="10.00">./components/PositionComponent.h</text>
</a>
</g>
</g>
<!-- Node5&#45;&gt;Node8 -->
<g id="edge7_Node000005_Node000008" class="edge">
<title>Node5&#45;&gt;Node8</title>
<g id="a_edge7_Node000005_Node000008"><a xlink:title=" ">
<path fill="none" stroke="#63b8ff" d="M392.48,-164.98C416,-156.27 452.79,-142.63 479.44,-132.75"/>
<polygon fill="#63b8ff" stroke="#63b8ff" points="480.95,-135.93 489.11,-129.17 478.51,-129.36 480.95,-135.93"/>
</a>
</g>
</g>
<!-- Node10 -->
<g id="Node000010" class="node">
<title>Node10</title>
<g id="a_Node000010"><a xlink:title=" ">
<polygon fill="#e0e0e0" stroke="#999999" points="399.5,-129 339.5,-129 339.5,-110 399.5,-110 399.5,-129"/>
<text text-anchor="middle" x="369.5" y="-117" font-family="Helvetica,sans-Serif" font-size="10.00">iostream</text>
</a>
</g>
</g>
<!-- Node5&#45;&gt;Node10 -->
<g id="edge12_Node000005_Node000010" class="edge">
<title>Node5&#45;&gt;Node10</title>
<g id="a_edge12_Node000005_Node000010"><a xlink:title=" ">
<path fill="none" stroke="#63b8ff" d="M369.5,-164.75C369.5,-157.8 369.5,-147.85 369.5,-139.13"/>
<polygon fill="#63b8ff" stroke="#63b8ff" points="373,-139.09 369.5,-129.09 366,-139.09 373,-139.09"/>
</a>
</g>
</g>
<!-- Node7 -->
<g id="Node000007" class="node">
<title>Node7</title>
<g id="a_Node000007"><a xlink:title=" ">
<polygon fill="#e0e0e0" stroke="#999999" points="677.5,-74 627.5,-74 627.5,-55 677.5,-55 677.5,-74"/>
<text text-anchor="middle" x="652.5" y="-62" font-family="Helvetica,sans-Serif" font-size="10.00">cstdint</text>
</a>
</g>
</g>
<!-- Node6&#45;&gt;Node7 -->
<g id="edge6_Node000006_Node000007" class="edge">
<title>Node6&#45;&gt;Node7</title>
<g id="a_edge6_Node000006_Node000007"><a xlink:title=" ">
<path fill="none" stroke="#63b8ff" d="M652.5,-109.75C652.5,-102.8 652.5,-92.85 652.5,-84.13"/>
<polygon fill="#63b8ff" stroke="#63b8ff" points="656,-84.09 652.5,-74.09 649,-84.09 656,-84.09"/>
</a>
</g>
</g>
<!-- Node9 -->
<g id="Node000009" class="node">
<title>Node9</title>
<g id="a_Node000009"><a xlink:href="IComponent_8h.html" target="_top" xlink:title=" ">
<polygon fill="white" stroke="#666666" points="584.5,-74 490.5,-74 490.5,-55 584.5,-55 584.5,-74"/>
<text text-anchor="middle" x="537.5" y="-62" font-family="Helvetica,sans-Serif" font-size="10.00">../IComponent.h</text>
</a>
</g>
</g>
<!-- Node8&#45;&gt;Node9 -->
<g id="edge8_Node000008_Node000009" class="edge">
<title>Node8&#45;&gt;Node9</title>
<g id="a_edge8_Node000008_Node000009"><a xlink:title=" ">
<path fill="none" stroke="#63b8ff" d="M516.63,-109.75C520.01,-102.57 524.92,-92.18 529.12,-83.27"/>
<polygon fill="#63b8ff" stroke="#63b8ff" points="532.35,-84.63 533.45,-74.09 526.02,-81.64 532.35,-84.63"/>
</a>
</g>
</g>
<!-- Node12 -->
<g id="Node000012" class="node">
<title>Node12</title>
<g id="a_Node000012"><a xlink:title=" ">
<polygon fill="#e0e0e0" stroke="#999999" points="868.5,-19 796.5,-19 796.5,0 868.5,0 868.5,-19"/>
<text text-anchor="middle" x="832.5" y="-7" font-family="Helvetica,sans-Serif" font-size="10.00">SDL3/SDL.h</text>
</a>
</g>
</g>
<!-- Node11&#45;&gt;Node12 -->
<g id="edge14_Node000011_Node000012" class="edge">
<title>Node11&#45;&gt;Node12</title>
<g id="a_edge14_Node000011_Node000012"><a xlink:title=" ">
<path fill="none" stroke="#63b8ff" d="M876.75,-54.75C869.03,-47.03 857.6,-35.6 848.28,-26.28"/>
<polygon fill="#63b8ff" stroke="#63b8ff" points="850.64,-23.69 841.09,-19.09 845.69,-28.64 850.64,-23.69"/>
</a>
</g>
</g>
<!-- Node14 -->
<g id="Node000014" class="node">
<title>Node14</title>
<g id="a_Node000014"><a xlink:href="ShapeRenderableComponent_8h.html" target="_top" xlink:title=" ">
<polygon fill="white" stroke="#666666" points="864,-129 697,-129 697,-110 864,-110 864,-129"/>
<text text-anchor="middle" x="780.5" y="-117" font-family="Helvetica,sans-Serif" font-size="10.00">ShapeRenderableComponent.h</text>
</a>
</g>
</g>
<!-- Node13&#45;&gt;Node14 -->
<g id="edge16_Node000013_Node000014" class="edge">
<title>Node13&#45;&gt;Node14</title>
<g id="a_edge16_Node000013_Node000014"><a xlink:title=" ">
<path fill="none" stroke="#63b8ff" d="M614.31,-164.98C647.99,-155.97 701.3,-141.7 738.42,-131.76"/>
<polygon fill="#63b8ff" stroke="#63b8ff" points="739.68,-135.05 748.44,-129.08 737.87,-128.29 739.68,-135.05"/>
</a>
</g>
</g>
<!-- Node14&#45;&gt;Node9 -->
<g id="edge18_Node000014_Node000009" class="edge">
<title>Node14&#45;&gt;Node9</title>
<g id="a_edge18_Node000014_Node000009"><a xlink:title=" ">
<path fill="none" stroke="#63b8ff" d="M741.46,-109.98C699.42,-100.82 632.46,-86.21 586.82,-76.26"/>
<polygon fill="#63b8ff" stroke="#63b8ff" points="587.36,-72.79 576.85,-74.08 585.87,-79.63 587.36,-72.79"/>
</a>
</g>
</g>
<!-- Node14&#45;&gt;Node11 -->
<g id="edge19_Node000014_Node000011" class="edge">
<title>Node14&#45;&gt;Node11</title>
<g id="a_edge19_Node000014_Node000011"><a xlink:title=" ">
<path fill="none" stroke="#63b8ff" d="M797.37,-109.98C814.11,-101.54 840,-88.47 859.39,-78.68"/>
<polygon fill="#63b8ff" stroke="#63b8ff" points="860.97,-81.8 868.32,-74.17 857.82,-75.55 860.97,-81.8"/>
</a>
</g>
</g>
<!-- Node14&#45;&gt;Node12 -->
<g id="edge17_Node000014_Node000012" class="edge">
<title>Node14&#45;&gt;Node12</title>
<g id="a_edge17_Node000014_Node000012"><a xlink:title=" ">
<path fill="none" stroke="#63b8ff" d="M782.28,-109.95C785.08,-97.44 791.18,-73.6 800.5,-55 805.44,-45.13 812.48,-35.06 818.7,-27.01"/>
<polygon fill="#63b8ff" stroke="#63b8ff" points="821.46,-29.15 824.98,-19.16 816,-24.78 821.46,-29.15"/>
</a>
</g>
</g>
<!-- Node15&#45;&gt;Node14 -->
<g id="edge21_Node000015_Node000014" class="edge">
<title>Node15&#45;&gt;Node14</title>
<g id="a_edge21_Node000015_Node000014"><a xlink:title=" ">
<path fill="none" stroke="#63b8ff" d="M743.77,-164.75C750.04,-157.18 759.29,-146.05 766.93,-136.84"/>
<polygon fill="#63b8ff" stroke="#63b8ff" points="769.67,-139.02 773.37,-129.09 764.29,-134.55 769.67,-139.02"/>
</a>
</g>
</g>
</g>
</svg>

<g id="navigator" transform="translate(0 0)" fill="#404254">
  <rect fill="#f2f5e9" fill-opacity="0.5" stroke="#606060" stroke-width=".5" x="0" y="0" width="60" height="60"/>
  <use id="zoomplus" xlink:href="#zoomPlus" x="17" y="9" onmousedown="handleZoom(evt,'in')"/>
  <use id="zoomminus" xlink:href="#zoomMin" x="42" y="9" onmousedown="handleZoom(evt,'out')"/>
  <use id="reset" xlink:href="#resetDef" x="30" y="36" onmousedown="handleReset()"/>
   <use id="arrowup" xlink:href="#arrowUp" x="0" y="0" onmousedown="handlePan(0,-1)"/>
  <use id="arrowright" xlink:href="#arrowRight" x="0" y="0" onmousedown="handlePan(1,0)"/>
  <use id="arrowdown" xlink:href="#arrowDown" x="0" y="0" onmousedown="handlePan(0,1)"/>
  <use id="arrowleft" xlink:href="#arrowLeft" x="0" y="0" onmousedown="handlePan(-1,0)"/>
</g>
<svg viewBox="0 0 15 15" width="100%" height="30px" preserveAspectRatio="xMaxYMin meet">
 <g id="arrow_out" transform="scale(0.3 0.3)">
  <a xlink:href="RenderableManager_8h__incl_org.svg" target="_base">
   <rect id="button" ry="5" rx="5" y="6" x="6" height="38" width="38"
        fill="#f2f5e9" fill-opacity="0.5" stroke="#606060" stroke-width="1.0"/>
   <path id="arrow"
     d="M 11.500037,31.436501 C 11.940474,20.09759 22.043105,11.32322 32.158766,21.979434 L 37.068811,17.246167 C 37.068811,17.246167 37.088388,32 37.088388,32 L 22.160133,31.978069 C 22.160133,31.978069 26.997745,27.140456 26.997745,27.140456 C 18.528582,18.264221 13.291696,25.230495 11.500037,31.436501 z"
     style="fill:#404040;"/>
  </a>
 </g>
</svg>

<style type='text/css'>
<![CDATA[
[data-mouse-over-selected='false'] { opacity: 0.7; }
[data-mouse-over-selected='true']  { opacity: 1.0; }
]]>
</style>
<script type="application/ecmascript"><![CDATA[
document.addEventListener('DOMContentLoaded', (event) => {
  highlightEdges();
  highlightAdjacentNodes();
});
]]></script>
</svg>
