<?xml version="1.0" encoding="UTF-8" standalone="no"?>
<!DOCTYPE svg PUBLIC "-//W3C//DTD SVG 1.1//EN"
 "http://www.w3.org/Graphics/SVG/1.1/DTD/svg11.dtd">
<!-- Generated by graphviz version 2.43.0 (0)
 -->
<!-- Title: /home/sean/Projects/Brenda/src/ECS/RenderableManager.h Pages: 1 -->
<svg width="270pt" height="181pt"
 viewBox="0.00 0.00 269.50 181.00" xmlns="http://www.w3.org/2000/svg" xmlns:xlink="http://www.w3.org/1999/xlink">
<g id="graph0" class="graph" transform="scale(1 1) rotate(0) translate(4 177)">
<title>/home/sean/Projects/Brenda/src/ECS/RenderableManager.h</title>
<!-- Node1 -->
<g id="Node000001" class="node">
<title>Node1</title>
<g id="a_Node000001"><a xlink:title=" ">
<polygon fill="#999999" stroke="#666666" points="235,-173 83,-173 83,-132 235,-132 235,-173"/>
<text text-anchor="start" x="91" y="-161" font-family="Helvetica,sans-Serif" font-size="10.00">/home/sean/Projects</text>
<text text-anchor="start" x="91" y="-150" font-family="Helvetica,sans-Serif" font-size="10.00">/Brenda/src/ECS/Renderable</text>
<text text-anchor="middle" x="159" y="-139" font-family="Helvetica,sans-Serif" font-size="10.00">Manager.h</text>
</a>
</g>
</g>
<!-- Node2 -->
<g id="Node000002" class="node">
<title>Node2</title>
<g id="a_Node000002"><a xlink:href="Scene_8h.html" target="_top" xlink:title=" ">
<polygon fill="white" stroke="#666666" points="174,-96 58,-96 58,-66 174,-66 174,-96"/>
<text text-anchor="start" x="66" y="-84" font-family="Helvetica,sans-Serif" font-size="10.00">/home/sean/Projects</text>
<text text-anchor="middle" x="116" y="-73" font-family="Helvetica,sans-Serif" font-size="10.00">/Brenda/src/Scene.h</text>
</a>
</g>
</g>
<!-- Node1&#45;&gt;Node2 -->
<g id="edge1_Node000001_Node000002" class="edge">
<title>Node1&#45;&gt;Node2</title>
<g id="a_edge1_Node000001_Node000002"><a xlink:title=" ">
<path fill="none" stroke="#63b8ff" d="M141.44,-123.11C135.66,-113.78 129.5,-103.82 124.69,-96.04"/>
<polygon fill="#63b8ff" stroke="#63b8ff" points="138.56,-125.11 146.79,-131.77 144.51,-121.42 138.56,-125.11"/>
</a>
</g>
</g>
<!-- Node4 -->
<g id="Node000004" class="node">
<title>Node4</title>
<g id="a_Node000004"><a xlink:href="main_8cpp.html" target="_top" xlink:title=" ">
<polygon fill="white" stroke="#666666" points="261.5,-30 142.5,-30 142.5,0 261.5,0 261.5,-30"/>
<text text-anchor="start" x="150.5" y="-18" font-family="Helvetica,sans-Serif" font-size="10.00">/home/sean/Projects</text>
<text text-anchor="middle" x="202" y="-7" font-family="Helvetica,sans-Serif" font-size="10.00">/Brenda/src/main.cpp</text>
</a>
</g>
</g>
<!-- Node1&#45;&gt;Node4 -->
<g id="edge4_Node000001_Node000004" class="edge">
<title>Node1&#45;&gt;Node4</title>
<g id="a_edge4_Node000001_Node000004"><a xlink:title=" ">
<path fill="none" stroke="#63b8ff" d="M172.72,-122.4C176.37,-114 180.1,-104.74 183,-96 190.51,-73.38 196.31,-46.22 199.43,-30.08"/>
<polygon fill="#63b8ff" stroke="#63b8ff" points="169.41,-121.23 168.53,-131.79 175.8,-124.09 169.41,-121.23"/>
</a>
</g>
</g>
<!-- Node3 -->
<g id="Node000003" class="node">
<title>Node3</title>
<g id="a_Node000003"><a xlink:href="Scene_8cpp.html" target="_top" xlink:title=" ">
<polygon fill="white" stroke="#666666" points="124,-30 0,-30 0,0 124,0 124,-30"/>
<text text-anchor="start" x="8" y="-18" font-family="Helvetica,sans-Serif" font-size="10.00">/home/sean/Projects</text>
<text text-anchor="middle" x="62" y="-7" font-family="Helvetica,sans-Serif" font-size="10.00">/Brenda/src/Scene.cpp</text>
</a>
</g>
</g>
<!-- Node2&#45;&gt;Node3 -->
<g id="edge2_Node000002_Node000003" class="edge">
<title>Node2&#45;&gt;Node3</title>
<g id="a_edge2_Node000002_Node000003"><a xlink:title=" ">
<path fill="none" stroke="#63b8ff" d="M97.51,-58.09C89.72,-48.85 80.87,-38.36 73.95,-30.16"/>
<polygon fill="#63b8ff" stroke="#63b8ff" points="94.89,-60.41 104.02,-65.8 100.24,-55.9 94.89,-60.41"/>
</a>
</g>
</g>
<!-- Node2&#45;&gt;Node4 -->
<g id="edge3_Node000002_Node000004" class="edge">
<title>Node2&#45;&gt;Node4</title>
<g id="a_edge3_Node000002_Node000004"><a xlink:title=" ">
<path fill="none" stroke="#63b8ff" d="M143.21,-59.75C156.14,-50.13 171.29,-38.86 182.97,-30.16"/>
<polygon fill="#63b8ff" stroke="#63b8ff" points="141.02,-57.02 135.09,-65.8 145.2,-62.63 141.02,-57.02"/>
</a>
</g>
</g>
</g>
</svg>
