<?xml version="1.0" encoding="UTF-8" standalone="no"?>
<!DOCTYPE svg PUBLIC "-//W3C//DTD SVG 1.1//EN"
 "http://www.w3.org/Graphics/SVG/1.1/DTD/svg11.dtd">
<!-- Generated by graphviz version 2.43.0 (0)
 -->
<!-- Title: /home/sean/Projects/Brenda/src/Scene.h Pages: 1 -->
<svg width="2131pt" height="445pt"
 viewBox="0.00 0.00 2131.41 445.00" xmlns="http://www.w3.org/2000/svg" xmlns:xlink="http://www.w3.org/1999/xlink">
<g id="graph0" class="graph" transform="scale(1 1) rotate(0) translate(4 441)">
<title>/home/sean/Projects/Brenda/src/Scene.h</title>
<!-- Node1 -->
<g id="Node000001" class="node">
<title>Node1</title>
<g id="a_Node000001"><a xlink:title=" ">
<polygon fill="#999999" stroke="#666666" points="1148.41,-437 1032.41,-437 1032.41,-407 1148.41,-407 1148.41,-437"/>
<text text-anchor="start" x="1040.41" y="-425" font-family="Helvetica,sans-Serif" font-size="10.00">/home/sean/Projects</text>
<text text-anchor="middle" x="1090.41" y="-414" font-family="Helvetica,sans-Serif" font-size="10.00">/Brenda/src/Scene.h</text>
</a>
</g>
</g>
<!-- Node2 -->
<g id="Node000002" class="node">
<title>Node2</title>
<g id="a_Node000002"><a xlink:href="Entity_8h.html" target="_top" xlink:title=" ">
<polygon fill="white" stroke="#666666" points="432.41,-134.5 352.41,-134.5 352.41,-115.5 432.41,-115.5 432.41,-134.5"/>
<text text-anchor="middle" x="392.41" y="-122.5" font-family="Helvetica,sans-Serif" font-size="10.00">./ECS/Entity.h</text>
</a>
</g>
</g>
<!-- Node1&#45;&gt;Node2 -->
<g id="edge1_Node000001_Node000002" class="edge">
<title>Node1&#45;&gt;Node2</title>
<g id="a_edge1_Node000001_Node000002"><a xlink:title=" ">
<path fill="none" stroke="#63b8ff" d="M1032.16,-419.96C829.92,-415.61 170.41,-394.71 170.41,-307.5 170.41,-307.5 170.41,-307.5 170.41,-250.5 170.41,-216.33 165.02,-199.94 189.41,-176 239.26,-127.07 274.76,-157.42 342.41,-140 345.78,-139.13 349.28,-138.2 352.78,-137.26"/>
<polygon fill="#63b8ff" stroke="#63b8ff" points="353.87,-140.59 362.59,-134.57 352.02,-133.84 353.87,-140.59"/>
</a>
</g>
</g>
<!-- Node4 -->
<g id="Node000004" class="node">
<title>Node4</title>
<g id="a_Node000004"><a xlink:href="PositionManager_8h.html" target="_top" xlink:title=" ">
<polygon fill="white" stroke="#666666" points="706.41,-200.5 572.41,-200.5 572.41,-181.5 706.41,-181.5 706.41,-200.5"/>
<text text-anchor="middle" x="639.41" y="-188.5" font-family="Helvetica,sans-Serif" font-size="10.00">./ECS/PositionManager.h</text>
</a>
</g>
</g>
<!-- Node1&#45;&gt;Node4 -->
<g id="edge3_Node000001_Node000004" class="edge">
<title>Node1&#45;&gt;Node4</title>
<g id="a_edge3_Node000001_Node000004"><a xlink:title=" ">
<path fill="none" stroke="#63b8ff" d="M1032.1,-414.36C956.6,-403.59 823.24,-377 726.41,-316 697.16,-297.57 691.21,-289.34 671.41,-261 660.32,-245.13 651.43,-224.8 645.87,-210.33"/>
<polygon fill="#63b8ff" stroke="#63b8ff" points="649.02,-208.75 642.28,-200.58 642.45,-211.17 649.02,-208.75"/>
</a>
</g>
</g>
<!-- Node9 -->
<g id="Node000009" class="node">
<title>Node9</title>
<g id="a_Node000009"><a xlink:title=" ">
<polygon fill="#e0e0e0" stroke="#999999" points="530.41,-134.5 472.41,-134.5 472.41,-115.5 530.41,-115.5 530.41,-134.5"/>
<text text-anchor="middle" x="501.41" y="-122.5" font-family="Helvetica,sans-Serif" font-size="10.00">memory</text>
</a>
</g>
</g>
<!-- Node1&#45;&gt;Node9 -->
<g id="edge76_Node000001_Node000009" class="edge">
<title>Node1&#45;&gt;Node9</title>
<g id="a_edge76_Node000001_Node000009"><a xlink:title=" ">
<path fill="none" stroke="#63b8ff" d="M1032.17,-416.48C877.55,-403.69 468.41,-364.48 468.41,-307.5 468.41,-307.5 468.41,-307.5 468.41,-250.5 468.41,-211.52 483.71,-167.91 493.47,-144.04"/>
<polygon fill="#63b8ff" stroke="#63b8ff" points="496.81,-145.12 497.49,-134.55 490.37,-142.39 496.81,-145.12"/>
</a>
</g>
</g>
<!-- Node11 -->
<g id="Node000011" class="node">
<title>Node11</title>
<g id="a_Node000011"><a xlink:href="RenderableManager_8h.html" target="_top" xlink:title=" ">
<polygon fill="white" stroke="#666666" points="382.91,-261 231.91,-261 231.91,-242 382.91,-242 382.91,-261"/>
<text text-anchor="middle" x="307.41" y="-249" font-family="Helvetica,sans-Serif" font-size="10.00">./ECS/RenderableManager.h</text>
</a>
</g>
</g>
<!-- Node1&#45;&gt;Node11 -->
<g id="edge11_Node000001_Node000011" class="edge">
<title>Node1&#45;&gt;Node11</title>
<g id="a_edge11_Node000001_Node000011"><a xlink:title=" ">
<path fill="none" stroke="#63b8ff" d="M1032.34,-420.79C895.91,-419.6 558.61,-412.44 454.41,-371 397.51,-348.38 345.38,-295.68 321.36,-268.84"/>
<polygon fill="#63b8ff" stroke="#63b8ff" points="323.8,-266.32 314.57,-261.11 318.54,-270.93 323.8,-266.32"/>
</a>
</g>
</g>
<!-- Node17 -->
<g id="Node000017" class="node">
<title>Node17</title>
<g id="a_Node000017"><a xlink:href="DescriptionComponentManager_8h.html" target="_top" xlink:title=" ">
<polygon fill="white" stroke="#666666" points="1301.41,-206 1145.41,-206 1145.41,-176 1301.41,-176 1301.41,-206"/>
<text text-anchor="start" x="1153.41" y="-194" font-family="Helvetica,sans-Serif" font-size="10.00">./ECS/DescriptionComponent</text>
<text text-anchor="middle" x="1223.41" y="-183" font-family="Helvetica,sans-Serif" font-size="10.00">Manager.h</text>
</a>
</g>
</g>
<!-- Node1&#45;&gt;Node17 -->
<g id="edge26_Node000001_Node000017" class="edge">
<title>Node1&#45;&gt;Node17</title>
<g id="a_edge26_Node000001_Node000017"><a xlink:title=" ">
<path fill="none" stroke="#63b8ff" d="M1098.73,-406.68C1121.13,-368.11 1182.85,-261.84 1210.14,-214.85"/>
<polygon fill="#63b8ff" stroke="#63b8ff" points="1213.27,-216.43 1215.26,-206.03 1207.21,-212.92 1213.27,-216.43"/>
</a>
</g>
</g>
<!-- Node18 -->
<g id="Node000018" class="node">
<title>Node18</title>
<g id="a_Node000018"><a xlink:title=" ">
<polygon fill="#e0e0e0" stroke="#999999" points="1834.41,-74 1790.41,-74 1790.41,-55 1834.41,-55 1834.41,-74"/>
<text text-anchor="middle" x="1812.41" y="-62" font-family="Helvetica,sans-Serif" font-size="10.00">string</text>
</a>
</g>
</g>
<!-- Node1&#45;&gt;Node18 -->
<g id="edge77_Node000001_Node000018" class="edge">
<title>Node1&#45;&gt;Node18</title>
<g id="a_edge77_Node000001_Node000018"><a xlink:title=" ">
<path fill="none" stroke="#63b8ff" d="M1148.53,-420.77C1366.57,-419.13 2123.41,-406.34 2123.41,-307.5 2123.41,-307.5 2123.41,-307.5 2123.41,-190 2123.41,-139.72 2087.82,-133.57 2043.41,-110 1978.64,-75.63 1891.12,-67.58 1844.6,-65.84"/>
<polygon fill="#63b8ff" stroke="#63b8ff" points="1844.61,-62.34 1834.51,-65.54 1844.4,-69.34 1844.61,-62.34"/>
</a>
</g>
</g>
<!-- Node20 -->
<g id="Node000020" class="node">
<title>Node20</title>
<g id="a_Node000020"><a xlink:href="ControllerManager_8h.html" target="_top" xlink:title=" ">
<polygon fill="white" stroke="#666666" points="1046.91,-371 903.91,-371 903.91,-352 1046.91,-352 1046.91,-371"/>
<text text-anchor="middle" x="975.41" y="-359" font-family="Helvetica,sans-Serif" font-size="10.00">./ECS/ControllerManager.h</text>
</a>
</g>
</g>
<!-- Node1&#45;&gt;Node20 -->
<g id="edge35_Node000001_Node000020" class="edge">
<title>Node1&#45;&gt;Node20</title>
<g id="a_edge35_Node000001_Node000020"><a xlink:title=" ">
<path fill="none" stroke="#63b8ff" d="M1062.86,-406.99C1044.19,-397.49 1019.67,-385.02 1001.34,-375.69"/>
<polygon fill="#63b8ff" stroke="#63b8ff" points="1002.89,-372.55 992.39,-371.14 999.72,-378.79 1002.89,-372.55"/>
</a>
</g>
</g>
<!-- Node23 -->
<g id="Node000023" class="node">
<title>Node23</title>
<g id="a_Node000023"><a xlink:href="MovementManager_8h.html" target="_top" xlink:title=" ">
<polygon fill="white" stroke="#666666" points="973.91,-261 844.91,-261 844.91,-242 973.91,-242 973.91,-261"/>
<text text-anchor="middle" x="909.41" y="-249" font-family="Helvetica,sans-Serif" font-size="10.00">../MovementManager.h</text>
</a>
</g>
</g>
<!-- Node1&#45;&gt;Node23 -->
<g id="edge69_Node000001_Node000023" class="edge">
<title>Node1&#45;&gt;Node23</title>
<g id="a_edge69_Node000001_Node000023"><a xlink:title=" ">
<path fill="none" stroke="#63b8ff" d="M1032.04,-413.93C980.87,-406.39 912.12,-392.54 895.41,-371 872.64,-341.65 888.63,-295.29 900.26,-270.14"/>
<polygon fill="#63b8ff" stroke="#63b8ff" points="903.45,-271.57 904.7,-261.05 897.16,-268.49 903.45,-271.57"/>
</a>
</g>
</g>
<!-- Node25 -->
<g id="Node000025" class="node">
<title>Node25</title>
<g id="a_Node000025"><a xlink:title=" ">
<polygon fill="#e0e0e0" stroke="#999999" points="1442.91,-200.5 1395.91,-200.5 1395.91,-181.5 1442.91,-181.5 1442.91,-200.5"/>
<text text-anchor="middle" x="1419.41" y="-188.5" font-family="Helvetica,sans-Serif" font-size="10.00">vector</text>
</a>
</g>
</g>
<!-- Node1&#45;&gt;Node25 -->
<g id="edge75_Node000001_Node000025" class="edge">
<title>Node1&#45;&gt;Node25</title>
<g id="a_edge75_Node000001_Node000025"><a xlink:title=" ">
<path fill="none" stroke="#63b8ff" d="M1110.99,-406.68C1170.01,-365.59 1339.4,-247.69 1398.65,-206.45"/>
<polygon fill="#63b8ff" stroke="#63b8ff" points="1400.97,-209.1 1407.18,-200.51 1396.97,-203.35 1400.97,-209.1"/>
</a>
</g>
</g>
<!-- Node29 -->
<g id="Node000029" class="node">
<title>Node29</title>
<g id="a_Node000029"><a xlink:title=" ">
<polygon fill="#e0e0e0" stroke="#999999" points="1804.91,-200.5 1749.91,-200.5 1749.91,-181.5 1804.91,-181.5 1804.91,-200.5"/>
<text text-anchor="middle" x="1777.41" y="-188.5" font-family="Helvetica,sans-Serif" font-size="10.00">fstream</text>
</a>
</g>
</g>
<!-- Node1&#45;&gt;Node29 -->
<g id="edge79_Node000001_Node000029" class="edge">
<title>Node1&#45;&gt;Node29</title>
<g id="a_edge79_Node000001_Node000029"><a xlink:title=" ">
<path fill="none" stroke="#63b8ff" d="M1148.69,-416.98C1264.13,-406.76 1526.8,-372.14 1713.41,-261 1735.47,-247.86 1754.56,-224.85 1766.02,-209.04"/>
<polygon fill="#63b8ff" stroke="#63b8ff" points="1768.99,-210.89 1771.85,-200.69 1763.25,-206.89 1768.99,-210.89"/>
</a>
</g>
</g>
<!-- Node31 -->
<g id="Node000031" class="node">
<title>Node31</title>
<g id="a_Node000031"><a xlink:title=" ">
<polygon fill="#e0e0e0" stroke="#999999" points="1933.41,-200.5 1823.41,-200.5 1823.41,-181.5 1933.41,-181.5 1933.41,-200.5"/>
<text text-anchor="middle" x="1878.41" y="-188.5" font-family="Helvetica,sans-Serif" font-size="10.00">nlohmann/json.hpp</text>
</a>
</g>
</g>
<!-- Node1&#45;&gt;Node31 -->
<g id="edge78_Node000001_Node000031" class="edge">
<title>Node1&#45;&gt;Node31</title>
<g id="a_edge78_Node000001_Node000031"><a xlink:title=" ">
<path fill="none" stroke="#63b8ff" d="M1148.43,-417.34C1225.05,-411.66 1363.78,-398.36 1479.41,-371 1551.36,-353.97 1568.46,-345.15 1636.41,-316 1718.69,-280.7 1811.88,-229.65 1854.65,-205.56"/>
<polygon fill="#63b8ff" stroke="#63b8ff" points="1856.48,-208.54 1863.46,-200.57 1853.04,-202.45 1856.48,-208.54"/>
</a>
</g>
</g>
<!-- Node32 -->
<g id="Node000032" class="node">
<title>Node32</title>
<g id="a_Node000032"><a xlink:href="AIManager_8h.html" target="_top" xlink:title=" ">
<polygon fill="white" stroke="#666666" points="2056.91,-200.5 1951.91,-200.5 1951.91,-181.5 2056.91,-181.5 2056.91,-200.5"/>
<text text-anchor="middle" x="2004.41" y="-188.5" font-family="Helvetica,sans-Serif" font-size="10.00">./ECS/AIManager.h</text>
</a>
</g>
</g>
<!-- Node1&#45;&gt;Node32 -->
<g id="edge70_Node000001_Node000032" class="edge">
<title>Node1&#45;&gt;Node32</title>
<g id="a_edge70_Node000001_Node000032"><a xlink:title=" ">
<path fill="none" stroke="#63b8ff" d="M1148.46,-418.88C1232.92,-414.77 1394.15,-403.11 1527.41,-371 1704.39,-328.35 1905.12,-238.58 1977.01,-205.02"/>
<polygon fill="#63b8ff" stroke="#63b8ff" points="1978.72,-208.09 1986.28,-200.67 1975.74,-201.75 1978.72,-208.09"/>
</a>
</g>
</g>
<!-- Node3 -->
<g id="Node000003" class="node">
<title>Node3</title>
<g id="a_Node000003"><a xlink:title=" ">
<polygon fill="#e0e0e0" stroke="#999999" points="417.41,-74 367.41,-74 367.41,-55 417.41,-55 417.41,-74"/>
<text text-anchor="middle" x="392.41" y="-62" font-family="Helvetica,sans-Serif" font-size="10.00">cstdint</text>
</a>
</g>
</g>
<!-- Node2&#45;&gt;Node3 -->
<g id="edge2_Node000002_Node000003" class="edge">
<title>Node2&#45;&gt;Node3</title>
<g id="a_edge2_Node000002_Node000003"><a xlink:title=" ">
<path fill="none" stroke="#63b8ff" d="M392.41,-115.37C392.41,-107.25 392.41,-94.81 392.41,-84.39"/>
<polygon fill="#63b8ff" stroke="#63b8ff" points="395.91,-84.17 392.41,-74.17 388.91,-84.17 395.91,-84.17"/>
</a>
</g>
</g>
<!-- Node4&#45;&gt;Node2 -->
<g id="edge4_Node000004_Node000002" class="edge">
<title>Node4&#45;&gt;Node2</title>
<g id="a_edge4_Node000004_Node000002"><a xlink:title=" ">
<path fill="none" stroke="#63b8ff" d="M606.35,-181.44C562.17,-169.99 483.8,-149.68 435.17,-137.08"/>
<polygon fill="#63b8ff" stroke="#63b8ff" points="435.83,-133.63 425.27,-134.51 434.07,-140.41 435.83,-133.63"/>
</a>
</g>
</g>
<!-- Node5 -->
<g id="Node000005" class="node">
<title>Node5</title>
<g id="a_Node000005"><a xlink:href="PositionComponent_8h.html" target="_top" xlink:title=" ">
<polygon fill="white" stroke="#666666" points="738.41,-134.5 548.41,-134.5 548.41,-115.5 738.41,-115.5 738.41,-134.5"/>
<text text-anchor="middle" x="643.41" y="-122.5" font-family="Helvetica,sans-Serif" font-size="10.00">./components/PositionComponent.h</text>
</a>
</g>
</g>
<!-- Node4&#45;&gt;Node5 -->
<g id="edge5_Node000004_Node000005" class="edge">
<title>Node4&#45;&gt;Node5</title>
<g id="a_edge5_Node000004_Node000005"><a xlink:title=" ">
<path fill="none" stroke="#63b8ff" d="M639.95,-181.37C640.53,-172.07 641.47,-156.98 642.23,-144.9"/>
<polygon fill="#63b8ff" stroke="#63b8ff" points="645.72,-145.1 642.85,-134.91 638.73,-144.67 645.72,-145.1"/>
</a>
</g>
</g>
<!-- Node7 -->
<g id="Node000007" class="node">
<title>Node7</title>
<g id="a_Node000007"><a xlink:href="IComponentManager_8h.html" target="_top" xlink:title=" ">
<polygon fill="white" stroke="#666666" points="883.91,-134.5 756.91,-134.5 756.91,-115.5 883.91,-115.5 883.91,-134.5"/>
<text text-anchor="middle" x="820.41" y="-122.5" font-family="Helvetica,sans-Serif" font-size="10.00">IComponentManager.h</text>
</a>
</g>
</g>
<!-- Node4&#45;&gt;Node7 -->
<g id="edge7_Node000004_Node000007" class="edge">
<title>Node4&#45;&gt;Node7</title>
<g id="a_edge7_Node000004_Node000007"><a xlink:title=" ">
<path fill="none" stroke="#63b8ff" d="M663.82,-181.37C695.48,-170.17 750.88,-150.58 786.58,-137.96"/>
<polygon fill="#63b8ff" stroke="#63b8ff" points="787.83,-141.23 796.1,-134.6 785.5,-134.63 787.83,-141.23"/>
</a>
</g>
</g>
<!-- Node8 -->
<g id="Node000008" class="node">
<title>Node8</title>
<g id="a_Node000008"><a xlink:title=" ">
<polygon fill="#e0e0e0" stroke="#999999" points="1476.91,-134.5 1383.91,-134.5 1383.91,-115.5 1476.91,-115.5 1476.91,-134.5"/>
<text text-anchor="middle" x="1430.41" y="-122.5" font-family="Helvetica,sans-Serif" font-size="10.00">unordered_map</text>
</a>
</g>
</g>
<!-- Node4&#45;&gt;Node8 -->
<g id="edge8_Node000004_Node000008" class="edge">
<title>Node4&#45;&gt;Node8</title>
<g id="a_edge8_Node000004_Node000008"><a xlink:title=" ">
<path fill="none" stroke="#63b8ff" d="M706.58,-185.04C743.19,-182.35 789.29,-178.97 830.41,-176 1055.28,-159.76 1112.3,-164.62 1336.41,-140 1348.45,-138.68 1361.32,-136.96 1373.55,-135.19"/>
<polygon fill="#63b8ff" stroke="#63b8ff" points="1374.26,-138.62 1383.64,-133.69 1373.24,-131.69 1374.26,-138.62"/>
</a>
</g>
</g>
<!-- Node4&#45;&gt;Node9 -->
<g id="edge9_Node000004_Node000009" class="edge">
<title>Node4&#45;&gt;Node9</title>
<g id="a_edge9_Node000004_Node000009"><a xlink:title=" ">
<path fill="none" stroke="#63b8ff" d="M620.8,-181.37C597.34,-170.49 556.8,-151.69 529.55,-139.05"/>
<polygon fill="#63b8ff" stroke="#63b8ff" points="530.71,-135.73 520.16,-134.7 527.76,-142.08 530.71,-135.73"/>
</a>
</g>
</g>
<!-- Node10 -->
<g id="Node000010" class="node">
<title>Node10</title>
<g id="a_Node000010"><a xlink:title=" ">
<polygon fill="#e0e0e0" stroke="#999999" points="1167.41,-134.5 1107.41,-134.5 1107.41,-115.5 1167.41,-115.5 1167.41,-134.5"/>
<text text-anchor="middle" x="1137.41" y="-122.5" font-family="Helvetica,sans-Serif" font-size="10.00">iostream</text>
</a>
</g>
</g>
<!-- Node4&#45;&gt;Node10 -->
<g id="edge10_Node000004_Node000010" class="edge">
<title>Node4&#45;&gt;Node10</title>
<g id="a_edge10_Node000004_Node000010"><a xlink:title=" ">
<path fill="none" stroke="#63b8ff" d="M705.8,-181.47C810.66,-167.99 1011.49,-142.18 1097.12,-131.18"/>
<polygon fill="#63b8ff" stroke="#63b8ff" points="1097.75,-134.63 1107.22,-129.88 1096.85,-127.68 1097.75,-134.63"/>
</a>
</g>
</g>
<!-- Node6 -->
<g id="Node000006" class="node">
<title>Node6</title>
<g id="a_Node000006"><a xlink:href="IComponent_8h.html" target="_top" xlink:title=" ">
<polygon fill="white" stroke="#666666" points="840.41,-74 746.41,-74 746.41,-55 840.41,-55 840.41,-74"/>
<text text-anchor="middle" x="793.41" y="-62" font-family="Helvetica,sans-Serif" font-size="10.00">../IComponent.h</text>
</a>
</g>
</g>
<!-- Node5&#45;&gt;Node6 -->
<g id="edge6_Node000005_Node000006" class="edge">
<title>Node5&#45;&gt;Node6</title>
<g id="a_edge6_Node000005_Node000006"><a xlink:title=" ">
<path fill="none" stroke="#63b8ff" d="M665.22,-115.49C690.66,-105.57 732.92,-89.09 761.92,-77.78"/>
<polygon fill="#63b8ff" stroke="#63b8ff" points="763.53,-80.91 771.57,-74.02 760.98,-74.39 763.53,-80.91"/>
</a>
</g>
</g>
<!-- Node11&#45;&gt;Node2 -->
<g id="edge25_Node000011_Node000002" class="edge">
<title>Node11&#45;&gt;Node2</title>
<g id="a_edge25_Node000011_Node000002"><a xlink:title=" ">
<path fill="none" stroke="#63b8ff" d="M313.25,-241.94C327.14,-221.6 362.35,-170.03 380.77,-143.04"/>
<polygon fill="#63b8ff" stroke="#63b8ff" points="383.78,-144.85 386.52,-134.62 378,-140.9 383.78,-144.85"/>
</a>
</g>
</g>
<!-- Node11&#45;&gt;Node4 -->
<g id="edge15_Node000011_Node000004" class="edge">
<title>Node11&#45;&gt;Node4</title>
<g id="a_edge15_Node000011_Node000004"><a xlink:title=" ">
<path fill="none" stroke="#63b8ff" d="M355.68,-241.99C415.43,-231.47 517.1,-213.55 581.13,-202.27"/>
<polygon fill="#63b8ff" stroke="#63b8ff" points="581.83,-205.7 591.07,-200.52 580.62,-198.81 581.83,-205.7"/>
</a>
</g>
</g>
<!-- Node11&#45;&gt;Node7 -->
<g id="edge14_Node000011_Node000007" class="edge">
<title>Node11&#45;&gt;Node7</title>
<g id="a_edge14_Node000011_Node000007"><a xlink:title=" ">
<path fill="none" stroke="#63b8ff" d="M333.73,-241.98C379.89,-227.23 478.61,-196.54 563.41,-176 573.24,-173.62 693.81,-150.34 766.26,-136.4"/>
<polygon fill="#63b8ff" stroke="#63b8ff" points="766.99,-139.83 776.14,-134.5 765.66,-132.96 766.99,-139.83"/>
</a>
</g>
</g>
<!-- Node11&#45;&gt;Node8 -->
<g id="edge12_Node000011_Node000008" class="edge">
<title>Node11&#45;&gt;Node8</title>
<g id="a_edge12_Node000011_Node000008"><a xlink:title=" ">
<path fill="none" stroke="#63b8ff" d="M383.13,-248.55C609.44,-242.53 1267.76,-223.59 1310.41,-206 1328.73,-198.44 1327.39,-187.67 1343.41,-176 1362.65,-161.98 1386.15,-148.67 1403.87,-139.32"/>
<polygon fill="#63b8ff" stroke="#63b8ff" points="1405.8,-142.26 1413.06,-134.55 1402.57,-136.05 1405.8,-142.26"/>
</a>
</g>
</g>
<!-- Node11&#45;&gt;Node9 -->
<g id="edge13_Node000011_Node000009" class="edge">
<title>Node11&#45;&gt;Node9</title>
<g id="a_edge13_Node000011_Node000009"><a xlink:title=" ">
<path fill="none" stroke="#63b8ff" d="M320.74,-241.94C353.62,-220.84 438.84,-166.15 479.37,-140.14"/>
<polygon fill="#63b8ff" stroke="#63b8ff" points="481.45,-142.96 487.98,-134.62 477.67,-137.07 481.45,-142.96"/>
</a>
</g>
</g>
<!-- Node12 -->
<g id="Node000012" class="node">
<title>Node12</title>
<g id="a_Node000012"><a xlink:href="IRenderable_8h.html" target="_top" xlink:title=" ">
<polygon fill="white" stroke="#666666" points="265.91,-74 112.91,-74 112.91,-55 265.91,-55 265.91,-74"/>
<text text-anchor="middle" x="189.41" y="-62" font-family="Helvetica,sans-Serif" font-size="10.00">./components/IRenderable.h</text>
</a>
</g>
</g>
<!-- Node11&#45;&gt;Node12 -->
<g id="edge16_Node000011_Node000012" class="edge">
<title>Node11&#45;&gt;Node12</title>
<g id="a_edge16_Node000011_Node000012"><a xlink:title=" ">
<path fill="none" stroke="#63b8ff" d="M231.68,-249.92C153.56,-247.53 39.29,-238.39 11.41,-206 -37.58,-149.1 85.21,-99 151.02,-77.15"/>
<polygon fill="#63b8ff" stroke="#63b8ff" points="152.25,-80.43 160.67,-74.01 150.08,-73.78 152.25,-80.43"/>
</a>
</g>
</g>
<!-- Node14 -->
<g id="Node000014" class="node">
<title>Node14</title>
<g id="a_Node000014"><a xlink:href="Square_8h.html" target="_top" xlink:title=" ">
<polygon fill="white" stroke="#666666" points="326.41,-200.5 198.41,-200.5 198.41,-181.5 326.41,-181.5 326.41,-200.5"/>
<text text-anchor="middle" x="262.41" y="-188.5" font-family="Helvetica,sans-Serif" font-size="10.00">./components/Square.h</text>
</a>
</g>
</g>
<!-- Node11&#45;&gt;Node14 -->
<g id="edge18_Node000011_Node000014" class="edge">
<title>Node11&#45;&gt;Node14</title>
<g id="a_edge18_Node000011_Node000014"><a xlink:title=" ">
<path fill="none" stroke="#63b8ff" d="M300.77,-241.87C294.12,-233.23 283.72,-219.7 275.42,-208.92"/>
<polygon fill="#63b8ff" stroke="#63b8ff" points="277.95,-206.46 269.07,-200.67 272.4,-210.73 277.95,-206.46"/>
</a>
</g>
</g>
<!-- Node16 -->
<g id="Node000016" class="node">
<title>Node16</title>
<g id="a_Node000016"><a xlink:href="Circle_8h.html" target="_top" xlink:title=" ">
<polygon fill="white" stroke="#666666" points="142.41,-200.5 20.41,-200.5 20.41,-181.5 142.41,-181.5 142.41,-200.5"/>
<text text-anchor="middle" x="81.41" y="-188.5" font-family="Helvetica,sans-Serif" font-size="10.00">./components/Circle.h</text>
</a>
</g>
</g>
<!-- Node11&#45;&gt;Node16 -->
<g id="edge23_Node000011_Node000016" class="edge">
<title>Node11&#45;&gt;Node16</title>
<g id="a_edge23_Node000011_Node000016"><a xlink:title=" ">
<path fill="none" stroke="#63b8ff" d="M274.55,-241.99C234.79,-231.7 167.78,-214.36 124.08,-203.04"/>
<polygon fill="#63b8ff" stroke="#63b8ff" points="124.87,-199.63 114.31,-200.52 123.11,-206.41 124.87,-199.63"/>
</a>
</g>
</g>
<!-- Node13 -->
<g id="Node000013" class="node">
<title>Node13</title>
<g id="a_Node000013"><a xlink:title=" ">
<polygon fill="#e0e0e0" stroke="#999999" points="330.41,-19 258.41,-19 258.41,0 330.41,0 330.41,-19"/>
<text text-anchor="middle" x="294.41" y="-7" font-family="Helvetica,sans-Serif" font-size="10.00">SDL3/SDL.h</text>
</a>
</g>
</g>
<!-- Node12&#45;&gt;Node13 -->
<g id="edge17_Node000012_Node000013" class="edge">
<title>Node12&#45;&gt;Node13</title>
<g id="a_edge17_Node000012_Node000013"><a xlink:title=" ">
<path fill="none" stroke="#63b8ff" d="M206.28,-54.98C223.02,-46.54 248.91,-33.47 268.3,-23.68"/>
<polygon fill="#63b8ff" stroke="#63b8ff" points="269.88,-26.8 277.23,-19.17 266.73,-20.55 269.88,-26.8"/>
</a>
</g>
</g>
<!-- Node15 -->
<g id="Node000015" class="node">
<title>Node15</title>
<g id="a_Node000015"><a xlink:href="ShapeRenderableComponent_8h.html" target="_top" xlink:title=" ">
<polygon fill="white" stroke="#666666" points="333.91,-134.5 166.91,-134.5 166.91,-115.5 333.91,-115.5 333.91,-134.5"/>
<text text-anchor="middle" x="250.41" y="-122.5" font-family="Helvetica,sans-Serif" font-size="10.00">ShapeRenderableComponent.h</text>
</a>
</g>
</g>
<!-- Node14&#45;&gt;Node15 -->
<g id="edge19_Node000014_Node000015" class="edge">
<title>Node14&#45;&gt;Node15</title>
<g id="a_edge19_Node000014_Node000015"><a xlink:title=" ">
<path fill="none" stroke="#63b8ff" d="M260.79,-181.37C259.05,-172.07 256.22,-156.98 253.95,-144.9"/>
<polygon fill="#63b8ff" stroke="#63b8ff" points="257.36,-144.09 252.08,-134.91 250.48,-145.38 257.36,-144.09"/>
</a>
</g>
</g>
<!-- Node15&#45;&gt;Node6 -->
<g id="edge21_Node000015_Node000006" class="edge">
<title>Node15&#45;&gt;Node6</title>
<g id="a_edge21_Node000015_Node000006"><a xlink:title=" ">
<path fill="none" stroke="#63b8ff" d="M303.95,-115.46C316.85,-113.54 330.61,-111.6 343.41,-110 484.33,-92.44 650.79,-77.47 736.33,-70.21"/>
<polygon fill="#63b8ff" stroke="#63b8ff" points="736.68,-73.69 746.35,-69.36 736.09,-66.72 736.68,-73.69"/>
</a>
</g>
</g>
<!-- Node15&#45;&gt;Node12 -->
<g id="edge22_Node000015_Node000012" class="edge">
<title>Node15&#45;&gt;Node12</title>
<g id="a_edge22_Node000015_Node000012"><a xlink:title=" ">
<path fill="none" stroke="#63b8ff" d="M241.41,-115.37C232.04,-106.38 217.16,-92.11 205.71,-81.14"/>
<polygon fill="#63b8ff" stroke="#63b8ff" points="208.09,-78.56 198.45,-74.17 203.24,-83.62 208.09,-78.56"/>
</a>
</g>
</g>
<!-- Node15&#45;&gt;Node13 -->
<g id="edge20_Node000015_Node000013" class="edge">
<title>Node15&#45;&gt;Node13</title>
<g id="a_edge20_Node000015_Node000013"><a xlink:title=" ">
<path fill="none" stroke="#63b8ff" d="M255.04,-115.32C260.19,-105.48 268.53,-88.87 274.41,-74 280.26,-59.2 285.6,-41.95 289.29,-29.17"/>
<polygon fill="#63b8ff" stroke="#63b8ff" points="292.74,-29.84 292.07,-19.26 286,-27.94 292.74,-29.84"/>
</a>
</g>
</g>
<!-- Node16&#45;&gt;Node15 -->
<g id="edge24_Node000016_Node000015" class="edge">
<title>Node16&#45;&gt;Node15</title>
<g id="a_edge24_Node000016_Node000015"><a xlink:title=" ">
<path fill="none" stroke="#63b8ff" d="M104.2,-181.37C133.51,-170.27 184.61,-150.92 217.97,-138.28"/>
<polygon fill="#63b8ff" stroke="#63b8ff" points="219.6,-141.41 227.71,-134.6 217.12,-134.86 219.6,-141.41"/>
</a>
</g>
</g>
<!-- Node17&#45;&gt;Node7 -->
<g id="edge31_Node000017_Node000007" class="edge">
<title>Node17&#45;&gt;Node7</title>
<g id="a_edge31_Node000017_Node000007"><a xlink:title=" ">
<path fill="none" stroke="#63b8ff" d="M1145.23,-177.58C1069.2,-165.51 955.1,-147.39 884.34,-136.15"/>
<polygon fill="#63b8ff" stroke="#63b8ff" points="884.64,-132.66 874.22,-134.55 883.55,-139.57 884.64,-132.66"/>
</a>
</g>
</g>
<!-- Node17&#45;&gt;Node8 -->
<g id="edge27_Node000017_Node000008" class="edge">
<title>Node17&#45;&gt;Node8</title>
<g id="a_edge27_Node000017_Node000008"><a xlink:title=" ">
<path fill="none" stroke="#63b8ff" d="M1268.83,-175.95C1306.1,-164.43 1358.21,-148.32 1393.07,-137.54"/>
<polygon fill="#63b8ff" stroke="#63b8ff" points="1394.34,-140.82 1402.86,-134.52 1392.27,-134.13 1394.34,-140.82"/>
</a>
</g>
</g>
<!-- Node17&#45;&gt;Node9 -->
<g id="edge28_Node000017_Node000009" class="edge">
<title>Node17&#45;&gt;Node9</title>
<g id="a_edge28_Node000017_Node000009"><a xlink:title=" ">
<path fill="none" stroke="#63b8ff" d="M1145.08,-183.01C1118.24,-180.68 1088.02,-178.14 1060.41,-176 828.99,-158.07 766.37,-188.61 539.41,-140 536.57,-139.39 533.66,-138.62 530.78,-137.74"/>
<polygon fill="#63b8ff" stroke="#63b8ff" points="531.8,-134.4 521.21,-134.5 529.55,-141.03 531.8,-134.4"/>
</a>
</g>
</g>
<!-- Node17&#45;&gt;Node10 -->
<g id="edge30_Node000017_Node000010" class="edge">
<title>Node17&#45;&gt;Node10</title>
<g id="a_edge30_Node000017_Node000010"><a xlink:title=" ">
<path fill="none" stroke="#63b8ff" d="M1204.32,-175.8C1190.39,-165.43 1171.54,-151.4 1157.4,-140.88"/>
<polygon fill="#63b8ff" stroke="#63b8ff" points="1159.4,-138.01 1149.29,-134.84 1155.22,-143.62 1159.4,-138.01"/>
</a>
</g>
</g>
<!-- Node17&#45;&gt;Node18 -->
<g id="edge29_Node000017_Node000018" class="edge">
<title>Node17&#45;&gt;Node18</title>
<g id="a_edge29_Node000017_Node000018"><a xlink:title=" ">
<path fill="none" stroke="#63b8ff" d="M1261.16,-175.94C1283.67,-166.92 1312.43,-154.25 1336.41,-140 1355.21,-128.83 1355.09,-118.08 1375.41,-110 1449.13,-80.68 1691.7,-69.62 1779.94,-66.51"/>
<polygon fill="#63b8ff" stroke="#63b8ff" points="1780.28,-70 1790.16,-66.16 1780.04,-63.01 1780.28,-70"/>
</a>
</g>
</g>
<!-- Node19 -->
<g id="Node000019" class="node">
<title>Node19</title>
<g id="a_Node000019"><a xlink:href="DescriptionComponent_8h.html" target="_top" xlink:title=" ">
<polygon fill="white" stroke="#666666" points="1326.91,-140 1185.91,-140 1185.91,-110 1326.91,-110 1326.91,-140"/>
<text text-anchor="start" x="1193.91" y="-128" font-family="Helvetica,sans-Serif" font-size="10.00">./components/Description</text>
<text text-anchor="middle" x="1256.41" y="-117" font-family="Helvetica,sans-Serif" font-size="10.00">Component.h</text>
</a>
</g>
</g>
<!-- Node17&#45;&gt;Node19 -->
<g id="edge32_Node000017_Node000019" class="edge">
<title>Node17&#45;&gt;Node19</title>
<g id="a_edge32_Node000017_Node000019"><a xlink:title=" ">
<path fill="none" stroke="#63b8ff" d="M1230.73,-175.8C1234.75,-168.01 1239.83,-158.16 1244.41,-149.28"/>
<polygon fill="#63b8ff" stroke="#63b8ff" points="1247.63,-150.66 1249.1,-140.16 1241.41,-147.45 1247.63,-150.66"/>
</a>
</g>
</g>
<!-- Node19&#45;&gt;Node6 -->
<g id="edge34_Node000019_Node000006" class="edge">
<title>Node19&#45;&gt;Node6</title>
<g id="a_edge34_Node000019_Node000006"><a xlink:title=" ">
<path fill="none" stroke="#63b8ff" d="M1185.77,-111.41C1182.61,-110.92 1179.48,-110.45 1176.41,-110 1061.26,-93.25 925.9,-78.73 850.87,-71.13"/>
<polygon fill="#63b8ff" stroke="#63b8ff" points="850.99,-67.63 840.69,-70.11 850.29,-74.59 850.99,-67.63"/>
</a>
</g>
</g>
<!-- Node19&#45;&gt;Node18 -->
<g id="edge33_Node000019_Node000018" class="edge">
<title>Node19&#45;&gt;Node18</title>
<g id="a_edge33_Node000019_Node000018"><a xlink:title=" ">
<path fill="none" stroke="#63b8ff" d="M1327.31,-111.95C1332.08,-111.25 1336.81,-110.6 1341.41,-110 1505.61,-88.75 1703.26,-73.37 1779.87,-67.8"/>
<polygon fill="#63b8ff" stroke="#63b8ff" points="1780.55,-71.26 1790.28,-67.05 1780.05,-64.27 1780.55,-71.26"/>
</a>
</g>
</g>
<!-- Node20&#45;&gt;Node2 -->
<g id="edge38_Node000020_Node000002" class="edge">
<title>Node20&#45;&gt;Node2</title>
<g id="a_edge38_Node000020_Node000002"><a xlink:title=" ">
<path fill="none" stroke="#63b8ff" d="M903.72,-355.79C843.13,-350.37 754.6,-339.06 680.41,-316 573.73,-282.84 541.11,-276.44 454.41,-206 432.31,-188.05 413.35,-160.78 402.41,-143.18"/>
<polygon fill="#63b8ff" stroke="#63b8ff" points="405.35,-141.27 397.19,-134.51 399.35,-144.88 405.35,-141.27"/>
</a>
</g>
</g>
<!-- Node20&#45;&gt;Node4 -->
<g id="edge67_Node000020_Node000004" class="edge">
<title>Node20&#45;&gt;Node4</title>
<g id="a_edge67_Node000020_Node000004"><a xlink:title=" ">
<path fill="none" stroke="#63b8ff" d="M903.78,-356.61C859.59,-351.67 803.03,-340.61 758.41,-316 710.03,-289.31 669.38,-236.36 650.59,-209.1"/>
<polygon fill="#63b8ff" stroke="#63b8ff" points="653.36,-206.95 644.87,-200.61 647.55,-210.86 653.36,-206.95"/>
</a>
</g>
</g>
<!-- Node20&#45;&gt;Node7 -->
<g id="edge39_Node000020_Node000007" class="edge">
<title>Node20&#45;&gt;Node7</title>
<g id="a_edge39_Node000020_Node000007"><a xlink:title=" ">
<path fill="none" stroke="#63b8ff" d="M957,-351.82C927.6,-337.07 869.95,-304.47 836.41,-261 812.64,-230.19 813.47,-214.87 815.41,-176 815.92,-165.72 817.02,-154.29 818.06,-144.96"/>
<polygon fill="#63b8ff" stroke="#63b8ff" points="821.56,-145.17 819.26,-134.83 814.61,-144.35 821.56,-145.17"/>
</a>
</g>
</g>
<!-- Node20&#45;&gt;Node8 -->
<g id="edge36_Node000020_Node000008" class="edge">
<title>Node20&#45;&gt;Node8</title>
<g id="a_edge36_Node000020_Node000008"><a xlink:title=" ">
<path fill="none" stroke="#63b8ff" d="M1035.49,-351.97C1095.54,-343.34 1190.46,-329.38 1272.41,-316 1307.04,-310.34 1552.01,-276.66 1583.41,-261 1615.49,-245 1628.11,-238.87 1642.41,-206 1670.07,-142.39 1559.05,-128.45 1487.27,-125.94"/>
<polygon fill="#63b8ff" stroke="#63b8ff" points="1487.08,-122.43 1476.98,-125.65 1486.88,-129.43 1487.08,-122.43"/>
</a>
</g>
</g>
<!-- Node20&#45;&gt;Node9 -->
<g id="edge37_Node000020_Node000009" class="edge">
<title>Node20&#45;&gt;Node9</title>
<g id="a_edge37_Node000020_Node000009"><a xlink:title=" ">
<path fill="none" stroke="#63b8ff" d="M903.73,-355.63C852.76,-350.29 783.48,-339.14 726.41,-316 645.42,-283.16 627.2,-265.74 563.41,-206 542.85,-186.75 523.72,-160.23 512.3,-143.11"/>
<polygon fill="#63b8ff" stroke="#63b8ff" points="515.18,-141.12 506.79,-134.66 509.32,-144.95 515.18,-141.12"/>
</a>
</g>
</g>
<!-- Node21 -->
<g id="Node000021" class="node">
<title>Node21</title>
<g id="a_Node000021"><a xlink:href="PlayerController_8h.html" target="_top" xlink:title=" ">
<polygon fill="white" stroke="#666666" points="1124.91,-316 951.91,-316 951.91,-297 1124.91,-297 1124.91,-316"/>
<text text-anchor="middle" x="1038.41" y="-304" font-family="Helvetica,sans-Serif" font-size="10.00">./components/PlayerController.h</text>
</a>
</g>
</g>
<!-- Node20&#45;&gt;Node21 -->
<g id="edge40_Node000020_Node000021" class="edge">
<title>Node20&#45;&gt;Node21</title>
<g id="a_edge40_Node000020_Node000021"><a xlink:title=" ">
<path fill="none" stroke="#63b8ff" d="M985.53,-351.98C994.84,-344.15 1008.88,-332.34 1020.15,-322.86"/>
<polygon fill="#63b8ff" stroke="#63b8ff" points="1022.7,-325.29 1028.1,-316.17 1018.2,-319.93 1022.7,-325.29"/>
</a>
</g>
</g>
<!-- Node22 -->
<g id="Node000022" class="node">
<title>Node22</title>
<g id="a_Node000022"><a xlink:href="Controller_8h.html" target="_top" xlink:title=" ">
<polygon fill="white" stroke="#666666" points="1703.91,-261 1630.91,-261 1630.91,-242 1703.91,-242 1703.91,-261"/>
<text text-anchor="middle" x="1667.41" y="-249" font-family="Helvetica,sans-Serif" font-size="10.00">Controller.h</text>
</a>
</g>
</g>
<!-- Node20&#45;&gt;Node22 -->
<g id="edge65_Node000020_Node000022" class="edge">
<title>Node20&#45;&gt;Node22</title>
<g id="a_edge65_Node000020_Node000022"><a xlink:title=" ">
<path fill="none" stroke="#63b8ff" d="M1047.16,-356.69C1135.5,-351.23 1289.87,-339.17 1420.41,-316 1495.91,-302.6 1582.29,-278.27 1630.29,-263.93"/>
<polygon fill="#63b8ff" stroke="#63b8ff" points="1631.36,-267.26 1639.93,-261.03 1629.34,-260.56 1631.36,-267.26"/>
</a>
</g>
</g>
<!-- Node20&#45;&gt;Node23 -->
<g id="edge66_Node000020_Node000023" class="edge">
<title>Node20&#45;&gt;Node23</title>
<g id="a_edge66_Node000020_Node000023"><a xlink:title=" ">
<path fill="none" stroke="#63b8ff" d="M968.68,-351.87C961.95,-343.07 951.46,-328.92 943.41,-316 934.12,-301.1 924.78,-283.43 918.26,-270.52"/>
<polygon fill="#63b8ff" stroke="#63b8ff" points="921.27,-268.72 913.67,-261.33 915,-271.84 921.27,-268.72"/>
</a>
</g>
</g>
<!-- Node27 -->
<g id="Node000027" class="node">
<title>Node27</title>
<g id="a_Node000027"><a xlink:href="Grid_8h.html" target="_top" xlink:title=" ">
<polygon fill="white" stroke="#666666" points="1574.41,-261 1510.41,-261 1510.41,-242 1574.41,-242 1574.41,-261"/>
<text text-anchor="middle" x="1542.41" y="-249" font-family="Helvetica,sans-Serif" font-size="10.00">../../Grid.h</text>
</a>
</g>
</g>
<!-- Node20&#45;&gt;Node27 -->
<g id="edge68_Node000020_Node000027" class="edge">
<title>Node20&#45;&gt;Node27</title>
<g id="a_edge68_Node000020_Node000027"><a xlink:title=" ">
<path fill="none" stroke="#63b8ff" d="M1020.37,-351.94C1127.47,-331.54 1396.45,-280.3 1500.45,-260.49"/>
<polygon fill="#63b8ff" stroke="#63b8ff" points="1501.11,-263.93 1510.27,-258.62 1499.8,-257.05 1501.11,-263.93"/>
</a>
</g>
</g>
<!-- Node21&#45;&gt;Node4 -->
<g id="edge52_Node000021_Node000004" class="edge">
<title>Node21&#45;&gt;Node4</title>
<g id="a_edge52_Node000021_Node000004"><a xlink:title=" ">
<path fill="none" stroke="#63b8ff" d="M992.29,-296.98C951.09,-288.98 889.26,-276.02 836.41,-261 776.89,-244.09 709.13,-219.04 670.6,-204.23"/>
<polygon fill="#63b8ff" stroke="#63b8ff" points="671.59,-200.86 661,-200.52 669.06,-207.39 671.59,-200.86"/>
</a>
</g>
</g>
<!-- Node21&#45;&gt;Node10 -->
<g id="edge64_Node000021_Node000010" class="edge">
<title>Node21&#45;&gt;Node10</title>
<g id="a_edge64_Node000021_Node000010"><a xlink:title=" ">
<path fill="none" stroke="#63b8ff" d="M1053.52,-296.74C1065.87,-288.85 1082.96,-276.18 1093.41,-261 1118.6,-224.4 1130.13,-172.41 1134.75,-144.85"/>
<polygon fill="#63b8ff" stroke="#63b8ff" points="1138.26,-145.07 1136.32,-134.65 1131.34,-144 1138.26,-145.07"/>
</a>
</g>
</g>
<!-- Node21&#45;&gt;Node13 -->
<g id="edge63_Node000021_Node000013" class="edge">
<title>Node21&#45;&gt;Node13</title>
<g id="a_edge63_Node000021_Node000013"><a xlink:title=" ">
<path fill="none" stroke="#63b8ff" d="M1043.94,-296.77C1055.13,-278.24 1079.41,-233.27 1079.41,-192 1079.41,-192 1079.41,-192 1079.41,-124 1079.41,-48.85 508.57,-19.33 340.46,-12.27"/>
<polygon fill="#63b8ff" stroke="#63b8ff" points="340.57,-8.77 330.44,-11.86 340.28,-15.77 340.57,-8.77"/>
</a>
</g>
</g>
<!-- Node21&#45;&gt;Node22 -->
<g id="edge41_Node000021_Node000022" class="edge">
<title>Node21&#45;&gt;Node22</title>
<g id="a_edge41_Node000021_Node000022"><a xlink:title=" ">
<path fill="none" stroke="#63b8ff" d="M1125.29,-298.93C1232.89,-290.67 1421.75,-275.78 1583.41,-261 1595.37,-259.91 1608.29,-258.64 1620.32,-257.43"/>
<polygon fill="#63b8ff" stroke="#63b8ff" points="1621.03,-260.87 1630.62,-256.38 1620.32,-253.91 1621.03,-260.87"/>
</a>
</g>
</g>
<!-- Node21&#45;&gt;Node23 -->
<g id="edge43_Node000021_Node000023" class="edge">
<title>Node21&#45;&gt;Node23</title>
<g id="a_edge43_Node000021_Node000023"><a xlink:title=" ">
<path fill="none" stroke="#63b8ff" d="M1017.68,-296.98C996.65,-288.34 963.86,-274.87 939.87,-265.02"/>
<polygon fill="#63b8ff" stroke="#63b8ff" points="941.09,-261.73 930.51,-261.17 938.43,-268.21 941.09,-261.73"/>
</a>
</g>
</g>
<!-- Node26 -->
<g id="Node000026" class="node">
<title>Node26</title>
<g id="a_Node000026"><a xlink:href="Movement_8h.html" target="_top" xlink:title=" ">
<polygon fill="white" stroke="#666666" points="1050.91,-200.5 903.91,-200.5 903.91,-181.5 1050.91,-181.5 1050.91,-200.5"/>
<text text-anchor="middle" x="977.41" y="-188.5" font-family="Helvetica,sans-Serif" font-size="10.00">./components/Movement.h</text>
</a>
</g>
</g>
<!-- Node21&#45;&gt;Node26 -->
<g id="edge62_Node000021_Node000026" class="edge">
<title>Node21&#45;&gt;Node26</title>
<g id="a_edge62_Node000021_Node000026"><a xlink:title=" ">
<path fill="none" stroke="#63b8ff" d="M1033.82,-296.97C1023.89,-278.48 1000.2,-234.4 986.89,-209.64"/>
<polygon fill="#63b8ff" stroke="#63b8ff" points="989.86,-207.78 982.05,-200.63 983.7,-211.1 989.86,-207.78"/>
</a>
</g>
</g>
<!-- Node21&#45;&gt;Node27 -->
<g id="edge53_Node000021_Node000027" class="edge">
<title>Node21&#45;&gt;Node27</title>
<g id="a_edge53_Node000021_Node000027"><a xlink:title=" ">
<path fill="none" stroke="#63b8ff" d="M1119.38,-296.98C1227.86,-285.58 1416.38,-265.75 1500.17,-256.94"/>
<polygon fill="#63b8ff" stroke="#63b8ff" points="1500.76,-260.4 1510.33,-255.87 1500.02,-253.44 1500.76,-260.4"/>
</a>
</g>
</g>
<!-- Node22&#45;&gt;Node18 -->
<g id="edge42_Node000022_Node000018" class="edge">
<title>Node22&#45;&gt;Node18</title>
<g id="a_edge42_Node000022_Node000018"><a xlink:title=" ">
<path fill="none" stroke="#63b8ff" d="M1704.04,-249.15C1798.11,-245.3 2042.44,-232.78 2066.41,-206 2135.93,-128.29 1927.16,-84.42 1844.53,-70.45"/>
<polygon fill="#63b8ff" stroke="#63b8ff" points="1845.08,-66.99 1834.65,-68.82 1843.94,-73.9 1845.08,-66.99"/>
</a>
</g>
</g>
<!-- Node23&#45;&gt;Node4 -->
<g id="edge51_Node000023_Node000004" class="edge">
<title>Node23&#45;&gt;Node4</title>
<g id="a_edge51_Node000023_Node000004"><a xlink:title=" ">
<path fill="none" stroke="#63b8ff" d="M870.15,-241.99C822.16,-231.6 740.91,-213.99 688.74,-202.69"/>
<polygon fill="#63b8ff" stroke="#63b8ff" points="689.23,-199.21 678.72,-200.52 687.75,-206.05 689.23,-199.21"/>
</a>
</g>
</g>
<!-- Node23&#45;&gt;Node7 -->
<g id="edge48_Node000023_Node000007" class="edge">
<title>Node23&#45;&gt;Node7</title>
<g id="a_edge48_Node000023_Node000007"><a xlink:title=" ">
<path fill="none" stroke="#63b8ff" d="M881.08,-241.9C863.57,-235.06 842.25,-223.65 830.41,-206 818.19,-187.79 817.18,-161.9 818.24,-144.56"/>
<polygon fill="#63b8ff" stroke="#63b8ff" points="821.73,-144.83 819.13,-134.56 814.75,-144.21 821.73,-144.83"/>
</a>
</g>
</g>
<!-- Node23&#45;&gt;Node8 -->
<g id="edge44_Node000023_Node000008" class="edge">
<title>Node23&#45;&gt;Node8</title>
<g id="a_edge44_Node000023_Node000008"><a xlink:title=" ">
<path fill="none" stroke="#63b8ff" d="M974.18,-248.84C1078.63,-245.33 1279.08,-234.94 1343.41,-206 1374.91,-191.83 1402.6,-161.7 1417.87,-142.73"/>
<polygon fill="#63b8ff" stroke="#63b8ff" points="1420.77,-144.7 1424.16,-134.67 1415.25,-140.4 1420.77,-144.7"/>
</a>
</g>
</g>
<!-- Node23&#45;&gt;Node9 -->
<g id="edge45_Node000023_Node000009" class="edge">
<title>Node23&#45;&gt;Node9</title>
<g id="a_edge45_Node000023_Node000009"><a xlink:title=" ">
<path fill="none" stroke="#63b8ff" d="M890.22,-241.91C855.8,-226.78 781.03,-195.17 715.41,-176 638.77,-153.61 616.2,-161.86 539.41,-140 537.13,-139.35 534.78,-138.63 532.44,-137.86"/>
<polygon fill="#63b8ff" stroke="#63b8ff" points="533.52,-134.53 522.92,-134.57 531.23,-141.15 533.52,-134.53"/>
</a>
</g>
</g>
<!-- Node24 -->
<g id="Node000024" class="node">
<title>Node24</title>
<g id="a_Node000024"><a xlink:title=" ">
<polygon fill="#e0e0e0" stroke="#999999" points="885.91,-200.5 838.91,-200.5 838.91,-181.5 885.91,-181.5 885.91,-200.5"/>
<text text-anchor="middle" x="862.41" y="-188.5" font-family="Helvetica,sans-Serif" font-size="10.00">cmath</text>
</a>
</g>
</g>
<!-- Node23&#45;&gt;Node24 -->
<g id="edge46_Node000023_Node000024" class="edge">
<title>Node23&#45;&gt;Node24</title>
<g id="a_edge46_Node000023_Node000024"><a xlink:title=" ">
<path fill="none" stroke="#63b8ff" d="M902.47,-241.87C895.46,-233.14 884.45,-219.43 875.74,-208.59"/>
<polygon fill="#63b8ff" stroke="#63b8ff" points="878.36,-206.27 869.37,-200.67 872.91,-210.66 878.36,-206.27"/>
</a>
</g>
</g>
<!-- Node23&#45;&gt;Node25 -->
<g id="edge47_Node000023_Node000025" class="edge">
<title>Node23&#45;&gt;Node25</title>
<g id="a_edge47_Node000023_Node000025"><a xlink:title=" ">
<path fill="none" stroke="#63b8ff" d="M973.99,-249.68C1065.67,-247.33 1238.34,-238.52 1381.41,-206 1384.08,-205.39 1386.82,-204.65 1389.54,-203.82"/>
<polygon fill="#63b8ff" stroke="#63b8ff" points="1390.84,-207.07 1399.19,-200.55 1388.6,-200.44 1390.84,-207.07"/>
</a>
</g>
</g>
<!-- Node23&#45;&gt;Node26 -->
<g id="edge49_Node000023_Node000026" class="edge">
<title>Node23&#45;&gt;Node26</title>
<g id="a_edge49_Node000023_Node000026"><a xlink:title=" ">
<path fill="none" stroke="#63b8ff" d="M919.44,-241.87C929.99,-232.8 946.79,-218.34 959.6,-207.32"/>
<polygon fill="#63b8ff" stroke="#63b8ff" points="962.03,-209.84 967.33,-200.67 957.47,-204.54 962.03,-209.84"/>
</a>
</g>
</g>
<!-- Node26&#45;&gt;Node6 -->
<g id="edge50_Node000026_Node000006" class="edge">
<title>Node26&#45;&gt;Node6</title>
<g id="a_edge50_Node000026_Node000006"><a xlink:title=" ">
<path fill="none" stroke="#63b8ff" d="M970.09,-181.28C956.4,-165.4 925.37,-131.4 893.41,-110 873.28,-96.53 848.4,-85.44 828.5,-77.7"/>
<polygon fill="#63b8ff" stroke="#63b8ff" points="829.47,-74.33 818.88,-74.07 827,-80.88 829.47,-74.33"/>
</a>
</g>
</g>
<!-- Node27&#45;&gt;Node8 -->
<g id="edge58_Node000027_Node000008" class="edge">
<title>Node27&#45;&gt;Node8</title>
<g id="a_edge58_Node000027_Node000008"><a xlink:title=" ">
<path fill="none" stroke="#63b8ff" d="M1574.53,-242.43C1593.19,-235.91 1615.17,-224.66 1626.41,-206 1633.28,-194.58 1634.59,-186.53 1626.41,-176 1609.39,-154.1 1538.74,-140.19 1487.13,-132.74"/>
<polygon fill="#63b8ff" stroke="#63b8ff" points="1487.47,-129.26 1477.09,-131.34 1486.51,-136.19 1487.47,-129.26"/>
</a>
</g>
</g>
<!-- Node27&#45;&gt;Node10 -->
<g id="edge55_Node000027_Node000010" class="edge">
<title>Node27&#45;&gt;Node10</title>
<g id="a_edge55_Node000027_Node000010"><a xlink:title=" ">
<path fill="none" stroke="#63b8ff" d="M1532.38,-241.94C1509.9,-222.8 1457.08,-178.04 1452.41,-176 1339.4,-126.77 1297.33,-168.51 1177.41,-140 1174.59,-139.33 1171.69,-138.53 1168.81,-137.67"/>
<polygon fill="#63b8ff" stroke="#63b8ff" points="1169.76,-134.3 1159.17,-134.53 1167.6,-140.96 1169.76,-134.3"/>
</a>
</g>
</g>
<!-- Node27&#45;&gt;Node18 -->
<g id="edge57_Node000027_Node000018" class="edge">
<title>Node27&#45;&gt;Node18</title>
<g id="a_edge57_Node000027_Node000018"><a xlink:title=" ">
<path fill="none" stroke="#63b8ff" d="M1566.35,-241.97C1587.2,-234.05 1617.85,-221.21 1642.41,-206 1704.03,-167.82 1767.48,-109.28 1796.35,-81.36"/>
<polygon fill="#63b8ff" stroke="#63b8ff" points="1799.14,-83.53 1803.86,-74.04 1794.26,-78.52 1799.14,-83.53"/>
</a>
</g>
</g>
<!-- Node27&#45;&gt;Node25 -->
<g id="edge54_Node000027_Node000025" class="edge">
<title>Node27&#45;&gt;Node25</title>
<g id="a_edge54_Node000027_Node000025"><a xlink:title=" ">
<path fill="none" stroke="#63b8ff" d="M1524.52,-241.99C1504.03,-232.25 1470.21,-216.16 1446.49,-204.88"/>
<polygon fill="#63b8ff" stroke="#63b8ff" points="1447.85,-201.65 1437.31,-200.52 1444.84,-207.97 1447.85,-201.65"/>
</a>
</g>
</g>
<!-- Node28 -->
<g id="Node000028" class="node">
<title>Node28</title>
<g id="a_Node000028"><a xlink:title=" ">
<polygon fill="#e0e0e0" stroke="#999999" points="1555.41,-200.5 1499.41,-200.5 1499.41,-181.5 1555.41,-181.5 1555.41,-200.5"/>
<text text-anchor="middle" x="1527.41" y="-188.5" font-family="Helvetica,sans-Serif" font-size="10.00">iomanip</text>
</a>
</g>
</g>
<!-- Node27&#45;&gt;Node28 -->
<g id="edge56_Node000027_Node000028" class="edge">
<title>Node27&#45;&gt;Node28</title>
<g id="a_edge56_Node000027_Node000028"><a xlink:title=" ">
<path fill="none" stroke="#63b8ff" d="M1540.19,-241.87C1538.09,-233.66 1534.85,-221.04 1532.16,-210.55"/>
<polygon fill="#63b8ff" stroke="#63b8ff" points="1535.5,-209.48 1529.63,-200.67 1528.72,-211.22 1535.5,-209.48"/>
</a>
</g>
</g>
<!-- Node27&#45;&gt;Node29 -->
<g id="edge59_Node000027_Node000029" class="edge">
<title>Node27&#45;&gt;Node29</title>
<g id="a_edge59_Node000027_Node000029"><a xlink:title=" ">
<path fill="none" stroke="#63b8ff" d="M1574.75,-244.03C1613.27,-236.09 1679.47,-221.73 1735.41,-206 1738.02,-205.26 1740.72,-204.47 1743.42,-203.63"/>
<polygon fill="#63b8ff" stroke="#63b8ff" points="1744.64,-206.92 1753.1,-200.54 1742.51,-200.25 1744.64,-206.92"/>
</a>
</g>
</g>
<!-- Node30 -->
<g id="Node000030" class="node">
<title>Node30</title>
<g id="a_Node000030"><a xlink:title=" ">
<polygon fill="#e0e0e0" stroke="#999999" points="1617.41,-200.5 1573.41,-200.5 1573.41,-181.5 1617.41,-181.5 1617.41,-200.5"/>
<text text-anchor="middle" x="1595.41" y="-188.5" font-family="Helvetica,sans-Serif" font-size="10.00">regex</text>
</a>
</g>
</g>
<!-- Node27&#45;&gt;Node30 -->
<g id="edge60_Node000027_Node000030" class="edge">
<title>Node27&#45;&gt;Node30</title>
<g id="a_edge60_Node000027_Node000030"><a xlink:title=" ">
<path fill="none" stroke="#63b8ff" d="M1550.23,-241.87C1558.21,-233.05 1570.8,-219.16 1580.67,-208.27"/>
<polygon fill="#63b8ff" stroke="#63b8ff" points="1583.43,-210.43 1587.56,-200.67 1578.25,-205.73 1583.43,-210.43"/>
</a>
</g>
</g>
<!-- Node27&#45;&gt;Node31 -->
<g id="edge61_Node000027_Node000031" class="edge">
<title>Node27&#45;&gt;Node31</title>
<g id="a_edge61_Node000027_Node000031"><a xlink:title=" ">
<path fill="none" stroke="#63b8ff" d="M1574.75,-245.78C1625.8,-238.2 1728.16,-222.48 1814.41,-206 1819.78,-204.97 1825.4,-203.84 1830.98,-202.67"/>
<polygon fill="#63b8ff" stroke="#63b8ff" points="1831.86,-206.06 1840.91,-200.55 1830.4,-199.21 1831.86,-206.06"/>
</a>
</g>
</g>
<!-- Node32&#45;&gt;Node7 -->
<g id="edge73_Node000032_Node000007" class="edge">
<title>Node32&#45;&gt;Node7</title>
<g id="a_edge73_Node000032_Node000007"><a xlink:title=" ">
<path fill="none" stroke="#63b8ff" d="M1971.79,-181.48C1962.37,-179.34 1952.03,-177.28 1942.41,-176 1570.24,-126.45 1473.45,-157.44 1098.41,-140 1029.22,-136.78 950.36,-132.78 894.35,-129.88"/>
<polygon fill="#63b8ff" stroke="#63b8ff" points="894.33,-126.37 884.17,-129.35 893.97,-133.36 894.33,-126.37"/>
</a>
</g>
</g>
<!-- Node32&#45;&gt;Node8 -->
<g id="edge74_Node000032_Node000008" class="edge">
<title>Node32&#45;&gt;Node8</title>
<g id="a_edge74_Node000032_Node000008"><a xlink:title=" ">
<path fill="none" stroke="#63b8ff" d="M1970.12,-181.46C1961.15,-179.44 1951.45,-177.46 1942.41,-176 1778.38,-149.58 1582.38,-135.15 1487.49,-129.24"/>
<polygon fill="#63b8ff" stroke="#63b8ff" points="1487.45,-125.73 1477.25,-128.61 1487.02,-132.72 1487.45,-125.73"/>
</a>
</g>
</g>
<!-- Node33 -->
<g id="Node000033" class="node">
<title>Node33</title>
<g id="a_Node000033"><a xlink:href="AIState_8h.html" target="_top" xlink:title=" ">
<polygon fill="white" stroke="#666666" points="1968.41,-134.5 1838.41,-134.5 1838.41,-115.5 1968.41,-115.5 1968.41,-134.5"/>
<text text-anchor="middle" x="1903.41" y="-122.5" font-family="Helvetica,sans-Serif" font-size="10.00">./components/AIState.h</text>
</a>
</g>
</g>
<!-- Node32&#45;&gt;Node33 -->
<g id="edge71_Node000032_Node000033" class="edge">
<title>Node32&#45;&gt;Node33</title>
<g id="a_edge71_Node000032_Node000033"><a xlink:title=" ">
<path fill="none" stroke="#63b8ff" d="M1990.79,-181.37C1974.07,-170.78 1945.5,-152.67 1925.6,-140.06"/>
<polygon fill="#63b8ff" stroke="#63b8ff" points="1927.46,-137.1 1917.14,-134.7 1923.71,-143.01 1927.46,-137.1"/>
</a>
</g>
</g>
<!-- Node33&#45;&gt;Node18 -->
<g id="edge72_Node000033_Node000018" class="edge">
<title>Node33&#45;&gt;Node18</title>
<g id="a_edge72_Node000033_Node000018"><a xlink:title=" ">
<path fill="none" stroke="#63b8ff" d="M1889.98,-115.37C1875.33,-105.95 1851.65,-90.73 1834.3,-79.58"/>
<polygon fill="#63b8ff" stroke="#63b8ff" points="1836.19,-76.63 1825.89,-74.17 1832.41,-82.52 1836.19,-76.63"/>
</a>
</g>
</g>
</g>
</svg>
