<?xml version="1.0" encoding="UTF-8" standalone="no"?>
<!DOCTYPE svg PUBLIC "-//W3C//DTD SVG 1.1//EN"
 "http://www.w3.org/Graphics/SVG/1.1/DTD/svg11.dtd">
<!-- Generated by graphviz version 2.43.0 (0)
 -->
<!-- Title: /home/sean/Projects/Brenda/src/ECS/components/ShapeRenderableComponent.h Pages: 1 -->
<svg width="538pt" height="335pt"
 viewBox="0.00 0.00 538.00 335.00" xmlns="http://www.w3.org/2000/svg" xmlns:xlink="http://www.w3.org/1999/xlink">
<g id="graph0" class="graph" transform="scale(1 1) rotate(0) translate(4 331)">
<title>/home/sean/Projects/Brenda/src/ECS/components/ShapeRenderableComponent.h</title>
<!-- Node1 -->
<g id="Node000001" class="node">
<title>Node1</title>
<g id="a_Node000001"><a xlink:title=" ">
<polygon fill="#999999" stroke="#666666" points="350,-327 180,-327 180,-286 350,-286 350,-327"/>
<text text-anchor="start" x="188" y="-315" font-family="Helvetica,sans-Serif" font-size="10.00">/home/sean/Projects</text>
<text text-anchor="start" x="188" y="-304" font-family="Helvetica,sans-Serif" font-size="10.00">/Brenda/src/ECS/components</text>
<text text-anchor="middle" x="265" y="-293" font-family="Helvetica,sans-Serif" font-size="10.00">/ShapeRenderableComponent.h</text>
</a>
</g>
</g>
<!-- Node2 -->
<g id="Node000002" class="node">
<title>Node2</title>
<g id="a_Node000002"><a xlink:href="Circle_8h.html" target="_top" xlink:title=" ">
<polygon fill="white" stroke="#666666" points="156,-250 0,-250 0,-209 156,-209 156,-250"/>
<text text-anchor="start" x="8" y="-238" font-family="Helvetica,sans-Serif" font-size="10.00">/home/sean/Projects</text>
<text text-anchor="start" x="8" y="-227" font-family="Helvetica,sans-Serif" font-size="10.00">/Brenda/src/ECS/components</text>
<text text-anchor="middle" x="78" y="-216" font-family="Helvetica,sans-Serif" font-size="10.00">/Circle.h</text>
</a>
</g>
</g>
<!-- Node1&#45;&gt;Node2 -->
<g id="edge1_Node000001_Node000002" class="edge">
<title>Node1&#45;&gt;Node2</title>
<g id="a_edge1_Node000001_Node000002"><a xlink:title=" ">
<path fill="none" stroke="#63b8ff" d="M207.07,-282.27C181.31,-271.94 151.31,-259.9 126.72,-250.04"/>
<polygon fill="#63b8ff" stroke="#63b8ff" points="205.77,-285.52 216.36,-285.99 208.38,-279.02 205.77,-285.52"/>
</a>
</g>
</g>
<!-- Node7 -->
<g id="Node000007" class="node">
<title>Node7</title>
<g id="a_Node000007"><a xlink:href="ShapeRenderableComponent_8cpp.html" target="_top" xlink:title=" ">
<polygon fill="white" stroke="#666666" points="356,-250 174,-250 174,-209 356,-209 356,-250"/>
<text text-anchor="start" x="182" y="-238" font-family="Helvetica,sans-Serif" font-size="10.00">/home/sean/Projects</text>
<text text-anchor="start" x="182" y="-227" font-family="Helvetica,sans-Serif" font-size="10.00">/Brenda/src/ECS/components</text>
<text text-anchor="middle" x="265" y="-216" font-family="Helvetica,sans-Serif" font-size="10.00">/ShapeRenderableComponent.cpp</text>
</a>
</g>
</g>
<!-- Node1&#45;&gt;Node7 -->
<g id="edge7_Node000001_Node000007" class="edge">
<title>Node1&#45;&gt;Node7</title>
<g id="a_edge7_Node000001_Node000007"><a xlink:title=" ">
<path fill="none" stroke="#63b8ff" d="M265,-275.69C265,-267.08 265,-257.9 265,-250.07"/>
<polygon fill="#63b8ff" stroke="#63b8ff" points="261.5,-275.79 265,-285.79 268.5,-275.79 261.5,-275.79"/>
</a>
</g>
</g>
<!-- Node8 -->
<g id="Node000008" class="node">
<title>Node8</title>
<g id="a_Node000008"><a xlink:href="Square_8h.html" target="_top" xlink:title=" ">
<polygon fill="white" stroke="#666666" points="530,-250 374,-250 374,-209 530,-209 530,-250"/>
<text text-anchor="start" x="382" y="-238" font-family="Helvetica,sans-Serif" font-size="10.00">/home/sean/Projects</text>
<text text-anchor="start" x="382" y="-227" font-family="Helvetica,sans-Serif" font-size="10.00">/Brenda/src/ECS/components</text>
<text text-anchor="middle" x="452" y="-216" font-family="Helvetica,sans-Serif" font-size="10.00">/Square.h</text>
</a>
</g>
</g>
<!-- Node1&#45;&gt;Node8 -->
<g id="edge8_Node000001_Node000008" class="edge">
<title>Node1&#45;&gt;Node8</title>
<g id="a_edge8_Node000001_Node000008"><a xlink:title=" ">
<path fill="none" stroke="#63b8ff" d="M322.93,-282.27C348.69,-271.94 378.69,-259.9 403.28,-250.04"/>
<polygon fill="#63b8ff" stroke="#63b8ff" points="321.62,-279.02 313.64,-285.99 324.23,-285.52 321.62,-279.02"/>
</a>
</g>
</g>
<!-- Node3 -->
<g id="Node000003" class="node">
<title>Node3</title>
<g id="a_Node000003"><a xlink:href="RenderableManager_8h.html" target="_top" xlink:title=" ">
<polygon fill="white" stroke="#666666" points="341,-173 189,-173 189,-132 341,-132 341,-173"/>
<text text-anchor="start" x="197" y="-161" font-family="Helvetica,sans-Serif" font-size="10.00">/home/sean/Projects</text>
<text text-anchor="start" x="197" y="-150" font-family="Helvetica,sans-Serif" font-size="10.00">/Brenda/src/ECS/Renderable</text>
<text text-anchor="middle" x="265" y="-139" font-family="Helvetica,sans-Serif" font-size="10.00">Manager.h</text>
</a>
</g>
</g>
<!-- Node2&#45;&gt;Node3 -->
<g id="edge2_Node000002_Node000003" class="edge">
<title>Node2&#45;&gt;Node3</title>
<g id="a_edge2_Node000002_Node000003"><a xlink:title=" ">
<path fill="none" stroke="#63b8ff" d="M135.93,-205.27C161.69,-194.94 191.69,-182.9 216.28,-173.04"/>
<polygon fill="#63b8ff" stroke="#63b8ff" points="134.62,-202.02 126.64,-208.99 137.23,-208.52 134.62,-202.02"/>
</a>
</g>
</g>
<!-- Node4 -->
<g id="Node000004" class="node">
<title>Node4</title>
<g id="a_Node000004"><a xlink:href="Scene_8h.html" target="_top" xlink:title=" ">
<polygon fill="white" stroke="#666666" points="280,-96 164,-96 164,-66 280,-66 280,-96"/>
<text text-anchor="start" x="172" y="-84" font-family="Helvetica,sans-Serif" font-size="10.00">/home/sean/Projects</text>
<text text-anchor="middle" x="222" y="-73" font-family="Helvetica,sans-Serif" font-size="10.00">/Brenda/src/Scene.h</text>
</a>
</g>
</g>
<!-- Node3&#45;&gt;Node4 -->
<g id="edge3_Node000003_Node000004" class="edge">
<title>Node3&#45;&gt;Node4</title>
<g id="a_edge3_Node000003_Node000004"><a xlink:title=" ">
<path fill="none" stroke="#63b8ff" d="M247.44,-123.11C241.66,-113.78 235.5,-103.82 230.69,-96.04"/>
<polygon fill="#63b8ff" stroke="#63b8ff" points="244.56,-125.11 252.79,-131.77 250.51,-121.42 244.56,-125.11"/>
</a>
</g>
</g>
<!-- Node6 -->
<g id="Node000006" class="node">
<title>Node6</title>
<g id="a_Node000006"><a xlink:href="main_8cpp.html" target="_top" xlink:title=" ">
<polygon fill="white" stroke="#666666" points="367.5,-30 248.5,-30 248.5,0 367.5,0 367.5,-30"/>
<text text-anchor="start" x="256.5" y="-18" font-family="Helvetica,sans-Serif" font-size="10.00">/home/sean/Projects</text>
<text text-anchor="middle" x="308" y="-7" font-family="Helvetica,sans-Serif" font-size="10.00">/Brenda/src/main.cpp</text>
</a>
</g>
</g>
<!-- Node3&#45;&gt;Node6 -->
<g id="edge6_Node000003_Node000006" class="edge">
<title>Node3&#45;&gt;Node6</title>
<g id="a_edge6_Node000003_Node000006"><a xlink:title=" ">
<path fill="none" stroke="#63b8ff" d="M278.72,-122.4C282.37,-114 286.1,-104.74 289,-96 296.51,-73.38 302.31,-46.22 305.43,-30.08"/>
<polygon fill="#63b8ff" stroke="#63b8ff" points="275.41,-121.23 274.53,-131.79 281.8,-124.09 275.41,-121.23"/>
</a>
</g>
</g>
<!-- Node5 -->
<g id="Node000005" class="node">
<title>Node5</title>
<g id="a_Node000005"><a xlink:href="Scene_8cpp.html" target="_top" xlink:title=" ">
<polygon fill="white" stroke="#666666" points="230,-30 106,-30 106,0 230,0 230,-30"/>
<text text-anchor="start" x="114" y="-18" font-family="Helvetica,sans-Serif" font-size="10.00">/home/sean/Projects</text>
<text text-anchor="middle" x="168" y="-7" font-family="Helvetica,sans-Serif" font-size="10.00">/Brenda/src/Scene.cpp</text>
</a>
</g>
</g>
<!-- Node4&#45;&gt;Node5 -->
<g id="edge4_Node000004_Node000005" class="edge">
<title>Node4&#45;&gt;Node5</title>
<g id="a_edge4_Node000004_Node000005"><a xlink:title=" ">
<path fill="none" stroke="#63b8ff" d="M203.51,-58.09C195.72,-48.85 186.87,-38.36 179.95,-30.16"/>
<polygon fill="#63b8ff" stroke="#63b8ff" points="200.89,-60.41 210.02,-65.8 206.24,-55.9 200.89,-60.41"/>
</a>
</g>
</g>
<!-- Node4&#45;&gt;Node6 -->
<g id="edge5_Node000004_Node000006" class="edge">
<title>Node4&#45;&gt;Node6</title>
<g id="a_edge5_Node000004_Node000006"><a xlink:title=" ">
<path fill="none" stroke="#63b8ff" d="M249.21,-59.75C262.14,-50.13 277.29,-38.86 288.97,-30.16"/>
<polygon fill="#63b8ff" stroke="#63b8ff" points="247.02,-57.02 241.09,-65.8 251.2,-62.63 247.02,-57.02"/>
</a>
</g>
</g>
<!-- Node8&#45;&gt;Node3 -->
<g id="edge9_Node000008_Node000003" class="edge">
<title>Node8&#45;&gt;Node3</title>
<g id="a_edge9_Node000008_Node000003"><a xlink:title=" ">
<path fill="none" stroke="#63b8ff" d="M394.07,-205.27C368.31,-194.94 338.31,-182.9 313.72,-173.04"/>
<polygon fill="#63b8ff" stroke="#63b8ff" points="392.77,-208.52 403.36,-208.99 395.38,-202.02 392.77,-208.52"/>
</a>
</g>
</g>
</g>
</svg>
