<?xml version="1.0" encoding="UTF-8" standalone="no"?>
<!DOCTYPE svg PUBLIC "-//W3C//DTD SVG 1.1//EN"
 "http://www.w3.org/Graphics/SVG/1.1/DTD/svg11.dtd">
<!-- Generated by graphviz version 2.43.0 (0)
 -->
<!-- Title: Node Pages: 1 -->
<svg width="95pt" height="198pt"
 viewBox="0.00 0.00 95.00 198.00" xmlns="http://www.w3.org/2000/svg" xmlns:xlink="http://www.w3.org/1999/xlink">
<g id="graph0" class="graph" transform="scale(1 1) rotate(0) translate(4 194)">
<title>Node</title>
<!-- Node1 -->
<g id="Node000001" class="node">
<title>Node1</title>
<g id="a_Node000001"><a xlink:title=" ">
<polygon fill="#999999" stroke="transparent" points="83,-79 4,-79 4,0 83,0 83,-79"/>
<text text-anchor="start" x="31" y="-66.5" font-family="Helvetica,sans-Serif" font-size="10.00">Node</text>
<text text-anchor="start" x="8.5" y="-51.5" font-family="Helvetica,sans-Serif" font-size="10.00">+</text>
<text text-anchor="start" x="21.5" y="-51.5" font-family="Helvetica,sans-Serif" font-size="10.00">gCost</text>
<text text-anchor="start" x="8.5" y="-36.5" font-family="Helvetica,sans-Serif" font-size="10.00">+</text>
<text text-anchor="start" x="21.5" y="-36.5" font-family="Helvetica,sans-Serif" font-size="10.00">hCost</text>
<text text-anchor="start" x="8.5" y="-21.5" font-family="Helvetica,sans-Serif" font-size="10.00">+</text>
<text text-anchor="start" x="21.5" y="-21.5" font-family="Helvetica,sans-Serif" font-size="10.00">fCost()</text>
<text text-anchor="start" x="8.5" y="-6.5" font-family="Helvetica,sans-Serif" font-size="10.00">+</text>
<text text-anchor="start" x="21.5" y="-6.5" font-family="Helvetica,sans-Serif" font-size="10.00">operator&gt;()</text>
<polygon fill="#666666" stroke="#666666" points="4.5,-61.5 4.5,-61.5 83.5,-61.5 83.5,-61.5 4.5,-61.5"/>
<polygon fill="#666666" stroke="#666666" points="4.5,-31.5 4.5,-31.5 19.5,-31.5 19.5,-31.5 4.5,-31.5"/>
<polygon fill="#666666" stroke="#666666" points="19.5,-31.5 19.5,-31.5 83.5,-31.5 83.5,-31.5 19.5,-31.5"/>
<polygon fill="none" stroke="#666666" points="4,0 4,-79 83,-79 83,0 4,0"/>
</a>
</g>
</g>
<!-- Node2 -->
<g id="Node000002" class="node">
<title>Node2</title>
<g id="a_Node000002"><a xlink:href="structPoint.html" target="_top" xlink:title=" ">
<polygon fill="white" stroke="transparent" points="87,-190 0,-190 0,-126 87,-126 87,-190"/>
<text text-anchor="start" x="31.5" y="-178" font-family="Helvetica,sans-Serif" font-size="10.00">Point</text>
<text text-anchor="start" x="4.5" y="-163" font-family="Helvetica,sans-Serif" font-size="10.00">+</text>
<text text-anchor="start" x="17.5" y="-163" font-family="Helvetica,sans-Serif" font-size="10.00">x</text>
<text text-anchor="start" x="4.5" y="-148" font-family="Helvetica,sans-Serif" font-size="10.00">+</text>
<text text-anchor="start" x="17.5" y="-148" font-family="Helvetica,sans-Serif" font-size="10.00">y</text>
<text text-anchor="start" x="4.5" y="-133" font-family="Helvetica,sans-Serif" font-size="10.00">+</text>
<text text-anchor="start" x="17.5" y="-133" font-family="Helvetica,sans-Serif" font-size="10.00">operator==()</text>
<polygon fill="#666666" stroke="#666666" points="0.5,-173 0.5,-173 87.5,-173 87.5,-173 0.5,-173"/>
<polygon fill="#666666" stroke="#666666" points="0.5,-143 0.5,-143 15.5,-143 15.5,-143 0.5,-143"/>
<polygon fill="#666666" stroke="#666666" points="15.5,-143 15.5,-143 87.5,-143 87.5,-143 15.5,-143"/>
<polygon fill="none" stroke="#666666" points="0,-126 0,-190 87,-190 87,-126 0,-126"/>
</a>
</g>
</g>
<!-- Node2&#45;&gt;Node1 -->
<g id="edge1_Node000001_Node000002" class="edge">
<title>Node2&#45;&gt;Node1</title>
<g id="a_edge1_Node000001_Node000002"><a xlink:title=" ">
<path fill="none" stroke="#63b8ff" d="M43.5,-125.78C43.5,-115.29 43.5,-103.29 43.5,-91.67"/>
<polygon fill="none" stroke="#63b8ff" points="43.5,-91.31 39.5,-85.31 43.5,-79.31 47.5,-85.31 43.5,-91.31"/>
</a>
</g>
<text text-anchor="middle" x="62" y="-100" font-family="Helvetica,sans-Serif" font-size="10.00" fill="grey"> +point</text>
</g>
</g>
</svg>
