<?xml version="1.0" encoding="UTF-8" standalone="no"?>
<!DOCTYPE svg PUBLIC "-//W3C//DTD SVG 1.1//EN"
 "http://www.w3.org/Graphics/SVG/1.1/DTD/svg11.dtd">
<!-- Generated by graphviz version 2.43.0 (0)
 -->
<!-- Title: InfoBoxComponent Pages: 1 -->
<svg width="131pt" height="142pt"
 viewBox="0.00 0.00 131.00 142.00" xmlns="http://www.w3.org/2000/svg" xmlns:xlink="http://www.w3.org/1999/xlink">
<g id="graph0" class="graph" transform="scale(1 1) rotate(0) translate(4 138)">
<title>InfoBoxComponent</title>
<!-- Node1 -->
<g id="Node000001" class="node">
<title>Node1</title>
<g id="a_Node000001"><a xlink:title="Holds the dynamic text to be displayed for an entity.">
<polygon fill="#999999" stroke="transparent" points="123,-49 0,-49 0,0 123,0 123,-49"/>
<text text-anchor="start" x="15" y="-36.5" font-family="Helvetica,sans-Serif" font-size="10.00">InfoBoxComponent</text>
<text text-anchor="start" x="4.5" y="-21.5" font-family="Helvetica,sans-Serif" font-size="10.00">+</text>
<text text-anchor="start" x="17.5" y="-21.5" font-family="Helvetica,sans-Serif" font-size="10.00">text</text>
<text text-anchor="start" x="4.5" y="-6.5" font-family="Helvetica,sans-Serif" font-size="10.00">+</text>
<text text-anchor="start" x="17.5" y="-6.5" font-family="Helvetica,sans-Serif" font-size="10.00">InfoBoxComponent()</text>
<polygon fill="#666666" stroke="#666666" points="0.5,-31.5 0.5,-31.5 123.5,-31.5 123.5,-31.5 0.5,-31.5"/>
<polygon fill="#666666" stroke="#666666" points="0.5,-16.5 0.5,-16.5 15.5,-16.5 15.5,-16.5 0.5,-16.5"/>
<polygon fill="#666666" stroke="#666666" points="15.5,-16.5 15.5,-16.5 123.5,-16.5 123.5,-16.5 15.5,-16.5"/>
<polygon fill="none" stroke="#666666" points="0,0 0,-49 123,-49 123,0 0,0"/>
</a>
</g>
</g>
<!-- Node2 -->
<g id="Node000002" class="node">
<title>Node2</title>
<g id="a_Node000002"><a xlink:href="classECS_1_1IComponent.html" target="_top" xlink:title=" ">
<polygon fill="white" stroke="transparent" points="110,-134 13,-134 13,-85 110,-85 110,-134"/>
<text text-anchor="start" x="19.5" y="-121.5" font-family="Helvetica,sans-Serif" font-size="10.00">ECS::IComponent</text>
<text text-anchor="start" x="60" y="-106.5" font-family="Helvetica,sans-Serif" font-size="10.00"> </text>
<text text-anchor="start" x="17.5" y="-91.5" font-family="Helvetica,sans-Serif" font-size="10.00">+</text>
<text text-anchor="start" x="30.5" y="-91.5" font-family="Helvetica,sans-Serif" font-size="10.00">~IComponent()</text>
<polygon fill="#666666" stroke="#666666" points="13.5,-116.5 13.5,-116.5 110.5,-116.5 110.5,-116.5 13.5,-116.5"/>
<polygon fill="#666666" stroke="#666666" points="13.5,-101.5 13.5,-101.5 110.5,-101.5 110.5,-101.5 13.5,-101.5"/>
<polygon fill="none" stroke="#666666" points="13,-85 13,-134 110,-134 110,-85 13,-85"/>
</a>
</g>
</g>
<!-- Node2&#45;&gt;Node1 -->
<g id="edge1_Node000001_Node000002" class="edge">
<title>Node2&#45;&gt;Node1</title>
<g id="a_edge1_Node000001_Node000002"><a xlink:title=" ">
<path fill="none" stroke="#63b8ff" d="M61.5,-74.77C61.5,-66.17 61.5,-57.1 61.5,-49.12"/>
<polygon fill="none" stroke="#63b8ff" points="58,-74.94 61.5,-84.94 65,-74.94 58,-74.94"/>
</a>
</g>
</g>
</g>
</svg>
