<?xml version="1.0" encoding="UTF-8" standalone="no"?>
<!DOCTYPE svg PUBLIC "-//W3C//DTD SVG 1.1//EN"
 "http://www.w3.org/Graphics/SVG/1.1/DTD/svg11.dtd">
<!-- Generated by graphviz version 2.43.0 (0)
 -->
<!-- Title: /home/sean/Projects/Brenda/src/TimeOfDay.h Pages: 1 -->
<svg width="450pt" height="236pt"
 viewBox="0.00 0.00 450.00 236.00" xmlns="http://www.w3.org/2000/svg" xmlns:xlink="http://www.w3.org/1999/xlink">
<g id="graph0" class="graph" transform="scale(1 1) rotate(0) translate(4 232)">
<title>/home/sean/Projects/Brenda/src/TimeOfDay.h</title>
<!-- Node1 -->
<g id="Node000001" class="node">
<title>Node1</title>
<g id="a_Node000001"><a xlink:title=" ">
<polygon fill="#999999" stroke="#666666" points="285,-228 148,-228 148,-198 285,-198 285,-228"/>
<text text-anchor="start" x="156" y="-216" font-family="Helvetica,sans-Serif" font-size="10.00">/home/sean/Projects</text>
<text text-anchor="middle" x="216.5" y="-205" font-family="Helvetica,sans-Serif" font-size="10.00">/Brenda/src/TimeOfDay.h</text>
</a>
</g>
</g>
<!-- Node2 -->
<g id="Node000002" class="node">
<title>Node2</title>
<g id="a_Node000002"><a xlink:href="AISystem_8h.html" target="_top" xlink:title=" ">
<polygon fill="white" stroke="#666666" points="190.5,-96 60.5,-96 60.5,-66 190.5,-66 190.5,-96"/>
<text text-anchor="start" x="68.5" y="-84" font-family="Helvetica,sans-Serif" font-size="10.00">/home/sean/Projects</text>
<text text-anchor="middle" x="125.5" y="-73" font-family="Helvetica,sans-Serif" font-size="10.00">/Brenda/src/AISystem.h</text>
</a>
</g>
</g>
<!-- Node1&#45;&gt;Node2 -->
<g id="edge1_Node000001_Node000002" class="edge">
<title>Node1&#45;&gt;Node2</title>
<g id="a_edge1_Node000001_Node000002"><a xlink:title=" ">
<path fill="none" stroke="#63b8ff" d="M181.32,-192.08C169.77,-184.04 157.79,-173.85 149.5,-162 135.37,-141.8 129.42,-113.15 127.02,-96.18"/>
<polygon fill="#63b8ff" stroke="#63b8ff" points="179.72,-195.22 189.99,-197.8 183.57,-189.37 179.72,-195.22"/>
</a>
</g>
</g>
<!-- Node5 -->
<g id="Node000005" class="node">
<title>Node5</title>
<g id="a_Node000005"><a xlink:href="Clock_8h.html" target="_top" xlink:title=" ">
<polygon fill="white" stroke="#666666" points="274.5,-162 158.5,-162 158.5,-132 274.5,-132 274.5,-162"/>
<text text-anchor="start" x="166.5" y="-150" font-family="Helvetica,sans-Serif" font-size="10.00">/home/sean/Projects</text>
<text text-anchor="middle" x="216.5" y="-139" font-family="Helvetica,sans-Serif" font-size="10.00">/Brenda/src/Clock.h</text>
</a>
</g>
</g>
<!-- Node1&#45;&gt;Node5 -->
<g id="edge4_Node000001_Node000005" class="edge">
<title>Node1&#45;&gt;Node5</title>
<g id="a_edge4_Node000001_Node000005"><a xlink:title=" ">
<path fill="none" stroke="#63b8ff" d="M216.5,-187.54C216.5,-178.96 216.5,-169.61 216.5,-162.16"/>
<polygon fill="#63b8ff" stroke="#63b8ff" points="213,-187.8 216.5,-197.8 220,-187.8 213,-187.8"/>
</a>
</g>
</g>
<!-- Node7 -->
<g id="Node000007" class="node">
<title>Node7</title>
<g id="a_Node000007"><a xlink:href="TimeOfDay_8cpp.html" target="_top" xlink:title=" ">
<polygon fill="white" stroke="#666666" points="442,-162 293,-162 293,-132 442,-132 442,-162"/>
<text text-anchor="start" x="301" y="-150" font-family="Helvetica,sans-Serif" font-size="10.00">/home/sean/Projects</text>
<text text-anchor="middle" x="367.5" y="-139" font-family="Helvetica,sans-Serif" font-size="10.00">/Brenda/src/TimeOfDay.cpp</text>
</a>
</g>
</g>
<!-- Node1&#45;&gt;Node7 -->
<g id="edge8_Node000001_Node000007" class="edge">
<title>Node1&#45;&gt;Node7</title>
<g id="a_edge8_Node000001_Node000007"><a xlink:title=" ">
<path fill="none" stroke="#63b8ff" d="M259.16,-193.92C283.03,-183.8 312.33,-171.38 334.44,-162.01"/>
<polygon fill="#63b8ff" stroke="#63b8ff" points="257.48,-190.83 249.64,-197.95 260.21,-197.28 257.48,-190.83"/>
</a>
</g>
</g>
<!-- Node3 -->
<g id="Node000003" class="node">
<title>Node3</title>
<g id="a_Node000003"><a xlink:href="AISystem_8cpp.html" target="_top" xlink:title=" ">
<polygon fill="white" stroke="#666666" points="141,-30 0,-30 0,0 141,0 141,-30"/>
<text text-anchor="start" x="8" y="-18" font-family="Helvetica,sans-Serif" font-size="10.00">/home/sean/Projects</text>
<text text-anchor="middle" x="70.5" y="-7" font-family="Helvetica,sans-Serif" font-size="10.00">/Brenda/src/AISystem.cpp</text>
</a>
</g>
</g>
<!-- Node2&#45;&gt;Node3 -->
<g id="edge2_Node000002_Node000003" class="edge">
<title>Node2&#45;&gt;Node3</title>
<g id="a_edge2_Node000002_Node000003"><a xlink:title=" ">
<path fill="none" stroke="#63b8ff" d="M106.67,-58.09C98.73,-48.85 89.72,-38.36 82.67,-30.16"/>
<polygon fill="#63b8ff" stroke="#63b8ff" points="104.12,-60.49 113.29,-65.8 109.43,-55.93 104.12,-60.49"/>
</a>
</g>
</g>
<!-- Node4 -->
<g id="Node000004" class="node">
<title>Node4</title>
<g id="a_Node000004"><a xlink:href="main_8cpp.html" target="_top" xlink:title=" ">
<polygon fill="white" stroke="#666666" points="278,-30 159,-30 159,0 278,0 278,-30"/>
<text text-anchor="start" x="167" y="-18" font-family="Helvetica,sans-Serif" font-size="10.00">/home/sean/Projects</text>
<text text-anchor="middle" x="218.5" y="-7" font-family="Helvetica,sans-Serif" font-size="10.00">/Brenda/src/main.cpp</text>
</a>
</g>
</g>
<!-- Node2&#45;&gt;Node4 -->
<g id="edge3_Node000002_Node000004" class="edge">
<title>Node2&#45;&gt;Node4</title>
<g id="a_edge3_Node000002_Node000004"><a xlink:title=" ">
<path fill="none" stroke="#63b8ff" d="M154.52,-60.03C168.59,-50.34 185.17,-38.94 197.92,-30.16"/>
<polygon fill="#63b8ff" stroke="#63b8ff" points="152.39,-57.24 146.14,-65.8 156.36,-63.01 152.39,-57.24"/>
</a>
</g>
</g>
<!-- Node5&#45;&gt;Node2 -->
<g id="edge5_Node000005_Node000002" class="edge">
<title>Node5&#45;&gt;Node2</title>
<g id="a_edge5_Node000005_Node000002"><a xlink:title=" ">
<path fill="none" stroke="#63b8ff" d="M188.1,-126.03C174.33,-116.34 158.12,-104.94 145.64,-96.16"/>
<polygon fill="#63b8ff" stroke="#63b8ff" points="186.11,-128.91 196.3,-131.8 190.14,-123.18 186.11,-128.91"/>
</a>
</g>
</g>
<!-- Node5&#45;&gt;Node4 -->
<g id="edge7_Node000005_Node000004" class="edge">
<title>Node5&#45;&gt;Node4</title>
<g id="a_edge7_Node000005_Node000004"><a xlink:title=" ">
<path fill="none" stroke="#63b8ff" d="M216.87,-121.68C217.29,-94.7 217.94,-52.11 218.28,-30.14"/>
<polygon fill="#63b8ff" stroke="#63b8ff" points="213.37,-121.79 216.72,-131.84 220.37,-121.9 213.37,-121.79"/>
</a>
</g>
</g>
<!-- Node6 -->
<g id="Node000006" class="node">
<title>Node6</title>
<g id="a_Node000006"><a xlink:href="Clock_8cpp.html" target="_top" xlink:title=" ">
<polygon fill="white" stroke="#666666" points="368.5,-96 246.5,-96 246.5,-66 368.5,-66 368.5,-96"/>
<text text-anchor="start" x="254.5" y="-84" font-family="Helvetica,sans-Serif" font-size="10.00">/home/sean/Projects</text>
<text text-anchor="middle" x="307.5" y="-73" font-family="Helvetica,sans-Serif" font-size="10.00">/Brenda/src/Clock.cpp</text>
</a>
</g>
</g>
<!-- Node5&#45;&gt;Node6 -->
<g id="edge6_Node000005_Node000006" class="edge">
<title>Node5&#45;&gt;Node6</title>
<g id="a_edge6_Node000005_Node000006"><a xlink:title=" ">
<path fill="none" stroke="#63b8ff" d="M244.9,-126.03C258.67,-116.34 274.88,-104.94 287.36,-96.16"/>
<polygon fill="#63b8ff" stroke="#63b8ff" points="242.86,-123.18 236.7,-131.8 246.89,-128.91 242.86,-123.18"/>
</a>
</g>
</g>
</g>
</svg>
